<svg xmlns="http://www.w3.org/2000/svg" xmlns:xlink="http://www.w3.org/1999/xlink" width="60" zoomAndPan="magnify" viewBox="0 0 45 44.999999" height="60" preserveAspectRatio="xMidYMid meet" version="1.0"><defs><clipPath id="128ea9e6e6"><path d="M 12.148438 17 L 13 17 L 13 22 L 12.148438 22 Z M 12.148438 17 " clip-rule="nonzero"/></clipPath><clipPath id="4f43709835"><path d="M 20 25 L 25 25 L 25 27.449219 L 20 27.449219 Z M 20 25 " clip-rule="nonzero"/></clipPath><clipPath id="11f598c564"><path d="M 21 12.449219 L 26 12.449219 L 26 16 L 21 16 Z M 21 12.449219 " clip-rule="nonzero"/></clipPath><clipPath id="0d3ad6fc5e"><path d="M 12.148438 20 L 19 20 L 19 27 L 12.148438 27 Z M 12.148438 20 " clip-rule="nonzero"/></clipPath><clipPath id="2930fd49d9"><path d="M 16 23 L 21 23 L 21 27.449219 L 16 27.449219 Z M 16 23 " clip-rule="nonzero"/></clipPath><clipPath id="386a49d033"><path d="M 22 21 L 27.898438 21 L 27.898438 25 L 22 25 Z M 22 21 " clip-rule="nonzero"/></clipPath><clipPath id="2a4e784f68"><path d="M 22 16 L 27.898438 16 L 27.898438 21 L 22 21 Z M 22 16 " clip-rule="nonzero"/></clipPath><clipPath id="d44ef34622"><path d="M 13 12.449219 L 21 12.449219 L 21 17 L 13 17 Z M 13 12.449219 " clip-rule="nonzero"/></clipPath><clipPath id="92a3baf745"><path d="M 11 31 L 24 31 L 24 44.148438 L 11 44.148438 Z M 11 31 " clip-rule="nonzero"/></clipPath><clipPath id="69600b279a"><path d="M 3 0.648438 L 24 0.648438 L 24 14 L 3 14 Z M 3 0.648438 " clip-rule="nonzero"/></clipPath></defs><g clip-path="url(#128ea9e6e6)"><path fill="#381999" d="M 12.425781 21.722656 C 12.390625 21.722656 12.359375 21.699219 12.351562 21.664062 C 12.285156 21.390625 12.238281 21.113281 12.203125 20.832031 C 12.199219 20.789062 12.230469 20.753906 12.273438 20.75 C 12.316406 20.742188 12.355469 20.773438 12.359375 20.816406 C 12.390625 21.089844 12.4375 21.363281 12.503906 21.628906 C 12.511719 21.667969 12.484375 21.710938 12.445312 21.71875 C 12.4375 21.722656 12.433594 21.722656 12.425781 21.722656 Z M 12.234375 20.066406 C 12.191406 20.066406 12.15625 20.035156 12.15625 19.992188 L 12.15625 19.988281 C 12.15625 19.707031 12.171875 19.425781 12.203125 19.148438 C 12.207031 19.109375 12.246094 19.078125 12.289062 19.082031 C 12.332031 19.085938 12.363281 19.125 12.359375 19.167969 C 12.328125 19.4375 12.3125 19.714844 12.3125 19.988281 L 12.3125 19.992188 C 12.3125 20.035156 12.277344 20.066406 12.234375 20.066406 Z M 12.425781 18.414062 C 12.421875 18.414062 12.414062 18.414062 12.410156 18.410156 C 12.367188 18.402344 12.339844 18.359375 12.351562 18.320312 C 12.414062 18.046875 12.496094 17.773438 12.59375 17.511719 C 12.609375 17.472656 12.652344 17.449219 12.691406 17.464844 C 12.734375 17.480469 12.753906 17.523438 12.738281 17.5625 C 12.644531 17.820312 12.566406 18.085938 12.5 18.355469 C 12.492188 18.390625 12.460938 18.414062 12.425781 18.414062 Z M 12.425781 18.414062 " fill-opacity="1" fill-rule="nonzero"/></g><g clip-path="url(#4f43709835)"><path fill="#381999" d="M 20.695312 27.246094 C 20.65625 27.246094 20.625 27.21875 20.617188 27.179688 C 20.613281 27.140625 20.640625 27.101562 20.683594 27.09375 C 20.980469 27.054688 21.273438 26.992188 21.5625 26.914062 C 21.601562 26.90625 21.644531 26.929688 21.65625 26.96875 C 21.667969 27.011719 21.644531 27.050781 21.601562 27.0625 C 21.308594 27.140625 21.007812 27.203125 20.707031 27.246094 C 20.703125 27.246094 20.699219 27.246094 20.695312 27.246094 Z M 22.4375 26.78125 C 22.40625 26.78125 22.378906 26.761719 22.367188 26.730469 C 22.351562 26.695312 22.367188 26.648438 22.410156 26.632812 C 22.683594 26.523438 22.953125 26.394531 23.214844 26.25 C 23.25 26.230469 23.296875 26.242188 23.320312 26.277344 C 23.339844 26.316406 23.328125 26.363281 23.289062 26.382812 C 23.023438 26.527344 22.75 26.660156 22.46875 26.773438 C 22.457031 26.777344 22.449219 26.78125 22.4375 26.78125 Z M 24.011719 25.910156 C 23.988281 25.910156 23.964844 25.898438 23.949219 25.878906 C 23.925781 25.847656 23.929688 25.796875 23.964844 25.773438 C 24.207031 25.601562 24.4375 25.410156 24.652344 25.210938 C 24.683594 25.183594 24.734375 25.183594 24.761719 25.214844 C 24.792969 25.246094 24.789062 25.292969 24.757812 25.320312 C 24.539062 25.527344 24.300781 25.71875 24.058594 25.894531 C 24.042969 25.90625 24.027344 25.910156 24.011719 25.910156 Z M 24.011719 25.910156 " fill-opacity="1" fill-rule="nonzero"/></g><g clip-path="url(#11f598c564)"><path fill="#381999" d="M 25.140625 15.230469 C 25.121094 15.230469 25.097656 15.21875 25.082031 15.203125 C 24.890625 14.992188 24.683594 14.792969 24.46875 14.605469 C 24.4375 14.578125 24.433594 14.53125 24.460938 14.5 C 24.492188 14.46875 24.539062 14.464844 24.574219 14.492188 C 24.792969 14.683594 25.003906 14.886719 25.199219 15.101562 C 25.226562 15.132812 25.226562 15.183594 25.191406 15.210938 C 25.179688 15.222656 25.160156 15.230469 25.140625 15.230469 Z M 23.832031 14.097656 C 23.816406 14.097656 23.800781 14.09375 23.789062 14.082031 C 23.550781 13.921875 23.304688 13.773438 23.050781 13.644531 C 23.011719 13.625 22.996094 13.578125 23.015625 13.539062 C 23.039062 13.503906 23.085938 13.488281 23.121094 13.507812 C 23.382812 13.644531 23.636719 13.792969 23.878906 13.957031 C 23.914062 13.980469 23.921875 14.03125 23.898438 14.0625 C 23.882812 14.085938 23.855469 14.097656 23.832031 14.097656 Z M 22.289062 13.296875 C 22.28125 13.296875 22.273438 13.296875 22.261719 13.292969 C 21.996094 13.191406 21.71875 13.105469 21.4375 13.035156 C 21.398438 13.023438 21.371094 12.984375 21.382812 12.941406 C 21.394531 12.902344 21.4375 12.875 21.476562 12.886719 C 21.761719 12.957031 22.042969 13.046875 22.320312 13.148438 C 22.359375 13.164062 22.378906 13.210938 22.363281 13.25 C 22.351562 13.277344 22.320312 13.296875 22.289062 13.296875 Z M 22.289062 13.296875 " fill-opacity="1" fill-rule="nonzero"/></g><path fill="#afe3ff" d="M 25.0625 19.988281 C 25.0625 20.339844 25.027344 20.683594 24.957031 21.027344 C 24.886719 21.371094 24.785156 21.703125 24.648438 22.027344 C 24.511719 22.351562 24.34375 22.65625 24.144531 22.949219 C 23.949219 23.238281 23.722656 23.507812 23.46875 23.753906 C 23.21875 24.003906 22.945312 24.222656 22.648438 24.417969 C 22.351562 24.613281 22.039062 24.777344 21.707031 24.910156 C 21.378906 25.042969 21.039062 25.144531 20.691406 25.214844 C 20.339844 25.28125 19.988281 25.316406 19.628906 25.316406 C 19.273438 25.316406 18.921875 25.28125 18.570312 25.214844 C 18.222656 25.144531 17.882812 25.042969 17.550781 24.910156 C 17.222656 24.777344 16.910156 24.613281 16.613281 24.417969 C 16.316406 24.222656 16.042969 24.003906 15.789062 23.753906 C 15.539062 23.507812 15.3125 23.238281 15.113281 22.949219 C 14.917969 22.65625 14.75 22.351562 14.613281 22.027344 C 14.476562 21.703125 14.375 21.371094 14.304688 21.027344 C 14.234375 20.683594 14.199219 20.339844 14.199219 19.988281 C 14.199219 19.640625 14.234375 19.292969 14.304688 18.949219 C 14.375 18.605469 14.476562 18.273438 14.613281 17.949219 C 14.75 17.628906 14.917969 17.320312 15.113281 17.03125 C 15.3125 16.738281 15.539062 16.46875 15.789062 16.222656 C 16.042969 15.976562 16.316406 15.753906 16.613281 15.558594 C 16.910156 15.367188 17.222656 15.203125 17.550781 15.066406 C 17.882812 14.933594 18.222656 14.832031 18.570312 14.765625 C 18.921875 14.695312 19.273438 14.664062 19.628906 14.664062 C 19.988281 14.664062 20.339844 14.695312 20.691406 14.765625 C 21.039062 14.832031 21.378906 14.933594 21.707031 15.066406 C 22.039062 15.203125 22.351562 15.367188 22.648438 15.558594 C 22.945312 15.753906 23.21875 15.976562 23.46875 16.222656 C 23.722656 16.46875 23.949219 16.738281 24.144531 17.03125 C 24.34375 17.320312 24.511719 17.628906 24.648438 17.949219 C 24.785156 18.273438 24.886719 18.605469 24.957031 18.949219 C 25.027344 19.292969 25.0625 19.640625 25.0625 19.988281 Z M 25.0625 19.988281 " fill-opacity="1" fill-rule="nonzero"/><path fill="#5eb4ff" d="M 15.195312 20.40625 L 15.195312 20.152344 C 15.195312 19.957031 15.355469 19.800781 15.554688 19.800781 L 16.164062 19.800781 C 16.359375 19.800781 16.519531 19.957031 16.519531 20.152344 L 16.519531 20.40625 Z M 15.195312 20.40625 " fill-opacity="1" fill-rule="nonzero"/><path fill="#381999" d="M 16.519531 20.484375 C 16.476562 20.484375 16.441406 20.449219 16.441406 20.40625 L 16.441406 20.152344 C 16.441406 20 16.316406 19.875 16.164062 19.875 L 15.554688 19.875 C 15.398438 19.875 15.273438 20 15.273438 20.152344 L 15.273438 20.40625 C 15.273438 20.449219 15.238281 20.484375 15.195312 20.484375 C 15.152344 20.484375 15.117188 20.449219 15.117188 20.40625 L 15.117188 20.152344 C 15.117188 19.914062 15.3125 19.722656 15.554688 19.722656 L 16.164062 19.722656 C 16.402344 19.722656 16.597656 19.914062 16.597656 20.152344 L 16.597656 20.40625 C 16.597656 20.449219 16.5625 20.484375 16.519531 20.484375 Z M 16.519531 20.484375 " fill-opacity="1" fill-rule="nonzero"/><g clip-path="url(#0d3ad6fc5e)"><path fill="#ffffff" d="M 18.511719 21.851562 C 17.988281 20.945312 16.996094 20.335938 15.859375 20.335938 C 14.171875 20.335938 12.804688 21.675781 12.804688 23.328125 C 12.804688 24.980469 14.171875 26.320312 15.859375 26.320312 C 16.714844 26.320312 17.492188 25.976562 18.046875 25.414062 Z M 18.511719 21.851562 " fill-opacity="1" fill-rule="nonzero"/><path fill="#381999" d="M 15.859375 26.398438 C 15.433594 26.398438 15.027344 26.316406 14.640625 26.15625 C 14.265625 26.003906 13.933594 25.78125 13.644531 25.5 C 13.359375 25.21875 13.132812 24.890625 12.972656 24.523438 C 12.8125 24.144531 12.726562 23.742188 12.726562 23.328125 C 12.726562 22.914062 12.8125 22.511719 12.972656 22.132812 C 13.132812 21.769531 13.359375 21.441406 13.644531 21.160156 C 13.933594 20.875 14.265625 20.65625 14.640625 20.5 C 15.027344 20.339844 15.433594 20.257812 15.859375 20.257812 C 16.421875 20.257812 16.972656 20.40625 17.453125 20.6875 C 17.921875 20.960938 18.3125 21.347656 18.578125 21.8125 C 18.601562 21.847656 18.585938 21.894531 18.550781 21.917969 C 18.511719 21.9375 18.464844 21.925781 18.445312 21.886719 C 17.917969 20.976562 16.925781 20.410156 15.859375 20.410156 C 14.21875 20.410156 12.882812 21.71875 12.882812 23.328125 C 12.882812 24.9375 14.21875 26.246094 15.859375 26.246094 C 16.667969 26.246094 17.425781 25.933594 17.988281 25.363281 C 18.019531 25.332031 18.070312 25.332031 18.101562 25.359375 C 18.128906 25.390625 18.132812 25.4375 18.101562 25.46875 C 17.8125 25.757812 17.476562 25.988281 17.097656 26.148438 C 16.703125 26.3125 16.289062 26.398438 15.859375 26.398438 Z M 15.859375 26.398438 " fill-opacity="1" fill-rule="nonzero"/></g><path fill="#381999" d="M 15.859375 23.40625 L 14.140625 23.40625 C 14.097656 23.40625 14.066406 23.371094 14.066406 23.328125 C 14.066406 23.285156 14.097656 23.253906 14.140625 23.253906 L 15.78125 23.253906 L 15.78125 21.644531 C 15.78125 21.605469 15.816406 21.570312 15.859375 21.570312 C 15.902344 21.570312 15.9375 21.605469 15.9375 21.644531 L 15.9375 23.328125 C 15.9375 23.371094 15.902344 23.40625 15.859375 23.40625 Z M 15.859375 23.40625 " fill-opacity="1" fill-rule="nonzero"/><path fill="#5eb4ff" d="M 19.574219 21.75 C 19.539062 21.683594 19.5 21.621094 19.453125 21.5625 L 19.617188 21.203125 C 19.539062 21.121094 19.449219 21.046875 19.347656 20.984375 C 19.246094 20.917969 19.144531 20.867188 19.035156 20.828125 L 18.765625 21.121094 C 18.617188 21.085938 18.464844 21.074219 18.308594 21.09375 L 18.074219 20.773438 C 17.960938 20.804688 17.851562 20.84375 17.746094 20.894531 C 17.636719 20.949219 17.542969 21.011719 17.453125 21.082031 L 17.574219 21.460938 C 17.46875 21.570312 17.382812 21.695312 17.324219 21.832031 L 16.925781 21.875 C 16.894531 21.980469 16.875 22.09375 16.867188 22.210938 C 16.859375 22.328125 16.867188 22.445312 16.886719 22.554688 L 17.28125 22.640625 C 17.300781 22.710938 17.328125 22.78125 17.363281 22.847656 C 17.398438 22.917969 17.441406 22.980469 17.484375 23.039062 L 17.320312 23.398438 C 17.402344 23.480469 17.492188 23.554688 17.589844 23.617188 C 17.691406 23.683594 17.796875 23.734375 17.902344 23.773438 L 18.175781 23.480469 C 18.320312 23.515625 18.476562 23.523438 18.628906 23.503906 L 18.863281 23.824219 C 18.976562 23.796875 19.085938 23.757812 19.195312 23.707031 C 19.300781 23.652344 19.398438 23.589844 19.488281 23.515625 L 19.363281 23.140625 C 19.472656 23.03125 19.554688 22.902344 19.613281 22.765625 L 20.015625 22.726562 C 20.046875 22.617188 20.066406 22.503906 20.070312 22.386719 C 20.078125 22.269531 20.070312 22.15625 20.050781 22.042969 L 19.660156 21.960938 C 19.636719 21.890625 19.609375 21.820312 19.574219 21.75 Z M 19.574219 21.75 " fill-opacity="1" fill-rule="nonzero"/><path fill="#381999" d="M 18.863281 23.902344 C 18.839844 23.902344 18.816406 23.890625 18.800781 23.871094 L 18.59375 23.585938 C 18.460938 23.597656 18.328125 23.589844 18.203125 23.5625 L 17.960938 23.824219 C 17.941406 23.847656 17.90625 23.855469 17.875 23.84375 C 17.757812 23.800781 17.648438 23.746094 17.546875 23.679688 C 17.449219 23.617188 17.351562 23.539062 17.265625 23.453125 C 17.242188 23.429688 17.238281 23.394531 17.25 23.367188 L 17.394531 23.046875 C 17.355469 22.992188 17.324219 22.9375 17.292969 22.882812 C 17.265625 22.828125 17.242188 22.765625 17.21875 22.703125 L 16.871094 22.628906 C 16.839844 22.625 16.816406 22.597656 16.808594 22.566406 C 16.789062 22.445312 16.78125 22.324219 16.789062 22.207031 C 16.796875 22.089844 16.816406 21.972656 16.851562 21.851562 C 16.859375 21.824219 16.886719 21.800781 16.917969 21.796875 L 17.273438 21.761719 C 17.328125 21.644531 17.398438 21.539062 17.488281 21.441406 L 17.378906 21.105469 C 17.367188 21.078125 17.378906 21.042969 17.402344 21.023438 C 17.5 20.945312 17.601562 20.878906 17.710938 20.828125 C 17.816406 20.773438 17.933594 20.730469 18.054688 20.703125 C 18.085938 20.695312 18.117188 20.707031 18.136719 20.730469 L 18.347656 21.015625 C 18.476562 21.003906 18.609375 21.011719 18.738281 21.035156 L 18.976562 20.777344 C 19 20.753906 19.03125 20.746094 19.0625 20.757812 C 19.179688 20.800781 19.289062 20.855469 19.390625 20.917969 C 19.492188 20.984375 19.585938 21.058594 19.675781 21.148438 C 19.695312 21.171875 19.703125 21.203125 19.6875 21.234375 L 19.542969 21.550781 C 19.582031 21.605469 19.617188 21.660156 19.644531 21.71875 C 19.671875 21.773438 19.699219 21.832031 19.71875 21.894531 L 20.070312 21.96875 C 20.101562 21.976562 20.125 22 20.128906 22.03125 C 20.148438 22.152344 20.15625 22.273438 20.148438 22.390625 C 20.144531 22.507812 20.121094 22.628906 20.089844 22.746094 C 20.078125 22.777344 20.054688 22.800781 20.023438 22.800781 L 19.667969 22.839844 C 19.613281 22.957031 19.539062 23.0625 19.453125 23.160156 L 19.5625 23.492188 C 19.570312 23.523438 19.5625 23.554688 19.535156 23.574219 C 19.4375 23.652344 19.335938 23.71875 19.230469 23.773438 C 19.121094 23.828125 19.003906 23.867188 18.882812 23.898438 C 18.878906 23.902344 18.871094 23.902344 18.863281 23.902344 Z M 18.628906 23.429688 C 18.652344 23.429688 18.675781 23.441406 18.691406 23.460938 L 18.898438 23.738281 C 18.988281 23.710938 19.078125 23.679688 19.160156 23.636719 C 19.242188 23.597656 19.320312 23.546875 19.398438 23.488281 L 19.289062 23.164062 C 19.28125 23.136719 19.289062 23.109375 19.308594 23.089844 C 19.40625 22.984375 19.488281 22.867188 19.542969 22.738281 C 19.550781 22.710938 19.578125 22.695312 19.605469 22.691406 L 19.953125 22.65625 C 19.976562 22.566406 19.988281 22.472656 19.996094 22.382812 C 20 22.292969 19.996094 22.199219 19.984375 22.109375 L 19.644531 22.035156 C 19.613281 22.03125 19.59375 22.007812 19.585938 21.980469 C 19.5625 21.910156 19.539062 21.847656 19.507812 21.785156 C 19.476562 21.726562 19.4375 21.667969 19.390625 21.609375 C 19.375 21.585938 19.371094 21.554688 19.382812 21.53125 L 19.527344 21.21875 C 19.457031 21.152344 19.382812 21.09375 19.304688 21.046875 C 19.230469 20.996094 19.144531 20.953125 19.058594 20.917969 L 18.820312 21.171875 C 18.804688 21.191406 18.773438 21.199219 18.746094 21.195312 C 18.605469 21.160156 18.464844 21.152344 18.320312 21.171875 C 18.292969 21.175781 18.265625 21.164062 18.246094 21.140625 L 18.042969 20.863281 C 17.949219 20.886719 17.863281 20.921875 17.78125 20.964844 C 17.699219 21.003906 17.617188 21.054688 17.542969 21.109375 L 17.648438 21.4375 C 17.65625 21.464844 17.652344 21.492188 17.632812 21.511719 C 17.53125 21.613281 17.453125 21.734375 17.398438 21.863281 C 17.386719 21.886719 17.363281 21.90625 17.332031 21.910156 L 16.988281 21.945312 C 16.964844 22.035156 16.949219 22.125 16.945312 22.21875 C 16.9375 22.308594 16.941406 22.398438 16.957031 22.492188 L 17.296875 22.566406 C 17.324219 22.570312 17.347656 22.589844 17.355469 22.617188 C 17.375 22.6875 17.402344 22.753906 17.433594 22.8125 C 17.464844 22.875 17.5 22.933594 17.546875 22.992188 C 17.566406 23.015625 17.566406 23.042969 17.554688 23.070312 L 17.414062 23.382812 C 17.484375 23.445312 17.554688 23.503906 17.632812 23.554688 C 17.710938 23.601562 17.792969 23.648438 17.882812 23.683594 L 18.117188 23.429688 C 18.136719 23.410156 18.164062 23.398438 18.191406 23.40625 C 18.332031 23.441406 18.476562 23.449219 18.621094 23.429688 C 18.621094 23.429688 18.625 23.429688 18.628906 23.429688 Z M 18.628906 23.429688 " fill-opacity="1" fill-rule="nonzero"/><path fill="#ffffff" d="M 18.925781 21.769531 C 19.0625 21.902344 19.132812 22.066406 19.132812 22.257812 C 19.132812 22.449219 19.0625 22.609375 18.925781 22.746094 C 18.789062 22.878906 18.621094 22.949219 18.425781 22.949219 C 18.234375 22.949219 18.066406 22.878906 17.929688 22.746094 C 17.792969 22.609375 17.722656 22.449219 17.722656 22.257812 C 17.722656 22.066406 17.792969 21.902344 17.929688 21.769531 C 18.066406 21.632812 18.230469 21.566406 18.425781 21.566406 C 18.621094 21.566406 18.789062 21.632812 18.925781 21.769531 Z M 18.925781 21.769531 " fill-opacity="1" fill-rule="nonzero"/><path fill="#381999" d="M 18.429688 23.023438 C 18.140625 23.023438 17.867188 22.871094 17.730469 22.601562 C 17.535156 22.226562 17.6875 21.761719 18.074219 21.570312 C 18.460938 21.382812 18.929688 21.535156 19.125 21.910156 C 19.21875 22.09375 19.234375 22.300781 19.171875 22.496094 C 19.105469 22.691406 18.964844 22.847656 18.78125 22.941406 C 18.667969 22.996094 18.546875 23.023438 18.429688 23.023438 Z M 18.425781 21.640625 C 18.332031 21.640625 18.234375 21.664062 18.144531 21.707031 C 17.835938 21.859375 17.710938 22.230469 17.867188 22.535156 C 17.976562 22.75 18.199219 22.871094 18.429688 22.871094 C 18.523438 22.871094 18.621094 22.851562 18.710938 22.804688 C 18.859375 22.730469 18.96875 22.605469 19.023438 22.449219 C 19.074219 22.292969 19.0625 22.125 18.988281 21.980469 C 18.875 21.765625 18.65625 21.640625 18.425781 21.640625 Z M 18.425781 21.640625 " fill-opacity="1" fill-rule="nonzero"/><g clip-path="url(#2930fd49d9)"><path fill="#ffc45e" d="M 19.859375 25.414062 C 19.867188 25.3125 19.863281 25.214844 19.851562 25.117188 L 20.289062 24.820312 C 20.253906 24.671875 20.203125 24.53125 20.132812 24.390625 C 20.066406 24.25 19.980469 24.125 19.886719 24.007812 L 19.378906 24.160156 C 19.238281 24.019531 19.066406 23.910156 18.882812 23.828125 L 18.835938 23.308594 C 18.691406 23.265625 18.539062 23.238281 18.382812 23.226562 C 18.222656 23.214844 18.070312 23.222656 17.917969 23.246094 L 17.796875 23.753906 C 17.601562 23.804688 17.417969 23.890625 17.257812 24.007812 L 16.777344 23.789062 C 16.667969 23.890625 16.566406 24.003906 16.476562 24.132812 C 16.386719 24.261719 16.316406 24.394531 16.261719 24.535156 L 16.648438 24.890625 C 16.625 24.984375 16.605469 25.082031 16.597656 25.183594 C 16.589844 25.28125 16.59375 25.382812 16.605469 25.476562 L 16.171875 25.777344 C 16.207031 25.921875 16.253906 26.0625 16.324219 26.203125 C 16.394531 26.34375 16.476562 26.46875 16.570312 26.585938 L 17.078125 26.4375 C 17.222656 26.574219 17.390625 26.6875 17.578125 26.765625 L 17.621094 27.285156 C 17.769531 27.328125 17.917969 27.355469 18.078125 27.367188 C 18.234375 27.378906 18.390625 27.371094 18.539062 27.351562 L 18.660156 26.84375 C 18.855469 26.789062 19.039062 26.703125 19.199219 26.585938 L 19.679688 26.808594 C 19.792969 26.703125 19.894531 26.589844 19.980469 26.460938 C 20.070312 26.332031 20.140625 26.199219 20.195312 26.0625 L 19.808594 25.703125 C 19.835938 25.609375 19.851562 25.511719 19.859375 25.414062 Z M 19.859375 25.414062 " fill-opacity="1" fill-rule="nonzero"/><path fill="#381999" d="M 18.222656 27.449219 C 18.171875 27.449219 18.121094 27.449219 18.070312 27.445312 C 17.914062 27.433594 17.757812 27.40625 17.601562 27.359375 C 17.570312 27.351562 17.546875 27.324219 17.546875 27.292969 L 17.503906 26.816406 C 17.339844 26.742188 17.191406 26.644531 17.058594 26.523438 L 16.59375 26.660156 C 16.5625 26.667969 16.53125 26.660156 16.511719 26.632812 C 16.410156 26.507812 16.324219 26.375 16.253906 26.238281 C 16.1875 26.097656 16.132812 25.949219 16.09375 25.792969 C 16.085938 25.761719 16.101562 25.730469 16.125 25.714844 L 16.523438 25.441406 C 16.515625 25.351562 16.515625 25.261719 16.519531 25.175781 C 16.527344 25.089844 16.542969 25.003906 16.5625 24.914062 L 16.207031 24.589844 C 16.183594 24.570312 16.179688 24.535156 16.191406 24.507812 C 16.25 24.355469 16.324219 24.21875 16.414062 24.089844 C 16.5 23.964844 16.605469 23.84375 16.722656 23.734375 C 16.746094 23.710938 16.78125 23.707031 16.808594 23.71875 L 17.25 23.921875 C 17.398438 23.820312 17.558594 23.742188 17.734375 23.691406 L 17.84375 23.226562 C 17.851562 23.195312 17.875 23.171875 17.90625 23.167969 C 18.070312 23.144531 18.230469 23.140625 18.386719 23.152344 C 18.542969 23.160156 18.703125 23.191406 18.859375 23.234375 C 18.886719 23.246094 18.910156 23.273438 18.914062 23.300781 L 18.953125 23.777344 C 19.117188 23.851562 19.269531 23.953125 19.398438 24.074219 L 19.863281 23.933594 C 19.894531 23.925781 19.929688 23.9375 19.949219 23.960938 C 20.050781 24.085938 20.136719 24.21875 20.203125 24.359375 C 20.273438 24.496094 20.324219 24.644531 20.363281 24.800781 C 20.371094 24.832031 20.359375 24.863281 20.332031 24.882812 L 19.933594 25.152344 C 19.941406 25.242188 19.945312 25.332031 19.9375 25.417969 C 19.929688 25.503906 19.917969 25.589844 19.894531 25.679688 L 20.25 26.003906 C 20.273438 26.027344 20.28125 26.058594 20.269531 26.089844 C 20.207031 26.238281 20.132812 26.378906 20.046875 26.503906 C 19.957031 26.632812 19.855469 26.753906 19.734375 26.863281 C 19.710938 26.882812 19.675781 26.890625 19.648438 26.875 L 19.207031 26.671875 C 19.0625 26.773438 18.898438 26.851562 18.726562 26.902344 L 18.613281 27.367188 C 18.609375 27.398438 18.582031 27.421875 18.550781 27.425781 C 18.441406 27.441406 18.332031 27.449219 18.222656 27.449219 Z M 17.695312 27.226562 C 17.824219 27.261719 17.953125 27.285156 18.082031 27.292969 C 18.210938 27.300781 18.34375 27.296875 18.476562 27.28125 L 18.585938 26.824219 C 18.589844 26.796875 18.613281 26.777344 18.640625 26.769531 C 18.828125 26.71875 19 26.636719 19.15625 26.523438 C 19.175781 26.507812 19.207031 26.503906 19.234375 26.515625 L 19.664062 26.714844 C 19.761719 26.625 19.84375 26.523438 19.917969 26.417969 C 19.988281 26.316406 20.050781 26.203125 20.105469 26.082031 L 19.757812 25.761719 C 19.734375 25.742188 19.726562 25.710938 19.734375 25.683594 C 19.761719 25.589844 19.777344 25.5 19.78125 25.40625 C 19.789062 25.316406 19.785156 25.222656 19.777344 25.125 C 19.773438 25.097656 19.785156 25.070312 19.808594 25.054688 L 20.199219 24.785156 C 20.164062 24.660156 20.121094 24.539062 20.0625 24.425781 C 20.007812 24.3125 19.9375 24.199219 19.859375 24.097656 L 19.402344 24.230469 C 19.375 24.238281 19.34375 24.234375 19.324219 24.210938 C 19.1875 24.082031 19.027344 23.972656 18.851562 23.898438 C 18.824219 23.886719 18.804688 23.863281 18.804688 23.835938 L 18.761719 23.367188 C 18.632812 23.332031 18.503906 23.3125 18.375 23.300781 C 18.246094 23.292969 18.117188 23.296875 17.984375 23.3125 L 17.875 23.769531 C 17.867188 23.796875 17.847656 23.816406 17.820312 23.824219 C 17.632812 23.875 17.457031 23.957031 17.304688 24.070312 C 17.28125 24.085938 17.25 24.089844 17.226562 24.078125 L 16.792969 23.878906 C 16.699219 23.972656 16.613281 24.070312 16.539062 24.175781 C 16.46875 24.28125 16.40625 24.394531 16.355469 24.515625 L 16.703125 24.835938 C 16.722656 24.855469 16.730469 24.882812 16.722656 24.910156 C 16.699219 25.003906 16.683594 25.097656 16.675781 25.1875 C 16.667969 25.277344 16.671875 25.371094 16.683594 25.46875 C 16.6875 25.496094 16.671875 25.523438 16.648438 25.539062 L 16.257812 25.808594 C 16.292969 25.9375 16.339844 26.058594 16.394531 26.171875 C 16.449219 26.285156 16.519531 26.394531 16.601562 26.5 L 17.058594 26.363281 C 17.085938 26.355469 17.113281 26.363281 17.132812 26.382812 C 17.269531 26.515625 17.429688 26.621094 17.609375 26.695312 C 17.632812 26.707031 17.652344 26.730469 17.65625 26.761719 Z M 19.859375 25.414062 Z M 19.859375 25.414062 " fill-opacity="1" fill-rule="nonzero"/></g><path fill="#ffffff" d="M 18.828125 24.707031 C 18.996094 24.871094 19.078125 25.066406 19.078125 25.296875 C 19.078125 25.527344 18.996094 25.722656 18.828125 25.886719 C 18.664062 26.050781 18.464844 26.128906 18.230469 26.128906 C 17.996094 26.128906 17.792969 26.050781 17.628906 25.886719 C 17.460938 25.722656 17.378906 25.527344 17.378906 25.296875 C 17.378906 25.066406 17.460938 24.871094 17.628906 24.707031 C 17.792969 24.546875 17.996094 24.464844 18.230469 24.464844 C 18.464844 24.464844 18.664062 24.546875 18.828125 24.707031 Z M 18.828125 24.707031 " fill-opacity="1" fill-rule="nonzero"/><path fill="#381999" d="M 18.230469 26.207031 C 18.207031 26.207031 18.183594 26.207031 18.164062 26.203125 C 17.914062 26.1875 17.691406 26.074219 17.527344 25.890625 C 17.367188 25.707031 17.289062 25.472656 17.304688 25.230469 C 17.324219 24.988281 17.4375 24.769531 17.621094 24.609375 C 17.808594 24.453125 18.050781 24.375 18.296875 24.390625 C 18.804688 24.425781 19.191406 24.863281 19.152344 25.363281 C 19.117188 25.839844 18.710938 26.207031 18.230469 26.207031 Z M 18.226562 24.539062 C 18.042969 24.539062 17.867188 24.605469 17.722656 24.726562 C 17.570312 24.859375 17.472656 25.042969 17.460938 25.242188 C 17.445312 25.445312 17.511719 25.640625 17.644531 25.792969 C 17.78125 25.945312 17.96875 26.039062 18.175781 26.050781 C 18.191406 26.054688 18.210938 26.054688 18.230469 26.054688 C 18.628906 26.054688 18.96875 25.75 19 25.351562 C 19.03125 24.9375 18.710938 24.574219 18.285156 24.542969 C 18.265625 24.542969 18.246094 24.539062 18.226562 24.539062 Z M 18.226562 24.539062 " fill-opacity="1" fill-rule="nonzero"/><g clip-path="url(#386a49d033)"><path fill="#5eb4ff" d="M 27.816406 24.375 L 27.816406 23.691406 C 27.816406 22.472656 26.835938 21.40625 25.605469 21.359375 L 24.296875 21.359375 C 23.066406 21.40625 22.082031 22.472656 22.082031 23.691406 L 22.082031 24.375 Z M 27.816406 24.375 " fill-opacity="1" fill-rule="nonzero"/><path fill="#381999" d="M 27.816406 24.453125 C 27.773438 24.453125 27.738281 24.417969 27.738281 24.375 L 27.738281 23.691406 C 27.738281 22.492188 26.78125 21.480469 25.601562 21.433594 L 24.296875 21.433594 C 23.121094 21.480469 22.160156 22.492188 22.160156 23.691406 L 22.160156 24.375 C 22.160156 24.417969 22.125 24.453125 22.082031 24.453125 C 22.039062 24.453125 22.003906 24.417969 22.003906 24.375 L 22.003906 23.691406 C 22.003906 23.382812 22.066406 23.078125 22.183594 22.789062 C 22.296875 22.511719 22.460938 22.253906 22.671875 22.035156 C 23.105469 21.574219 23.679688 21.304688 24.292969 21.28125 C 24.292969 21.28125 24.296875 21.28125 24.296875 21.28125 L 25.605469 21.28125 C 26.21875 21.304688 26.796875 21.574219 27.230469 22.035156 C 27.4375 22.253906 27.601562 22.511719 27.714844 22.789062 C 27.835938 23.078125 27.894531 23.382812 27.894531 23.691406 L 27.894531 24.375 C 27.894531 24.417969 27.859375 24.453125 27.816406 24.453125 Z M 27.816406 24.453125 " fill-opacity="1" fill-rule="nonzero"/></g><path fill="#381999" d="M 26.777344 24.453125 C 26.734375 24.453125 26.699219 24.417969 26.699219 24.375 L 26.699219 23.292969 C 26.699219 23.253906 26.734375 23.21875 26.777344 23.21875 C 26.820312 23.21875 26.855469 23.253906 26.855469 23.292969 L 26.855469 24.375 C 26.855469 24.417969 26.820312 24.453125 26.777344 24.453125 Z M 26.777344 24.453125 " fill-opacity="1" fill-rule="nonzero"/><path fill="#ffffff" d="M 24.292969 20.582031 L 24.292969 21.347656 C 24.292969 21.703125 24.585938 21.992188 24.949219 21.992188 C 25.308594 21.992188 25.605469 21.703125 25.605469 21.347656 L 25.605469 20.585938 Z M 24.292969 20.582031 " fill-opacity="1" fill-rule="nonzero"/><path fill="#381999" d="M 24.949219 22.066406 C 24.542969 22.066406 24.214844 21.746094 24.214844 21.347656 L 24.214844 20.582031 C 24.214844 20.542969 24.25 20.507812 24.292969 20.507812 C 24.335938 20.507812 24.371094 20.542969 24.371094 20.582031 L 24.371094 21.347656 C 24.371094 21.660156 24.628906 21.914062 24.949219 21.914062 C 25.265625 21.914062 25.527344 21.660156 25.527344 21.347656 L 25.527344 20.585938 C 25.527344 20.546875 25.5625 20.511719 25.605469 20.511719 C 25.644531 20.511719 25.679688 20.546875 25.679688 20.585938 L 25.679688 21.347656 C 25.679688 21.746094 25.351562 22.066406 24.949219 22.066406 Z M 24.949219 22.066406 " fill-opacity="1" fill-rule="nonzero"/><path fill="#ffc45e" d="M 23.605469 16.441406 C 23.28125 16.539062 23.035156 16.839844 23.035156 17.273438 L 23.035156 18.347656 L 26.871094 18.359375 L 26.871094 17.273438 C 26.871094 16.625 26.332031 16.09375 25.667969 16.09375 L 23.515625 16.09375 C 23.515625 16.484375 23.835938 16.800781 24.234375 16.800781 L 25.035156 16.800781 Z M 23.605469 16.441406 " fill-opacity="1" fill-rule="nonzero"/><path fill="#381999" d="M 26.871094 18.4375 L 23.035156 18.425781 C 22.992188 18.425781 22.957031 18.390625 22.957031 18.347656 L 22.957031 17.273438 C 22.957031 17.050781 23.019531 16.847656 23.136719 16.6875 C 23.230469 16.558594 23.355469 16.460938 23.5 16.398438 C 23.460938 16.304688 23.4375 16.203125 23.4375 16.09375 C 23.4375 16.050781 23.472656 16.019531 23.515625 16.019531 L 25.667969 16.019531 C 26.375 16.019531 26.949219 16.582031 26.949219 17.273438 L 26.949219 18.359375 C 26.949219 18.378906 26.941406 18.398438 26.925781 18.414062 C 26.914062 18.429688 26.894531 18.4375 26.871094 18.4375 Z M 23.113281 18.273438 L 26.792969 18.285156 L 26.792969 17.273438 C 26.792969 16.667969 26.289062 16.171875 25.667969 16.171875 L 23.597656 16.171875 C 23.636719 16.480469 23.90625 16.722656 24.234375 16.722656 L 25.035156 16.722656 C 25.078125 16.722656 25.109375 16.757812 25.109375 16.800781 C 25.109375 16.84375 25.078125 16.875 25.035156 16.875 L 24.234375 16.875 C 23.960938 16.875 23.71875 16.738281 23.574219 16.53125 C 23.289062 16.644531 23.113281 16.921875 23.113281 17.273438 Z M 23.113281 18.273438 " fill-opacity="1" fill-rule="nonzero"/><g clip-path="url(#2a4e784f68)"><path fill="#ffffff" d="M 23.492188 18.144531 L 23.492188 17.988281 C 23.492188 17.332031 24.035156 16.800781 24.703125 16.800781 L 25.203125 16.800781 C 25.871094 16.800781 26.414062 17.332031 26.414062 17.988281 L 26.414062 18.148438 C 26.746094 18.152344 27.015625 18.417969 27.015625 18.742188 C 27.015625 19.070312 26.746094 19.335938 26.414062 19.339844 L 26.414062 19.390625 C 26.414062 20.105469 25.820312 20.6875 25.089844 20.6875 L 24.816406 20.6875 C 24.085938 20.6875 23.492188 20.105469 23.492188 19.390625 L 23.492188 19.339844 C 23.15625 19.339844 22.882812 19.074219 22.882812 18.742188 C 22.882812 18.414062 23.15625 18.144531 23.492188 18.144531 Z M 23.492188 18.144531 " fill-opacity="1" fill-rule="nonzero"/><path fill="#381999" d="M 25.089844 20.765625 L 24.816406 20.765625 C 24.441406 20.765625 24.089844 20.621094 23.824219 20.363281 C 23.566406 20.109375 23.421875 19.773438 23.414062 19.414062 C 23.070312 19.375 22.804688 19.089844 22.804688 18.742188 C 22.804688 18.398438 23.070312 18.113281 23.414062 18.074219 L 23.414062 17.988281 C 23.414062 17.289062 23.992188 16.722656 24.703125 16.722656 L 25.203125 16.722656 C 25.914062 16.722656 26.492188 17.289062 26.492188 17.988281 L 26.492188 18.074219 C 26.644531 18.09375 26.785156 18.164062 26.894531 18.269531 C 27.023438 18.398438 27.09375 18.566406 27.09375 18.742188 C 27.09375 18.921875 27.023438 19.089844 26.894531 19.21875 C 26.785156 19.324219 26.644531 19.394531 26.492188 19.410156 C 26.488281 19.769531 26.339844 20.109375 26.082031 20.363281 C 25.816406 20.621094 25.464844 20.765625 25.089844 20.765625 Z M 24.703125 16.875 C 24.078125 16.875 23.570312 17.375 23.570312 17.988281 L 23.570312 18.144531 C 23.570312 18.1875 23.535156 18.222656 23.492188 18.222656 C 23.199219 18.222656 22.960938 18.457031 22.960938 18.742188 C 22.960938 19.03125 23.199219 19.265625 23.492188 19.265625 C 23.535156 19.265625 23.570312 19.300781 23.570312 19.339844 L 23.570312 19.390625 C 23.570312 20.0625 24.128906 20.613281 24.816406 20.613281 L 25.089844 20.613281 C 25.777344 20.613281 26.335938 20.0625 26.335938 19.390625 L 26.335938 19.339844 C 26.335938 19.300781 26.371094 19.265625 26.414062 19.265625 C 26.703125 19.261719 26.9375 19.027344 26.9375 18.742188 C 26.9375 18.460938 26.703125 18.226562 26.414062 18.222656 C 26.371094 18.222656 26.335938 18.1875 26.335938 18.148438 L 26.335938 17.988281 C 26.335938 17.375 25.828125 16.875 25.203125 16.875 Z M 24.703125 16.875 " fill-opacity="1" fill-rule="nonzero"/></g><path fill="#ffc45e" d="M 21.859375 22.28125 L 21.878906 23.945312 C 21.882812 24.296875 22.179688 24.582031 22.539062 24.578125 C 22.902344 24.570312 23.1875 24.28125 23.183594 23.925781 L 23.164062 22.261719 Z M 21.859375 22.28125 " fill-opacity="1" fill-rule="nonzero"/><path fill="#381999" d="M 22.53125 24.652344 C 22.339844 24.652344 22.160156 24.582031 22.023438 24.449219 C 21.882812 24.316406 21.804688 24.136719 21.800781 23.945312 L 21.78125 22.28125 C 21.78125 22.238281 21.816406 22.203125 21.859375 22.203125 C 21.902344 22.203125 21.933594 22.238281 21.9375 22.277344 L 21.957031 23.945312 C 21.957031 24.09375 22.019531 24.234375 22.128906 24.339844 C 22.238281 24.445312 22.386719 24.503906 22.539062 24.5 C 22.855469 24.496094 23.109375 24.238281 23.105469 23.929688 L 23.085938 22.261719 C 23.085938 22.222656 23.121094 22.1875 23.164062 22.1875 C 23.207031 22.1875 23.242188 22.21875 23.242188 22.261719 L 23.261719 23.925781 C 23.265625 24.320312 22.945312 24.648438 22.542969 24.652344 C 22.539062 24.652344 22.535156 24.652344 22.53125 24.652344 Z M 22.53125 24.652344 " fill-opacity="1" fill-rule="nonzero"/><path fill="#ffc45e" d="M 21.640625 21.835938 L 21.65625 22.320312 C 21.65625 22.40625 21.730469 22.476562 21.820312 22.476562 L 23.207031 22.457031 C 23.296875 22.457031 23.367188 22.382812 23.367188 22.296875 L 23.355469 21.804688 Z M 21.640625 21.835938 " fill-opacity="1" fill-rule="nonzero"/><path fill="#381999" d="M 21.816406 22.550781 C 21.6875 22.550781 21.582031 22.449219 21.578125 22.320312 L 21.5625 21.839844 C 21.5625 21.796875 21.59375 21.761719 21.636719 21.761719 C 21.636719 21.761719 21.640625 21.761719 21.640625 21.761719 C 21.679688 21.761719 21.714844 21.792969 21.71875 21.835938 L 21.734375 22.316406 C 21.734375 22.363281 21.773438 22.398438 21.816406 22.398438 C 21.816406 22.398438 21.820312 22.398438 21.820312 22.398438 L 23.207031 22.382812 C 23.230469 22.382812 23.25 22.371094 23.265625 22.355469 C 23.28125 22.339844 23.289062 22.320312 23.289062 22.296875 L 23.277344 21.808594 C 23.277344 21.765625 23.308594 21.730469 23.351562 21.730469 C 23.394531 21.730469 23.429688 21.761719 23.433594 21.804688 L 23.445312 22.292969 C 23.445312 22.292969 23.445312 22.292969 23.445312 22.296875 C 23.445312 22.425781 23.339844 22.53125 23.207031 22.535156 L 21.820312 22.550781 C 21.820312 22.550781 21.820312 22.550781 21.816406 22.550781 Z M 21.816406 22.550781 " fill-opacity="1" fill-rule="nonzero"/><path fill="#ffffff" d="M 24.082031 18.144531 C 24.296875 18.355469 24.460938 18.597656 24.578125 18.871094 C 24.695312 19.148438 24.753906 19.4375 24.753906 19.734375 C 24.753906 20.03125 24.695312 20.320312 24.578125 20.59375 C 24.460938 20.871094 24.296875 21.113281 24.082031 21.324219 C 23.867188 21.535156 23.617188 21.699219 23.335938 21.8125 C 23.054688 21.925781 22.761719 21.984375 22.457031 21.984375 C 22.15625 21.984375 21.863281 21.925781 21.582031 21.8125 C 21.300781 21.699219 21.050781 21.535156 20.835938 21.324219 C 20.621094 21.113281 20.457031 20.871094 20.339844 20.59375 C 20.222656 20.320312 20.164062 20.03125 20.164062 19.734375 C 20.164062 19.4375 20.222656 19.148438 20.339844 18.871094 C 20.457031 18.597656 20.621094 18.355469 20.835938 18.144531 C 21.050781 17.933594 21.300781 17.769531 21.582031 17.65625 C 21.863281 17.539062 22.15625 17.484375 22.457031 17.484375 C 22.761719 17.484375 23.054688 17.539062 23.335938 17.65625 C 23.617188 17.769531 23.867188 17.933594 24.082031 18.144531 Z M 24.082031 18.144531 " fill-opacity="1" fill-rule="nonzero"/><path fill="#381999" d="M 22.457031 22.0625 C 22.160156 22.0625 21.871094 22.007812 21.597656 21.902344 C 21.300781 21.789062 21.035156 21.621094 20.804688 21.402344 C 20.574219 21.183594 20.394531 20.925781 20.273438 20.640625 C 20.152344 20.363281 20.089844 20.066406 20.085938 19.765625 C 20.082031 19.464844 20.136719 19.167969 20.25 18.886719 C 20.363281 18.597656 20.535156 18.335938 20.757812 18.113281 C 20.980469 17.886719 21.242188 17.710938 21.535156 17.589844 C 21.820312 17.472656 22.117188 17.410156 22.425781 17.40625 C 22.734375 17.402344 23.035156 17.457031 23.320312 17.566406 C 23.617188 17.679688 23.882812 17.847656 24.113281 18.066406 C 24.34375 18.285156 24.523438 18.542969 24.644531 18.828125 C 24.765625 19.105469 24.828125 19.402344 24.832031 19.703125 C 24.835938 20.003906 24.78125 20.300781 24.667969 20.582031 C 24.554688 20.871094 24.382812 21.132812 24.160156 21.355469 C 23.933594 21.582031 23.675781 21.757812 23.382812 21.878906 C 23.097656 21.996094 22.800781 22.054688 22.492188 22.058594 C 22.480469 22.0625 22.46875 22.0625 22.457031 22.0625 Z M 22.460938 17.5625 C 21.882812 17.5625 21.304688 17.78125 20.871094 18.21875 C 20.457031 18.632812 20.234375 19.183594 20.242188 19.761719 C 20.25 20.34375 20.488281 20.886719 20.914062 21.292969 C 21.335938 21.699219 21.898438 21.917969 22.488281 21.910156 C 23.082031 21.902344 23.632812 21.667969 24.046875 21.25 C 24.898438 20.390625 24.882812 19.011719 24.003906 18.175781 C 23.574219 17.765625 23.015625 17.5625 22.460938 17.5625 Z M 22.460938 17.5625 " fill-opacity="1" fill-rule="nonzero"/><path fill="#ffffff" d="M 22.457031 20.933594 C 23.246094 20.933594 23.917969 20.429688 24.148438 19.734375 C 23.917969 19.035156 23.246094 18.535156 22.457031 18.535156 C 21.671875 18.535156 21 19.035156 20.765625 19.734375 C 21 20.429688 21.671875 20.933594 22.457031 20.933594 Z M 22.457031 20.933594 " fill-opacity="1" fill-rule="nonzero"/><path fill="#381999" d="M 22.457031 21.011719 C 22.058594 21.011719 21.679688 20.886719 21.359375 20.65625 C 21.046875 20.429688 20.816406 20.121094 20.695312 19.757812 C 20.6875 19.742188 20.6875 19.726562 20.695312 19.710938 C 20.816406 19.347656 21.046875 19.039062 21.359375 18.8125 C 21.679688 18.578125 22.058594 18.457031 22.457031 18.457031 C 22.859375 18.457031 23.238281 18.578125 23.558594 18.8125 C 23.871094 19.039062 24.101562 19.347656 24.222656 19.710938 C 24.230469 19.726562 24.230469 19.742188 24.222656 19.757812 C 24.101562 20.121094 23.871094 20.429688 23.558594 20.65625 C 23.238281 20.886719 22.859375 21.011719 22.457031 21.011719 Z M 20.847656 19.734375 C 21.085938 20.40625 21.730469 20.859375 22.457031 20.859375 C 23.1875 20.859375 23.832031 20.40625 24.070312 19.734375 C 23.832031 19.058594 23.1875 18.609375 22.457031 18.609375 C 21.730469 18.609375 21.085938 19.058594 20.847656 19.734375 Z M 20.847656 19.734375 " fill-opacity="1" fill-rule="nonzero"/><path fill="#5eb4ff" d="M 23.125 19.339844 C 23.199219 19.457031 23.238281 19.589844 23.238281 19.734375 C 23.238281 20.15625 22.890625 20.5 22.457031 20.5 C 22.027344 20.5 21.679688 20.15625 21.679688 19.734375 C 21.679688 19.3125 22.027344 18.96875 22.457031 18.96875 C 22.515625 18.96875 22.570312 18.976562 22.625 18.988281 Z M 23.125 19.339844 " fill-opacity="1" fill-rule="nonzero"/><path fill="#381999" d="M 22.457031 20.574219 C 21.988281 20.574219 21.601562 20.199219 21.601562 19.734375 C 21.601562 19.269531 21.988281 18.894531 22.457031 18.894531 C 22.519531 18.894531 22.582031 18.902344 22.640625 18.914062 C 22.683594 18.921875 22.710938 18.960938 22.703125 19.003906 C 22.691406 19.046875 22.652344 19.070312 22.609375 19.0625 C 22.558594 19.050781 22.507812 19.046875 22.457031 19.046875 C 22.070312 19.046875 21.757812 19.355469 21.757812 19.734375 C 21.757812 20.113281 22.070312 20.421875 22.457031 20.421875 C 22.84375 20.421875 23.160156 20.113281 23.160156 19.734375 C 23.160156 19.609375 23.125 19.488281 23.058594 19.378906 C 23.039062 19.34375 23.050781 19.296875 23.085938 19.273438 C 23.125 19.253906 23.171875 19.265625 23.191406 19.300781 C 23.273438 19.429688 23.316406 19.582031 23.316406 19.734375 C 23.316406 20.199219 22.929688 20.574219 22.457031 20.574219 Z M 22.457031 20.574219 " fill-opacity="1" fill-rule="nonzero"/><path fill="#ffffff" d="M 23.027344 19.066406 C 23.160156 19.195312 23.160156 19.402344 23.027344 19.527344 C 22.898438 19.65625 22.6875 19.65625 22.558594 19.527344 C 22.425781 19.402344 22.425781 19.195312 22.558594 19.066406 C 22.6875 18.9375 22.898438 18.9375 23.027344 19.066406 Z M 23.027344 19.066406 " fill-opacity="1" fill-rule="nonzero"/><path fill="#381999" d="M 22.792969 19.699219 C 22.6875 19.699219 22.582031 19.660156 22.5 19.582031 C 22.339844 19.425781 22.339844 19.167969 22.5 19.011719 C 22.664062 18.855469 22.921875 18.855469 23.082031 19.011719 C 23.246094 19.167969 23.246094 19.425781 23.082031 19.582031 C 23.003906 19.660156 22.898438 19.699219 22.792969 19.699219 Z M 22.792969 19.046875 C 22.726562 19.046875 22.660156 19.070312 22.613281 19.121094 C 22.511719 19.21875 22.511719 19.378906 22.613281 19.476562 C 22.710938 19.574219 22.875 19.574219 22.972656 19.476562 C 23.074219 19.378906 23.074219 19.21875 22.972656 19.121094 C 22.925781 19.070312 22.859375 19.046875 22.792969 19.046875 Z M 22.792969 19.046875 " fill-opacity="1" fill-rule="nonzero"/><path fill="#5eb4ff" d="M 20.332031 16.714844 L 20.332031 17.085938 C 20.332031 17.257812 20.1875 17.398438 20.015625 17.398438 L 13.714844 17.398438 C 13.539062 17.398438 13.398438 17.257812 13.398438 17.085938 L 13.398438 16.714844 Z M 20.332031 16.714844 " fill-opacity="1" fill-rule="nonzero"/><path fill="#381999" d="M 20.015625 17.472656 L 13.714844 17.472656 C 13.496094 17.472656 13.320312 17.300781 13.320312 17.085938 L 13.320312 16.714844 C 13.320312 16.671875 13.355469 16.636719 13.398438 16.636719 L 20.332031 16.636719 C 20.375 16.636719 20.410156 16.671875 20.410156 16.714844 L 20.410156 17.085938 C 20.410156 17.300781 20.230469 17.472656 20.015625 17.472656 Z M 13.476562 16.789062 L 13.476562 17.085938 C 13.476562 17.214844 13.582031 17.320312 13.714844 17.320312 L 20.015625 17.320312 C 20.144531 17.320312 20.253906 17.214844 20.253906 17.085938 L 20.253906 16.789062 Z M 13.476562 16.789062 " fill-opacity="1" fill-rule="nonzero"/><g clip-path="url(#d44ef34622)"><path fill="#ffffff" d="M 20.332031 12.835938 L 20.332031 16.714844 L 13.398438 16.714844 L 13.398438 12.835938 C 13.398438 12.664062 13.539062 12.527344 13.714844 12.527344 L 20.015625 12.527344 C 20.1875 12.527344 20.332031 12.664062 20.332031 12.835938 Z M 20.332031 12.835938 " fill-opacity="1" fill-rule="nonzero"/><path fill="#381999" d="M 20.332031 16.789062 L 13.398438 16.789062 C 13.355469 16.789062 13.320312 16.757812 13.320312 16.714844 L 13.320312 12.835938 C 13.320312 12.625 13.496094 12.449219 13.714844 12.449219 L 20.015625 12.449219 C 20.230469 12.449219 20.410156 12.625 20.410156 12.835938 L 20.410156 16.714844 C 20.410156 16.757812 20.375 16.789062 20.332031 16.789062 Z M 13.476562 16.636719 L 20.253906 16.636719 L 20.253906 12.835938 C 20.253906 12.707031 20.144531 12.601562 20.015625 12.601562 L 13.714844 12.601562 C 13.582031 12.601562 13.476562 12.707031 13.476562 12.835938 Z M 13.476562 16.636719 " fill-opacity="1" fill-rule="nonzero"/></g><path fill="#5eb4ff" d="M 18.390625 18.320312 L 17.765625 18.320312 L 17.394531 17.414062 L 16.414062 17.414062 L 16.042969 18.320312 L 15.394531 18.320312 C 15.332031 18.320312 15.277344 18.371094 15.277344 18.433594 L 15.277344 18.722656 L 18.511719 18.722656 L 18.511719 18.433594 C 18.511719 18.371094 18.457031 18.320312 18.390625 18.320312 Z M 18.390625 18.320312 " fill-opacity="1" fill-rule="nonzero"/><path fill="#381999" d="M 18.511719 18.800781 L 15.277344 18.800781 C 15.234375 18.800781 15.199219 18.765625 15.199219 18.722656 L 15.199219 18.433594 C 15.199219 18.328125 15.289062 18.242188 15.394531 18.242188 L 15.988281 18.242188 L 16.339844 17.386719 C 16.351562 17.359375 16.378906 17.339844 16.414062 17.339844 L 17.394531 17.339844 C 17.425781 17.339844 17.453125 17.359375 17.464844 17.386719 L 17.816406 18.242188 L 18.390625 18.242188 C 18.5 18.242188 18.585938 18.328125 18.585938 18.433594 L 18.585938 18.722656 C 18.585938 18.765625 18.554688 18.800781 18.511719 18.800781 Z M 15.355469 18.648438 L 18.433594 18.648438 L 18.433594 18.433594 C 18.433594 18.414062 18.414062 18.394531 18.390625 18.394531 L 17.765625 18.394531 C 17.730469 18.394531 17.703125 18.375 17.691406 18.347656 L 17.339844 17.492188 L 16.464844 17.492188 L 16.113281 18.347656 C 16.101562 18.375 16.074219 18.394531 16.042969 18.394531 L 15.394531 18.394531 C 15.375 18.394531 15.355469 18.414062 15.355469 18.433594 Z M 15.355469 18.648438 " fill-opacity="1" fill-rule="nonzero"/><path fill="#381999" d="M 15.09375 14.617188 L 14.128906 14.617188 C 14.085938 14.617188 14.050781 14.582031 14.050781 14.539062 L 14.050781 13.59375 C 14.050781 13.550781 14.085938 13.515625 14.128906 13.515625 L 15.09375 13.515625 C 15.136719 13.515625 15.171875 13.550781 15.171875 13.59375 C 15.171875 13.632812 15.136719 13.667969 15.09375 13.667969 L 14.207031 13.667969 L 14.207031 14.464844 L 15.015625 14.464844 L 15.015625 14.289062 C 15.015625 14.246094 15.050781 14.210938 15.09375 14.210938 C 15.136719 14.210938 15.171875 14.246094 15.171875 14.289062 L 15.171875 14.539062 C 15.171875 14.582031 15.136719 14.617188 15.09375 14.617188 Z M 15.09375 14.617188 " fill-opacity="1" fill-rule="nonzero"/><path fill="#381999" d="M 15.09375 15.941406 L 14.128906 15.941406 C 14.085938 15.941406 14.050781 15.90625 14.050781 15.867188 L 14.050781 14.917969 C 14.050781 14.875 14.085938 14.84375 14.128906 14.84375 L 15.09375 14.84375 C 15.136719 14.84375 15.171875 14.875 15.171875 14.917969 L 15.171875 15.867188 C 15.171875 15.90625 15.136719 15.941406 15.09375 15.941406 Z M 14.207031 15.789062 L 15.015625 15.789062 L 15.015625 14.996094 L 14.207031 14.996094 Z M 14.207031 15.789062 " fill-opacity="1" fill-rule="nonzero"/><path fill="#381999" d="M 14.675781 14.398438 C 14.652344 14.398438 14.632812 14.390625 14.621094 14.375 L 14.40625 14.167969 C 14.375 14.136719 14.375 14.089844 14.40625 14.058594 C 14.4375 14.03125 14.484375 14.03125 14.515625 14.058594 L 14.675781 14.214844 L 15.292969 13.605469 C 15.324219 13.578125 15.375 13.578125 15.40625 13.605469 C 15.433594 13.636719 15.433594 13.683594 15.40625 13.714844 L 14.730469 14.375 C 14.714844 14.390625 14.695312 14.398438 14.675781 14.398438 Z M 14.675781 14.398438 " fill-opacity="1" fill-rule="nonzero"/><path fill="#381999" d="M 16.511719 14.238281 L 15.675781 14.238281 C 15.632812 14.238281 15.597656 14.203125 15.597656 14.160156 C 15.597656 14.117188 15.632812 14.085938 15.675781 14.085938 L 16.511719 14.085938 C 16.554688 14.085938 16.589844 14.117188 16.589844 14.160156 C 16.589844 14.203125 16.554688 14.238281 16.511719 14.238281 Z M 16.511719 14.238281 " fill-opacity="1" fill-rule="nonzero"/><path fill="#381999" d="M 16.574219 15.625 L 15.675781 15.625 C 15.632812 15.625 15.597656 15.59375 15.597656 15.550781 C 15.597656 15.507812 15.632812 15.472656 15.675781 15.472656 L 16.574219 15.472656 C 16.617188 15.472656 16.652344 15.507812 16.652344 15.550781 C 16.652344 15.59375 16.617188 15.625 16.574219 15.625 Z M 16.574219 15.625 " fill-opacity="1" fill-rule="nonzero"/><path fill="#ffc45e" d="M 17.089844 13.441406 L 19.628906 13.441406 L 19.628906 15.933594 L 17.089844 15.933594 Z M 17.089844 13.441406 " fill-opacity="1" fill-rule="nonzero"/><path fill="#381999" d="M 19.628906 16.007812 L 17.089844 16.007812 C 17.046875 16.007812 17.011719 15.976562 17.011719 15.933594 L 17.011719 13.441406 C 17.011719 13.402344 17.046875 13.367188 17.089844 13.367188 L 19.628906 13.367188 C 19.671875 13.367188 19.707031 13.402344 19.707031 13.441406 L 19.707031 15.933594 C 19.707031 15.976562 19.671875 16.007812 19.628906 16.007812 Z M 17.167969 15.855469 L 19.550781 15.855469 L 19.550781 13.519531 L 17.167969 13.519531 Z M 17.167969 15.855469 " fill-opacity="1" fill-rule="nonzero"/><path fill="#381999" d="M 0.789062 27.535156 C 0.6875 27.535156 0.597656 27.46875 0.574219 27.363281 C 0.386719 26.574219 0.246094 25.765625 0.152344 24.957031 C 0.140625 24.835938 0.226562 24.726562 0.347656 24.710938 C 0.46875 24.699219 0.578125 24.785156 0.59375 24.90625 C 0.683594 25.699219 0.824219 26.492188 1.003906 27.265625 C 1.03125 27.382812 0.957031 27.503906 0.839844 27.53125 C 0.820312 27.535156 0.804688 27.535156 0.789062 27.535156 Z M 0.234375 22.738281 C 0.113281 22.738281 0.0117188 22.636719 0.0117188 22.515625 L 0.0117188 22.511719 C 0.0117188 21.699219 0.0585938 20.878906 0.152344 20.078125 C 0.164062 19.957031 0.277344 19.867188 0.398438 19.882812 C 0.519531 19.894531 0.605469 20.003906 0.59375 20.125 C 0.503906 20.914062 0.457031 21.714844 0.457031 22.511719 L 0.457031 22.515625 C 0.457031 22.636719 0.359375 22.738281 0.234375 22.738281 Z M 0.785156 17.9375 C 0.769531 17.9375 0.753906 17.9375 0.734375 17.933594 C 0.617188 17.90625 0.542969 17.785156 0.570312 17.667969 C 0.753906 16.875 0.988281 16.085938 1.265625 15.324219 C 1.304688 15.207031 1.433594 15.148438 1.546875 15.191406 C 1.664062 15.230469 1.722656 15.359375 1.683594 15.472656 C 1.410156 16.222656 1.183594 16.992188 1 17.769531 C 0.976562 17.871094 0.886719 17.9375 0.785156 17.9375 Z M 0.785156 17.9375 " fill-opacity="1" fill-rule="nonzero"/><path fill="#381999" d="M 24.417969 43.554688 C 24.308594 43.554688 24.214844 43.476562 24.199219 43.367188 C 24.179688 43.246094 24.265625 43.132812 24.386719 43.117188 C 25.226562 42.996094 26.070312 42.820312 26.890625 42.597656 C 27.007812 42.566406 27.128906 42.636719 27.160156 42.753906 C 27.195312 42.871094 27.125 42.992188 27.007812 43.023438 C 26.167969 43.25 25.308594 43.429688 24.449219 43.554688 C 24.4375 43.554688 24.425781 43.554688 24.417969 43.554688 Z M 29.394531 42.203125 C 29.308594 42.203125 29.226562 42.152344 29.191406 42.066406 C 29.144531 41.953125 29.195312 41.824219 29.308594 41.777344 C 30.097656 41.457031 30.871094 41.082031 31.613281 40.667969 C 31.71875 40.609375 31.855469 40.644531 31.914062 40.75 C 31.972656 40.859375 31.9375 40.992188 31.828125 41.050781 C 31.074219 41.476562 30.28125 41.859375 29.480469 42.1875 C 29.453125 42.195312 29.421875 42.203125 29.394531 42.203125 Z M 33.890625 39.683594 C 33.824219 39.683594 33.757812 39.652344 33.714844 39.59375 C 33.640625 39.496094 33.664062 39.359375 33.761719 39.285156 C 34.445312 38.785156 35.105469 38.234375 35.726562 37.652344 C 35.8125 37.570312 35.953125 37.574219 36.039062 37.664062 C 36.121094 37.75 36.117188 37.890625 36.03125 37.972656 C 35.398438 38.566406 34.722656 39.128906 34.023438 39.640625 C 33.984375 39.667969 33.9375 39.683594 33.890625 39.683594 Z M 33.890625 39.683594 " fill-opacity="1" fill-rule="nonzero"/><path fill="#381999" d="M 37.121094 8.707031 C 37.058594 8.707031 36.996094 8.679688 36.953125 8.632812 C 36.40625 8.023438 35.816406 7.441406 35.199219 6.898438 C 35.109375 6.820312 35.101562 6.679688 35.179688 6.589844 C 35.261719 6.496094 35.402344 6.488281 35.492188 6.570312 C 36.121094 7.121094 36.726562 7.714844 37.285156 8.339844 C 37.367188 8.429688 37.359375 8.570312 37.265625 8.648438 C 37.226562 8.6875 37.171875 8.707031 37.121094 8.707031 Z M 33.378906 5.425781 C 33.335938 5.425781 33.292969 5.410156 33.253906 5.382812 C 32.578125 4.917969 31.867188 4.488281 31.144531 4.109375 C 31.035156 4.050781 30.992188 3.917969 31.050781 3.808594 C 31.109375 3.703125 31.242188 3.660156 31.351562 3.71875 C 32.089844 4.109375 32.816406 4.546875 33.507812 5.023438 C 33.609375 5.089844 33.632812 5.226562 33.5625 5.328125 C 33.519531 5.390625 33.449219 5.425781 33.378906 5.425781 Z M 28.972656 3.101562 C 28.949219 3.101562 28.921875 3.097656 28.894531 3.089844 C 28.128906 2.792969 27.335938 2.542969 26.539062 2.34375 C 26.421875 2.3125 26.351562 2.191406 26.378906 2.074219 C 26.410156 1.957031 26.53125 1.882812 26.648438 1.914062 C 27.460938 2.121094 28.273438 2.375 29.054688 2.675781 C 29.167969 2.71875 29.226562 2.847656 29.179688 2.960938 C 29.148438 3.050781 29.0625 3.101562 28.972656 3.101562 Z M 28.972656 3.101562 " fill-opacity="1" fill-rule="nonzero"/><path fill="#afe3ff" d="M 36.890625 22.511719 C 36.890625 23.523438 36.792969 24.527344 36.59375 25.523438 C 36.394531 26.519531 36.097656 27.484375 35.710938 28.421875 C 35.320312 29.359375 34.839844 30.25 34.273438 31.09375 C 33.710938 31.9375 33.066406 32.714844 32.34375 33.433594 C 31.625 34.152344 30.839844 34.792969 29.992188 35.355469 C 29.144531 35.917969 28.253906 36.394531 27.3125 36.78125 C 26.371094 37.171875 25.398438 37.464844 24.398438 37.660156 C 23.398438 37.859375 22.390625 37.957031 21.371094 37.957031 C 20.351562 37.957031 19.34375 37.859375 18.34375 37.660156 C 17.34375 37.464844 16.375 37.171875 15.433594 36.78125 C 14.492188 36.394531 13.597656 35.917969 12.75 35.355469 C 11.902344 34.792969 11.117188 34.152344 10.398438 33.433594 C 9.679688 32.714844 9.035156 31.9375 8.46875 31.09375 C 7.902344 30.25 7.425781 29.359375 7.035156 28.421875 C 6.644531 27.484375 6.351562 26.519531 6.152344 25.523438 C 5.953125 24.527344 5.851562 23.523438 5.851562 22.511719 C 5.851562 21.496094 5.953125 20.492188 6.152344 19.496094 C 6.351562 18.5 6.644531 17.535156 7.035156 16.597656 C 7.425781 15.660156 7.902344 14.769531 8.46875 13.925781 C 9.035156 13.085938 9.679688 12.304688 10.398438 11.585938 C 11.117188 10.871094 11.902344 10.230469 12.75 9.664062 C 13.597656 9.101562 14.492188 8.625 15.433594 8.238281 C 16.375 7.851562 17.34375 7.558594 18.34375 7.359375 C 19.34375 7.160156 20.351562 7.0625 21.371094 7.0625 C 22.390625 7.0625 23.398438 7.160156 24.398438 7.359375 C 25.398438 7.558594 26.371094 7.851562 27.3125 8.238281 C 28.253906 8.625 29.144531 9.101562 29.992188 9.664062 C 30.839844 10.230469 31.625 10.871094 32.34375 11.585938 C 33.066406 12.304688 33.710938 13.085938 34.273438 13.925781 C 34.839844 14.769531 35.320312 15.660156 35.710938 16.597656 C 36.097656 17.535156 36.394531 18.5 36.59375 19.496094 C 36.792969 20.492188 36.890625 21.496094 36.890625 22.511719 Z M 36.890625 22.511719 " fill-opacity="1" fill-rule="nonzero"/><path fill="#5eb4ff" d="M 8.699219 23.722656 L 8.699219 22.980469 C 8.699219 22.417969 9.160156 21.960938 9.722656 21.960938 L 11.460938 21.960938 C 12.027344 21.960938 12.484375 22.417969 12.484375 22.980469 L 12.484375 23.722656 Z M 8.699219 23.722656 " fill-opacity="1" fill-rule="nonzero"/><path fill="#381999" d="M 12.484375 23.941406 C 12.363281 23.941406 12.261719 23.84375 12.261719 23.722656 L 12.261719 22.980469 C 12.261719 22.539062 11.902344 22.183594 11.460938 22.183594 L 9.722656 22.183594 C 9.28125 22.183594 8.921875 22.539062 8.921875 22.980469 L 8.921875 23.722656 C 8.921875 23.84375 8.824219 23.941406 8.699219 23.941406 C 8.578125 23.941406 8.480469 23.84375 8.480469 23.722656 L 8.480469 22.980469 C 8.480469 22.296875 9.035156 21.742188 9.722656 21.742188 L 11.460938 21.742188 C 12.148438 21.742188 12.707031 22.296875 12.707031 22.980469 L 12.707031 23.722656 C 12.707031 23.84375 12.609375 23.941406 12.484375 23.941406 Z M 12.484375 23.941406 " fill-opacity="1" fill-rule="nonzero"/><path fill="#ffffff" d="M 18.175781 27.90625 C 16.675781 25.285156 13.84375 23.515625 10.59375 23.515625 C 5.777344 23.515625 1.871094 27.402344 1.871094 32.195312 C 1.871094 36.988281 5.777344 40.875 10.59375 40.875 C 13.042969 40.875 15.261719 39.867188 16.84375 38.246094 Z M 18.175781 27.90625 " fill-opacity="1" fill-rule="nonzero"/><path fill="#381999" d="M 10.59375 41.097656 C 9.386719 41.097656 8.214844 40.863281 7.113281 40.398438 C 6.046875 39.949219 5.089844 39.308594 4.269531 38.488281 C 3.449219 37.671875 2.804688 36.71875 2.351562 35.660156 C 1.886719 34.5625 1.652344 33.398438 1.652344 32.195312 C 1.652344 30.992188 1.886719 29.828125 2.351562 28.730469 C 2.804688 27.671875 3.449219 26.71875 4.269531 25.902344 C 5.089844 25.082031 6.046875 24.441406 7.113281 23.992188 C 8.214844 23.527344 9.386719 23.292969 10.59375 23.292969 C 12.203125 23.292969 13.777344 23.722656 15.152344 24.535156 C 16.488281 25.328125 17.601562 26.453125 18.371094 27.796875 C 18.429688 27.902344 18.394531 28.039062 18.285156 28.097656 C 18.179688 28.160156 18.042969 28.121094 17.984375 28.015625 C 16.472656 25.375 13.640625 23.734375 10.59375 23.734375 C 5.90625 23.734375 2.09375 27.53125 2.09375 32.195312 C 2.09375 36.859375 5.90625 40.65625 10.59375 40.65625 C 12.90625 40.65625 15.070312 39.746094 16.6875 38.09375 C 16.769531 38.007812 16.910156 38.003906 17 38.089844 C 17.085938 38.175781 17.089844 38.3125 17.003906 38.402344 C 16.179688 39.246094 15.214844 39.910156 14.132812 40.371094 C 13.011719 40.851562 11.820312 41.097656 10.59375 41.097656 Z M 10.59375 41.097656 " fill-opacity="1" fill-rule="nonzero"/><path fill="#381999" d="M 10.59375 32.417969 L 5.691406 32.417969 C 5.566406 32.417969 5.46875 32.316406 5.46875 32.195312 C 5.46875 32.074219 5.566406 31.976562 5.691406 31.976562 L 10.371094 31.976562 L 10.371094 27.316406 C 10.371094 27.191406 10.46875 27.09375 10.59375 27.09375 C 10.714844 27.09375 10.816406 27.191406 10.816406 27.316406 L 10.816406 32.195312 C 10.816406 32.316406 10.714844 32.417969 10.59375 32.417969 Z M 10.59375 32.417969 " fill-opacity="1" fill-rule="nonzero"/><path fill="#5eb4ff" d="M 21.214844 27.621094 C 21.117188 27.425781 20.996094 27.242188 20.867188 27.070312 L 21.339844 26.027344 C 21.109375 25.792969 20.851562 25.578125 20.566406 25.390625 C 20.28125 25.203125 19.980469 25.058594 19.671875 24.941406 L 18.898438 25.789062 C 18.476562 25.6875 18.039062 25.664062 17.597656 25.71875 L 16.925781 24.789062 C 16.605469 24.871094 16.292969 24.984375 15.988281 25.136719 C 15.679688 25.292969 15.402344 25.476562 15.148438 25.683594 L 15.5 26.773438 C 15.195312 27.09375 14.953125 27.460938 14.789062 27.859375 L 13.640625 27.976562 C 13.554688 28.289062 13.496094 28.617188 13.476562 28.957031 C 13.457031 29.296875 13.480469 29.632812 13.53125 29.953125 L 14.65625 30.195312 C 14.714844 30.402344 14.792969 30.605469 14.894531 30.804688 C 14.996094 31 15.113281 31.183594 15.242188 31.351562 L 14.773438 32.398438 C 15.003906 32.632812 15.257812 32.847656 15.542969 33.035156 C 15.832031 33.21875 16.132812 33.367188 16.4375 33.484375 L 17.210938 32.632812 C 17.632812 32.738281 18.074219 32.761719 18.511719 32.707031 L 19.1875 33.636719 C 19.503906 33.554688 19.820312 33.441406 20.125 33.289062 C 20.429688 33.132812 20.707031 32.949219 20.960938 32.742188 L 20.609375 31.648438 C 20.917969 31.332031 21.15625 30.964844 21.324219 30.566406 L 22.46875 30.449219 C 22.558594 30.132812 22.617188 29.804688 22.636719 29.464844 C 22.652344 29.125 22.632812 28.792969 22.578125 28.46875 L 21.453125 28.226562 C 21.394531 28.023438 21.316406 27.820312 21.214844 27.621094 Z M 21.214844 27.621094 " fill-opacity="1" fill-rule="nonzero"/><path fill="#381999" d="M 19.1875 33.855469 C 19.117188 33.855469 19.046875 33.824219 19.007812 33.765625 L 18.40625 32.941406 C 18.03125 32.976562 17.65625 32.953125 17.289062 32.878906 L 16.601562 33.632812 C 16.542969 33.699219 16.445312 33.722656 16.359375 33.6875 C 16.027344 33.5625 15.710938 33.40625 15.421875 33.21875 C 15.136719 33.03125 14.863281 32.808594 14.613281 32.550781 C 14.550781 32.488281 14.53125 32.390625 14.570312 32.308594 L 14.988281 31.378906 C 14.875 31.222656 14.777344 31.0625 14.695312 30.902344 C 14.613281 30.742188 14.542969 30.566406 14.484375 30.382812 L 13.484375 30.167969 C 13.394531 30.152344 13.328125 30.078125 13.3125 29.988281 C 13.253906 29.636719 13.234375 29.285156 13.253906 28.945312 C 13.273438 28.605469 13.332031 28.257812 13.429688 27.914062 C 13.453125 27.828125 13.53125 27.765625 13.621094 27.753906 L 14.636719 27.652344 C 14.792969 27.3125 14.996094 27 15.25 26.71875 L 14.9375 25.75 C 14.910156 25.664062 14.9375 25.570312 15.007812 25.511719 C 15.285156 25.285156 15.582031 25.09375 15.886719 24.941406 C 16.191406 24.785156 16.523438 24.664062 16.871094 24.574219 C 16.957031 24.554688 17.050781 24.585938 17.105469 24.660156 L 17.703125 25.484375 C 18.078125 25.449219 18.453125 25.46875 18.820312 25.546875 L 19.507812 24.792969 C 19.570312 24.726562 19.664062 24.703125 19.75 24.734375 C 20.085938 24.859375 20.402344 25.019531 20.6875 25.207031 C 20.972656 25.394531 21.246094 25.617188 21.496094 25.871094 C 21.558594 25.9375 21.578125 26.035156 21.539062 26.117188 L 21.121094 27.042969 C 21.234375 27.199219 21.332031 27.359375 21.414062 27.523438 C 21.496094 27.683594 21.566406 27.855469 21.628906 28.039062 L 22.625 28.253906 C 22.714844 28.273438 22.78125 28.34375 22.796875 28.433594 C 22.855469 28.785156 22.875 29.136719 22.855469 29.476562 C 22.835938 29.820312 22.777344 30.164062 22.683594 30.507812 C 22.65625 30.597656 22.582031 30.660156 22.492188 30.667969 L 21.476562 30.773438 C 21.320312 31.113281 21.113281 31.425781 20.859375 31.703125 L 21.171875 32.671875 C 21.203125 32.761719 21.171875 32.855469 21.101562 32.910156 C 20.824219 33.136719 20.53125 33.332031 20.222656 33.484375 C 19.917969 33.636719 19.585938 33.761719 19.242188 33.847656 C 19.222656 33.855469 19.203125 33.855469 19.1875 33.855469 Z M 18.511719 32.484375 C 18.582031 32.484375 18.648438 32.519531 18.691406 32.578125 L 19.277344 33.382812 C 19.539062 33.304688 19.789062 33.207031 20.023438 33.089844 C 20.257812 32.972656 20.488281 32.828125 20.703125 32.664062 L 20.398438 31.71875 C 20.375 31.640625 20.394531 31.554688 20.449219 31.496094 C 20.738281 31.199219 20.960938 30.859375 21.117188 30.480469 C 21.148438 30.40625 21.21875 30.355469 21.300781 30.347656 L 22.292969 30.246094 C 22.359375 29.980469 22.398438 29.714844 22.414062 29.453125 C 22.429688 29.191406 22.417969 28.925781 22.382812 28.652344 L 21.40625 28.445312 C 21.328125 28.425781 21.265625 28.367188 21.242188 28.289062 C 21.179688 28.085938 21.109375 27.898438 21.019531 27.722656 C 20.929688 27.542969 20.820312 27.375 20.691406 27.207031 C 20.640625 27.140625 20.632812 27.054688 20.664062 26.980469 L 21.074219 26.074219 C 20.875 25.886719 20.664062 25.71875 20.445312 25.574219 C 20.226562 25.433594 19.984375 25.308594 19.734375 25.203125 L 19.0625 25.9375 C 19.007812 26 18.925781 26.023438 18.84375 26.003906 C 18.449219 25.90625 18.039062 25.886719 17.628906 25.9375 C 17.546875 25.949219 17.46875 25.914062 17.417969 25.847656 L 16.835938 25.042969 C 16.570312 25.117188 16.320312 25.214844 16.085938 25.335938 C 15.851562 25.453125 15.625 25.597656 15.40625 25.761719 L 15.710938 26.707031 C 15.734375 26.785156 15.714844 26.871094 15.660156 26.925781 C 15.375 27.226562 15.148438 27.566406 14.992188 27.945312 C 14.960938 28.019531 14.890625 28.070312 14.808594 28.078125 L 13.816406 28.179688 C 13.753906 28.445312 13.710938 28.710938 13.695312 28.972656 C 13.683594 29.230469 13.691406 29.5 13.730469 29.769531 L 14.703125 29.980469 C 14.78125 29.996094 14.847656 30.058594 14.867188 30.132812 C 14.929688 30.339844 15.003906 30.527344 15.09375 30.703125 C 15.183594 30.878906 15.289062 31.046875 15.421875 31.21875 C 15.46875 31.285156 15.480469 31.371094 15.445312 31.445312 L 15.039062 32.347656 C 15.234375 32.539062 15.445312 32.707031 15.667969 32.847656 C 15.886719 32.992188 16.125 33.117188 16.378906 33.222656 L 17.046875 32.484375 C 17.101562 32.425781 17.1875 32.402344 17.265625 32.417969 C 17.664062 32.515625 18.074219 32.539062 18.484375 32.488281 C 18.492188 32.484375 18.503906 32.484375 18.511719 32.484375 Z M 18.511719 32.484375 " fill-opacity="1" fill-rule="nonzero"/><path fill="#ffffff" d="M 19.355469 27.667969 C 19.546875 27.859375 19.691406 28.074219 19.792969 28.320312 C 19.894531 28.566406 19.945312 28.820312 19.945312 29.085938 C 19.945312 29.351562 19.894531 29.609375 19.792969 29.855469 C 19.691406 30.097656 19.546875 30.316406 19.355469 30.503906 C 19.167969 30.691406 18.949219 30.835938 18.703125 30.9375 C 18.457031 31.039062 18.199219 31.089844 17.933594 31.089844 C 17.667969 31.089844 17.410156 31.039062 17.164062 30.9375 C 16.917969 30.835938 16.699219 30.691406 16.511719 30.503906 C 16.320312 30.316406 16.175781 30.097656 16.074219 29.855469 C 15.972656 29.609375 15.921875 29.351562 15.921875 29.085938 C 15.921875 28.820312 15.972656 28.566406 16.074219 28.320312 C 16.175781 28.074219 16.320312 27.859375 16.511719 27.667969 C 16.699219 27.480469 16.917969 27.335938 17.164062 27.234375 C 17.410156 27.132812 17.667969 27.082031 17.933594 27.082031 C 18.199219 27.082031 18.457031 27.132812 18.703125 27.234375 C 18.949219 27.335938 19.167969 27.480469 19.355469 27.667969 Z M 19.355469 27.667969 " fill-opacity="1" fill-rule="nonzero"/><path fill="#381999" d="M 17.9375 31.3125 C 17.121094 31.3125 16.332031 30.863281 15.941406 30.089844 C 15.382812 28.996094 15.828125 27.65625 16.925781 27.101562 C 18.027344 26.546875 19.375 26.988281 19.929688 28.082031 C 20.199219 28.613281 20.242188 29.214844 20.058594 29.78125 C 19.871094 30.347656 19.476562 30.804688 18.941406 31.074219 C 18.621094 31.234375 18.277344 31.3125 17.9375 31.3125 Z M 17.929688 27.304688 C 17.660156 27.304688 17.382812 27.367188 17.125 27.496094 C 16.246094 27.9375 15.890625 29.015625 16.335938 29.890625 C 16.648438 30.511719 17.28125 30.871094 17.9375 30.871094 C 18.207031 30.871094 18.484375 30.808594 18.742188 30.679688 C 19.167969 30.464844 19.488281 30.097656 19.636719 29.644531 C 19.785156 29.191406 19.75 28.707031 19.53125 28.28125 C 19.21875 27.664062 18.585938 27.304688 17.929688 27.304688 Z M 17.929688 27.304688 " fill-opacity="1" fill-rule="nonzero"/><path fill="#ffc45e" d="M 22.027344 38.238281 C 22.050781 37.945312 22.039062 37.660156 22.007812 37.378906 L 23.25 36.515625 C 23.152344 36.097656 23.007812 35.679688 22.8125 35.277344 C 22.613281 34.871094 22.375 34.503906 22.105469 34.164062 L 20.652344 34.601562 C 20.246094 34.203125 19.765625 33.875 19.230469 33.644531 L 19.101562 32.136719 C 18.6875 32.015625 18.253906 31.929688 17.804688 31.898438 C 17.351562 31.867188 16.910156 31.886719 16.484375 31.949219 L 16.136719 33.421875 C 15.574219 33.578125 15.054688 33.828125 14.59375 34.167969 L 13.21875 33.527344 C 12.902344 33.824219 12.613281 34.15625 12.359375 34.527344 C 12.109375 34.898438 11.90625 35.289062 11.746094 35.691406 L 12.851562 36.722656 C 12.78125 36.996094 12.730469 37.277344 12.710938 37.570312 C 12.6875 37.863281 12.699219 38.148438 12.730469 38.429688 L 11.484375 39.292969 C 11.585938 39.714844 11.730469 40.128906 11.925781 40.53125 C 12.125 40.9375 12.363281 41.304688 12.632812 41.644531 L 14.085938 41.207031 C 14.492188 41.605469 14.972656 41.933594 15.503906 42.164062 L 15.636719 43.671875 C 16.050781 43.792969 16.484375 43.878906 16.933594 43.910156 C 17.382812 43.941406 17.824219 43.921875 18.253906 43.859375 L 18.601562 42.386719 C 19.164062 42.234375 19.683594 41.980469 20.144531 41.640625 L 21.519531 42.28125 C 21.832031 41.984375 22.125 41.652344 22.375 41.28125 C 22.628906 40.910156 22.832031 40.519531 22.992188 40.117188 L 21.882812 39.085938 C 21.957031 38.8125 22.007812 38.53125 22.027344 38.238281 Z M 22.027344 38.238281 " fill-opacity="1" fill-rule="nonzero"/><g clip-path="url(#92a3baf745)"><path fill="#381999" d="M 17.351562 44.144531 C 17.203125 44.144531 17.0625 44.140625 16.917969 44.128906 C 16.472656 44.097656 16.019531 44.015625 15.574219 43.882812 C 15.484375 43.855469 15.421875 43.78125 15.414062 43.6875 L 15.296875 42.3125 C 14.828125 42.09375 14.398438 41.804688 14.023438 41.457031 L 12.695312 41.855469 C 12.609375 41.882812 12.515625 41.851562 12.457031 41.78125 C 12.167969 41.417969 11.921875 41.03125 11.726562 40.628906 C 11.53125 40.230469 11.378906 39.796875 11.269531 39.34375 C 11.25 39.257812 11.285156 39.164062 11.359375 39.113281 L 12.496094 38.324219 C 12.472656 38.058594 12.46875 37.800781 12.488281 37.554688 C 12.507812 37.308594 12.546875 37.054688 12.605469 36.796875 L 11.59375 35.851562 C 11.527344 35.789062 11.507812 35.695312 11.539062 35.609375 C 11.710938 35.179688 11.925781 34.773438 12.175781 34.402344 C 12.429688 34.035156 12.726562 33.6875 13.066406 33.367188 C 13.132812 33.304688 13.230469 33.289062 13.3125 33.328125 L 14.570312 33.914062 C 14.992188 33.621094 15.457031 33.394531 15.953125 33.246094 L 16.265625 31.902344 C 16.289062 31.8125 16.359375 31.746094 16.449219 31.734375 C 16.914062 31.664062 17.375 31.648438 17.820312 31.679688 C 18.265625 31.710938 18.71875 31.792969 19.164062 31.925781 C 19.253906 31.953125 19.316406 32.03125 19.324219 32.121094 L 19.441406 33.496094 C 19.910156 33.714844 20.335938 34.003906 20.714844 34.355469 L 22.042969 33.953125 C 22.128906 33.925781 22.222656 33.957031 22.28125 34.027344 C 22.570312 34.390625 22.816406 34.777344 23.011719 35.179688 C 23.207031 35.578125 23.359375 36.011719 23.46875 36.464844 C 23.488281 36.550781 23.453125 36.644531 23.378906 36.695312 L 22.242188 37.488281 C 22.265625 37.75 22.265625 38.007812 22.25 38.253906 C 22.230469 38.5 22.191406 38.753906 22.128906 39.011719 L 23.144531 39.957031 C 23.210938 40.019531 23.230469 40.113281 23.199219 40.199219 C 23.023438 40.632812 22.8125 41.035156 22.558594 41.40625 C 22.308594 41.773438 22.011719 42.121094 21.671875 42.441406 C 21.605469 42.503906 21.507812 42.519531 21.425781 42.480469 L 20.167969 41.894531 C 19.746094 42.1875 19.28125 42.414062 18.785156 42.5625 L 18.46875 43.90625 C 18.449219 43.996094 18.375 44.0625 18.285156 44.078125 C 17.972656 44.121094 17.660156 44.144531 17.351562 44.144531 Z M 15.84375 43.5 C 16.214844 43.601562 16.585938 43.664062 16.949219 43.691406 C 17.316406 43.714844 17.695312 43.707031 18.074219 43.660156 L 18.382812 42.335938 C 18.402344 42.257812 18.460938 42.195312 18.542969 42.171875 C 19.074219 42.027344 19.570312 41.789062 20.011719 41.464844 C 20.078125 41.414062 20.164062 41.40625 20.238281 41.441406 L 21.472656 42.015625 C 21.746094 41.75 21.988281 41.460938 22.191406 41.15625 C 22.398438 40.855469 22.578125 40.523438 22.726562 40.175781 L 21.734375 39.246094 C 21.671875 39.191406 21.648438 39.109375 21.667969 39.027344 C 21.742188 38.75 21.789062 38.488281 21.808594 38.222656 C 21.824219 37.957031 21.820312 37.691406 21.789062 37.40625 C 21.777344 37.324219 21.8125 37.246094 21.878906 37.199219 L 23 36.421875 C 22.902344 36.054688 22.769531 35.699219 22.613281 35.371094 C 22.449219 35.042969 22.253906 34.722656 22.023438 34.417969 L 20.71875 34.8125 C 20.640625 34.835938 20.554688 34.816406 20.496094 34.757812 C 20.105469 34.375 19.652344 34.066406 19.144531 33.847656 C 19.070312 33.816406 19.019531 33.746094 19.011719 33.664062 L 18.894531 32.308594 C 18.523438 32.210938 18.152344 32.144531 17.789062 32.117188 C 17.421875 32.09375 17.042969 32.101562 16.664062 32.148438 L 16.355469 33.472656 C 16.335938 33.550781 16.273438 33.613281 16.195312 33.636719 C 15.664062 33.78125 15.167969 34.019531 14.726562 34.34375 C 14.660156 34.394531 14.574219 34.402344 14.5 34.367188 L 13.261719 33.792969 C 12.992188 34.058594 12.75 34.347656 12.542969 34.652344 C 12.339844 34.953125 12.160156 35.285156 12.007812 35.632812 L 13.003906 36.5625 C 13.0625 36.617188 13.089844 36.703125 13.066406 36.78125 C 12.996094 37.058594 12.949219 37.320312 12.929688 37.585938 C 12.910156 37.851562 12.917969 38.117188 12.949219 38.40625 C 12.960938 38.484375 12.921875 38.5625 12.855469 38.609375 L 11.738281 39.386719 C 11.835938 39.753906 11.964844 40.109375 12.125 40.4375 C 12.285156 40.765625 12.484375 41.085938 12.714844 41.390625 L 14.019531 40.996094 C 14.097656 40.972656 14.183594 40.992188 14.242188 41.050781 C 14.632812 41.433594 15.085938 41.742188 15.59375 41.960938 C 15.667969 41.992188 15.71875 42.066406 15.726562 42.144531 Z M 22.027344 38.238281 Z M 22.027344 38.238281 " fill-opacity="1" fill-rule="nonzero"/></g><path fill="#ffffff" d="M 19.082031 36.195312 C 19.3125 36.421875 19.488281 36.683594 19.609375 36.980469 C 19.734375 37.277344 19.792969 37.585938 19.792969 37.902344 C 19.792969 38.222656 19.734375 38.53125 19.609375 38.828125 C 19.488281 39.125 19.3125 39.386719 19.082031 39.613281 C 18.855469 39.839844 18.59375 40.011719 18.296875 40.136719 C 18 40.257812 17.691406 40.320312 17.367188 40.320312 C 17.046875 40.320312 16.738281 40.257812 16.441406 40.136719 C 16.140625 40.011719 15.878906 39.839844 15.652344 39.613281 C 15.425781 39.386719 15.25 39.125 15.125 38.828125 C 15.003906 38.53125 14.941406 38.226562 14.941406 37.90625 C 14.941406 37.585938 15.003906 37.277344 15.125 36.980469 C 15.25 36.683594 15.425781 36.421875 15.652344 36.195312 C 15.878906 35.96875 16.140625 35.796875 16.441406 35.671875 C 16.738281 35.550781 17.046875 35.488281 17.367188 35.488281 C 17.691406 35.488281 18 35.550781 18.296875 35.671875 C 18.59375 35.796875 18.855469 35.96875 19.082031 36.195312 Z M 19.082031 36.195312 " fill-opacity="1" fill-rule="nonzero"/><path fill="#381999" d="M 17.371094 40.539062 C 17.308594 40.539062 17.242188 40.539062 17.179688 40.535156 C 16.472656 40.484375 15.828125 40.160156 15.367188 39.628906 C 14.902344 39.097656 14.675781 38.417969 14.726562 37.714844 C 14.777344 37.011719 15.101562 36.371094 15.636719 35.910156 C 16.171875 35.449219 16.851562 35.226562 17.558594 35.273438 C 19.015625 35.378906 20.113281 36.644531 20.011719 38.09375 C 19.910156 39.480469 18.746094 40.539062 17.371094 40.539062 Z M 17.367188 35.710938 C 16.835938 35.710938 16.332031 35.898438 15.925781 36.246094 C 15.480469 36.628906 15.210938 37.164062 15.167969 37.746094 C 15.128906 38.332031 15.316406 38.898438 15.703125 39.339844 C 16.085938 39.785156 16.625 40.050781 17.210938 40.09375 C 17.265625 40.097656 17.316406 40.097656 17.371094 40.097656 C 18.515625 40.097656 19.484375 39.214844 19.566406 38.0625 C 19.65625 36.855469 18.738281 35.800781 17.527344 35.714844 C 17.472656 35.710938 17.417969 35.710938 17.367188 35.710938 Z M 17.367188 35.710938 " fill-opacity="1" fill-rule="nonzero"/><path fill="#5eb4ff" d="M 44.765625 35.234375 L 44.765625 33.246094 C 44.765625 29.707031 41.960938 26.621094 38.441406 26.476562 L 34.707031 26.476562 C 31.1875 26.621094 28.382812 29.707031 28.382812 33.246094 L 28.382812 35.234375 Z M 44.765625 35.234375 " fill-opacity="1" fill-rule="nonzero"/><path fill="#381999" d="M 44.765625 35.453125 C 44.644531 35.453125 44.542969 35.355469 44.542969 35.234375 L 44.542969 33.246094 C 44.542969 29.773438 41.804688 26.835938 38.4375 26.699219 L 34.710938 26.699219 C 31.34375 26.835938 28.601562 29.773438 28.601562 33.246094 L 28.601562 35.234375 C 28.601562 35.355469 28.503906 35.453125 28.382812 35.453125 C 28.257812 35.453125 28.160156 35.355469 28.160156 35.234375 L 28.160156 33.246094 C 28.160156 32.351562 28.332031 31.472656 28.667969 30.632812 C 28.996094 29.820312 29.464844 29.082031 30.0625 28.4375 C 31.296875 27.101562 32.945312 26.328125 34.695312 26.257812 C 34.699219 26.257812 34.703125 26.257812 34.707031 26.257812 L 38.441406 26.257812 C 38.445312 26.257812 38.445312 26.257812 38.449219 26.257812 C 40.203125 26.328125 41.847656 27.101562 43.085938 28.4375 C 43.683594 29.082031 44.148438 29.820312 44.476562 30.632812 C 44.816406 31.472656 44.988281 32.351562 44.988281 33.246094 L 44.988281 35.234375 C 44.988281 35.355469 44.886719 35.453125 44.765625 35.453125 Z M 44.765625 35.453125 " fill-opacity="1" fill-rule="nonzero"/><path fill="#381999" d="M 41.796875 35.453125 C 41.671875 35.453125 41.574219 35.355469 41.574219 35.234375 L 41.574219 32.09375 C 41.574219 31.972656 41.671875 31.875 41.796875 31.875 C 41.917969 31.875 42.015625 31.972656 42.015625 32.09375 L 42.015625 35.234375 C 42.015625 35.355469 41.917969 35.453125 41.796875 35.453125 Z M 41.796875 35.453125 " fill-opacity="1" fill-rule="nonzero"/><path fill="#ffffff" d="M 34.699219 24.234375 L 34.699219 26.453125 C 34.699219 27.484375 35.535156 28.316406 36.570312 28.316406 C 37.601562 28.316406 38.441406 27.484375 38.441406 26.453125 L 38.441406 24.246094 Z M 34.699219 24.234375 " fill-opacity="1" fill-rule="nonzero"/><path fill="#381999" d="M 36.570312 28.539062 C 35.414062 28.539062 34.476562 27.605469 34.476562 26.453125 L 34.476562 24.234375 C 34.476562 24.113281 34.574219 24.015625 34.699219 24.015625 C 34.820312 24.015625 34.917969 24.113281 34.917969 24.234375 L 34.917969 26.453125 C 34.917969 27.359375 35.660156 28.097656 36.570312 28.097656 C 37.480469 28.097656 38.21875 27.359375 38.21875 26.453125 L 38.21875 24.246094 C 38.21875 24.125 38.316406 24.023438 38.441406 24.023438 C 38.5625 24.023438 38.664062 24.125 38.664062 24.246094 L 38.664062 26.453125 C 38.664062 27.605469 37.722656 28.539062 36.570312 28.539062 Z M 36.570312 28.539062 " fill-opacity="1" fill-rule="nonzero"/><path fill="#ffc45e" d="M 32.734375 12.21875 C 31.808594 12.507812 31.101562 13.382812 31.101562 14.628906 L 31.101562 17.75 L 42.066406 17.785156 L 42.066406 14.640625 C 42.066406 12.75 40.527344 11.214844 38.625 11.214844 L 32.472656 11.214844 C 32.472656 12.347656 33.390625 13.261719 34.527344 13.261719 L 36.8125 13.261719 Z M 32.734375 12.21875 " fill-opacity="1" fill-rule="nonzero"/><path fill="#381999" d="M 42.066406 18.007812 L 31.101562 17.972656 C 30.976562 17.972656 30.878906 17.875 30.878906 17.75 L 30.878906 14.628906 C 30.878906 13.992188 31.054688 13.40625 31.390625 12.9375 C 31.65625 12.5625 32.011719 12.273438 32.429688 12.09375 C 32.3125 11.824219 32.25 11.527344 32.25 11.214844 C 32.25 11.09375 32.347656 10.996094 32.472656 10.996094 L 38.625 10.996094 C 40.644531 10.996094 42.289062 12.628906 42.289062 14.640625 L 42.289062 17.785156 C 42.289062 17.84375 42.265625 17.902344 42.222656 17.941406 C 42.179688 17.984375 42.125 18.007812 42.066406 18.007812 Z M 31.324219 17.53125 L 41.84375 17.5625 L 41.84375 14.640625 C 41.84375 12.875 40.402344 11.4375 38.625 11.4375 L 32.707031 11.4375 C 32.816406 12.339844 33.589844 13.042969 34.527344 13.042969 L 36.8125 13.042969 C 36.933594 13.042969 37.035156 13.140625 37.035156 13.261719 C 37.035156 13.382812 36.933594 13.484375 36.8125 13.484375 L 34.527344 13.484375 C 33.742188 13.484375 33.050781 13.085938 32.640625 12.484375 C 31.824219 12.8125 31.324219 13.621094 31.324219 14.628906 Z M 31.324219 17.53125 " fill-opacity="1" fill-rule="nonzero"/><path fill="#ffffff" d="M 32.40625 17.167969 L 32.40625 16.707031 C 32.40625 14.804688 33.957031 13.257812 35.867188 13.257812 L 37.296875 13.257812 C 39.207031 13.257812 40.757812 14.804688 40.757812 16.707031 L 40.757812 17.167969 C 41.707031 17.179688 42.472656 17.949219 42.472656 18.898438 C 42.472656 19.847656 41.707031 20.617188 40.757812 20.628906 L 40.757812 20.773438 C 40.757812 22.851562 39.0625 24.539062 36.972656 24.539062 L 36.1875 24.539062 C 34.097656 24.539062 32.40625 22.851562 32.40625 20.773438 L 32.40625 20.632812 C 31.445312 20.632812 30.664062 19.855469 30.664062 18.898438 C 30.664062 17.941406 31.445312 17.167969 32.40625 17.167969 Z M 32.40625 17.167969 " fill-opacity="1" fill-rule="nonzero"/><path fill="#381999" d="M 36.972656 24.757812 L 36.1875 24.757812 C 35.117188 24.757812 34.113281 24.34375 33.355469 23.589844 C 32.617188 22.855469 32.199219 21.878906 32.183594 20.839844 C 31.207031 20.730469 30.441406 19.902344 30.441406 18.898438 C 30.441406 17.898438 31.207031 17.066406 32.183594 16.957031 L 32.183594 16.707031 C 32.183594 14.683594 33.835938 13.039062 35.867188 13.039062 L 37.296875 13.039062 C 39.328125 13.039062 40.980469 14.683594 40.980469 16.707031 L 40.980469 16.960938 C 41.414062 17.015625 41.816406 17.210938 42.128906 17.527344 C 42.496094 17.894531 42.695312 18.382812 42.695312 18.898438 C 42.695312 19.417969 42.496094 19.902344 42.128906 20.269531 C 41.816406 20.585938 41.414062 20.78125 40.980469 20.835938 C 40.964844 21.878906 40.546875 22.855469 39.808594 23.589844 C 39.050781 24.34375 38.042969 24.757812 36.972656 24.757812 Z M 35.867188 13.480469 C 34.082031 13.480469 32.625 14.925781 32.625 16.707031 L 32.625 17.167969 C 32.625 17.289062 32.527344 17.386719 32.40625 17.386719 C 31.566406 17.386719 30.886719 18.066406 30.886719 18.898438 C 30.886719 19.734375 31.566406 20.410156 32.40625 20.410156 C 32.527344 20.410156 32.625 20.511719 32.625 20.632812 L 32.625 20.773438 C 32.625 22.726562 34.226562 24.316406 36.1875 24.316406 L 36.972656 24.316406 C 38.9375 24.316406 40.535156 22.726562 40.535156 20.773438 L 40.535156 20.628906 C 40.535156 20.511719 40.632812 20.410156 40.753906 20.410156 C 41.582031 20.398438 42.253906 19.71875 42.253906 18.898438 C 42.253906 18.078125 41.582031 17.398438 40.753906 17.386719 C 40.632812 17.386719 40.535156 17.289062 40.535156 17.167969 L 40.535156 16.707031 C 40.535156 14.925781 39.082031 13.480469 37.296875 13.480469 Z M 35.867188 13.480469 " fill-opacity="1" fill-rule="nonzero"/><path fill="#ffc45e" d="M 27.738281 29.152344 L 27.796875 33.980469 C 27.808594 35.007812 28.65625 35.828125 29.6875 35.8125 C 30.714844 35.796875 31.539062 34.957031 31.527344 33.929688 L 31.46875 29.101562 Z M 27.738281 29.152344 " fill-opacity="1" fill-rule="nonzero"/><path fill="#381999" d="M 29.660156 36.035156 C 29.113281 36.035156 28.597656 35.824219 28.207031 35.445312 C 27.804688 35.058594 27.582031 34.539062 27.574219 33.984375 L 27.515625 29.15625 C 27.515625 29.035156 27.613281 28.933594 27.738281 28.933594 C 27.859375 28.933594 27.960938 29.03125 27.960938 29.152344 L 28.015625 33.976562 C 28.023438 34.414062 28.199219 34.824219 28.515625 35.128906 C 28.828125 35.433594 29.246094 35.597656 29.683594 35.59375 C 30.589844 35.578125 31.316406 34.835938 31.304688 33.933594 L 31.25 29.105469 C 31.246094 28.984375 31.34375 28.882812 31.46875 28.882812 C 31.589844 28.882812 31.691406 28.980469 31.691406 29.101562 L 31.75 33.929688 C 31.765625 35.074219 30.839844 36.019531 29.6875 36.035156 C 29.679688 36.035156 29.671875 36.035156 29.660156 36.035156 Z M 29.660156 36.035156 " fill-opacity="1" fill-rule="nonzero"/><path fill="#ffc45e" d="M 27.113281 27.867188 L 27.160156 29.265625 C 27.164062 29.523438 27.375 29.726562 27.628906 29.722656 L 31.59375 29.667969 C 31.851562 29.664062 32.054688 29.457031 32.050781 29.199219 L 32.015625 27.78125 Z M 27.113281 27.867188 " fill-opacity="1" fill-rule="nonzero"/><path fill="#381999" d="M 27.625 29.945312 C 27.25 29.945312 26.945312 29.644531 26.9375 29.273438 L 26.890625 27.875 C 26.886719 27.753906 26.984375 27.652344 27.105469 27.648438 C 27.109375 27.648438 27.113281 27.648438 27.113281 27.648438 C 27.234375 27.648438 27.332031 27.742188 27.335938 27.859375 L 27.378906 29.261719 C 27.378906 29.261719 27.382812 29.261719 27.382812 29.265625 C 27.382812 29.394531 27.492188 29.503906 27.625 29.503906 L 31.589844 29.449219 C 31.65625 29.449219 31.714844 29.421875 31.761719 29.375 C 31.804688 29.328125 31.828125 29.269531 31.828125 29.203125 L 31.792969 27.785156 C 31.789062 27.664062 31.886719 27.5625 32.011719 27.558594 C 32.132812 27.554688 32.234375 27.652344 32.238281 27.773438 L 32.273438 29.195312 C 32.273438 29.195312 32.273438 29.195312 32.273438 29.199219 C 32.277344 29.574219 31.972656 29.886719 31.597656 29.890625 L 27.632812 29.945312 C 27.628906 29.945312 27.625 29.945312 27.625 29.945312 Z M 27.625 29.945312 " fill-opacity="1" fill-rule="nonzero"/><path fill="#ffffff" d="M 34.089844 17.15625 C 34.394531 17.460938 34.667969 17.789062 34.90625 18.144531 C 35.144531 18.5 35.347656 18.878906 35.511719 19.273438 C 35.675781 19.667969 35.800781 20.078125 35.882812 20.496094 C 35.96875 20.917969 36.011719 21.34375 36.011719 21.769531 C 36.011719 22.199219 35.96875 22.625 35.882812 23.042969 C 35.800781 23.464844 35.675781 23.871094 35.511719 24.269531 C 35.347656 24.664062 35.144531 25.039062 34.90625 25.398438 C 34.667969 25.753906 34.394531 26.082031 34.089844 26.386719 C 33.785156 26.6875 33.453125 26.960938 33.097656 27.199219 C 32.738281 27.433594 32.359375 27.636719 31.964844 27.800781 C 31.566406 27.964844 31.15625 28.089844 30.734375 28.171875 C 30.3125 28.253906 29.886719 28.296875 29.453125 28.296875 C 29.023438 28.296875 28.597656 28.253906 28.175781 28.171875 C 27.753906 28.089844 27.34375 27.964844 26.945312 27.800781 C 26.546875 27.636719 26.171875 27.433594 25.8125 27.199219 C 25.453125 26.960938 25.121094 26.6875 24.820312 26.386719 C 24.515625 26.082031 24.242188 25.753906 24.003906 25.398438 C 23.765625 25.039062 23.5625 24.664062 23.398438 24.269531 C 23.234375 23.871094 23.109375 23.464844 23.023438 23.042969 C 22.941406 22.625 22.898438 22.199219 22.898438 21.769531 C 22.898438 21.34375 22.941406 20.917969 23.023438 20.496094 C 23.109375 20.078125 23.234375 19.667969 23.398438 19.273438 C 23.5625 18.878906 23.765625 18.5 24.003906 18.144531 C 24.242188 17.789062 24.515625 17.460938 24.820312 17.15625 C 25.121094 16.851562 25.453125 16.582031 25.8125 16.34375 C 26.167969 16.105469 26.546875 15.90625 26.945312 15.742188 C 27.34375 15.578125 27.753906 15.453125 28.175781 15.371094 C 28.597656 15.285156 29.023438 15.246094 29.453125 15.246094 C 29.882812 15.246094 30.3125 15.285156 30.734375 15.371094 C 31.15625 15.453125 31.566406 15.578125 31.964844 15.742188 C 32.359375 15.90625 32.738281 16.105469 33.097656 16.34375 C 33.453125 16.582031 33.785156 16.851562 34.089844 17.15625 Z M 34.089844 17.15625 " fill-opacity="1" fill-rule="nonzero"/><path fill="#381999" d="M 29.453125 28.519531 C 28.605469 28.519531 27.777344 28.363281 26.988281 28.058594 C 26.144531 27.730469 25.382812 27.242188 24.726562 26.605469 C 24.070312 25.972656 23.5625 25.226562 23.207031 24.394531 C 22.867188 23.589844 22.691406 22.738281 22.675781 21.863281 C 22.664062 20.984375 22.820312 20.128906 23.140625 19.316406 C 23.46875 18.476562 23.960938 17.71875 24.597656 17.066406 C 25.234375 16.414062 25.984375 15.902344 26.820312 15.554688 C 27.628906 15.214844 28.484375 15.035156 29.363281 15.023438 C 30.242188 15.011719 31.101562 15.167969 31.917969 15.484375 C 32.765625 15.8125 33.527344 16.300781 34.183594 16.9375 C 34.835938 17.570312 35.347656 18.316406 35.703125 19.148438 C 36.042969 19.953125 36.21875 20.804688 36.230469 21.679688 C 36.242188 22.554688 36.089844 23.410156 35.769531 24.226562 C 35.441406 25.066406 34.949219 25.824219 34.3125 26.476562 C 33.675781 27.128906 32.925781 27.636719 32.089844 27.988281 C 31.28125 28.328125 30.425781 28.503906 29.546875 28.515625 C 29.515625 28.519531 29.484375 28.519531 29.453125 28.519531 Z M 29.457031 15.46875 C 27.804688 15.46875 26.15625 16.105469 24.914062 17.375 C 23.734375 18.578125 23.097656 20.171875 23.121094 21.855469 C 23.144531 23.539062 23.824219 25.113281 25.035156 26.289062 C 26.25 27.464844 27.847656 28.097656 29.539062 28.074219 C 31.234375 28.054688 32.8125 27.375 33.996094 26.167969 C 36.429688 23.675781 36.375 19.675781 33.871094 17.253906 C 32.644531 16.0625 31.050781 15.46875 29.457031 15.46875 Z M 29.457031 15.46875 " fill-opacity="1" fill-rule="nonzero"/><path fill="#ffffff" d="M 29.453125 25.253906 C 31.710938 25.253906 33.621094 23.792969 34.289062 21.769531 C 33.621094 19.75 31.710938 18.289062 29.453125 18.289062 C 27.199219 18.289062 25.289062 19.75 24.621094 21.769531 C 25.289062 23.792969 27.199219 25.253906 29.453125 25.253906 Z M 29.453125 25.253906 " fill-opacity="1" fill-rule="nonzero"/><path fill="#381999" d="M 29.453125 25.472656 C 28.3125 25.472656 27.226562 25.117188 26.3125 24.449219 C 25.414062 23.789062 24.757812 22.886719 24.410156 21.839844 C 24.394531 21.796875 24.394531 21.746094 24.410156 21.703125 C 24.757812 20.652344 25.414062 19.75 26.3125 19.09375 C 27.226562 18.421875 28.3125 18.066406 29.453125 18.066406 C 30.59375 18.066406 31.683594 18.421875 32.597656 19.09375 C 33.496094 19.75 34.152344 20.652344 34.5 21.703125 C 34.511719 21.746094 34.511719 21.796875 34.5 21.839844 C 34.152344 22.886719 33.496094 23.789062 32.597656 24.449219 C 31.683594 25.117188 30.59375 25.472656 29.453125 25.472656 Z M 24.855469 21.769531 C 25.535156 23.726562 27.371094 25.03125 29.453125 25.03125 C 31.539062 25.03125 33.375 23.726562 34.054688 21.769531 C 33.375 19.816406 31.539062 18.507812 29.453125 18.507812 C 27.371094 18.507812 25.535156 19.816406 24.855469 21.769531 Z M 24.855469 21.769531 " fill-opacity="1" fill-rule="nonzero"/><path fill="#5eb4ff" d="M 31.363281 20.628906 C 31.566406 20.960938 31.679688 21.351562 31.679688 21.769531 C 31.679688 22.996094 30.683594 23.988281 29.453125 23.988281 C 28.226562 23.988281 27.230469 22.996094 27.230469 21.769531 C 27.230469 20.546875 28.226562 19.554688 29.453125 19.554688 C 29.617188 19.554688 29.777344 19.574219 29.933594 19.605469 Z M 31.363281 20.628906 " fill-opacity="1" fill-rule="nonzero"/><path fill="#381999" d="M 29.453125 24.207031 C 28.105469 24.207031 27.007812 23.113281 27.007812 21.769531 C 27.007812 20.425781 28.105469 19.335938 29.453125 19.335938 C 29.632812 19.335938 29.808594 19.351562 29.980469 19.390625 C 30.097656 19.417969 30.175781 19.535156 30.148438 19.652344 C 30.121094 19.773438 30.003906 19.847656 29.886719 19.820312 C 29.746094 19.792969 29.601562 19.777344 29.453125 19.777344 C 28.351562 19.777344 27.449219 20.671875 27.449219 21.769531 C 27.449219 22.871094 28.351562 23.765625 29.453125 23.765625 C 30.558594 23.765625 31.460938 22.871094 31.460938 21.769531 C 31.460938 21.40625 31.359375 21.050781 31.171875 20.742188 C 31.109375 20.640625 31.144531 20.503906 31.25 20.441406 C 31.355469 20.378906 31.488281 20.410156 31.554688 20.515625 C 31.78125 20.894531 31.902344 21.328125 31.902344 21.769531 C 31.902344 23.113281 30.804688 24.207031 29.453125 24.207031 Z M 29.453125 24.207031 " fill-opacity="1" fill-rule="nonzero"/><path fill="#ffffff" d="M 31.082031 19.832031 C 31.457031 20.203125 31.457031 20.804688 31.082031 21.175781 C 30.710938 21.546875 30.105469 21.546875 29.734375 21.175781 C 29.363281 20.804688 29.363281 20.203125 29.734375 19.832031 C 30.105469 19.460938 30.710938 19.460938 31.082031 19.832031 Z M 31.082031 19.832031 " fill-opacity="1" fill-rule="nonzero"/><path fill="#381999" d="M 30.410156 21.675781 C 30.109375 21.675781 29.808594 21.558594 29.578125 21.332031 C 29.117188 20.875 29.117188 20.132812 29.578125 19.675781 C 30.035156 19.222656 30.78125 19.222656 31.242188 19.675781 C 31.699219 20.132812 31.699219 20.875 31.242188 21.332031 C 31.011719 21.558594 30.710938 21.675781 30.410156 21.675781 Z M 30.410156 19.777344 C 30.222656 19.777344 30.035156 19.847656 29.890625 19.988281 C 29.605469 20.273438 29.605469 20.734375 29.890625 21.019531 C 30.175781 21.304688 30.640625 21.304688 30.925781 21.019531 C 31.210938 20.734375 31.210938 20.273438 30.925781 19.988281 C 30.785156 19.847656 30.597656 19.777344 30.410156 19.777344 Z M 30.410156 19.777344 " fill-opacity="1" fill-rule="nonzero"/><path fill="#5eb4ff" d="M 23.375 13.011719 L 23.375 14.089844 C 23.375 14.589844 22.96875 14.992188 22.46875 14.992188 L 4.46875 14.992188 C 3.96875 14.992188 3.5625 14.589844 3.5625 14.089844 L 3.5625 13.011719 Z M 23.375 13.011719 " fill-opacity="1" fill-rule="nonzero"/><path fill="#381999" d="M 22.46875 15.214844 L 4.46875 15.214844 C 3.847656 15.214844 3.339844 14.710938 3.339844 14.089844 L 3.339844 13.011719 C 3.339844 12.890625 3.441406 12.792969 3.5625 12.792969 L 23.375 12.792969 C 23.5 12.792969 23.597656 12.890625 23.597656 13.011719 L 23.597656 14.089844 C 23.597656 14.710938 23.089844 15.214844 22.46875 15.214844 Z M 3.785156 13.234375 L 3.785156 14.089844 C 3.785156 14.46875 4.089844 14.773438 4.46875 14.773438 L 22.46875 14.773438 C 22.847656 14.773438 23.152344 14.46875 23.152344 14.089844 L 23.152344 13.234375 Z M 3.785156 13.234375 " fill-opacity="1" fill-rule="nonzero"/><g clip-path="url(#69600b279a)"><path fill="#ffffff" d="M 23.375 1.769531 L 23.375 13.011719 L 3.5625 13.011719 L 3.5625 1.769531 C 3.5625 1.273438 3.96875 0.867188 4.46875 0.867188 L 22.46875 0.867188 C 22.96875 0.867188 23.375 1.273438 23.375 1.769531 Z M 23.375 1.769531 " fill-opacity="1" fill-rule="nonzero"/><path fill="#381999" d="M 23.375 13.234375 L 3.5625 13.234375 C 3.441406 13.234375 3.339844 13.136719 3.339844 13.011719 L 3.339844 1.769531 C 3.339844 1.152344 3.847656 0.644531 4.46875 0.644531 L 22.46875 0.644531 C 23.089844 0.644531 23.597656 1.152344 23.597656 1.769531 L 23.597656 13.011719 C 23.597656 13.136719 23.5 13.234375 23.375 13.234375 Z M 3.785156 12.792969 L 23.152344 12.792969 L 23.152344 1.769531 C 23.152344 1.394531 22.847656 1.085938 22.46875 1.085938 L 4.46875 1.085938 C 4.089844 1.085938 3.785156 1.394531 3.785156 1.769531 Z M 3.785156 12.792969 " fill-opacity="1" fill-rule="nonzero"/></g><path fill="#5eb4ff" d="M 17.835938 17.667969 L 16.039062 17.667969 L 14.980469 15.046875 L 12.175781 15.046875 L 11.117188 17.667969 L 9.269531 17.667969 C 9.085938 17.667969 8.9375 17.816406 8.9375 18.003906 L 8.9375 18.839844 L 18.171875 18.839844 L 18.171875 18.003906 C 18.171875 17.816406 18.019531 17.667969 17.835938 17.667969 Z M 17.835938 17.667969 " fill-opacity="1" fill-rule="nonzero"/><path fill="#381999" d="M 18.171875 19.058594 L 8.9375 19.058594 C 8.8125 19.058594 8.714844 18.960938 8.714844 18.839844 L 8.714844 18.003906 C 8.714844 17.695312 8.964844 17.449219 9.269531 17.449219 L 10.96875 17.449219 L 11.972656 14.960938 C 12.003906 14.878906 12.085938 14.824219 12.175781 14.824219 L 14.980469 14.824219 C 15.070312 14.824219 15.152344 14.878906 15.1875 14.960938 L 16.1875 17.449219 L 17.835938 17.449219 C 18.140625 17.449219 18.390625 17.695312 18.390625 18.003906 L 18.390625 18.839844 C 18.390625 18.960938 18.292969 19.058594 18.171875 19.058594 Z M 9.15625 18.617188 L 17.949219 18.617188 L 17.949219 18.003906 C 17.949219 17.941406 17.898438 17.890625 17.835938 17.890625 L 16.039062 17.890625 C 15.949219 17.890625 15.867188 17.835938 15.832031 17.75 L 14.832031 15.265625 L 12.328125 15.265625 L 11.324219 17.75 C 11.289062 17.835938 11.210938 17.890625 11.117188 17.890625 L 9.269531 17.890625 C 9.207031 17.890625 9.15625 17.941406 9.15625 18.003906 Z M 9.15625 18.617188 " fill-opacity="1" fill-rule="nonzero"/><path fill="#381999" d="M 8.410156 6.929688 L 5.652344 6.929688 C 5.53125 6.929688 5.429688 6.828125 5.429688 6.707031 L 5.429688 3.960938 C 5.429688 3.839844 5.53125 3.738281 5.652344 3.738281 L 8.410156 3.738281 C 8.535156 3.738281 8.632812 3.839844 8.632812 3.960938 C 8.632812 4.082031 8.535156 4.179688 8.410156 4.179688 L 5.875 4.179688 L 5.875 6.488281 L 8.191406 6.488281 L 8.191406 5.976562 C 8.191406 5.851562 8.289062 5.753906 8.410156 5.753906 C 8.535156 5.753906 8.632812 5.851562 8.632812 5.976562 L 8.632812 6.707031 C 8.632812 6.828125 8.535156 6.929688 8.410156 6.929688 Z M 8.410156 6.929688 " fill-opacity="1" fill-rule="nonzero"/><path fill="#381999" d="M 8.410156 10.773438 L 5.652344 10.773438 C 5.53125 10.773438 5.429688 10.675781 5.429688 10.554688 L 5.429688 7.804688 C 5.429688 7.683594 5.53125 7.585938 5.652344 7.585938 L 8.410156 7.585938 C 8.535156 7.585938 8.632812 7.683594 8.632812 7.804688 L 8.632812 10.554688 C 8.632812 10.675781 8.535156 10.773438 8.410156 10.773438 Z M 5.875 10.332031 L 8.191406 10.332031 L 8.191406 8.027344 L 5.875 8.027344 Z M 5.875 10.332031 " fill-opacity="1" fill-rule="nonzero"/><path fill="#381999" d="M 7.210938 6.296875 C 7.152344 6.296875 7.09375 6.273438 7.054688 6.234375 L 6.445312 5.628906 C 6.359375 5.539062 6.359375 5.402344 6.445312 5.316406 C 6.53125 5.230469 6.671875 5.230469 6.757812 5.316406 L 7.210938 5.765625 L 8.984375 4 C 9.070312 3.914062 9.210938 3.914062 9.296875 4 C 9.382812 4.085938 9.382812 4.226562 9.296875 4.3125 L 7.367188 6.234375 C 7.324219 6.273438 7.269531 6.296875 7.210938 6.296875 Z M 7.210938 6.296875 " fill-opacity="1" fill-rule="nonzero"/><path fill="#381999" d="M 12.460938 5.828125 L 10.066406 5.828125 C 9.945312 5.828125 9.847656 5.730469 9.847656 5.609375 C 9.847656 5.488281 9.945312 5.386719 10.066406 5.386719 L 12.460938 5.386719 C 12.582031 5.386719 12.679688 5.488281 12.679688 5.609375 C 12.679688 5.730469 12.582031 5.828125 12.460938 5.828125 Z M 12.460938 5.828125 " fill-opacity="1" fill-rule="nonzero"/><path fill="#381999" d="M 12.644531 9.859375 L 10.066406 9.859375 C 9.945312 9.859375 9.847656 9.757812 9.847656 9.636719 C 9.847656 9.515625 9.945312 9.417969 10.066406 9.417969 L 12.644531 9.417969 C 12.765625 9.417969 12.867188 9.515625 12.867188 9.636719 C 12.867188 9.757812 12.765625 9.859375 12.644531 9.859375 Z M 12.644531 9.859375 " fill-opacity="1" fill-rule="nonzero"/><path fill="#ffc45e" d="M 14.113281 3.527344 L 21.367188 3.527344 L 21.367188 10.75 L 14.113281 10.75 Z M 14.113281 3.527344 " fill-opacity="1" fill-rule="nonzero"/><path fill="#381999" d="M 21.367188 10.96875 L 14.113281 10.96875 C 13.988281 10.96875 13.890625 10.871094 13.890625 10.75 L 13.890625 3.527344 C 13.890625 3.40625 13.988281 3.304688 14.113281 3.304688 L 21.367188 3.304688 C 21.488281 3.304688 21.589844 3.40625 21.589844 3.527344 L 21.589844 10.75 C 21.589844 10.871094 21.488281 10.96875 21.367188 10.96875 Z M 14.332031 10.527344 L 21.144531 10.527344 L 21.144531 3.746094 L 14.332031 3.746094 Z M 14.332031 10.527344 " fill-opacity="1" fill-rule="nonzero"/></svg>