<svg id="Layer_1" data-name="Layer 1" xmlns="http://www.w3.org/2000/svg" viewBox="0 0 106.25 100"><defs><style>.cls-1{fill:#fff;}.cls-2{fill:#d8d9d8;}</style></defs><title>icon_1</title><path class="cls-1" d="M13.89,2.54,10.77,20.87l74.13-2-2,11.79-74.2,2L5.64,51l74.14-2-3.6,20.92L46.62,80.56,20.45,71.39,22,62.32l-18.23.5L0,84.79,43.29,100,92.18,82.25,106.25,0Zm0,0"/><polygon class="cls-2" points="75.01 0.86 106.25 0 92.18 82.25 51.37 97.06 58.8 76.15 76.17 69.86 79.78 48.94 62.66 49.41 67.48 31.04 82.89 30.61 84.9 18.83 68.89 19.27 75.01 0.86"/></svg>