<svg width="50" height="50" viewBox="0 0 50 50" fill="none" xmlns="http://www.w3.org/2000/svg">
<g clip-path="url(#clip0_50_351)">
<path d="M42.6801 42.679C52.4437 32.9154 52.4437 17.0855 42.6801 7.32195C32.9166 -2.44163 17.0867 -2.44163 7.32307 7.32195C-2.44052 17.0855 -2.44052 32.9154 7.32307 42.679C17.0867 52.4426 32.9166 52.4426 42.6801 42.679Z" fill="#FFD05D"/>
<path d="M38.0801 3.66333C40.5703 7.54964 42.0134 12.1722 42.0134 17.129C42.0134 30.935 30.8208 42.1305 17.0119 42.1305C12.2163 42.1305 7.73754 40.7784 3.93335 38.4378C8.37695 45.3745 16.1525 49.9706 25.0016 49.9706C38.8075 49.9706 50.003 38.778 50.003 24.9691C50.0001 15.9587 45.2309 8.06293 38.0801 3.66333Z" fill="#FDC453"/>
<path d="M3.39652 27.6384C3.39652 14.8179 13.7884 4.42607 26.6088 4.42607C34.1028 4.42607 40.7638 7.97801 45.0079 13.4892C41.0014 6.52908 33.4869 1.84497 24.8812 1.84497C12.0608 1.84497 1.66895 12.2368 1.66895 25.0573C1.66895 30.3837 3.46398 35.2907 6.48211 39.2064C4.51989 35.8011 3.39652 31.8503 3.39652 27.6384Z" fill="#FFD77F"/>
<path d="M17.6307 18.936C17.6307 20.6518 16.8065 22.0421 15.7887 22.0421C14.771 22.0421 13.9468 20.6518 13.9468 18.936C13.9468 17.2201 14.771 15.8298 15.7887 15.8298C16.8065 15.8298 17.6307 17.2201 17.6307 18.936Z" fill="#303030"/>
<path d="M36.0533 18.936C36.0533 20.6518 35.2291 22.0421 34.2114 22.0421C33.1936 22.0421 32.3694 20.6518 32.3694 18.936C32.3694 17.2201 33.1936 15.8298 34.2114 15.8298C35.2291 15.8298 36.0533 17.2201 36.0533 18.936Z" fill="#303030"/>
<path d="M8.20093 27.3655C9.15417 35.801 16.3079 42.3593 24.9986 42.3593C33.6893 42.3593 40.846 35.801 41.7963 27.3655H8.20093Z" fill="#695342"/>
<path d="M13.3953 37.7428C16.4222 40.6025 20.505 42.3594 24.9985 42.3594C29.2984 42.3594 33.2228 40.7521 36.2057 38.1065L36.0503 37.7428C24.7726 32.2432 13.5507 37.6665 13.3953 37.7428Z" fill="#F06669"/>
</g>
<defs>
<clipPath id="clip0_50_351">
<rect width="50" height="50" fill="white"/>
</clipPath>
</defs>
</svg>
