<svg width="50" height="50" viewBox="0 0 50 50" fill="none" xmlns="http://www.w3.org/2000/svg">
<g clip-path="url(#clip0_50_368)">
<path d="M42.6801 42.679C52.4437 32.9154 52.4437 17.0855 42.6801 7.32195C32.9166 -2.44164 17.0867 -2.44164 7.32307 7.32195C-2.44052 17.0855 -2.44052 32.9154 7.32307 42.679C17.0867 52.4426 32.9166 52.4426 42.6801 42.679Z" fill="#FFD05D"/>
<path d="M38.0801 3.66333C40.5703 7.54964 42.0134 12.1722 42.0134 17.129C42.0134 30.935 30.8208 42.1305 17.0119 42.1305C12.2163 42.1305 7.73754 40.7784 3.93335 38.4378C8.37695 45.3745 16.1525 49.9706 25.0016 49.9706C38.8075 49.9706 50.003 38.778 50.003 24.9691C50.0001 15.9587 45.2309 8.06293 38.0801 3.66333Z" fill="#FDC453"/>
<path d="M3.39652 27.6384C3.39652 14.8179 13.7884 4.42607 26.6088 4.42607C34.1028 4.42607 40.7638 7.97801 45.0079 13.4892C41.0014 6.52908 33.4869 1.84497 24.8812 1.84497C12.0608 1.84497 1.66895 12.2368 1.66895 25.0573C1.66895 30.3837 3.46398 35.2907 6.48211 39.2064C4.51989 35.8011 3.39652 31.8503 3.39652 27.6384Z" fill="#FFD77F"/>
<path d="M14.7534 28.7822C14.1081 28.1574 13.0786 28.8497 13.4101 29.6826C15.2579 34.2993 19.769 37.5579 25.0456 37.5579C30.2342 37.5579 34.6836 34.4049 36.5842 29.9114C36.9303 29.0931 35.892 28.3833 35.2526 29.0022C31.5951 32.5512 23.8283 37.599 14.7534 28.7822Z" fill="#5E4939"/>
<path d="M17.6307 20.5256C17.6307 22.2414 16.8065 23.6317 15.7887 23.6317C14.771 23.6317 13.9468 22.2414 13.9468 20.5256C13.9468 18.8097 14.771 17.4194 15.7887 17.4194C16.8065 17.4224 17.6307 18.8126 17.6307 20.5256Z" fill="#303030"/>
<path d="M36.0533 20.5256C36.0533 22.2414 35.2291 23.6317 34.2114 23.6317C33.1936 23.6317 32.3694 22.2414 32.3694 20.5256C32.3694 18.8097 33.1936 17.4194 34.2114 17.4194C35.2291 17.4224 36.0533 18.8126 36.0533 20.5256Z" fill="#303030"/>
</g>
<defs>
<clipPath id="clip0_50_368">
<rect width="50" height="50" fill="white"/>
</clipPath>
</defs>
</svg>
