<svg width="50" height="50" viewBox="0 0 50 50" fill="none" xmlns="http://www.w3.org/2000/svg">
<g clip-path="url(#clip0_50_405)">
<path d="M42.6801 42.679C52.4437 32.9154 52.4437 17.0855 42.6801 7.32195C32.9166 -2.44163 17.0867 -2.44163 7.32307 7.32195C-2.44052 17.0855 -2.44052 32.9154 7.32307 42.679C17.0867 52.4426 32.9166 52.4426 42.6801 42.679Z" fill="#FFD05D"/>
<path d="M38.0801 3.66333C40.5703 7.54964 42.0134 12.1722 42.0134 17.129C42.0134 30.935 30.8208 42.1305 17.0119 42.1305C12.2163 42.1305 7.73754 40.7784 3.93335 38.4378C8.37695 45.3745 16.1525 49.9706 25.0016 49.9706C38.8075 49.9706 50.003 38.778 50.003 24.9691C50.0001 15.9587 45.2309 8.06293 38.0801 3.66333Z" fill="#FDC453"/>
<path d="M3.39652 27.6384C3.39652 14.8179 13.7884 4.42607 26.6088 4.42607C34.1028 4.42607 40.7638 7.97801 45.0079 13.4892C41.0014 6.52908 33.4869 1.84497 24.8812 1.84497C12.0608 1.84497 1.66895 12.2368 1.66895 25.0573C1.66895 30.3837 3.46398 35.2907 6.48211 39.2064C4.51989 35.8011 3.39652 31.8503 3.39652 27.6384Z" fill="#FFD77F"/>
<path d="M19.4336 21.3565C19.9407 18.2321 17.8189 15.2881 14.6945 14.7811C11.5701 14.274 8.62614 16.3958 8.11907 19.5202C7.61199 22.6446 9.73378 25.5886 12.8582 26.0956C15.9826 26.6027 18.9266 24.4809 19.4336 21.3565Z" fill="white"/>
<path d="M17.795 16.3549C16.7596 15.3372 15.343 14.7065 13.7767 14.7065C12.7179 14.7065 11.7324 14.9969 10.8818 15.4985C10.7087 15.7214 10.5973 15.9707 10.5709 16.2405C10.4594 17.4372 12.0022 18.5577 14.0172 18.7483C16.0322 18.936 17.7569 18.1206 17.8683 16.9239C17.8859 16.7274 17.8566 16.5397 17.795 16.3549Z" fill="#303030"/>
<path d="M40.2792 24.4896C42.5174 22.2514 42.5174 18.6226 40.2792 16.3845C38.0411 14.1463 34.4123 14.1463 32.1741 16.3845C29.936 18.6226 29.936 22.2514 32.1741 24.4896C34.4123 26.7277 38.0411 26.7277 40.2792 24.4896Z" fill="white"/>
<path d="M40.245 16.3549C39.2096 15.3372 37.7929 14.7065 36.2267 14.7065C35.1678 14.7065 34.1823 14.9969 33.3317 15.4985C33.1587 15.7214 33.0472 15.9707 33.0208 16.2405C32.9094 17.4372 34.4522 18.5577 36.4672 18.7483C38.4822 18.936 40.2068 18.1206 40.3183 16.9239C40.3388 16.7274 40.3095 16.5397 40.245 16.3549Z" fill="#303030"/>
<path d="M34.3051 30.7297C33.1114 29.5476 31.4777 28.6794 29.58 28.216C27.8465 27.7995 25.984 27.7673 24.189 28.1163C22.435 28.4565 20.725 29.1663 19.238 30.1694C17.66 31.2459 16.4369 32.5335 15.601 33.9942C15.4719 34.2171 15.5071 34.4987 15.6831 34.6864C15.7975 34.8066 15.9529 34.8712 16.1113 34.8712C16.1993 34.8712 16.2873 34.8506 16.3694 34.8096L16.9179 34.5397C18.2055 33.9032 19.4198 33.302 20.6546 32.818C22.0655 32.2549 23.4792 31.8354 24.8577 31.5715C26.292 31.2957 27.7497 31.1696 29.1869 31.199C30.5215 31.2195 31.9411 31.3808 33.7889 31.721C34.0412 31.768 34.2963 31.6448 34.4166 31.416C34.531 31.1902 34.487 30.9115 34.3051 30.7297Z" fill="#5E4939"/>
</g>
<defs>
<clipPath id="clip0_50_405">
<rect width="50" height="50" fill="white"/>
</clipPath>
</defs>
</svg>
