<svg width="50" height="50" viewBox="0 0 50 50" fill="none" xmlns="http://www.w3.org/2000/svg">
<g clip-path="url(#clip0_50_423)">
<path d="M42.6801 42.679C52.4437 32.9154 52.4437 17.0855 42.6801 7.32195C32.9166 -2.44163 17.0867 -2.44163 7.32307 7.32195C-2.44052 17.0855 -2.44052 32.9154 7.32307 42.679C17.0867 52.4426 32.9166 52.4426 42.6801 42.679Z" fill="#FFD05D"/>
<path d="M38.0799 3.66333C40.57 7.54964 42.0131 12.1722 42.0131 17.129C42.0131 30.935 30.8205 42.1305 17.0117 42.1305C12.2161 42.1305 7.73729 40.7784 3.93311 38.4378C8.3767 45.3745 16.1523 49.9706 25.0013 49.9706C38.8073 49.9706 50.0028 38.778 50.0028 24.9691C49.9999 15.9587 45.2307 8.06293 38.0799 3.66333Z" fill="#FDC453"/>
<path d="M3.39652 27.6384C3.39652 14.8179 13.7884 4.42607 26.6088 4.42607C34.1028 4.42607 40.7638 7.97801 45.0079 13.4892C41.0014 6.52908 33.4869 1.84497 24.8812 1.84497C12.0608 1.84497 1.66895 12.2368 1.66895 25.0573C1.66895 30.3837 3.46398 35.2907 6.48211 39.2064C4.51989 35.8011 3.39652 31.8503 3.39652 27.6384Z" fill="#FFD77F"/>
<path d="M10.4199 15.8877L8.80225 17.5054L16.0902 24.7933L17.7079 23.1756L10.4199 15.8877Z" fill="#303030"/>
<path d="M17.7066 17.5047L16.0889 15.887L8.80093 23.1749L10.4186 24.7926L17.7066 17.5047Z" fill="#303030"/>
<path d="M33.9102 15.8877L32.2925 17.5054L39.5804 24.7933L41.1981 23.1756L33.9102 15.8877Z" fill="#303030"/>
<path d="M41.1973 17.5049L39.5796 15.8872L32.2916 23.1751L33.9093 24.7928L41.1973 17.5049Z" fill="#303030"/>
<path d="M25.0013 40.5643C27.4943 40.5643 29.5153 37.1382 29.5153 32.9119C29.5153 28.6856 27.4943 25.2595 25.0013 25.2595C22.5083 25.2595 20.4873 28.6856 20.4873 32.9119C20.4873 37.1382 22.5083 40.5643 25.0013 40.5643Z" fill="#695342"/>
<path d="M28.8114 37.0123C25.5176 35.2026 22.8367 36.2291 21.2852 37.2557C22.1005 39.2531 23.4586 40.5642 25.0013 40.5642C26.6028 40.5642 28.0107 39.1476 28.8114 37.0123Z" fill="#F06669"/>
</g>
<defs>
<clipPath id="clip0_50_423">
<rect width="50" height="50" fill="white"/>
</clipPath>
</defs>
</svg>
