<svg width="50" height="50" viewBox="0 0 50 50" fill="none" xmlns="http://www.w3.org/2000/svg">
<g clip-path="url(#clip0_50_385)">
<path d="M42.6801 42.679C52.4437 32.9154 52.4437 17.0855 42.6801 7.32195C32.9166 -2.44163 17.0867 -2.44163 7.32307 7.32195C-2.44052 17.0855 -2.44052 32.9154 7.32307 42.679C17.0867 52.4426 32.9166 52.4426 42.6801 42.679Z" fill="#FFD05D"/>
<path d="M38.0801 3.66333C40.5703 7.54964 42.0134 12.1722 42.0134 17.129C42.0134 30.935 30.8208 42.1305 17.0119 42.1305C12.2163 42.1305 7.73754 40.7784 3.93335 38.4378C8.37695 45.3745 16.1525 49.9706 25.0016 49.9706C38.8075 49.9706 50.003 38.778 50.003 24.9691C50.0001 15.9587 45.2309 8.06293 38.0801 3.66333Z" fill="#FDC453"/>
<path d="M3.39652 27.6384C3.39652 14.8179 13.7884 4.42607 26.6088 4.42607C34.1028 4.42607 40.7638 7.97801 45.0079 13.4892C41.0014 6.52908 33.4869 1.84497 24.8812 1.84497C12.0608 1.84497 1.66895 12.2368 1.66895 25.0573C1.66895 30.3837 3.46398 35.2907 6.48211 39.2064C4.51989 35.8011 3.39652 31.8503 3.39652 27.6384Z" fill="#FFD77F"/>
<path d="M17.6307 18.936C17.6307 20.6518 16.8065 22.0421 15.7887 22.0421C14.771 22.0421 13.9468 20.6518 13.9468 18.936C13.9468 17.2201 14.771 15.8298 15.7887 15.8298C16.8065 15.8298 17.6307 17.2201 17.6307 18.936Z" fill="#303030"/>
<path d="M36.0533 18.936C36.0533 20.6518 35.2291 22.0421 34.2114 22.0421C33.1936 22.0421 32.3694 20.6518 32.3694 18.936C32.3694 17.2201 33.1936 15.8298 34.2114 15.8298C35.2291 15.8298 36.0533 17.2201 36.0533 18.936Z" fill="#303030"/>
<path d="M39.7665 13.6945C39.4966 13.6153 39.2356 13.542 38.9804 13.4716C38.4173 13.3132 37.8893 13.1666 37.376 12.9877C36.6105 12.7296 35.9212 12.4363 35.2701 12.0931C34.5838 11.7294 33.962 11.3276 33.3665 10.8583C32.7154 10.3538 32.1112 9.7613 31.5539 9.19815C31.5216 9.16588 31.4747 9.15708 31.4336 9.17468C31.3926 9.19228 31.3662 9.23334 31.3691 9.28027C31.4102 10.1338 31.7475 11.0166 32.3458 11.832C32.8914 12.5712 33.6246 13.193 34.4606 13.63C35.2496 14.0436 36.1295 14.2987 37.0153 14.3633C37.0505 14.3662 37.0827 14.3691 37.1179 14.3691C38.1122 14.4219 39.0068 14.2606 39.7841 13.8969C39.8252 13.8764 39.8486 13.8353 39.8457 13.7913C39.8428 13.7444 39.8105 13.7063 39.7665 13.6945Z" fill="#414042"/>
<path d="M10.2335 13.6945C10.5033 13.6153 10.7644 13.542 11.0196 13.4716C11.5827 13.3132 12.1107 13.1666 12.6239 12.9877C13.3895 12.7296 14.0787 12.4363 14.7299 12.0931C15.4162 11.7294 16.038 11.3276 16.6334 10.8583C17.2846 10.3538 17.8888 9.7613 18.4461 9.19815C18.4783 9.16588 18.5253 9.15708 18.5663 9.17468C18.6074 9.19228 18.6338 9.23334 18.6309 9.28027C18.5898 10.1338 18.2525 11.0166 17.6542 11.832C17.1086 12.5712 16.3753 13.193 15.5394 13.63C14.7504 14.0436 13.8705 14.2987 12.9847 14.3633C12.9495 14.3662 12.9172 14.3691 12.8821 14.3691C11.8877 14.4219 10.9932 14.2606 10.2159 13.8969C10.1748 13.8764 10.1514 13.8353 10.1543 13.7913C10.1602 13.7444 10.1895 13.7063 10.2335 13.6945Z" fill="#414042"/>
<path d="M15.5481 35.7598C15.2871 35.7892 15.1375 35.4665 15.1404 35.226C15.1522 34.1144 15.4484 32.9793 16.0203 31.853C16.563 30.8176 17.3402 29.8556 18.27 29.0695C20.1149 27.5267 22.567 26.638 24.9985 26.6292C27.474 26.5823 29.9465 27.4739 31.7738 29.0549C33.6715 30.6768 34.8272 32.9822 34.8624 35.2202C34.8653 35.4753 34.6952 35.8068 34.4107 35.754C34.176 35.7129 33.9854 35.3932 33.8123 35.2495C33.5454 35.0266 33.2697 34.8183 32.9852 34.6189C32.4191 34.22 31.8266 33.8621 31.2136 33.5366C28.961 32.334 26.4093 31.6858 23.8516 31.9087C22.2238 32.0495 20.6429 32.5393 19.191 33.2843C18.3199 33.7302 17.4927 34.264 16.7155 34.8594C16.4192 35.0852 15.9353 35.6895 15.5716 35.7598C15.5628 35.7569 15.554 35.7569 15.5481 35.7598Z" fill="#5E4939"/>
</g>
<defs>
<clipPath id="clip0_50_385">
<rect width="50" height="50" fill="white"/>
</clipPath>
</defs>
</svg>
