<svg id="Layer_1" data-name="Layer 1" xmlns="http://www.w3.org/2000/svg" viewBox="0 0 104.84 100"><defs><style>.cls-1{fill:#00dbe0;}.cls-2{fill:#6bf9f5;}</style></defs><title>3d_touch</title><path class="cls-1" d="M103.24,37.44a11.36,11.36,0,0,0-4.57-8.67L52.42,1.85,6.16,28.77A11.36,11.36,0,0,0,1.6,37.44V88.26A10.18,10.18,0,0,0,11.77,98.4H93.06a10.18,10.18,0,0,0,10.18-10.15ZM52.42,62.85,10.23,36.41,52.42,12,94.61,36.41Zm0,0"/><polygon class="cls-2" points="52.42 62.85 52.42 97.75 7.4 98.4 3.09 93.53 1.96 34.84 4.42 32.19 10.23 36.41 52.42 62.85"/><path d="M93.06,100H11.77A11.77,11.77,0,0,1,0,88.26V37.44a12.93,12.93,0,0,1,5.16-9.91l.09-.08L52.42,0,99.58,27.45l.09.08a12.93,12.93,0,0,1,5.16,9.91V71.06a1.6,1.6,0,1,1-3.19,0V37.44a9.73,9.73,0,0,0-3.88-7.35L52.42,3.7,7.08,30.09a9.73,9.73,0,0,0-3.88,7.35V88.26a8.57,8.57,0,0,0,8.58,8.55H93.06a8.57,8.57,0,0,0,8.58-8.55V83.79a1.6,1.6,0,1,1,3.19,0v4.46A11.77,11.77,0,0,1,93.06,100Z"/><path class="cls-2" d="M98,66.86a1.06,1.06,0,0,1-1.06-1.06V61.26a1.06,1.06,0,0,1,2.13,0V65.8A1.06,1.06,0,0,1,98,66.86Z"/><path class="cls-2" d="M98,58.13a1.06,1.06,0,0,1-1.06-1.06V41.87a1.06,1.06,0,0,1,2.13,0v15.2A1.06,1.06,0,0,1,98,58.13Z"/></svg>