<svg id="Layer_1" data-name="Layer 1" xmlns="http://www.w3.org/2000/svg" viewBox="0 0 234.167 101.181"><defs><style>.cls-1{fill:#ed7306;}.cls-2{fill:#ffd07d;}</style></defs><title>ajax</title><path class="cls-1" d="M204.275,64.226c1.7-2.389,3.265-4.594,4.828-6.8,2.1-2.973,4.186-5.961,6.324-8.909a1.8,1.8,0,0,1,1.214-.716c4.879-.049,9.76-.03,14.64-.026a3.056,3.056,0,0,1,.466.106c-.815,1.016-1.571,1.966-2.335,2.909q-8.306,10.251-16.631,20.486a1.294,1.294,0,0,0,0,1.991q9.869,12.168,19.66,24.4c.191.237.358.493.656.905-.457.041-.77.094-1.084.094-4.708.005-9.416-.01-14.124.017a1.748,1.748,0,0,1-1.617-.833q-5.346-7.645-10.742-15.254c-.293-.416-.6-.823-.994-1.363-.335.441-.609.775-.854,1.128-3.579,5.169-7.144,10.349-10.753,15.5a1.9,1.9,0,0,1-1.283.775c-5.292.053-10.584.034-15.877.031-.167,0-.335-.04-.69-.086.272-.384.458-.686.681-.956q9.951-12.035,19.923-24.052c.618-.742.756-1.223.081-2.073-6.048-7.613-12.039-15.271-18.046-22.917-.145-.184-.277-.379-.523-.717.413-.04.692-.089.97-.09,4.708,0,9.416.013,14.124-.02a1.682,1.682,0,0,1,1.581.881q4.767,7.226,9.578,14.423C203.67,63.389,203.912,63.713,204.275,64.226Z" transform="translate(0)"/><path class="cls-2" d="M91.682,51.747l-6.549-5.888,19.825-19.6c.316.295.572.518.811.759,5.942,5.965,11.865,11.949,17.841,17.88.8.79.724,1.229-.027,1.948-1.413,1.354-2.759,2.781-4.079,4.227-.518.567-.876.561-1.436.071q-3.026-2.645-6.124-5.206a4.757,4.757,0,0,0-1.254-.531,5.124,5.124,0,0,0-.3,1.212c-.007,12.715.026,25.431.007,38.146A15.352,15.352,0,0,1,99.36,99.446a17.113,17.113,0,0,1-4.463.621c-5.945.069-11.89.035-17.836.027A15.439,15.439,0,0,1,61.436,84.878c-.04-1.408.011-2.818-.016-4.227-.012-.627.149-.946.86-.942q5.67.035,11.341,0c.7,0,.864.308.879.94a28.758,28.758,0,0,0,.25,4.921,8.627,8.627,0,0,0,8.5,6.9c2.268.019,4.536.013,6.8.005,5.256-.018,9.179-3.684,9.22-8.92.1-12.371.063-24.743.06-37.115,0-.354-.21-.971-.4-1a1.546,1.546,0,0,0-1.177.353c-1.764,1.685-3.475,3.426-5.206,5.145C92.285,51.2,92.009,51.442,91.682,51.747Z" transform="translate(0)"/><path class="cls-2" d="M103.855,3.121l4.127,3.509a3.556,3.556,0,0,0,.3.628,15.949,15.949,0,0,1,3.168,10.031c-.015,1.134-.029,2.269,0,3.4.016.622-.23.86-.842.858q-5.722-.017-11.445,0c-.618,0-.855-.251-.843-.864q.032-1.649-.016-3.3a8.709,8.709,0,0,0-8.316-8.5c-2.676-.1-5.363-.107-8.039,0A8.647,8.647,0,0,0,73.689,17c-.122,1.849-.1,3.709-.105,5.564q-.058,15.826-.1,31.653a3.763,3.763,0,0,0,.017.822c.07.31.191.826.356.853a1.5,1.5,0,0,0,1.116-.251c.877-.769,1.675-1.627,2.5-2.453,1.022-1.02,2.024-2.059,3.077-3.046.215-.2.775-.388.909-.273,2.074,1.791,4.1,3.634,6.206,5.52-.3.324-.522.578-.76.813q-9.1,8.984-18.181,17.979c-.656.653-1.033.7-1.712.015q-8.941-9.065-17.955-18.057c-.543-.543-.669-.9-.049-1.494,1.389-1.331,2.7-2.744,4.056-4.108.871-.875,1.119-.877,2.065-.072,1.884,1.6,3.76,3.216,5.645,4.819a3.478,3.478,0,0,0,.832.6c.459.2.819.067.844-.515.015-.343.016-.687.015-1.031q-.029-18.4-.066-36.808c-.022-6.928,2.959-11.985,9.21-15.063a2.765,2.765,0,0,0,.466-.37c.266-.044.531-.09.8-.131a45.787,45.787,0,0,1,5.777-.829c5.458-.114,10.919-.023,16.38-.047a16.989,16.989,0,0,1,8.243,1.881A2.64,2.64,0,0,0,103.855,3.121Z" transform="translate(0)"/><path class="cls-1" d="M1.071,98.392c.849-1.91,1.636-3.7,2.435-5.475q9.866-22,19.719-44.006a1.367,1.367,0,0,1,1.459-.962q6.753.048,13.506,0a1.318,1.318,0,0,1,1.412.89q10.822,24.168,21.679,48.32c.166.371.315.749.536,1.276-.478.042-.835.1-1.191.1-4.021.006-8.042-.016-12.062.021a1.38,1.38,0,0,1-1.53-1.011c-1.163-2.974-2.414-5.914-3.591-8.883a1.329,1.329,0,0,0-1.425-1.007q-10.568.043-21.135,0a1.334,1.334,0,0,0-1.432,1q-1.8,4.549-3.713,9.056a1.433,1.433,0,0,1-.987.787c-4.329.052-8.66.034-12.99.028A4.565,4.565,0,0,1,1.071,98.392ZM31.733,59.505l-.371-.019-7.8,19.845H39.584Z" transform="translate(0)"/><path class="cls-1" d="M111.492,98.418c1.513-3.391,2.964-6.653,4.424-9.911q8.9-19.841,17.782-39.686a1.231,1.231,0,0,1,1.307-.87q6.857.038,13.714,0a1.187,1.187,0,0,1,1.267.788q10.935,24.4,21.9,48.794c.111.248.2.507.359.911-.395.036-.712.09-1.029.09-4.09.006-8.181-.013-12.27.019a1.32,1.32,0,0,1-1.454-.963c-1.169-2.973-2.422-5.912-3.591-8.885a1.384,1.384,0,0,0-1.5-1.054q-10.517.049-21.035,0a1.391,1.391,0,0,0-1.5,1.058c-1.188,3-2.431,5.982-3.639,8.976-.208.516-.44.866-1.1.863-4.331-.024-8.661-.012-12.992-.018A4.585,4.585,0,0,1,111.492,98.418Zm22.52-19.13h16l-7.862-19.814-.353.027Z" transform="translate(0)"/><path d="M86.323,101.181c-1.941,0-3.87,0-5.774-.009l-3.49-.007A16.51,16.51,0,0,1,60.365,84.909c-.022-.778-.017-1.56-.012-2.316,0-.632.008-1.285,0-1.921a2.021,2.021,0,0,1,.5-1.518,1.91,1.91,0,0,1,1.417-.515h.021c3.612.022,7.317.023,11.328,0a1.8,1.8,0,0,1,1.956,1.986c.01.432.01.868.011,1.289a17.813,17.813,0,0,0,.219,3.447A7.545,7.545,0,0,0,83.256,91.4c2.332.02,4.7.012,6.792.005,4.764-.016,8.116-3.247,8.152-7.857.078-10.059.071-20.29.064-30.184q0-3.288,0-6.577c-1.184,1.139-2.374,2.328-3.527,3.48q-.715.715-1.431,1.428c-.189.188-.381.364-.584.551-.1.089-.2.182-.3.282a1.071,1.071,0,0,1-1.448.014l-6.549-5.888A1.071,1.071,0,0,1,84.38,45.1L104.2,25.5a1.072,1.072,0,0,1,1.484-.022l.289.266c.192.176.374.342.551.52q2.269,2.278,4.535,4.558c4.351,4.375,8.85,8.9,13.3,13.318a2.129,2.129,0,0,1-.04,3.482c-1.531,1.468-2.958,3-4.029,4.176a1.886,1.886,0,0,1-2.932.155c-1.931-1.687-3.916-3.377-5.905-5.024q0,8.083.006,16.165c.006,7.1.012,14.449,0,21.674a16.414,16.414,0,0,1-11.811,15.708,18.269,18.269,0,0,1-4.746.662C92.058,101.171,89.179,101.181,86.323,101.181Zm-23.83-20.4c.009.613.005,1.228,0,1.824,0,.738-.01,1.5.012,2.241A14.348,14.348,0,0,0,77.062,99.022l3.492.007c4.7.011,9.556.022,14.33-.034a16.1,16.1,0,0,0,4.181-.579,14.262,14.262,0,0,0,10.258-13.652c.011-7.223,0-14.567,0-21.669q-.007-8.238-.006-16.476a3.637,3.637,0,0,1,.238-1.164c.035-.106.071-.211.1-.317a1.071,1.071,0,0,1,1.441-.722c.1.039.214.077.339.118a3.437,3.437,0,0,1,1.193.58c2.06,1.7,4.119,3.454,6.12,5.2,1.09-1.193,2.535-2.745,4.1-4.241.094-.09.158-.159.2-.209a2.586,2.586,0,0,0-.188-.2c-4.457-4.424-8.959-8.951-13.312-13.328q-2.266-2.279-4.534-4.556l-.03-.03L86.695,45.822,91.67,50.3l.122-.119q.714-.71,1.426-1.423c1.233-1.233,2.508-2.508,3.795-3.737a2.623,2.623,0,0,1,2.1-.634c1.051.182,1.289,1.583,1.289,2.059q0,3.461,0,6.922c.007,9.9.014,20.133-.064,30.2-.045,5.765-4.371,9.963-10.287,9.983-2.1.007-4.472.015-6.817-.005A9.67,9.67,0,0,1,73.7,85.783a19.691,19.691,0,0,1-.26-3.866c0-.374,0-.759-.008-1.133C69.568,80.8,65.986,80.8,62.494,80.782Zm11.232.006Zm-11.556,0Z" transform="translate(0)"/><path d="M48.532,99.631a2.423,2.423,0,0,1-2.5-1.693c-.625-1.6-1.288-3.216-1.929-4.781-.549-1.34-1.117-2.726-1.66-4.1a.842.842,0,0,0-.161-.3h0a.861.861,0,0,0-.265-.03c-6.936.028-14.05.028-21.144,0a1.008,1.008,0,0,0-.274.033.8.8,0,0,0-.158.293c-1.32,3.327-2.538,6.3-3.723,9.081a2.438,2.438,0,0,1-1.96,1.439c-3.719.045-7.5.038-11.149.031l-1.855,0a2.447,2.447,0,0,1-.612-.094c-.08-.02-.175-.043-.295-.068a1.071,1.071,0,0,1-.759-1.484l.815-1.835c.55-1.241,1.083-2.443,1.621-3.643l4.15-9.252c5.108-11.388,10.39-23.163,15.568-34.752a2.424,2.424,0,0,1,2.416-1.6h.028c4.289.031,8.828.031,13.491,0a2.379,2.379,0,0,1,2.4,1.524C46.279,61.13,52.086,74.066,57.7,86.575l4.555,10.147c.115.255.222.514.348.82.061.147.126.306.2.481a1.072,1.072,0,0,1-.893,1.481c-.153.014-.293.029-.424.043a7.93,7.93,0,0,1-.861.063q-1.975,0-3.949,0c-2.657,0-5.405,0-8.105.021Zm-6.5-13.044a2.381,2.381,0,0,1,2.411,1.683c.539,1.361,1.1,2.741,1.651,4.075.644,1.573,1.311,3.2,1.942,4.813.131.334.131.335.522.33,2.711-.025,5.465-.023,8.127-.021q1.782,0,3.564,0l-4.5-10.015c-5.617-12.51-11.424-25.446-17.124-38.174a.664.664,0,0,0-.135-.225h0a.879.879,0,0,0-.292-.032c-4.672.029-9.222.029-13.52,0-.327,0-.326,0-.474.328C19.025,60.939,13.742,72.715,8.633,84.1l-4.15,9.252c-.537,1.2-1.069,2.4-1.618,3.635l-.209.472.961,0c3.6.006,7.328.013,10.99-.03a.679.679,0,0,0,.152-.155c1.169-2.748,2.38-5.7,3.694-9.013a2.373,2.373,0,0,1,2.416-1.678h.016c7.088.027,14.2.027,21.126,0ZM39.584,80.4H23.56a1.071,1.071,0,0,1-1-1.463l7.8-19.845a1.068,1.068,0,0,1,1.051-.678l.373.019a1.071,1.071,0,0,1,.94.675L40.58,78.937a1.071,1.071,0,0,1-1,1.466ZM25.133,78.26H38.008L31.546,61.944Z" transform="translate(0)"/><path d="M158.922,99.629a2.357,2.357,0,0,1-2.426-1.642c-.584-1.485-1.2-2.99-1.8-4.445s-1.209-2.952-1.795-4.44c-.148-.376-.148-.379-.5-.374-7.134.033-14.215.033-21.045,0-.334,0-.346,0-.5.381-.732,1.849-1.5,3.718-2.235,5.526q-.706,1.728-1.407,3.458a2.136,2.136,0,0,1-2.08,1.533h-.017c-2.924-.016-5.9-.016-8.775-.016q-2.1,0-4.212,0a2.578,2.578,0,0,1-.582-.081c-.073-.016-.157-.035-.26-.054a1.071,1.071,0,0,1-.782-1.49l1.443-3.235c1-2.254,1.991-4.466,2.982-6.677l4.122-9.192c4.482-9.992,9.116-20.325,13.659-30.493a2.279,2.279,0,0,1,2.291-1.5c4.135.023,8.489.024,13.7,0h.015a2.241,2.241,0,0,1,2.234,1.421c5.756,12.845,11.619,25.9,17.29,38.525L172.865,97.1c.085.19.156.376.238.592.041.108.087.228.141.366a1.071,1.071,0,0,1-.9,1.459c-.123.011-.237.024-.347.037a6.9,6.9,0,0,1-.778.058q-2,0-3.99,0c-2.712,0-5.517,0-8.273.018Zm-.3-2.175a1.068,1.068,0,0,0,.314.032c2.765-.022,5.575-.02,8.292-.018q1.725,0,3.451,0l-4.383-9.76c-5.67-12.626-11.534-25.681-17.29-38.526a.752.752,0,0,0-.076-.139,1.012,1.012,0,0,0-.208-.016c-5.222.02-9.582.019-13.725,0a.731.731,0,0,0-.2.017.97.97,0,0,0-.122.219c-4.544,10.17-9.178,20.5-13.66,30.5l-4.122,9.191c-.99,2.209-1.976,4.421-2.98,6.673l-.823,1.846h3.26c2.879,0,5.857,0,8.787.016h.011c.02-.037.048-.1.086-.192q.7-1.736,1.411-3.467c.737-1.8,1.5-3.665,2.226-5.5a2.451,2.451,0,0,1,2.481-1.735h.019c6.824.034,13.9.035,21.025,0h.019a2.445,2.445,0,0,1,2.483,1.733c.58,1.474,1.192,2.968,1.784,4.412.6,1.462,1.218,2.974,1.807,4.473a.713.713,0,0,0,.135.251ZM150.01,80.359h-16a1.071,1.071,0,0,1-1-1.463L140.8,59.109a1.071,1.071,0,0,1,.913-.676l.355-.027a1.07,1.07,0,0,1,1.078.673l7.862,19.814a1.071,1.071,0,0,1-1,1.466Zm-14.425-2.143h12.847l-6.452-16.26Z" transform="translate(0)"/><path d="M217.869,99.75a2.807,2.807,0,0,1-2.477-1.291c-2.873-4.108-5.814-8.273-8.658-12.3l-2.082-2.949-.132-.185q-1.311,1.894-2.621,3.789c-2.645,3.826-5.38,7.782-8.1,11.656a2.937,2.937,0,0,1-2.149,1.231c-4.4.044-8.876.039-13.2.033l-2.685,0a3.316,3.316,0,0,1-.526-.052c-.082-.013-.179-.027-.3-.043a1.071,1.071,0,0,1-.738-1.682c.088-.124.166-.239.24-.347.16-.234.31-.455.49-.673l2.777-3.358c5.613-6.789,11.417-13.81,17.148-20.7a1.8,1.8,0,0,0,.276-.394,1.336,1.336,0,0,0-.21-.327c-4.74-5.966-9.523-12.06-14.148-17.952l-3.9-4.969c-.1-.13-.2-.265-.327-.444-.063-.088-.134-.188-.22-.305a1.071,1.071,0,0,1,.764-1.7c.134-.013.253-.027.362-.04a6.037,6.037,0,0,1,.709-.055q2.161,0,4.32,0c3.212,0,6.534,0,9.8-.02h.028a2.743,2.743,0,0,1,2.454,1.362c2.625,3.979,5.311,8.014,7.909,11.916l1.607,2.415.7-.989c1.11-1.563,2.18-3.069,3.247-4.577q.861-1.217,1.718-2.435c1.5-2.131,3.054-4.335,4.613-6.484a2.866,2.866,0,0,1,2.071-1.159c4.047-.04,8.159-.035,12.136-.029l2.516,0a1.82,1.82,0,0,1,.5.08c.054.014.121.033.211.054a1.071,1.071,0,0,1,.592,1.714l-.76.948c-.537.671-1.056,1.319-1.579,1.964l-3.481,4.3A1.071,1.071,0,0,1,225.1,54.41l3.481-4.3c.341-.42.679-.842,1.023-1.27h-.839c-3.962-.005-8.059-.011-12.086.029a.949.949,0,0,0-.383.274c-1.55,2.137-3.1,4.335-4.6,6.46q-.86,1.22-1.721,2.439c-1.068,1.509-2.138,3.015-3.249,4.58l-1.58,2.224a1.071,1.071,0,0,1-.874.451h0a1.071,1.071,0,0,1-.874-.452c-.124-.176-.234-.329-.334-.468-.191-.266-.356-.5-.512-.731l-1.666-2.5c-2.6-3.9-5.287-7.941-7.914-11.924-.234-.355-.35-.4-.679-.4-3.273.023-6.6.022-9.815.02h-3.2l3.176,4.045c4.623,5.89,9.4,11.981,14.14,17.942a2.379,2.379,0,0,1-.1,3.424c-5.729,6.885-11.532,13.9-17.144,20.691l-2.189,2.648h1.282c4.314,0,8.773.01,13.157-.033a1.048,1.048,0,0,0,.439-.319c2.712-3.869,5.445-7.822,8.088-11.645q1.331-1.924,2.662-3.848c.18-.259.37-.5.571-.764.1-.126.2-.258.31-.4a1.071,1.071,0,0,1,.853-.423h.01a1.072,1.072,0,0,1,.855.44l.368.5c.232.316.437.594.635.875l2.082,2.949c2.845,4.03,5.787,8.2,8.663,12.309a.7.7,0,0,0,.733.376c3.184-.018,6.421-.017,9.55-.017h3.577l-3.03-3.769c-5.245-6.525-10.668-13.273-16.031-19.884a2.333,2.333,0,0,1,0-3.344c3.44-4.208,6.907-8.482,9.845-12.107a1.071,1.071,0,0,1,1.665,1.349c-2.939,3.628-6.408,7.9-9.851,12.115a1.625,1.625,0,0,0-.217.316,1.623,1.623,0,0,0,.219.322c5.365,6.615,10.79,13.364,16.037,19.891l3.626,4.511c.145.18.273.363.423.575.077.11.164.233.266.375a1.071,1.071,0,0,1-.773,1.694c-.148.013-.281.028-.4.042a7.075,7.075,0,0,1-.775.057q-2.291,0-4.583,0c-3.128,0-6.359,0-9.537.017ZM191.6,97.56Zm25.087-48.694Z" transform="translate(0)"/><path d="M67.862,75.761h-.008a2.3,2.3,0,0,1-1.6-.815c-6.514-6.6-13.015-13.116-17.95-18.052a2.17,2.17,0,0,1-.777-1.555,2.142,2.142,0,0,1,.744-1.471c.858-.822,1.706-1.7,2.526-2.544.5-.518,1-1.035,1.512-1.546,1.259-1.266,2.148-1.3,3.519-.133q1.355,1.153,2.706,2.31Q59.964,53.179,61.4,54.4v-.069q-.008-5.1-.014-10.2l-.005-4.081a1.071,1.071,0,0,1,1.07-1.073h0a1.071,1.071,0,0,1,1.071,1.07l.005,4.081q.007,5.1.014,10.2c0,.36,0,.714-.016,1.079a1.643,1.643,0,0,1-.733,1.395,1.672,1.672,0,0,1-1.6.06,3.952,3.952,0,0,1-1.022-.694l-.085-.073q-1.473-1.253-2.943-2.512-1.35-1.154-2.7-2.307c-.147-.125-.251-.207-.324-.261-.066.058-.158.144-.287.273-.5.5-1,1.015-1.492,1.526-.818.844-1.662,1.715-2.531,2.55l.013.013c4.938,4.938,11.442,11.454,17.961,18.062.032.032.06.059.085.083.031-.028.067-.062.109-.1,4.5-4.478,9.095-9.011,13.538-13.4l4.63-4.57-.357-.321c-1.579-1.42-3.077-2.767-4.613-4.1-.712.672-1.417,1.383-2.1,2.071q-.418.421-.837.841c-.22.22-.438.441-.656.663-.6.614-1.226,1.248-1.9,1.836a2.556,2.556,0,0,1-2,.5C72.8,56.8,72.6,55.88,72.458,55.271a3.153,3.153,0,0,1-.049-.866c0-.065.006-.13.006-.194l.021-7.194q.035-12.23.076-24.46,0-.479,0-.959c0-1.528,0-3.107.106-4.671a9.711,9.711,0,0,1,9.288-9.108c2.658-.108,5.392-.108,8.124,0a9.809,9.809,0,0,1,9.345,9.539c.03,1.046.037,2.1.021,3.122,3.58-.011,7.271-.011,10.978,0-.023-1.084-.009-2.16.005-3.2A14.788,14.788,0,0,0,107.425,7.9a2.7,2.7,0,0,1-.33-.617l-3.727-3.169a2.168,2.168,0,0,1-.6-.2,15.971,15.971,0,0,0-7.734-1.755c-1.957.008-3.945,0-5.867,0-3.443-.011-7-.022-10.495.051a23.879,23.879,0,0,0-3.8.5c-.6.111-1.219.225-1.838.318-.159.024-.319.051-.478.077a2.16,2.16,0,0,1-.472.325c-5.816,2.864-8.633,7.476-8.611,14.1l.006,2.11A1.071,1.071,0,0,1,62.412,20.7h0a1.071,1.071,0,0,1-1.071-1.068l-.006-2.11c-.024-7.41,3.268-12.8,9.784-16.017.023-.019.066-.057.1-.086.063-.057.126-.114.191-.166a1.07,1.07,0,0,1,.5-.224L72.15.992c.189-.032.378-.063.567-.092C73.3.812,73.9.7,74.485.593A25.836,25.836,0,0,1,78.632.059C82.151-.014,85.723,0,89.178.008c1.919.006,3.9.013,5.851,0A18.071,18.071,0,0,1,103.752,2c.029.007.081.017.121.025.085.017.17.034.253.056a1.072,1.072,0,0,1,.424.22l4.127,3.509a1.073,1.073,0,0,1,.276.361c.039.084.075.17.11.257a1.887,1.887,0,0,0,.085.192,17.074,17.074,0,0,1,3.376,10.68c-.014,1.1-.03,2.237,0,3.36a1.9,1.9,0,0,1-.487,1.437,1.936,1.936,0,0,1-1.429.521c-3.865-.011-7.713-.011-11.438,0a1.936,1.936,0,0,1-1.422-.518,1.912,1.912,0,0,1-.5-1.438c.021-1.064.015-2.157-.016-3.247a7.66,7.66,0,0,0-7.287-7.46c-2.675-.1-5.352-.1-7.954,0a7.572,7.572,0,0,0-7.237,7.107c-.1,1.495-.1,3.039-.1,4.532q0,.483,0,.965-.044,12.229-.076,24.458l-.021,7.194c0,.094,0,.19-.009.285l0,.082c.508-.465.994-.96,1.5-1.479.223-.227.446-.454.671-.678q.416-.415.829-.833c.734-.74,1.492-1.505,2.273-2.236.435-.408,1.608-.936,2.341-.3,1.7,1.464,3.326,2.931,5.052,4.483l1.169,1.05a1.071,1.071,0,0,1,.068,1.528c-.1.105-.187.2-.272.3-.176.192-.341.374-.52.55l-4.647,4.587c-4.441,4.382-9.034,8.914-13.532,13.389A2.354,2.354,0,0,1,67.862,75.761ZM99.4,20.806Zm-.327-.332Zm11.642,0Z" transform="translate(0)"/><path d="M62.438,33.7a1.071,1.071,0,0,1-1.071-1.069l-.01-5.568a1.071,1.071,0,0,1,1.069-1.073h0A1.071,1.071,0,0,1,63.5,27.055l.01,5.568A1.071,1.071,0,0,1,62.44,33.7Z" transform="translate(0)"/><path class="cls-1" d="M106.878,64.93a.75.75,0,0,1-.75-.75V49.331a.75.75,0,1,1,1.5,0V64.18A.75.75,0,0,1,106.878,64.93Z" transform="translate(0)"/><path class="cls-1" d="M106.878,72.354a.75.75,0,0,1-.75-.75V67.892a.75.75,0,1,1,1.5,0V71.6A.75.75,0,0,1,106.878,72.354Z" transform="translate(0)"/></svg>