<svg id="Layer_1" data-name="Layer 1" xmlns="http://www.w3.org/2000/svg" viewBox="0 0 109.17 100.36"><defs><style>.cls-1{fill:#fff;}.cls-2{fill:#f47003;}</style></defs><title>amazon_store_development</title><path class="cls-1" d="M85.52,55.75a32.07,32.07,0,0,1-4.16-10V21.19A20.51,20.51,0,0,0,60.48,1q-.71,0-1.42.07c-14.39,0-23.12,6.37-26.68,19.48A2.23,2.23,0,0,0,34,23.35l.11,0a132.6,132.6,0,0,0,13.7,2.27A2.23,2.23,0,0,0,50,24.11c1.31-4,2.31-5.15,6.8-5.15,5.21,0,6.47,2.68,6.66,9-24.63,1.36-35.65,8.25-35.65,22.2,0,10,10.79,17.84,20.07,17.84a23.87,23.87,0,0,0,17.62-5.67,29.88,29.88,0,0,0,8.24,5.49,2.26,2.26,0,0,0,.89.18,2.23,2.23,0,0,0,1.58-.65l8.92-8.92A2.23,2.23,0,0,0,85.52,55.75Zm-22.66-.62a12,12,0,0,1-8.26,4c-2,0-8.68-.8-8.92-11.1A7.71,7.71,0,0,1,48,42.38,27,27,0,0,1,65.75,36.8,2.23,2.23,0,0,1,68,38.93a21.06,21.06,0,0,1-5.12,16.19Z" transform="translate(0)"/><path class="cls-2" d="M106.46,72.56c-.63-.16-15.44-4-22.21,2.81a2.23,2.23,0,0,0,3.15,3.15c3.57-3.57,11.72-2.89,16.17-2-.38,4.94-1.88,12.74-5.16,14a2.23,2.23,0,1,0,1.53,4.19l.06,0c7.5-2.87,8.09-18.14,8.13-19.89A2.23,2.23,0,0,0,106.46,72.56Z" transform="translate(0)"/><path class="cls-2" d="M99.2,83.63a4.46,4.46,0,0,0-4.46-4.46,4.33,4.33,0,0,0-2.53.83c-30,11.94-56.34,9.77-87.84-7.25a2.23,2.23,0,0,0-2.62,3.57c15.64,15.41,33,23.12,51.82,23.12A91.14,91.14,0,0,0,95.38,88.06,4.46,4.46,0,0,0,99.2,83.63Z" transform="translate(0)"/><path d="M99.17,95.71A3.28,3.28,0,0,1,98,89.36c2.21-.85,3.84-6.6,4.39-12.15-5.3-.88-11.58-.8-14.3,1.92a3.28,3.28,0,0,1-4.64-4.62c7-7,21.58-3.52,23.22-3.1h0a3.27,3.27,0,0,1,2.44,3.22,48.73,48.73,0,0,1-1.3,9.76c-1.49,6-4,9.75-7.5,11.09l-.07,0A3.29,3.29,0,0,1,99.17,95.71ZM96.68,74.63a39.52,39.52,0,0,1,7.08.69l.92.17-.07.93c-.17,2.18-1.24,13.13-5.83,14.89a1.19,1.19,0,0,0-.68.62,1.18,1.18,0,0,0,1.48,1.61h0c5.6-2.14,7.32-12.91,7.46-18.94a1.18,1.18,0,0,0-.88-1.16h0C100.67,72,90,71,85,76a1.18,1.18,0,0,0,1.69,1.66C89,75.27,93.05,74.63,96.68,74.63Z" transform="translate(0)"/><path d="M53.58,100.36h0C34.48,100.36,16.8,92.48,1,76.94a3.28,3.28,0,0,1,3.86-5.23c31.16,16.83,57.14,19,86.82,7.23a5.35,5.35,0,0,1,3-.94,5.52,5.52,0,0,1,1,10.94A92.57,92.57,0,0,1,53.6,100.36Zm-50.31-27a1.18,1.18,0,0,0-.81,2l0,0C17.85,90.58,35,98.26,53.56,98.27A90.47,90.47,0,0,0,94.87,87l.17-.09.19,0a3.43,3.43,0,0,0,2.93-3.39h0a3.42,3.42,0,0,0-3.41-3.41,3.27,3.27,0,0,0-1.92.63l-.11.08-.12,0c-30.37,12.07-56.9,9.89-88.72-7.3A1.22,1.22,0,0,0,3.28,73.38Z" transform="translate(0)"/><path d="M50,69.15q-1,0-2.09-.09a23.07,23.07,0,0,1-14.14-5.39C29.26,60,26.8,55.17,26.8,50.18c0-7.43,3-12.9,9.08-16.71,5.78-3.6,14.46-5.72,26.53-6.47-.29-5.46-1.59-7-5.58-7s-4.62.78-5.8,4.42a3.27,3.27,0,0,1-3.33,2.26h0a134.19,134.19,0,0,1-13.81-2.29l-.16,0a3.28,3.28,0,0,1-2.3-4C33.21,13.57,36.46,8.45,41,5.1s10.6-5,18-5C59.5,0,60,0,60.46,0h.39A21.58,21.58,0,0,1,82.41,21.17v6.77a1,1,0,1,1-2.09,0V21.19A19.49,19.49,0,0,0,60.5,2.09c-.45,0-.9,0-1.35.07h-.09c-13.85,0-22.25,6.12-25.67,18.71a1.19,1.19,0,0,0,.83,1.45h.06a132.05,132.05,0,0,0,13.57,2.25A1.18,1.18,0,0,0,49,23.79c1.43-4.4,2.75-5.87,7.79-5.87,6.19,0,7.52,3.68,7.71,10l0,1-1,.06c-24,1.32-34.66,7.85-34.66,21.15,0,9.46,10.23,16.79,19,16.79H48a23,23,0,0,0,16.85-5.42l.71-.61.68.64a28.77,28.77,0,0,0,8,5.29,1.19,1.19,0,0,0,.46.09h0a1.19,1.19,0,0,0,.84-.35l8.92-8.92a1.19,1.19,0,0,0,.19-1.42A33,33,0,0,1,80.34,46l0-.11V39.23a1,1,0,1,1,2.09,0V45.6a30.93,30.93,0,0,0,4,9.59l0,0a3.28,3.28,0,0,1-.51,4L77,68.11a3.25,3.25,0,0,1-2.31,1h0a3.28,3.28,0,0,1-1.3-.27,30.87,30.87,0,0,1-7.86-5.06A25.1,25.1,0,0,1,50,69.15Zm4.68-9h0a9.59,9.59,0,0,1-5.77-1.9c-2.67-2-4.09-5.48-4.2-10.21a8.8,8.8,0,0,1,2.67-6.4l.09-.08a28.12,28.12,0,0,1,18.38-5.79A3.27,3.27,0,0,1,69,38.85a22.16,22.16,0,0,1-5.38,17h0a12.94,12.94,0,0,1-9,4.32Zm-5.91-17a6.69,6.69,0,0,0-2,4.83c.21,9,5.53,10.05,7.85,10.06a10.87,10.87,0,0,0,7.5-3.62A20.06,20.06,0,0,0,66.94,39V39a1.18,1.18,0,0,0-1.18-1.13h-.05A26,26,0,0,0,48.72,43.17Zm14.13,12h0Zm18.5-18.61a1,1,0,0,1-1-1V31.71a1,1,0,1,1,2.09,0v3.76A1,1,0,0,1,81.36,36.51Z" transform="translate(0)"/></svg>