<svg id="Layer_1" data-name="Layer 1" xmlns="http://www.w3.org/2000/svg" viewBox="0 0 59.92 99.88"><defs><style>.cls-1{fill:#aaf1f9;}.cls-2{fill:#fff;}.cls-3{fill:#8dd600;}.cls-4{fill:none;stroke:#000;stroke-linecap:round;stroke-linejoin:bevel;stroke-width:10px;}.cls-5{fill:#caff48;}</style></defs><title>android_ecommerce_apps</title><rect class="cls-1" x="1.07" y="1.07" width="57.77" height="97.74" rx="12" ry="12"/><path d="M58.85,87v9.23a2.58,2.58,0,0,1-2.57,2.57H3.64a2.58,2.58,0,0,1-2.57-2.57V87"/><path class="cls-2" d="M35,94H24.92a1.07,1.07,0,0,1,0-2.14H35A1.07,1.07,0,0,1,35,94Z"/><path class="cls-3" d="M22.31,53.94a1.21,1.21,0,0,0,1.28,1.28h1.28v4.46a1.91,1.91,0,1,0,3.82,0V55.21h2.55v4.46a1.91,1.91,0,1,0,3.82,0V55.21h1.28a1.21,1.21,0,0,0,1.28-1.28V41.19H22.31ZM19.12,41.19a2,2,0,0,0-1.91,1.91V52A1.91,1.91,0,0,0,21,52V43.1a2,2,0,0,0-1.91-1.91Zm21.68,0a2,2,0,0,0-1.91,1.91V52a1.91,1.91,0,0,0,3.82,0V43.1a2,2,0,0,0-1.91-1.91Zm-6.38-7.4,1.66-1.66a.63.63,0,0,0-.89-.89l-1.92,1.91A5.61,5.61,0,0,0,30,32.26a7.57,7.57,0,0,0-3.44.77l-1.79-1.92a1.43,1.43,0,0,0-1,0,1.44,1.44,0,0,0,0,1l1.66,1.66a7.8,7.8,0,0,0-3.06,6.12h15.3a7.38,7.38,0,0,0-3.19-6.12Zm-7,3.57H26.14V36.09h1.27Zm6.38,0H32.51V36.09h1.27Zm0,0"/><path d="M19.12,54.16a2.32,2.32,0,0,1-2.26-2.26V43a2.26,2.26,0,0,1,4.52,0V51.9A2.32,2.32,0,0,1,19.12,54.16Zm0-12.75A1.6,1.6,0,0,0,17.56,43V51.9a1.56,1.56,0,0,0,3.12,0V43A1.6,1.6,0,0,0,19.12,41.41Z"/><path d="M40.8,54.16a2.32,2.32,0,0,1-2.26-2.26V43a2.26,2.26,0,1,1,4.52,0V51.9A2.32,2.32,0,0,1,40.8,54.16Zm0-12.75A1.6,1.6,0,0,0,39.24,43V51.9a1.56,1.56,0,0,0,3.12,0V43A1.6,1.6,0,0,0,40.8,41.41Z"/><path d="M37.61,40.13H22.31L22,39.78a8.11,8.11,0,0,1,2.89-6.14l-1.39-1.38-.07-.09a1.77,1.77,0,0,1,0-1.33l.16-.16a1.75,1.75,0,0,1,1.33,0l.1.07,1.61,1.73A8,8,0,0,1,30,31.79a6.17,6.17,0,0,1,3.27.79l1.72-1.71a1,1,0,1,1,1.38,1.38L35,33.62a7.79,7.79,0,0,1,3,6.16Zm-14.95-.7H37.25a7,7,0,0,0-3-5.48l-.05-.54,1.66-1.66a.26.26,0,0,0,0-.4.27.27,0,0,0-.4,0l-1.92,1.91-.45,0A5.27,5.27,0,0,0,30,32.49a7.26,7.26,0,0,0-3.29.73l-.41-.07-1.73-1.86a1.28,1.28,0,0,0-.54,0,1.29,1.29,0,0,0,0,.55l1.61,1.61,0,.52A7.48,7.48,0,0,0,22.66,39.43Z"/><rect x="26.14" y="36.1" width="1.27" height="1.28"/><rect x="32.51" y="36.1" width="1.27" height="1.28"/><path class="cls-4" d="M33.78,37.24"/><path d="M33.15,61.81a2.32,2.32,0,0,1-2.26-2.26V55.43H29v4.11a2.26,2.26,0,1,1-4.52,0V55.43h-.93A1.55,1.55,0,0,1,22,53.81V41.06a.35.35,0,0,1,.35-.35h15.3a.35.35,0,0,1,.35.35v7.82a.35.35,0,0,1-.7,0V41.41H22.66v12.4a.86.86,0,0,0,.93.93h1.28a.35.35,0,0,1,.35.35v4.46a1.56,1.56,0,1,0,3.12,0V55.09a.35.35,0,0,1,.35-.35h2.55a.35.35,0,0,1,.35.35v4.46a1.56,1.56,0,1,0,3.12,0V55.09a.35.35,0,0,1,.35-.35h1.28a.86.86,0,0,0,.93-.93v-2a.35.35,0,0,1,.7,0v2a1.55,1.55,0,0,1-1.63,1.63h-.93v4.11A2.32,2.32,0,0,1,33.15,61.81Z"/><path d="M37.61,51a.35.35,0,0,1-.35-.35v-.8a.35.35,0,0,1,.7,0v.8A.35.35,0,0,1,37.61,51Z"/><path class="cls-5" d="M36.25,47.44a.32.32,0,0,1-.27-.35V42.4a.28.28,0,1,1,.53,0v4.69A.32.32,0,0,1,36.25,47.44Z"/><path class="cls-5" d="M36.25,49.82a.32.32,0,0,1-.27-.35v-1a.28.28,0,1,1,.53,0v1A.32.32,0,0,1,36.25,49.82Z"/><path d="M56.27,99.88H3.64A3.65,3.65,0,0,1,0,96.24V3.64A3.65,3.65,0,0,1,3.64,0H56.27a3.65,3.65,0,0,1,3.64,3.64V66.8a1.07,1.07,0,0,1-2.14,0V3.64a1.5,1.5,0,0,0-1.5-1.5H3.64a1.5,1.5,0,0,0-1.5,1.5V96.24a1.5,1.5,0,0,0,1.5,1.5H56.27a1.5,1.5,0,0,0,1.5-1.5V73.44a1.07,1.07,0,0,1,2.14,0V96.24A3.65,3.65,0,0,1,56.27,99.88Z"/></svg>