<svg id="Layer_1" data-name="Layer 1" xmlns="http://www.w3.org/2000/svg" viewBox="0 0 59.99 100"><defs><style>.cls-1{fill:#aaf1f9;}.cls-2{fill:#fff;}.cls-3{fill:#8dd600;}.cls-4{fill:none;stroke:#000;stroke-linecap:round;stroke-linejoin:bevel;stroke-width:10px;}.cls-5{fill:#caff48;}</style></defs><title>android_tablet_apps</title><rect class="cls-1" x="1.07" y="1.07" width="57.84" height="97.85" rx="4.09" ry="4.09"/><path d="M58.92,87.11v9.24a2.58,2.58,0,0,1-2.57,2.57H3.65a2.58,2.58,0,0,1-2.57-2.57V87.11"/><path class="cls-2" d="M35,94.09H25a1.07,1.07,0,0,1,0-2.15H35a1.07,1.07,0,0,1,0,2.15Z"/><path class="cls-3" d="M22.33,54a1.21,1.21,0,0,0,1.28,1.28h1.28v4.47a1.91,1.91,0,1,0,3.83,0V55.28h2.56v4.47a1.91,1.91,0,1,0,3.83,0V55.28h1.28A1.21,1.21,0,0,0,37.65,54V41.24H22.33ZM19.14,41.24a2,2,0,0,0-1.91,1.91v8.94a1.91,1.91,0,0,0,3.83,0V43.15a2,2,0,0,0-1.91-1.91Zm21.7,0a2,2,0,0,0-1.91,1.91v8.94a1.91,1.91,0,0,0,3.83,0V43.15a2,2,0,0,0-1.91-1.91Zm-6.38-7.41,1.66-1.66a.63.63,0,0,0-.89-.89L33.31,33.2A5.62,5.62,0,0,0,30,32.3a7.58,7.58,0,0,0-3.45.77l-1.79-1.92a1.43,1.43,0,0,0-1,0,1.44,1.44,0,0,0,0,1l1.66,1.66A7.81,7.81,0,0,0,22.33,40H37.65a7.39,7.39,0,0,0-3.19-6.13Zm-7,3.58H26.17V36.13h1.27Zm6.38,0H32.55V36.13h1.27Zm0,0"/><path d="M19.14,54.22A2.32,2.32,0,0,1,16.88,52V43a2.26,2.26,0,0,1,4.52,0V52A2.32,2.32,0,0,1,19.14,54.22Zm0-12.77A1.61,1.61,0,0,0,17.58,43V52a1.56,1.56,0,0,0,3.13,0V43A1.61,1.61,0,0,0,19.14,41.46Z"/><path d="M40.85,54.22A2.32,2.32,0,0,1,38.58,52V43a2.26,2.26,0,1,1,4.52,0V52A2.32,2.32,0,0,1,40.85,54.22Zm0-12.77A1.61,1.61,0,0,0,39.28,43V52a1.56,1.56,0,0,0,3.13,0V43A1.61,1.61,0,0,0,40.85,41.46Z"/><path d="M37.65,40.18H22.33L22,39.83a8.12,8.12,0,0,1,2.9-6.15l-1.39-1.39-.07-.09a1.77,1.77,0,0,1,0-1.33l.16-.16a1.75,1.75,0,0,1,1.33,0l.1.08,1.61,1.73A8.05,8.05,0,0,1,30,31.83a6.18,6.18,0,0,1,3.27.79L35,30.91a1,1,0,1,1,1.39,1.38L35,33.66a7.8,7.8,0,0,1,3,6.17Zm-15-.7H37.3a7,7,0,0,0-3-5.49l-.05-.54,1.66-1.66a.27.27,0,0,0,0-.4.27.27,0,0,0-.4,0l-1.92,1.91-.45,0A5.28,5.28,0,0,0,30,32.52a7.27,7.27,0,0,0-3.29.73l-.41-.07-1.74-1.86a1.28,1.28,0,0,0-.54,0,1.29,1.29,0,0,0,0,.55l1.61,1.61,0,.52A7.49,7.49,0,0,0,22.69,39.48Z"/><rect x="26.17" y="36.14" width="1.27" height="1.28"/><rect x="32.55" y="36.14" width="1.27" height="1.28"/><path class="cls-4" d="M33.82,37.28"/><path d="M33.19,61.88a2.32,2.32,0,0,1-2.26-2.26V55.5H29.06v4.12a2.26,2.26,0,1,1-4.52,0V55.5h-.93A1.56,1.56,0,0,1,22,53.87V41.11a.35.35,0,0,1,.35-.35H37.65a.35.35,0,0,1,.35.35v7.83a.35.35,0,1,1-.7,0V41.46H22.68V53.87a.86.86,0,0,0,.93.93h1.28a.35.35,0,0,1,.35.35v4.47a1.56,1.56,0,1,0,3.13,0V55.15a.35.35,0,0,1,.35-.35h2.56a.35.35,0,0,1,.35.35v4.47a1.56,1.56,0,1,0,3.13,0V55.15a.35.35,0,0,1,.35-.35h1.28a.86.86,0,0,0,.93-.93v-2a.35.35,0,0,1,.7,0v2a1.56,1.56,0,0,1-1.63,1.63h-.93v4.12A2.32,2.32,0,0,1,33.19,61.88Z"/><path d="M37.65,51.06a.35.35,0,0,1-.35-.35v-.8a.35.35,0,0,1,.7,0v.8A.35.35,0,0,1,37.65,51.06Z"/><path class="cls-5" d="M36.29,47.5a.32.32,0,0,1-.27-.35v-4.7a.28.28,0,1,1,.53,0v4.7A.32.32,0,0,1,36.29,47.5Z"/><path class="cls-5" d="M36.29,49.88a.32.32,0,0,1-.27-.35v-1a.28.28,0,1,1,.53,0v1A.32.32,0,0,1,36.29,49.88Z"/><path d="M56.34,100H3.65A3.65,3.65,0,0,1,0,96.35V3.65A3.65,3.65,0,0,1,3.65,0H56.34A3.65,3.65,0,0,1,60,3.65V66.88a1.07,1.07,0,0,1-2.15,0V3.65a1.5,1.5,0,0,0-1.5-1.5H3.65a1.5,1.5,0,0,0-1.5,1.5v92.7a1.5,1.5,0,0,0,1.5,1.5H56.34a1.5,1.5,0,0,0,1.5-1.5V73.53a1.07,1.07,0,1,1,2.15,0V96.35A3.65,3.65,0,0,1,56.34,100Z"/></svg>