<svg id="Layer_1" data-name="Layer 1" xmlns="http://www.w3.org/2000/svg" viewBox="0 0 87 100.49"><defs><style>.cls-1{fill:#ff621d;}.cls-2{fill:#ffaf5f;}</style></defs><title>android_studio</title><path class="cls-1" d="M73.56,31h10C83.37,33,83.31,35,83,37A39.35,39.35,0,0,1,70.32,60.54c-.6.55-.55.91-.18,1.55q7.34,12.64,14.6,25.33a5.32,5.32,0,0,1,.64,2.19c.23,3.19.38,6.38.57,9.75-.44-.24-.74-.39-1-.57-2.29-1.49-4.55-3-6.87-4.46a6.71,6.71,0,0,1-2.35-2.51Q68.87,79.84,62,67.89c-.21-.36-.45-.71-.68-1.09-11.85,5.43-23.64,5.44-35.56,0-.22.35-.46.73-.69,1.12Q18,80.14,10.94,92.34A5.28,5.28,0,0,1,9.37,94C6.7,95.8,4,97.53,1.05,99.44c.14-2.52.4-4.8.35-7.07a14.58,14.58,0,0,1,2.46-7.85c8.78-15,17.46-30.16,26.18-45.25.21-.37.41-.74.6-1.08-.06-.13-.08-.22-.13-.26-1.93-1.29-2.08-3.18-2-5.31.13-4.6,0-9.21,0-13.81a7.51,7.51,0,0,1,7.86-7.9h2.1V1.05h10v9.85h2.29a7.5,7.5,0,0,1,7.75,7.77c0,5.15,0,10.3,0,15.45a3.25,3.25,0,0,1-1.28,3l-1.07.75,8.2,14.21C68.61,49.71,72.64,40.45,73.56,31ZM56.3,58.07,49,45.42a7.94,7.94,0,0,1-11,0L30.7,58.06A30.51,30.51,0,0,0,56.3,58.07ZM48.47,25.95a5,5,0,1,0-5,5A5,5,0,0,0,48.47,25.95Z"/><path class="cls-2" d="M65,51.62c4.23-2.4,8.26-11.66,9.18-21.13h10c-.18,2.05-.25,4.07-.56,6A39.35,39.35,0,0,1,71,60c-.6.55-.55.91-.18,1.55"/><path class="cls-2" d="M55.82,22.6a.74.74,0,0,1-.74-.74c0-5.16-3.34-6.89-3.38-6.91a.74.74,0,1,1,.66-1.32c.17.09,4.19,2.17,4.19,8.23A.74.74,0,0,1,55.82,22.6Z"/><path class="cls-2" d="M38.79,10.51V3.12a2.05,2.05,0,0,1,2-2.07h5.39a2.05,2.05,0,0,1,2,2.07v7.39"/><path d="M1.05,100.49a1.05,1.05,0,0,1-1-1.11c0-.8.1-1.58.15-2.33.12-1.62.23-3.15.19-4.66A15.61,15.61,0,0,1,3,84C9.59,72.62,16.28,61,22.75,49.8l6.38-11.06.21-.38c-1.86-1.6-2-3.8-1.91-5.77.08-3.1.07-6.25.05-9.31,0-1.47,0-3,0-4.48,0-5.29,3.59-8.88,8.89-8.95h1.06V1.05A1.05,1.05,0,0,1,38.47,0h10A1.05,1.05,0,0,1,49.5,1.05v8.8h1.25a8.59,8.59,0,0,1,8.79,8.81q0,2.59,0,5.18c0,3.36,0,6.84,0,10.26A4.31,4.31,0,0,1,57.85,38l-.28.2L64.72,50.6c3.6-3,7-11.39,7.79-19.72a1.05,1.05,0,0,1,1-1h10a1.05,1.05,0,0,1,1,1.15c-.06.64-.1,1.29-.15,1.93-.1,1.38-.2,2.8-.42,4.19A40.51,40.51,0,0,1,71,61.31l-.07.07.1.18c5.39,9.29,10.17,17.57,14.61,25.33a6.34,6.34,0,0,1,.78,2.63c.17,2.34.29,4.64.43,7.08q.07,1.32.15,2.68a1.05,1.05,0,0,1-1.56,1l-.39-.21c-.25-.13-.47-.25-.68-.39l-2.19-1.43c-1.52-1-3.09-2-4.66-3a7.74,7.74,0,0,1-2.71-2.88L70.5,84.83a1.05,1.05,0,1,1,1.82-1l4.31,7.52a5.65,5.65,0,0,0,2,2.13c1.59,1,3.18,2,4.71,3l1.46,1,0-.71c-.13-2.43-.25-4.72-.42-7a4.27,4.27,0,0,0-.5-1.74c-4.44-7.76-9.21-16-14.6-25.32a2,2,0,0,1,.38-2.86A38.46,38.46,0,0,0,82,36.86c.21-1.3.3-2.62.4-4l.06-.82H74.5c-1.12,9.57-5.17,18.49-9.6,21a1.05,1.05,0,0,1-1.43-.39l-8.2-14.21A1.05,1.05,0,0,1,55.57,37l.34-.24.72-.51c.63-.45.85-1,.83-2.16,0-3.43,0-6.92,0-10.29q0-2.59,0-5.18A6.48,6.48,0,0,0,50.73,12H48.45a1.05,1.05,0,0,1-1.05-1.05V2.1H39.52v8.8A1.05,1.05,0,0,1,38.47,12H36.38c-4.13,0-6.81,2.74-6.82,6.85,0,1.49,0,3,0,4.46,0,3.07,0,6.25-.05,9.38-.06,2.19.16,3.47,1.56,4.41a1.26,1.26,0,0,1,.47.62l0,0a1.05,1.05,0,0,1,0,1l-.18.32c-.14.25-.28.52-.43.78L24.57,50.85C18.1,62.07,11.41,73.67,4.77,85a13.73,13.73,0,0,0-2.32,7.3c0,1.61-.08,3.18-.2,4.85l0,.21L2.82,97c2.07-1.34,4-2.61,6-3.92A4.2,4.2,0,0,0,10,91.81c3.6-6.2,7.24-12.53,10.76-18.64l3.32-5.77c.17-.29.34-.56.5-.82l.21-.33a1.05,1.05,0,0,1,1.33-.4c11.69,5.34,23,5.35,34.69,0a1.05,1.05,0,0,1,1.33.4l.22.34c.16.25.33.51.48.78l2.56,4.43,3.63,6.3a1.05,1.05,0,0,1-1.82,1l-3.63-6.3L61,68.42l-.17-.28a43.24,43.24,0,0,1-17.35,3.8h0a43.44,43.44,0,0,1-17.4-3.8l-.19.31-3.32,5.77c-3.52,6.12-7.16,12.44-10.77,18.65a6.29,6.29,0,0,1-1.89,2C8,96.18,6,97.46,4,98.8l-2.34,1.52A1.05,1.05,0,0,1,1.05,100.49ZM29.91,38.8h0ZM43.48,61.94A32.55,32.55,0,0,1,30.28,59a1.05,1.05,0,0,1-.49-1.49l2.33-4a1.05,1.05,0,1,1,1.82,1.05l-1.73,3a29.18,29.18,0,0,0,22.59,0L48.69,47a9,9,0,0,1-5.13,1.71A8.83,8.83,0,0,1,38.31,47l-1.1,1.9a1.05,1.05,0,1,1-1.82-1.05l1.69-2.93a1.05,1.05,0,0,1,1.58-.29,6.9,6.9,0,0,0,9.67,0,1.05,1.05,0,0,1,1.58.28l7.3,12.65A1.05,1.05,0,0,1,56.72,59,33,33,0,0,1,43.48,61.94Zm.05-30h-.08a6,6,0,0,1,.07-12.1h0a5.94,5.94,0,0,1,4.22,1.78,6.06,6.06,0,0,1-.07,8.61A5.91,5.91,0,0,1,43.53,32Zm0-10a3.95,3.95,0,0,0,0,7.89,3.83,3.83,0,0,0,2.74-1.11,4,4,0,0,0,0-5.63A3.85,3.85,0,0,0,43.53,22Z"/></svg>