<svg id="Layer_1" data-name="Layer 1" xmlns="http://www.w3.org/2000/svg" viewBox="0 0 100 100"><defs><style>.cls-1{fill:#ffcd60;}.cls-2{fill:#ffeab5;}.cls-3{fill:#78e3ec;}.cls-4{fill:#d0fbfd;}.cls-5{fill:#75eae4;}.cls-6{fill:#fff;}.cls-7{fill:#27467a;}.cls-8{fill:#2f5e88;}</style></defs><title>Andriod_UI_UX_design</title><path class="cls-1" d="M59.68,92.47v-14H40.32V89.25l4.3,7.53,15.05,2.15h6.45A6.45,6.45,0,0,1,59.68,92.47Z"/><path class="cls-2" d="M53.23,92.47V89.25H40.32v3.23a6.45,6.45,0,0,1-6.45,6.45H59.68A6.45,6.45,0,0,1,53.23,92.47Z"/><path d="M66.13,100H33.87a1.08,1.08,0,1,1,0-2.16,5.38,5.38,0,0,0,5.37-5.37v-14a1.08,1.08,0,0,1,1.08-1.08H59.68a1.08,1.08,0,0,1,1.08,1.08v14a5.38,5.38,0,0,0,5.37,5.37,1.08,1.08,0,1,1,0,2.16Zm-27-2.16H60.86a7.51,7.51,0,0,1-2.26-5.37V79.57H41.4v12.9A7.51,7.51,0,0,1,39.14,97.84Z"/><path class="cls-3" d="M92.47,11.83H86V74.19l12.9-4.3V18.28A6.47,6.47,0,0,0,92.47,11.83Z"/><path class="cls-4" d="M92.47,18.28A6.47,6.47,0,0,0,86,11.83H7.53a6.47,6.47,0,0,0-6.45,6.45V69.89l45.7,4.3,45.7-4.3Z"/><path class="cls-1" d="M92.47,69.89,86,82.79h6.45a6.47,6.47,0,0,0,6.45-6.45V69.89Z"/><path class="cls-5" d="M23.86,29.81H8.37a.86.86,0,0,1,0-1.72H23.86a.86.86,0,0,1,0,1.72Z"/><path class="cls-5" d="M32.88,29.81h-5.2a.86.86,0,0,1,0-1.72h5.2a.86.86,0,0,1,0,1.72Z"/><path class="cls-5" d="M28.63,34.58H13.14a.86.86,0,0,1,0-1.72H28.63a.86.86,0,1,1,0,1.72Z"/><path class="cls-5" d="M37.65,34.58h-5.2a.86.86,0,1,1,0-1.72h5.2a.86.86,0,1,1,0,1.72Z"/><path class="cls-5" d="M23.86,39.11H8.37a.86.86,0,0,1,0-1.72H23.86a.86.86,0,1,1,0,1.72Z"/><path class="cls-5" d="M32.88,39.11h-5.2a.86.86,0,1,1,0-1.72h5.2a.86.86,0,0,1,0,1.72Z"/><path class="cls-5" d="M28.63,43.87H13.14a.86.86,0,0,1,0-1.72H28.63a.86.86,0,1,1,0,1.72Z"/><path class="cls-5" d="M37.65,43.87h-5.2a.86.86,0,1,1,0-1.72h5.2a.86.86,0,0,1,0,1.72Z"/><path class="cls-2" d="M92.47,76.34V69.89H1.08v6.45a6.47,6.47,0,0,0,6.45,6.45H86A6.47,6.47,0,0,0,92.47,76.34Z"/><path d="M92.21,83.87H7.79A7.8,7.8,0,0,1,0,76.09V18.54a7.8,7.8,0,0,1,7.79-7.79H92.21A7.8,7.8,0,0,1,100,18.54V76.09A7.8,7.8,0,0,1,92.21,83.87Zm-84.43-71a5.64,5.64,0,0,0-5.63,5.63V76.09a5.64,5.64,0,0,0,5.63,5.63H92.21a5.64,5.64,0,0,0,5.63-5.63V18.54a5.64,5.64,0,0,0-5.63-5.63Z"/><circle cx="50" cy="76.33" r="1.61"/><polygon class="cls-2" points="69.35 11.83 69.35 52.69 58.6 59.14 58.6 5.38 69.35 11.83"/><polygon class="cls-6" points="62.9 7.53 62.9 56.99 30.65 52.69 30.65 11.83 62.9 7.53"/><path class="cls-7" d="M62.9,52.69,56.45,63.44H62.9A6.47,6.47,0,0,0,69.35,57v-4.3Z"/><path class="cls-7" d="M62.9,1.08H56.45L62.9,11.83h6.45V7.53A6.47,6.47,0,0,0,62.9,1.08Z"/><path class="cls-8" d="M62.9,52.69V57a6.47,6.47,0,0,1-6.45,6.45H37.1A6.47,6.47,0,0,1,30.65,57v-4.3Z"/><path class="cls-8" d="M62.9,7.53v4.3H30.65V7.53A6.47,6.47,0,0,1,37.1,1.08H56.45A6.47,6.47,0,0,1,62.9,7.53Z"/><path d="M62,64.52H38a8.46,8.46,0,0,1-8.45-8.45V8.45A8.46,8.46,0,0,1,38,0H62a8.46,8.46,0,0,1,8.45,8.45V56.07A8.46,8.46,0,0,1,62,64.52ZM38,2.16a6.3,6.3,0,0,0-6.3,6.3V56.07a6.3,6.3,0,0,0,6.3,6.3H62a6.3,6.3,0,0,0,6.3-6.3V8.45A6.3,6.3,0,0,0,62,2.16Z"/><path d="M83.39,71H1.08a1.08,1.08,0,1,1,0-2.16H83.39a1.08,1.08,0,0,1,0,2.16Z"/><path d="M98.92,71H90.69a1.08,1.08,0,0,1,0-2.16h8.23a1.08,1.08,0,0,1,0,2.16Z"/><path d="M61.57,53.77H30.65a1.08,1.08,0,1,1,0-2.16H61.57a1.08,1.08,0,0,1,0,2.16Z"/><path d="M69.35,53.77H65.72a1.08,1.08,0,0,1,0-2.16h3.64a1.08,1.08,0,1,1,0,2.16Z"/><path d="M69.35,12.91H30.65a1.08,1.08,0,1,1,0-2.16H69.35a1.08,1.08,0,1,1,0,2.16Z"/></svg>