<svg id="Layer_1" data-name="Layer 1" xmlns="http://www.w3.org/2000/svg" viewBox="0 0 100.33 100.33"><defs><style>.cls-1{fill:#19cffc;}.cls-2{fill:#5fe4f9;}</style></defs><title>andriod_m_app_development</title><polygon class="cls-1" points="50.42 48.91 2.4 0.88 0.88 0.88 0.88 99.45 99.45 99.45 99.45 0.88 98.44 0.88 50.42 48.91"/><polygon class="cls-2" points="0.88 45.4 46.99 97.86 99.45 45.4 99.45 0.88 50.42 48.91 0.88 0.88 0.88 45.4"/><path d="M99.45,100.33H.88A.88.88,0,0,1,0,99.45V.88A.88.88,0,0,1,.88,0H2.4A.88.88,0,0,1,3,.26l47.4,47.4L97.82.26A.88.88,0,0,1,98.44,0h1a.88.88,0,0,1,.88.88V99.45A.88.88,0,0,1,99.45,100.33ZM1.77,98.57h96.8V2L51,49.53a.88.88,0,0,1-1.25,0L2,1.77H1.77Z"/></svg>