<svg id="Layer_1" data-name="Layer 1" xmlns="http://www.w3.org/2000/svg" viewBox="0 0 122.93 100"><defs><style>.cls-1{fill:#0999ff;}.cls-2{fill:#035c99;}.cls-3{fill:#fff;}</style></defs><title>Android SDK Development</title><path class="cls-1" d="M61.39,1H26.12C19.29,1,15.28,4.84,15.21,11.71c-.1,9.55,0,19.11-.06,28.66A2.37,2.37,0,0,0,17,43C31.24,48.06,45.4,53.22,59.61,58.28a5.6,5.6,0,0,0,3.48,0C77.37,53.25,91.61,48.06,105.88,43a2.37,2.37,0,0,0,1.82-2.67c-.06-9.47,0-18.94,0-28.41,0-7-4-10.88-11-10.89Z"/><path d="M61.45,59.56a6.58,6.58,0,0,1-2.17-.36C51.2,56.33,43,53.38,35.08,50.52c-6-2.17-12.24-4.41-18.37-6.61a3.34,3.34,0,0,1-2.55-3.55c0-4.37,0-8.82,0-13.12,0-5.09,0-10.36,0-15.54,0-3.68,1.12-6.58,3.22-8.63A12.11,12.11,0,0,1,26.12,0H96.66c7.56,0,11.93,4.33,12,11.87,0,2.62,0,5.49,0,9a1,1,0,0,1-1,1h0a1,1,0,0,1-1-1c0-3.53,0-6.39,0-9,0-6.48-3.51-9.9-10-9.91H26.12c-6.33,0-9.86,3.47-9.92,9.75-.05,5.17,0,10.43,0,15.52,0,4.3,0,8.75,0,13.13,0,1,.21,1.31,1.25,1.68,6.13,2.19,12.35,4.44,18.37,6.61,7.92,2.86,16.12,5.81,24.19,8.68a4.61,4.61,0,0,0,2.82,0c7.87-2.8,15.87-5.68,23.6-8.46,6.29-2.27,12.79-4.61,19.2-6.9,1-.34,1.17-.65,1.17-1.74,0-3.67,0-7.37,0-10.51a1,1,0,0,1,1-1h0a1,1,0,0,1,1,1c0,3.14,0,6.84,0,10.5a3.34,3.34,0,0,1-2.47,3.6c-6.4,2.29-12.9,4.63-19.19,6.89-7.73,2.79-15.73,5.67-23.6,8.47A6,6,0,0,1,61.45,59.56Z"/><path class="cls-1" d="M63.87,63.58l2.7,1c3.25,1.18,6.32,2.3,9.39,3.55a8.55,8.55,0,0,0,3.25.69,8.37,8.37,0,0,0,3.09-.63C88,65.95,93.85,63.77,99.5,61.67l5.87-2.19,1.31-.46v9.36c0,4.4,0,8.94,0,13.41,0,1.2,0,1.43-.82,1.72C96,87.06,86,90.7,76.37,94.23l-12.5,4.56Z"/><path d="M105.7,60.41v3.27q0,2.35,0,4.7c0,4.4,0,8.95,0,13.42,0,.23,0,.55,0,.73l-.15.06C95.69,86.13,85.69,89.78,76,93.31L64.85,97.38V65l1.38.5c3.24,1.18,6.3,2.3,9.35,3.53a9.51,9.51,0,0,0,3.62.76,9.34,9.34,0,0,0,3.44-.69c5.7-2.23,11.54-4.4,17.18-6.5l5.87-2.19m2-2.76c-1.13.39-1.89.63-2.64.91-7.71,2.88-15.44,5.71-23.1,8.71a7.39,7.39,0,0,1-2.73.56,7.55,7.55,0,0,1-2.88-.62c-4.36-1.77-8.8-3.31-13.45-5V99.89A4.56,4.56,0,0,0,64,99.8C78,94.68,92.11,89.52,106.21,84.44c1.47-.53,1.48-1.47,1.47-2.65,0-6,0-12.08,0-18.12,0-1.92,0-3.84,0-6Z"/><path class="cls-2" d="M60,62.14V100c-.76-.2-1.37-.3-1.94-.51C44.52,94.57,31,89.61,17.41,84.74c-1.6-.58-2.31-1.27-2.28-3.1.12-7.18,0-14.36.05-21.54,0-.72.07-1.44.12-2.46,2.55.94,4.91,1.8,7.25,2.68,6.33,2.38,12.63,4.84,19,7.09a6.87,6.87,0,0,0,4.17,0C50.42,65.84,55,64,60,62.14Z"/><path class="cls-1" d="M52.51,66c0,12-.39,19.46-.39,31.33,1.11.17,2.44,0,3.55.2C57,97.75,58.22,99.8,60,100V62.14C57.33,62.56,55.11,65.6,52.51,66Z"/><path class="cls-2" d="M43.81,64.59a3.3,3.3,0,0,1-1-.25C30,59.57,17.42,54.85,2.58,49.27l1.14-.39c3.3-1.13,6.41-2.19,9.54-3.21a2.59,2.59,0,0,1,.78-.12,2.11,2.11,0,0,1,.69.1C28,50.43,41,55.13,55.34,60.32l-1.2.45c-3.51,1.33-6.83,2.59-10.2,3.8A.44.44,0,0,1,43.81,64.59Z"/><path d="M14,46.54a1.17,1.17,0,0,1,.35,0c12.52,4.49,25.19,9.07,38.11,13.75-3,1.13-5.86,2.21-8.76,3.26a3.21,3.21,0,0,1-.64-.19C30.47,58.7,17.64,53.88,5.5,49.32c2.76-.94,5.42-1.85,8.07-2.71a1.63,1.63,0,0,1,.47-.07m0-2a3.57,3.57,0,0,0-1.08.16c-4.18,1.36-8.33,2.8-13,4.38a15,15,0,0,0,1.45.79q20.47,7.7,41,15.36a4.26,4.26,0,0,0,1.39.32,1.39,1.39,0,0,0,.47-.07c4.41-1.59,8.79-3.28,13.44-5a6.56,6.56,0,0,0-1.06-.72q-20.79-7.54-41.61-15a3.07,3.07,0,0,0-1-.16Z"/><path class="cls-2" d="M79.26,64.31A5.63,5.63,0,0,1,77.52,64c-2.83-.95-5.65-2-8.64-3.19l-1.32-.51c1.46-.56,2.73-1,4-1.51l6.84-2.48C87.69,53,97.28,49.5,106.75,46.19a6.29,6.29,0,0,1,2-.31,8.37,8.37,0,0,1,2.22.3c2.62.73,5.22,1.65,8,2.63l1.3.46-.37.15-6.1,2.3c-10.82,4.08-22,8.29-33,12.35A4.51,4.51,0,0,1,79.26,64.31Z"/><path d="M108.79,46.87a7.48,7.48,0,0,1,2,.26c2.19.61,4.39,1.37,6.68,2.17l-3.92,1.48c-10.83,4.08-22,8.3-33.06,12.36a3.58,3.58,0,0,1-1.19.18,4.62,4.62,0,0,1-1.42-.22c-2.47-.82-4.94-1.76-7.52-2.76l1.6-.59,6.86-2.49c9.27-3.36,18.85-6.84,28.31-10.15a5.31,5.31,0,0,1,1.72-.25m0-2a7.26,7.26,0,0,0-2.37.36C94.66,49.38,83,53.66,71.24,57.9c-2,.71-3.91,1.47-6.44,2.43,4.53,1.72,8.43,3.31,12.41,4.64a6.6,6.6,0,0,0,2,.32,5.5,5.5,0,0,0,1.87-.3c13.07-4.81,26.1-9.74,39.14-14.65.76-.29,1.49-.66,2.66-1.19-4.24-1.45-7.9-2.87-11.65-3.92a9.4,9.4,0,0,0-2.49-.34Z"/><path class="cls-3" d="M47.39,31.82a2.57,2.57,0,0,0-.87-2,8,8,0,0,0-3.07-1.4,13.09,13.09,0,0,1-4.87-2.29,4.58,4.58,0,0,1-1.71-3.7,4.81,4.81,0,0,1,1.88-3.9A7.42,7.42,0,0,1,43.58,17a7.33,7.33,0,0,1,5.07,1.7,5.21,5.21,0,0,1,1.83,4.2l0,.08H47.32a3.13,3.13,0,0,0-1-2.46,4,4,0,0,0-2.74-.91,3.76,3.76,0,0,0-2.55.78,2.55,2.55,0,0,0-.89,2,2.23,2.23,0,0,0,1,1.86,10.65,10.65,0,0,0,3.25,1.39A11.38,11.38,0,0,1,49,28a4.93,4.93,0,0,1,1.61,3.8,4.63,4.63,0,0,1-1.91,3.88,8.06,8.06,0,0,1-5,1.45,8.71,8.71,0,0,1-5.2-1.59,5,5,0,0,1-2.15-4.48l0-.08h3.15a3.08,3.08,0,0,0,1.22,2.65,4.87,4.87,0,0,0,3,.89,4.36,4.36,0,0,0,2.69-.73A2.36,2.36,0,0,0,47.39,31.82Z"/><path class="cls-3" d="M54,36.84V17.27h6.47a8.21,8.21,0,0,1,6.06,2.33,8.08,8.08,0,0,1,2.33,6v3a8.06,8.06,0,0,1-2.33,6,8.23,8.23,0,0,1-6.06,2.31Zm3.27-16.95V34.24h3.2a4.7,4.7,0,0,0,3.74-1.59,6,6,0,0,0,1.38-4.09v-3a6,6,0,0,0-1.38-4.07,4.7,4.7,0,0,0-3.74-1.59Z"/><path class="cls-3" d="M77.31,28.37h-1.6v8.47H72.44V17.27h3.27v8.29H77l6.36-8.29h3.83l0,.07-7.34,9.19,7.94,10.31H83.69Z"/><path d="M17.16,60.42l4.7,1.74,5.34,2c4.48,1.7,9.1,3.46,13.7,5.08a8.34,8.34,0,0,0,2.74.44,8.63,8.63,0,0,0,2.71-.42c3.43-1.15,6.77-2.42,10.3-3.76L58,65V97.38L46.72,93.26c-9.38-3.42-19.08-6.95-28.64-10.38a2.13,2.13,0,0,1-.87-.44,1.55,1.55,0,0,1-.11-.77c.08-5.07.07-10.21.06-15.19,0-2,0-4,0-6.07M15.3,57.63c0,1-.12,1.74-.12,2.46,0,7.18.07,14.36-.05,21.54,0,1.83.68,2.52,2.28,3.1C31,89.61,44.52,94.57,58.07,99.49c.57.21,1.18.31,1.94.51V62.14c-5,1.87-9.59,3.7-14.28,5.27a6.67,6.67,0,0,1-2.08.32,6.38,6.38,0,0,1-2.08-.33c-6.38-2.25-12.68-4.71-19-7.09-2.34-.88-4.7-1.74-7.25-2.68Z"/></svg>