<svg id="Layer_1" data-name="Layer 1" xmlns="http://www.w3.org/2000/svg" xmlns:xlink="http://www.w3.org/1999/xlink" viewBox="0 0 50.58 99.83"><defs><style>.cls-1{fill:url(#linear-gradient);}</style><linearGradient id="linear-gradient" x1="25.29" y1="99.12" x2="25.29" y2="0.72" gradientUnits="userSpaceOnUse"><stop offset="0" stop-color="#80297c"/><stop offset="0.42" stop-color="#b42150"/><stop offset="0.76" stop-color="#e1602e"/><stop offset="1" stop-color="#f69625"/></linearGradient></defs><title>apache_web_server</title><path class="cls-1" d="M44.65.72A4.9,4.9,0,0,1,47,1.91a8,8,0,0,1,2.67,4.74,17.16,17.16,0,0,1-.23,6.66,28.87,28.87,0,0,1-2.27,6.27,60.78,60.78,0,0,1-4.24,7.52,11.65,11.65,0,0,1-5,4.24.7.7,0,0,0-.18.11,13.62,13.62,0,0,0,2.41-.59,8.65,8.65,0,0,0,2.28-1.08c0,.2-.06.34-.09.48a25.75,25.75,0,0,1-1.88,5,12,12,0,0,1-2,3.09,11.44,11.44,0,0,1-3.61,2.55l-.23.11s0,0,0,.07a11.75,11.75,0,0,0,4.42-1.75,12.86,12.86,0,0,1-6.5,6.57,10.67,10.67,0,0,0,3.53-1.06c0,.1,0,.16-.05.22a62.18,62.18,0,0,1-3.57,8.84,29.36,29.36,0,0,1-4.76,7,22.62,22.62,0,0,1-5.89,4.42A16.79,16.79,0,0,1,17,67l-.42.09a11.6,11.6,0,0,0,10.86-3.47,16.42,16.42,0,0,1-3.27,4.75,17.84,17.84,0,0,1-4.85,3.1A5.11,5.11,0,0,0,24,69.72l-.1.22a9.63,9.63,0,0,1-5.6,4.92,14.78,14.78,0,0,1-4.2.86c-.94.06-1.89.07-2.83.1a5.69,5.69,0,0,1,1.78,3.95l-.12-.2a10.06,10.06,0,0,0-1.55-2.19,6.47,6.47,0,0,0-.91-.72.22.22,0,0,1-.1-.31c.82-2.32,1.61-4.64,2.44-7Q16.23,60,20,50.67c2.41-5.83,5-11.59,7.71-17.26C30.3,28.17,33,23,36,18a98.54,98.54,0,0,1,6.8-10.1.13.13,0,0,0,0-.12l-.62.73a85.63,85.63,0,0,0-6.26,8.67c-2.87,4.48-5.44,9.12-7.85,13.85-3.94,7.73-7.43,15.66-10.7,23.69S11.1,70.92,8.27,79.13c-2.11,6.11-4.12,12.24-6,18.43A2.17,2.17,0,0,1,1,99l-.24.08c2.37-7.84,4.84-15.6,7.56-23.33-.3,0-.58-.09-.86-.1a9.52,9.52,0,0,0-3.18.45c-.75.22-1.48.5-2.22.75a.65.65,0,0,1-.21,0A12.11,12.11,0,0,1,7.1,74.21a7.54,7.54,0,0,1-2-1c-.6-.42-1.18-.88-1.75-1.36A10.7,10.7,0,0,0,8,72.61c-.07-.43-.11-.84-.19-1.25a16.36,16.36,0,0,0-1.92-4.95c-.58-1-1.22-2-1.84-3a1,1,0,0,1-.13-.25A13.82,13.82,0,0,1,8,66.68c0-.32.06-.6.08-.88a68.21,68.21,0,0,1,3.37-15.5,94,94,0,0,1,4.74-11.56A164.09,164.09,0,0,1,28.3,18c2.22-3.26,4.54-6.44,7-9.49a60.19,60.19,0,0,1,4.88-5.41c.46-.45,1-.87,1.45-1.28A4.77,4.77,0,0,1,43.83.72Z"/><path d="M.72,99.83A.72.72,0,0,1,0,98.91C2.61,90.38,4.93,83.2,7.3,76.39a8.89,8.89,0,0,0-2.85.43c-.5.15-1,.33-1.5.5l-.69.24a1.32,1.32,0,0,1-.43.09h0a.72.72,0,0,1-.43-1.29l.11-.08a17.37,17.37,0,0,1,3.54-2.21l-.37-.25c-.58-.4-1.16-.86-1.8-1.4a.72.72,0,0,1,.67-1.23l.37.11a11.17,11.17,0,0,0,3.22.65h0c0-.15,0-.3-.08-.45a15.61,15.61,0,0,0-1.84-4.73c-.39-.69-.83-1.38-1.25-2l-.57-.91v0a1.58,1.58,0,0,1-.19-.4.72.72,0,0,1,1.06-.82A17.37,17.37,0,0,1,7.48,65a69.79,69.79,0,0,1,3.33-14.88c.14-.42.29-.87.47-1.38a.72.72,0,0,1,1.35.47c-.17.49-.32.94-.46,1.35A67.36,67.36,0,0,0,8.84,65.86c0,.19,0,.39-.05.6l0,.29a.72.72,0,0,1-1.29.36,9.46,9.46,0,0,0-1.09-1.23l.1.18a17,17,0,0,1,2,5.16c.06.29.1.59.14.88l.06.4a.72.72,0,0,1-.61.82,6.72,6.72,0,0,1-1.17.06l.44.16a.72.72,0,0,1-.11,1.39L7,75h.46c.22,0,.43,0,.64.07l.27,0a.72.72,0,0,1,.47.26C11.43,68,14,61.13,16.73,54.47c3.65-9,7.16-16.74,10.73-23.74,2.69-5.27,5.26-9.82,7.88-13.91a86.2,86.2,0,0,1,6.32-8.75l.43-.5.2-.23a.72.72,0,0,1,1.25.31.85.85,0,0,1-.17.71,97,97,0,0,0-6.75,10C33.88,23,31.2,28,28.4,33.72c-2.59,5.34-5.11,11-7.69,17.22-2.47,6-4.89,12.27-7.2,18.69C13,71.09,12.47,72.58,12,74l-.38,1.08.56,0c.63,0,1.29,0,1.93-.07a14.11,14.11,0,0,0,4-.82A9.44,9.44,0,0,0,21.6,72a8.32,8.32,0,0,1-2.35.13A.72.72,0,0,1,19,70.78a17.36,17.36,0,0,0,4.66-3,11.55,11.55,0,0,0,1.2-1.35,12.21,12.21,0,0,1-8.42,1.3.72.72,0,0,1-.06-1.4l.39-.08.08,0a16.07,16.07,0,0,0,4.5-1.67A22,22,0,0,0,27,60.31a28.66,28.66,0,0,0,4.64-6.81A57.73,57.73,0,0,0,34.78,46a11.45,11.45,0,0,1-2.29.52.72.72,0,0,1-.37-1.37A11.24,11.24,0,0,0,37.06,41a10.69,10.69,0,0,1-2.46.69.72.72,0,0,1-.72-1.09v0a.76.76,0,0,1,.32-.31l.25-.12a10.69,10.69,0,0,0,3.39-2.38,11.18,11.18,0,0,0,1.92-2.9,30.14,30.14,0,0,0,1.52-3.73c-.33.14-.65.25-1,.36a14.27,14.27,0,0,1-2.54.62.72.72,0,0,1-.58-1.24,1.4,1.4,0,0,1,.35-.23,10.89,10.89,0,0,0,4.72-4,59.61,59.61,0,0,0,4.19-7.43,28.57,28.57,0,0,0,2.22-6.11,16.46,16.46,0,0,0,.23-6.38A7.26,7.26,0,0,0,46.5,2.44a4.2,4.2,0,0,0-1.92-1H43.9a4.11,4.11,0,0,0-1.78,1c-.56.46-1,.86-1.41,1.25A60,60,0,0,0,35.89,9c-2.3,2.81-4.59,5.9-7,9.44A164.32,164.32,0,0,0,16.88,39l-.4.84-.06.13a.72.72,0,0,1-1.3-.61l.06-.13.41-.85A165.77,165.77,0,0,1,27.7,17.62c2.43-3.58,4.75-6.7,7.08-9.55a61.35,61.35,0,0,1,4.94-5.47c.43-.41.9-.83,1.49-1.31A5.49,5.49,0,0,1,43.7,0h1.08a5.57,5.57,0,0,1,2.66,1.35,8.75,8.75,0,0,1,2.9,5.15,17.86,17.86,0,0,1-.24,6.93,29.87,29.87,0,0,1-2.32,6.43,61,61,0,0,1-4.29,7.61,12.25,12.25,0,0,1-1.23,1.58.72.72,0,0,1,.84.84l0,.18c0,.13,0,.23-.07.34a26.57,26.57,0,0,1-1.92,5.09,12.72,12.72,0,0,1-2,3.07.72.72,0,0,1,.46,1,15.7,15.7,0,0,1-3.27,4.56l.09.06a.72.72,0,0,1,.26.72l0,.08a1.78,1.78,0,0,1-.05.21A62.23,62.23,0,0,1,33,54.16a30,30,0,0,1-4.87,7.14A23.46,23.46,0,0,1,22,65.86q-.54.29-1.07.53a11.21,11.21,0,0,0,6-3.31.72.72,0,0,1,1.15.82,17.35,17.35,0,0,1-3.42,4.95l-.27.25h0a.72.72,0,0,1,.28.9l0,.06-.08.18a10.37,10.37,0,0,1-6,5.28,15.56,15.56,0,0,1-4.4.9l-1.4.06a6.36,6.36,0,0,1,1,3.24.72.72,0,0,1-1.32.41l0-.06-.1-.16a9.5,9.5,0,0,0-1.43-2,5.81,5.81,0,0,0-.81-.63,1.09,1.09,0,0,1-.31-.31l-.84,2.42c-2.26,6.53-4.21,12.55-6,18.4a2.9,2.9,0,0,1-1.75,1.95L1,99.77l-.1,0A.72.72,0,0,1,.72,99.83Z"/><path d="M13.16,46.42a.72.72,0,0,1-.67-1c.37-.94.76-1.88,1.16-2.8a.72.72,0,1,1,1.32.57c-.39.9-.78,1.83-1.14,2.76A.72.72,0,0,1,13.16,46.42Z"/></svg>