<svg id="Layer_1" data-name="Layer 1" xmlns="http://www.w3.org/2000/svg" viewBox="0 0 100.21 100.21"><defs><style>.cls-1{fill:#fcc18b;}.cls-2{fill:#eaab65;}.cls-3{fill:#33bca5;}.cls-4{fill:#88dbfd;}.cls-5{fill:#5abfe9;}.cls-6{fill:#426175;}.cls-7{fill:#2c4456;}.cls-8{fill:#f2f2f2;}.cls-9{fill:#cdd6df;}.cls-10{fill:#fff;}.cls-11{fill:none;}.cls-12{fill:#afafaf;}</style></defs><title>APP_DEVELOPER</title><path class="cls-1" d="M78.81,74.46c-.28-4.71-3.26-8.54-7.71-10.62-5.44-2.55-20.26-6.4-20.26-6.4a3,3,0,0,1-2.47-3V46H32.25v8.47a3,3,0,0,1-2.47,3S15,61.29,9.51,63.84C5.07,65.92,2.08,69.75,1.8,74.46l-.33,20.2a4,4,0,0,0,4,4.08H75.11a4,4,0,0,0,4-4.08Zm0,0"/><path class="cls-2" d="M78.81,74.46c-.28-4.71-3.26-8.54-7.71-10.62-5.44-2.55-20.26-6.4-20.26-6.4a3,3,0,0,1-2.47-3V46H37.85V59.54a3,3,0,0,0,2.47,3s14.82,3.86,20.27,6.4C65,71,68,74.84,68.3,79.54l.32,19.2h6.5a4,4,0,0,0,4-4.08Zm0,0"/><path class="cls-3" d="M71.1,63.84a119.82,119.82,0,0,0-14.26-4.76l-1,.39a43.78,43.78,0,0,1-31,0l-1-.39A119.84,119.84,0,0,0,9.51,63.84C5.07,65.92,2.08,69.75,1.8,74.46l-.33,20.2a4,4,0,0,0,4,4.08H75.11a4,4,0,0,0,4-4.08l-.33-20.2c-.28-4.71-3.26-8.54-7.71-10.62Zm0,0"/><path d="M75.11,99.72H5.5a5,5,0,0,1-5-5.07L.83,74.4c.29-4.88,3.38-9.16,8.27-11.45,5.46-2.56,19.83-6.31,20.43-6.46l.07,0a2,2,0,0,0,1.67-2V45H49.34v9.45a2,2,0,0,0,1.67,2l.07,0c.61.16,15,3.91,20.43,6.46,4.89,2.29,8,6.57,8.27,11.45v0L80,83.75a1,1,0,0,1-1,1h0a1,1,0,0,1-1-1l-.17-9.29c-.25-4.2-2.86-7.77-7.15-9.78-5.18-2.43-19.31-6.14-20.07-6.33a4,4,0,0,1-3.23-3.93V47H33.23v7.49A4,4,0,0,1,30,58.39c-.76.2-14.88,3.91-20.07,6.33-4.29,2-6.89,5.57-7.15,9.77L2.45,94.68A3.05,3.05,0,0,0,5.5,97.76H75.11a3.05,3.05,0,0,0,3.05-3.09l-.09-5.41a1,1,0,1,1,2,0l.09,5.41a5,5,0,0,1-5,5.08Z"/><path class="cls-4" d="M93.11,8.77H56.29a5.55,5.55,0,0,0-5.55,5.55V35.14a5.55,5.55,0,0,0,5.55,5.55h13.1l-2.12,8.55a1.21,1.21,0,0,0,1.92,1.25l12.75-9.8H93.11a5.55,5.55,0,0,0,5.55-5.55V14.31a5.55,5.55,0,0,0-5.55-5.55Zm0,0"/><path class="cls-5" d="M93.11,8.77H82.6a5.55,5.55,0,0,1,5.55,5.55V35.14a5.55,5.55,0,0,1-5.55,5.55H93.11a5.55,5.55,0,0,0,5.55-5.55V14.31a5.55,5.55,0,0,0-5.55-5.55Zm0,0"/><path class="cls-5" d="M68.91,42.62l-1.64,6.61a1.21,1.21,0,0,0,1.92,1.25l12.75-9.8H71.43Zm0,0"/><path d="M68.45,51.92a2.39,2.39,0,0,1-1.31-.4,2.36,2.36,0,0,1-1-2.57l1.76-7.09H56.29a6.73,6.73,0,0,1-6.72-6.72V14.31a6.73,6.73,0,0,1,6.72-6.72H93.11a6.73,6.73,0,0,1,6.72,6.72V35.14a6.73,6.73,0,0,1-6.72,6.72H82.34L69.9,51.42A2.38,2.38,0,0,1,68.45,51.92Zm-12.16-42a4.38,4.38,0,0,0-4.37,4.37V35.14a4.38,4.38,0,0,0,4.37,4.37h14.6l-2.48,10a.08.08,0,0,0,0,0l0,0h0l13.07-10H93.11a4.38,4.38,0,0,0,4.37-4.37V14.31a4.38,4.38,0,0,0-4.37-4.37Z"/><path class="cls-2" d="M23.6,24.54H21.49a3.27,3.27,0,0,0-3.22,3.94L19.1,33c.64,3.39,4.51,1.84,4.51,1.84Zm0,0"/><path class="cls-1" d="M57,24.54h2.12a3.27,3.27,0,0,1,3.22,3.94L61.52,33C60.87,36.44,57,34.89,57,34.89Zm0,0"/><path class="cls-1" d="M52,7.15A17.3,17.3,0,0,0,40.31,2.33,17.3,17.3,0,0,0,28.58,7.15a17.74,17.74,0,0,0-5.41,13V37.52c0,8.2,10.65,16.68,17.13,16.68s17.13-8.49,17.13-16.68V20.19A17.74,17.74,0,0,0,52,7.15Zm0,0"/><path class="cls-2" d="M52,7.15A17.3,17.3,0,0,0,40.31,2.33,16.83,16.83,0,0,0,35,3.22a18.21,18.21,0,0,1,6.47,3.93,17.74,17.74,0,0,1,5.41,13V37.52c0,6.2-6.1,12.57-11.87,15.3a12.74,12.74,0,0,0,5.26,1.38c6.48,0,17.13-8.49,17.13-16.68V20.19A17.74,17.74,0,0,0,52,7.15Zm0,0"/><path d="M39.5,55.18c-3.43,0-7.89-2.12-11.65-5.52-4.1-3.72-6.46-8.14-6.46-12.14V36.2a4.08,4.08,0,0,1-2.5-.51,3.51,3.51,0,0,1-1.56-2.46l-.83-4.58a4.25,4.25,0,0,1,4.18-5.09h.71V20.19A18.67,18.67,0,0,1,27.11,6.43,18.13,18.13,0,0,1,39.48,1.35h0A18.13,18.13,0,0,1,51.89,6.43a18.67,18.67,0,0,1,5.72,13.75v3.37h.71a4.27,4.27,0,0,1,2.63.9h0a4.29,4.29,0,0,1,1.55,4.19l-.83,4.57a3.51,3.51,0,0,1-1.56,2.47,4.08,4.08,0,0,1-2.5.51v1.32c0,4-2.35,8.42-6.46,12.14C47.39,53.07,42.92,55.18,39.5,55.18ZM23.34,33.74v3.79c0,7.79,10.36,15.7,16.15,15.7s16.15-7.92,16.15-15.7V33.74l1.24.35A3.07,3.07,0,0,0,59.08,34a1.63,1.63,0,0,0,.67-1.16l.83-4.57A2.37,2.37,0,0,0,59.75,26h0a2.33,2.33,0,0,0-1.44-.49H55.65V20.19a16.71,16.71,0,0,0-5.1-12.32A16.23,16.23,0,0,0,39.5,3.31,16.23,16.23,0,0,0,28.44,7.87a16.71,16.71,0,0,0-5.09,12.32v5.33H20.68a2.33,2.33,0,0,0-1.44.49,2.37,2.37,0,0,0-.82,2.29l.83,4.57A1.62,1.62,0,0,0,19.92,34a3.07,3.07,0,0,0,2.18.06Z"/><path class="cls-6" d="M50.91,1.47H29.71a9.88,9.88,0,0,0-9.88,9.88V25a6.82,6.82,0,0,1,4.47,1.67.58.58,0,0,0,1-.42V15.54a4.37,4.37,0,0,1,4.37-4.37h4a4.5,4.5,0,0,1,2.85,1l.39.32a5.45,5.45,0,0,0,6.9,0l.39-.32a4.5,4.5,0,0,1,2.85-1h4a4.37,4.37,0,0,1,4.37,4.37V26.23a.58.58,0,0,0,1,.42A6.81,6.81,0,0,1,60.78,25V11.34a9.88,9.88,0,0,0-9.88-9.88Zm0,0"/><path class="cls-7" d="M50.91,1.47H47.24c1.84,2.17,3,5.43,3,9.71H51a4.37,4.37,0,0,1,4.37,4.37V26.23a.58.58,0,0,0,1,.42A6.82,6.82,0,0,1,60.78,25V11.34a9.88,9.88,0,0,0-9.88-9.88Zm0,0"/><path class="cls-8" d="M65,93.68H14.86A2.91,2.91,0,0,1,12,91L9.9,62.19a2.91,2.91,0,0,1,2.9-3.12H67.07A2.91,2.91,0,0,1,70,62.19L67.92,91a2.91,2.91,0,0,1-2.9,2.7Zm0,0"/><path d="M55.91,27.79a1.56,1.56,0,0,1-1.56-1.56V15.54A3.39,3.39,0,0,0,51,12.16H47a3.54,3.54,0,0,0-2.23.8l-.39.32a6.43,6.43,0,0,1-8.14,0L35.85,13a3.54,3.54,0,0,0-2.23-.8h-4a3.39,3.39,0,0,0-3.39,3.39V26.22a1.56,1.56,0,0,1-2.65,1.11A5.9,5.9,0,0,0,19.85,26l-1,0V11.34A10.87,10.87,0,0,1,29.71.49h21.2A10.87,10.87,0,0,1,61.76,11.34V26l-1,0A5.86,5.86,0,0,0,57,27.34,1.55,1.55,0,0,1,55.91,27.79ZM47,10.2h4a5.35,5.35,0,0,1,5.34,5.34v9.82a7.74,7.74,0,0,1,3.49-1.31V11.34a8.91,8.91,0,0,0-8.9-8.9H29.71a8.91,8.91,0,0,0-8.9,8.9V24.06a7.74,7.74,0,0,1,3.49,1.31V15.54a5.35,5.35,0,0,1,5.34-5.34h4a5.5,5.5,0,0,1,3.47,1.24l.39.32a4.47,4.47,0,0,0,5.66,0l.39-.32A5.5,5.5,0,0,1,47,10.2Z"/><path class="cls-9" d="M67.07,59.08H56.48a2.91,2.91,0,0,1,2.9,3.12L57.14,93.68H65a2.91,2.91,0,0,0,2.9-2.7L70,62.19a2.91,2.91,0,0,0-2.9-3.12Zm0,0"/><path d="M65,94.66H14.86A3.9,3.9,0,0,1,11,91L8.93,62.26a3.89,3.89,0,0,1,3.88-4.16H67.07a3.89,3.89,0,0,1,3.88,4.16L68.9,91A3.9,3.9,0,0,1,65,94.66ZM12.81,60.06a1.93,1.93,0,0,0-1.92,2.07l2.05,28.79a1.94,1.94,0,0,0,1.92,1.79H65a1.94,1.94,0,0,0,1.92-1.79L69,62.12a1.93,1.93,0,0,0-1.92-2.07Z"/><path class="cls-9" d="M68.62,98.74H12a2.53,2.53,0,0,1,0-5.06H68.62a2.53,2.53,0,0,1,0,5.06Zm0,0"/><path d="M67.73,99.91H11.1a3.51,3.51,0,0,1,0-7H67.73a3.51,3.51,0,0,1,0,7ZM11.1,94.85a1.55,1.55,0,0,0,0,3.1H67.73a1.55,1.55,0,0,0,0-3.1Z"/><path class="cls-10" d="M44.36,77.54a4.05,4.05,0,1,1-4.05-4.05,4.05,4.05,0,0,1,4.05,4.05Zm0,0"/><path d="M72.58,22.91a1.37,1.37,0,0,0-1.23-1.32.55.55,0,0,0-.34.09l-4.6,3a1.2,1.2,0,0,0,0,2l4.6,3a.54.54,0,0,0,.34.09,1.37,1.37,0,0,0,1.23-1.32.83.83,0,0,0-.33-.71l-3.19-2.07,3.19-2.07a.83.83,0,0,0,.33-.71Zm0,0"/><path d="M81.7,16.71a.8.8,0,0,0-.76.45L74.57,30.23a.81.81,0,0,0-.09.34,1,1,0,0,0,1,1,.91.91,0,0,0,.82-.45L82.7,18a.79.79,0,0,0,.07-.34,1,1,0,0,0-1.07-1Zm0,0"/><path d="M90.85,24.67l-4.6-3a.55.55,0,0,0-.34-.09,1.37,1.37,0,0,0-1.23,1.32.83.83,0,0,0,.33.71l3.19,2.07L85,27.75a.83.83,0,0,0-.33.71,1.37,1.37,0,0,0,1.23,1.32.55.55,0,0,0,.34-.09l4.6-3a1.2,1.2,0,0,0,0-2Zm0,0"/><rect class="cls-11" width="100.21" height="100.21"/><path class="cls-12" d="M44.14,72.26a2.56,2.56,0,0,0,.18,4.49c-.15.32-.28.65-.45,1a6.53,6.53,0,0,1-1.06,1.47,1.41,1.41,0,0,1-1.11.49,1.86,1.86,0,0,1-.75-.22,2.51,2.51,0,0,0-.74-.26,2.13,2.13,0,0,0-1.08.11c-.21.08-.42.17-.63.22a1.2,1.2,0,0,1-1.14-.25,4.27,4.27,0,0,1-.75-.91A7.19,7.19,0,0,1,35.41,75a4.44,4.44,0,0,1,.33-2.36A2.75,2.75,0,0,1,37.67,71a2.18,2.18,0,0,1,1.42.15l.61.26a.86.86,0,0,0,.65,0c.32-.11.64-.24,1-.32a2.56,2.56,0,0,1,2.79,1.05Z"/><path class="cls-12" d="M39.83,70.63a1.63,1.63,0,0,1,.12-.8,2.6,2.6,0,0,1,1.58-1.47,2.47,2.47,0,0,1,.85-.17A2.4,2.4,0,0,1,39.83,70.63Z"/></svg>