<svg id="Layer_1" data-name="Layer 1" xmlns="http://www.w3.org/2000/svg" viewBox="0 0 131 100.06"><defs><style>.cls-1{fill:#7cb8e5;}.cls-2{fill:#adacb2;}.cls-3{fill:#60a8dc;}.cls-4{fill:#010101;}.cls-5{fill:#f47859;}.cls-6{fill:#faa736;}</style></defs><title>APPLICATION_DESIGN</title><rect class="cls-1" x="36.76" y="14.65" width="57.49" height="70.75"/><path class="cls-2" d="M36.76,85.4H94.24v4.42a8.84,8.84,0,0,1-8.84,8.84H45.6a8.84,8.84,0,0,1-8.84-8.84Zm0,0"/><path class="cls-2" d="M45.6,1.38H85.4a8.84,8.84,0,0,1,8.84,8.84v4.42H36.76V10.23A8.84,8.84,0,0,1,45.6,1.38Zm0,0"/><path class="cls-3" d="M94.24,39V85.4H47.81Zm0,0"/><path class="cls-4" d="M95.62,86.8H35.38V13.28H95.62ZM38.14,84H92.86V16H38.14Z"/><path class="cls-4" d="M85.4,100.06H45.6A10.24,10.24,0,0,1,35.38,89.84V84H95.62v5.8A10.24,10.24,0,0,1,85.4,100.06ZM38.14,86.8v3A7.47,7.47,0,0,0,45.6,97.3H85.4a7.47,7.47,0,0,0,7.46-7.46v-3Z"/><path class="cls-4" d="M95.62,16H35.38v-5.8A10.24,10.24,0,0,1,45.6,0H85.4A10.24,10.24,0,0,1,95.62,10.24ZM38.14,13.28H92.86v-3A7.47,7.47,0,0,0,85.4,2.78H45.6a7.47,7.47,0,0,0-7.46,7.46Z"/><polygon class="cls-4" points="16.64 91.44 14.87 89.31 62.2 50.05 14.89 12.41 16.61 10.25 66.59 50 16.64 91.44"/><rect class="cls-4" x="13.82" y="48.64" width="50.58" height="2.76"/><polygon class="cls-4" points="113.53 91.44 63.59 50 113.56 10.25 115.28 12.41 67.97 50.05 115.3 89.31 113.53 91.44"/><rect class="cls-4" x="65.78" y="48.64" width="50.58" height="2.76"/><path class="cls-5" d="M111.93,76.55H125.2A4.42,4.42,0,0,1,129.62,81V94.24a4.42,4.42,0,0,1-4.42,4.42H111.93a4.42,4.42,0,0,1-4.42-4.42V81a4.42,4.42,0,0,1,4.42-4.42Zm0,0"/><path class="cls-5" d="M111.93,39H125.2a4.42,4.42,0,0,1,4.42,4.42V56.66a4.42,4.42,0,0,1-4.42,4.42H111.93a4.42,4.42,0,0,1-4.42-4.42V43.39A4.42,4.42,0,0,1,111.93,39Zm0,0"/><path class="cls-5" d="M111.93,1.38H125.2a4.42,4.42,0,0,1,4.42,4.42V19.07a4.42,4.42,0,0,1-4.42,4.42H111.93a4.42,4.42,0,0,1-4.42-4.42V5.8a4.42,4.42,0,0,1,4.42-4.42Zm0,0"/><path class="cls-5" d="M5.8,76.55H19.07A4.42,4.42,0,0,1,23.49,81V94.24a4.42,4.42,0,0,1-4.42,4.42H5.8a4.42,4.42,0,0,1-4.42-4.42V81A4.42,4.42,0,0,1,5.8,76.55Zm0,0"/><path class="cls-5" d="M5.8,39H19.07a4.42,4.42,0,0,1,4.42,4.42V56.66a4.42,4.42,0,0,1-4.42,4.42H5.8a4.42,4.42,0,0,1-4.42-4.42V43.39A4.42,4.42,0,0,1,5.8,39Zm0,0"/><path class="cls-5" d="M5.8,1.38H19.07A4.42,4.42,0,0,1,23.49,5.8V19.07a4.42,4.42,0,0,1-4.42,4.42H5.8a4.42,4.42,0,0,1-4.42-4.42V5.8A4.42,4.42,0,0,1,5.8,1.38Zm0,0"/><path class="cls-4" d="M125.2,100H111.93a5.81,5.81,0,0,1-5.8-5.8V81a5.81,5.81,0,0,1,5.8-5.8H125.2A5.81,5.81,0,0,1,131,81V94.24A5.81,5.81,0,0,1,125.2,100ZM111.93,77.94a3,3,0,0,0-3,3V94.24a3,3,0,0,0,3,3H125.2a3,3,0,0,0,3-3V81a3,3,0,0,0-3-3Z"/><path class="cls-4" d="M125.2,62.46H111.93a5.81,5.81,0,0,1-5.8-5.8V43.39a5.81,5.81,0,0,1,5.8-5.8H125.2a5.81,5.81,0,0,1,5.8,5.8V56.66A5.81,5.81,0,0,1,125.2,62.46ZM111.93,40.35a3,3,0,0,0-3,3V56.66a3,3,0,0,0,3,3H125.2a3,3,0,0,0,3-3V43.39a3,3,0,0,0-3-3Z"/><path class="cls-4" d="M125.2,24.87H111.93a5.81,5.81,0,0,1-5.8-5.8V5.8a5.81,5.81,0,0,1,5.8-5.8H125.2A5.81,5.81,0,0,1,131,5.8V19.07A5.81,5.81,0,0,1,125.2,24.87ZM111.93,2.76a3,3,0,0,0-3,3V19.07a3,3,0,0,0,3,3H125.2a3,3,0,0,0,3-3V5.8a3,3,0,0,0-3-3Z"/><path class="cls-4" d="M19.07,100H5.8A5.81,5.81,0,0,1,0,94.24V81a5.81,5.81,0,0,1,5.8-5.8H19.07a5.81,5.81,0,0,1,5.8,5.8V94.24A5.81,5.81,0,0,1,19.07,100ZM5.8,77.94a3,3,0,0,0-3,3V94.24a3,3,0,0,0,3,3H19.07a3,3,0,0,0,3-3V81a3,3,0,0,0-3-3Z"/><path class="cls-4" d="M19.07,62.46H5.8A5.81,5.81,0,0,1,0,56.66V43.39a5.81,5.81,0,0,1,5.8-5.8H19.07a5.81,5.81,0,0,1,5.8,5.8V56.66A5.81,5.81,0,0,1,19.07,62.46ZM5.8,40.35a3,3,0,0,0-3,3V56.66a3,3,0,0,0,3,3H19.07a3,3,0,0,0,3-3V43.39a3,3,0,0,0-3-3Z"/><path class="cls-4" d="M19.07,24.87H5.8A5.81,5.81,0,0,1,0,19.07V5.8A5.81,5.81,0,0,1,5.8,0H19.07a5.81,5.81,0,0,1,5.8,5.8V19.07A5.81,5.81,0,0,1,19.07,24.87ZM5.8,2.76a3,3,0,0,0-3,3V19.07a3,3,0,0,0,3,3H19.07a3,3,0,0,0,3-3V5.8a3,3,0,0,0-3-3Z"/><path class="cls-6" d="M71.76,43.77a8.86,8.86,0,1,1-6.26-2.59,8.86,8.86,0,0,1,6.26,2.59Zm0,0"/><path class="cls-4" d="M65.48,60.28a10.24,10.24,0,1,1,7.25-17.5h0a10.24,10.24,0,0,1-7.25,17.49Zm0-17.72a7.48,7.48,0,1,0,5.28,2.18A7.5,7.5,0,0,0,65.5,42.56Z"/></svg>