<svg id="Layer_1" data-name="Layer 1" xmlns="http://www.w3.org/2000/svg" viewBox="0 0 57.06 100"><defs><style>.cls-1{fill:#d8d8d8;}.cls-2{fill:#d6ebeb;}.cls-3{fill:#5c5766;}.cls-4{fill:#514e5b;}.cls-5{fill:#5e5e6b;}</style></defs><title>apple_watch</title><path class="cls-1" d="M50.5,38.65H54a2,2,0,0,1,2,2v4.95a2,2,0,0,1-2,2H50.5" transform="translate(0 0)"/><path class="cls-1" d="M50.5,51.94H54a2,2,0,0,1,2,2v4.95a2,2,0,0,1-2,2H50.5" transform="translate(0 0)"/><path d="M54,48.67H50.5V46.44H54a.87.87,0,0,0,.87-.87V40.63a.87.87,0,0,0-.87-.87H50.5V37.54H54a3.09,3.09,0,0,1,3.09,3.09v4.95A3.09,3.09,0,0,1,54,48.67Z" transform="translate(0 0)"/><path d="M54,62H50.5V59.73H54a.87.87,0,0,0,.87-.87V53.92A.87.87,0,0,0,54,53H50.5V50.82H54a3.1,3.1,0,0,1,3.09,3.09v4.95A3.1,3.1,0,0,1,54,62Z" transform="translate(0 0)"/><path class="cls-1" d="M36.43,78.92c-3.93,0-7.85,0-11.78,0-3.7,0-7.39,0-11.09,0a15.22,15.22,0,0,1-5.95-1.31l-.94-.42,1,2.42c.88,2.1,3,5.14,5.24,5.14,8.53,0,17.06,0,25.6,0,2.3,0,4-2.77,5.08-4.82.41-.79.7-1.65,1-2.48,0-.07.09-.14.06-.25A17.27,17.27,0,0,1,36.43,78.92Z" transform="translate(0 0)"/><path class="cls-2" d="M1.12,51.09c0-5.35,0-10.71,0-16.06A12.92,12.92,0,0,1,12.39,22.16a12.72,12.72,0,0,1,1.65-.1H37.32A12.89,12.89,0,0,1,49.95,32a12,12,0,0,1,.33,2.78q0,16.19,0,32.38a12.47,12.47,0,0,1-3,8.13,12.94,12.94,0,0,1-7.62,4.6,11,11,0,0,1-2.17.22q-11.77,0-23.54,0a12.46,12.46,0,0,1-8.18-3,12.83,12.83,0,0,1-4.41-7.28,11.69,11.69,0,0,1-.27-2.48Q1.11,59.22,1.12,51.09Z" transform="translate(0 0)"/><path class="cls-3" d="M38.57,90.31c0,.81-.09,1.61-.15,2.42A30.27,30.27,0,0,1,38,96.34a4.84,4.84,0,0,1-.75,2,1.33,1.33,0,0,1-1,.55H15.44c-.93,0-1.4-.41-1.76-1.5a15,15,0,0,1-.57-3c-.14-1.23-.24-2.46-.29-3.7,0-.36,0-.41.25-.43h25C38.25,90.2,38.43,90.15,38.57,90.31Z" transform="translate(0 0)"/><path class="cls-4" d="M38.58,91.11H13.1c-.21,0-.3,0-.27.26a4.46,4.46,0,0,1-.09-1,27.45,27.45,0,0,0-.54-3.92c0-.14,0-.19.14-.18H38.61c.19,0,.44-.1.56,0s0,.35-.08.53a29.87,29.87,0,0,0-.46,3.73C38.62,90.79,38.59,90.95,38.58,91.11Z" transform="translate(0 0)"/><path d="M24.13,80.13H14a13.56,13.56,0,0,1-8.89-3.28A14,14,0,0,1,.3,68.94,12.85,12.85,0,0,1,0,66.23q0-6.15,0-12.3V50q0-2.39,0-4.77c0-3.7,0-7.53,0-11.29A13.73,13.73,0,0,1,4.07,24a14,14,0,0,1,10-4.15H37.32A14,14,0,0,1,51,30.64a13.15,13.15,0,0,1,.36,3V66.06a13.59,13.59,0,0,1-3.21,8.83,14.06,14.06,0,0,1-8.26,5,12.14,12.14,0,0,1-2.39.24H24.13ZM14,22a11.73,11.73,0,0,0-8.38,3.49A11.57,11.57,0,0,0,2.23,33.9c0,3.76,0,7.59,0,11.29q0,2.39,0,4.77v4q0,6.15,0,12.29a10.62,10.62,0,0,0,.25,2.24,11.78,11.78,0,0,0,4,6.67A11.39,11.39,0,0,0,14,77.9c6.41,0,12.93,0,19.24,0h4.3a9.91,9.91,0,0,0,2-.2,11.89,11.89,0,0,0,7-4.22,11.42,11.42,0,0,0,2.7-7.42V33.68a10.92,10.92,0,0,0-.3-2.52A11.82,11.82,0,0,0,37.32,22H14Z" transform="translate(0 0)"/><path d="M26.82,85.84H12.91c-3,0-5.36-3.66-6.26-5.83L6,78.38l-.33-.79a1.11,1.11,0,0,1,1.49-1.44l.34.16.58.26a14.2,14.2,0,0,0,5.52,1.21c2.9,0,5.86,0,8.72,0h6.2c2.61,0,5.3,0,8,0a16.22,16.22,0,0,0,7.75-1.64,1.11,1.11,0,0,1,1.59.71,1.34,1.34,0,0,1-.13,1l-.29.72a19.2,19.2,0,0,1-.79,1.81c-1.2,2.32-3.13,5.41-6.06,5.42ZM8.72,79.19c.92,2.18,2.74,4.42,4.19,4.42h6.9c6.13,0,12.46,0,18.69,0,1.27,0,2.65-1.42,4.09-4.22l.1-.19a20.09,20.09,0,0,1-6.28.85h0c-2.64,0-5.33,0-7.93,0h-6.2c-2.86,0-5.82,0-8.73,0A15.87,15.87,0,0,1,8.72,79.19Z" transform="translate(0 0)"/><path d="M36.06,100H15.44a2.75,2.75,0,0,1-2.79-1.86A10.59,10.59,0,0,1,12,95.47c-.12-.82-.2-2.84-.27-4.67l0-.4a3.71,3.71,0,0,1-.08-.79c0-.08,0-.16,0-.24a26.63,26.63,0,0,0-.52-3.76,1.21,1.21,0,0,1,1.28-1.54H38.63A1.35,1.35,0,0,1,40.19,86v0a28.45,28.45,0,0,0-.43,3.56c0,.13,0,.26,0,.39v.12q0,.28,0,.55c0,.44-.06.9-.11,1.36,0,.28-.06.82-.1,1.39A26.19,26.19,0,0,1,39,97.17a4.39,4.39,0,0,1-1,2.06,2.54,2.54,0,0,1-1.69.77Zm-.13-2.23h.22a.34.34,0,0,0,.26-.1,2.38,2.38,0,0,0,.47-1.07,30.12,30.12,0,0,0,.32-3.35c0-.62.07-1.16.11-1.49s.07-.84.11-1.28c0-.2,0-.39,0-.59l0-.2c0-.09,0-.18,0-.27.08-1.17.19-2.18.34-3.12H13.51c.16,1,.25,2,.33,2.89,0,.12,0,.25,0,.38a1.81,1.81,0,0,0,0,.35l0,.14,0,.67c0,1.19.15,3.67.25,4.44a8.71,8.71,0,0,0,.5,2.12c.19.44.26.5.74.5Z" transform="translate(0 0)"/><path class="cls-1" d="M36.43,21.08c-3.93,0-7.85,0-11.78,0-3.7,0-7.39,0-11.09,0a15.22,15.22,0,0,0-5.95,1.31l-.94.42,1-2.42c.88-2.1,3-5.14,5.24-5.14,8.53,0,17.06,0,25.6,0,2.3,0,4,2.77,5.08,4.82.41.79.7,1.65,1,2.48,0,.07.09.14.06.25A17.27,17.27,0,0,0,36.43,21.08Z" transform="translate(0 0)"/><path class="cls-3" d="M38.57,9.69c0-.81-.09-1.61-.15-2.42A30.27,30.27,0,0,0,38,3.66a4.84,4.84,0,0,0-.75-2,1.33,1.33,0,0,0-1-.55H15.44c-.93,0-1.4.41-1.76,1.5a15,15,0,0,0-.57,3c-.14,1.23-.24,2.46-.29,3.7,0,.36,0,.41.25.43h25C38.25,9.8,38.43,9.85,38.57,9.69Z" transform="translate(0 0)"/><path class="cls-4" d="M38.58,8.89H13.1c-.21,0-.3,0-.27-.26a4.46,4.46,0,0,0-.09,1,27.45,27.45,0,0,1-.54,3.92c0,.14,0,.19.14.18H38.61c.19,0,.44.1.56,0s0-.35-.08-.53a29.87,29.87,0,0,1-.46-3.73C38.62,9.21,38.59,9.05,38.58,8.89Z" transform="translate(0 0)"/><path d="M6.68,24a1.11,1.11,0,0,1-1-1.54l.33-.8L6.65,20c.91-2.16,3.25-5.83,6.26-5.83h7c6.1,0,12.4,0,18.6,0,2.93,0,4.86,3.1,6.06,5.43a19.2,19.2,0,0,1,.79,1.81l.29.72a1.34,1.34,0,0,1,.13,1,1.11,1.11,0,0,1-1.59.71,16.23,16.23,0,0,0-7.75-1.64h0c-2.65,0-5.33,0-7.93,0H22.29c-2.86,0-5.81,0-8.72,0a14.19,14.19,0,0,0-5.52,1.21l-.59.26-.33.15A1.11,1.11,0,0,1,6.68,24Zm30-4a19.81,19.81,0,0,1,6,.85l-.1-.19c-1.44-2.8-2.82-4.22-4.09-4.22-6.2,0-12.5,0-18.6,0h-7c-1.46,0-3.27,2.24-4.19,4.42A15.86,15.86,0,0,1,13.55,20c2.91,0,5.87,0,8.73,0h6.22c2.59,0,5.27,0,7.91,0h.28Z" transform="translate(0 0)"/><path d="M39,16a2.27,2.27,0,0,1-.33,0H12.39a1.21,1.21,0,0,1-1.28-1.54,26.61,26.61,0,0,0,.52-3.76c0-.08,0-.16,0-.24a3.71,3.71,0,0,1,.08-.79l0-.4c.07-1.83.16-3.85.27-4.67a10.59,10.59,0,0,1,.65-2.67A2.75,2.75,0,0,1,15.44,0H36.32A2.54,2.54,0,0,1,38,.78a4.39,4.39,0,0,1,1,2.06,26.18,26.18,0,0,1,.39,3.78c0,.57.07,1.11.1,1.39,0,.46.08.91.11,1.36q0,.28,0,.55V10c0,.13,0,.26,0,.39A28.46,28.46,0,0,0,40.17,14v0A1.44,1.44,0,0,1,40,15.45,1.32,1.32,0,0,1,39,16ZM19.54,2.23h-4.1c-.47,0-.55.05-.74.49a8.72,8.72,0,0,0-.5,2.12C14.1,5.61,14,8.09,14,9.28l0,.67,0,.14a1.81,1.81,0,0,0,0,.35c0,.13,0,.25,0,.38-.08.93-.17,1.9-.33,2.89H37.86c-.15-.94-.26-2-.34-3.12,0-.09,0-.18,0-.27l0-.2c0-.2,0-.39,0-.59,0-.44-.06-.86-.11-1.28s-.07-.87-.11-1.49a30.14,30.14,0,0,0-.32-3.35,2.38,2.38,0,0,0-.47-1.07.34.34,0,0,0-.26-.1H19.54Z" transform="translate(0 0)"/><rect class="cls-5" x="9.4" y="31.11" width="32.59" height="39.11"/><path d="M21.83,44.37a4.74,4.74,0,0,1,2,.41,9.41,9.41,0,0,0,1.82.63,2,2,0,0,0,1-.13c.64-.24,1.27-.51,1.92-.73A5.43,5.43,0,0,1,31,44.33a5.94,5.94,0,0,1,2.27.77A5.45,5.45,0,0,1,35,46.64c.1.14,0,.21-.1.29a6.31,6.31,0,0,0-1.44,1.44,5.49,5.49,0,0,0-1,2.5,5.76,5.76,0,0,0,.37,2.87,5.39,5.39,0,0,0,1.64,2.2,7.41,7.41,0,0,0,1.08.7.19.19,0,0,1,.11.28A14,14,0,0,1,34.21,60a13.6,13.6,0,0,1-1.72,2.32,3.28,3.28,0,0,1-2.16,1.11,3.4,3.4,0,0,1-1.67-.34A5.52,5.52,0,0,0,26,62.42a5.06,5.06,0,0,0-1.82.42,5.34,5.34,0,0,1-2,.6,2.69,2.69,0,0,1-1.77-.66,8.38,8.38,0,0,1-1.53-1.71A17.83,17.83,0,0,1,17.52,59a16,16,0,0,1-.94-2.19,14.42,14.42,0,0,1-.83-6,8.17,8.17,0,0,1,.75-2.88,6.35,6.35,0,0,1,1.12-1.65,6,6,0,0,1,1.52-1.2A5.09,5.09,0,0,1,21.83,44.37Z" transform="translate(0 0)"/><path d="M25.29,43a5,5,0,0,1,1.26-3A6.46,6.46,0,0,1,30,38c.19,0,.39,0,.58-.07s.28.07.27.25a4.64,4.64,0,0,1-.21,1.55,5.65,5.65,0,0,1-3.38,3.48,4.89,4.89,0,0,1-1.61.31c-.37,0-.37,0-.39-.36Z" transform="translate(0 0)"/><path d="M43.1,71.33H35.47a1.11,1.11,0,0,1,0-2.22h5.41V32.22H20.26a1.11,1.11,0,1,1,0-2.22H43.1Z" transform="translate(0 0)"/><path d="M31.12,71.33H8.28V30h7.63a1.11,1.11,0,1,1,0,2.22H10.51V69.11H31.12a1.11,1.11,0,0,1,0,2.22Z" transform="translate(0 0)"/></svg>