<svg id="Layer_1" data-name="Layer 1" xmlns="http://www.w3.org/2000/svg" viewBox="0 0 94 100.07"><defs><style>.cls-1{fill:#ffede1;}.cls-2{fill:#ffe1cc;}.cls-3{fill:#fc5c5a;}.cls-4{fill:#db4242;}.cls-5{fill:#465058;}.cls-6{fill:#323e44;}.cls-7{fill:#dae5ea;}.cls-8{fill:#c9d1d3;}</style></defs><title>AR_VR App Development</title><path class="cls-1" d="M89.84,99.05A3.17,3.17,0,0,0,93,95.35l-2-11.84a13.84,13.84,0,0,0-9.93-11l-20.2-4.29c-2.11-.42-3.62-2.87-3.62-5V53.63H36.8v9.57c0,2.15-1.51,4.59-3.62,5L13,72.51a13.84,13.84,0,0,0-9.93,11L1,95.35a3.17,3.17,0,0,0,3.12,3.7Zm0,0" transform="translate(0)"/><path class="cls-2" d="M57.2,63.2V57.41a29.22,29.22,0,0,1-4.87,3.74,13.6,13.6,0,0,1-6.52,1v5.48c0,2.15,1.51,4.59,3.62,5l2.08.46h0a27,27,0,0,0,10.94-4.47l.13-.09-1.77-.38c-2.11-.42-3.62-2.87-3.62-5Zm0,0" transform="translate(0)"/><path class="cls-3" d="M93,95.35l-2-11.84a13.84,13.84,0,0,0-9.93-11L62.59,68.59l-.13.09a27.08,27.08,0,0,1-30.93,0l-.13-.09L13,72.51a13.84,13.84,0,0,0-9.93,11L1,95.35a3.17,3.17,0,0,0,3.12,3.7H89.84A3.17,3.17,0,0,0,93,95.35Zm0,0" transform="translate(0)"/><path class="cls-4" d="M93,96.08S93,96,93,96v0s0-.08,0-.12h0s0-.08,0-.12v-.07h0v-.13h0v-.13h0l-2-11.84a13.84,13.84,0,0,0-9.93-11L62.59,68.6l-.13.09a27,27,0,0,1-10.94,4.47L69,76.86a13.84,13.84,0,0,1,9.93,11l1.91,11.19h9.4l.26,0,.09,0,.21-.06.16-.05.28-.12.05,0h0l.1-.05h0l.1-.06h0l0,0h0l0,0h0l0,0h0l0,0h0l0,0h0l0,0h0l.09-.07h0l.08-.07h0l.08-.08h0l.08-.08h0l.07-.08h0l.07-.09h0l.07-.09h0l.06-.09h0l.06-.1h0l.06-.1h0l.05-.1h0l0-.1h0l0-.1h0l0-.11h0l0-.11h0l0-.11h0l0-.11h0l0-.11h0l0-.11h0v-.12h0s0-.08,0-.12v0Zm0,0" transform="translate(0)"/><path d="M89.84,100H4.16a4.16,4.16,0,0,1-4.1-4.85l2-11.84A14.89,14.89,0,0,1,12.72,71.56h.06L33,67.25c1.68-.34,2.84-2.4,2.84-4V52.65H58.19V63.21c0,1.65,1.16,3.71,2.83,4l20.24,4.3h0A14.89,14.89,0,0,1,91.92,83.34l2,11.84a4.16,4.16,0,0,1-4.1,4.86ZM13.22,73.47A12.9,12.9,0,0,0,4,83.68L2,95.51a2.18,2.18,0,0,0,2.15,2.55H89.84A2.18,2.18,0,0,0,92,95.51L90,83.68a12.91,12.91,0,0,0-9.19-10.21L60.62,69.18c-2.72-.55-4.4-3.53-4.4-6V54.62H37.78v8.59c0,2.45-1.69,5.43-4.41,6Z" transform="translate(0)"/><path d="M89.84,100H4.16a4.16,4.16,0,0,1-4.1-4.85l2-11.84A14.89,14.89,0,0,1,12.72,71.56h.06l18.84-4,.48.33a26.2,26.2,0,0,0,29.81,0l.48-.33,18.9,4a14.74,14.74,0,0,1,8.91,7,1,1,0,0,1-1.72,1,12.78,12.78,0,0,0-7.69-6l-18-3.82a28.07,28.07,0,0,1-31.61,0l-18,3.82A12.9,12.9,0,0,0,4,83.68L2,95.51a2.18,2.18,0,0,0,2.15,2.55H89.84A2.18,2.18,0,0,0,92,95.51l-1.21-7.1a1,1,0,1,1,1.94-.33l1.21,7.1a4.16,4.16,0,0,1-4.1,4.86Z" transform="translate(0)"/><path d="M16.15,100.07H16a1,1,0,0,1-.84-1.11l1.58-11.18a1,1,0,1,1,2,.28L17.12,99.22A1,1,0,0,1,16.15,100.07Z" transform="translate(0)"/><path d="M79.17,100.07a1,1,0,0,1-1-.85L76.62,88a1,1,0,0,1,2-.28l1.58,11.18a1,1,0,0,1-.84,1.11Z" transform="translate(0)"/><path class="cls-1" d="M63.84,7.73C57.64,1,48.28,1,48.28,1H45.72S36.36,1,30.16,7.73a18.28,18.28,0,0,0-4.68,13.38l1.1,19.67a18.49,18.49,0,0,0,3.17,9.38c2.18,3.2,10.1,10.23,11.9,11a13.6,13.6,0,0,0,10.67,0c1.8-.77,9.72-7.8,11.9-11a18.5,18.5,0,0,0,3.17-9.38c.32-5.67.83-14.83,1.1-19.67A18.27,18.27,0,0,0,63.84,7.73Zm0,0" transform="translate(0)"/><path class="cls-2" d="M63.84,7.73C57.64,1,48.28,1,48.28,1H45.72a22,22,0,0,0-4.45.58A21.38,21.38,0,0,1,52.39,7.73a18.26,18.26,0,0,1,4.68,13.38c-.27,4.85-.79,14-1.1,19.67a18.49,18.49,0,0,1-3.17,9.38c-2,3-9.17,9.4-11.51,10.8a3.42,3.42,0,0,0,.39.21,13.6,13.6,0,0,0,10.67,0c1.8-.77,9.72-7.8,11.9-11a18.5,18.5,0,0,0,3.17-9.38c.32-5.67.83-14.83,1.1-19.67A18.27,18.27,0,0,0,63.84,7.73Zm0,0" transform="translate(0)"/><path d="M47,63.23a14.6,14.6,0,0,1-5.72-1.16c-2.06-.88-10.15-8.16-12.33-11.35a19.48,19.48,0,0,1-3.34-9.88L24.5,21.17a19.35,19.35,0,0,1,4.94-14.1C35.85.05,45.32,0,45.72,0h2.57c.53,0,9.9.1,16.28,7.07h0a19.35,19.35,0,0,1,4.93,14.1l-.16,2.91L68.4,40.83a19.49,19.49,0,0,1-3.34,9.88c-2.18,3.2-10.27,10.47-12.33,11.35A14.61,14.61,0,0,1,47,63.23ZM45.72,2c-.1,0-9,.07-14.83,6.42a17.37,17.37,0,0,0-4.42,12.66l1.1,19.67a17.5,17.5,0,0,0,3,8.88c2.1,3.08,9.87,10,11.47,10.65a12.68,12.68,0,0,0,9.9,0c1.6-.68,9.37-7.57,11.47-10.65a17.52,17.52,0,0,0,3-8.88L67.37,24l.16-2.91A17.36,17.36,0,0,0,63.11,8.4h0C57.29,2,48.42,2,48.28,2H45.72Z" transform="translate(0)"/><path class="cls-5" d="M26.77,36.59H20.21A1.57,1.57,0,0,1,18.64,35V22.2a1.57,1.57,0,0,1,1.57-1.57h6.56Zm0,0" transform="translate(0)"/><path class="cls-6" d="M67.22,36.59h6.56A1.57,1.57,0,0,0,75.35,35V22.2a1.57,1.57,0,0,0-1.57-1.57H67.22Zm0,0" transform="translate(0)"/><path d="M27.76,37.58H20.21A2.56,2.56,0,0,1,17.65,35V22.2a2.56,2.56,0,0,1,2.55-2.55h7.55Zm-7.55-16a.58.58,0,0,0-.58.58V35a.58.58,0,0,0,.58.58h5.58v-14Z" transform="translate(0)"/><path d="M73.79,37.58H66.24V19.65h7.55a2.56,2.56,0,0,1,2.55,2.55V35A2.56,2.56,0,0,1,73.79,37.58Zm-5.58-2h5.58a.58.58,0,0,0,.58-.58V22.2a.58.58,0,0,0-.58-.58H68.21Z" transform="translate(0)"/><path class="cls-7" d="M23,20.1v17a1.32,1.32,0,0,0,1.32,1.32H41a5.81,5.81,0,0,0,3-.84,5.81,5.81,0,0,1,6,0,5.81,5.81,0,0,0,3,.84H69.63A1.32,1.32,0,0,0,71,37.13v-17a1.32,1.32,0,0,0-1.32-1.32H24.36A1.32,1.32,0,0,0,23,20.1Zm0,0" transform="translate(0)"/><path class="cls-8" d="M69.63,18.78H59.53V38.44h10.1A1.32,1.32,0,0,0,71,37.13v-17a1.32,1.32,0,0,0-1.32-1.32Zm0,0" transform="translate(0)"/><path d="M51.25,24.42a.69.69,0,0,1,0-.13c0-.41.6-.69,1-.69.28,0,.5.09.56.33l1.94,6.88,1.93-6.88c.06-.24.28-.33.56-.33.44,0,1,.29,1,.69a.54.54,0,0,1,0,.13l-2.44,8c-.11.38-.58.56-1.07.56a1,1,0,0,1-1.07-.56Zm0,0" transform="translate(0)"/><path d="M59.18,24.12a.52.52,0,0,1,.53-.51h2.51c1.66,0,3,.64,3,2.65a2.39,2.39,0,0,1-1.66,2.54l1.66,3.09a.34.34,0,0,1,.06.2,1.07,1.07,0,0,1-1,.86.65.65,0,0,1-.57-.39l-1.8-3.51H60.83v3.32c0,.34-.41.52-.83.52s-.83-.18-.83-.52V24.12Zm1.65.94v2.71h1.4a1.18,1.18,0,0,0,1.36-1.35,1.19,1.19,0,0,0-1.36-1.36Zm0,0" transform="translate(0)"/><path d="M69.63,39.43H53a6.8,6.8,0,0,1-3.52-1,4.81,4.81,0,0,0-5,0,6.79,6.79,0,0,1-3.52,1H34a1,1,0,0,1,0-2H41a4.82,4.82,0,0,0,2.49-.69,6.78,6.78,0,0,1,7,0,4.82,4.82,0,0,0,2.5.69H69.63a.33.33,0,0,0,.33-.33v-17a.33.33,0,0,0-.33-.33H24.36a.33.33,0,0,0-.33.33v17a.33.33,0,0,0,.33.33h3.3a1,1,0,0,1,0,2h-3.3a2.31,2.31,0,0,1-2.3-2.3v-17a2.31,2.31,0,0,1,2.3-2.3H69.63a2.31,2.31,0,0,1,2.3,2.3v17A2.31,2.31,0,0,1,69.63,39.43Z" transform="translate(0)"/><path d="M12.33,73.5a1,1,0,0,1-1-1v-40a4.89,4.89,0,0,1,4.88-4.88h1.5a1,1,0,0,1,0,2h-1.5a2.91,2.91,0,0,0-2.91,2.91v40A1,1,0,0,1,12.33,73.5Z" transform="translate(0)"/></svg>