<svg id="Layer_1" data-name="Layer 1" xmlns="http://www.w3.org/2000/svg" viewBox="0 0 100 100"><defs><style>.cls-1{fill:#662394;}.cls-2{fill:#831085;}.cls-3{fill:#fff;}</style></defs><title>axure_rp</title><path class="cls-1" d="M18,1H6.59A5.56,5.56,0,0,0,1,6.59V93.41A5.56,5.56,0,0,0,6.59,99H18Z"/><path class="cls-2" d="M93.41,1H25.52V99H93.41A5.56,5.56,0,0,0,99,93.41V6.59A5.56,5.56,0,0,0,93.41,1Z"/><path class="cls-3" d="M34.94,64.23a58,58,0,0,1,8.88-.61c4.37,0,7.43.66,9.53,2.32a7.48,7.48,0,0,1,2.75,6.21,7.81,7.81,0,0,1-5.2,7.21v.13c2.05.83,3.19,2.75,3.93,5.47.92,3.37,1.79,7.21,2.36,8.35H50.37a39.43,39.43,0,0,1-2-6.86c-.83-3.72-2.1-4.68-4.85-4.72h-2V93.31h-6.6Zm6.6,12.68h2.62c3.32,0,5.29-1.66,5.29-4.24s-1.84-4.07-4.9-4.07a13.3,13.3,0,0,0-3,.22Z"/><path class="cls-3" d="M60.86,64.23a54.48,54.48,0,0,1,9-.61c4.11,0,7,.79,9,2.36A8.48,8.48,0,0,1,82,72.8a9.18,9.18,0,0,1-2.71,7c-2.27,2.1-5.64,3.1-9.57,3.1a11.44,11.44,0,0,1-2.27-.18V93.31h-6.6Zm6.6,13.38a9.94,9.94,0,0,0,2.23.18c3.54,0,5.73-1.79,5.73-4.77,0-2.71-1.88-4.33-5.25-4.33a11.89,11.89,0,0,0-2.71.22Z"/><path class="cls-3" d="M42.16,52.14h2v8.51h-2l-.1-1.24a3.24,3.24,0,0,1-2.76,1.5c-2.52,0-4.39-1.54-4.39-4.52a4.14,4.14,0,0,1,4.44-4.46,3.13,3.13,0,0,1,2.71,1.38ZM37,56.39A2.44,2.44,0,0,0,39.57,59c3.32,0,3.32-5.16,0-5.16A2.42,2.42,0,0,0,37,56.39Z"/><path class="cls-3" d="M51.38,52.14H53.9v.07l-2.8,4.13,3,4.27v.05H51.55L49.7,57.81l-1.85,2.85H45.33V60.6l3-4.27-2.8-4.13v-.07H48L49.7,55Z"/><path class="cls-3" d="M57.3,52.14V56.6a2,2,0,0,0,2.05,2.28,2.24,2.24,0,0,0,2.18-2.38V52.14h2.09v8.53H61.74l-.14-1.16a3.79,3.79,0,0,1-2.88,1.28c-2,0-3.52-1.54-3.52-4.18V52.14Z"/><path class="cls-3" d="M67.44,52.14l.16,1A2.51,2.51,0,0,1,70,51.92a3.23,3.23,0,0,1,2.19.81l-.95,1.83A2.1,2.1,0,0,0,69.72,54a2,2,0,0,0-2.12,2.16v4.49H65.49V52.14Z"/><path class="cls-3" d="M74.78,57.15C74.91,58.2,75.83,59,77.31,59a3.51,3.51,0,0,0,2.28-.79l1.35,1.33a5.23,5.23,0,0,1-3.66,1.38c-2.94,0-4.68-1.81-4.68-4.54a4.26,4.26,0,0,1,4.52-4.46c2.85,0,4.63,1.76,4.3,5.27Zm4.63-1.74a2,2,0,0,0-2.21-1.66,2.29,2.29,0,0,0-2.38,1.66Z"/><path d="M93.41,100H24.48V0H93.41A6.6,6.6,0,0,1,100,6.59v77.3a1,1,0,0,1-2.09,0V6.59a4.5,4.5,0,0,0-4.5-4.5H26.57V97.91H93.41a4.5,4.5,0,0,0,4.5-4.5V89.54a1,1,0,0,1,2.09,0v3.87A6.6,6.6,0,0,1,93.41,100Z"/><path d="M19,100H6.59A6.6,6.6,0,0,1,0,93.41V18a1,1,0,1,1,2.09,0V93.41a4.5,4.5,0,0,0,4.5,4.5H16.95V2.09H6.59a4.5,4.5,0,0,0-4.5,4.5v5.75a1,1,0,1,1-2.09,0V6.59A6.6,6.6,0,0,1,6.59,0H19Z"/></svg>