<svg id="Layer_1" data-name="Layer 1" xmlns="http://www.w3.org/2000/svg" viewBox="0 0 98.06 100"><defs><style>.cls-1{fill:#e85b4a;}.cls-2{fill:#d65346;}.cls-3{fill:#89b440;}.cls-4{fill:#80a83f;}.cls-5{fill:#fdb62e;}.cls-6{fill:#faa61e;}.cls-7{fill:#010101;}.cls-8{fill:#fccaa5;}.cls-9{fill:#fabd90;}.cls-10{fill:#4399d3;}.cls-11{fill:#4090c9;}</style></defs><title>BUSINESS_SOLUTIONS</title><path class="cls-1" d="M80.51,10.93A9.94,9.94,0,0,0,70.57,1H40.75v12.3a8.28,8.28,0,1,1,0,15.17v12.3H53a8.28,8.28,0,1,0,15.17,0H80.5V10.93Z"/><path class="cls-2" d="M80.51,11.87C71,25,53.94,32.53,40.75,36.56v4.19H53a8.28,8.28,0,1,0,15.17,0h12.3V11.87Z"/><path class="cls-3" d="M44.06,12.58a8.26,8.26,0,0,0-3.31.7V1H10.93A9.94,9.94,0,0,0,1,10.93V40.75h12.3a8.28,8.28,0,1,1,15.17,0h12.3V28.45a8.28,8.28,0,1,0,3.31-15.87Z"/><path class="cls-4" d="M44.06,12.58a8.26,8.26,0,0,0-3.31.7v-2.4C28.34,22.3,11.53,28.6,1,31.68v9.07h12.3a8.28,8.28,0,1,1,15.17,0h12.3V28.45a8.28,8.28,0,1,0,3.31-15.87Z"/><path class="cls-5" d="M37.43,54a8.26,8.26,0,0,1,3.31.7v-14H28.45a8.28,8.28,0,1,0-15.17,0H1V70.57a9.94,9.94,0,0,0,9.94,9.94H40.75V69.87A8.28,8.28,0,1,1,37.43,54Z"/><path class="cls-6" d="M1,70.57a9.94,9.94,0,0,0,9.94,9.94H40.75V69.87a8.25,8.25,0,0,1-11.57-7.29A72.46,72.46,0,0,1,1,68.85Z"/><path class="cls-7" d="M41.73,41.73H26.94l.61-1.38a7.3,7.3,0,1,0-13.36,0l.61,1.38H0V10.93A10.94,10.94,0,0,1,10.93,0H41.73V11.9a9.2,9.2,0,0,1,2.33-.3h0a9.27,9.27,0,1,1-2.34,18.24Zm-11.9-2h9.93V26.94l1.38.61a7.3,7.3,0,1,0,2.93-14h0a7.23,7.23,0,0,0-2.92.62l-1.38.61V2H10.93a9,9,0,0,0-9,9V39.76H11.9a9.27,9.27,0,1,1,17.94,0Z"/><path class="cls-7" d="M60.62,53.35a9.28,9.28,0,0,1-9-11.62H39.76V26.94l1.38.61a7.3,7.3,0,1,0,0-13.36l-1.38.61V0H70.57A10.94,10.94,0,0,1,81.49,10.93v30.8H69.59a9.28,9.28,0,0,1-9,11.62ZM41.73,39.76H54.55l-.61,1.38a7.3,7.3,0,1,0,13.36,0l-.61-1.38H79.52v-29a9,9,0,0,0-9-8.79H41.73V11.9a9.27,9.27,0,1,1,0,17.94Z"/><path class="cls-7" d="M41.73,81.49H10.93A10.94,10.94,0,0,1,0,70.57V39.76H11.9a9.27,9.27,0,1,1,17.94,0h11.9V56.21l-1.38-.61A7.23,7.23,0,0,0,37.43,55h0a7.3,7.3,0,1,0,2.93,14l1.38-.61ZM2,41.73V70.57a9,9,0,0,0,9,9H39.76V71.25A9.27,9.27,0,1,1,37.42,53h0a9.2,9.2,0,0,1,2.33.3V41.73H26.94l.61-1.38a7.3,7.3,0,1,0-13.36,0l.61,1.38Z"/><path class="cls-8" d="M97.07,97.07V77.33a6.63,6.63,0,0,0-2.83-5.43L81.79,63.18a5,5,0,0,0-2.85-.9h-10l.17,28.35a6.92,6.92,0,0,0,4.8,6.44Z"/><path class="cls-9" d="M87.13,97.07H75.54a6.63,6.63,0,0,1-6.63-6.63V83.82h11.6Z"/><path class="cls-7" d="M98.06,98.06H73.73l-.15,0a7.91,7.91,0,0,1-5.49-7.36L67.92,61.3h11a5.93,5.93,0,0,1,3.42,1.08l12.46,8.72a7.62,7.62,0,0,1,3.25,6.24Zm-24-2h22V77.33a5.65,5.65,0,0,0-2.41-4.62L81.23,64a4,4,0,0,0-2.29-.72h-9l.16,27.35A5.93,5.93,0,0,0,74,96.09Z"/><path class="cls-7" d="M98.06,98.06H87.13A10.94,10.94,0,0,1,76.22,87.55l-5.48-5.48L70.68,82l0,0a5.09,5.09,0,0,1,3.63-8.65h.05a5.05,5.05,0,0,1,3.58,1.52L98.06,95Zm-26-17.43,0,0,6.06,6.06v.41a9,9,0,0,0,9,9h9v-.26L76.52,76.26a3.09,3.09,0,0,0-2.19-.93h0a3.11,3.11,0,0,0-2.22,5.29l0,0Z"/><path class="cls-10" d="M84.84,75.37l-10.48-28L62.84,51.71a8.29,8.29,0,1,1-14.2,5.35L37.13,61.39,42,74.5a8.2,8.2,0,0,0-3.35.51,8.31,8.31,0,0,0,5.82,15.56,8.22,8.22,0,0,0,2.86-1.83l3.74,10L79,88.21A10,10,0,0,0,84.84,75.37Z"/><path class="cls-11" d="M79.43,60.93C68,78,46.57,84,34,86.06a8.23,8.23,0,0,0,13.35,2.68l3.74,10L79,88.21a10,10,0,0,0,5.81-12.84Z"/><path class="cls-7" d="M50.53,100l-3.6-9.62a9.13,9.13,0,0,1-2.07,1.1,9.29,9.29,0,1,1-4.23-17.94L35.87,60.82,49.71,55.6l-.08,1.51A7.31,7.31,0,1,0,62.14,52.4l-1.06-1.08L74.93,46.1,85.76,75a11,11,0,0,1-6.38,14.11ZM47.76,87l3.92,10.49,27-10.17a9,9,0,0,0,5.24-11.58h0L73.78,48.64l-9.29,3.5A9.28,9.28,0,0,1,50.3,64a9.31,9.31,0,0,1-2.61-5.55L38.4,62l5.09,13.6L42,75.48a7.18,7.18,0,0,0-2.94.45,7.32,7.32,0,0,0,5.14,13.71,7.17,7.17,0,0,0,2.5-1.6Z"/><path class="cls-8" d="M77.22,75.57a4.1,4.1,0,1,0-5.86,5.74l.06.06,5.77,5.77a9.94,9.94,0,0,0,9.94,9.94h9.94V95.42Z"/><path class="cls-7" d="M98.06,98.06H87.13A10.94,10.94,0,0,1,76.22,87.55l-5.48-5.48L70.68,82l0,0a5.09,5.09,0,0,1,3.63-8.65h.05a5.05,5.05,0,0,1,3.58,1.52L98.06,95Zm-26-17.43,0,0,6.06,6.06v.41a9,9,0,0,0,9,9h9v-.26L76.52,76.26a3.09,3.09,0,0,0-2.19-.93h0a3.11,3.11,0,0,0-2.22,5.29l0,0Z"/></svg>