<svg id="Layer_1" data-name="Layer 1" xmlns="http://www.w3.org/2000/svg" viewBox="0 0 89.4 99.88"><defs><style>.cls-1{fill:#fff;}.cls-2{fill:#2a0067;}.cls-3{fill:#a077db;}.cls-4{fill:none;stroke:#000;stroke-linecap:round;stroke-miterlimit:10;stroke-width:10px;}</style></defs><title>c#</title><path class="cls-1" d="M88.61,50.36c0,6.81,0,13.62,0,20.43a8.06,8.06,0,0,1-1.08,3.94A8.22,8.22,0,0,1,84,78.15C82.28,79,80.65,80,79,81L70.65,85.8c-1.52.88-3,1.78-4.54,2.66s-3,1.67-4.44,2.52-3.08,1.81-4.63,2.7l-7.16,4.09a17.34,17.34,0,0,1-2,1.07,5.76,5.76,0,0,1-1.67.34c-.67.06-1.34,0-2,0a6,6,0,0,1-3.31-.92c-1.08-.6-2.14-1.25-3.21-1.87l-4.76-2.74L28,90.85c-1.19-.69-2.37-1.4-3.57-2.09l-4.49-2.56c-1.3-.75-2.59-1.53-3.89-2.27-2.17-1.24-4.35-2.46-6.51-3.7q-2-1.17-4.05-2.39a10.37,10.37,0,0,1-1.55-1.1,8.83,8.83,0,0,1-2.32-4.23,9.57,9.57,0,0,1-.28-2.86q0-19.73,0-39.47a8.63,8.63,0,0,1,2.13-5.58,8.27,8.27,0,0,1,2.62-2c1-.53,2-1.15,2.93-1.72s2-1.15,3-1.73l2.66-1.54c1.06-.61,2.13-1.2,3.19-1.82,1.42-.82,2.83-1.67,4.25-2.49s3-1.69,4.49-2.55C28,10,29.23,9.22,30.54,8.47c1.56-.9,3.13-1.77,4.69-2.66s3.4-1.86,5-2.9a8.59,8.59,0,0,1,5-1.49A8.3,8.3,0,0,1,49.81,3c.61.43,1.27.77,1.92,1.14l2.71,1.52c.84.47,1.68.92,2.51,1.4.59.34,1.17.71,1.75,1.06l2.06,1.18,2.12,1.24,3,1.69,1.81,1L70.8,15l3.73,2.18c.89.51,1.78,1,2.67,1.51l4,2.32c1.24.71,2.51,1.36,3.72,2.11a5.73,5.73,0,0,1,2,1.89,10.22,10.22,0,0,1,1.34,2.37,7.11,7.11,0,0,1,.38,2Q88.6,39.88,88.61,50.36ZM44.94,79.2A28.82,28.82,0,0,0,50,78.72a23.87,23.87,0,0,0,3.86-1c1.49-.58,3-1.1,4.43-1.8a26.21,26.21,0,0,0,6.77-4.82,39.49,39.49,0,0,0,3-3.37c.65-.79,1.16-1.69,1.74-2.54.17-.25.17-.42-.14-.59-.71-.38-1.39-.81-2.09-1.21l-4.64-2.67c-1.67-1-3.32-2-5-2.91a.54.54,0,0,0-.5.1c-.35.42-.64.88-1,1.32a12.91,12.91,0,0,1-3.27,3.09A14.52,14.52,0,0,1,50,64a12.16,12.16,0,0,1-3.82.86c-.84,0-1.68,0-2.52,0a10.14,10.14,0,0,1-3.48-.75,19.48,19.48,0,0,1-3.14-1.59A13,13,0,0,1,32.57,58a15.43,15.43,0,0,1-2-5.2A14.28,14.28,0,0,1,33.5,41.4a14.91,14.91,0,0,1,6-4.55,11.19,11.19,0,0,1,3.86-1,14.52,14.52,0,0,1,9.17,2,14.09,14.09,0,0,1,4.78,4.7c.2.33.4.35.73.14.71-.44,1.45-.85,2.17-1.27l3.66-2.12,3.75-2.15,2.13-1.24c.18-.1.29-.19.15-.44a24.58,24.58,0,0,0-4.08-5.32,38.08,38.08,0,0,0-4.51-3.74,25.07,25.07,0,0,0-4.07-2.34,38.86,38.86,0,0,0-4.37-1.6,21.76,21.76,0,0,0-5.82-1,26.87,26.87,0,0,0-7.53.46c-1.57.38-3.15.76-4.67,1.29a32,32,0,0,0-3.6,1.65,26.18,26.18,0,0,0-6.46,4.7,24.74,24.74,0,0,0-4,4.76,37,37,0,0,0-2.1,3.79c-.57,1.22-1,2.52-1.44,3.78a20,20,0,0,0-1.12,5.27,29.81,29.81,0,0,0,.11,7,30.9,30.9,0,0,0,1,4.72,27.82,27.82,0,0,0,2.77,6.2,29.54,29.54,0,0,0,6.78,7.77A26.43,26.43,0,0,0,31.68,76c1.22.6,2.5,1.11,3.77,1.59a21.41,21.41,0,0,0,2.36.68,24.1,24.1,0,0,0,2.94.67C42.14,79.08,43.54,79.11,44.94,79.2ZM66.28,53.68c.33,0,.66,0,1,0s.48.13.44.5c-.13,1-.21,2-.32,3.07,0,.4.07.59.5.55s.75,0,1.12,0c.59,0,.62,0,.67-.62.09-1,.2-2,.29-3.07,0-.32.17-.43.48-.42.48,0,1,0,1.45,0,.3,0,.42-.12.41-.41,0-.45,0-.9,0-1.36s-.13-.44-.45-.43-.78,0-1.17,0-.45-.15-.41-.49c.1-.8.19-1.61.25-2.42,0-.4.19-.55.59-.52s1,0,1.45,0c.27,0,.4-.1.39-.38,0-.48,0-1,0-1.45,0-.26-.1-.37-.36-.36-.44,0-.87,0-1.31,0s-.48-.14-.44-.51c.12-.94.2-1.89.31-2.83,0-.28,0-.41-.34-.41-.48,0-1,0-1.45,0s-.48.13-.5.48c-.07.92-.19,1.83-.27,2.74,0,.38-.18.55-.58.53-.62,0-1.25,0-1.87,0-.36,0-.46-.12-.41-.47.12-.91.19-1.83.29-2.74,0-.37,0-.56-.46-.54a13,13,0,0,1-1.36,0c-.34,0-.45.13-.48.46-.08,1-.19,1.92-.28,2.88a.38.38,0,0,1-.45.4c-.48,0-1,0-1.45,0-.29,0-.43.08-.42.4,0,.47,0,.94,0,1.4,0,.32.14.41.43.4s.78,0,1.17,0,.47.14.43.48c-.1.83-.19,1.67-.26,2.51,0,.31-.14.45-.46.44-.5,0-1,0-1.5,0-.28,0-.4.11-.39.39,0,.47,0,.94,0,1.4,0,.31.14.41.43.4s.69,0,1,0c.62,0,.64,0,.57.64-.11,1-.2,2-.32,3,0,.35.05.53.44.51a9.62,9.62,0,0,1,1.26,0c.44,0,.56-.17.59-.57.08-1,.2-2.08.29-3.12,0-.3.15-.45.47-.44S66,53.68,66.28,53.68Z" transform="translate(0)"/><path class="cls-2" d="M44.94,79.2c-1.4-.09-2.8-.12-4.19-.29a24.1,24.1,0,0,1-2.94-.67,21.41,21.41,0,0,1-2.36-.68c-1.28-.49-2.55-1-3.77-1.59a26.43,26.43,0,0,1-4.84-3.14,29.54,29.54,0,0,1-6.78-7.77,27.82,27.82,0,0,1-2.77-6.2,30.9,30.9,0,0,1-1-4.72,29.81,29.81,0,0,1-.11-7,20,20,0,0,1,1.12-5.27c.47-1.26.87-2.56,1.44-3.78a37,37,0,0,1,2.1-3.79,24.74,24.74,0,0,1,4-4.76,26.18,26.18,0,0,1,6.46-4.7,32,32,0,0,1,3.6-1.65c1.52-.53,3.1-.9,4.67-1.29A26.87,26.87,0,0,1,47,21.47a21.76,21.76,0,0,1,5.82,1,38.86,38.86,0,0,1,4.37,1.6,25.07,25.07,0,0,1,4.07,2.34,38.08,38.08,0,0,1,4.51,3.74,24.58,24.58,0,0,1,4.08,5.32c.14.25,0,.34-.15.44l-2.13,1.24-3.75,2.15L60.2,41.45c-.73.42-1.46.83-2.17,1.27-.32.2-.53.18-.73-.14a14.09,14.09,0,0,0-4.78-4.7,14.52,14.52,0,0,0-9.17-2,11.19,11.19,0,0,0-3.86,1,14.91,14.91,0,0,0-6,4.55,14.28,14.28,0,0,0-2.88,11.36,15.43,15.43,0,0,0,2,5.2,13,13,0,0,0,4.48,4.55,19.48,19.48,0,0,0,3.14,1.59,10.14,10.14,0,0,0,3.48.75c.84,0,1.68,0,2.52,0A12.16,12.16,0,0,0,50,64a14.52,14.52,0,0,0,3.17-1.63,12.91,12.91,0,0,0,3.27-3.09c.32-.44.61-.9,1-1.32a.54.54,0,0,1,.5-.1c1.67,1,3.33,1.94,5,2.91l4.64,2.67c.7.4,1.38.83,2.09,1.21.31.17.31.33.14.59-.58.85-1.09,1.75-1.74,2.54a39.49,39.49,0,0,1-3,3.37A26.21,26.21,0,0,1,58.29,76c-1.43.7-2.95,1.22-4.43,1.8a23.87,23.87,0,0,1-3.86,1A28.82,28.82,0,0,1,44.94,79.2Z" transform="translate(0)"/><path class="cls-3" d="M66.28,53.68c-.33,0-.66,0-1,0s-.44.13-.47.44c-.09,1-.21,2.08-.29,3.12,0,.4-.16.6-.59.57a9.62,9.62,0,0,0-1.26,0c-.39,0-.48-.16-.44-.51.11-1,.2-2,.32-3,.07-.6,0-.63-.57-.64-.34,0-.69,0-1,0s-.44-.1-.43-.4c0-.47,0-.94,0-1.4,0-.28.12-.39.39-.39.5,0,1,0,1.5,0,.32,0,.44-.13.46-.44.07-.84.16-1.67.26-2.51,0-.34-.08-.49-.43-.48s-.78,0-1.17,0-.44-.08-.43-.4c0-.47,0-.94,0-1.4,0-.31.13-.41.42-.4.48,0,1,0,1.45,0a.38.38,0,0,0,.45-.4c.09-1,.2-1.92.28-2.88,0-.33.14-.48.48-.46a13,13,0,0,0,1.36,0c.43,0,.5.17.46.54-.11.91-.18,1.83-.29,2.74,0,.36.06.48.41.47.62,0,1.25,0,1.87,0,.41,0,.55-.15.58-.53.08-.91.2-1.83.27-2.74,0-.35.14-.5.5-.48s1,0,1.45,0c.3,0,.37.13.34.41-.11.94-.19,1.89-.31,2.83,0,.37.05.52.44.51s.87,0,1.31,0c.26,0,.37.11.36.36,0,.48,0,1,0,1.45,0,.28-.12.39-.39.38-.48,0-1,0-1.45,0s-.56.13-.59.52c-.06.81-.15,1.61-.25,2.42,0,.34,0,.5.41.49s.78,0,1.17,0,.46.1.45.43,0,.9,0,1.36c0,.3-.11.42-.41.41-.48,0-1,0-1.45,0-.31,0-.45.1-.48.42-.09,1-.2,2-.29,3.07-.05.59-.08.62-.67.62-.37,0-.75,0-1.12,0s-.55-.16-.5-.55c.11-1,.2-2,.32-3.07,0-.38-.06-.52-.44-.5S66.61,53.68,66.28,53.68Zm.25-2.2h0c.31,0,.62,0,.93,0s.53-.14.56-.5q.11-1.25.25-2.5c0-.31-.08-.42-.38-.42-.67,0-1.34,0-2,0-.32,0-.45.15-.47.44-.09.88-.19,1.76-.25,2.64,0,.11.18.31.3.33A8.76,8.76,0,0,0,66.53,51.48Z" transform="translate(0)"/><path class="cls-1" d="M66.53,51.48a8.76,8.76,0,0,1-1.07,0c-.12,0-.31-.22-.3-.33.06-.88.16-1.76.25-2.64,0-.29.15-.44.47-.44.67,0,1.34,0,2,0,.3,0,.42.11.38.42Q68.12,49.73,68,51c0,.36-.18.53-.56.5s-.62,0-.93,0Z" transform="translate(0)"/><path d="M43.63,99.88a7.28,7.28,0,0,1-3.53-1.06c-.7-.39-1.39-.79-2.05-1.19l-1.17-.69-.62-.36-.49-.28a1,1,0,1,1,1-1.82l.48.28.63.36,1.19.7c.65.39,1.33.79,2,1.16a4.88,4.88,0,0,0,2.74.79c.36,0,.71,0,1.05,0a9.23,9.23,0,0,0,.94,0,4.85,4.85,0,0,0,1.36-.26,11.62,11.62,0,0,0,1.45-.76l.44-.25c2.27-1.29,4.71-2.68,7.15-4.08L58.6,91l2.27-1.32L63,88.47l2.27-1.29,2.4-1.4,2.14-1.25,8.35-4.82,1.36-.79c1.18-.69,2.41-1.41,3.65-2.06a7.21,7.21,0,0,0,3.14-3,7,7,0,0,0,1-3.44c0-5,0-10.08,0-15q0-2.72,0-5.45V42.57a1,1,0,0,1,2.1,0V50q0,2.72,0,5.45c0,4.91,0,10,0,15a9,9,0,0,1-1.21,4.44,9.24,9.24,0,0,1-4,3.85c-1.2.63-2.4,1.34-3.57,2l-1.37.8L70.9,86.33l-2.13,1.25L66.35,89l-2.29,1.3-2.15,1.22-2.25,1.31-2.37,1.38c-2.44,1.4-4.89,2.79-7.16,4.09l-.42.24a13.38,13.38,0,0,1-1.71.89,6.74,6.74,0,0,1-2,.41,11,11,0,0,1-1.16,0c-.31,0-.6,0-.87,0Z" transform="translate(0)"/><path class="cls-4" d="M41,92.69" transform="translate(0)"/><path d="M30.61,93.18a1,1,0,0,1-.52-.14l-2.9-1.66-1.82-1.06-1.75-1L21.38,88l-2.25-1.28-1.82-1.06-2.07-1.21L12.15,82.7,8.73,80.75c-1.41-.81-2.78-1.62-4.07-2.41A11.34,11.34,0,0,1,3,77.13,9.84,9.84,0,0,1,.32,72.42,10.14,10.14,0,0,1,0,69.34v-.09Q0,63.14,0,57C0,48.1,0,38.87,0,29.79a9.66,9.66,0,0,1,2.37-6.25,9.28,9.28,0,0,1,2.94-2.23c.61-.32,1.19-.68,1.81-1.05l1.08-.65,1.73-1,1.31-.74,1.27-.74,1.39-.81,1.38-.78,1.81-1,2-1.15L21.35,12l2.27-1.29,2.22-1.26,1.9-1.11,2-1.17,2.8-1.59,1.89-1.07,1.44-.81c1.18-.66,2.4-1.34,3.55-2.06A9.62,9.62,0,0,1,45,0a9.37,9.37,0,0,1,5.17,1.72,15.58,15.58,0,0,0,1.36.82l.47.27,2.4,1.35.3.17.92.51,1.6.9,1,.59L59,6.8l1.14.65L61,8l.95.56,1.17.68,1.68.95,1.32.74,1.25.72,1.57.91L71,13.74l1.54.9,2.19,1.28,1.42.81,1.25.7,1.8,1,2.22,1.28,1.29.72c.81.45,1.65.91,2.46,1.41a6.72,6.72,0,0,1,2.3,2.24c.12.2.26.41.41.62a7,7,0,0,1,1,2l0,.06a7.79,7.79,0,0,1,.4,2.23q0,3.52,0,7v.83a1,1,0,0,1-1,1h0a1,1,0,0,1-1-1v-.83q0-3.53,0-7.05A6,6,0,0,0,87,27.38l0-.06a5.19,5.19,0,0,0-.76-1.4c-.16-.23-.32-.47-.47-.72a4.69,4.69,0,0,0-1.61-1.54c-.76-.47-1.58-.92-2.36-1.35l-1.32-.73-2.24-1.29-1.8-1-1.23-.69-1.44-.82-2.2-1.28L70,15.56l-2.1-1.21-1.57-.91-1.23-.71L63.78,12l-1.69-1-1.19-.7L60,9.79l-.9-.51L57.9,8.61l-.81-.49-.93-.56-1.57-.88-.93-.51L53.35,6,50.93,4.63l-.46-.26a17.39,17.39,0,0,1-1.55-.94,7.21,7.21,0,0,0-4-1.34,7.49,7.49,0,0,0-4.36,1.33c-1.2.76-2.44,1.45-3.65,2.12l-1.43.8-1.9,1.07L30.78,9l-2,1.16-1.92,1.13-2.24,1.27-2.25,1.28-2.27,1.33-2,1.16-1.83,1-1.37.78-1.38.8-1.28.75L11,20.45l-1.71,1-1,.62c-.62.38-1.26.76-1.92,1.12A7.36,7.36,0,0,0,4,24.87a7.62,7.62,0,0,0-1.89,4.92c0,9.08,0,18.31,0,27.24q0,6.11,0,12.23v.09a8.43,8.43,0,0,0,.23,2.47,7.77,7.77,0,0,0,2,3.76,9.47,9.47,0,0,0,1.39,1c1.28.78,2.63,1.58,4,2.38l3.41,1.94,3.1,1.76,2.09,1.22,1.8,1.06,2.24,1.28,2.25,1.28,1.77,1,1.8,1.05,2.89,1.65a1,1,0,0,1-.52,2Z" transform="translate(0)"/></svg>