<svg id="Layer_1" data-name="Layer 1" xmlns="http://www.w3.org/2000/svg" viewBox="0 0 126.24 99.83"><defs><style>.cls-1{fill:#d88c12;}.cls-2{fill:#ffde52;}</style></defs><title>C++</title><path class="cls-1" d="M115.54,98.78H10.7a9.65,9.65,0,0,1-9.65-9.65V10.7A9.65,9.65,0,0,1,10.7,1.06H115.54a9.65,9.65,0,0,1,9.65,9.65V89.13A9.65,9.65,0,0,1,115.54,98.78Z"/><path class="cls-2" d="M70.26,52.56v6.6a2.64,2.64,0,0,0,5.28,0v-6.6h6.6a2.64,2.64,0,1,0,0-5.28h-6.6v-6.6a2.64,2.64,0,0,0-5.28,0v6.6h-6.6a2.64,2.64,0,1,0,0,5.28Z"/><path class="cls-2" d="M92.71,52.56h6.6v6.6a2.64,2.64,0,1,0,5.28,0v-6.6h6.6a2.64,2.64,0,1,0,0-5.28h-6.6v-6.6a2.64,2.64,0,1,0-5.28,0v6.6h-6.6a2.64,2.64,0,0,0,0,5.28Z"/><path class="cls-2" d="M55.09,67.28a2.64,2.64,0,1,0-4-3.47A18.74,18.74,0,0,1,37,70.25h-.53A18.77,18.77,0,0,1,17.69,51.5V48.33A18.77,18.77,0,0,1,36.44,29.58H37A18.74,18.74,0,0,1,51.1,36a2.64,2.64,0,0,0,4-3.47A24,24,0,0,0,37,24.3h-.53a24.06,24.06,0,0,0-24,24V51.5a24.06,24.06,0,0,0,24,24H37A24,24,0,0,0,55.09,67.28Z"/><path d="M115.54,99.83H10.7A10.72,10.72,0,0,1,0,89.13V10.7A10.72,10.72,0,0,1,10.7,0H115.54a10.72,10.72,0,0,1,10.7,10.7V74.44a1.06,1.06,0,1,1-2.12,0V10.7a8.6,8.6,0,0,0-8.59-8.59H10.7A8.6,8.6,0,0,0,2.12,10.7V89.13a8.6,8.6,0,0,0,8.59,8.59H115.54a8.6,8.6,0,0,0,8.59-8.59V83.61a1.06,1.06,0,1,1,2.12,0v5.52A10.72,10.72,0,0,1,115.54,99.83Z"/><path class="cls-2" d="M111.94,89.14H84.79a1.06,1.06,0,0,1,0-2.12h27.15a1.06,1.06,0,1,1,0,2.12Z"/><path class="cls-2" d="M80.66,89.14h-4a1.06,1.06,0,0,1,0-2.12h4a1.06,1.06,0,0,1,0,2.12Z"/></svg>