<svg id="Layer_1" data-name="Layer 1" xmlns="http://www.w3.org/2000/svg" viewBox="0 0 101.5 99.73"><defs><style>.cls-1{fill:#f9e9d2;}.cls-2{fill:#fcd392;}.cls-3{fill:#ffead4;}.cls-4{fill:#fff;}</style></defs><title>CHAT_BOT_DEVELOPMENT</title><path class="cls-1" d="M22.83,98.94a1.51,1.51,0,0,1-1.51-1.51V75.86C8.07,69,.78,56.89.78,41.78c0-23.36,21.49-41,50-41s50,17.63,50,41-21.47,41-50,41c-.93,0-1.85,0-2.76-.09l-.06,0-24.25,16a1.57,1.57,0,0,1-.84.25Z"/><path d="M22.83,99.73a2.33,2.33,0,0,1-1.08-.27,2.3,2.3,0,0,1-1.21-2V76.33A39.22,39.22,0,0,1,7.21,65,37,37,0,0,1,.54,48.78a.78.78,0,0,1,1.55-.25C4,60.25,10.74,69.46,21.69,75.16l.42.22V97.44a.74.74,0,0,0,.39.64.75.75,0,0,0,.33.08.79.79,0,0,0,.42-.13L47.78,81.8l.32.08c.87,0,1.76.09,2.65.09,28,0,49.18-17.28,49.18-40.19S78.79,1.57,50.75,1.57C26.46,1.57,6.57,14.94,2.39,34.09a.78.78,0,0,1-1.53-.33,37.3,37.3,0,0,1,6-13.63,43,43,0,0,1,11-10.68C27,3.27,38.32,0,50.75,0,79.68,0,101.5,18,101.5,41.78S79.68,83.54,50.75,83.54c-.89,0-1.77,0-2.62-.08l-24,15.89A2.35,2.35,0,0,1,22.83,99.73Z"/><path d="M.84,44.8a.78.78,0,0,1-.78-.75C0,43.3,0,42.53,0,41.78c0-1.1,0-2.2.14-3.29a.78.78,0,1,1,1.56.13c-.09,1-.14,2.1-.14,3.15,0,.73,0,1.47.05,2.2a.78.78,0,0,1-.74.82Z"/><path class="cls-2" d="M49.13,27.15c0-1.38,0-2.66,0-3.93,0-.46-.3-.47-.59-.58A6.33,6.33,0,1,1,57,16.23a6.24,6.24,0,0,1-4,6.34.9.9,0,0,0-.71,1c.05,1.14,0,2.28,0,3.53h.8c3.66,0,7.33,0,11,0a10.05,10.05,0,0,1,10.13,8.47,8.15,8.15,0,0,1,.12,1.67c0,.49.15.67.63.81A8.26,8.26,0,0,1,81.19,45a8.42,8.42,0,0,1-6,9.52,1,1,0,0,0-.9,1.05,10,10,0,0,1-9.68,8.73c-9.25,0-18.5,0-27.75,0a9.43,9.43,0,0,1-1.33-.13,10,10,0,0,1-8.38-8.87.68.68,0,0,0-.61-.7,8.52,8.52,0,0,1-.08-16.46c.53-.15.62-.39.63-.88a10,10,0,0,1,8.12-9.87,11.59,11.59,0,0,1,2.26-.2c3.62,0,7.24,0,10.86,0Z"/><path class="cls-3" d="M50.75,19.79a3.1,3.1,0,1,0-3.09-3.1A3.08,3.08,0,0,0,50.75,19.79Z"/><path d="M50.76,20.58h0a3.84,3.84,0,0,1-3.87-3.89,3.89,3.89,0,0,1,3.89-3.88,3.88,3.88,0,1,1,0,7.77Zm0-6.2a2.32,2.32,0,0,0-2.32,2.32A2.29,2.29,0,0,0,50.75,19h0a2.32,2.32,0,0,0,0-4.63Z"/><path class="cls-3" d="M74.46,51.26c2-.32,3.72-2.75,3.65-5.16-.07-2.2-1.87-4.53-3.65-4.71Z"/><path d="M73.68,52.18V40.53l.86.09c2.16.22,4.28,2.87,4.36,5.46.08,2.8-1.93,5.58-4.31,6Zm1.57-9.69v7.66a4.72,4.72,0,0,0,2.08-4A4.83,4.83,0,0,0,75.24,42.49Z"/><path class="cls-3" d="M27.06,41.35a5.21,5.21,0,0,0-3.64,5.51c.21,2.11,2,4.3,3.64,4.37Z"/><path d="M27.84,52,27,52c-2-.09-4.13-2.56-4.39-5.07a6,6,0,0,1,4.23-6.35l1-.24Zm-1.57-9.53a4.62,4.62,0,0,0-2.08,4.26,4.87,4.87,0,0,0,2.08,3.38Z"/><path class="cls-4" d="M43.66,42.2a4.77,4.77,0,1,1-4.72-4.81A4.77,4.77,0,0,1,43.66,42.2Zm-3.22,0a1.53,1.53,0,0,0-1.51-1.55,1.55,1.55,0,0,0-1.59,1.54,1.59,1.59,0,0,0,1.52,1.57A1.57,1.57,0,0,0,40.45,42.18Z"/><path d="M38.9,47.74h0A5.5,5.5,0,0,1,35,46.1a5.58,5.58,0,0,1-1.62-4,5.55,5.55,0,0,1,11.1.09h0A5.56,5.56,0,0,1,38.9,47.74Zm0-9.57a4,4,0,0,0-4,3.94A4,4,0,0,0,36.08,45a3.94,3.94,0,0,0,2.81,1.17h0a4,4,0,0,0,0-8Zm0,6.35h-.07a2.37,2.37,0,0,1-2.28-2.35,2.3,2.3,0,0,1,.7-1.65,2.33,2.33,0,0,1,1.7-.67,2.31,2.31,0,0,1,2.27,2.34h0a2.37,2.37,0,0,1-.73,1.69A2.29,2.29,0,0,1,38.91,44.52Zm0-3.11a.78.78,0,0,0-.55.22.75.75,0,0,0-.23.54.81.81,0,0,0,.76.78.73.73,0,0,0,.53-.21.8.8,0,0,0,.25-.56.74.74,0,0,0-.74-.76Z"/><path class="cls-4" d="M57.84,42.19A4.77,4.77,0,1,1,62.6,47,4.76,4.76,0,0,1,57.84,42.19Zm3.22,0a1.56,1.56,0,0,0,1.56,1.58,1.6,1.6,0,0,0,1.54-1.54,1.55,1.55,0,0,0-1.57-1.56A1.52,1.52,0,0,0,61.06,42.15Z"/><path d="M62.6,47.74h0a5.57,5.57,0,0,1-5.54-5.55h0a5.52,5.52,0,0,1,5.51-5.58h.06a5.47,5.47,0,0,1,3.87,1.6,5.57,5.57,0,0,1-3.9,9.53Zm-4-5.56a4,4,0,0,0,4,4h0a4,4,0,0,0,2.8-6.85,3.91,3.91,0,0,0-2.82-1.15,4,4,0,0,0-4,4Zm4,2.34A2.29,2.29,0,0,1,61,43.84a2.38,2.38,0,0,1-.7-1.69h0a2.34,2.34,0,0,1,4.67.06,2.39,2.39,0,0,1-2.32,2.32Zm-.76-2.36a.79.79,0,0,0,.23.57.74.74,0,0,0,.52.22h0a.82.82,0,0,0,.77-.77.74.74,0,0,0-.22-.54.78.78,0,0,0-.56-.23h0a.74.74,0,0,0-.75.75Z"/><path d="M50.73,55.26c-1.45,0-2.91,0-4.36,0a1.56,1.56,0,0,1-1.53-1,1.39,1.39,0,0,1,.3-1.67,2.1,2.1,0,0,1,1.24-.52c2.9,0,5.81,0,8.71,0a1.56,1.56,0,0,1,1.69,1.6,1.61,1.61,0,0,1-1.7,1.61C53.64,55.28,52.18,55.26,50.73,55.26Z"/><path d="M53.25,65.07H36.88a10,10,0,0,1-1.44-.13,10.85,10.85,0,0,1-9-9.57h0a9.3,9.3,0,0,1-.09-18h0s0-.07,0-.13a10.75,10.75,0,0,1,8.75-10.62,12.2,12.2,0,0,1,2.42-.22c2.67,0,5.39,0,8,0h2.86V26c0-.89,0-1.73,0-2.58l-.08,0a7.17,7.17,0,0,1-4.35-4.62,7,7,0,0,1,1-6.14,7.1,7.1,0,1,1,8.4,10.69,1,1,0,0,0-.2.1.88.88,0,0,0,0,.18c0,.82,0,1.62,0,2.48q0,.15,0,.31h11A10.92,10.92,0,0,1,73,30.68a.78.78,0,0,1-1.26.94,9.37,9.37,0,0,0-7.59-3.69H51.58v-.78c0-.38,0-.74,0-1.1,0-.83,0-1.62,0-2.39a1.66,1.66,0,0,1,1.22-1.82,5.45,5.45,0,0,0,3.49-5.57,5.54,5.54,0,1,0-10.83,2,5.61,5.61,0,0,0,3.41,3.62l.1,0a1.27,1.27,0,0,1,1,1.3c0,.9,0,1.79,0,2.74,0,.38,0,.77,0,1.17v.78H45.5c-2.63,0-5.34,0-8,0a10.7,10.7,0,0,0-2.11.18,9.23,9.23,0,0,0-7.5,9.12,1.51,1.51,0,0,1-1.2,1.62,7.73,7.73,0,0,0,.08,15,1.44,1.44,0,0,1,1.19,1.39,9.24,9.24,0,0,0,7.71,8.16,8.78,8.78,0,0,0,1.22.12h6c7.12,0,14.49,0,21.73,0a9.24,9.24,0,0,0,8.9-8A1.78,1.78,0,0,1,75,53.73a7.73,7.73,0,0,0-.19-14.87,1.47,1.47,0,0,1-1.19-1.59,7.33,7.33,0,0,0-.11-1.51c-.05-.3-.12-.61-.21-.92a.78.78,0,0,1,1.51-.41c.1.35.18.71.24,1.06a8.9,8.9,0,0,1,.13,1.83v0l.07,0A9,9,0,0,1,82,44.83a9.16,9.16,0,0,1-6.56,10.41.78.78,0,0,0-.27.11h0a.78.78,0,0,0-.06.28A10.76,10.76,0,0,1,64.63,65ZM26.37,55.25Z"/></svg>