<svg id="Layer_1" data-name="Layer 1" xmlns="http://www.w3.org/2000/svg" viewBox="0 0 144 100.15"><defs><style>.cls-1{fill:#fa2a01;}.cls-2{fill:#ffafa4;}</style></defs><title>Cocoapods</title><path class="cls-1" d="M97.69,39.91c-7.33,0-14.19.07-21-.1a3.3,3.3,0,0,1-2.27-2.1c-4.73-20.22-32.8-21.83-44.44-7.23C17.1,46.57,23.82,72.1,42.73,78.07c13.33,4.2,25-.68,31.26-13A4.13,4.13,0,0,1,76.77,63c6.73-.18,13.48-.1,20.75-.1A34,34,0,0,1,97,66.63a43.88,43.88,0,0,1-39.07,32.2C43.61,100,30.22,97.68,18.67,88.39c-15.32-12.32-21.45-34-15.27-54C9.17,15.66,25,3.1,44.9,1.33,59.35,0,72.62,2.81,83.8,12.58,91.91,19.65,96.19,28.76,97.69,39.91Z" transform="translate(0 0)"/><path class="cls-1" d="M123.8,95.83l-14.07-6.07C115,77.42,120,65.38,125.28,53.44a8.77,8.77,0,0,0,.06-7.84c-5.29-11.93-10.3-24-15.59-36.42l13.78-6c.62,1.16,1.24,2.13,1.68,3.17,5.69,13.36,11.38,26.72,17,40.12.56,1.35,1.09,3.22.6,4.42C136.62,65.79,130.28,80.58,123.8,95.83Z" transform="translate(0 0)"/><path d="M124.35,97.19l-16-6.88.4-.95q2.12-5,4.2-9.88c3.86-9.11,7.51-17.71,11.36-26.46a7.77,7.77,0,0,0,.06-7c-3.87-8.73-7.51-17.34-11.37-26.46q-2.09-4.95-4.23-10l-.4-.94L124,1.89l.45.84c.2.37.4.73.59,1.07A21.85,21.85,0,0,1,126.15,6L127,8c5.31,12.47,10.8,25.37,16.11,38.09.63,1.51,1.25,3.64.6,5.21-3.61,8.73-7.24,17.32-10,23.83a1,1,0,1,1-1.9-.81c2.76-6.51,6.39-15.09,10-23.82a5.7,5.7,0,0,0-.59-3.63c-5.31-12.72-10.79-25.61-16.1-38.08l-.87-2a20.33,20.33,0,0,0-1-2l-.16-.28-12,5.19q1.93,4.55,3.83,9c3.86,9.11,7.5,17.72,11.36,26.43a9.73,9.73,0,0,1-.06,8.67c-3.84,8.73-7.49,17.33-11.35,26.43l-3.79,8.93,12.18,5.25L127,85.72l2.21-5.18a1,1,0,1,1,1.9.81l-2.21,5.19-4.13,9.7Z" transform="translate(0 0)"/><path d="M51.37,100.15c-13.26,0-24.21-3.61-33.34-11C2.4,76.63-3.87,54.47,2.41,34.06A47.53,47.53,0,0,1,18.2,10.69,49.6,49.6,0,0,1,44.81.3C61-1.14,74,2.62,84.48,11.8c8,7,12.64,16.12,14.23,28l.16,1.17H92.65c-5.53,0-10.76,0-16-.1a4.26,4.26,0,0,1-3.25-2.89C71.52,30,65.64,24.41,57.25,22.52c-10-2.24-20.61,1.21-26.5,8.61a30.25,30.25,0,0,0-5,27.74c2.74,9,9,15.61,17.32,18.22,12.76,4,24-.63,30-12.45A5.06,5.06,0,0,1,76.75,62c5.09-.14,10.15-.12,15.5-.11H98.7L98.54,63c-.07.51-.12,1-.17,1.42A16,16,0,0,1,98,66.9,44.22,44.22,0,0,1,87.56,85.68a1,1,0,0,1-1.51-1.41A42.15,42.15,0,0,0,96,66.37a14.35,14.35,0,0,0,.33-2.13l0-.3H92.24c-5.34,0-10.38,0-15.44.11a3.25,3.25,0,0,0-1.89,1.54c-5,9.77-13.25,15-23,15a31.49,31.49,0,0,1-9.47-1.53c-8.93-2.81-15.73-10-18.67-19.59a32.31,32.31,0,0,1,5.38-29.63,26.56,26.56,0,0,1,13-8.66A30.58,30.58,0,0,1,57.7,20.5c9.2,2.07,15.64,8.26,17.68,17a2.6,2.6,0,0,0,1.3,1.3c5.23.13,10.45.11,16,.1H96.5c-1.67-10.76-6-19.12-13.37-25.52C73.06,4.56,60.59,1,45,2.36,25.55,4.09,10,16.47,4.39,34.67c-6,19.61,0,40.88,14.93,52.92C29.5,95.77,42.1,99.12,57.84,97.8a44,44,0,0,0,20.71-7.18,1,1,0,0,1,1.15,1.72A46.08,46.08,0,0,1,58,99.86Q54.6,100.15,51.37,100.15Z" transform="translate(0 0)"/><path class="cls-2" d="M132.53,33.23a.83.83,0,0,1-.76-.51L121.64,8.55a.83.83,0,0,1,1.52-.64l10.12,24.17a.83.83,0,0,1-.76,1.15Z" transform="translate(0 0)"/><path class="cls-2" d="M137.08,43.36a.83.83,0,0,1-.75-.49l-2.89-6.41a.83.83,0,1,1,1.51-.68l2.89,6.41a.83.83,0,0,1-.75,1.17Z" transform="translate(0 0)"/><path class="cls-2" d="M22.4,34.54a.83.83,0,0,1-.78-1.11c4.22-11.75,16.53-15.9,17.05-16.07a.83.83,0,1,1,.51,1.57C39,19,27.11,23,23.18,34A.83.83,0,0,1,22.4,34.54Z" transform="translate(0 0)"/><path class="cls-2" d="M42.35,17.73a.83.83,0,0,1-.1-1.65l3.89-.5a.83.83,0,1,1,.21,1.64l-3.89.5Z" transform="translate(0 0)"/></svg>