<svg id="Layer_1" data-name="Layer 1" xmlns="http://www.w3.org/2000/svg" viewBox="0 0 80.1 99.83"><defs><style>.cls-1{fill:#ee4323;}.cls-2{fill:#f97c6b;}</style></defs><title>codeigniter</title><path class="cls-1" d="M51.55,96.62c1-.58,2-1.1,2.95-1.69,3.87-2.46,6.9-5.64,8.26-10.12,1.53-5.08.53-9.82-2.25-14.25a28.17,28.17,0,0,0-8.24-8.33c-3.43-2.32-7-4.4-10.47-6.7a39.62,39.62,0,0,1-5.28-4.12c-2.48-2.35-3-4-2.74-7.36a2.43,2.43,0,0,0-.4.25c-3.8,3.65-6,9.25-2.38,14.8a56.28,56.28,0,0,0,4,5.07,7.59,7.59,0,0,1,1.79,7.1c-.75,2.77-3.66,4.42-6.85,4a6.06,6.06,0,0,1-5.21-5.59c0-1.21.19-2.42.3-3.63,0,0-.11,0-.14,0-4.36,3.14-7.67,7.07-9,12.37s.08,9.81,3.62,13.71a60.67,60.67,0,0,0,5,4.48c-.53-.16-1.37-.39-2.19-.68C14.85,93.32,8.78,89.07,4.86,82.16A27.75,27.75,0,0,1,1.56,65.28c.95-9.27,5.29-17,11.17-24A136.49,136.49,0,0,1,27.44,26.86a43.58,43.58,0,0,0,9.13-10.18c1.62-2.72,2.89-5.57,2.63-8.84a30,30,0,0,0-.71-3.48C40,6,41.58,7.35,42.9,8.91a22.2,22.2,0,0,1,5.37,11.9,22.27,22.27,0,0,1-1.11,8.6,60.61,60.61,0,0,0-1.61,7.06,8.67,8.67,0,0,0,2.19,7.08,6.32,6.32,0,0,0,6.34,2.08,5.94,5.94,0,0,0,5-4.31,8.15,8.15,0,0,0,0-2.07c1,.54,1.89,1,2.79,1.58,5.72,3.47,10.52,7.87,13.67,13.86C81,65,79.31,76.6,71.14,85.3A41.1,41.1,0,0,1,51.78,96.65.8.8,0,0,1,51.55,96.62Z"/><path class="cls-2" d="M60.49,70.56c2.78,4.42,3.79,9.17,2.25,14.25-1.35,4.48-4.39,7.67-8.26,10.12-.94.6-1.94,1.12-2.95,1.69a.8.8,0,0,0,.23,0A41.1,41.1,0,0,0,71.14,85.3C79.31,76.6,81,65,75.59,54.68c-3.15-6-8-10.38-13.67-13.86-.9-.55-1.84-1-2.79-1.58,0,.77,2.95,4.2,2.77,4.81C61.9,44.06,69.22,59.19,60.49,70.56Z"/><path d="M28.77,27.06a1.38,1.38,0,0,1-.93-2.41c.94-.85,1.76-1.63,2.51-2.38a1.38,1.38,0,1,1,2,1.95c-.78.79-1.64,1.6-2.61,2.48A1.38,1.38,0,0,1,28.77,27.06Z"/><path d="M30.09,99.83,24,97.94l-.5-.15c-.5-.15-1.12-.33-1.74-.55-8.36-3-14.27-7.68-18.08-14.4A29.19,29.19,0,0,1,.18,65.14c.88-8.61,4.53-16.47,11.49-24.72A120.85,120.85,0,0,1,23.4,28.6a1.38,1.38,0,0,1,1.85,2.06A118.27,118.27,0,0,0,13.78,42.19C7.2,50,3.75,57.39,2.93,65.42A26.49,26.49,0,0,0,6.07,81.48,27.57,27.57,0,0,0,18,92.65a15.39,15.39,0,0,1-3.58-14.58C15.78,72.9,18.91,68.6,24,64.93a1.45,1.45,0,0,1,1.14-.24l1.31.1-.12,1.39c0,.4-.08.79-.12,1.17A19.67,19.67,0,0,0,26,69.68a4.71,4.71,0,0,0,4,4.24c2.53.33,4.78-.93,5.33-3a6.24,6.24,0,0,0-1.52-5.86l-.8-1a43.77,43.77,0,0,1-3.25-4.24c-4.14-6.4-1.38-12.75,2.58-16.55a2.41,2.41,0,0,1,.55-.38l.09-.05,2.3-1.41-.2,2.69c-.22,3.05.23,4.28,2.31,6.26a38.18,38.18,0,0,0,5.1,4c1.64,1.09,3.35,2.16,5,3.19,1.8,1.13,3.67,2.29,5.47,3.51a29.65,29.65,0,0,1,8.63,8.74c3.16,5,4,10.2,2.41,15.38a17.45,17.45,0,0,1-3.67,6.57,36.94,36.94,0,0,0,9.73-7.42c7.71-8.21,9.33-19.33,4.24-29C71.61,50.07,67.3,45.71,61.2,42l-.74-.43,0,.12A7.27,7.27,0,0,1,54.34,47a7.67,7.67,0,0,1-7.64-2.54,10.06,10.06,0,0,1-2.5-8.18A62.19,62.19,0,0,1,45.84,29,21,21,0,0,0,46.9,21,20.66,20.66,0,0,0,41.85,9.81c-.39-.46-.8-.91-1.23-1.36a16.73,16.73,0,0,1-2.86,8.95c-.45.76-1,1.53-1.51,2.28A1.38,1.38,0,0,1,34,18c.5-.68,1-1.38,1.37-2.07,1.34-2.25,2.69-5,2.44-8a13.46,13.46,0,0,0-.39-2c-.1-.41-.2-.82-.3-1.29L36.16,0l3.32,3.4c.49.5,1,1,1.45,1.45C42,5.9,43,6.9,44,8a23.65,23.65,0,0,1,5.69,12.63,23.63,23.63,0,0,1-1.15,9.13,59.75,59.75,0,0,0-1.57,6.9,7.28,7.28,0,0,0,1.87,6,4.92,4.92,0,0,0,5,1.61,4.55,4.55,0,0,0,3.94-3.34,3.32,3.32,0,0,0,0-.88c0-.24,0-.52,0-.81V36.88L59.81,38l.89.5c.64.35,1.3.72,1.94,1.11,6.54,4,11.17,8.68,14.18,14.4a27.37,27.37,0,0,1,3,16.75,28.67,28.67,0,0,1-7.68,15.46A42.15,42.15,0,0,1,52.15,98a1.61,1.61,0,0,1-.75,0h0l-4.17-.49,3.66-2.09,1-.54c.67-.38,1.31-.73,1.92-1.12,4-2.56,6.55-5.62,7.67-9.35,1.34-4.44.65-8.73-2.1-13.11a26.9,26.9,0,0,0-7.84-7.92c-1.76-1.19-3.61-2.34-5.39-3.45S42.69,57.8,41,56.68a40.87,40.87,0,0,1-5.47-4.27,9,9,0,0,1-3-5c-1.69,2.45-3.27,6.43-.37,10.93a41.07,41.07,0,0,0,3.05,4l.81,1a8.94,8.94,0,0,1,2.05,8.34c-.92,3.41-4.44,5.52-8.36,5a7.42,7.42,0,0,1-6.42-7c0-.23,0-.45,0-.68a19.28,19.28,0,0,0-6.17,9.74c-1.17,4.54-.06,8.72,3.31,12.44a33.54,33.54,0,0,0,3.35,3.08c.53.45,1,.87,1.52,1.3Z"/><path class="cls-2" d="M6.83,76.89a.74.74,0,0,1-.72-.6A33.78,33.78,0,0,1,7.4,57.35a21.12,21.12,0,0,1,3.81-6.52.74.74,0,0,1,1.07,1A20.2,20.2,0,0,0,8.75,58,32.35,32.35,0,0,0,7.56,76a.74.74,0,0,1-.58.86Z"/><path class="cls-2" d="M10.39,85a.74.74,0,0,1-.57-.27,17.59,17.59,0,0,1-3.08-5.28A.74.74,0,0,1,8.15,79,16.47,16.47,0,0,0,11,83.79a.74.74,0,0,1-.57,1.2Z"/></svg>