<svg id="Layer_1" data-name="Layer 1" xmlns="http://www.w3.org/2000/svg" viewBox="0 0 95 99.97"><defs><style>.cls-1{fill:#00b8fa;}.cls-2{fill:#009ad2;}.cls-3{fill:#014059;}.cls-4{fill:#015e82;}.cls-5{fill:#ffe17a;}.cls-6{fill:#fff0bc;}.cls-7{fill:#9c27b0;}.cls-8{fill:#7b1fa2;}.cls-9{fill:#fff;}</style></defs><title>Convert_website_to_PWA</title><path class="cls-1" d="M56.73,85.69l-24,5.58-.59,2.08A7.86,7.86,0,0,1,25,98.73H64.44Zm0,0"/><path class="cls-2" d="M62.91,93.35l-2.19-7.66L47.5,80.11,34.28,85.69l-1.59,5.58h24l.59,2.08a7.86,7.86,0,0,0,7.12,5.37H70a7.86,7.86,0,0,1-7.12-5.37Zm0,0"/><path d="M70,100H25a1.24,1.24,0,1,1,0-2.48A6.62,6.62,0,0,0,30.9,93l2.19-7.66a1.24,1.24,0,0,1,.71-.8L47,79a1.24,1.24,0,0,1,1,0L61.2,84.55a1.24,1.24,0,0,1,.71.8L64.1,93h0A6.62,6.62,0,0,0,70,97.48,1.24,1.24,0,1,1,70,100ZM30.88,97.48H64.12a8.43,8.43,0,0,1-2.41-3.79h0l-2-7.09L47.5,81.46,35.31,86.61l-2,7.09A8.43,8.43,0,0,1,30.88,97.48Z"/><path class="cls-3" d="M82.59,66.15V85.69h5.58a5.6,5.6,0,0,0,5.58-5.58V74.53Zm0,0"/><path class="cls-4" d="M1.24,74.53v5.58a5.6,5.6,0,0,0,5.58,5.58H82.59a5.6,5.6,0,0,0,5.58-5.58v-14Zm0,0"/><path class="cls-5" d="M82.59,26.68l-20,23.92,25.6,23.92h5.58V32.27a5.58,5.58,0,0,0-5.58-5.58Zm0,0"/><path class="cls-6" d="M88.17,32.27a5.58,5.58,0,0,0-5.58-5.58H6.83a5.58,5.58,0,0,0-5.58,5.58V74.53H88.17Zm0,0"/><path d="M88.17,86.94H6.83A6.83,6.83,0,0,1,0,80.11V32.27a6.83,6.83,0,0,1,6.83-6.83h65a1.24,1.24,0,1,1,0,2.48h-65a4.35,4.35,0,0,0-4.34,4.34V80.11a4.35,4.35,0,0,0,4.34,4.34H88.17a4.35,4.35,0,0,0,4.34-4.34V32.27a4.35,4.35,0,0,0-4.34-4.34H81.63a1.24,1.24,0,0,1,0-2.48h6.55A6.83,6.83,0,0,1,95,32.27V80.11A6.83,6.83,0,0,1,88.17,86.94Z"/><path d="M92.76,75.77H1.24a1.24,1.24,0,1,1,0-2.48H92.76a1.24,1.24,0,1,1,0,2.48Z"/><polygon class="cls-7" points="18.58 11.83 47.5 1.32 76.42 11.83 71.8 49.99 47.5 63.72 22.8 50.06 18.58 11.83"/><polyline class="cls-8" points="47.5 1.32 76.42 11.83 71.8 49.99 47.5 63.72"/><path d="M47.51,65.14,21.63,50.84,17.24,11,47.5,0,77.77,11,77,17.43a1.24,1.24,0,0,1-2.46-.3l.54-4.47L47.5,2.64l-27.58,10,4,36.62,23.54,13L70.65,49.22,73.58,25a1.24,1.24,0,1,1,2.46.3L73,50.77Z"/><path class="cls-9" d="M54.46,25.9H58l0,.13L52.82,38.7c-.06.14-.11.29-.16.44H49.15a1.57,1.57,0,0,0,0-.2L47,32.16l-.22-.71-.08.21-.85,2.6-1.61,4.89H40.75a2.07,2.07,0,0,0-.09-.2l-1.6-2.74a.36.36,0,0,1,0-.33q.69-2.1,1.36-4.2l.35-1.08,2,3.89.09-.23,1.87-5.75.84-2.6H48.2v.05l2.52,8.33c0,.05,0,.1.07.18l.09-.19,2.57-6Z"/><path class="cls-9" d="M33.27,39.14H29.93V25.9h5.9c.31,0,.62.08.93.14a3.88,3.88,0,0,1,2.51,1.61.28.28,0,0,1,0,.27q-1,3.15-2,6.31a.23.23,0,0,1-.2.18,10.67,10.67,0,0,1-1.11.16c-.82,0-1.65,0-2.48,0-.16,0-.22,0-.21.2,0,.37,0,.75,0,1.12Q33.27,37.53,33.27,39.14Zm0-10.67a.62.62,0,0,0,0,.1c0,1.11,0,2.21,0,3.32,0,.11,0,.14.15.14.53,0,1.07,0,1.6,0a1.5,1.5,0,0,0,1.57-1.24,2.81,2.81,0,0,0,0-.9,1.46,1.46,0,0,0-1.23-1.33,2.25,2.25,0,0,0-.45-.06Z"/><path class="cls-9" d="M61.38,39.14a1.14,1.14,0,0,0,0-.15c-.25-.69-.5-1.39-.74-2.08a.2.2,0,0,0-.23-.15H55.82c0-.08,0-.13.06-.18.29-.74.59-1.48.87-2.22A.21.21,0,0,1,57,34.2h2.76l-.07-.2-1.26-3.53a.43.43,0,0,1,0-.33l1.59-4,.07-.18.09.23L65,39a1.53,1.53,0,0,0,.08.15.62.62,0,0,1-.14,0Z"/></svg>