<svg id="Layer_1" data-name="Layer 1" xmlns="http://www.w3.org/2000/svg" viewBox="0 0 104.5 100.05"><defs><style>.cls-1{fill:#32383d;}</style></defs><title>CORDOVA</title><path class="cls-1" d="M93.86,98.6H77.51l1.13-13.71h-8.2L69.26,98.6h-34L34,84.85H25.84L27,98.59H10.59Q9.72,93,8.84,87.36q-2.86-18.5-5.7-37C2.57,46.64,2,42.92,1.46,39.2a2.38,2.38,0,0,1,.36-1.45Q12.87,20,24,2.3a2,2,0,0,1,1.46-.82q26.78-.06,53.57,0a2,2,0,0,1,1.47.79Q91.65,20,102.73,37.84a2.14,2.14,0,0,1,.31,1.33Q100.47,56.11,97.85,73,96,84.83,94.21,96.62C94.11,97.27,94,97.92,93.86,98.6ZM44,19.9c-4.89,0-9.57,0-14.24,0-.44,0-1,.61-1.27,1.07q-4.16,8.18-8.2,16.43a4.4,4.4,0,0,0-.37,2.33c1.07,8.95,2.2,17.89,3.33,26.84.37,3,.75,5.91,1.13,8.87H80.06c.1-.61.21-1.13.28-1.66q2.15-17.15,4.27-34.3a3.36,3.36,0,0,0-.26-1.8c-2.79-5.67-5.64-11.3-8.44-17a1.48,1.48,0,0,0-1.6-.89c-4.2,0-8.4,0-12.59,0-.37,0-.74.06-1.22.09l.91,6.77H43.07Z" transform="translate(0 0)"/><ellipse cx="38.12" cy="55.74" rx="2.4" ry="9.38"/><ellipse cx="66.5" cy="55.74" rx="2.4" ry="9.38"/><path d="M95.07,100.05H75.94l1.13-13.71h-5.3L70.59,100H33.9L32.71,86.3H27.42L28.54,100H9.35l-.74-4.72Q8,91.45,7.41,87.58q-2.86-18.5-5.7-37l-.27-1.75C1,45.74.47,42.55,0,39.4A3.84,3.84,0,0,1,.59,37C9.13,23.27,16.17,12,22.76,1.53A3.44,3.44,0,0,1,25.44,0C43.1,0,61.13,0,79,0a3.44,3.44,0,0,1,2.7,1.47C88.16,11.75,95.23,23.05,104,37.07a3.58,3.58,0,0,1,.51,2.31q-1.26,8.29-2.53,16.57a1.45,1.45,0,1,1-2.86-.44q1.27-8.28,2.53-16.57a.82.82,0,0,0-.11-.35c-8.72-14-15.78-25.29-22.22-35.52a.85.85,0,0,0-.3-.15c-17.86,0-35.86,0-53.5,0a.85.85,0,0,0-.29.17C18.61,13.56,11.58,24.81,3.05,38.51A1.06,1.06,0,0,0,2.9,39c.44,3.12.93,6.3,1.4,9.38l.27,1.75q2.85,18.5,5.7,37,.6,3.87,1.21,7.74l.35,2.27H25.4L24.27,83.4H35.37l1.19,13.75H67.93l1.18-13.71h11.1L79.08,97.15H92.65c0-.25.09-.51.13-.76q1.25-8.1,2.5-16.2l.13-.83a1.45,1.45,0,1,1,2.86.44l-.13.83q-1.25,8.1-2.5,16.2c-.07.46-.15.92-.24,1.38l-.11.64Zm-15.78-97h0Zm-54.08,0h0ZM81.28,76.94H23.12l-.52-4.07q-.39-3-.77-6.07l-.52-4.12C20.37,55.23,19.4,47.53,18.5,40a5.85,5.85,0,0,1,.5-3.13c2.46-5,5.14-10.42,8.21-16.45a3.33,3.33,0,0,1,2.54-1.87c3.67-.06,7.28-.06,11.11-.05h4.81l-.94,6.87h15l-.89-6.65,1.52-.12.42,0a9.09,9.09,0,0,1,.92-.06H66c2.74,0,5.57,0,8.35,0a2.94,2.94,0,0,1,2.9,1.7c1.35,2.73,2.73,5.49,4.06,8.17,1.44,2.88,2.93,5.86,4.37,8.8A4.76,4.76,0,0,1,86,39.71h0c-1.32,10.8-2.7,21.77-4,32.38L81.77,74c0,.39-.12.76-.19,1.16l-.1.56ZM25.67,74H78.84c0-.13,0-.26.06-.39l.24-1.92c1.33-10.61,2.71-21.58,4-32.38h0a2,2,0,0,0-.12-1c-1.44-2.93-2.93-5.9-4.37-8.78-1.34-2.68-2.72-5.45-4.07-8.18l0-.07h-.25c-2.79,0-5.63,0-8.37,0H62.14l.92,6.87H41.41l.94-6.87h-1.5c-3.73,0-7.26,0-10.83,0a1.23,1.23,0,0,0-.23.29c-3.06,6-5.74,11.39-8.19,16.41a3,3,0,0,0-.23,1.52c.91,7.57,1.87,15.27,2.81,22.71l.52,4.12q.38,3,.77,6.06ZM84.6,39.53h0ZM74.54,21.3ZM98.15,72.54l-.22,0a1.45,1.45,0,0,1-1.21-1.65L97.77,64a1.45,1.45,0,0,1,2.86.44l-1.05,6.85A1.45,1.45,0,0,1,98.15,72.54Z" transform="translate(0 0)"/></svg>