<svg id="Layer_1" data-name="Layer 1" xmlns="http://www.w3.org/2000/svg" viewBox="0 0 106.82 99.75"><defs><style>.cls-1{fill:#00f3ff;}.cls-2{fill:#b7b142;}.cls-3{fill:#e0dc38;}.cls-4{fill:#dd9e00;}.cls-5{fill:#00a5a5;}</style></defs><title>core_data</title><path class="cls-1" d="M99.28,38.25V10.7A1.39,1.39,0,0,0,97.9,9.32H42.21A1.38,1.38,0,0,1,41,8.65L36.4.95A1.39,1.39,0,0,0,35.21.28H10.27A1.4,1.4,0,0,0,8.88,1.66V38.25Zm0,0"/><rect class="cls-2" x="14.31" y="31.02" width="79.56" height="7.23"/><rect class="cls-3" x="16.11" y="25.59" width="75.95" height="5.43"/><rect class="cls-4" x="17.92" y="20.17" width="72.33" height="5.42"/><path class="cls-5" d="M97,97.91H11a.48.48,0,0,1-.48-.41L1.65,38.81a.49.49,0,0,1,.49-.57H105.87a.49.49,0,0,1,.49.57L97.46,97.5a.5.5,0,0,1-.49.41Zm0,0"/><rect class="cls-1" x="50.39" y="63.56" width="34.35" height="21.7"/><path d="M57.62,72.6h7.23a1.8,1.8,0,1,0,0-3.61H57.62a1.8,1.8,0,1,0,0,3.61Zm0,0"/><path d="M72.08,72.6h1.81a1.8,1.8,0,1,0,0-3.61H72.08a1.8,1.8,0,1,0,0,3.61Zm0,0"/><path d="M77.51,76.22H57.62a1.8,1.8,0,1,0,0,3.61H77.51a1.8,1.8,0,0,0,0-3.61Zm0,0"/><path d="M84.74,85.79H50.39a.53.53,0,0,1-.53-.53V63.56a.53.53,0,0,1,.53-.53H84.74a.53.53,0,0,1,.53.53V77.39a.53.53,0,1,1-1.06,0V64.09H50.92V84.74h33.3V81a.53.53,0,0,1,1.06,0v4.27A.53.53,0,0,1,84.74,85.79Z"/><rect x="7.37" y="38.04" width="91.91" height="2.11"/><path d="M96.39,99.75H10.44a1.53,1.53,0,0,1-1.53-1.32L0,39.75A1.55,1.55,0,0,1,1.55,38H7.23V2.44A2.45,2.45,0,0,1,9.68,0H34.62a2.45,2.45,0,0,1,2.1,1.19l4.61,7.69a.32.32,0,0,0,.29.16H97.3a2.44,2.44,0,0,1,2.44,2.44V38h5.53a1.55,1.55,0,0,1,1.53,1.78l-6.47,42.74a1.06,1.06,0,0,1-2.09-.32l6.38-42.09H98.69A1.06,1.06,0,0,1,97.63,39V11.48a.33.33,0,0,0-.33-.33H41.62A2.45,2.45,0,0,1,39.52,10L34.91,2.27a.34.34,0,0,0-.28-.16H9.68a.34.34,0,0,0-.34.33V39a1.06,1.06,0,0,1-1.06,1.06H2.21l8.72,57.55h85l1.65-9.41a1.06,1.06,0,1,1,2.08.37l-1.74,9.87A1.56,1.56,0,0,1,96.39,99.75ZM11,98.11h0Z"/></svg>