<svg id="Layer_1" data-name="Layer 1" xmlns="http://www.w3.org/2000/svg" viewBox="0 0 82.25 100"><defs><style>.cls-1{fill:#f9f3bd;}.cls-2{fill:#00e2e2;}.cls-3{fill:#fff;}.cls-4{fill:#9ff;}</style></defs><title>costomised_mobile_appkication_development</title><path class="cls-1" d="M53.43,1.07H5.82A4.77,4.77,0,0,0,1.07,5.82V94.18a4.77,4.77,0,0,0,4.75,4.75H53.43a4.77,4.77,0,0,0,4.75-4.75V5.82A4.77,4.77,0,0,0,53.43,1.07Z"/><path d="M53.43,100H5.82A5.82,5.82,0,0,1,0,94.18V5.82A5.82,5.82,0,0,1,5.82,0H53.43a5.82,5.82,0,0,1,5.82,5.82V9.9a1.07,1.07,0,1,1-2.13,0V5.82a3.69,3.69,0,0,0-3.69-3.69H5.82A3.69,3.69,0,0,0,2.13,5.82V94.18a3.69,3.69,0,0,0,3.69,3.69H53.43a3.69,3.69,0,0,0,3.69-3.69V16.12a1.07,1.07,0,1,1,2.13,0V94.18A5.82,5.82,0,0,1,53.43,100Z"/><path class="cls-2" d="M33.75,93.59H25.5a2.24,2.24,0,0,1-2.23-2.23V90.24A2.24,2.24,0,0,1,25.5,88h8.24A2.24,2.24,0,0,1,36,90.24v1.12A2.24,2.24,0,0,1,33.75,93.59Z"/><path d="M33.75,94.45H25.5a3.09,3.09,0,0,1-3.08-3.08V90.24a3.09,3.09,0,0,1,3.08-3.08h8.24a3.09,3.09,0,0,1,3.08,3.08v1.12A3.09,3.09,0,0,1,33.75,94.45ZM25.5,88.86a1.38,1.38,0,0,0-1.38,1.38v1.12a1.38,1.38,0,0,0,1.38,1.38h8.24a1.38,1.38,0,0,0,1.38-1.38V90.24a1.38,1.38,0,0,0-1.38-1.38Z"/><path class="cls-2" d="M80.78,50.6h-5.6a14.13,14.13,0,0,0-1.75-4.24l4-4a.62.62,0,0,0,0-.87l-3.72-3.72a.62.62,0,0,0-.87,0l-4,4A14.13,14.13,0,0,0,64.6,40v-5.6A.62.62,0,0,0,64,33.8H58.72a.62.62,0,0,0-.62.62V40a14.12,14.12,0,0,0-4.24,1.75l-4-4a.62.62,0,0,0-.87,0l-3.72,3.72a.62.62,0,0,0,0,.87l4,4a14.13,14.13,0,0,0-1.75,4.24h-5.6a.62.62,0,0,0-.62.62v5.26a.62.62,0,0,0,.62.62h5.6a14.13,14.13,0,0,0,1.75,4.24l-4,4a.62.62,0,0,0,0,.87L49,69.89a.62.62,0,0,0,.87,0l4-4a14.13,14.13,0,0,0,4.24,1.75v5.6a.62.62,0,0,0,.62.62H64a.62.62,0,0,0,.62-.62v-5.6a14.13,14.13,0,0,0,4.24-1.75l4,4a.62.62,0,0,0,.87,0l3.72-3.72a.62.62,0,0,0,0-.87l-4-4a14.13,14.13,0,0,0,1.75-4.24h5.6a.62.62,0,0,0,.62-.62V51.22A.62.62,0,0,0,80.78,50.6ZM61.35,60.29a6.44,6.44,0,1,1,6.44-6.44A6.44,6.44,0,0,1,61.35,60.29Z"/><path class="cls-3" d="M32.73,10H26.52a1.48,1.48,0,0,1,0-3h6.21a1.48,1.48,0,1,1,0,3Z"/><path d="M32.73,10.89H26.52a2.33,2.33,0,1,1,0-4.66h6.21a2.33,2.33,0,1,1,0,4.66Zm-6.21-3a.62.62,0,0,0,0,1.25h6.21a.62.62,0,0,0,0-1.25Z"/><path class="cls-4" d="M45.39,56.48V51.22A.62.62,0,0,1,46,50.6H41.92a.62.62,0,0,0-.62.62v5.26a.62.62,0,0,0,.62.62H46A.62.62,0,0,1,45.39,56.48Z"/><path class="cls-4" d="M49.27,46.36a14.13,14.13,0,0,0-1.75,4.24h3.31a.82.82,0,0,0,.79-.6A14.12,14.12,0,0,1,53,46.7a.51.51,0,0,0-.08-.62l-3.68-3.68a.62.62,0,0,1,0-.87l2.19-2.19-1.53-1.53a.62.62,0,0,0-.87,0l-3.72,3.72a.62.62,0,0,0,0,.87Z"/><path class="cls-4" d="M49.25,66.17a.62.62,0,0,1,0-.87l3.61-3.61a.62.62,0,0,0,.1-.75,14.13,14.13,0,0,1-1.4-3.39A.6.6,0,0,0,51,57.1H47.52a14.13,14.13,0,0,0,1.75,4.24l-4,4a.62.62,0,0,0,0,.87L49,69.89a.62.62,0,0,0,.87,0l1.53-1.53Z"/><path class="cls-4" d="M62,34.42a.62.62,0,0,1,.62-.62H58.72a.62.62,0,0,0-.62.62V40h3.06a1,1,0,0,0,.87-1Z"/><path class="cls-4" d="M62,73.28v-5a.61.61,0,0,0-.61-.61H58.1v5.6a.62.62,0,0,0,.62.62h3.94A.62.62,0,0,1,62,73.28Z"/><path d="M64,74.75H58.72a1.47,1.47,0,0,1-1.47-1.47V68.34A15,15,0,0,1,54,67l-3.49,3.49a1.47,1.47,0,0,1-2.08,0l-3.72-3.72a1.47,1.47,0,0,1,0-2.08L48.2,61.2A14.94,14.94,0,0,1,46.86,58H41.92a1.47,1.47,0,0,1-1.47-1.47V51.22a1.47,1.47,0,0,1,1.47-1.47h4.94A14.94,14.94,0,0,1,48.2,46.5L44.71,43a1.47,1.47,0,0,1,0-2.08l3.72-3.72a1.47,1.47,0,0,1,2.08,0L54,40.7a15,15,0,0,1,3.25-1.35V34.42a1.47,1.47,0,0,1,1.47-1.47H64a1.47,1.47,0,0,1,1.47,1.47v4.94A15,15,0,0,1,68.7,40.7l3.49-3.49a1.47,1.47,0,0,1,2.08,0L78,40.93A1.47,1.47,0,0,1,78,43L74.5,46.5a15,15,0,0,1,1.35,3.25h4.94a1.47,1.47,0,0,1,1.47,1.47v5.26A1.47,1.47,0,0,1,80.78,58H75.84A15,15,0,0,1,74.5,61.2l.89.89a.85.85,0,1,1-1.21,1.21l-1.84-1.84.36-.57a13.25,13.25,0,0,0,1.65-4l.15-.66h6V51.45h-6l-.15-.66a13.26,13.26,0,0,0-1.65-4l-.36-.57L76.62,42l-3.39-3.39L69,42.85l-.57-.36a13.26,13.26,0,0,0-4-1.65l-.66-.15v-6H59v6l-.66.15a13.25,13.25,0,0,0-4,1.65l-.57.36-4.27-4.27L46.08,42l4.27,4.27-.36.57a13.25,13.25,0,0,0-1.65,4l-.15.66h-6v4.79h6l.15.66a13.25,13.25,0,0,0,1.65,4l.36.57-4.27,4.27,3.39,3.39,4.27-4.27.57.36a13.26,13.26,0,0,0,4,1.65L59,67v6h4.79V67l.66-.15a13.25,13.25,0,0,0,4-1.65l.57-.36,4.27,4.27,3.39-3.39L76,65.14a.85.85,0,0,1,1.21-1.21l.76.76a1.47,1.47,0,0,1,0,2.08l-3.72,3.72a1.47,1.47,0,0,1-2.08,0L68.7,67a14.94,14.94,0,0,1-3.25,1.35v4.94A1.47,1.47,0,0,1,64,74.75ZM61.35,61.14a7.29,7.29,0,1,1,7.29-7.29A7.3,7.3,0,0,1,61.35,61.14Zm0-12.87a5.58,5.58,0,1,0,5.58,5.58A5.59,5.59,0,0,0,61.35,48.27Z"/><path d="M46,84.62H1.07a.85.85,0,1,1,0-1.7H46a.85.85,0,1,1,0,1.7Z"/><path d="M58.1,84.62H48.72a.85.85,0,1,1,0-1.7H58.1a.85.85,0,1,1,0,1.7Z"/></svg>