<svg id="Layer_1" data-name="Layer 1" xmlns="http://www.w3.org/2000/svg" viewBox="0 0 137 99.95"><defs><style>.cls-1{fill:#e4eaf8;}.cls-2{fill:#707487;}.cls-3{fill:#00bcbf;}</style></defs><title>CRM Development</title><path class="cls-1" d="M128.7,98.6H8.3a7,7,0,0,1-6.95-6.95V8.3A7,7,0,0,1,8.3,1.35H128.7a7,7,0,0,1,6.95,6.95V91.65A7,7,0,0,1,128.7,98.6Z"/><path class="cls-2" d="M8.3,98.6H33.77V1.35H8.3A7,7,0,0,0,1.35,8.3V91.65A7,7,0,0,0,8.3,98.6Z"/><path d="M54.46,10.62a2.17,2.17,0,0,0-2.17-2.17H43a2.17,2.17,0,1,0,0,4.34h9.26A2.17,2.17,0,0,0,54.46,10.62Z"/><path d="M10.62,12.79H24.51a2.17,2.17,0,1,0,0-4.34H10.62a2.17,2.17,0,1,0,0,4.34Z"/><path d="M24.51,31.6H10.62a2.17,2.17,0,1,0,0,4.34H24.51a2.17,2.17,0,1,0,0-4.34Z"/><path d="M24.51,50.12H10.62a2.17,2.17,0,1,0,0,4.34H24.51a2.17,2.17,0,1,0,0-4.34Z"/><path d="M24.51,68.64H10.62a2.17,2.17,0,1,0,0,4.34H24.51a2.17,2.17,0,0,0,0-4.34Z"/><path d="M24.51,40.86H10.62a2.17,2.17,0,1,0,0,4.34H24.51a2.17,2.17,0,0,0,0-4.34Z"/><path d="M24.51,59.38H10.62a2.17,2.17,0,1,0,0,4.34H24.51a2.17,2.17,0,1,0,0-4.34Z"/><path d="M19.88,82.54H10.62a2.17,2.17,0,1,0,0,4.34h9.26a2.17,2.17,0,1,0,0-4.34Z"/><path d="M10.62,22h9.26a2.17,2.17,0,1,0,0-4.34H10.62a2.17,2.17,0,1,0,0,4.34Z"/><path d="M70.82,8.44H61.55a2.17,2.17,0,0,0,0,4.34h9.26a2.17,2.17,0,0,0,0-4.34Z"/><path d="M80.08,12.79h9.26a2.17,2.17,0,1,0,0-4.34H80.08a2.17,2.17,0,1,0,0,4.34Z"/><path d="M110,10.62a2.17,2.17,0,0,0-2.17-2.17H98.6a2.17,2.17,0,0,0,0,4.34h9.26A2.17,2.17,0,0,0,110,10.62Z"/><path d="M126.38,8.44h-9.26a2.17,2.17,0,0,0,0,4.34h9.26a2.17,2.17,0,0,0,0-4.34Z"/><path class="cls-3" d="M56.92,42.89a9.34,9.34,0,0,1,7.53,3.77A2.17,2.17,0,0,0,67.93,44a13.75,13.75,0,1,0,0,16.49,2.17,2.17,0,1,0-3.47-2.61,9.41,9.41,0,1,1-7.53-15Z"/><path class="cls-3" d="M96.14,47.66A9.13,9.13,0,0,0,87,38.54H75.45a2.17,2.17,0,0,0-2.17,2.17V63.87a2.17,2.17,0,1,0,4.34,0V56.78h6l6.29,8.39a2.17,2.17,0,1,0,3.47-2.6l-4.49-6A9.13,9.13,0,0,0,96.14,47.66ZM87,52.44H77.62V42.89H87a4.78,4.78,0,0,1,0,9.55Z"/><path class="cls-3" d="M123.91,40.5a2.17,2.17,0,0,0-4.18-.59L112.49,58l-7.25-18.12a2.17,2.17,0,0,0-4.18.59L98.76,63.65a2.17,2.17,0,0,0,4.32.43l1.43-14.33,6,14.92a2.17,2.17,0,0,0,4,0l6-14.92,1.43,14.33a2.17,2.17,0,0,0,2.16,2h.22a2.17,2.17,0,0,0,1.94-2.38Z"/><path d="M128.7,100H8.3A8.31,8.31,0,0,1,0,91.65V8.3A8.31,8.31,0,0,1,8.3,0H128.7A8.31,8.31,0,0,1,137,8.3V91.65A8.31,8.31,0,0,1,128.7,100ZM8.3,2.71A5.6,5.6,0,0,0,2.71,8.3V91.65A5.6,5.6,0,0,0,8.3,97.25H128.7a5.6,5.6,0,0,0,5.59-5.59V8.3a5.6,5.6,0,0,0-5.59-5.59Z"/></svg>