<svg id="Layer_1" data-name="Layer 1" xmlns="http://www.w3.org/2000/svg" viewBox="0 0 115.634 100"><defs><style>.cls-1{fill:#f9f3bd;}.cls-2{fill:#fdbd40;}.cls-3{fill:#161616;}.cls-4{fill:#6d6d6d;}.cls-5{fill:#fcf05a;}</style></defs><title>cross_platform_application_development</title><rect class="cls-1" x="9.048" y="1.219" width="97.561" height="74.146" rx="7.805" ry="7.805"/><path class="cls-2" d="M9.048,59.756h97.561v7.8a7.8,7.8,0,0,1-7.8,7.8H16.853a7.8,7.8,0,0,1-7.8-7.8v-7.8Z"/><path class="cls-2" d="M44.17,42a1.951,1.951,0,0,1-1.38-3.331L62.108,19.352a1.951,1.951,0,0,1,2.759,2.759L45.55,41.428A1.938,1.938,0,0,1,44.17,42Z"/><path class="cls-2" d="M56.073,42a1.951,1.951,0,0,1-1.38-3.331L74.01,19.352a1.951,1.951,0,0,1,2.759,2.759L57.452,41.428a1.951,1.951,0,0,1-1.38.572Z"/><path class="cls-2" d="M61.731,10.976h-7.8a1.951,1.951,0,0,1,0-3.9h7.8a1.951,1.951,0,1,1,0,3.9Z"/><path d="M74.01,19.352,54.693,38.669A1.951,1.951,0,1,0,57.4,41.476l.048-.048L76.769,22.111a1.951,1.951,0,0,0-2.759-2.759Z"/><path d="M61.731,7.073h-7.8a1.951,1.951,0,0,0,0,3.9h7.8a1.951,1.951,0,1,0,0-3.9Z"/><path d="M98.8,76.585H16.853a9.035,9.035,0,0,1-9.024-9.024V9.024A9.035,9.035,0,0,1,16.853,0H98.8a9.035,9.035,0,0,1,9.024,9.024v6.748a1.22,1.22,0,0,1-2.439,0V9.024A6.593,6.593,0,0,0,98.8,2.439H16.853a6.593,6.593,0,0,0-6.585,6.585V67.561a6.593,6.593,0,0,0,6.585,6.585H98.8a6.593,6.593,0,0,0,6.585-6.585V22.927a1.22,1.22,0,0,1,2.439,0V67.561A9.035,9.035,0,0,1,98.8,76.585Z"/><path class="cls-3" d="M44.17,90.976H71.487a7.8,7.8,0,0,1,7.8,7.8H36.365A7.8,7.8,0,0,1,44.17,90.976Z"/><path class="cls-4" d="M51.975,75.366H63.682v15.61H51.975Z"/><rect class="cls-4" x="1.243" y="40.244" width="42.927" height="58.537" rx="3.902" ry="3.902"/><rect class="cls-4" x="91" y="51.951" width="23.415" height="46.829" rx="3.902" ry="3.902"/><path class="cls-5" d="M91,90.976h23.415v3.9a3.9,3.9,0,0,1-3.9,3.9H94.9a3.9,3.9,0,0,1-3.9-3.9v-3.9Z"/><path class="cls-5" d="M1.243,90.976H44.17v3.9a3.9,3.9,0,0,1-3.9,3.9H5.146a3.9,3.9,0,0,1-3.9-3.9v-3.9Z"/><path class="cls-5" d="M12.951,73.651a1.951,1.951,0,0,1-1.38-3.331l8.277-8.277a1.951,1.951,0,1,1,2.807,2.711l-.048.048L14.33,73.079A1.951,1.951,0,0,1,12.951,73.651Z"/><path class="cls-5" d="M24.658,73.651a1.951,1.951,0,0,1-1.38-3.331l8.277-8.277A1.951,1.951,0,0,1,34.315,64.8l-8.277,8.277A1.951,1.951,0,0,1,24.658,73.651Z"/><path class="cls-5" d="M99.948,76.174a1.951,1.951,0,0,1-1.38-3.331l5.518-5.518a1.951,1.951,0,0,1,2.759,2.759L101.327,75.6A1.951,1.951,0,0,1,99.948,76.174Z"/><path d="M57.868,69.512a1.951,1.951,0,1,1-.02-3.9h.02a1.951,1.951,0,0,1,0,3.9Z"/><path d="M22.607,62.043a1.951,1.951,0,0,0-2.759,0L11.571,70.32a1.951,1.951,0,0,0,2.711,2.807l.048-.048L22.607,64.8A1.951,1.951,0,0,0,22.607,62.043Z"/><path d="M31.556,62.043,23.279,70.32a1.951,1.951,0,0,0,2.711,2.807l.048-.048L34.315,64.8a1.951,1.951,0,0,0-2.759-2.759Z"/><path d="M104.086,67.325l-5.518,5.518a1.951,1.951,0,1,0,2.711,2.807l.048-.048,5.518-5.518a1.951,1.951,0,0,0-2.759-2.759Z"/><path d="M57.868,69.512a1.951,1.951,0,0,0,0-3.9h-.02a1.951,1.951,0,1,0,.02,3.9Z"/><path d="M110.512,100H94.9a5.128,5.128,0,0,1-5.122-5.122V55.854A5.128,5.128,0,0,1,94.9,50.732h15.61a5.128,5.128,0,0,1,5.122,5.122V94.878A5.128,5.128,0,0,1,110.512,100ZM94.9,53.171a2.686,2.686,0,0,0-2.683,2.683V94.878A2.686,2.686,0,0,0,94.9,97.561h15.61a2.686,2.686,0,0,0,2.683-2.683V55.854a2.686,2.686,0,0,0-2.683-2.683Z"/><path d="M40.244,100H5.122A5.128,5.128,0,0,1,0,94.878V87.967a1.22,1.22,0,1,1,2.439,0v6.911a2.686,2.686,0,0,0,2.683,2.683H40.244a2.686,2.686,0,0,0,2.683-2.683V44.146a2.686,2.686,0,0,0-2.683-2.683H5.122a2.686,2.686,0,0,0-2.683,2.683V80.813a1.22,1.22,0,1,1-2.439,0V44.146a5.128,5.128,0,0,1,5.122-5.122H40.244a5.128,5.128,0,0,1,5.122,5.122V94.878A5.128,5.128,0,0,1,40.244,100Z"/></svg>