<svg id="Layer_1" data-name="Layer 1" xmlns="http://www.w3.org/2000/svg" viewBox="0 0 118.86 100"><defs><style>.cls-1{fill:#ffe197;}.cls-2{fill:#010101;}.cls-3{fill:#65c6bc;}.cls-4{fill:#fddb44;}</style></defs><title>CUSTOM_WEB_DEVELOPMENT</title><path class="cls-1" d="M66.25,90.59l0-26.83-6.33-8.93-6.33,8.93,0,26.83v8.14H9.75a8.22,8.22,0,0,1-8-8.42V26H118V90.31a8.22,8.22,0,0,1-8,8.42H66.26ZM83.81,65H79.53v9.48H89V65ZM94.27,49.41V41.87H86.72v7.55ZM65.08,45.09a5.3,5.3,0,1,0-1.55,3.75,5.3,5.3,0,0,0,1.55-3.75ZM40,74.48V65H30.55v9.48ZM33,49.41V41.87H25.5v7.55Zm0,0"/><path class="cls-2" d="M95.54,50.69H85.45V40.59h10.1ZM88,48.14h5v-5H88Z"/><path class="cls-2" d="M59.79,51.67a6.58,6.58,0,1,1,0-13.16h0a6.58,6.58,0,1,1,0,13.16Zm0-10.61a4,4,0,1,0,4,3.24A4.06,4.06,0,0,0,59.78,41.06Z"/><path class="cls-2" d="M34.32,50.69H24.22V40.59h10.1Zm-7.55-2.55h5v-5h-5Z"/><path class="cls-2" d="M91.51,46.92H29.27a1.28,1.28,0,0,1,0-2.55H91.51a1.28,1.28,0,0,1,0,2.55Z"/><rect class="cls-3" x="86.72" y="41.87" width="7.55" height="7.55"/><rect class="cls-3" x="25.5" y="41.87" width="7.55" height="7.55"/><path class="cls-2" d="M84.4,71.91a1.28,1.28,0,0,1-1.28-1.28,23.95,23.95,0,0,0-47.9,0,1.28,1.28,0,0,1-2.55,0,26.5,26.5,0,0,1,53,0A1.28,1.28,0,0,1,84.4,71.91Z"/><path class="cls-3" d="M118,9.47V26H1.73V9.47a8.22,8.22,0,0,1,8-8.42H110a8.22,8.22,0,0,1,8,8.42ZM53.87,13.68a5.35,5.35,0,1,0-10.7,0,5.35,5.35,0,1,0,10.7,0Zm-17.38,0a5.36,5.36,0,1,0-10.7,0,5.35,5.35,0,1,0,10.7,0Zm-17.38,0a5.49,5.49,0,0,0-5.35-5.61,5.48,5.48,0,0,0-5.35,5.61,5.48,5.48,0,0,0,5.35,5.61,5.48,5.48,0,0,0,5.35-5.61Zm0,0"/><path class="cls-3" d="M59.78,39.79A5.3,5.3,0,1,1,56,41.34a5.3,5.3,0,0,1,3.75-1.55Zm0,0"/><path class="cls-3" d="M83.81,65H89v9.48H79.53V65Zm0,0"/><path class="cls-4" d="M66.25,90.59v8.14H53.51V90.59Zm0,0"/><path class="cls-3" d="M66.22,63.76l0,26.83H53.52l0-26.83Zm0,0"/><path class="cls-2" d="M66.83,100h-15V89.31h15ZM54.34,97.45h9.93V91.86H54.35Z"/><path class="cls-4" d="M59.88,54.82l6.33,8.93H53.55Zm0,0"/><path class="cls-4" d="M48.52,8.07a5.48,5.48,0,0,1,5.35,5.61,5.35,5.35,0,1,1-10.7,0,5.49,5.49,0,0,1,5.35-5.61Zm0,0"/><rect class="cls-3" x="30.55" y="65" width="9.48" height="9.48"/><path class="cls-2" d="M90.29,75.76h-12v-12h12ZM80.8,73.2h6.93V66.28H80.8Z"/><path class="cls-2" d="M41.3,75.76h-12v-12h12ZM31.83,73.2h6.93V66.28H31.83Z"/><path class="cls-4" d="M31.14,8.07a5.48,5.48,0,0,1,5.35,5.61,5.35,5.35,0,1,1-10.7,0,5.49,5.49,0,0,1,5.35-5.61Zm0,0"/><path class="cls-4" d="M13.76,8.07a5.49,5.49,0,0,1,5.35,5.61,5.48,5.48,0,0,1-5.35,5.61,5.48,5.48,0,0,1-5.35-5.61,5.48,5.48,0,0,1,5.35-5.61Zm0,0"/><path class="cls-2" d="M118.86,27.48H0V9.69A9.51,9.51,0,0,1,9.3,0H109.57a9.51,9.51,0,0,1,9.3,9.69ZM2.55,24.93H116.31V9.69a7,7,0,0,0-6.75-7.14H9.3A7,7,0,0,0,2.55,9.69Zm45.52-4.14a6.77,6.77,0,0,1-6.62-6.88,6.63,6.63,0,1,1,13.25,0A6.76,6.76,0,0,1,48.07,20.78Zm0-11.22A4.22,4.22,0,0,0,44,13.9a4.08,4.08,0,1,0,8.14,0A4.21,4.21,0,0,0,48.07,9.56ZM30.69,20.78a6.77,6.77,0,0,1-6.62-6.88,6.63,6.63,0,1,1,13.25,0A6.77,6.77,0,0,1,30.69,20.78Zm0-11.22a4.22,4.22,0,0,0-4.07,4.34,4.08,4.08,0,1,0,8.15,0A4.22,4.22,0,0,0,30.69,9.56ZM13.31,20.78A6.76,6.76,0,0,1,6.69,13.9,6.77,6.77,0,0,1,13.31,7a6.77,6.77,0,0,1,6.62,6.89A6.77,6.77,0,0,1,13.31,20.78Zm0-11.22A4.21,4.21,0,0,0,9.24,13.9a4.21,4.21,0,0,0,4.07,4.33,4.21,4.21,0,0,0,4.07-4.33A4.22,4.22,0,0,0,13.31,9.56Z"/><path class="cls-2" d="M65.08,65H53.55a1.28,1.28,0,0,1,0-2.55H65.08a1.28,1.28,0,0,1,0,2.55Z"/><path class="cls-2" d="M109.57,100h-45l0-35.84L59.43,57l-5.06,7.13,0,35.84H9.3A9.51,9.51,0,0,1,0,90.31V24.71H118.86V78.2a1.28,1.28,0,0,1-2.55,0V27.26H2.55V90.31A7,7,0,0,0,9.3,97.45H51.78l0-34.1,7.61-10.73L67,63.35l0,34.1h42.49a7,7,0,0,0,6.75-7.14V86.37a1.28,1.28,0,0,1,2.55,0v3.94A9.51,9.51,0,0,1,109.57,100Z"/></svg>