<svg id="Layer_1" data-name="Layer 1" xmlns="http://www.w3.org/2000/svg" viewBox="0 0 107.27 100"><defs><style>.cls-1{fill:#c4c4c4;}.cls-2{fill:#fff;}.cls-3{fill:#ffe6bb;}.cls-4{fill:#eacfa9;}.cls-5{fill:#e34a85;}.cls-6{fill:#ce3a77;}</style></defs><title>Custom_progressive_web_apps</title><path class="cls-1" d="M6.37.91h80a5.45,5.45,0,0,1,5.45,5.45V79.09a5.45,5.45,0,0,1-5.45,5.45h-80A5.45,5.45,0,0,1,.91,79.09V6.37A5.45,5.45,0,0,1,6.37.91Zm0,0"/><path d="M86.36,85.46h-80A6.38,6.38,0,0,1,0,79.09V6.37A6.38,6.38,0,0,1,6.37,0h80a6.38,6.38,0,0,1,6.37,6.37V9.49a.91.91,0,1,1-1.83,0V6.37a4.54,4.54,0,0,0-4.54-4.54h-80A4.54,4.54,0,0,0,1.83,6.37V79.09a4.54,4.54,0,0,0,4.54,4.54h80a4.54,4.54,0,0,0,4.54-4.54V28.19a.91.91,0,1,1,1.83,0v50.9A6.38,6.38,0,0,1,86.36,85.46Z"/><rect class="cls-2" x="6.37" y="6.37" width="3.64" height="3.64" rx="1.82" ry="1.82"/><rect class="cls-2" x="13.64" y="6.37" width="3.64" height="3.64" rx="1.82" ry="1.82"/><rect class="cls-2" x="20.91" y="6.37" width="3.64" height="3.64" rx="1.82" ry="1.82"/><path class="cls-3" d="M20.91,15.46h80a5.45,5.45,0,0,1,5.45,5.45V93.63a5.45,5.45,0,0,1-5.45,5.45h-80a5.45,5.45,0,0,1-5.45-5.45V20.91a5.45,5.45,0,0,1,5.45-5.45Zm0,0"/><path class="cls-4" d="M100.9,15.46H97.27l-81,81a5.43,5.43,0,0,0,4.64,2.63h80a5.45,5.45,0,0,0,5.45-5.45V20.91a5.45,5.45,0,0,0-5.45-5.45Zm0,0"/><rect class="cls-2" x="20.91" y="20.91" width="3.64" height="3.64"/><rect class="cls-2" x="28.18" y="20.91" width="3.64" height="3.64"/><rect class="cls-2" x="35.46" y="20.91" width="3.64" height="3.64"/><rect class="cls-2" x="20.91" y="28.18" width="79.99" height="3.64"/><rect class="cls-2" x="20.91" y="37.27" width="14.54" height="3.64"/><rect class="cls-2" x="20.91" y="44.55" width="10.91" height="3.64"/><path class="cls-5" d="M88.18,70V59.09H82a21.65,21.65,0,0,0-2.32-5.61L84,49.12,76.34,41.4,72,45.77a21.66,21.66,0,0,0-5.61-2.32V37.27H55.45v6.17a21.67,21.67,0,0,0-5.61,2.32L45.48,41.4l-7.71,7.71,4.36,4.36a21.61,21.61,0,0,0-2.32,5.61H33.64V70h6.17a21.63,21.63,0,0,0,2.32,5.61L37.77,80l7.71,7.71,4.36-4.36a21.64,21.64,0,0,0,5.61,2.32v6.17H66.36V85.65A21.63,21.63,0,0,0,72,83.32l4.36,4.36L84,80l-4.36-4.36A21.66,21.66,0,0,0,82,70ZM60.91,75.45A10.91,10.91,0,1,1,71.82,64.54,10.91,10.91,0,0,1,60.91,75.45Zm0,0"/><rect class="cls-2" x="90" y="90" width="10.91" height="3.64"/><path class="cls-6" d="M79.69,53.48,84,49.12l-3.58-3.58A110.5,110.5,0,0,1,70,58.5,10.91,10.91,0,0,1,53.86,72.86a140.72,140.72,0,0,1-14,9.21l5.61,5.61,4.36-4.36a21.65,21.65,0,0,0,5.61,2.33v6.17H66.36V85.65A21.63,21.63,0,0,0,72,83.32l4.36,4.36L84,80l-4.36-4.36A21.66,21.66,0,0,0,82,70h6.17V59.09H82a21.67,21.67,0,0,0-2.32-5.61Zm0,0"/><path d="M67.28,92.73H54.54V86.34A22.57,22.57,0,0,1,50,84.46L45.48,89l-9-9L41,75.45a22.54,22.54,0,0,1-1.88-4.54H32.72V58.18h6.39A22.52,22.52,0,0,1,41,53.63l-4.52-4.52,9-9L50,44.63a22.58,22.58,0,0,1,4.54-1.88V36.36H67.28v6.39a22.57,22.57,0,0,1,4.54,1.88l4.52-4.52,9,9-4.52,4.52a22.56,22.56,0,0,1,1.88,4.54h6.39V70.91H82.71a22.57,22.57,0,0,1-1.88,4.54L85.34,80l-9,9-4.52-4.52a22.55,22.55,0,0,1-4.54,1.88ZM56.37,90.9h9.08v-6l.69-.18a20.72,20.72,0,0,0,5.37-2.23l.61-.36,4.22,4.22L82.76,80l-4.22-4.22.36-.61a20.76,20.76,0,0,0,2.23-5.37l.18-.69h6V60h-6l-.18-.69a20.75,20.75,0,0,0-2.23-5.37l-.36-.61,4.22-4.22L76.34,42.7l-4.22,4.22-.61-.36a20.75,20.75,0,0,0-5.37-2.22l-.69-.18v-6H56.37v6l-.69.18a20.76,20.76,0,0,0-5.37,2.23l-.61.36L45.48,42.7l-6.42,6.42,4.22,4.22-.36.61a20.69,20.69,0,0,0-2.23,5.37l-.18.69h-6v9.08h6l.18.69a20.72,20.72,0,0,0,2.23,5.37l.36.61L39.06,80l6.42,6.42,4.22-4.22.61.36a20.73,20.73,0,0,0,5.37,2.23l.69.18Zm4.54-14.53A11.82,11.82,0,1,1,72.73,64.54,11.84,11.84,0,0,1,60.91,76.37Zm0-21.82a10,10,0,1,0,10,10A10,10,0,0,0,60.91,54.55Z"/><path d="M100.9,100h-80a6.38,6.38,0,0,1-6.37-6.37V20.91a6.38,6.38,0,0,1,6.37-6.37h80a6.38,6.38,0,0,1,6.37,6.37V35.24a.91.91,0,1,1-1.83,0V20.91a4.54,4.54,0,0,0-4.54-4.54h-80a4.54,4.54,0,0,0-4.54,4.54V93.63a4.54,4.54,0,0,0,4.54,4.54h80a4.54,4.54,0,0,0,4.54-4.54V42.56a.91.91,0,1,1,1.83,0V93.63A6.38,6.38,0,0,1,100.9,100Z"/></svg>