<svg id="Layer_1" data-name="Layer 1" xmlns="http://www.w3.org/2000/svg" viewBox="0 0 129.91 100.47"><defs><style>.cls-1{fill:#58c2e7;}.cls-2{fill:#010101;}.cls-3{fill:#ccc;}.cls-4{fill:#e6e6e6;}.cls-5{fill:#fff;}</style></defs><title>CUSTOM_WEB_development</title><path class="cls-1" d="M17.66,1.3A11.57,11.57,0,0,0,6.74,12.85V78.21H121.09V12.85A11.57,11.57,0,0,0,109.52,1.28h-1"/><path class="cls-2" d="M122.38,79.49H5.46V12.85A12.85,12.85,0,0,1,17.58,0h.07l91.87,0a12.87,12.87,0,0,1,12.85,12.85ZM8,76.93H119.81V12.85A10.3,10.3,0,0,0,109.52,2.56h-1l-90.83,0A10.29,10.29,0,0,0,8,12.85Z"/><path class="cls-3" d="M128.63,78.21v7.63a13.35,13.35,0,0,1-13.35,13.35H14.64A13.35,13.35,0,0,1,1.28,85.84V78.21Zm0,0"/><path class="cls-4" d="M128.63,78.21v7.63a13.28,13.28,0,0,1-1.72,6.55,13.29,13.29,0,0,1-3.84.56H22.43A13.35,13.35,0,0,1,9.08,79.6V78.21Zm0,0"/><path class="cls-5" d="M69.48,88.7H53.68a6.57,6.57,0,0,1-6.57-6.57V78.21H76v3.92a6.57,6.57,0,0,1-6.57,6.57Zm0,0"/><path class="cls-2" d="M69.48,90H53.68a7.86,7.86,0,0,1-7.85-7.85v-5.2h31.5v5.2A7.86,7.86,0,0,1,69.48,90ZM48.39,79.49v2.64a5.29,5.29,0,0,0,5.29,5.29h15.8a5.29,5.29,0,0,0,5.29-5.29V79.49Z"/><path class="cls-4" d="M26.1,41.69,42.59,31a2,2,0,0,1,1.23-.32,4.91,4.91,0,0,1,4.42,4.74,3,3,0,0,1-1.17,2.53l-11.43,7.4,11.43,7.4a3,3,0,0,1,1.17,2.53A4.91,4.91,0,0,1,43.82,60a2,2,0,0,1-1.23-.32L26.1,49a4.29,4.29,0,0,1,0-7.27Zm0,0"/><path class="cls-4" d="M81.35,16.63a2.81,2.81,0,0,1-.26,1.23L58.24,64.68a3.25,3.25,0,0,1-2.92,1.62,3.59,3.59,0,0,1-3.64-3.44A2.92,2.92,0,0,1,52,61.63L74.79,14.81a2.86,2.86,0,0,1,2.73-1.62,3.72,3.72,0,0,1,3.83,3.44Zm0,0"/><path class="cls-4" d="M101.74,49,85.25,59.68A2,2,0,0,1,84,60a4.91,4.91,0,0,1-4.41-4.74,3,3,0,0,1,1.17-2.53l11.43-7.4-11.43-7.4A3,3,0,0,1,79.6,35.4,4.91,4.91,0,0,1,84,30.66a2,2,0,0,1,1.23.32l16.49,10.71a4.29,4.29,0,0,1,0,7.27Zm0,0"/><path class="cls-2" d="M43.82,61.29a3.18,3.18,0,0,1-2-.56L25.4,50a5.57,5.57,0,0,1,0-9.42h0L41.85,29.94a3.18,3.18,0,0,1,2-.56,6.18,6.18,0,0,1,5.7,6A4.24,4.24,0,0,1,47.76,39L38,45.33l9.77,6.33a4.24,4.24,0,0,1,1.75,3.61A6.18,6.18,0,0,1,43.82,61.29Zm-.43-2.61a1.44,1.44,0,0,0,.43,0A3.64,3.64,0,0,0,47,55.26a1.76,1.76,0,0,0-.58-1.45l-13.1-8.48,13.09-8.48A1.76,1.76,0,0,0,47,35.4a3.64,3.64,0,0,0-3.13-3.46,1.12,1.12,0,0,0-.45.05l-.09.06L26.79,42.77a3,3,0,0,0,0,5.12L43.34,58.64l0,0Z"/><path class="cls-2" d="M55.32,67.59a4.89,4.89,0,0,1-4.92-4.72,4.16,4.16,0,0,1,.46-1.81l22.78-46.8a4.15,4.15,0,0,1,3.88-2.34c2.47,0,5.11,1.9,5.11,4.72a4.1,4.1,0,0,1-.4,1.81L59.39,65.24A4.48,4.48,0,0,1,55.32,67.59ZM77.52,14.47a1.62,1.62,0,0,0-1.57.89L53.16,62.19a1.71,1.71,0,0,0-.2.67A2.32,2.32,0,0,0,55.32,65a2,2,0,0,0,1.76-.88L79.94,17.3a1.56,1.56,0,0,0,.13-.67A2.45,2.45,0,0,0,77.52,14.47Z"/><path class="cls-2" d="M84,61.29a6.18,6.18,0,0,1-5.7-6,4.24,4.24,0,0,1,1.76-3.61l9.76-6.32L80.07,39a4.24,4.24,0,0,1-1.75-3.61,6.18,6.18,0,0,1,5.7-6,3.18,3.18,0,0,1,2,.56l16.45,10.68a5.57,5.57,0,0,1,0,9.42h0L86,60.73A3.18,3.18,0,0,1,84,61.29Zm0-29.35a3.64,3.64,0,0,0-3.13,3.46,1.76,1.76,0,0,0,.58,1.45l13.1,8.48L81.46,53.81a1.76,1.76,0,0,0-.58,1.46A3.64,3.64,0,0,0,84,58.72a1.12,1.12,0,0,0,.45-.05l.09-.06L101,47.89a3,3,0,0,0,0-5.13L84.49,32l0,0A1.57,1.57,0,0,0,84,31.94Z"/><path class="cls-2" d="M115.28,100.47H14.64A14.65,14.65,0,0,1,0,85.84V76.93H129.91v8.91a14.63,14.63,0,0,1-14.63,14.64ZM2.56,79.49v6.35A12.09,12.09,0,0,0,14.64,97.91H115.28a12.07,12.07,0,0,0,12.07-12.07V79.49Z"/></svg>