<svg id="Layer_1" data-name="Layer 1" xmlns="http://www.w3.org/2000/svg" viewBox="0 0 82.92 100"><defs><style>.cls-1{fill:#ffae39;}.cls-2{fill:#fff;}.cls-3{fill:#322b4f;}</style></defs><title>Custom Apps Development</title><path class="cls-1" d="M23.37,76.14l-.55-5.68a20.47,20.47,0,0,1-7-2.94l-4.38,3.62-5.4-5.4,3.63-4.38a21,21,0,0,1-2.94-7l-5.61-.55V46.17l5.68-.55a20.45,20.45,0,0,1,2.94-7L6.13,34.26l5.34-5.41,4.38,3.62a21.07,21.07,0,0,1,7-2.94l.55-5.68H31l.55,5.68a20.46,20.46,0,0,1,7,2.94l4.38-3.62,5.4,5.41-3.63,4.38a21,21,0,0,1,2.94,7l5.68.55v7.66l-5.68.55a20.48,20.48,0,0,1-2.94,7l3.63,4.38-5.4,5.4-4.38-3.62a21.05,21.05,0,0,1-7,2.94L31,76.14H23.37ZM12.28,50A14.92,14.92,0,1,0,27.2,35.08,14.92,14.92,0,0,0,12.28,50Zm0,0"/><path d="M32.07,77.27H22.34l-.57-5.9a21.49,21.49,0,0,1-5.84-2.46l-4.54,3.76L4.53,65.81l3.76-4.54a22.07,22.07,0,0,1-2.46-5.83L0,54.86V45.14l5.9-.57a21.47,21.47,0,0,1,2.46-5.84L4.6,34.2l6.79-6.88,4.55,3.76a22.1,22.1,0,0,1,5.83-2.46l.57-5.9h9.73l.57,5.9a21.48,21.48,0,0,1,5.84,2.46L43,27.32l6.87,6.87-3.76,4.54a22.07,22.07,0,0,1,2.46,5.83l5.9.57v9.73l-5.9.57a21.49,21.49,0,0,1-2.46,5.84l3.76,4.54L43,72.68l-4.54-3.76a22.08,22.08,0,0,1-5.83,2.46ZM24.4,75H30l.53-5.47.81-.18a19.84,19.84,0,0,0,6.6-2.78l.7-.46,4.23,3.5,3.94-3.94-3.5-4.23.47-.7a19.26,19.26,0,0,0,2.78-6.59l.18-.81,5.48-.53V47.2l-5.47-.53-.18-.81a19.84,19.84,0,0,0-2.78-6.6l-.46-.7,3.5-4.23-3.94-3.94-4.23,3.5-.7-.47a19.25,19.25,0,0,0-6.59-2.78l-.81-.18L30,25H24.4l-.53,5.47-.81.18a19.86,19.86,0,0,0-6.6,2.78l-.7.46-4.22-3.5L7.66,34.33l3.51,4.24-.47.7a19.24,19.24,0,0,0-2.78,6.59l-.18.81-5.48.53v5.6l5.4.53.18.8a19.84,19.84,0,0,0,2.78,6.6l.46.7L7.6,65.66l3.94,3.94,4.23-3.5.7.47a19.26,19.26,0,0,0,6.59,2.78l.81.18Zm2.8-8.94h0A16.05,16.05,0,0,1,11.15,50h0A16.06,16.06,0,0,1,27.2,33.95h0a16.06,16.06,0,0,1,0,32.11Zm0-29.84A13.78,13.78,0,0,0,13.42,50h0A13.78,13.78,0,0,0,27.2,63.78h0a13.78,13.78,0,0,0,0-27.57Z"/><path class="cls-2" d="M27.2,33.79A16.21,16.21,0,1,1,11,50,16.21,16.21,0,0,1,27.2,33.79Zm0,0"/><path d="M27.2,67.35a17.35,17.35,0,1,1,0-34.7h0a17.35,17.35,0,0,1,0,34.7Zm0-32.42a15.07,15.07,0,1,0,10.66,4.42A15.09,15.09,0,0,0,27.2,34.92h0Z"/><path class="cls-2" d="M81.78,82.5v7.27a9.09,9.09,0,0,1-9.09,9.09H36.33a9.09,9.09,0,0,1-9.09-9.09V82.5ZM51.1,90.68a3.41,3.41,0,1,0,3.41-3.41,3.41,3.41,0,0,0-3.41,3.41Zm0,0"/><path class="cls-3" d="M31,76.14l.55-5.68a21.05,21.05,0,0,0,7-2.94l4.38,3.62,5.4-5.4-3.63-4.38a20.48,20.48,0,0,0,2.94-7l5.68-.55V46.17l-5.68-.55a21,21,0,0,0-2.94-7l3.63-4.38-5.4-5.41-4.38,3.62a20.46,20.46,0,0,0-7-2.94L31,23.86h-3.8V14.77H81.78V82.5H27.24V76.14Zm-3.8,0"/><path class="cls-2" d="M27.24,10.23a9.09,9.09,0,0,1,9.09-9.09H72.69a9.09,9.09,0,0,1,9.09,9.09v4.55H27.24V10.23Zm0,0"/><path d="M72.69,100H36.33A10.24,10.24,0,0,1,26.1,89.77V81.36H82.92v8.41A10.24,10.24,0,0,1,72.69,100ZM28.37,83.64v6.14a8,8,0,0,0,8,8H72.69a8,8,0,0,0,8-8V83.64ZM54.51,95.23A4.55,4.55,0,0,1,50,90.68h0a4.55,4.55,0,1,1,4.55,4.55Zm-2.27-4.55a2.27,2.27,0,1,0,2.27-2.27A2.28,2.28,0,0,0,52.24,90.68Z"/><path d="M82.92,15.91H26.1V10.23A10.24,10.24,0,0,1,36.33,0H72.69A10.24,10.24,0,0,1,82.92,10.23ZM28.37,13.64H80.65V10.23a8,8,0,0,0-8-8H36.33a8,8,0,0,0-8,8Z"/><path d="M51.1,90.68a3.41,3.41,0,1,1,3.41,3.41,3.41,3.41,0,0,1-3.41-3.41Zm0,0"/><path d="M54.51,95.45a4.77,4.77,0,1,0-4.77-4.77,4.78,4.78,0,0,0,4.77,4.77Z"/><path class="cls-2" d="M59,45.68a1.36,1.36,0,1,0,0,2.73h1.88a1.36,1.36,0,1,0,0-2.73Zm0,0"/><path class="cls-2" d="M75.09,48.41a1.36,1.36,0,1,0,0-2.73H66.87a1.36,1.36,0,0,0,0,2.73Zm0,0"/><path class="cls-2" d="M59,57a1.36,1.36,0,1,0,0,2.73h8.7a1.36,1.36,0,1,0,0-2.73Zm0,0"/><path class="cls-2" d="M75.09,59.77a1.36,1.36,0,1,0,0-2.73h-1.4a1.36,1.36,0,0,0,0,2.73Zm0,0"/><path class="cls-2" d="M59.87,69.77a1.36,1.36,0,0,0-1.36-1.36H52.14a1.36,1.36,0,1,0,0,2.73H58.5a1.36,1.36,0,0,0,1.36-1.36Zm0,0"/><path class="cls-2" d="M64.6,68.41a1.36,1.36,0,0,0,0,2.73h10.5a1.36,1.36,0,1,0,0-2.73Zm0,0"/><path class="cls-2" d="M65.32,36.14a1.36,1.36,0,1,0,0-2.73H56.69a1.36,1.36,0,1,0,0,2.73Zm0,0"/><path class="cls-2" d="M75.09,36.14a1.36,1.36,0,1,0,0-2.73H71.42a1.36,1.36,0,0,0,0,2.73Zm0,0"/><path d="M82.92,83.64H26.1V75H30l.53-5.47.81-.18a19.84,19.84,0,0,0,6.6-2.78l.7-.46,4.23,3.5,3.94-3.94-3.5-4.23.47-.7a19.26,19.26,0,0,0,2.78-6.59l.18-.81,5.48-.53V47.2l-5.47-.53-.18-.81a19.84,19.84,0,0,0-2.78-6.6l-.46-.7,3.5-4.23-3.94-3.94-4.23,3.5-.7-.47a19.25,19.25,0,0,0-6.59-2.78l-.81-.18L30,25H26.1V13.64H82.92V60.53a1.14,1.14,0,0,1-2.27,0V15.91H28.37v6.82h3.69l.57,5.9a21.48,21.48,0,0,1,5.84,2.46L43,27.32l6.87,6.87-3.76,4.54a22.07,22.07,0,0,1,2.46,5.83l5.9.57v9.73l-5.9.57a21.49,21.49,0,0,1-2.46,5.84l3.76,4.54L43,72.68l-4.54-3.76a22.08,22.08,0,0,1-5.83,2.46l-.57,5.9H28.37v4.09H80.65V76.82a1.14,1.14,0,1,1,2.27,0Z"/><path d="M81.78,72.27a1.14,1.14,0,0,1-1.14-1.14V66.21a1.14,1.14,0,1,1,2.27,0v4.92A1.14,1.14,0,0,1,81.78,72.27Z"/></svg>