<svg id="Layer_1" data-name="Layer 1" xmlns="http://www.w3.org/2000/svg" viewBox="0 0 85.3 100.33"><defs><style>.cls-1{fill:#00ddd7;}.cls-2{fill:#e9fffd;}.cls-3{fill:none;stroke:#e9fffd;stroke-linecap:round;stroke-miterlimit:10;stroke-width:10px;}</style></defs><title>dagger2</title><path class="cls-1" d="M1.06,99.27V1.06H35.77Q58,1.06,71.12,14.34T84.24,50.17q0,22.55-13.12,35.83T35.77,99.27ZM21.37,81.2H35q13.92,0,21.43-8.32t7.52-22.71q0-14.55-7.52-22.87T35,19H21.37Z"/><path d="M35.77,100.33H0V0H35.77c15,0,27.19,4.57,36.1,13.59S85.3,34.92,85.3,50.17A59.69,59.69,0,0,1,81.86,71a1.06,1.06,0,0,1-2-.74,57.58,57.58,0,0,0,3.31-20.12c0-14.67-4.31-26.48-12.81-35.09s-20.14-13-34.6-13H2.12V98.21H35.77c14.46,0,26.1-4.36,34.6-13a41.65,41.65,0,0,0,5.89-7.52,1.06,1.06,0,1,1,1.81,1.11,43.75,43.75,0,0,1-6.19,7.9C63,95.76,50.82,100.33,35.77,100.33ZM35,82.26H20.31V32.49a1.06,1.06,0,0,1,2.12,0V80.14H35c8.92,0,15.87-2.68,20.65-8s7.24-12.72,7.24-22S60.43,33.32,55.62,28,43.89,20,35,20H22.43v4.82a1.06,1.06,0,0,1-2.12,0V17.92H35c9.54,0,17,2.92,22.22,8.67S65,40.24,65,50.17s-2.62,17.71-7.79,23.42S44.52,82.26,35,82.26Z"/><path class="cls-2" d="M69,22.1a1.06,1.06,0,0,1-.87-.45C63.24,14.67,56,11,50.71,9.18A44.7,44.7,0,0,0,40.28,6.83a1.06,1.06,0,0,1,.14-2.12A45.9,45.9,0,0,1,51.35,7.16C56.92,9.1,64.64,13,69.84,20.44A1.06,1.06,0,0,1,69,22.1Z"/><path class="cls-3" d="M72.79,24.86"/><path class="cls-2" d="M36.54,6.84H27a1.06,1.06,0,1,1,0-2.12h9.54a1.06,1.06,0,0,1,0,2.12Z"/></svg>