<svg id="Layer_1" data-name="Layer 1" xmlns="http://www.w3.org/2000/svg" viewBox="0 0 94.16 99.81"><defs><style>.cls-1{fill:#4ec5d5;}.cls-2{fill:#07b6b6;}.cls-3{fill:#91d6df;}</style></defs><title>database</title><path class="cls-1" d="M86.38,77.3A13.61,13.61,0,0,0,73,65a13.39,13.39,0,0,0-10.87,5.71A8.86,8.86,0,0,0,52.2,77,10.79,10.79,0,0,0,47,86.2,10.56,10.56,0,0,0,57.38,96.88H75.45l.29,0,.32,0h7.23a10.08,10.08,0,0,0,3.1-19.57Z"/><path class="cls-1" d="M83.28,93.52H75.7l-18.32,0a7.2,7.2,0,0,1-7.06-7.31,7.39,7.39,0,0,1,4.05-6.6l.73-.35.17-.8a5.63,5.63,0,0,1,5.41-4.51,5.31,5.31,0,0,1,1.71.29l1.3.43.69-1.19A9.92,9.92,0,0,1,73,68.36,10.26,10.26,0,0,1,83.1,78.63l0,1.36,1.34.26a6.71,6.71,0,0,1-1.17,13.27Z"/><path class="cls-1" d="M83.28,93.52"/><path d="M83.28,98H57.38A11.66,11.66,0,0,1,45.87,86.2a11.88,11.88,0,0,1,5.41-10,10.1,10.1,0,0,1,9.41-6.76c.33,0,.66,0,1,0A14.44,14.44,0,0,1,73,63.91a14.28,14.28,0,0,1,9.73,3.86,15,15,0,0,1,4.62,8.74,11.07,11.07,0,0,1,6.78,9.61,1.1,1.1,0,0,1-2.19.14A9,9,0,0,0,86,78.34a1.1,1.1,0,0,1-.74-.92A12.59,12.59,0,0,0,73,66.1a12.27,12.27,0,0,0-10,5.24,1.1,1.1,0,0,1-1.08.45,7.77,7.77,0,0,0-8.75,5.5,1.1,1.1,0,0,1-.49.62,9.66,9.66,0,0,0-4.7,8.28,9.46,9.46,0,0,0,9.32,9.57h25.9a8.75,8.75,0,0,0,7.85-5.08,1.1,1.1,0,1,1,2,.93A11,11,0,0,1,83.28,98Z"/><path class="cls-2" d="M48.39,73.29a13.91,13.91,0,0,1,11.53-7.54,18.05,18.05,0,0,1,24.55-1.48c.16-.15.34-.3.48-.43V48.06a34.14,34.14,0,0,1-8.43,4c-7.06,2.47-16.85,4.2-29.13,4.54q-2.19.06-4.37.07c-1.46,0-2.92,0-4.38-.07C26.33,56.22,16.52,54.48,9.46,52A34,34,0,0,1,1.1,48.06V63.83c4.77,5,20.78,9.57,41.93,9.57,1.83,0,3.61,0,5.36-.11Zm0,0"/><path class="cls-2" d="M39.06,51.36l1.65,0,2.32,0,2.32,0,1.66,0,.58,0c18.88-.6,33-4.89,37.38-9.5V26.07C76.79,31.68,59.54,34.64,43,34.64s-33.76-3-41.93-8.57V41.83c4.42,4.62,18.51,8.91,37.38,9.51l.59,0Zm0,0"/><path class="cls-1" d="M85,20.06V16.19a1.6,1.6,0,0,0-.22-.77C82.85,8.22,68.38,1.1,43,1.1S3.28,8.17,1.34,15.37a1.66,1.66,0,0,0-.25.82v3.87C5.86,25,21.76,29.61,43,29.61S80.2,25,85,20.06Zm0,0"/><path class="cls-2" d="M41.94,86.37a15.74,15.74,0,0,1,2.1-7.8H43c-20.7,0-35-3.84-41.93-8.72V83.61a1.59,1.59,0,0,0,.2.76C3.28,92.58,21,98.71,43,98.71c1.6,0,3.15,0,4.7-.11a15.78,15.78,0,0,1-5.79-12.23Zm0,0"/><path d="M43,74.5C23.47,74.5,5.9,70.42.31,64.59L0,64.27V46l1.72,1.19A33,33,0,0,0,9.81,51c7.48,2.63,17.46,4.19,28.87,4.5,1.49,0,3,.06,4.35.06s2.85,0,4.34-.06c11.37-.31,21.33-1.86,28.8-4.48a33,33,0,0,0,8.17-3.84L86.05,46V64.28l-.32.32c-.12.12-.25.23-.37.34l-.15.13-.7.63-.73-.59a17,17,0,0,0-23.07,1.39l-.3.31-.43,0a12.89,12.89,0,0,0-10.62,7l-.3.57-.64,0C46.31,74.46,44.64,74.5,43,74.5ZM2.2,63.37C7,67.86,22.3,72.3,43,72.3c1.42,0,2.9,0,4.7-.09a15.1,15.1,0,0,1,11.7-7.53A19.5,19.5,0,0,1,73,59a19.27,19.27,0,0,1,10.82,3.39V50a39.35,39.35,0,0,1-7,3C69.21,55.75,59,57.34,47.43,57.66c-1.51,0-3,.07-4.4.07s-2.9,0-4.41-.07C27,57.34,16.77,55.74,9.09,53a39.53,39.53,0,0,1-6.9-3Z"/><path d="M43,52.51l-2.32,0-1.68,0h-.6c-17.7-.56-33-4.52-38.12-9.85L0,42.27V24l1.72,1.18C9.13,30.25,25.34,33.54,43,33.54s33.9-3.29,41.31-8.38L86.05,24v18.3l-.31.32c-5.11,5.32-20.43,9.28-38.13,9.84H47l-1.69,0h0ZM39.1,50.26l1.63,0c1.52,0,3.08,0,4.57,0h0l1.63,0h.57c19.24-.61,32.15-5,36.32-8.86V28c-8.33,4.71-24,7.7-40.83,7.7s-32.5-3-40.83-7.7V41.37c4.17,3.9,17.08,8.26,36.31,8.87h.59Z"/><path d="M43,99.81c-10.76,0-21-1.47-28.74-4.15-8.05-2.77-12.9-6.54-14-10.9A2.66,2.66,0,0,1,0,83.61V67.75L1.73,69c7.58,5.34,23,8.52,41.3,8.52h2.9L45,79.12a14.62,14.62,0,0,0,3.44,18.64l2.23,1.83-2.88.12C46,99.78,44.49,99.81,43,99.81ZM2.2,71.87V83.61a.5.5,0,0,0,.07.24l.07.12,0,.14c.87,3.6,5.36,7,12.64,9.47,7.55,2.6,17.51,4,28,4l2.06,0a16.8,16.8,0,0,1-2.84-17.91C24.89,79.6,10.51,76.78,2.2,71.87Z"/><path d="M43,30.71c-19.58,0-37.14-4.07-42.72-9.9a1.1,1.1,0,0,1-.3-.76V16.19A2.65,2.65,0,0,1,.32,15C1.49,10.9,6,7.19,13,4.51,20.8,1.56,31.17,0,43,0,54.12,0,64,1.38,71.56,4a1.1,1.1,0,1,1-.71,2.08C63.5,3.53,53.88,2.2,43,2.2c-11.6,0-21.7,1.51-29.21,4.37C7.47,9,3.31,12.29,2.4,15.66a1.1,1.1,0,0,1-.1.25.65.65,0,0,0-.1.28V19.6C7,24.08,22.28,28.52,43,28.52s36.06-4.44,40.83-8.92V16.19a.62.62,0,0,0-.09-.24,1.1,1.1,0,0,1-.1-.25c-.52-2-2.18-4-4.81-5.78A1.1,1.1,0,0,1,80.1,8.1c3,2.07,5,4.46,5.66,6.92a2.6,2.6,0,0,1,.29,1.17v3.87a1.1,1.1,0,0,1-.3.76C80.17,26.64,62.6,30.71,43,30.71Z"/><path class="cls-3" d="M64.77,73.46A.88.88,0,0,1,64.08,72c.2-.25,4.92-6.09,12.15-4a.88.88,0,1,1-.49,1.69c-6.1-1.77-10.24,3.35-10.28,3.4A.88.88,0,0,1,64.77,73.46Z"/><path class="cls-3" d="M82.49,76.1a.88.88,0,0,1-.85-.65,9.33,9.33,0,0,0-3.71-4.73.88.88,0,1,1,.93-1.49A11,11,0,0,1,83.34,75a.88.88,0,0,1-.85,1.1Z"/></svg>