<svg id="Layer_1" data-name="Layer 1" xmlns="http://www.w3.org/2000/svg" viewBox="0 0 85.23 100"><defs><style>.cls-1{fill:#85ffed;}.cls-2{fill:#f6d7c9;}.cls-3{fill:#ffd7e1;}.cls-4{fill:#eb3936;}.cls-5{fill:#fff;}</style></defs><title>DATING_SITES</title><path class="cls-1" d="M20.78,1.12H64.66a6.75,6.75,0,0,1,6.75,6.75V92.26A6.75,6.75,0,0,1,64.66,99H20.78A6.75,6.75,0,0,1,14,92.26V7.87a6.75,6.75,0,0,1,6.75-6.75Zm0,0"/><rect class="cls-2" x="20.78" y="14.62" width="43.88" height="67.51"/><path d="M65.72,83.19h-46V13.57h46ZM21.83,81.08H63.61V15.68H21.83Z"/><path d="M37.79,7.87a1.69,1.69,0,1,1-1.69-1.69,1.69,1.69,0,0,1,1.69,1.69Zm0,0"/><path d="M64.66,100H20.78A7.81,7.81,0,0,1,13,92.19V29.54a1.05,1.05,0,0,1,2.11,0V92.19a5.7,5.7,0,0,0,5.7,5.7H64.66a5.7,5.7,0,0,0,5.7-5.7V7.81a5.7,5.7,0,0,0-5.7-5.7H20.78a5.7,5.7,0,0,0-5.7,5.7V20A1.05,1.05,0,0,1,13,20V7.81A7.81,7.81,0,0,1,20.78,0H64.66a7.81,7.81,0,0,1,7.81,7.81V92.19A7.81,7.81,0,0,1,64.66,100Z"/><path d="M42.86,9.56H51.3a1.69,1.69,0,0,0,0-3.38H42.86a1.69,1.69,0,0,0,0,3.38Zm0,0"/><circle class="cls-3" cx="72.05" cy="36.18" r="12.34"/><path d="M72,49.37A13.19,13.19,0,1,1,85.23,36.18,13.2,13.2,0,0,1,72,49.37Zm0-24.68a11.5,11.5,0,1,0,11.5,11.5A11.51,11.51,0,0,0,72,24.68Z"/><path class="cls-4" d="M69.51,32A2.53,2.53,0,0,1,72,34.49a2.53,2.53,0,0,1,5.06,0c0,1.4-3.66,5.91-5.06,5.91S67,35.89,67,34.49A2.53,2.53,0,0,1,69.51,32Zm0,0"/><circle class="cls-3" cx="13.19" cy="68.46" r="12.34"/><path d="M13.19,81.65A13.19,13.19,0,1,1,26.37,68.46,13.2,13.2,0,0,1,13.19,81.65Zm0-24.68a11.5,11.5,0,1,0,11.5,11.5A11.51,11.51,0,0,0,13.19,57Z"/><path class="cls-4" d="M10.65,64.24a2.53,2.53,0,0,1,2.53,2.53,2.53,2.53,0,1,1,5.06,0c0,1.4-3.66,5.91-5.06,5.91s-5.06-4.51-5.06-5.91a2.53,2.53,0,0,1,2.53-2.53Zm0,0"/><path class="cls-5" d="M46.24,90.57A3.52,3.52,0,1,1,42.72,87a3.52,3.52,0,0,1,3.52,3.52Zm0,0"/><path d="M42.72,94.51a3.94,3.94,0,1,1,3.94-3.94A3.95,3.95,0,0,1,42.72,94.51Zm0-7a3.1,3.1,0,1,0,3.1,3.1A3.1,3.1,0,0,0,42.72,87.47Z"/></svg>