<svg id="Layer_1" data-name="Layer 1" xmlns="http://www.w3.org/2000/svg" xmlns:xlink="http://www.w3.org/1999/xlink" viewBox="0 0 244.16 100"><defs><style>.cls-1{fill:none;}.cls-2{clip-path:url(#clip-path);}.cls-3{fill:#24a8e9;}.cls-4{fill:#23a6e8;}.cls-5{fill:#22a5e6;}.cls-6{fill:#22a3e5;}.cls-7{fill:#21a1e3;}.cls-8{fill:#20a0e2;}.cls-9{fill:#1f9ee1;}.cls-10{fill:#1f9ddf;}.cls-11{fill:#1e9bde;}.cls-12{fill:#1d9add;}.cls-13{fill:#1d98db;}.cls-14{fill:#1c97da;}.cls-15{fill:#1b95d9;}.cls-16{fill:#1b94d8;}.cls-17{fill:#1a93d7;}.cls-18{fill:#1991d6;}.cls-19{fill:#1990d4;}.cls-20{fill:#188fd3;}.cls-21{fill:#188dd2;}.cls-22{fill:#178cd1;}.cls-23{fill:#168bd0;}.cls-24{fill:#168acf;}.cls-25{fill:#1589ce;}.cls-26{fill:#1588cd;}.cls-27{fill:#1487cd;}.cls-28{fill:#1486cc;}.cls-29{fill:#1385cb;}.cls-30{fill:#1384ca;}.cls-31{fill:#1383c9;}.cls-32{fill:#1282c9;}.cls-33{fill:#1281c8;}.cls-34{fill:#1180c7;}.cls-35{fill:#117fc6;}.cls-36{fill:#107ec5;}.cls-37{fill:#107dc5;}.cls-38{fill:#107dc4;}.cls-39{fill:#0f7cc4;}.cls-40{fill:#0f7bc3;}.cls-41{fill:#0f7bc2;}.cls-42{fill:#0f7ac2;}.cls-43{fill:#0e7ac2;}.cls-44{fill:#0e79c1;}.cls-45{fill:#2acaff;}</style><clipPath id="clip-path" transform="translate(0)"><path class="cls-1" d="M158.52,75.66c1.66-5,3.35-10,5-15.07C167.58,48,171.3,35.37,175.8,23c4.74-13,13.92-21,28.37-21.39C215.58,1.26,227,1.14,238.4,1c1.32,0,2.65.6,4.73,1.1-1.45,3.06-2.45,5.67-3.86,8.05q-18.1,30.61-36.38,61.11c-2.1,3.49-5,6.5-7.49,9.76-9.38,12.27-21.63,17.17-37,15.64-8.1-.81-16.39-.44-24.55.07C114.6,98,105.55,92.26,99.29,72.91c-4.71-14.56-8.38-29.47-12.52-44.21-.52-1.84-1.09-3.66-2-6.59-2,1.94-3.26,3.24-4.58,4.48C68.81,37.25,63.39,51.06,59.57,65.74c-.76,2.93-2,5.74-2.84,8.64C52.07,89.81,41.1,97.31,25.61,98.64c-6.73.58-13.54.22-20.32.25-3.4,0-5-1.34-4-5C9,66.26,20.53,40.57,39.72,18.83,49.29,8,60.79,1.9,75.91,2.81c13.69.82,27.45.36,41.19.4,9.77,0,17,4.68,21,13.19a238.6,238.6,0,0,1,10.56,28.46c2.67,8.49,4.38,17.28,6.57,25.92.42,1.65,1.11,3.24,1.68,4.85Z"/></clipPath></defs><title>.net_framework</title><g class="cls-2"><polygon class="cls-3" points="74.57 1.01 40.38 99.22 1.54 99.22 0.32 98.8 0.32 1.01 74.57 1.01"/><polygon class="cls-3" points="76 1.01 41.81 99.22 40.38 99.22 74.57 1.01 76 1.01"/><polygon class="cls-4" points="77.44 1.01 43.24 99.22 41.81 99.22 76 1.01 77.44 1.01"/><polygon class="cls-5" points="78.87 1.01 44.67 99.22 43.24 99.22 77.44 1.01 78.87 1.01"/><polygon class="cls-6" points="80.3 1.01 46.1 99.22 44.67 99.22 78.87 1.01 80.3 1.01"/><polygon class="cls-7" points="81.73 1.01 47.53 99.22 46.1 99.22 80.3 1.01 81.73 1.01"/><polygon class="cls-8" points="83.16 1.01 48.96 99.22 47.53 99.22 81.73 1.01 83.16 1.01"/><polygon class="cls-9" points="84.59 1.01 50.39 99.22 48.96 99.22 83.16 1.01 84.59 1.01"/><polygon class="cls-10" points="86.02 1.01 51.82 99.22 50.39 99.22 84.59 1.01 86.02 1.01"/><polygon class="cls-11" points="87.45 1.01 53.25 99.22 51.82 99.22 86.02 1.01 87.45 1.01"/><polygon class="cls-12" points="88.88 1.01 54.69 99.22 53.25 99.22 87.45 1.01 88.88 1.01"/><polygon class="cls-13" points="90.31 1.01 56.12 99.22 54.69 99.22 88.88 1.01 90.31 1.01"/><polygon class="cls-14" points="91.74 1.01 57.55 99.22 56.12 99.22 90.31 1.01 91.74 1.01"/><polygon class="cls-15" points="93.17 1.01 58.98 99.22 57.55 99.22 91.74 1.01 93.17 1.01"/><polygon class="cls-16" points="94.61 1.01 60.41 99.22 58.98 99.22 93.17 1.01 94.61 1.01"/><polygon class="cls-17" points="96.03 1.01 61.84 99.22 60.41 99.22 94.61 1.01 96.03 1.01"/><polygon class="cls-18" points="97.47 1.01 63.27 99.22 61.84 99.22 96.03 1.01 97.47 1.01"/><polygon class="cls-19" points="98.9 1.01 64.7 99.22 63.27 99.22 97.47 1.01 98.9 1.01"/><polygon class="cls-20" points="100.33 1.01 66.13 99.22 64.7 99.22 98.9 1.01 100.33 1.01"/><polygon class="cls-21" points="101.76 1.01 67.56 99.22 66.13 99.22 100.33 1.01 101.76 1.01"/><polygon class="cls-22" points="103.19 1.01 68.99 99.22 67.56 99.22 101.76 1.01 103.19 1.01"/><polygon class="cls-23" points="104.62 1.01 70.42 99.22 68.99 99.22 103.19 1.01 104.62 1.01"/><polygon class="cls-24" points="106.05 1.01 71.85 99.22 70.42 99.22 104.62 1.01 106.05 1.01"/><polygon class="cls-25" points="107.48 1.01 73.28 99.22 71.85 99.22 106.05 1.01 107.48 1.01"/><polygon class="cls-26" points="108.91 1.01 74.72 99.22 73.28 99.22 107.48 1.01 108.91 1.01"/><polygon class="cls-27" points="110.34 1.01 76.15 99.22 74.72 99.22 108.91 1.01 110.34 1.01"/><polygon class="cls-28" points="111.77 1.01 77.58 99.22 76.15 99.22 110.34 1.01 111.77 1.01"/><polygon class="cls-29" points="113.2 1.01 79.01 99.22 77.58 99.22 111.77 1.01 113.2 1.01"/><polygon class="cls-30" points="114.64 1.01 80.44 99.22 79.01 99.22 113.2 1.01 114.64 1.01"/><polygon class="cls-31" points="116.07 1.01 81.87 99.22 80.44 99.22 114.64 1.01 116.07 1.01"/><polygon class="cls-32" points="117.5 1.01 83.3 99.22 81.87 99.22 116.07 1.01 117.5 1.01"/><polygon class="cls-33" points="118.93 1.01 84.73 99.22 83.3 99.22 117.5 1.01 118.93 1.01"/><polygon class="cls-34" points="120.36 1.01 86.16 99.22 84.73 99.22 118.93 1.01 120.36 1.01"/><polygon class="cls-35" points="121.79 1.01 87.59 99.22 86.16 99.22 120.36 1.01 121.79 1.01"/><polygon class="cls-35" points="123.22 1.01 89.02 99.22 87.59 99.22 121.79 1.01 123.22 1.01"/><polygon class="cls-36" points="124.65 1.01 90.45 99.22 89.02 99.22 123.22 1.01 124.65 1.01"/><polygon class="cls-37" points="126.08 1.01 91.88 99.22 90.45 99.22 124.65 1.01 126.08 1.01"/><polygon class="cls-38" points="127.51 1.01 93.31 99.22 91.88 99.22 126.08 1.01 127.51 1.01"/><polygon class="cls-39" points="128.94 1.01 94.75 99.22 93.31 99.22 127.51 1.01 128.94 1.01"/><polygon class="cls-40" points="130.37 1.01 96.18 99.22 94.75 99.22 128.94 1.01 130.37 1.01"/><polygon class="cls-40" points="131.8 1.01 97.61 99.22 96.18 99.22 130.37 1.01 131.8 1.01"/><polygon class="cls-41" points="133.24 1.01 99.04 99.22 97.61 99.22 131.8 1.01 133.24 1.01"/><polygon class="cls-42" points="134.67 1.01 100.47 99.22 99.04 99.22 133.24 1.01 134.67 1.01"/><polygon class="cls-43" points="136.1 1.01 101.9 99.22 100.47 99.22 134.67 1.01 136.1 1.01"/><polygon class="cls-44" points="137.53 1.01 103.33 99.22 101.9 99.22 136.1 1.01 137.53 1.01"/><polygon class="cls-44" points="138.96 1.01 104.76 99.22 103.33 99.22 137.53 1.01 138.96 1.01"/><polygon class="cls-44" points="140.39 1.01 106.19 99.22 104.76 99.22 138.96 1.01 140.39 1.01"/><polygon class="cls-44" points="141.82 1.01 107.62 99.22 106.19 99.22 140.39 1.01 141.82 1.01"/><polygon class="cls-44" points="241.18 1.01 243.13 1.69 243.13 99.22 107.62 99.22 141.82 1.01 241.18 1.01"/></g><path d="M16.35,100c-1.7,0-3.39,0-5.07,0-2,0-4,0-6,0-2.22,0-3.7-.53-4.55-1.64s-1-2.62-.4-4.66a225.66,225.66,0,0,1,15-39.92A160.59,160.59,0,0,1,38.95,18.15C49.43,6.27,61.54.91,76,1.78c9.83.59,19.89.52,29.62.44,3.77,0,7.68-.06,11.51,0a24.46,24.46,0,0,1,13.22,3.57A23.3,23.3,0,0,1,139,16a240.91,240.91,0,0,1,10.6,28.58c1.79,5.69,3.17,11.59,4.5,17.29.67,2.85,1.36,5.8,2.09,8.68a30.13,30.13,0,0,0,1.08,3.22l.33.88h.18l1.33-4c1.13-3.39,2.29-6.89,3.42-10.35,1.29-4,2.56-8,3.8-11.91,2.67-8.48,5.44-17.24,8.52-25.74,2.49-6.85,6.15-12.2,10.88-15.89,5-3.89,11.18-6,18.43-6.17C215.72.23,227.24.11,238.39,0a10.74,10.74,0,0,1,3.11.61c.55.16,1.18.35,1.88.52a1,1,0,0,1,.69,1.44c-.47,1-.9,1.95-1.31,2.87a51.79,51.79,0,0,1-2.59,5.27L239,12.63a1,1,0,1,1-1.77-1l1.14-1.92a49.58,49.58,0,0,0,2.48-5.06c.26-.58.53-1.18.81-1.79l-.77-.23a9.31,9.31,0,0,0-2.47-.53h0c-11.13.11-22.65.23-34.21.56C190.85,3,181.62,10,176.77,23.33c-3.07,8.46-5.83,17.2-8.49,25.65-1.23,3.91-2.51,8-3.8,11.93-1.13,3.46-2.29,7-3.42,10.36L159.49,76a1,1,0,0,1-1,.7l-1.64,0a1,1,0,0,1-.95-.69c-.17-.5-.37-1-.55-1.5A32.13,32.13,0,0,1,154.2,71c-.74-2.9-1.43-5.86-2.1-8.72-1.33-5.67-2.7-11.53-4.46-17.14a239,239,0,0,0-10.51-28.34c-3.79-8.21-10.72-12.57-20-12.59-3.83,0-7.72,0-11.49,0-9.76.07-19.85.15-29.76-.45C62.09,3,50.52,8.13,40.49,19.51,23.42,38.85,10.93,63.28,2.32,94.17,1.95,95.53,2,96.49,2.38,97s1.4.84,2.91.83c2,0,4,0,6,0,4.68.06,9.52.12,14.21-.29,15.75-1.36,25.92-9.28,30.23-23.54.38-1.26.83-2.52,1.26-3.73.56-1.59,1.15-3.23,1.57-4.86C62,52.37,67.14,37.41,79.51,25.83c.86-.8,1.69-1.62,2.73-2.66l1.83-1.81a1,1,0,0,1,1.7.44l.82,2.7c.46,1.51.82,2.7,1.16,3.9,1.3,4.62,2.57,9.32,3.8,13.87,2.7,10,5.48,20.32,8.71,30.3.21.66.44,1.34.68,2a1,1,0,1,1-1.94.68c-.24-.69-.48-1.39-.7-2.07-3.25-10-6-20.39-8.74-30.4-1.23-4.55-2.5-9.25-3.79-13.85-.33-1.19-.69-2.37-1.15-3.86L84.31,24l-.62.61c-1.06,1-1.9,1.87-2.77,2.69-12,11.22-17,25.84-20.35,38.67-.45,1.72-1,3.4-1.62,5-.42,1.19-.86,2.42-1.23,3.64-4.57,15.15-15.34,23.55-32,25C22.6,99.93,19.46,100,16.35,100Z" transform="translate(0)"/><path d="M163.73,98q-2.67,0-5.48-.28c-8.28-.82-16.93-.39-24.38.07-16.63,1-25.5-3.15-31.66-15a1,1,0,0,1,1.82-.95c5.78,11.1,13.83,14.86,29.71,13.86,7.54-.47,16.28-.91,24.72-.07,15.31,1.53,27.13-3.46,36.13-15.24.86-1.12,1.77-2.22,2.65-3.29A54.2,54.2,0,0,0,202,70.76C212.73,53,223.18,35.36,232.88,19a1,1,0,1,1,1.77,1c-9.7,16.39-20.15,34-30.87,51.8a55.71,55.71,0,0,1-4.95,6.62c-.87,1.05-1.77,2.14-2.6,3.23C187.86,92.62,177.19,98,163.73,98Z" transform="translate(0)"/><path class="cls-45" d="M182.14,20.53a1,1,0,0,1-.92-1.49c3.15-6.29,8.78-10.95,16.3-13.45A36.43,36.43,0,0,1,208,3.69a1,1,0,0,1,0,2.05h0a35.06,35.06,0,0,0-9.9,1.82C191.05,9.92,186,14.1,183.06,20A1,1,0,0,1,182.14,20.53Z" transform="translate(0)"/><path class="cls-45" d="M174.74,39a1,1,0,0,1-1-1.39l5.54-14.79a1,1,0,0,1,1.92.72l-5.54,14.79A1,1,0,0,1,174.74,39Z" transform="translate(0)"/></svg>