<svg id="Layer_1" data-name="Layer 1" xmlns="http://www.w3.org/2000/svg" viewBox="0 0 108.2 99.94"><defs><style>.cls-1{fill:#008cdb;}.cls-2{fill:#a9e9ff;}.cls-3{fill:none;}.cls-4{fill:#43c5ff;}</style></defs><title>eclipse</title><path class="cls-1" d="M13.09,36.14a47,47,0,0,1,14.15-22A46.36,46.36,0,0,1,60.39,2.07a45.92,45.92,0,0,1,31,12.47,47.18,47.18,0,0,1,13.77,21.6Z"/><path d="M105.2,37.3H13.09A1.16,1.16,0,0,1,12,35.81,48,48,0,0,1,26.46,13.27,47.68,47.68,0,0,1,60.42.91a47.26,47.26,0,0,1,31.8,12.77,48.18,48.18,0,0,1,14.09,22.12,1.16,1.16,0,0,1-1.11,1.49ZM14.67,35h88.95a46.1,46.1,0,0,0-13-19.59A45,45,0,0,0,60.36,3.23,45.45,45.45,0,0,0,28,15,45.77,45.77,0,0,0,14.67,35Z"/><path class="cls-1" d="M13.29,63.8h91.85a43.85,43.85,0,0,1-9.33,17c-8.68,10.1-19.56,16.09-32.94,17-12.69.88-24.14-2.44-34-10.63C20.38,80.23,14.62,70.51,13.29,63.8Z"/><path class="cls-2" d="M51.07,0C35.81,3.16,23.82,11.09,15.63,24.43A47.74,47.74,0,0,0,8.55,51.79,48.87,48.87,0,0,0,21.37,83.36,51.8,51.8,0,0,0,51.1,99.86C39,100.68,20.88,95.18,9.35,79A49.55,49.55,0,0,1,7.6,23.7C17.64,7.85,32.43.3,51.07,0Z"/><path class="cls-1" d="M59.25,52.56H105c2.06,0,2.16.11,1.9,2.12-.48,3.75-.48,3.75-4.25,3.75H14c-2.27,0-2.32,0-2.5-2.27-.3-3.75-1.25-3.61,3.32-3.61Z"/><path class="cls-1" d="M59.15,47.3H13.23c-2.08,0-2.1,0-1.83-2.14.48-3.73.48-3.73,4.26-3.73H104c2.52,0,2.52,0,2.75,2.49.32,3.39.32,3.39-3.09,3.39Z"/><path class="cls-3" d="M13.09,36.14a47,47,0,0,1,14.15-22A46.36,46.36,0,0,1,60.39,2.07a45.92,45.92,0,0,1,31,12.47,47.18,47.18,0,0,1,13.77,21.6Z"/><path d="M80.53,59.6H14c-1.35,0-2.16,0-2.8-.58s-.74-1.46-.85-2.76c0-.63-.12-1.15-.18-1.58-.14-1-.25-1.87.33-2.54s1.58-.75,3.83-.74H105c1.11,0,2.07,0,2.69.7s.5,1.64.36,2.73c-.27,2.09-.41,3.25-1.27,4s-2,.76-4.13.76ZM12.82,57.25c.26,0,.74,0,1.21,0h88.67a8.55,8.55,0,0,0,2.59-.18,8.59,8.59,0,0,0,.51-2.56c0-.19.07-.53.09-.8-.27,0-.64,0-.83,0H14.36c-.77,0-1.51,0-1.94,0,0,.18,0,.41.08.62.06.45.14,1,.19,1.7C12.72,56.45,12.76,57,12.82,57.25Z"/><path d="M37.12,48.46H13.23c-1.25,0-2.08,0-2.66-.67s-.48-1.51-.32-2.79c.27-2.09.42-3.23,1.28-4s2-.75,4.13-.75H104c3.11,0,3.62.46,3.9,3.54.18,2,.29,3.05-.45,3.85s-1.82.8-3.8.8H37.12ZM12.45,46.13h91.22a14.65,14.65,0,0,0,2.05-.08,14.6,14.6,0,0,0-.12-2,13,13,0,0,0-.17-1.4,13,13,0,0,0-1.42,0H15.66a8.59,8.59,0,0,0-2.6.18,8.52,8.52,0,0,0-.51,2.54C12.52,45.58,12.48,45.89,12.45,46.13Z"/><path d="M59,99.14a47.24,47.24,0,0,1-30.91-11C18.92,80.53,13.4,70.31,12.15,64a1.16,1.16,0,0,1,1.14-1.39h91.85a1.16,1.16,0,0,1,1.12,1.47A44.92,44.92,0,0,1,96.7,81.58l0,0a1.17,1.17,0,0,1-1.64.13,1.15,1.15,0,0,1-.13-1.63l0,0,0,0A43.07,43.07,0,0,0,103.59,65H14.76c1.64,5.94,6.73,14.68,14.81,21.36C39,94.08,50.13,97.57,62.79,96.69a44.22,44.22,0,0,0,25.27-9.9,1.16,1.16,0,0,1,1.46,1.8A46.49,46.49,0,0,1,63,99Q61,99.14,59,99.14Z"/><path class="cls-4" d="M97.71,30.08a1.45,1.45,0,0,1-1.27-.74c-2.36-4.24-7.32-8.35-7.37-8.39a1.45,1.45,0,0,1,1.85-2.24c.22.18,5.43,4.51,8.06,9.22a1.45,1.45,0,0,1-1.26,2.16Z"/><path class="cls-4" d="M86.47,18a1.45,1.45,0,0,1-1.09-.49,19.09,19.09,0,0,0-3.48-2.81,1.45,1.45,0,1,1,1.6-2.42,21.27,21.27,0,0,1,4.06,3.32A1.45,1.45,0,0,1,86.47,18Z"/></svg>