<svg id="Layer_1" data-name="Layer 1" xmlns="http://www.w3.org/2000/svg" viewBox="0 0 117.523 100"><defs><style>.cls-1{fill:#f7ff52;}.cls-2{fill:#9aaa00;}.cls-3{fill:#fff;}.cls-4{fill:#ef3c3c;}.cls-5,.cls-6{fill:none;stroke-miterlimit:10;}.cls-5{stroke:#000;stroke-width:10px;}.cls-6{stroke:#a6a6ff;stroke-linecap:round;stroke-width:5px;}.cls-7{fill:#a6a6ff;}</style></defs><title>ecommerce_portal_development</title><path class="cls-1" d="M75.389,97.037l-11.611-7.5V78.763H51.737V89.534L40.828,97.271c-.97.481-.524,1.63.633,1.63l33.294-.234c1.157,0,1.6-1.149.633-1.63Zm0,0"/><path class="cls-2" d="M5.9,78.295a4.683,4.683,0,0,1-4.683-4.683V13.666A4.683,4.683,0,0,1,5.9,8.983H111.741a4.683,4.683,0,0,1,4.683,4.683V73.611a4.683,4.683,0,0,1-4.683,4.683Zm0,0"/><path d="M111.741,79.394H100.367a1.1,1.1,0,1,1,0-2.2h11.374a3.588,3.588,0,0,0,3.584-3.584V13.666a3.588,3.588,0,0,0-3.584-3.584H5.9a3.588,3.588,0,0,0-3.584,3.584V73.611A3.588,3.588,0,0,0,5.9,77.2H84.444a1.1,1.1,0,0,1,0,2.2H5.9A5.789,5.789,0,0,1,.117,73.611V13.666A5.789,5.789,0,0,1,5.9,7.883H111.741a5.789,5.789,0,0,1,5.782,5.782V73.611A5.789,5.789,0,0,1,111.741,79.394Z"/><path d="M93.342,79.394H89.127a1.1,1.1,0,0,1,0-2.2h4.215a1.1,1.1,0,0,1,0,2.2Z"/><path d="M41.469,100a2.194,2.194,0,0,1-2.223-1.583,1.863,1.863,0,0,1,1.007-2.085l10.385-7.365v-11.3h14.24V88.936l11.064,7.149a1.867,1.867,0,0,1,1.031,2.1,2.191,2.191,0,0,1-2.216,1.583Zm33.455-1.965ZM52.836,79.862V90.1L41.985,97.8l32.206-.227L62.679,90.133V79.862Z"/><path class="cls-3" d="M20.418,1.021V8.614a9.6,9.6,0,0,1-19.2,0V1.021Zm0,0"/><path class="cls-3" d="M28.379,8.614V1.021H20.418V8.614A9.6,9.6,0,0,0,34,17.35a9.6,9.6,0,0,1-5.62-8.736Zm0,0"/><path class="cls-4" d="M39.619,8.614V1.021H28.379V8.614A9.6,9.6,0,0,0,34,17.35a9.6,9.6,0,0,0,5.62-8.736Zm0,0"/><path class="cls-3" d="M58.82,1.021V8.614a9.6,9.6,0,0,1-19.2,0V1.021Zm0,0"/><path class="cls-3" d="M66.157,8.614V1.021H58.82V8.614A9.6,9.6,0,0,0,72.09,17.487a9.6,9.6,0,0,1-5.933-8.873Zm0,0"/><path class="cls-4" d="M78.021,8.614V1.021H66.157V8.614a9.6,9.6,0,0,0,5.932,8.873,9.6,9.6,0,0,0,5.933-8.873Zm0,0"/><path class="cls-3" d="M97.223,1.021V8.614a9.6,9.6,0,0,1-19.2,0V1.021Zm0,0"/><path class="cls-3" d="M105.418,8.614V1.021h-8.2V8.614a9.6,9.6,0,0,0,13.7,8.683,9.6,9.6,0,0,1-5.5-8.683Zm0,0"/><path class="cls-4" d="M116.424,8.614V1.021H105.418V8.614a9.6,9.6,0,0,0,5.5,8.683,9.6,9.6,0,0,0,5.5-8.683Zm0,0"/><path d="M10.7,19.392A10.712,10.712,0,0,1,0,8.692V0H21.4V8.692A10.712,10.712,0,0,1,10.7,19.392ZM2.2,2.2V8.692a8.5,8.5,0,1,0,17,0V2.2Z"/><path class="cls-5" d="M28.262,4.009"/><path class="cls-5" d="M39.5,4.009"/><path d="M49.1,19.392a10.712,10.712,0,0,1-10.7-10.7V0H59.8V8.692A10.712,10.712,0,0,1,49.1,19.392ZM40.6,2.2V8.692a8.5,8.5,0,1,0,17,0V2.2Z"/><path d="M30.135,19.392a10.712,10.712,0,0,1-10.7-10.7V0h21.4V8.692A10.712,10.712,0,0,1,30.135,19.392ZM21.634,2.2V8.692a8.5,8.5,0,1,0,17,0V2.2Z"/><path d="M87.5,19.392a10.712,10.712,0,0,1-10.7-10.7V0H98.2V8.692A10.712,10.712,0,0,1,87.5,19.392ZM79,2.2V8.692a8.5,8.5,0,1,0,17,0V2.2Z"/><path d="M106.706,19.392a10.712,10.712,0,0,1-10.7-10.7V0h21.4V8.692A10.712,10.712,0,0,1,106.706,19.392ZM98.2,2.2V8.692a8.5,8.5,0,0,0,17,0V2.2Z"/><path d="M68.3,19.392a10.712,10.712,0,0,1-10.7-10.7V0H79V8.692A10.712,10.712,0,0,1,68.3,19.392ZM59.8,2.2V8.692a8.5,8.5,0,0,0,17,0V2.2Z"/><path class="cls-3" d="M21.357,33.8l-2.444-7.49,8.245,30H40.973L34.786,33.8Zm0,0"/><path class="cls-1" d="M35.173,33.8h-.386l6.187,22.513h12.3L58.79,33.8Zm0,0"/><path class="cls-3" d="M83.564,58.625a4.683,4.683,0,0,1,4.683-4.683H76.616a4.683,4.683,0,0,0,0,9.366h11.63a4.683,4.683,0,0,1-4.683-4.683Zm0,0"/><path class="cls-4" d="M103.779,58.625A4.683,4.683,0,0,0,99.1,53.942H88.247a4.683,4.683,0,0,0,0,9.366H99.1a4.683,4.683,0,0,0,4.683-4.683Zm0,0"/><path d="M55.553,56.87l5.512-22.513a2.341,2.341,0,0,0-2.275-2.9H22.755L21.17,25.69a2.342,2.342,0,0,0-2.258-1.721H13.939a2.342,2.342,0,1,0,0,4.683h3.189L24.9,56.934a2.341,2.341,0,0,0,2.257,1.721h26.12a2.341,2.341,0,0,0,2.275-1.785Zm-26.609-2.9-4.9-17.829H55.806L51.44,53.972Zm0,0"/><path d="M27.192,61.73a2.338,2.338,0,1,0,1.656-.687,2.357,2.357,0,0,0-1.656.687Zm0,0"/><path d="M47.564,61.73a2.338,2.338,0,1,0,1.656-.687,2.357,2.357,0,0,0-1.656.687Zm0,0"/><path d="M76.616,65.65H99.1a7.025,7.025,0,0,0,0-14.05H76.616a7.025,7.025,0,1,0,0,14.05Zm0-9.366H99.1a2.342,2.342,0,0,1,0,4.683H76.616a2.342,2.342,0,0,1,0-4.683Zm0,0"/><path d="M71.933,46.917h31.846a2.342,2.342,0,0,0,0-4.683H71.933a2.342,2.342,0,1,0,0,4.683Zm0,0"/><path d="M103.779,37.555a2.342,2.342,0,0,0,0-4.683H82.159a2.342,2.342,0,1,0,0,4.683Zm0,0"/><path d="M71.933,37.555a2.342,2.342,0,1,0-1.656-.686,2.36,2.36,0,0,0,1.656.686Zm0,0"/><path class="cls-6" d="M64.117,92.665"/><path class="cls-7" d="M60.9,90.083a.55.55,0,0,1-.55-.55V81.68a.55.55,0,1,1,1.1,0v7.853A.55.55,0,0,1,60.9,90.083Z"/></svg>