<svg id="Layer_1" data-name="Layer 1" xmlns="http://www.w3.org/2000/svg" viewBox="0 0 99.11 99.9"><defs><style>.cls-1{fill:#8c95a4;}.cls-2{fill:#798699;}.cls-3{fill:#39c3fc;}.cls-4{fill:#ececec;}.cls-5{fill:#b6c1ce;}.cls-6{fill:#d3a06c;}.cls-7{fill:#b27946;}.cls-8{fill:#148ce0;}.cls-9{fill:#afb8c9;}.cls-10{fill:#ffc729;}.cls-11{fill:#cd2c5a;}.cls-12{fill:#fcd770;}.cls-13{fill:#fb5968;}</style></defs><title>ecommerce_solution</title><rect class="cls-1" x="28.54" y="87.37" width="42.02" height="11.31"/><rect class="cls-2" x="28.54" y="87.37" width="42.02" height="4.85"/><path class="cls-3" d="M20.46,18.84H7.53a6.47,6.47,0,0,0-6.47,6.47V75.41H98V25.31a6.47,6.47,0,0,0-6.47-6.47H20.46Z"/><polygon class="cls-4" points="75.42 18.84 75.42 51.17 65.72 51.17 31.77 51.17 23.69 51.17 23.69 18.84 75.42 18.84"/><rect class="cls-5" x="23.69" y="18.84" width="51.72" height="8.08"/><path d="M75.41,52.23H23.69a1.06,1.06,0,0,1-1.06-1.06V18.84a1.06,1.06,0,0,1,1.06-1.06H75.41a1.06,1.06,0,0,1,1.06,1.06V51.17A1.06,1.06,0,0,1,75.41,52.23ZM24.76,50.11H74.35V19.91H24.76Z"/><polygon class="cls-6" points="67.33 64.1 31.77 64.1 35.01 31.77 62.48 31.77 67.33 64.1"/><polygon class="cls-7" points="60.87 31.77 59.25 64.1 67.33 64.1 62.48 31.77 60.87 31.77"/><path d="M67.33,64.63H59.25a.53.53,0,0,1-.53-.56l1.62-32.33a.53.53,0,0,1,.53-.51h1.62a.53.53,0,0,1,.53.45L67.86,64a.53.53,0,0,1-.53.61Zm-7.52-1.06h6.9L62,32.31h-.65Z"/><path d="M67.33,65H31.77a.85.85,0,0,1-.85-.94l3.23-32.33a.85.85,0,0,1,.85-.77H62.48a.85.85,0,0,1,.84.73L68.18,64a.85.85,0,0,1-.84,1Zm-34.62-1.7H66.34L61.75,32.63h-26Z"/><path d="M70.57,99.53h-42a.85.85,0,0,1-.85-.85V87.37a.85.85,0,0,1,.85-.85h42a.85.85,0,0,1,.85.85V98.68A.85.85,0,0,1,70.57,99.53Zm-41.17-1.7H69.71V88.22H29.39Z"/><rect class="cls-8" x="1.06" y="72.18" width="96.98" height="4.85"/><path class="cls-9" d="M1.06,75.41H98v6.47a6.47,6.47,0,0,1-6.47,6.47h-84a6.47,6.47,0,0,1-6.47-6.47Z"/><path class="cls-10" d="M40.13,17.23l-.27,3.23a4.85,4.85,0,1,0,9.7,0V17.23Z"/><path class="cls-10" d="M59,17.23l.27,3.23a4.85,4.85,0,0,0,9.7,0l-.54-3.23Z"/><path class="cls-10" d="M25.31,25.31a4.85,4.85,0,0,0,4.85-4.85l.54-3.23H21.54l-1.08,3.23A4.85,4.85,0,0,0,25.31,25.31Z"/><path class="cls-11" d="M30.7,17.23l-.54,3.23a4.85,4.85,0,0,0,9.7,0l.27-3.23Z"/><path class="cls-11" d="M68.95,20.46a4.85,4.85,0,1,0,9.7,0l-1.08-3.23H68.41Z"/><path class="cls-11" d="M49.55,17.23v3.23a4.85,4.85,0,0,0,9.7,0L59,17.23Z"/><path d="M52.79,38.24v1.62a4.85,4.85,0,1,1-9.7,0V38.24H39.86v1.62a8.08,8.08,0,1,0,16.16,0V38.24Z"/><path d="M80.36,76.48H1.06a1.06,1.06,0,0,1,0-2.13H80.36a1.06,1.06,0,0,1,0,2.13Z"/><path d="M98,76.48H86a1.06,1.06,0,0,1,0-2.13H98a1.06,1.06,0,0,1,0,2.13Z"/><path d="M84.33,99.9H11.67a1.06,1.06,0,0,1,0-2.13H84.33a1.06,1.06,0,0,1,0,2.13Z"/><rect x="40.29" y="80.81" width="18.52" height="3.37" rx="1.69" ry="1.69"/><path d="M91.58,89.41h-84A7.54,7.54,0,0,1,0,81.88V25.31a7.54,7.54,0,0,1,7.53-7.53h84a7.54,7.54,0,0,1,7.53,7.53v7.53a1.06,1.06,0,1,1-2.13,0V25.31a5.41,5.41,0,0,0-5.4-5.4h-84a5.41,5.41,0,0,0-5.4,5.4V81.88a5.41,5.41,0,0,0,5.4,5.4h84a5.41,5.41,0,0,0,5.4-5.4V38.24a1.06,1.06,0,1,1,2.13,0V81.88A7.54,7.54,0,0,1,91.58,89.41Z"/><path class="cls-12" d="M26.93,1.06l-6.47,19.4a4.85,4.85,0,1,0,9.7,0,4.85,4.85,0,0,0,9.7,0,4.85,4.85,0,1,0,9.7,0,4.85,4.85,0,0,0,9.7,0,4.85,4.85,0,0,0,9.7,0,4.85,4.85,0,1,0,9.7,0L72.18,1.06Z"/><path class="cls-13" d="M33.39,1.06l-3.23,19.4a4.85,4.85,0,0,0,9.7,0l1.62-19.4Z"/><path class="cls-13" d="M73.8,25.31a4.85,4.85,0,0,0,4.85-4.85L72.18,1.06H65.72l3.23,19.4A4.85,4.85,0,0,0,73.8,25.31Z"/><path class="cls-13" d="M49.55,1.06v19.4a4.85,4.85,0,0,0,9.7,0L57.64,1.06Z"/><path d="M73.8,26.37a5.91,5.91,0,0,1-4.85-2.53,5.91,5.91,0,0,1-9.7,0,5.91,5.91,0,0,1-9.7,0,5.91,5.91,0,0,1-9.7,0,5.91,5.91,0,0,1-9.7,0A5.91,5.91,0,0,1,19.4,20.46v-.17L26.16,0H72.95l6.76,20.29v.17A5.92,5.92,0,0,1,73.8,26.37Zm-5.91-5.91H70a3.78,3.78,0,0,0,7.57.16L71.42,2.13H27.69L21.53,20.62a3.78,3.78,0,0,0,7.57-.16h2.13a3.78,3.78,0,0,0,7.57,0h2.13a3.78,3.78,0,1,0,7.57,0h2.13a3.78,3.78,0,1,0,7.57,0h2.13a3.78,3.78,0,1,0,7.57,0Z"/><path class="cls-4" d="M94.12,70.38a.85.85,0,0,1-.85-.85V55.43a.85.85,0,0,1,1.7,0v14.1A.85.85,0,0,1,94.12,70.38Z"/><path class="cls-4" d="M94.12,52.93a.85.85,0,0,1-.85-.85V47.94a.85.85,0,0,1,1.7,0v4.14A.85.85,0,0,1,94.12,52.93Z"/></svg>