<svg id="Layer_1" data-name="Layer 1" xmlns="http://www.w3.org/2000/svg" viewBox="0 0 117.52 100"><defs><style>.cls-1{fill:#f28840;}.cls-2{fill:#05dbc6;}.cls-3{fill:#fff;}.cls-4,.cls-5{fill:none;stroke-miterlimit:10;}.cls-4{stroke:#000;stroke-width:10px;}.cls-5{stroke:#a6a6ff;stroke-linecap:round;stroke-width:5px;}</style></defs><title>eCommerce &amp;amp; CMS Web Development</title><path class="cls-1" d="M75.39,97l-11.61-7.5V78.76h-12V89.53L40.83,97.27c-1,.48-.52,1.63.63,1.63l33.29-.23c1.16,0,1.6-1.15.63-1.63Zm0,0"/><path class="cls-2" d="M5.9,78.29a4.68,4.68,0,0,1-4.68-4.68V13.67A4.68,4.68,0,0,1,5.9,9H111.74a4.68,4.68,0,0,1,4.68,4.68V73.61a4.68,4.68,0,0,1-4.68,4.68Zm0,0"/><path d="M111.74,79.39H100.37a1.1,1.1,0,1,1,0-2.2h11.37a3.59,3.59,0,0,0,3.58-3.58V13.67a3.59,3.59,0,0,0-3.58-3.58H5.9a3.59,3.59,0,0,0-3.58,3.58V73.61A3.59,3.59,0,0,0,5.9,77.2H84.44a1.1,1.1,0,0,1,0,2.2H5.9A5.79,5.79,0,0,1,.12,73.61V13.67A5.79,5.79,0,0,1,5.9,7.88H111.74a5.79,5.79,0,0,1,5.78,5.78V73.61A5.79,5.79,0,0,1,111.74,79.39Z"/><path d="M93.34,79.39H89.13a1.1,1.1,0,0,1,0-2.2h4.21a1.1,1.1,0,0,1,0,2.2Z"/><path d="M41.47,100a2.19,2.19,0,0,1-2.22-1.58,1.86,1.86,0,0,1,1-2.09L50.64,89V77.66H64.88V88.94l11.06,7.15a1.87,1.87,0,0,1,1,2.1,2.19,2.19,0,0,1-2.22,1.58Zm33.45-2ZM52.84,79.86V90.1L42,97.8l32.21-.23L62.68,90.13V79.86Z"/><path class="cls-3" d="M20.42,1V8.61a9.6,9.6,0,0,1-19.2,0V1Zm0,0"/><path class="cls-3" d="M28.38,8.61V1h-8V8.61A9.6,9.6,0,0,0,34,17.35a9.6,9.6,0,0,1-5.62-8.74Zm0,0"/><path class="cls-1" d="M39.62,8.61V1H28.38V8.61A9.6,9.6,0,0,0,34,17.35a9.6,9.6,0,0,0,5.62-8.74Zm0,0"/><path class="cls-3" d="M58.82,1V8.61a9.6,9.6,0,0,1-19.2,0V1Zm0,0"/><path class="cls-3" d="M66.16,8.61V1H58.82V8.61a9.6,9.6,0,0,0,13.27,8.87,9.6,9.6,0,0,1-5.93-8.87Zm0,0"/><path class="cls-1" d="M78,8.61V1H66.16V8.61a9.6,9.6,0,0,0,5.93,8.87A9.6,9.6,0,0,0,78,8.61Zm0,0"/><path class="cls-3" d="M97.22,1V8.61a9.6,9.6,0,0,1-19.2,0V1Zm0,0"/><path class="cls-3" d="M105.42,8.61V1h-8.2V8.61a9.6,9.6,0,0,0,13.7,8.68,9.6,9.6,0,0,1-5.5-8.68Zm0,0"/><path class="cls-1" d="M116.42,8.61V1h-11V8.61a9.6,9.6,0,0,0,5.5,8.68,9.6,9.6,0,0,0,5.5-8.68Zm0,0"/><path d="M10.7,19.39A10.71,10.71,0,0,1,0,8.69V0H21.4V8.69A10.71,10.71,0,0,1,10.7,19.39ZM2.2,2.2V8.69a8.5,8.5,0,1,0,17,0V2.2Z"/><path class="cls-4" d="M28.26,4"/><path class="cls-4" d="M39.5,4"/><path d="M49.1,19.39A10.71,10.71,0,0,1,38.4,8.69V0H59.8V8.69A10.71,10.71,0,0,1,49.1,19.39ZM40.6,2.2V8.69a8.5,8.5,0,1,0,17,0V2.2Z"/><path d="M30.14,19.39a10.71,10.71,0,0,1-10.7-10.7V0h21.4V8.69A10.71,10.71,0,0,1,30.14,19.39ZM21.63,2.2V8.69a8.5,8.5,0,1,0,17,0V2.2Z"/><path d="M87.5,19.39a10.71,10.71,0,0,1-10.7-10.7V0H98.2V8.69A10.71,10.71,0,0,1,87.5,19.39ZM79,2.2V8.69a8.5,8.5,0,1,0,17,0V2.2Z"/><path d="M106.71,19.39A10.71,10.71,0,0,1,96,8.69V0h21.4V8.69A10.71,10.71,0,0,1,106.71,19.39ZM98.2,2.2V8.69a8.5,8.5,0,0,0,17,0V2.2Z"/><path d="M68.3,19.39A10.71,10.71,0,0,1,57.6,8.69V0H79V8.69A10.71,10.71,0,0,1,68.3,19.39ZM59.8,2.2V8.69a8.5,8.5,0,0,0,17,0V2.2Z"/><path class="cls-3" d="M19.32,36.08l-1.94-5.94,6.54,23.8h11L30,36.08Zm0,0"/><path class="cls-1" d="M30.28,36.08H30l4.91,17.86h9.76L49,36.08Zm0,0"/><path d="M46.44,54.39l4.37-17.86a1.86,1.86,0,0,0-1.8-2.3H20.42l-1.26-4.58a1.86,1.86,0,0,0-1.79-1.37H13.43a1.86,1.86,0,1,0,0,3.72H16l6.17,22.44a1.86,1.86,0,0,0,1.79,1.37H44.64a1.86,1.86,0,0,0,1.8-1.42Zm-21.11-2.3L21.45,37.94h25.2L43.18,52.09Zm0,0"/><path d="M25.23,57.36a3.09,3.09,0,1,0,2.19-.91,3.12,3.12,0,0,0-2.19.91Zm0,0"/><path d="M38.58,57.36a3.09,3.09,0,1,0,2.19-.91,3.12,3.12,0,0,0-2.19.91Zm0,0"/><path class="cls-5" d="M64.12,92.67"/><path class="cls-3" d="M61.09,51.79A5.24,5.24,0,0,0,64.67,53a5.69,5.69,0,0,0,3.7-1.16,3.78,3.78,0,0,0,1.43-3.09,1.27,1.27,0,0,0-1.42-1.37q-1.31,0-1.37.88c-.1,1.37-.73,2.3-2.19,2.3s-2.3-.82-2.3-2.47v-6q0-2.47,2.25-2.47A2,2,0,0,1,67,41.25c.15,1,.37,1.36,1.45,1.36a1.24,1.24,0,0,0,1.4-1.37,3.58,3.58,0,0,0-1.43-3,5.8,5.8,0,0,0-3.68-1.12,5.28,5.28,0,0,0-3.59,1.19,4.68,4.68,0,0,0-1.37,3.73v6A4.7,4.7,0,0,0,61.09,51.79Z"/><path class="cls-3" d="M74.25,52.62a2.08,2.08,0,0,0,1,.24c.5,0,1.4-.21,1.4-.88V42.57l2.47,4.64a1.07,1.07,0,0,0,1.87,0l2.51-4.47V52c0,.67.87.88,1.4.88s1.4-.22,1.4-.88V38.55a1.34,1.34,0,0,0-1.4-1.4,2.36,2.36,0,0,0-2.19,1.48L80,43.45,77.4,38.64a2.31,2.31,0,0,0-2.17-1.48,1.32,1.32,0,0,0-1.4,1.4V52A.73.73,0,0,0,74.25,52.62Z"/><path class="cls-3" d="M92,52.23a6.92,6.92,0,0,0,3.5.84,5.52,5.52,0,0,0,3.7-1.2,4.22,4.22,0,0,0,1.41-3.4,4.61,4.61,0,0,0-1.79-3.78c-1.41-1-3.33-1.31-4.58-2.44a1.48,1.48,0,0,1,.12-2.3,3.12,3.12,0,0,1,1.79-.44c1.07,0,2,.82,3,.82.71,0,1.12-.89,1.12-1.5,0-.81-.91-1.26-1.58-1.43a9,9,0,0,0-4.37-.1,4.16,4.16,0,0,0-3.35,4.13,4.07,4.07,0,0,0,1.36,3.12,27.63,27.63,0,0,0,4.17,2.21,2.38,2.38,0,0,1,1.36,2c0,1.32-1.26,1.87-2.41,1.87-1.32,0-2-.71-3-1.45a1,1,0,0,0-1.48.24,1.67,1.67,0,0,0-.38,1Q90.55,51.39,92,52.23Z"/><path d="M64.67,53.41a5.67,5.67,0,0,1-3.86-1.3h0a5.11,5.11,0,0,1-1.51-4v-6a5.09,5.09,0,0,1,1.52-4,5.71,5.71,0,0,1,3.86-1.3,6.24,6.24,0,0,1,3.94,1.21,4,4,0,0,1,1.59,3.3A1.66,1.66,0,0,1,68.4,43c-1.34,0-1.69-.61-1.87-1.72A1.64,1.64,0,0,0,64.77,40c-1.27,0-1.83.63-1.83,2v6c0,1.41.58,2,1.87,2,.7,0,1.64-.2,1.77-1.9,0-.48.32-1.27,1.8-1.27a1.69,1.69,0,0,1,1.84,1.8,4.21,4.21,0,0,1-1.59,3.42A6.13,6.13,0,0,1,64.67,53.41Zm0-15.83a4.89,4.89,0,0,0-3.31,1.09,4.3,4.3,0,0,0-1.23,3.4v6a4.32,4.32,0,0,0,1.22,3.41h0a4.85,4.85,0,0,0,3.3,1.09A5.31,5.31,0,0,0,68.1,51.5a3.35,3.35,0,0,0,1.27-2.76c0-.65-.32-1-1-1-.91,0-.94.34-1,.49C67.3,50,66.37,51,64.82,51c-1.24,0-2.72-.5-2.72-2.89v-6c0-1.87,1-2.89,2.68-2.89a2.43,2.43,0,0,1,2.6,2c.13.84.23,1,1,1s1-.28,1-.95a3.15,3.15,0,0,0-1.27-2.63A5.42,5.42,0,0,0,64.69,37.58Z"/><path d="M75.23,53.28A2.54,2.54,0,0,1,74,53h0a1.15,1.15,0,0,1-.62-1V38.55a1.74,1.74,0,0,1,1.82-1.82,2.74,2.74,0,0,1,2.54,1.7l.05.1,2.22,4,2.27-4.13a2.79,2.79,0,0,1,2.56-1.7,1.76,1.76,0,0,1,1.82,1.82V52c0,1-1.09,1.31-1.82,1.31s-1.82-.41-1.82-1.31V44.36l-1.72,3.05a1.48,1.48,0,0,1-1.31.76h0a1.47,1.47,0,0,1-1.3-.77l-1.67-3.14V52C77.05,52.83,76.14,53.28,75.23,53.28Zm0-15.7a.89.89,0,0,0-1,1V52s0,.16.2.27h0a1.67,1.67,0,0,0,.77.18c.33,0,1-.14,1-.46V40.87l.8,1.5L79.47,47a.61.61,0,0,0,.55.32h0a.62.62,0,0,0,.56-.32l3.31-5.89V52c0,.32.63.46,1,.46s1-.16,1-.46V38.55a.91.91,0,0,0-1-1c-.81,0-1.3.34-1.82,1.26l-3,5.49-2.6-4.74c-.23-.42-.35-.63-.41-.75h0C76.5,37.9,76,37.58,75.23,37.58Z"/><path d="M95.51,53.49a7.37,7.37,0,0,1-3.71-.89c-1.11-.64-1.67-1.38-1.67-2.19a2.09,2.09,0,0,1,.46-1.25,1.52,1.52,0,0,1,1-.64,1.45,1.45,0,0,1,1.09.32l.37.28a3.7,3.7,0,0,0,2.4,1.08,2.6,2.6,0,0,0,1.4-.37,1.22,1.22,0,0,0,.58-1.07,2,2,0,0,0-1.14-1.61c-.47-.26-1-.49-1.46-.71A13.11,13.11,0,0,1,92,44.89a4.48,4.48,0,0,1-1.53-3.46,4.6,4.6,0,0,1,3.67-4.54,9.47,9.47,0,0,1,4.58.1c.92.23,1.9.84,1.9,1.85A2.34,2.34,0,0,1,100.3,40a1.4,1.4,0,0,1-1.18.72h0a4.11,4.11,0,0,1-1.58-.43,3.67,3.67,0,0,0-1.38-.39,2.73,2.73,0,0,0-1.55.36,1,1,0,0,0-.43.77,1.06,1.06,0,0,0,.35.86A8.62,8.62,0,0,0,97,43.28a12.34,12.34,0,0,1,2.11,1.06,5,5,0,0,1,2,4.13,4.64,4.64,0,0,1-1.56,3.72A6,6,0,0,1,95.51,53.49Zm-3.76-4.14h-.06a.72.72,0,0,0-.43.31,1.27,1.27,0,0,0-.29.74c0,.49.42,1,1.25,1.46h0a6.54,6.54,0,0,0,3.29.78,5.14,5.14,0,0,0,3.43-1.1,3.78,3.78,0,0,0,1.26-3.08A4.22,4.22,0,0,0,98.59,45a11.54,11.54,0,0,0-2-1A9.38,9.38,0,0,1,94,42.57,1.91,1.91,0,0,1,93.33,41a1.85,1.85,0,0,1,.79-1.42,3.53,3.53,0,0,1,2-.52,4.35,4.35,0,0,1,1.71.45,3.45,3.45,0,0,0,1.25.36h0a.6.6,0,0,0,.47-.32,1.5,1.5,0,0,0,.22-.75c0-.52-.68-.87-1.26-1a8.63,8.63,0,0,0-4.16-.1,3.74,3.74,0,0,0-3,3.72,3.63,3.63,0,0,0,1.2,2.79,12.29,12.29,0,0,0,2.59,1.44c.5.23,1,.47,1.52.74a2.76,2.76,0,0,1,1.59,2.36,2.05,2.05,0,0,1-1,1.78,3.42,3.42,0,0,1-1.87.51,4.47,4.47,0,0,1-2.92-1.26l-.36-.27A.67.67,0,0,0,91.75,49.35Z"/></svg>