<svg id="Layer_1" data-name="Layer 1" xmlns="http://www.w3.org/2000/svg" viewBox="0 0 82.92 100"><defs><style>.cls-1{fill:#d1d1d1;}.cls-2{fill:#fff18d;}.cls-3{fill:#8af9ff;}.cls-4{fill:#5b5b5b;}</style></defs><title>Enterprise_Mobile_Application</title><path class="cls-1" d="M55.68,76.14h-3.8l-.55-5.68a21.05,21.05,0,0,1-7-2.94L40,71.14l-5.4-5.4,3.63-4.38a20.48,20.48,0,0,1-2.94-7l-5.68-.55V46.17l5.68-.55a21,21,0,0,1,2.94-7l-3.63-4.38,5.4-5.4,4.38,3.62a20.46,20.46,0,0,1,7-2.94l.55-5.68h7.66l.55,5.68a21.07,21.07,0,0,1,7,2.94l4.38-3.62,5.34,5.4-3.63,4.38a20.45,20.45,0,0,1,2.94,7l5.68.55v7.66l-5.61.55a21,21,0,0,1-2.94,7l3.63,4.38-5.4,5.4-4.38-3.62a20.47,20.47,0,0,1-7,2.94l-.55,5.68ZM70.63,50A14.92,14.92,0,1,0,55.72,64.92,14.92,14.92,0,0,0,70.63,50Zm0,0"/><path d="M60.58,77.27H50.85l-.57-5.9a22.08,22.08,0,0,1-5.83-2.46L39.9,72.68,33,65.81l3.76-4.54a21.49,21.49,0,0,1-2.46-5.84l-5.9-.57V45.14l5.9-.57a22.08,22.08,0,0,1,2.46-5.83L33,34.19l6.87-6.87,4.54,3.76a21.47,21.47,0,0,1,5.84-2.46l.57-5.9h9.73l.57,5.9A22.09,22.09,0,0,1,67,31.08l4.55-3.77,6.79,6.88-3.76,4.53A21.47,21.47,0,0,1,77,44.57l5.9.57v9.73l-5.83.57a22.07,22.07,0,0,1-2.46,5.83l3.76,4.54-6.87,6.87L67,68.92a21.48,21.48,0,0,1-5.84,2.46ZM52.92,75h5.6L59,69.52l.81-.18a19.26,19.26,0,0,0,6.59-2.78l.7-.47,4.23,3.5,3.94-3.94-3.5-4.23.46-.7a19.84,19.84,0,0,0,2.78-6.6l.18-.8,5.4-.53V47.2l-5.48-.53L75,45.86a19.24,19.24,0,0,0-2.78-6.59l-.47-.7,3.51-4.24L71.38,30.4l-4.22,3.5-.7-.46a19.86,19.86,0,0,0-6.6-2.78L59,30.47,58.51,25h-5.6l-.53,5.48-.81.18A19.25,19.25,0,0,0,45,33.43l-.7.47L40,30.39l-3.94,3.94,3.5,4.23-.46.7a19.84,19.84,0,0,0-2.78,6.6l-.18.81-5.47.53v5.6l5.48.53.18.81a19.26,19.26,0,0,0,2.78,6.59l.47.7-3.5,4.23L40,69.61l4.23-3.5.7.46a19.84,19.84,0,0,0,6.6,2.78l.81.18Zm2.8-8.94a16.06,16.06,0,0,1,0-32.11h0A16.06,16.06,0,0,1,71.77,50h0A16.05,16.05,0,0,1,55.72,66.06Zm0-29.84h0a13.78,13.78,0,0,0,0,27.57h0A13.78,13.78,0,0,0,69.5,50h0A13.78,13.78,0,0,0,55.72,36.22Z"/><path class="cls-2" d="M55.72,33.79A16.21,16.21,0,1,1,39.5,50,16.21,16.21,0,0,1,55.72,33.79Zm0,0"/><path d="M55.72,67.35a17.35,17.35,0,1,1,0-34.7h0a17.35,17.35,0,1,1,0,34.7Zm0-32.42A15.08,15.08,0,1,0,70.79,50,15,15,0,0,0,55.71,34.92h0Z"/><path class="cls-1" d="M55.68,82.5v7.27a9.09,9.09,0,0,1-9.09,9.09H10.23a9.09,9.09,0,0,1-9.09-9.09V82.5ZM31.82,90.68a3.41,3.41,0,1,0-3.41,3.41,3.41,3.41,0,0,0,3.41-3.41Zm0,0"/><path class="cls-3" d="M55.68,76.14V82.5H1.14V14.77H55.68v9.09h-3.8l-.55,5.68a20.46,20.46,0,0,0-7,2.94L40,28.86l-5.4,5.4,3.63,4.38a21,21,0,0,0-2.94,7l-5.68.55v7.66l5.68.55a20.48,20.48,0,0,0,2.94,7l-3.63,4.38,5.4,5.4,4.38-3.62a21.05,21.05,0,0,0,7,2.94l.55,5.68Zm0,0"/><path class="cls-1" d="M55.68,10.23v4.55H1.14V10.23a9.09,9.09,0,0,1,9.09-9.09H46.59a9.09,9.09,0,0,1,9.09,9.09Zm0,0"/><path d="M46.59,100H10.23A10.24,10.24,0,0,1,0,89.77V81.36H56.82v8.41A10.24,10.24,0,0,1,46.59,100ZM2.27,83.64v6.14a8,8,0,0,0,8,8H46.59a8,8,0,0,0,8-8V83.64ZM28.41,95.23A4.55,4.55,0,1,1,33,90.68h0A4.55,4.55,0,0,1,28.41,95.23Zm0-6.82a2.27,2.27,0,1,0,2.27,2.27A2.28,2.28,0,0,0,28.41,88.41Z"/><path d="M56.82,15.91H0V10.23A10.24,10.24,0,0,1,10.23,0H46.59A10.24,10.24,0,0,1,56.82,10.23ZM2.27,13.64H54.55V10.23a8,8,0,0,0-8-8H10.23a8,8,0,0,0-8,8Z"/><path d="M31.82,90.68a3.41,3.41,0,1,1-3.41-3.41,3.41,3.41,0,0,1,3.41,3.41Zm0,0"/><path class="cls-3" d="M28.41,95.45a4.77,4.77,0,1,0-4.77-4.77,4.77,4.77,0,0,0,4.77,4.77Zm0-6.82a2,2,0,1,1-2,2,2,2,0,0,1,2-2Zm0,0"/><path d="M28.41,95.91h0a5.23,5.23,0,1,1,5.23-5.23A5.24,5.24,0,0,1,28.41,95.91Zm0-9.55a4.32,4.32,0,1,0,4.32,4.32A4.32,4.32,0,0,0,28.41,86.36Zm0,6.82a2.5,2.5,0,0,1,0-5h0a2.5,2.5,0,1,1,0,5Zm0-4.09A1.59,1.59,0,1,0,30,90.68,1.59,1.59,0,0,0,28.41,89.09Z"/><path d="M53,54.86a1.36,1.36,0,0,0,1.91,0l8-7.76a1.36,1.36,0,0,0-1.9-2l-7,6.83L50.45,48.6a1.36,1.36,0,1,0-1.9,2Zm0,0"/><path class="cls-4" d="M24,45.68H22.07a1.36,1.36,0,1,0,0,2.73H24a1.36,1.36,0,0,0,0-2.73Zm0,0"/><path class="cls-4" d="M7.82,48.41H16a1.36,1.36,0,0,0,0-2.73H7.82a1.36,1.36,0,1,0,0,2.73Zm0,0"/><path class="cls-4" d="M24,57h-8.7a1.36,1.36,0,0,0,0,2.73H24A1.36,1.36,0,0,0,24,57Zm0,0"/><path class="cls-4" d="M7.82,59.77h1.4a1.36,1.36,0,0,0,0-2.73H7.82a1.36,1.36,0,1,0,0,2.73Zm0,0"/><path class="cls-4" d="M23.05,69.77a1.36,1.36,0,0,0,1.36,1.36h6.36a1.36,1.36,0,1,0,0-2.73H24.41a1.36,1.36,0,0,0-1.36,1.36Zm0,0"/><path class="cls-4" d="M18.32,68.41H7.82a1.36,1.36,0,1,0,0,2.73h10.5a1.36,1.36,0,0,0,0-2.73Zm0,0"/><path class="cls-4" d="M17.6,36.14h8.64a1.36,1.36,0,1,0,0-2.73H17.6a1.36,1.36,0,0,0,0,2.73Zm0,0"/><path class="cls-4" d="M7.82,36.14H11.5a1.36,1.36,0,1,0,0-2.73H7.82a1.36,1.36,0,1,0,0,2.73Zm0,0"/><path d="M56.82,83.64H0V76.82a1.14,1.14,0,0,1,2.27,0v4.55H54.55V77.27H50.85l-.57-5.9a22.09,22.09,0,0,1-5.83-2.46L39.9,72.68,33,65.81l3.76-4.54a21.49,21.49,0,0,1-2.46-5.84l-5.9-.57V45.14l5.9-.57a22.08,22.08,0,0,1,2.46-5.83L33,34.19l6.87-6.87,4.54,3.76a21.47,21.47,0,0,1,5.84-2.46l.57-5.9h3.69V15.91H2.27V60.53a1.14,1.14,0,0,1-2.27,0V13.64H56.82V25h-3.9l-.53,5.48-.81.18A19.25,19.25,0,0,0,45,33.43l-.7.47L40,30.39l-3.94,3.94,3.5,4.23-.46.7a19.84,19.84,0,0,0-2.78,6.6l-.18.81-5.47.53v5.6l5.48.53.18.81a19.26,19.26,0,0,0,2.78,6.59l.47.7-3.5,4.23L40,69.61l4.23-3.5.7.46a19.84,19.84,0,0,0,6.6,2.78l.81.18L52.92,75h3.9Z"/><path d="M1.14,72.27A1.14,1.14,0,0,1,0,71.14V66.21a1.14,1.14,0,1,1,2.27,0v4.92A1.14,1.14,0,0,1,1.14,72.27Z"/></svg>