<svg id="Layer_1" data-name="Layer 1" xmlns="http://www.w3.org/2000/svg" viewBox="0 0 81.35 100"><defs><style>.cls-1{fill:#54c5f8;}.cls-2{fill:#01579b;}</style></defs><title>Flutter App Development</title><polygon class="cls-1" points="0.55 49.9 16.03 64.97 80.25 0.55 49.9 0.55 0.55 49.9"/><polygon class="cls-2" points="23.81 72.61 50.1 99.45 80.8 99.45 38.68 57.6 23.81 72.61"/><path d="M64.37,17a.55.55,0,0,1-.39-.93l3-3a.55.55,0,0,1,.78.77l-3,3A.55.55,0,0,1,64.37,17Z"/><path d="M16,65.52a.55.55,0,0,1-.38-.16L.17,50.29a.55.55,0,0,1,0-.78L49.51.16A.55.55,0,0,1,49.9,0H80.25a.55.55,0,0,1,.39.93L72,9.6a.55.55,0,1,1-.78-.77L78.93,1.1H50.12L1.33,49.89,16,64.2l43.7-43.84a.55.55,0,1,1,.78.77L16.42,65.36A.55.55,0,0,1,16,65.52Z"/><path d="M80.8,100H50.1a.55.55,0,0,1-.39-.16L23.42,73a.55.55,0,0,1,0-.77l14.87-15a.55.55,0,0,1,.39-.16.56.56,0,0,1,.39.16L70.6,88.55a.55.55,0,1,1-.77.78L38.68,58.38,24.58,72.61,50.33,98.9H79.47l-6.55-6.51a.55.55,0,0,1,.77-.78l7.5,7.45a.55.55,0,0,1-.39.94Z"/><polygon class="cls-1" points="49.83 46.32 80.25 46.32 38.73 87.84 23.81 72.61 49.83 46.32"/><path d="M38.73,88.39h0a.55.55,0,0,1-.39-.16L23.42,73a.55.55,0,0,1,0-.77l26-26.29a.55.55,0,0,1,.39-.16H80.25a.55.55,0,0,1,.39.94L39.12,88.23A.55.55,0,0,1,38.73,88.39ZM24.58,72.61,38.74,87.06l40.19-40.2H50.06Z"/></svg>