<svg id="Layer_1" data-name="Layer 1" xmlns="http://www.w3.org/2000/svg" viewBox="0 0 100.67 99.94"><defs><style>.cls-1{fill:#917e0c;}.cls-2{fill:#c6a517;}.cls-3{fill:#f2d841;}.cls-4{fill:#ddb819;}.cls-5{fill:#f2cb27;}</style></defs><title>framework</title><polygon class="cls-1" points="98.67 70.47 50.35 98.69 2.02 70.47 50.35 36.93 98.67 70.47"/><path d="M50.35,99.94,0,70.55,50.35,35.62l50.32,34.93-6.45,3.77a1.07,1.07,0,1,1-1.08-1.85l3.54-2.07L50.35,38.24,4,70.39,50.35,97.45,88.13,75.38a1.07,1.07,0,1,1,1.08,1.85Z"/><polygon class="cls-2" points="98.64 52.15 50.32 80.37 2 52.15 50.32 18.61 98.64 52.15"/><path d="M50.32,81.62,11.41,58.89A1.07,1.07,0,1,1,12.49,57L50.32,79.13,96.65,52.07,50.32,19.91,4,52.07l3.19,1.86A1.07,1.07,0,1,1,6.1,55.79L0,52.23,50.32,17.3l50.32,34.93Z"/><polygon class="cls-3" points="98.67 34.85 50.35 63.07 2.02 34.85 50.35 1.31 98.67 34.85"/><path d="M50.35,64.32,0,34.93,50.35,0,88,26.17a1.07,1.07,0,0,1-1.22,1.76L50.35,2.61,4,34.77,50.35,61.83,96.67,34.77l-4.38-3A1.07,1.07,0,0,1,93.52,30l7.15,5Z"/><path class="cls-4" d="M10.93,35.36a1.07,1.07,0,0,1-.6-2l14.17-9.45a1.07,1.07,0,1,1,1.19,1.79L11.53,35.18A1.07,1.07,0,0,1,10.93,35.36Z"/><path class="cls-4" d="M28.39,23a1.07,1.07,0,0,1-.6-2L32,18.22A1.07,1.07,0,1,1,33.2,20L29,22.82A1.07,1.07,0,0,1,28.39,23Z"/><path class="cls-5" d="M67.4,66.58a1.07,1.07,0,0,1-.54-2L81.59,56a1.07,1.07,0,0,1,1.08,1.86L67.94,66.43A1.07,1.07,0,0,1,67.4,66.58Z"/><path class="cls-5" d="M85.58,55.32a1.07,1.07,0,0,1-.54-2l4.38-2.54a1.07,1.07,0,0,1,1.08,1.86l-4.38,2.54A1.07,1.07,0,0,1,85.58,55.32Z"/><path class="cls-5" d="M31.62,84.24a1.07,1.07,0,0,1-.54-.15L16.35,75.54a1.07,1.07,0,0,1,1.08-1.86l14.73,8.55a1.07,1.07,0,0,1-.54,2Z"/><path class="cls-5" d="M13.43,73a1.07,1.07,0,0,1-.54-.15L8.51,70.29a1.07,1.07,0,0,1,1.08-1.86L14,71a1.07,1.07,0,0,1-.54,2Z"/></svg>