<svg id="Layer_1" data-name="Layer 1" xmlns="http://www.w3.org/2000/svg" viewBox="0 0 101.67 100.07"><defs><style>.cls-1{fill:#fbaf5c;}.cls-2{fill:#f9c882;}.cls-3{fill:#010101;}.cls-4{fill:#fcc28c;}.cls-5{fill:#eaac66;}.cls-6{fill:#fbe4d2;}.cls-7{fill:#311a0d;}.cls-8{fill:#482615;}.cls-9{fill:#f2f2f2;}.cls-10{fill:#ced6df;}.cls-11{fill:#fff;}</style></defs><title>FRONT_END_DEVELOPER</title><path class="cls-1" d="M6.76,8.33a5.58,5.58,0,0,0-5.58,5.58v21a5.58,5.58,0,0,0,5.58,5.58H18l12.84,9.86a1.22,1.22,0,0,0,1.93-1.26l-2.13-8.6H43.82a5.58,5.58,0,0,0,5.58-5.58v-21a5.58,5.58,0,0,0-5.58-5.58Zm0,0"/><path class="cls-2" d="M6.76,8.33a5.58,5.58,0,0,0-5.58,5.58v21a5.58,5.58,0,0,0,5.58,5.58H17.35a5.58,5.58,0,0,1-5.58-5.58v-21a5.58,5.58,0,0,1,5.58-5.58Zm0,0"/><path class="cls-1" d="M28.59,40.46H18l12.84,9.86a1.22,1.22,0,0,0,1.93-1.26L31.12,42.4Zm2.54,1.95"/><path class="cls-3" d="M31.59,51.76a2.39,2.39,0,0,1-1.46-.5L17.61,41.64H6.76A6.77,6.77,0,0,1,0,34.88v-21A6.77,6.77,0,0,1,6.76,7.15H43.82a6.77,6.77,0,0,1,6.76,6.76v21a6.77,6.77,0,0,1-6.76,6.76H32.15l1.77,7.13a2.37,2.37,0,0,1-1,2.59A2.4,2.4,0,0,1,31.59,51.76ZM6.76,9.51a4.41,4.41,0,0,0-4.4,4.4v21a4.4,4.4,0,0,0,4.4,4.4H18.41L31.56,49.38h0l0,0v0L29.13,39.27H43.82a4.4,4.4,0,0,0,4.4-4.4v-21a4.4,4.4,0,0,0-4.4-4.4Z"/><path d="M27.43,22.56a.84.84,0,0,0,.33.71L31,25.35l-3.21,2.08a.84.84,0,0,0-.33.71,1.38,1.38,0,0,0,1.24,1.33.55.55,0,0,0,.35-.09l4.63-3a1.21,1.21,0,0,0,0-2l-4.63-3a.55.55,0,0,0-.35-.09,1.38,1.38,0,0,0-1.24,1.33Zm0,0"/><path d="M18.25,16.32a1,1,0,0,0-1.08,1,.79.79,0,0,0,.07.35l6.42,13.15a.91.91,0,0,0,.82.46,1,1,0,0,0,1-1,.82.82,0,0,0-.09-.35L19,16.78a.8.8,0,0,0-.77-.46Zm0,0"/><path d="M9,24.33a1.21,1.21,0,0,0,0,2l4.63,3a.55.55,0,0,0,.35.09,1.38,1.38,0,0,0,1.24-1.33.84.84,0,0,0-.33-.71l-3.21-2.08,3.21-2.08a.84.84,0,0,0,.33-.71A1.38,1.38,0,0,0,14,21.23a.55.55,0,0,0-.35.09L9,24.33Zm0,0"/><path class="cls-4" d="M100.34,74.45c-.28-4.74-3.28-8.6-7.76-10.69-5.48-2.56-20.4-6.45-20.4-6.45a3,3,0,0,1-2.49-3V45.79H53.48v8.53a3,3,0,0,1-2.49,3s-14.92,3.88-20.4,6.45c-4.48,2.1-7.48,6-7.76,10.69L22.5,94.78a4.06,4.06,0,0,0,4.06,4.11H96.62a4.06,4.06,0,0,0,4.06-4.11Zm0,0"/><path class="cls-5" d="M100.34,74.45c-.28-4.74-3.28-8.6-7.76-10.69-5.48-2.56-20.4-6.45-20.4-6.45a3,3,0,0,1-2.49-3V45.79H59.12V59.43a3,3,0,0,0,2.49,3S76.53,66.31,82,68.87c4.48,2.1,7.48,6,7.76,10.69l.32,19.32h6.54a4.06,4.06,0,0,0,4.06-4.11Zm0,0"/><path class="cls-2" d="M92.58,63.76A120.59,120.59,0,0,0,78.23,59l-1,.39a44.06,44.06,0,0,1-31.21,0L45,59A120.61,120.61,0,0,0,30.6,63.76c-4.48,2.1-7.48,6-7.76,10.69L22.5,94.78a4.06,4.06,0,0,0,4.06,4.11H96.62a4.06,4.06,0,0,0,4.06-4.11l-.34-20.33c-.28-4.74-3.28-8.6-7.76-10.69Zm0,0"/><path class="cls-3" d="M96.62,99.87H26.56a5,5,0,0,1-5-5.1l.34-20.38c.29-4.91,3.4-9.22,8.33-11.53,5.5-2.57,20-6.35,20.57-6.51l.07,0a2.06,2.06,0,0,0,1.68-2V44.81H70.69v9.51a2.06,2.06,0,0,0,1.68,2l.07,0c.61.16,15.07,3.93,20.57,6.51,4.93,2.31,8,6.62,8.33,11.53v0l.17,9.37a1,1,0,0,1-1,1h0a1,1,0,0,1-1-1l-.17-9.35c-.26-4.23-2.88-7.82-7.19-9.84C87,62.21,72.74,58.47,72,58.27a4,4,0,0,1-3.26-4V46.78H54.47v7.54a4,4,0,0,1-3.25,4c-.76.2-15,3.93-20.2,6.38-4.32,2-6.94,5.61-7.19,9.84l-.34,20.31a3.07,3.07,0,0,0,3.07,3.11H96.62a3.07,3.07,0,0,0,3.07-3.11l-.09-5.44a1,1,0,0,1,1-1h0a1,1,0,0,1,1,1l.09,5.45a5,5,0,0,1-5,5.11Z"/><path class="cls-5" d="M44.78,24.2H42.65a3.29,3.29,0,0,0-3.24,4l.84,4.6c.65,3.41,4.54,1.85,4.54,1.85Zm0,0"/><path class="cls-4" d="M78.41,24.2h2.13a3.29,3.29,0,0,1,3.24,4l-.84,4.6c-.65,3.41-4.54,1.85-4.54,1.85Zm0,0"/><path class="cls-6" d="M73.39,6.71a16.77,16.77,0,0,0-23.6,0,17.85,17.85,0,0,0-5.44,13.12V37.27c0,8.25,10.72,16.79,17.24,16.79s17.24-8.54,17.24-16.79V19.82A17.86,17.86,0,0,0,73.39,6.71Zm0,0"/><path class="cls-2" d="M73.39,6.71a17.42,17.42,0,0,0-11.8-4.86,16.94,16.94,0,0,0-5.29.9,18.33,18.33,0,0,1,6.51,4,17.85,17.85,0,0,1,5.44,13.12V37.27c0,6.24-6.14,12.65-11.95,15.4a12.83,12.83,0,0,0,5.29,1.39c6.52,0,17.24-8.54,17.24-16.79V19.82A17.85,17.85,0,0,0,73.39,6.71Zm0,0"/><path class="cls-3" d="M60.78,55c-3.45,0-7.94-2.13-11.73-5.56-4.13-3.74-6.5-8.2-6.5-12.22V35.94A4.1,4.1,0,0,1,40,35.43,3.53,3.53,0,0,1,38.46,33l-.84-4.61a4.27,4.27,0,0,1,4.21-5.12h.71V19.82A18.79,18.79,0,0,1,48.31,6,18.25,18.25,0,0,1,60.77.87h0A18.25,18.25,0,0,1,73.25,6,18.79,18.79,0,0,1,79,19.82v3.39h.71a4.27,4.27,0,0,1,4.21,5.12l-.84,4.6a3.54,3.54,0,0,1-1.57,2.48,4.1,4.1,0,0,1-2.52.51v1.33c0,4-2.37,8.48-6.5,12.22C68.72,52.92,64.23,55,60.78,55ZM44.52,33.46v3.81c0,7.84,10.43,15.81,16.26,15.81S77,45.11,77,37.27V33.46l1.25.35a3.09,3.09,0,0,0,2.2-.06,1.64,1.64,0,0,0,.67-1.17L82,28a2.38,2.38,0,0,0-.83-2.31h0a2.34,2.34,0,0,0-1.45-.49H77V19.82A16.82,16.82,0,0,0,71.91,7.43a15.78,15.78,0,0,0-22.26,0,16.81,16.81,0,0,0-5.13,12.39v5.36H41.83a2.34,2.34,0,0,0-1.45.49A2.38,2.38,0,0,0,39.56,28l.84,4.6a1.63,1.63,0,0,0,.67,1.16,3.09,3.09,0,0,0,2.2.06Z"/><path class="cls-7" d="M72.26,1H50.92A9.94,9.94,0,0,0,41,10.92V24.64a6.86,6.86,0,0,1,4.5,1.68.58.58,0,0,0,1-.42V15.15a4.39,4.39,0,0,1,4.39-4.39h4a4.53,4.53,0,0,1,2.87,1l.39.32a5.49,5.49,0,0,0,6.95,0l.39-.32a4.53,4.53,0,0,1,2.87-1h4a4.39,4.39,0,0,1,4.39,4.39V25.9a.58.58,0,0,0,1,.42,6.86,6.86,0,0,1,4.5-1.68V10.93A9.94,9.94,0,0,0,72.26,1Zm0,0"/><path class="cls-8" d="M72.26,1H68.57c1.86,2.19,3,5.47,3.05,9.77h.7a4.39,4.39,0,0,1,4.39,4.39V25.9a.58.58,0,0,0,1,.42,6.86,6.86,0,0,1,4.5-1.68V10.93A9.94,9.94,0,0,0,72.26,1Zm0,0"/><path class="cls-9" d="M86.47,93.79H36a2.93,2.93,0,0,1-2.92-2.72L31,62.1A2.93,2.93,0,0,1,33.91,59H88.53a2.93,2.93,0,0,1,2.92,3.14l-2.07,29a2.93,2.93,0,0,1-2.92,2.72Zm0,0"/><path class="cls-3" d="M77.3,27.47a1.57,1.57,0,0,1-1.57-1.57V15.15a3.41,3.41,0,0,0-3.41-3.41h-4a3.56,3.56,0,0,0-2.25.8l-.39.32a6.47,6.47,0,0,1-8.19,0l-.39-.32a3.56,3.56,0,0,0-2.25-.8h-4a3.41,3.41,0,0,0-3.41,3.41V25.9A1.57,1.57,0,0,1,44.79,27,5.94,5.94,0,0,0,41,25.63l-1,0V10.92A10.94,10.94,0,0,1,50.92,0H72.26A10.94,10.94,0,0,1,83.19,10.93V25.65l-1,0A5.91,5.91,0,0,0,78.4,27,1.56,1.56,0,0,1,77.3,27.47Zm-9-17.7h4a5.39,5.39,0,0,1,5.38,5.38V25a7.79,7.79,0,0,1,3.51-1.31V10.93a9,9,0,0,0-9-9H50.92a9,9,0,0,0-9,9v12.8A7.79,7.79,0,0,1,45.48,25V15.15a5.38,5.38,0,0,1,5.38-5.38h4A5.53,5.53,0,0,1,58.35,11l.39.32a4.5,4.5,0,0,0,5.7,0l.39-.32A5.53,5.53,0,0,1,68.33,9.77Z"/><path class="cls-10" d="M88.53,59H77.87a2.93,2.93,0,0,1,2.92,3.14L78.53,93.79h7.93a2.93,2.93,0,0,0,2.92-2.72l2.07-29A2.93,2.93,0,0,0,88.53,59Zm0,0"/><path class="cls-3" d="M86.47,94.78H36a3.93,3.93,0,0,1-3.9-3.63L30,62.17A3.91,3.91,0,0,1,33.91,58H88.53a3.91,3.91,0,0,1,3.9,4.19l-2.07,29A3.93,3.93,0,0,1,86.47,94.78ZM33.91,60A1.94,1.94,0,0,0,32,62L34,91A2,2,0,0,0,36,92.81H86.47A2,2,0,0,0,88.4,91l2.07-29A1.94,1.94,0,0,0,88.53,60Z"/><path class="cls-10" d="M90.09,98.88h-57a2.55,2.55,0,0,1,0-5.09h57a2.55,2.55,0,0,1,0,5.09Zm0,0"/><path class="cls-3" d="M89.19,100.07h-57a3.53,3.53,0,0,1,0-7.06h57a3.53,3.53,0,0,1,0,7.06ZM32.2,95a1.56,1.56,0,0,0,0,3.12h57a1.56,1.56,0,0,0,0-3.12Z"/><path class="cls-11" d="M65.67,77.55a4.08,4.08,0,1,1-4.08-4.08,4.08,4.08,0,0,1,4.08,4.08Zm0,0"/></svg>