<svg id="Layer_1" data-name="Layer 1" xmlns="http://www.w3.org/2000/svg" viewBox="0 0 166.09 99.64"><defs><style>.cls-1{fill:#ffce55;}.cls-2{fill:#d8ae2a;}.cls-3{fill:#fff;}</style></defs><title>glide</title><path class="cls-1" d="M70,5.2a22.51,22.51,0,0,1,26.08,0l0,.06S107.24,13,112.38,16.95C126,27.52,139.67,38.09,152,49.87L165.05,62.4V75.07l-60-26.54a54.53,54.53,0,0,0-44.05,0L1,75.07V62.4L14.12,49.87C26.41,38.09,40,27.52,53.71,16.95,58.85,13,70,5.26,70,5.26l0-.06Z"/><path class="cls-2" d="M72,10.15a19.12,19.12,0,0,1,22.15,0l0,.06s9.43,6.55,13.8,9.93c11.6,9,23.18,18,33.62,28l11.11,10.64V69.5L101.75,47a46.31,46.31,0,0,0-37.42,0L13.39,69.5V58.74L24.51,48.1c10.44-10,22-19,33.62-28,4.37-3.38,13.8-9.93,13.8-9.93l0-.06Z"/><path class="cls-3" d="M104.54,24.54a3.15,3.15,0,0,0-1.4,5.77L122,42.94a3.16,3.16,0,0,0,3.49-5.26L106.64,25.1a3.15,3.15,0,0,0-2.1-.56Z"/><path class="cls-3" d="M130.1,46.63a3.15,3.15,0,1,0,3.15-3.15A3.15,3.15,0,0,0,130.1,46.63Z"/><path d="M165.05,76.1a1,1,0,0,1-.42-.09l-60-26.54a53.5,53.5,0,0,0-43.22,0L1.45,76A1,1,0,0,1,0,75.07V62.4a1,1,0,0,1,.32-.75L13.41,49.12c4-3.81,8.3-7.69,13.21-11.86A1,1,0,1,1,28,38.84c-4.88,4.14-9.17,8-13.11,11.78L2.07,62.84V73.48L60.6,47.57a55.57,55.57,0,0,1,44.89,0L164,73.48V62.84L151.25,50.62c-12.34-11.83-26.15-22.52-39.5-32.85-5.07-3.92-16.1-11.58-16.21-11.66A1,1,0,0,1,95.36,6a21.56,21.56,0,0,0-24.63,0,1,1,0,0,1-.18.16c-.11.08-11.14,7.74-16.21,11.66C49,21.92,44.51,25.38,39.92,29a1,1,0,1,1-1.29-1.62c4.6-3.66,9.07-7.13,14.44-11.28C57.88,12.41,68,5.38,69.24,4.5a1,1,0,0,1,.16-.14,23.55,23.55,0,0,1,27.29,0l.16.14c1.23.86,11.36,7.91,16.17,11.64,13.4,10.37,27.25,21.09,39.67,33l13.09,12.53a1,1,0,0,1,.32.75V75.07a1,1,0,0,1-1,1Z"/><path d="M102,84.72H62.94L33.49,61.23a1,1,0,0,1,1.29-1.62l28.89,23h37.7l29.73-21.4a1,1,0,1,1,1.21,1.68Z"/><path d="M63.82,84.72l-.24,0a1,1,0,0,1-.77-1.24l7.89-33.91a1,1,0,0,1,2,.47L64.82,83.92A1,1,0,0,1,63.82,84.72Z"/><path d="M101.7,84.46a1,1,0,0,1-1-.82L93.57,50.26a1,1,0,0,1,2-.43l7.12,33.38a1,1,0,0,1-.8,1.23Z"/><path d="M82.92,99.64a1,1,0,0,1-1-1V83.69a1,1,0,1,1,2.07,0V98.6A1,1,0,0,1,82.92,99.64Z"/></svg>