<svg id="Layer_1" data-name="Layer 1" xmlns="http://www.w3.org/2000/svg" viewBox="0 0 99.2 99.67"><defs><style>.cls-1{fill:#4a8900;}.cls-2{fill:#7ab704;}.cls-3{fill:#d7ff76;}</style></defs><title>gradle</title><path class="cls-1" d="M67.88,18.58,81.53,42.22l16.61.86A48.8,48.8,0,0,0,28.58,5.93L38.7,18.58Z"/><path class="cls-2" d="M82.11,56.44,67.88,81.09H31.79l-18-31.25L28,25.23,18,12.84A48.77,48.77,0,1,0,98,57.27Z"/><circle class="cls-1" cx="49.6" cy="49.83" r="16.88"/><path d="M98.14,44.15h-.06l-16.61-.86a1.06,1.06,0,0,1-.86-.53L67.26,19.64H38.7a1.06,1.06,0,0,1-.83-.4L27.75,6.59A1.06,1.06,0,0,1,28.11,5a49.85,49.85,0,0,1,71.07,38,1.06,1.06,0,0,1-1.05,1.21Zm-16-3L96.89,42A47.89,47.89,0,0,0,49.83,2.12,47.25,47.25,0,0,0,30.25,6.31l9,11.2H67.88a1.06,1.06,0,0,1,.92.53Z"/><path d="M49.83,99.67A49.91,49.91,0,0,1,.94,59.5,1.06,1.06,0,1,1,3,59.09a47.72,47.72,0,0,0,93.78-.82l-14.1-.73L68.8,81.62a1.06,1.06,0,0,1-.92.53H31.79a1.06,1.06,0,0,1-.92-.53l-18-31.25a1.06,1.06,0,0,1,0-1.06l13.84-24L17.91,14.37A47.69,47.69,0,0,0,2.12,49.83c0,1.21,0,2.44.14,3.65a1.06,1.06,0,0,1-2.12.16C0,52.38,0,51.1,0,49.83A49.81,49.81,0,0,1,17.35,12a1.06,1.06,0,0,1,1.52.14l9.91,12.38a1.06,1.06,0,0,1,.09,1.19L15,49.83,32.4,80H67.26L81.19,55.91a1.06,1.06,0,0,1,1-.53l15.94.83a1.06,1.06,0,0,1,1,1.22A49.84,49.84,0,0,1,49.83,99.67Z"/><path d="M49.6,67.78A17.94,17.94,0,1,1,66.45,43.65a1.06,1.06,0,1,1-2,.73,15.83,15.83,0,1,0,1,5.45s0-.06,0-.08a1.06,1.06,0,0,1,1.05-1.07h0a1.06,1.06,0,0,1,1.06,1.05s0,.07,0,.09A18,18,0,0,1,49.6,67.78Z"/><path class="cls-3" d="M78.24,84.32A.74.74,0,0,1,77.78,83c8.62-7,12.8-17.61,12.84-17.72a.74.74,0,1,1,1.39.53c-.17.45-4.37,11.14-13.29,18.34A.74.74,0,0,1,78.24,84.32Z"/><path class="cls-3" d="M92.41,63.81l-.16,0a.74.74,0,0,1-.56-.89L92.1,61a.74.74,0,0,1,1.45.32l-.41,1.86A.74.74,0,0,1,92.41,63.81Z"/></svg>