<svg id="Layer_1" data-name="Layer 1" xmlns="http://www.w3.org/2000/svg" viewBox="0 0 93.03 100"><defs><style>.cls-1{fill:#357fbc;}.cls-2{fill:#1fb598;}.cls-3{fill:#e8a328;}.cls-4{fill:#e22b2b;}.cls-5{fill:#ff8040;}</style></defs><title>Higher_conversion_rate</title><path class="cls-1" d="M12.75,75.72H5.83A4.85,4.85,0,0,0,1,80.57H1V91.11q0,.13,0,.25A4.85,4.85,0,0,0,5.83,96h6.91a4.85,4.85,0,0,0,4.85-4.85V80.57A4.85,4.85,0,0,0,12.75,75.72Z"/><path class="cls-2" d="M37.56,67H30.65a4.85,4.85,0,0,0-4.85,4.85V94.17A4.85,4.85,0,0,0,30.65,99h6.91a4.85,4.85,0,0,0,4.85-4.85V71.87A4.85,4.85,0,0,0,37.56,67Z"/><path class="cls-3" d="M62.38,52.64H55.47a4.85,4.85,0,0,0-4.85,4.85V94.17q0,.13,0,.25A4.85,4.85,0,0,0,55.47,99h6.91a4.85,4.85,0,0,0,4.85-4.85V57.49A4.85,4.85,0,0,0,62.38,52.64Z"/><path class="cls-4" d="M87.2,27.51H80.29a4.85,4.85,0,0,0-4.85,4.85V94.17A4.85,4.85,0,0,0,80.29,99H87.2A4.85,4.85,0,0,0,92,94.17V32.35A4.85,4.85,0,0,0,87.2,27.51Z"/><path class="cls-5" d="M11.22,53.8c35.33-6.95,56.32-38.2,56.32-38.2l4.08,4.08L75.54,1.26,57.12,4.88l4.53,4.53c-18.72,16-51.33,20.53-51.33,20.53l12.11,8.7Zm0,0"/><path d="M12.75,96.94H5.83A5.83,5.83,0,0,1,0,91.41c0-.1,0-.2,0-.3V80.57a5.84,5.84,0,0,1,5.83-5.83h6.91a5.84,5.84,0,0,1,5.83,5.83V91.11A5.84,5.84,0,0,1,12.75,96.94ZM5.83,76.7A3.87,3.87,0,0,0,2,80.57V91.11c0,.07,0,.13,0,.2A3.86,3.86,0,0,0,5.83,95h6.91a3.87,3.87,0,0,0,3.86-3.86V80.57a3.87,3.87,0,0,0-3.86-3.86Z"/><path d="M37.56,100H30.65a5.84,5.84,0,0,1-5.84-5.83V71.87A5.84,5.84,0,0,1,30.65,66h6.91a5.84,5.84,0,0,1,5.83,5.83V94.17A5.84,5.84,0,0,1,37.56,100ZM30.65,68a3.87,3.87,0,0,0-3.86,3.86V94.17A3.87,3.87,0,0,0,30.65,98h6.91a3.87,3.87,0,0,0,3.86-3.86V71.87A3.87,3.87,0,0,0,37.56,68Z"/><path d="M62.38,100H55.47a5.83,5.83,0,0,1-5.83-5.53c0-.1,0-.2,0-.3V57.49a5.84,5.84,0,0,1,5.83-5.83h6.91a5.84,5.84,0,0,1,5.83,5.83V94.17A5.84,5.84,0,0,1,62.38,100ZM55.47,53.62a3.87,3.87,0,0,0-3.86,3.86V94.17c0,.07,0,.13,0,.2A3.86,3.86,0,0,0,55.47,98h6.91a3.87,3.87,0,0,0,3.86-3.86V57.49a3.87,3.87,0,0,0-3.86-3.86Z"/><path d="M87.2,100H80.29a5.84,5.84,0,0,1-5.84-5.83V32.35a5.84,5.84,0,0,1,5.84-5.83H87.2A5.84,5.84,0,0,1,93,32.35v7.72a1,1,0,1,1-2,0V32.35a3.87,3.87,0,0,0-3.86-3.86H80.29a3.87,3.87,0,0,0-3.86,3.86V94.17A3.87,3.87,0,0,0,80.29,98H87.2a3.87,3.87,0,0,0,3.86-3.86V45.5a1,1,0,1,1,2,0V94.17A5.84,5.84,0,0,1,87.2,100Z"/><path d="M8.92,55.26,21,38.86,7.74,29.31,10.18,29s3-.42,7.63-1.43a1,1,0,0,1,.42,1.93c-2.23.49-4.07.84-5.4,1.07l11,7.89L13.57,52.28c16.8-3.94,30.06-13.43,38.36-20.89A99.61,99.61,0,0,0,66.72,15l.67-1L71,17.69,74.26,2.51l-15.14,3,4,4-.81.69c-10.16,8.69-24.38,14-34.51,16.89a1,1,0,0,1-.54-1.9c9.67-2.78,23.12-7.76,33-15.81L55.11,4.27,76.81,0,72.2,21.66l-4.53-4.53a104.57,104.57,0,0,1-14.38,15.7A101.22,101.22,0,0,1,35.41,45.76a80.67,80.67,0,0,1-24,9Z"/></svg>