<svg id="Layer_1" data-name="Layer 1" xmlns="http://www.w3.org/2000/svg" viewBox="0 0 82.84 99.88"><defs><style>.cls-1{fill:#f09372;}.cls-2{fill:#2c2f38;}.cls-3{fill:#e6e7e8;}.cls-4{fill:#e64c3c;}.cls-5{fill:#c03a2b;}.cls-6{fill:#fdd7ad;}.cls-7{fill:#af8066;}.cls-8{fill:#ededed;}.cls-9{fill:#a5a5a4;}</style></defs><title>hire_web_developer</title><path class="cls-1" d="M52.35,39.93V42.1a10.86,10.86,0,0,0,10,10.62l9.24.92a10.86,10.86,0,0,1,10,10.62V74.64a4.09,4.09,0,0,1-4.18,4H5a4.09,4.09,0,0,1-4.18-4V64.26a10.86,10.86,0,0,1,10-10.62l9.25-.92a10.86,10.86,0,0,0,10-10.62V39.93Zm0,0"/><path class="cls-2" d="M81.91,64.48V74.86a4.09,4.09,0,0,1-4.18,4H5.33a4.09,4.09,0,0,1-4.18-4V64.48a10.86,10.86,0,0,1,10-10.62l9.25-.92a11.11,11.11,0,0,0,3.94-1.12l6.59,5.92,10.6,5.78,12-5.78L59.24,52a11.22,11.22,0,0,0,3.43.89l9.24.92a10.86,10.86,0,0,1,10,10.62Zm0,0"/><path class="cls-3" d="M63.73,52.85,49.57,65.3,45.39,56l10.36-6.2a11.15,11.15,0,0,0,6.6,3Zm0,0"/><path class="cls-3" d="M37,56,32.86,65.3,18.7,52.85l1.38-.13a11.15,11.15,0,0,0,6.6-3Zm0,0"/><path d="M34,66.53a1,1,0,0,1-.69-.26L19.16,53.82A1,1,0,0,1,19.75,52l1.38-.13a10.16,10.16,0,0,0,6-2.69A1,1,0,0,1,28.36,49l10.36,6.2a1,1,0,0,1,.42,1.32L35,65.91a1,1,0,0,1-.73.59ZM22.31,53.81l11.32,10,3.22-7.2-8.91-5.34A12.28,12.28,0,0,1,22.31,53.81Z"/><path d="M48.47,66.53l-.22,0a1,1,0,0,1-.73-.59l-4.18-9.34a1,1,0,0,1,.42-1.32L54.12,49a1,1,0,0,1,1.25.13,10.15,10.15,0,0,0,6,2.68l1.38.13a1,1,0,0,1,.59,1.82L49.16,66.27A1,1,0,0,1,48.47,66.53Zm-2.84-10,3.22,7.2,11.32-10a12.27,12.27,0,0,1-5.63-2.58Z"/><path d="M5.13,80.29a5.13,5.13,0,0,1-5.13-5V64.86A11.87,11.87,0,0,1,11,53.2l9.25-.92a9.78,9.78,0,0,0,9-9.6V39.49H53.6V42.7a9.77,9.77,0,0,0,9,9.58h0l9.24.92A11.86,11.86,0,0,1,82.84,64.84v2a1,1,0,0,1-2.09,0v-2a9.78,9.78,0,0,0-9-9.58l-9.26-.92A11.86,11.86,0,0,1,51.52,42.72V41.58H31.34V42.7A11.86,11.86,0,0,1,20.39,54.36l-9.24.92a9.78,9.78,0,0,0-9.06,9.6V75.23a3,3,0,0,0,3.11,3H77.64a3.08,3.08,0,0,0,2.17-.85,3,3,0,0,0,.94-2.12V72.5a1,1,0,0,1,2.09,0v2.76a5.1,5.1,0,0,1-1.58,3.6,5.15,5.15,0,0,1-3.65,1.43H5.13Z"/><path class="cls-4" d="M39,60h4.41a3.36,3.36,0,0,1,3.36,3.36V64.6A3.36,3.36,0,0,1,43.42,68H39a3.36,3.36,0,0,1-3.36-3.36V63.33A3.36,3.36,0,0,1,39,60Zm0,0"/><path class="cls-5" d="M48.17,78.64,44,68H38.43L34.25,78.64Zm0,0"/><path class="cls-6" d="M61.22,23.32a11.59,11.59,0,0,1-2.68,7.23,3.65,3.65,0,0,1-1.62,1,13.9,13.9,0,0,1-5.67,9.93,13.81,13.81,0,0,1-6.62,1.67H39.05A14,14,0,0,1,25.14,30.57c-2.41-.63-4.3-5.05-4.3-8.28a4.25,4.25,0,0,1,.83-2.81,6.28,6.28,0,0,1,1.78-.3v-7A11.21,11.21,0,0,1,34.64,1H45.8A11.16,11.16,0,0,1,57,12.17v7c2.37.11,4.23.95,4.23,4.14Zm0,0"/><path d="M44.67,44.23H39.05A15,15,0,0,1,24.18,31.32c-2.72-1.33-4.37-5.92-4.38-9a5.3,5.3,0,0,1,1-3.47,1,1,0,0,1,.52-.37,7.32,7.32,0,0,1,1.05-.25V12.17A12.29,12.29,0,0,1,34.64,0h11.2A12.2,12.2,0,0,1,58,12.17v6.06c2.81.43,4.23,2.14,4.23,5.09v0a12.68,12.68,0,0,1-2.92,7.89l0,0a4.69,4.69,0,0,1-1.43,1.07,15,15,0,0,1-6,10l-.12.07A14.9,14.9,0,0,1,44.67,44.23ZM22.33,20.38a3.21,3.21,0,0,0-.44,1.84s0,0,0,.07c0,3.09,1.81,6.83,3.52,7.27a1,1,0,0,1,.78.91A12.89,12.89,0,0,0,39.05,42.14h5.62a12.81,12.81,0,0,0,6-1.51,12.86,12.86,0,0,0,5.19-9.14,1,1,0,0,1,.73-.9,2.61,2.61,0,0,0,1.14-.72,10.59,10.59,0,0,0,2.42-6.56c0-2.15-.88-3-3.24-3.09a1,1,0,0,1-1-1v-7A10.11,10.11,0,0,0,45.83,2.09H34.64A10.19,10.19,0,0,0,24.49,12.18v7a1,1,0,0,1-1,1A5.25,5.25,0,0,0,22.33,20.38Zm38.89,2.94h0Z"/><path class="cls-7" d="M57.15,12.19v7h0c-.29-.86-1.09-1.46-2.75-1.44-7.61.14-9.78-10.54-9.78-10.54S35.43,17.75,27.82,17.75a5.19,5.19,0,0,0-4.19,1.42v-7A11.15,11.15,0,0,1,34.81,1H46A11.15,11.15,0,0,1,57.15,12.19Zm0,0"/><path d="M57,20.23a1,1,0,0,1-1-.71c-.07-.21-.25-.75-1.75-.73h-.17C47.87,18.8,45,12.54,44,9.3c-2.86,3-9.92,9.5-16.25,9.5h-.12a4.13,4.13,0,0,0-3.35,1.14,1,1,0,0,1-1.77-.75v-7A12.2,12.2,0,0,1,34.69,0H45.91a12.2,12.2,0,0,1,12.2,12.18h0v7a1,1,0,0,1-.73,1h0A1,1,0,0,1,57,20.23ZM34.69,2.09a10.11,10.11,0,0,0-10.11,10.1v5a6.22,6.22,0,0,1,3.2-.51c7-.05,15.83-10.08,15.92-10.18A1,1,0,0,1,45.51,7c0,.1,2.07,9.7,8.61,9.7h.12a5.45,5.45,0,0,1,1.77.23V12.19A10.11,10.11,0,0,0,45.91,2.09H34.69Z"/><path class="cls-8" d="M64.19,98.83H17.09a6.79,6.79,0,0,1-6.7-6.26L6.73,67.84a8.53,8.53,0,0,1,8.38-9.39H66.18a8.53,8.53,0,0,1,8.38,9.39L70.9,92.57a6.79,6.79,0,0,1-6.7,6.26Zm0,0"/><path class="cls-2" d="M44.58,78.64H37.85a1.68,1.68,0,0,1,0-3.36h6.73a1.68,1.68,0,0,1,0,3.36Zm0,0"/><path class="cls-9" d="M71.78,90.42l-.32,2.15a6.77,6.77,0,0,1-6.7,6.26H17.66A6.77,6.77,0,0,1,11,92.57l-.32-2.15Zm0,0"/><path d="M64.2,99.88H17.09a7.8,7.8,0,0,1-7.74-7.19L5.69,67.95a9.58,9.58,0,0,1,9.4-10.54H66.18a9.58,9.58,0,0,1,9.42,10.54v0l-3.65,24.7a7.8,7.8,0,0,1-7.73,7.18ZM7.77,67.71l3.66,24.74v0a5.72,5.72,0,0,0,5.67,5.3H64.19a5.72,5.72,0,0,0,5.67-5.3v-.07l3.65-24.71a7.49,7.49,0,0,0-7.35-8.21H15.11a7.49,7.49,0,0,0-7.34,8.21Z"/><path d="M70.62,92.14h-47a.84.84,0,0,1,0-1.67h47a.84.84,0,0,1,0,1.67Z"/><path d="M18,92.14H10.45a.84.84,0,0,1,0-1.67H18a.84.84,0,0,1,0,1.67Z"/></svg>