<svg id="Layer_1" data-name="Layer 1" xmlns="http://www.w3.org/2000/svg" viewBox="0 0 78.86 99.78"><defs><style>.cls-1{fill:#afafaf;}.cls-2{fill:#e5e5e5;}</style></defs><title>hire_iphone_developer</title><path class="cls-1" d="M74.8,35.14a21.67,21.67,0,0,0,2.65,38c-1.19,2.76-2.25,5.59-3.59,8.28a55.33,55.33,0,0,1-8.62,12.72c-2.46,2.7-5.42,4.51-9.24,4.45A15.75,15.75,0,0,1,49.61,97a21.25,21.25,0,0,0-6.3-2,18,18,0,0,0-9.12,1.22c-1.76.71-3.49,1.52-5.3,2.06a10.14,10.14,0,0,1-9.74-1.85,36.22,36.22,0,0,1-6.61-7.5,60.92,60.92,0,0,1-11-28.08C.63,53.9.95,47.11,3.72,40.66,6.81,33.47,12,28.53,19.65,26.47a18.52,18.52,0,0,1,12.09.93c1.73.71,3.49,1.36,5.22,2a7.31,7.31,0,0,0,5.55,0c2.69-1,5.36-2.16,8.12-3a21.75,21.75,0,0,1,23.87,8.23Z"/><path class="cls-1" d="M37.83,22.46a13.83,13.83,0,0,1,.83-6.82C41,9.36,45.58,5.24,51.71,2.75a20.94,20.94,0,0,1,7.13-1.63C60.57,11.45,49.49,23.5,37.83,22.46Z"/><path d="M39.22,23.61q-.74,0-1.48-.07l-.86-.08-.11-.86a15,15,0,0,1,.89-7.35C40,9,44.62,4.46,51.31,1.75A21.9,21.9,0,0,1,58.81,0l1,0,.16.94c.85,5.11-1.19,10.93-5.47,15.55A21.2,21.2,0,0,1,39.22,23.61Zm-.4-2.17c5,.14,10.14-2.22,14-6.42,3.55-3.84,5.4-8.53,5-12.75a20.57,20.57,0,0,0-5.78,1.49C45.93,6.26,41.86,10.28,39.67,16A12.91,12.91,0,0,0,38.82,21.44Z"/><path d="M25.56,99.78a11.16,11.16,0,0,1-7.09-2.6,34.58,34.58,0,0,1-6.21-6.88A1.08,1.08,0,1,1,14,89a32.66,32.66,0,0,0,5.82,6.46,9,9,0,0,0,8.75,1.66,38,38,0,0,0,3.8-1.45l1.4-.58a19.21,19.21,0,0,1,9.66-1.29A21.93,21.93,0,0,1,50.06,96a14.6,14.6,0,0,0,6,1.55c3.11,0,5.87-1.29,8.43-4.1A54.44,54.44,0,0,0,72.89,81c.91-1.82,1.71-3.76,2.48-5.63l.68-1.64a22.76,22.76,0,0,1-2.76-38.83A20.64,20.64,0,0,0,50.95,27.5c-2.17.66-4.35,1.52-6.45,2.35l-1.59.62a8.43,8.43,0,0,1-6.34,0l-2.09-.81c-1-.4-2.1-.81-3.15-1.24a17.34,17.34,0,0,0-11.4-.89C12.89,29.4,7.77,34,4.71,41.08c-2.41,5.6-3.1,12-2.12,19.53A62.17,62.17,0,0,0,5.5,73a1.08,1.08,0,0,1-2,.71,64.33,64.33,0,0,1-3-12.81C-.58,53,.16,46.2,2.72,40.23c3.33-7.76,8.93-12.74,16.65-14.81a19.69,19.69,0,0,1,12.78,1c1,.42,2.08.83,3.11,1.22l2.11.82a6.25,6.25,0,0,0,4.76,0l1.58-.62c2.14-.84,4.36-1.72,6.62-2.4A22.82,22.82,0,0,1,75.4,34.07l.21.32.7,1.08-.92.59A20.59,20.59,0,0,0,77.9,72.18l1,.44-.42,1c-.36.85-.73,1.72-1.07,2.57-.79,1.9-1.6,3.87-2.54,5.76a56.61,56.61,0,0,1-8.79,13c-2.95,3.23-6.18,4.81-9.86,4.81H56a16.66,16.66,0,0,1-6.83-1.75,20,20,0,0,0-6-2,17.06,17.06,0,0,0-8.58,1.14l-1.37.57a40.31,40.31,0,0,1-4,1.52A12.63,12.63,0,0,1,25.56,99.78Z"/><path d="M9.5,85.26a1.08,1.08,0,0,1-.93-.53c-1-1.76-2-3.59-2.86-5.44a1.08,1.08,0,1,1,2-.91c.82,1.78,1.75,3.54,2.76,5.25a1.08,1.08,0,0,1-.93,1.63Z"/><path class="cls-2" d="M7,50.79h0a1.08,1.08,0,0,1-1.05-1.11c.32-11,11.86-18.79,12.35-19.11a1.08,1.08,0,1,1,1.2,1.81c-.14.1-11.09,7.49-11.38,17.37A1.08,1.08,0,0,1,7,50.79Z"/><path class="cls-2" d="M6.74,60.1a1.08,1.08,0,0,1-1.07-.92,46.45,46.45,0,0,1,0-5.74,1.08,1.08,0,0,1,2.16.1,45.29,45.29,0,0,0,0,5.3,1.08,1.08,0,0,1-.9,1.24Z"/></svg>