<svg id="Layer_1" data-name="Layer 1" xmlns="http://www.w3.org/2000/svg" viewBox="0 0 100 100"><defs><style>.cls-1{fill:#19f9f3;}.cls-2{fill:#fff;}</style></defs><title>hire_cms_developer</title><path class="cls-1" d="M91.58,37.32,99,34.07l-3.37-7.7-7.43,3.25a42.88,42.88,0,0,0-18-17.32l3.22-8.21L65.56,1,62.34,9.24a42.88,42.88,0,0,0-24.53.33L34.07,1l-7.7,3.37,3.71,8.47A42.9,42.9,0,0,0,12.82,30L4.08,26.61,1,34.44l8.51,3.33a42.86,42.86,0,0,0-.38,24.59L1,65.93l3.37,7.7,7.85-3.43A42.92,42.92,0,0,0,29.59,88.3l-3,7.62L34.44,99l2.86-7.31A42.87,42.87,0,0,0,62.87,92l3.06,7,7.7-3.37-3-6.79A42.91,42.91,0,0,0,88.83,70.62l7.08,2.77L99,65.56l-7-2.74A42.89,42.89,0,0,0,91.58,37.32Z" transform="translate(0 0)"/><path class="cls-2" d="M18.7,61a8.59,8.59,0,0,0,5.87,2,9.34,9.34,0,0,0,6.08-1.9A6.2,6.2,0,0,0,33,56a2.08,2.08,0,0,0-2.33-2.26q-2.15,0-2.25,1.44C28.24,57.44,27.2,59,24.81,59S21,57.61,21,54.91V45.09Q21,41,24.74,41a3.3,3.3,0,0,1,3.58,2.7c.25,1.6.61,2.24,2.38,2.24A2,2,0,0,0,33,43.71a5.87,5.87,0,0,0-2.34-4.86,9.52,9.52,0,0,0-6-1.83,8.66,8.66,0,0,0-5.88,2q-2.26,2-2.25,6.11v9.83Q16.46,59.07,18.7,61Z" transform="translate(0 0)"/><path class="cls-2" d="M40.28,62.37a3.42,3.42,0,0,0,1.62.4c.81,0,2.29-.34,2.29-1.44V45.9l4.05,7.61a1.76,1.76,0,0,0,3.07,0l4.12-7.33V61.32c0,1.1,1.43,1.45,2.29,1.45S60,62.41,60,61.33v-22A2.19,2.19,0,0,0,57.71,37c-1.8,0-2.77.95-3.59,2.43l-4.33,7.89-4.33-7.89C44.61,37.94,43.71,37,41.9,37a2.16,2.16,0,0,0-2.29,2.29v22A1.2,1.2,0,0,0,40.28,62.37Z" transform="translate(0 0)"/><path class="cls-2" d="M69.41,61.74a11.35,11.35,0,0,0,5.74,1.37,9.06,9.06,0,0,0,6.08-2,6.92,6.92,0,0,0,2.31-5.58,7.56,7.56,0,0,0-2.94-6.2c-2.31-1.56-5.46-2.15-7.52-4a2.42,2.42,0,0,1,.19-3.77,5.11,5.11,0,0,1,2.94-.72c1.75,0,3.25,1.34,4.86,1.34,1.17,0,1.83-1.45,1.83-2.46,0-1.33-1.49-2.07-2.59-2.35a14.78,14.78,0,0,0-7.17-.17A6.83,6.83,0,0,0,67.65,44a6.68,6.68,0,0,0,2.24,5.13c2,1.61,4.57,2.4,6.83,3.63A3.9,3.9,0,0,1,79,56C79,58.2,76.9,59.1,75,59.1c-2.16,0-3.35-1.17-5-2.38a1.59,1.59,0,0,0-2.43.39A2.74,2.74,0,0,0,67,58.75Q67,60.37,69.41,61.74Z" transform="translate(0 0)"/><path d="M24.56,63.68a9.3,9.3,0,0,1-6.32-2.13c-1.64-1.44-2.48-3.67-2.48-6.64V45.09c0-3,.84-5.2,2.49-6.64a9.37,9.37,0,0,1,6.34-2.13,10.24,10.24,0,0,1,6.47,2,6.56,6.56,0,0,1,2.61,5.41,2.73,2.73,0,0,1-3,3c-2.2,0-2.78-1-3.07-2.82s-2.29-2.11-2.89-2.11c-2.08,0-3,1-3,3.35v9.83c0,2.32.95,3.35,3.07,3.35,1.15,0,2.69-.32,2.9-3.12.06-.78.52-2.09,2.95-2.09a2.77,2.77,0,0,1,3,3,6.9,6.9,0,0,1-2.6,5.61A10.05,10.05,0,0,1,24.56,63.68Zm0-26a8,8,0,0,0-5.43,1.78c-1.34,1.16-2,3-2,5.59v9.83c0,2.55.67,4.43,2,5.59h0a8,8,0,0,0,5.41,1.78,8.7,8.7,0,0,0,5.64-1.75A5.49,5.49,0,0,0,32.29,56c0-1.06-.52-1.56-1.63-1.56-1.5,0-1.54.56-1.56.8-.21,2.85-1.73,4.42-4.29,4.42-2.88,0-4.47-1.69-4.47-4.75V45.09c0-3.06,1.56-4.75,4.4-4.75A4,4,0,0,1,29,43.62c.22,1.38.37,1.65,1.69,1.65,1.12,0,1.59-.47,1.59-1.56a5.16,5.16,0,0,0-2.08-4.31A8.89,8.89,0,0,0,24.6,37.72Z" transform="translate(0 0)"/><path d="M41.9,63.47a4.16,4.16,0,0,1-2-.49h0a1.89,1.89,0,0,1-1-1.65v-22a2.86,2.86,0,0,1,3-3c2.29,0,3.36,1.34,4.17,2.79l.09.16,3.64,6.62,3.72-6.78a4.57,4.57,0,0,1,4.2-2.79,2.89,2.89,0,0,1,3,3v22c0,1.57-1.79,2.14-3,2.14-1.44,0-3-.67-3-2.14V48.84l-2.82,5a2.46,2.46,0,0,1-4.29,0l-2.74-5.14V61.33C44.88,62.73,43.38,63.47,41.9,63.47Zm0-25.75a1.46,1.46,0,0,0-1.59,1.59v22c0,.08,0,.26.33.45h0a2.73,2.73,0,0,0,1.26.3c.54,0,1.59-.23,1.59-.75V43.1l1.31,2.47,4.05,7.61a1,1,0,0,0,.91.52,1,1,0,0,0,.93-.53l5.43-9.66V61.32c0,.53,1,.75,1.59.75s1.59-.26,1.59-.75v-22a1.49,1.49,0,0,0-1.59-1.59c-1.33,0-2.14.56-3,2.07l-4.94,9L45.52,41c-.38-.69-.57-1-.67-1.23h0C44,38.24,43.24,37.72,41.9,37.72Z" transform="translate(0 0)"/><path d="M75.15,63.82a12.09,12.09,0,0,1-6.09-1.47h0c-1.82-1-2.75-2.26-2.75-3.6a3.43,3.43,0,0,1,.75-2.05,2.48,2.48,0,0,1,1.63-1.05,2.38,2.38,0,0,1,1.78.52l.6.46c1.28,1,2.28,1.78,3.93,1.78a4.27,4.27,0,0,0,2.3-.61,2,2,0,0,0,1-1.76,3.32,3.32,0,0,0-1.87-2.65c-.77-.42-1.6-.8-2.4-1.16a21.52,21.52,0,0,1-4.53-2.53A7.36,7.36,0,0,1,67,44a7.55,7.55,0,0,1,6-7.45,15.54,15.54,0,0,1,7.51.17c1.51.38,3.12,1.38,3.12,3a3.85,3.85,0,0,1-.59,2,2.3,2.3,0,0,1-1.94,1.18h0a6.74,6.74,0,0,1-2.6-.7,6,6,0,0,0-2.26-.64,4.48,4.48,0,0,0-2.54.6,1.65,1.65,0,0,0-.7,1.26,1.74,1.74,0,0,0,.57,1.41,14.15,14.15,0,0,0,4,2.2A20.23,20.23,0,0,1,81,48.8a8.27,8.27,0,0,1,3.25,6.78,7.61,7.61,0,0,1-2.55,6.11A9.77,9.77,0,0,1,75.15,63.82ZM69,57h-.1a1.18,1.18,0,0,0-.71.5,2.08,2.08,0,0,0-.48,1.22c0,.81.69,1.61,2,2.39h0a10.72,10.72,0,0,0,5.4,1.28,8.43,8.43,0,0,0,5.63-1.8,6.2,6.2,0,0,0,2.06-5A6.93,6.93,0,0,0,80.21,50,18.93,18.93,0,0,0,77,48.35a15.38,15.38,0,0,1-4.37-2.45,3.13,3.13,0,0,1-1-2.54A3,3,0,0,1,72.87,41a5.8,5.8,0,0,1,3.34-.85,7.14,7.14,0,0,1,2.8.74,5.65,5.65,0,0,0,2.06.59h0a1,1,0,0,0,.77-.53,2.46,2.46,0,0,0,.37-1.23c0-.85-1.11-1.44-2.06-1.68a14.15,14.15,0,0,0-6.82-.17,6.14,6.14,0,0,0-5,6.1,6,6,0,0,0,2,4.58A20.16,20.16,0,0,0,74.57,51c.82.38,1.67.76,2.49,1.21A4.53,4.53,0,0,1,79.66,56,3.37,3.37,0,0,1,78.08,59,5.61,5.61,0,0,1,75,59.8c-2.12,0-3.42-1-4.79-2.07l-.58-.45A1.1,1.1,0,0,0,69,57Z" transform="translate(0 0)"/><path d="M93.54,47.78a1,1,0,0,1-1-.91,42.15,42.15,0,0,0-1.91-9.25,1,1,0,0,1,.55-1.22l6.51-2.85-2.57-5.88L88.6,30.53a1,1,0,0,1-1.27-.43A41.82,41.82,0,0,0,69.72,13.19a1,1,0,0,1-.48-1.25L72.1,4.65l-6-2.34L63.27,9.6a1,1,0,0,1-1.2.6,41.9,41.9,0,0,0-10.5-1.58,1,1,0,0,1,0-2A43.88,43.88,0,0,1,61.74,8L64.63.66A1,1,0,0,1,65.92.09l7.83,3.06a1,1,0,0,1,.56,1.29l-2.89,7.38a43.79,43.79,0,0,1,17.2,16.52l6.61-2.89a1,1,0,0,1,1.31.51l3.37,7.7A1,1,0,0,1,99.4,35l-6.6,2.89a44.16,44.16,0,0,1,1.73,8.82,1,1,0,0,1-.9,1.08Z" transform="translate(0 0)"/><path d="M65.93,100a1,1,0,0,1-.91-.6l-2.71-6.2a43.75,43.75,0,0,1-24.41-.31l-2.52,6.45a1,1,0,0,1-1.29.56l-7.83-3.06a1,1,0,0,1-.56-1.29l2.67-6.81A43.79,43.79,0,0,1,11.76,71.48l-7,3.06A1,1,0,0,1,3.45,74L.08,66.33A1,1,0,0,1,.6,65L8,61.79a43.82,43.82,0,0,1,.34-23.43l-7.65-3a1,1,0,0,1-.56-1.29l3.06-7.83a1,1,0,0,1,1.29-.56l7.93,3.1A43.84,43.84,0,0,1,28.8,12.41L25.46,4.76A1,1,0,0,1,26,3.45L33.67.08A1,1,0,0,1,35,.6l3.39,7.76A44.23,44.23,0,0,1,46.52,6.8a1,1,0,1,1,.19,2,42.21,42.21,0,0,0-8.6,1.73A1,1,0,0,1,36.91,10L33.56,2.31,27.68,4.88,31,12.44a1,1,0,0,1-.44,1.27A41.87,41.87,0,0,0,13.7,30.51a1,1,0,0,1-1.24.45L4.65,27.9l-2.34,6,7.58,3a1,1,0,0,1,.59,1.23,41.85,41.85,0,0,0-.37,24,1,1,0,0,1-.56,1.18L2.31,66.44l2.57,5.88,6.94-3a1,1,0,0,1,1.29.46,41.83,41.83,0,0,0,17,17.68,1,1,0,0,1,.44,1.23L27.9,95.35l6,2.34,2.5-6.38a1,1,0,0,1,1.24-.58,41.8,41.8,0,0,0,25,.33,1,1,0,0,1,1.2.56l2.66,6.08,5.88-2.57-2.57-5.88A1,1,0,0,1,70.2,88,41.78,41.78,0,0,0,88,70.16a1,1,0,0,1,1.25-.47l6.15,2.41,2.34-6-6.08-2.38A1,1,0,0,1,91,62.54a42,42,0,0,0,1.64-9.38,1,1,0,0,1,2,.12,44,44,0,0,1-1.46,8.94l6.16,2.41a1,1,0,0,1,.56,1.29l-3.06,7.83a1,1,0,0,1-1.29.56L89.3,71.87A43.74,43.74,0,0,1,71.94,89.28l2.6,6A1,1,0,0,1,74,96.55l-7.7,3.37A1,1,0,0,1,65.93,100Z" transform="translate(0 0)"/></svg>