<svg id="Layer_1" data-name="Layer 1" xmlns="http://www.w3.org/2000/svg" viewBox="0 0 79.03 100"><defs><style>.cls-1{fill:#afafaf;}.cls-2{fill:#e5e5e5;}</style></defs><title>hire_dedecated_developer</title><path class="cls-1" d="M75,35.22a21.72,21.72,0,0,0,2.65,38.1c-1.19,2.77-2.26,5.6-3.6,8.29a55.45,55.45,0,0,1-8.64,12.74c-2.47,2.71-5.44,4.52-9.26,4.46a15.79,15.79,0,0,1-6.41-1.66,21.29,21.29,0,0,0-6.32-2,18.07,18.07,0,0,0-9.14,1.22C32.5,97,30.76,97.85,29,98.4a10.16,10.16,0,0,1-9.76-1.86A36.3,36.3,0,0,1,12.56,89a61,61,0,0,1-11-28.14C.63,54,.95,47.22,3.73,40.74c3.1-7.2,8.26-12.16,16-14.22a18.56,18.56,0,0,1,12.12.93c1.74.71,3.49,1.36,5.24,2a7.32,7.32,0,0,0,5.56,0c2.69-1,5.37-2.16,8.14-3a21.79,21.79,0,0,1,23.93,8.25Z" transform="translate(0)"/><path class="cls-1" d="M37.91,22.51a13.86,13.86,0,0,1,.83-6.84C41.13,9.38,45.68,5.25,51.83,2.76A21,21,0,0,1,59,1.12C60.7,11.48,49.6,23.55,37.91,22.51Z" transform="translate(0)"/><path d="M39.3,23.66q-.75,0-1.49-.07l-.87-.08-.11-.86a15,15,0,0,1,.89-7.37C40.11,9,44.72,4.47,51.42,1.75A22,22,0,0,1,58.93,0l1,0L60,.94c.85,5.13-1.2,11-5.49,15.58A21.24,21.24,0,0,1,39.3,23.66Zm-.4-2.18c5,.14,10.16-2.23,14.06-6.44C56.53,11.2,58.37,6.5,58,2.27a20.62,20.62,0,0,0-5.79,1.49C46,6.28,41.95,10.3,39.76,16.06A12.93,12.93,0,0,0,38.9,21.48Z" transform="translate(0)"/><path d="M25.62,100a11.18,11.18,0,0,1-7.1-2.61,34.65,34.65,0,0,1-6.23-6.89A1.09,1.09,0,1,1,14,89.22a32.73,32.73,0,0,0,5.83,6.47,9,9,0,0,0,8.77,1.67,38.1,38.1,0,0,0,3.81-1.45l1.4-.58A19.24,19.24,0,0,1,43.53,94a22,22,0,0,1,6.64,2.14,14.63,14.63,0,0,0,6,1.56h.16c3.05,0,5.77-1.35,8.29-4.11A54.56,54.56,0,0,0,73,81.13c.91-1.83,1.71-3.76,2.48-5.64l.68-1.65a22.81,22.81,0,0,1-2.77-38.92,20.68,20.68,0,0,0-22.39-7.37c-2.18.66-4.36,1.52-6.47,2.35L43,30.53a8.45,8.45,0,0,1-6.35,0l-2.09-.81c-1-.4-2.11-.81-3.15-1.24A17.38,17.38,0,0,0,20,27.57C12.92,29.46,7.79,34,4.73,41.17c-2.41,5.61-3.11,12-2.12,19.57a62.31,62.31,0,0,0,2.91,12.4,1.09,1.09,0,0,1-2.05.71A64.47,64.47,0,0,1,.45,61c-1-8-.29-14.73,2.28-20.71,3.34-7.78,9-12.77,16.68-14.84a19.73,19.73,0,0,1,12.81,1c1,.42,2.09.83,3.12,1.22l2.11.82a6.26,6.26,0,0,0,4.77,0l1.58-.62c2.15-.85,4.37-1.72,6.63-2.41a22.87,22.87,0,0,1,25.13,8.66l.21.31.71,1.09-.93.59a20.63,20.63,0,0,0,2.52,36.2l1,.44-.42,1c-.37.85-.73,1.73-1.08,2.57-.79,1.91-1.6,3.88-2.55,5.78a56.73,56.73,0,0,1-8.81,13c-3,3.3-6.31,4.88-10.08,4.82a16.69,16.69,0,0,1-6.85-1.76,20.07,20.07,0,0,0-6-2,17.09,17.09,0,0,0-8.6,1.15l-1.37.57a40.4,40.4,0,0,1-4,1.53A12.66,12.66,0,0,1,25.62,100Z" transform="translate(0)"/><path d="M9.52,85.44a1.08,1.08,0,0,1-.94-.53c-1-1.77-2-3.6-2.86-5.45a1.09,1.09,0,0,1,2-.91c.82,1.78,1.75,3.55,2.76,5.26a1.09,1.09,0,0,1-.93,1.64Z" transform="translate(0)"/><path class="cls-2" d="M7,50.9h0a1.09,1.09,0,0,1-1.05-1.12c.32-11,11.88-18.83,12.37-19.15a1.09,1.09,0,0,1,1.2,1.81c-.14.1-11.11,7.51-11.4,17.41A1.09,1.09,0,0,1,7,50.9Z" transform="translate(0)"/><path class="cls-2" d="M6.75,60.23a1.09,1.09,0,0,1-1.07-.92,46.57,46.57,0,0,1,0-5.75,1.09,1.09,0,0,1,2.17.1,45.44,45.44,0,0,0,0,5.32,1.09,1.09,0,0,1-.9,1.24Z" transform="translate(0)"/></svg>