<svg id="Layer_1" data-name="Layer 1" xmlns="http://www.w3.org/2000/svg" viewBox="0 0 93.92 100"><defs><style>.cls-1{fill:#f36306;}.cls-2{fill:#ff8b4a;}</style></defs><title>hire_magnato_developer</title><path class="cls-1" d="M66.57,42.73V95.26a54,54,0,0,1-39.23,0V42.73l12.77-7.37v52.5l6.85,4,6.85-4V35.36Z" transform="translate(0 0)"/><path class="cls-2" d="M47,91.82l6.85-4V35.36l12.77,7.37V95.26A53.61,53.61,0,0,1,47,99" transform="translate(0 0)"/><path class="cls-1" d="M92.87,28.6V74.22A54,54,0,0,1,81.12,87.75q-.72.59-1.46,1.16V36.23L47,17.35,14.26,36.23V88.91A54,54,0,0,1,1,74.22V28.6L47,2.1Z" transform="translate(0 0)"/><path d="M14.26,88.91a1,1,0,0,1-.64-.22,54.82,54.82,0,0,1-13.47-15A1,1,0,0,1,0,73.17V27.55a1,1,0,0,1,.53-.91L46.43.14a1.05,1.05,0,0,1,1,0l45.91,26.5a1,1,0,0,1,.53.91V58.85a1,1,0,1,1-2.1,0V28.16L47,2.26,2.1,28.16V72.87A52.69,52.69,0,0,0,13.21,85.68V35.18a1.05,1.05,0,0,1,.52-.91l32.7-18.88a1.05,1.05,0,0,1,1,0l32.7,18.88a1.05,1.05,0,0,1,.52.91v50.5A52.75,52.75,0,0,0,91.82,72.87V65.56a1,1,0,1,1,2.1,0v7.6a1.05,1.05,0,0,1-.15.55,54.85,54.85,0,0,1-12,13.8c-.51.42-1,.82-1.49,1.18a1,1,0,0,1-1.69-.83V35.79L47,17.51,15.31,35.79V87.86a1,1,0,0,1-1,1Z" transform="translate(0 0)"/><path d="M47,100a54.56,54.56,0,0,1-20-3.76,1,1,0,0,1-.67-1V42.73a1,1,0,0,1,.52-.91l12.77-7.37a1,1,0,0,1,1.57.91v51.9L47,90.6l5.8-3.35V55.17a1,1,0,1,1,2.1,0V87.86a1,1,0,0,1-.52.91l-6.85,4a1.05,1.05,0,0,1-1.05,0l-6.85-4a1,1,0,0,1-.52-.91V37.18L28.39,43.34v51.2a52.94,52.94,0,0,0,37.13,0V43.34L54.85,37.18V47.82a1,1,0,1,1-2.1,0V35.36a1,1,0,0,1,1.57-.91L67.1,41.82a1,1,0,0,1,.52.91V95.26a1.05,1.05,0,0,1-.67,1A54.55,54.55,0,0,1,47,100Z" transform="translate(0 0)"/><path class="cls-2" d="M89.35,55.34a.84.84,0,0,1-.84-.83l-.06-7.15a.84.84,0,0,1,1.68,0l.06,7.15a.84.84,0,0,1-.83.85Z" transform="translate(0 0)"/><path class="cls-2" d="M89.33,45.55a.84.84,0,0,1-.84-.83l0-2.23a.84.84,0,0,1,.83-.85h0a.84.84,0,0,1,.84.83l0,2.23a.84.84,0,0,1-.83.85Z" transform="translate(0 0)"/></svg>