<svg id="Layer_1" data-name="Layer 1" xmlns="http://www.w3.org/2000/svg" viewBox="0 0 86.76 100"><defs><style>.cls-1{fill:#e58b48;}.cls-2{fill:#2882bb;}.cls-3{fill:#9bc73a;}.cls-4{fill:#ffaf78;}.cls-5{fill:#d3fc65;}</style></defs><title>hire_yii_developer</title><path class="cls-1" d="M59.61,61c-.6-.07-.75,0-.84-.1-10-7-21.34-10.55-32.91-13.69a54.42,54.42,0,0,1-7.77-2.62A27.46,27.46,0,0,1,2,16.56a2.59,2.59,0,0,1,1.49-1.7c13.17-4.56,25.21-3,35.77,6.65,8,7.3,13.06,16.41,16.54,26.48C57.29,52.19,58.33,56.54,59.61,61Z" transform="translate(0 0)"/><path class="cls-2" d="M30.45,98.13A37.54,37.54,0,0,1,31,81.77c1.8-7.57,5.87-13.94,10.71-19.87A1.53,1.53,0,0,1,43,61.58a62.64,62.64,0,0,1,16.42,9.1,2.78,2.78,0,0,1,.71,2.21C58.29,85.84,50.47,94,37.28,97,35.1,97.46,32.88,97.73,30.45,98.13Z" transform="translate(0 0)"/><path class="cls-3" d="M65.77,56.25c-1.38-9.39-4.62-17.78-8.58-25.93-1.72-3.55-3.16-7.11-2.86-11.24C55.12,8.17,64.74,2.36,72,1.87a4.45,4.45,0,0,1,2.4.79c6.44,4,9.29,10.16,10.23,17.39a27,27,0,0,1-2.21,14.23C78.81,42.9,72.54,49.54,65.77,56.25Z" transform="translate(0 0)"/><path d="M65.77,58.12a1.87,1.87,0,0,1-1.85-1.6c-1.18-8-3.77-15.83-8.41-25.39-1.65-3.41-3.39-7.44-3-12.19A19.58,19.58,0,0,1,59.54,5.14,22,22,0,0,1,71.93,0a6.22,6.22,0,0,1,3.51,1.07c6.34,3.94,10,10.07,11.1,18.74A28.57,28.57,0,0,1,84.2,35c-3.8,8.93-10.26,15.77-17.11,22.56A1.87,1.87,0,0,1,65.77,58.12ZM72.19,3.74h0c-6.2.41-15.25,5.48-16,15.48-.25,3.46.84,6.5,2.68,10.29A93.59,93.59,0,0,1,67,52.37c5.6-5.7,10.68-11.6,13.76-18.82A24.94,24.94,0,0,0,82.83,20.3c-1-7.48-4-12.73-9.37-16A3,3,0,0,0,72.19,3.74Z" transform="translate(0 0)"/><path d="M59.61,62.87h-.21l-.46,0a2.28,2.28,0,0,1-1.24-.38c-9-6.28-19.34-9.74-28.25-12.29a1.87,1.87,0,1,1,1-3.6C38.67,48.9,48,52,56.64,57.28c-.82-3-1.6-5.87-2.57-8.68-3.75-10.87-9-19.28-16-25.71-9.61-8.78-20.68-10.83-33.86-6.28a1.23,1.23,0,0,0-.3.3,25.62,25.62,0,0,0,15,26,1.87,1.87,0,0,1-1.51,3.42,29.39,29.39,0,0,1-17.16-30,4.38,4.38,0,0,1,2.73-3.26c14.41-5,27.07-2.62,37.64,7,7.51,6.86,13.08,15.77,17,27.25,1,2.94,1.81,5.86,2.65,9,.37,1.36.75,2.77,1.15,4.16a1.87,1.87,0,0,1-1.8,2.38ZM3.86,17h0Zm.29-.33h0Z" transform="translate(0 0)"/><path d="M30.45,100a1.87,1.87,0,0,1-1.83-1.5,39.5,39.5,0,0,1,.52-17.15c1.63-6.86,5-13.22,11.08-20.62a3.32,3.32,0,0,1,3.52-.88,63.77,63.77,0,0,1,16.91,9.38A4.56,4.56,0,0,1,62,73.16,30.57,30.57,0,0,1,55.17,89a1.87,1.87,0,1,1-2.83-2.45,26.91,26.91,0,0,0,6-14,1.37,1.37,0,0,0-.12-.55,59.73,59.73,0,0,0-15.43-8.58c-5.46,6.77-8.55,12.56-10,18.72A36,36,0,0,0,32,96l.49-.07c1.54-.23,3-.46,4.41-.77a31.74,31.74,0,0,0,10.48-4.23,1.87,1.87,0,0,1,2,3.13A35.45,35.45,0,0,1,37.69,98.8c-1.53.34-3.05.57-4.66.82l-2.27.36ZM58.19,72h0Z" transform="translate(0 0)"/><path class="cls-4" d="M36.27,25.93a.93.93,0,0,1-.66-.27c-7.41-7.42-18.32-7.76-18.43-7.77a.93.93,0,0,1,0-1.87c.48,0,11.77.37,19.71,8.31a.93.93,0,0,1-.66,1.6Z" transform="translate(0 0)"/><path class="cls-5" d="M77.28,35.63a.94.94,0,0,1-.89-1.24c4.23-12.49.23-18.16.19-18.21a.93.93,0,0,1,1.5-1.12c.19.26,4.67,6.41.09,19.94A.94.94,0,0,1,77.28,35.63Z" transform="translate(0 0)"/></svg>