<svg id="Layer_1" data-name="Layer 1" xmlns="http://www.w3.org/2000/svg" viewBox="0 0 100 100"><defs><style>.cls-1{fill:#cfd8dc;}.cls-2{fill:#ffe6b3;}.cls-3{fill:#607d8b;}.cls-4{fill:#d84315;}.cls-5{fill:#ff5722;}.cls-6{fill:#fff;}</style></defs><title>html_5</title><polygon class="cls-1" points="60.45 83.33 50 83.33 39.56 83.33 35 98.33 50 98.33 65 98.33 60.45 83.33"/><path class="cls-2" d="M98.33,12V75H1.67V12A3.51,3.51,0,0,1,5,8.33H95A3.51,3.51,0,0,1,98.33,12Z"/><path class="cls-3" d="M98.34,71.67v9.68A3.52,3.52,0,0,1,95,85H5a3.52,3.52,0,0,1-3.33-3.65V71.67Z"/><path class="cls-1" d="M98.33,71.67v9.68A3.51,3.51,0,0,1,95,85H5a3.51,3.51,0,0,1-3.33-3.65V71.67Z"/><path class="cls-4" d="M79.55,5.4l-6,49.37a3.34,3.34,0,0,1-2,2.65L51.32,66.1a3.11,3.11,0,0,1-1.38.27,3.3,3.3,0,0,1-1.25-.27L28.44,57.42a3.34,3.34,0,0,1-2-2.65l-6-49.37a3.34,3.34,0,0,1,3.32-3.73H76.24A3.34,3.34,0,0,1,79.55,5.4Z"/><path class="cls-5" d="M74.12,5.4,68.34,56.67a3.34,3.34,0,0,1-2,2.67l-16.4,7a3.3,3.3,0,0,1-1.25-.27L28.44,57.42a3.34,3.34,0,0,1-2-2.65l-6-49.37a3.34,3.34,0,0,1,3.32-3.73H70.82a3.32,3.32,0,0,1,3.3,3.73Z"/><path class="cls-6" d="M32.71,51.1l-5-40.9a1.67,1.67,0,0,1,1.65-1.87H70.6a1.67,1.67,0,0,1,1.65,1.87l-5,40.9a1.67,1.67,0,0,1-1,1.33l-15.64,6.7a1.67,1.67,0,0,1-1.31,0l-15.64-6.7A1.67,1.67,0,0,1,32.71,51.1Z"/><path d="M31.06,51.3a3.34,3.34,0,0,0,2,2.66l15.64,6.7a3.35,3.35,0,0,0,2.63,0L67,54a3.34,3.34,0,0,0,2-2.66l5-40.9A3.33,3.33,0,0,0,70.6,6.67H29.41A3.33,3.33,0,0,0,26.1,10.4l5,40.9ZM29.41,10H70.6l-5,40.9L50,57.6,34.36,50.9Z"/><path class="cls-5" d="M36.89,32.11a1.64,1.64,0,0,0,.08.26,1.61,1.61,0,0,0,.2.3,1,1,0,0,0,.49.42l.18.11a1.65,1.65,0,0,0,.62.13H59.66L58.29,44.61,50,48.18l-8.29-3.57L41,38.29a1.67,1.67,0,0,0-3.31.39L38.51,46a1.67,1.67,0,0,0,1,1.34l9.82,4.23a1.67,1.67,0,0,0,1.33,0l9.82-4.23a1.67,1.67,0,0,0,1-1.34l1.7-14.09s0-.07,0-.1,0-.06,0-.1a1.56,1.56,0,0,0,0-.23,1.63,1.63,0,0,0-.07-.33,1.59,1.59,0,0,0-.14-.28,1.2,1.2,0,0,0-.41-.47,1.59,1.59,0,0,0-.26-.18,1.64,1.64,0,0,0-.31-.1L61.74,30h-.1l-.1,0H39.95l-1.4-11.67H63.34a1.67,1.67,0,1,0,0-3.33H36.67A1.67,1.67,0,0,0,35,16.87l1.8,15A1.58,1.58,0,0,0,36.89,32.11Z"/><path d="M8.34,48.33h3.33a1.67,1.67,0,1,0,0-3.33H8.34a1.67,1.67,0,1,0,0,3.33Z"/><path d="M8.34,55h8.33a1.67,1.67,0,1,0,0-3.33H8.34a1.67,1.67,0,0,0,0,3.33Z"/><path d="M8.34,61.67H15a1.67,1.67,0,0,0,0-3.33H8.34a1.67,1.67,0,1,0,0,3.33Z"/><path d="M88.34,48.33h3.33a1.67,1.67,0,1,0,0-3.33H88.34a1.67,1.67,0,1,0,0,3.33Z"/><path d="M100,19.55V16.22a1.67,1.67,0,0,0-3.33,0v3.33a1.67,1.67,0,0,0,3.33,0Z"/><path d="M100,32.76V29.42a1.67,1.67,0,0,0-3.33,0v3.33a1.67,1.67,0,0,0,3.33,0Z"/><path d="M83.34,55h8.33a1.67,1.67,0,1,0,0-3.33H83.34a1.67,1.67,0,1,0,0,3.33Z"/><path d="M91.67,58.33H85a1.67,1.67,0,0,0,0,3.33h6.67a1.67,1.67,0,1,0,0-3.33Z"/><path d="M100,30.35H96.67V70H3.34V12A1.87,1.87,0,0,1,5,10H19.33l4.24,35H18.34a1.67,1.67,0,1,0,0,3.33H24l.4,3.33H21.67a1.67,1.67,0,0,0,0,3.33h3.12a5,5,0,0,0,1.94,3.33H21.67a1.67,1.67,0,1,0,0,3.33H34.11l13.93,6a5,5,0,0,0,3.94,0h0l13.93-6H78.34a1.67,1.67,0,1,0,0-3.33H73.27A5,5,0,0,0,75.21,55h3.12a1.67,1.67,0,0,0,0-3.33H75.62l.4-3.33h5.64a1.67,1.67,0,0,0,0-3.33H76.43l4.24-35H95a1.87,1.87,0,0,1,1.67,2v7.16H100V12a5.17,5.17,0,0,0-5-5.32H81.08L81.2,5.6a5,5,0,0,0-5-5.6H23.76a5,5,0,0,0-5,5.6l.13,1.07H5A5.17,5.17,0,0,0,0,12V81.35a5.17,5.17,0,0,0,5,5.32H37.23l-3.42,10H31.67a1.67,1.67,0,1,0,0,3.33H68.34a1.67,1.67,0,0,0,0-3.33H66.19l-3.42-10H95a5.17,5.17,0,0,0,5-5.32ZM22.52,3.89a1.65,1.65,0,0,1,1.25-.56H76.24A1.67,1.67,0,0,1,77.9,5.2l-6,49.36a1.67,1.67,0,0,1-1,1.33l-6,2.57h0l-14.23,6.1a1.68,1.68,0,0,1-1.31,0l-14.24-6.1h0l-6-2.57a1.67,1.67,0,0,1-1-1.33l-6-49.36A1.65,1.65,0,0,1,22.52,3.89ZM37.33,96.67l3.42-10h18.5l3.42,10ZM95,83.33H5a1.87,1.87,0,0,1-1.67-2v-8H96.67v8A1.87,1.87,0,0,1,95,83.33Z"/></svg>