<svg id="Layer_1" data-name="Layer 1" xmlns="http://www.w3.org/2000/svg" viewBox="0 0 111.25 99.92"><defs><style>.cls-1{fill:#f2dab4;}</style></defs><title>hybrid_app</title><path class="cls-1" d="M94.86,20.37,87.28,7.24A12.11,12.11,0,0,0,76.8,1.18H34.45A12.11,12.11,0,0,0,24,7.24L2.8,43.91A12.11,12.11,0,0,0,2.8,56L24,92.68a12.11,12.11,0,0,0,10.48,6.05H76.8a12.11,12.11,0,0,0,10.48-6.05L108.45,56a12.11,12.11,0,0,0,0-12.11l-8.24-14.27"/><path d="M76.8,99.92H34.45a13.33,13.33,0,0,1-11.51-6.64L1.77,56.6a13.33,13.33,0,0,1,0-13.29L22.95,6.64A13.33,13.33,0,0,1,34.45,0H76.8A13.33,13.33,0,0,1,88.3,6.64l7.58,13.14a1.18,1.18,0,0,1-2,1.18L86.26,7.83A11,11,0,0,0,76.8,2.37H34.45A11,11,0,0,0,25,7.83L3.82,44.5a11,11,0,0,0,0,10.92L25,92.09a11,11,0,0,0,9.46,5.46H76.8a11,11,0,0,0,9.46-5.46l21.17-36.67a11,11,0,0,0,0-10.92L99.19,30.23a1.18,1.18,0,1,1,2-1.18l8.24,14.27a13.33,13.33,0,0,1,0,13.29L88.3,93.27A13.33,13.33,0,0,1,76.8,99.92Z"/><rect x="55.08" y="36.96" width="23.42" height="4.26" rx="2.13" ry="2.13" transform="translate(-8.08 58.68) rotate(-45)"/><rect x="32.75" y="58.69" width="23.42" height="4.26" rx="2.13" ry="2.13" transform="translate(-29.99 49.25) rotate(-45)"/><rect x="32.75" y="36.96" width="23.42" height="4.26" rx="2.13" ry="2.13" transform="translate(48.25 98.17) rotate(-135)"/><rect x="55.08" y="58.69" width="23.42" height="4.26" rx="2.13" ry="2.13" transform="translate(71.01 151.06) rotate(-135)"/><rect x="53.5" y="47.83" width="4.26" height="4.26" rx="2.13" ry="2.13"/></svg>