<svg id="Layer_1" data-name="Layer 1" xmlns="http://www.w3.org/2000/svg" viewBox="0 0 99.75 99.75"><defs><style>.cls-1{fill:#aa006d;}.cls-2{fill:#fff;}</style></defs><title>iconic</title><circle class="cls-1" cx="49.88" cy="49.87" r="26.61"/><path d="M49.88,99.75A49.88,49.88,0,1,1,99.75,49.88,49.93,49.93,0,0,1,49.88,99.75Zm0-95.81A45.93,45.93,0,1,0,95.81,49.88,46,46,0,0,0,49.88,3.94Z"/><circle class="cls-2" cx="83.58" cy="16.17" r="8.87"/><path d="M83.58,27A10.84,10.84,0,1,1,94.43,16.17,10.85,10.85,0,0,1,83.58,27Zm0-17.74a6.9,6.9,0,1,0,6.9,6.9A6.91,6.91,0,0,0,83.58,9.27Z"/><path d="M49.88,78.46A28.54,28.54,0,0,1,24.6,63.22a2,2,0,0,1,3.49-1.84,24.5,24.5,0,1,0-2.35-6.57,2,2,0,1,1-3.86.78,28.59,28.59,0,1,1,28,22.87Z"/></svg>