<svg id="Layer_1" data-name="Layer 1" xmlns="http://www.w3.org/2000/svg" viewBox="0 0 100 100"><defs><style>.cls-1{fill:#704639;}.cls-2{fill:#5e382c;}.cls-3{fill:#ffa426;}.cls-4{fill:#fff;}</style></defs><title>illustrator</title><path class="cls-1" d="M95.18,1.61H4.82A3.18,3.18,0,0,0,1.61,4.82V95.18a3.18,3.18,0,0,0,3.21,3.21H95.18a3.18,3.18,0,0,0,3.21-3.21V4.82A3.18,3.18,0,0,0,95.18,1.61Z"/><path class="cls-2" d="M98.39,4.82V95.18a3.18,3.18,0,0,1-3.21,3.21H50V1.61H95.18A3.18,3.18,0,0,1,98.39,4.82Z"/><path class="cls-3" d="M95.18,100H4.82A4.77,4.77,0,0,1,0,95.18V4.82A4.77,4.77,0,0,1,4.82,0H95.18A4.77,4.77,0,0,1,100,4.82V80.1a1.61,1.61,0,0,1-3.21,0V4.82a1.57,1.57,0,0,0-1.61-1.61H4.82A1.57,1.57,0,0,0,3.21,4.82V95.18a1.57,1.57,0,0,0,1.61,1.61H95.18a1.57,1.57,0,0,0,1.61-1.61v-5a1.61,1.61,0,0,1,3.21,0v5A4.77,4.77,0,0,1,95.18,100Z"/><path class="cls-4" d="M75.7,78.91a3.21,3.21,0,0,1-3.21-3.21V50a3.21,3.21,0,0,1,6.42,0V75.7A3.21,3.21,0,0,1,75.7,78.91Z"/><path class="cls-4" d="M65.87,74.54,50,32.21l-3.4-9.06c-1-2.51-5.07-2.51-6,0L21.29,74.54a3.23,3.23,0,0,0,6,2.31l8.87-23.64H51l8.87,23.64A3.26,3.26,0,0,0,64,78.71,3.34,3.34,0,0,0,65.87,74.54ZM38.57,46.79l5-13.36,5,13.36Z"/><circle class="cls-4" cx="75.7" cy="37.15" r="3.21"/><path class="cls-4" d="M64,78.71a3.26,3.26,0,0,1-4.18-1.86L51,53.21H50v-21L65.87,74.54A3.34,3.34,0,0,1,64,78.71Z"/></svg>