<svg id="Layer_1" data-name="Layer 1" xmlns="http://www.w3.org/2000/svg" viewBox="0 0 99.92 99.92"><defs><style>.cls-1{fill:#6d0039;}.cls-2{fill:#54002e;}.cls-3{fill:#d72878;}.cls-4{fill:#ff468c;}.cls-5{fill:#fff;}</style></defs><title>indesign</title><path class="cls-1" d="M95.1,1.6H4.81A3.18,3.18,0,0,0,1.6,4.81V95.1a3.18,3.18,0,0,0,3.21,3.21H95.1a3.18,3.18,0,0,0,3.21-3.21V4.81A3.18,3.18,0,0,0,95.1,1.6Z"/><path class="cls-2" d="M98.31,4.81V95.1a3.18,3.18,0,0,1-3.21,3.21H50V1.6H95.1A3.18,3.18,0,0,1,98.31,4.81Z"/><path class="cls-3" d="M72.42,24.28V75.63a3.18,3.18,0,0,1-3.21,3.21,3.11,3.11,0,0,1-2.57-1.41,19,19,0,0,1-7.06,1.41A19.61,19.61,0,0,1,50,76.27V68a12.68,12.68,0,0,0,9.63,4.43A13.31,13.31,0,0,0,66,70.56v-22a13.31,13.31,0,0,0-6.42-1.86A12.68,12.68,0,0,0,50,51.18V42.9a19.37,19.37,0,0,1,16-1.48V24.28a3.21,3.21,0,0,1,6.42,0Z"/><path class="cls-4" d="M95.1,99.92H4.81A4.76,4.76,0,0,1,0,95.1V4.81A4.76,4.76,0,0,1,4.81,0H95.1a4.76,4.76,0,0,1,4.81,4.81V74.15a1.6,1.6,0,0,1-3.21,0V4.81a1.57,1.57,0,0,0-1.6-1.6H4.81a1.57,1.57,0,0,0-1.6,1.6V95.1a1.57,1.57,0,0,0,1.6,1.6H95.1a1.57,1.57,0,0,0,1.6-1.6V86.88a1.6,1.6,0,0,1,3.21,0V95.1A4.76,4.76,0,0,1,95.1,99.92Z"/><path class="cls-5" d="M30.7,78.84a3.21,3.21,0,0,1-3.21-3.21V24.28a3.21,3.21,0,0,1,6.42,0V75.63A3.21,3.21,0,0,1,30.7,78.84Z"/><path class="cls-5" d="M69.21,21.07A3.18,3.18,0,0,0,66,24.28V41.42A19.27,19.27,0,0,0,50,76.27a19.61,19.61,0,0,0,9.63,2.57,19,19,0,0,0,7.06-1.41,3.11,3.11,0,0,0,2.57,1.41,3.18,3.18,0,0,0,3.21-3.21V24.28A3.18,3.18,0,0,0,69.21,21.07ZM66,70.56a13.31,13.31,0,0,1-6.42,1.86A12.68,12.68,0,0,1,50,68a12.62,12.62,0,0,1,0-16.82,12.68,12.68,0,0,1,9.63-4.43A13.31,13.31,0,0,1,66,48.61Z"/></svg>