<svg id="Layer_1" data-name="Layer 1" xmlns="http://www.w3.org/2000/svg" viewBox="0 0 163.37 99.75"><defs><style>.cls-1{fill:#7f7f7f;}.cls-2{fill:#579add;}</style></defs><title>intel_xdk</title><path class="cls-1" d="M130.48,30h-6.9a.36.36,0,0,0-.36.36V64c0,3.89,1.83,7.28,7.22,8a.36.36,0,0,0,.41-.36V30.37A.36.36,0,0,0,130.48,30Z"/><path class="cls-1" d="M39.65,42.41H32.74a.36.36,0,0,0-.36.36V64.61c0,3.9,1.84,7.29,7.24,8a.36.36,0,0,0,.4-.36V42.77A.36.36,0,0,0,39.65,42.41Z"/><path class="cls-1" d="M32.37,31.4v6.5a.36.36,0,0,0,.36.36h6.89a.36.36,0,0,0,.36-.36V31.4a.36.36,0,0,0-.36-.36H32.74A.36.36,0,0,0,32.37,31.4Z"/><path class="cls-1" d="M85.7,72.25c-6.17,0-8.79-4.29-8.79-8.52V34.63a.36.36,0,0,1,.36-.36h6.83a.36.36,0,0,1,.36.36V42a.36.36,0,0,0,.36.36h5a.36.36,0,0,1,.36.36v5.38a.36.36,0,0,1-.36.36h-5a.36.36,0,0,0-.36.36V63.27c0,1.72.82,2.68,2.61,2.68H89.8a.36.36,0,0,1,.36.36v5.57a.36.36,0,0,1-.36.36H85.7"/><path class="cls-1" d="M99.61,59.7c0,3.87,2.42,6.71,6.7,6.71a8.44,8.44,0,0,0,6.69-2.6.37.37,0,0,1,.5,0l4.15,3.95a.37.37,0,0,1,0,.53,14.85,14.85,0,0,1-11.4,4.49c-7.24,0-14.17-3.95-14.17-15.46,0-9.84,6.06-15.41,14-15.41S118.8,48.42,118.8,57v2.36a.36.36,0,0,1-.36.36H99.61m.73-8.41a7.5,7.5,0,0,0-.71,2.86.37.37,0,0,0,.36.39h10.88a.36.36,0,0,0,.36-.39C110.62,46.07,102.27,47.17,100.34,51.29Z"/><path class="cls-1" d="M60.55,48.52c2.22,0,3.14,1.1,3.14,2.88V71.93a.36.36,0,0,0,.36.36h6.84a.36.36,0,0,0,.36-.36V51.35c0-4.24-2.26-8.93-8.9-8.93H47.09a.36.36,0,0,0-.36.36V71.93a.36.36,0,0,0,.36.36h6.84a.36.36,0,0,0,.36-.36V48.88a.36.36,0,0,1,.36-.36h5.89Z"/><path class="cls-2" d="M131.17,30h-6.9a.36.36,0,0,0-.36.36V64c0,3.89,1.83,7.28,7.22,8a.36.36,0,0,0,.41-.36V30.37A.36.36,0,0,0,131.17,30Z"/><path class="cls-2" d="M40.34,42.41H33.43a.36.36,0,0,0-.36.36V64.61c0,3.9,1.84,7.29,7.24,8a.36.36,0,0,0,.4-.36V42.77A.36.36,0,0,0,40.34,42.41Z"/><path class="cls-2" d="M33.06,31.4v6.5a.36.36,0,0,0,.36.36h6.89a.36.36,0,0,0,.36-.36V31.4a.36.36,0,0,0-.36-.36H33.43A.36.36,0,0,0,33.06,31.4Z"/><path class="cls-2" d="M86.39,72.25c-6.17,0-8.79-4.29-8.79-8.52V34.63a.36.36,0,0,1,.36-.36H84.8a.36.36,0,0,1,.36.36V42a.36.36,0,0,0,.36.36h5a.36.36,0,0,1,.36.36v5.38a.36.36,0,0,1-.36.36h-5a.36.36,0,0,0-.36.36V63.27C85.16,65,86,66,87.78,66h2.72a.36.36,0,0,1,.36.36v5.57a.36.36,0,0,1-.36.36h-4.1"/><path class="cls-2" d="M100.3,59.7c0,3.87,2.42,6.71,6.7,6.71a8.44,8.44,0,0,0,6.69-2.6.37.37,0,0,1,.5,0l4.15,3.95a.37.37,0,0,1,0,.53,14.85,14.85,0,0,1-11.4,4.49c-7.24,0-14.17-3.95-14.17-15.46,0-9.84,6.06-15.41,14-15.41S119.49,48.42,119.49,57v2.36a.36.36,0,0,1-.36.36H100.3m.73-8.41a7.5,7.5,0,0,0-.71,2.86.37.37,0,0,0,.36.39h10.88a.36.36,0,0,0,.36-.39C111.31,46.07,103,47.17,101,51.29Z"/><path class="cls-2" d="M61.24,48.52c2.22,0,3.14,1.1,3.14,2.88V71.93a.36.36,0,0,0,.36.36h6.84a.36.36,0,0,0,.36-.36V51.35c0-4.24-2.26-8.93-8.9-8.93H47.78a.36.36,0,0,0-.36.36V71.93a.36.36,0,0,0,.36.36h6.84a.36.36,0,0,0,.36-.36V48.88a.36.36,0,0,1,.36-.36h5.89Z"/><path d="M44.22,98.61l-.33,0c-11.21-1.66-21-5.11-28.4-10C7.66,83.47,2.57,76.72.76,69.08c-3-12.53,2.84-26.24,16.38-38.62C30.32,18.41,49.37,9,70.77,3.89A136,136,0,0,1,112.33.36c12.8,1,24.14,4.16,32.81,9.1A2.22,2.22,0,1,1,143,13.31C126.13,3.74,98.86,1.78,71.79,8.2c-20.68,4.91-39,14-51.67,25.54C7.83,45,2.49,57.17,5.07,68.06,8.2,81.22,23,91,44.54,94.2a2.22,2.22,0,0,1-.32,4.41Z"/><path d="M60.31,99.75q-3.92,0-7.72-.25a2.22,2.22,0,0,1,.29-4.42,132.6,132.6,0,0,0,38.69-3.53c20.68-4.91,39-14,51.67-25.54,12.29-11.24,17.64-23.43,15.05-34.32-1.29-5.43-4.48-10.26-9.47-14.38a2.22,2.22,0,0,1,2.82-3.42c5.76,4.74,9.45,10.38,11,16.78,3,12.53-2.84,26.24-16.38,38.62C133,81.34,114,90.78,92.6,95.86A141.16,141.16,0,0,1,60.31,99.75Z"/></svg>