<svg id="Capa_1" data-name="Capa 1" xmlns="http://www.w3.org/2000/svg" viewBox="0 0 100 100"><defs><style>.cls-1{fill:#333;}.cls-2{fill:#fff;}</style></defs><title>iOS_progressive_web_apps</title><rect class="cls-1" x="1.43" y="1.43" width="97.15" height="97.15" rx="13" ry="13"/><path d="M86.4,100H13.6A13.62,13.62,0,0,1,0,86.4V13.6A13.62,13.62,0,0,1,13.6,0H86.4A13.62,13.62,0,0,1,100,13.6v5.48a1.43,1.43,0,1,1-2.85,0V13.6A10.76,10.76,0,0,0,86.4,2.85H13.6A10.76,10.76,0,0,0,2.85,13.6V86.4A10.76,10.76,0,0,0,13.6,97.15H86.4A10.76,10.76,0,0,0,97.15,86.4V32.59a1.43,1.43,0,1,1,2.85,0V86.4A13.62,13.62,0,0,1,86.4,100Z"/><path d="M98.57,28.59a1.43,1.43,0,0,1-1.43-1.43V26A1.43,1.43,0,1,1,100,26v1.21A1.43,1.43,0,0,1,98.57,28.59Z"/><path class="cls-2" d="M19.34,34.78a2.86,2.86,0,0,1,3-2.82,2.8,2.8,0,0,1,3,2.71,2.89,2.89,0,0,1-3,2.93A2.86,2.86,0,0,1,19.34,34.78ZM20,40.91h4.7V61H20Z"/><path class="cls-2" d="M29.42,47.84c0-7.79,6-13.54,14.18-13.54S57.79,40,57.79,47.84s-6,13.54-14.18,13.54S29.42,55.62,29.42,47.84Zm23.44,0a9,9,0,0,0-9.26-9.26,9,9,0,0,0-9.26,9.26,9,9,0,0,0,9.26,9.26A9,9,0,0,0,52.86,47.84Z"/><path class="cls-2" d="M60.76,58.22l1.69-3.8a14.59,14.59,0,0,0,8.69,2.9c4.1,0,5.83-1.47,5.83-3.42,0-5.68-15.65-2-15.65-11.74,0-4.25,3.39-7.86,10.61-7.86a16.65,16.65,0,0,1,8.77,2.33l-1.54,3.8a14.64,14.64,0,0,0-7.26-2.07c-4.06,0-5.72,1.58-5.72,3.57,0,5.61,15.61,2,15.61,11.63,0,4.21-3.42,7.83-10.65,7.83C67,61.38,62.94,60.1,60.76,58.22Z"/></svg>