<svg id="Layer_1" data-name="Layer 1" xmlns="http://www.w3.org/2000/svg" viewBox="0 0 74.25 100.06"><defs><style>.cls-1{fill:#f66232;}.cls-2{fill:#ffb3a1;}.cls-3{fill:#fff;}.cls-4{fill:#fff2f0;}.cls-5{fill:#ccc;}.cls-6{fill:#ff4c4c;}</style></defs><title>iPad_ecommerce_apps</title><path class="cls-1" d="M69.13,99.07h-64A4.13,4.13,0,0,1,1,94.94V5.12A4.13,4.13,0,0,1,5.12,1h64a4.13,4.13,0,0,1,4.13,4.13V94.94A4.13,4.13,0,0,1,69.13,99.07Z"/><rect class="cls-2" x="7.18" y="14.93" width="59.88" height="70.21"/><circle class="cls-3" cx="37.12" cy="92.1" r="3.1"/><path d="M32.48,92.1a4.65,4.65,0,1,0,4.65-4.65A4.65,4.65,0,0,0,32.48,92.1Zm6.19,0a1.55,1.55,0,1,1-1.55-1.55A1.55,1.55,0,0,1,38.67,92.1Z"/><path d="M68.06,86.12H6.19V13.94H68.06Zm-59.88-2H66.08V15.91H8.17Z"/><line class="cls-3" x1="25.14" y1="7.28" x2="29.35" y2="7.28"/><path d="M29.35,8.27H25.14a1,1,0,0,1,0-2h4.22a1,1,0,0,1,0,2Z"/><line class="cls-3" x1="33.76" y1="7.28" x2="49.11" y2="7.28"/><path d="M49.11,8.27H33.76a1,1,0,0,1,0-2H49.11a1,1,0,0,1,0,2Z"/><path d="M69.8,100.06H4.45A4.45,4.45,0,0,1,0,95.61V4.45A4.45,4.45,0,0,1,4.45,0H69.8a4.45,4.45,0,0,1,4.45,4.45V65a1,1,0,1,1-2,0V4.45A2.48,2.48,0,0,0,69.8,2H4.45A2.48,2.48,0,0,0,2,4.45V95.61a2.48,2.48,0,0,0,2.47,2.47H69.8a2.48,2.48,0,0,0,2.47-2.47V79a1,1,0,1,1,2,0V95.61A4.45,4.45,0,0,1,69.8,100.06Z"/><path class="cls-4" d="M62.16,41.73a1,1,0,0,1-1-1V19.6a1,1,0,0,1,2,0V40.74A1,1,0,0,1,62.16,41.73Z"/><path class="cls-4" d="M62.16,47.53a1,1,0,0,1-1-1v-3a1,1,0,1,1,2,0v3A1,1,0,0,1,62.16,47.53Z"/><circle class="cls-5" cx="26.93" cy="55.98" r="2.4"/><circle class="cls-5" cx="45.59" cy="55.98" r="2.4"/><path class="cls-6" d="M21.75,34.44l3.76,14.74H48a1,1,0,0,0,1-.75l3.25-12.74a1,1,0,0,0-1-1.25H21.75Z"/><path d="M29.69,46.93a1.47,1.47,0,0,0,1.42-1.83l-1.87-7.32a1.46,1.46,0,0,0-2.84.72l1.87,7.32A1.46,1.46,0,0,0,29.69,46.93Z"/><path d="M37,46.93a1.46,1.46,0,0,0,1.46-1.46V38.15a1.46,1.46,0,1,0-2.93,0v7.32A1.46,1.46,0,0,0,37,46.93Z"/><path d="M43.9,46.89a1.46,1.46,0,0,0,1.78-1.06l1.87-7.32a1.46,1.46,0,0,0-2.84-.72l-1.87,7.32A1.46,1.46,0,0,0,43.9,46.89Z"/><path d="M15.75,27.25l3,1.65a.3.3,0,0,1,.14.19h0l6,23.61h0a3.86,3.86,0,1,0,5.61,4.74H42a3.86,3.86,0,0,0,7.15,0H50a1.46,1.46,0,0,0,0-2.93h-.79v0l0-.07L49,54.19,49,54.09l-.13-.22,0-.07-.2-.27,0,0-.19-.2-.07-.07L48.09,53,48,53l-.27-.2,0,0-.25-.15-.09,0-.23-.11-.09,0-.32-.12h0l-.31-.08-.1,0-.25,0h-.1l-.36,0-.36,0h-.1l-.25,0-.1,0-.31.08h0l-.32.12-.09,0-.23.11-.09,0-.25.15,0,0-.27.2-.07.06-.19.17-.07.07-.19.2,0,0-.2.27,0,.07-.13.22-.05.09-.12.24,0,.07v0H30.51v0l0,0-.13-.27,0,0-.17-.28,0-.06-.2-.26h0l-.22-.24,0,0L29.4,53l0,0-.25-.18,0,0-.28-.17-.06,0-.3-.14,0,0-.29-.11-.06,0-.26-.07-.4-1.57H48a2.46,2.46,0,0,0,2.39-1.86l3.25-12.74A2.47,2.47,0,0,0,51.2,33H22.89l-1.18-4.61h0a3.24,3.24,0,0,0-1.56-2l-3-1.65a1.46,1.46,0,0,0-1.42,2.56ZM45.59,55a.94.94,0,1,1-.94.94A.94.94,0,0,1,45.59,55ZM27.87,56a.94.94,0,1,1-.94-.94A.94.94,0,0,1,27.87,56ZM50.61,35.9l-3,11.81H26.65l-3-11.81Z"/><path d="M28,68.17H19.17a.88.88,0,0,1,0-1.75H28a.88.88,0,1,1,0,1.75Z"/><path d="M53.47,68.17H34.6a.88.88,0,1,1,0-1.75H53.47a.88.88,0,1,1,0,1.75Z"/><path d="M53.87,72.11H18.77a.88.88,0,0,1,0-1.75H53.87a.88.88,0,0,1,0,1.75Z"/></svg>