<svg id="Layer_1" data-name="Layer 1" xmlns="http://www.w3.org/2000/svg" viewBox="0 0 75.06 99.95"><defs><style>.cls-1{fill:#1c2d6b;}.cls-2{fill:#89aadb;}.cls-3{fill:#a4c4ea;}.cls-4{fill:#ef7f72;}.cls-5{fill:#e8383b;}.cls-6{fill:#e95947;}.cls-7{fill:#fff;}.cls-8{fill:#161616;}.cls-9{fill:none;stroke:#000;stroke-miterlimit:10;stroke-width:10px;}.cls-10{fill:#afafaf;}</style></defs><title>iPad App Development</title><path class="cls-1" d="M-472-178"/><path class="cls-2" d="M23.14,95.4V4.72A2.82,2.82,0,0,1,26,1.89H5.67A4.72,4.72,0,0,0,.94,6.62V93.5a4.72,4.72,0,0,0,4.72,4.72H26a2.82,2.82,0,0,1-2.82-2.82Zm0,0"/><path class="cls-3" d="M69.42,1.89H48.65a2.82,2.82,0,0,1,2.82,2.82V95.4a2.82,2.82,0,0,1-2.82,2.82H69.42a4.72,4.72,0,0,0,4.72-4.72V6.62a4.72,4.72,0,0,0-4.72-4.72Zm0,0"/><path class="cls-2" d="M51.47,95.4V4.72a2.82,2.82,0,0,0-2.82-2.82H26a2.82,2.82,0,0,0-2.82,2.82V95.4A2.82,2.82,0,0,0,26,98.23H48.65a2.82,2.82,0,0,0,2.82-2.82Zm0,0"/><path class="cls-4" d="M23.12,85.3V12a1.59,1.59,0,0,1,1.59-1.59H11.79a2.36,2.36,0,0,0-2.36,2.36V84.53a2.36,2.36,0,0,0,2.36,2.36H24.71a1.59,1.59,0,0,1-1.59-1.59Zm0,0"/><path class="cls-5" d="M63.26,10.39H49.86A1.59,1.59,0,0,1,51.45,12V85.3a1.59,1.59,0,0,1-1.59,1.59h13.4a2.36,2.36,0,0,0,2.36-2.36V12.75a2.36,2.36,0,0,0-2.36-2.36Zm0,0"/><path class="cls-6" d="M51.45,85.3V12a1.59,1.59,0,0,0-1.59-1.59H24.71A1.59,1.59,0,0,0,23.12,12V85.3a1.59,1.59,0,0,0,1.59,1.59H49.86a1.59,1.59,0,0,0,1.59-1.59Zm0,0"/><path class="cls-7" d="M40.12,92.55a2.83,2.83,0,1,1-2.83-2.83,2.83,2.83,0,0,1,2.83,2.83Zm0,0"/><path class="cls-8" d="M37.29,95.74a3.19,3.19,0,1,1,3.19-3.19A3.19,3.19,0,0,1,37.29,95.74Zm0-5.67a2.48,2.48,0,1,0,2.48,2.48A2.48,2.48,0,0,0,37.29,90.07Z"/><path d="M68.21,100H6.85a6.94,6.94,0,0,1-6.85-7V7A6.94,6.94,0,0,1,6.85,0H68.21a6.94,6.94,0,0,1,6.85,7V69a.94.94,0,1,1-1.89,0V7a5.05,5.05,0,0,0-5-5.13H6.85A5.05,5.05,0,0,0,1.89,7V92.94a5.05,5.05,0,0,0,5,5.13H68.21a5.05,5.05,0,0,0,5-5.13V78.54a.94.94,0,1,1,1.89,0V92.94A6.94,6.94,0,0,1,68.21,100Z"/><path d="M62.06,87.83H13.54A4.55,4.55,0,0,1,9,83.24V14a4.55,4.55,0,0,1,4.51-4.59H62.06A4.55,4.55,0,0,1,66.56,14V83.24A4.55,4.55,0,0,1,62.06,87.83ZM13.54,11.25A2.66,2.66,0,0,0,10.92,14V83.24a2.66,2.66,0,0,0,2.62,2.7H62.06a2.66,2.66,0,0,0,2.62-2.7V14a2.66,2.66,0,0,0-2.62-2.7Z"/><path class="cls-9" d="M13.54,13"/><path class="cls-7" d="M49,46.08a6.67,6.67,0,0,0-.06,11.72c-.43.82-.82,1.66-1.29,2.46A17,17,0,0,1,44.7,64a3.69,3.69,0,0,1-2.94,1.15,4.84,4.84,0,0,1-1.92-.65,6.53,6.53,0,0,0-1.89-.77,5.55,5.55,0,0,0-2.82.16c-.56.18-1.1.39-1.67.51a3.12,3.12,0,0,1-2.94-.79,11.14,11.14,0,0,1-1.86-2.45,18.74,18.74,0,0,1-2.74-8.86A11.58,11.58,0,0,1,27,46.15a7.17,7.17,0,0,1,5.21-4,5.7,5.7,0,0,1,3.69.56l1.56.75a2.25,2.25,0,0,0,1.7.13c.85-.26,1.69-.54,2.56-.73a6.69,6.69,0,0,1,7.13,3.07Z"/><path class="cls-7" d="M37,41.35a4.25,4.25,0,0,1,.25-2.1,6.78,6.78,0,0,1,4-4,6.44,6.44,0,0,1,2.19-.5C44,38,40.6,41.67,37,41.35Z"/><path d="M37.44,41.7l-.46,0-.27,0,0-.26A4.6,4.6,0,0,1,37,39.13,7.14,7.14,0,0,1,41.16,35a6.74,6.74,0,0,1,2.31-.53h.29l0,.29a5.84,5.84,0,0,1-1.68,4.78A6.52,6.52,0,0,1,37.44,41.7ZM37.32,41a5.81,5.81,0,0,0,4.32-2,5.32,5.32,0,0,0,1.55-3.92,6.33,6.33,0,0,0-1.78.46,6.41,6.41,0,0,0-3.83,3.77A4,4,0,0,0,37.32,41Z"/><path d="M42,65.51l-.38,0a5.12,5.12,0,0,1-2-.71A6.16,6.16,0,0,0,37.78,64a5.25,5.25,0,0,0-2.66.13l-.44.14a12.41,12.41,0,0,1-1.27.36,3.44,3.44,0,0,1-3.23-.9,10.64,10.64,0,0,1-1.73-2.27.33.33,0,0,1,.57-.35,10,10,0,0,0,1.61,2.13,2.77,2.77,0,0,0,2.64.74,11.72,11.72,0,0,0,1.2-.34l.44-.14a5.91,5.91,0,0,1,3-.14,6.74,6.74,0,0,1,2,.83,4.49,4.49,0,0,0,1.79.63,3.36,3.36,0,0,0,2.69-1,16.75,16.75,0,0,0,2.91-3.6c.33-.53.62-1.11.91-1.66l.25-.49a7,7,0,0,1,.16-12,6.35,6.35,0,0,0-6.66-2.83c-.68.15-1.37.35-2,.55l-.5.15a2.59,2.59,0,0,1-1.94-.17l-.62-.3L35.91,43a5.33,5.33,0,0,0-3.47-.57,6.88,6.88,0,0,0-5,3.76,11.23,11.23,0,0,0-1.16,5.93A19.12,19.12,0,0,0,26.83,56a.33.33,0,1,1-.65.16,19.79,19.79,0,0,1-.59-4,11.87,11.87,0,0,1,1.23-6.27,7.52,7.52,0,0,1,5.49-4.11,6.06,6.06,0,0,1,3.89.63l.92.46.62.31a1.92,1.92,0,0,0,1.46.13l.5-.15c.68-.2,1.38-.41,2.09-.57a7,7,0,0,1,7.46,3.3l.06.1.19.35-.3.16A6.33,6.33,0,0,0,49,57.63l.28.16-.15.29-.4.76c-.29.56-.59,1.15-.93,1.7a17.41,17.41,0,0,1-3,3.74A4.08,4.08,0,0,1,42,65.51Z"/><path d="M28.3,60.66A.33.33,0,0,1,28,60.5c-.32-.54-.62-1.11-.88-1.67a.33.33,0,0,1,.6-.28c.25.55.54,1.09.85,1.61a.33.33,0,0,1-.29.5Z"/><path class="cls-10" d="M27.52,50.06h0a.33.33,0,0,1-.32-.34c.1-3.39,3.65-5.78,3.8-5.88a.33.33,0,1,1,.37.56s-3.41,2.3-3.5,5.34A.33.33,0,0,1,27.52,50.06Z"/><path class="cls-10" d="M27.46,52.92a.33.33,0,0,1-.33-.28,14.28,14.28,0,0,1,0-1.77.33.33,0,1,1,.67,0,13.93,13.93,0,0,0,0,1.63.33.33,0,0,1-.28.38Z"/></svg>