<svg id="Layer_1" data-name="Layer 1" xmlns="http://www.w3.org/2000/svg" viewBox="0 0 99 100.16"><defs><style>.cls-1{fill:#00e7ff;}.cls-2{fill:#848484;}.cls-3{fill:#ea3457;}</style></defs><title>iphone_game_development</title><path d="M47.16,100.16h-40A7.18,7.18,0,0,1,0,93V7.17A7.18,7.18,0,0,1,7.17,0h40a7.18,7.18,0,0,1,7.17,7.17v3.67a1.31,1.31,0,1,1-2.62,0V7.17a4.55,4.55,0,0,0-4.55-4.55h-40A4.55,4.55,0,0,0,2.62,7.17V93a4.55,4.55,0,0,0,4.55,4.55h40A4.55,4.55,0,0,0,51.71,93V23.51a1.31,1.31,0,1,1,2.62,0V93A7.18,7.18,0,0,1,47.16,100.16Z"/><rect class="cls-1" x="7.43" y="9.61" width="39.38" height="69.8"/><path d="M46.8,80.73H7.43a1.31,1.31,0,0,1-1.31-1.31V9.61A1.31,1.31,0,0,1,7.43,8.3H46.8a1.31,1.31,0,0,1,1.31,1.31v69.8A1.31,1.31,0,0,1,46.8,80.73ZM8.74,78.11H45.49V10.92H8.74Z"/><circle class="cls-2" cx="27.12" cy="88.37" r="4.89"/><path class="cls-2" d="M76.93,55.87c3.27,2.54,10.76,17.54,15.35,16.32,5.19-1.38,6.44-13.46,2.79-27s-5.81-24-11.64-25.73c-2.24-.66-6.8-2-11.63.85s-20.11,2.87-24.94,0-9.39-1.51-11.63-.85c-5.82,1.72-8,12.2-11.64,25.73s-2.4,25.61,2.79,27C31,73.41,38.47,58.41,41.74,55.87,44,54.11,50.46,53.94,54.69,54h11C69.74,54,74.94,54.33,76.93,55.87Z"/><path d="M92.25,73.57c-3.64,0-7.52-5.6-11.27-11-1.65-2.39-3.36-4.87-4.33-5.62h0c-.76-.59-3.13-1.58-10.49-1.61H55.21c-8.62-.11-11.31,1-12.14,1.6s-2.68,3.23-4.33,5.62c-4.06,5.88-8.26,12-12.16,10.92a6.19,6.19,0,0,1-3.73-3.12C20,65.41,20,55.41,22.86,44.86q.56-2.09,1.09-4.07C27.14,28.7,29.46,20,35.39,18.21c2.4-.71,7.35-2.18,12.67,1,4.41,2.62,19.19,2.62,23.6,0C77,16,81.93,17.5,84.32,18.21,90.26,20,92.57,28.7,95.77,40.78q.53,2,1.09,4.07c2.85,10.55,2.85,20.55,0,25.47a6.19,6.19,0,0,1-3.73,3.12A3.46,3.46,0,0,1,92.25,73.57ZM41,19.87a16.75,16.75,0,0,0-4.88.85c-4.53,1.34-6.8,9.9-9.67,20.73q-.53,2-1.09,4.08C22.75,55.3,22.64,64.73,25.12,69a3.69,3.69,0,0,0,2.13,1.9c.37.1,1.48,0,3.88-2.62A74.88,74.88,0,0,0,36.58,61c2-2.91,3.59-5.2,4.88-6.21,2-1.55,6.5-2.25,13.77-2.15H66.16c6.3,0,10.25.74,12.09,2.16,1.29,1,2.88,3.3,4.89,6.21a74.84,74.84,0,0,0,5.45,7.26C91,71,92.1,71,92.47,70.92A3.69,3.69,0,0,0,94.6,69c2.47-4.28,2.37-13.72-.27-23.48q-.57-2.09-1.09-4.08c-2.87-10.83-5.14-19.39-9.65-20.73-2.19-.65-6.26-1.85-10.59.72-5.28,3.13-21,3.13-26.28,0A11,11,0,0,0,41,19.87Z"/><rect class="cls-3" x="39.64" y="29.3" width="3.58" height="14.32"/><rect class="cls-3" x="34.27" y="34.67" width="14.32" height="3.58"/><circle class="cls-1" cx="76.34" cy="37.36" r="6.26"/><path d="M44.62,45.19H38.95V39.82H33.58V34.15h5.37V28.78h5.68v5.37H50v5.68H44.62ZM41,43.1h1.48V37.73h5.37V36.24H42.52V30.87H41v5.37H35.67v1.48H41Z"/><path d="M76.69,45.19A7.31,7.31,0,1,1,84,37.88,7.32,7.32,0,0,1,76.69,45.19Zm0-12.53a5.22,5.22,0,1,0,5.22,5.22A5.22,5.22,0,0,0,76.69,32.66Z"/></svg>