<svg id="Layer_1" data-name="Layer 1" xmlns="http://www.w3.org/2000/svg" viewBox="0 0 74.17 99.95"><defs><style>.cls-1{fill:#f66232;}.cls-2{fill:#ffb3a1;}.cls-3{fill:#fff;}.cls-4{fill:#fff2f0;}</style></defs><title>iphone_UI_UX_design</title><path class="cls-1" d="M69.05,99H5.11A4.13,4.13,0,0,1,1,94.84V5.11A4.13,4.13,0,0,1,5.11,1H69.05a4.13,4.13,0,0,1,4.13,4.13V94.84A4.13,4.13,0,0,1,69.05,99Z"/><rect class="cls-2" x="7.17" y="14.91" width="59.82" height="70.13"/><circle class="cls-3" cx="37.08" cy="92" r="3.09"/><path d="M32.44,92a4.64,4.64,0,1,0,4.64-4.64A4.65,4.65,0,0,0,32.44,92Zm6.19,0a1.55,1.55,0,1,1-1.55-1.55A1.55,1.55,0,0,1,38.63,92Z"/><path d="M68,86H6.19V13.92H68Zm-59.82-2H66V15.9H8.16Z"/><line class="cls-3" x1="25.11" y1="7.27" x2="29.32" y2="7.27"/><path d="M29.32,8.26H25.11a1,1,0,1,1,0-2h4.21a1,1,0,0,1,0,2Z"/><line class="cls-3" x1="33.73" y1="7.27" x2="49.06" y2="7.27"/><path d="M49.06,8.26H33.73a1,1,0,0,1,0-2H49.06a1,1,0,0,1,0,2Z"/><path d="M73.18,74.53a1,1,0,0,1-1-1V68.79a1,1,0,0,1,2,0v4.75A1,1,0,0,1,73.18,74.53Z"/><path d="M69.72,99.95H4.44A4.45,4.45,0,0,1,0,95.51V4.44A4.45,4.45,0,0,1,4.44,0H69.72a4.45,4.45,0,0,1,4.44,4.44V64.91a1,1,0,0,1-2,0V4.44A2.47,2.47,0,0,0,69.72,2H4.44A2.47,2.47,0,0,0,2,4.44V95.51A2.47,2.47,0,0,0,4.44,98H69.72a2.47,2.47,0,0,0,2.47-2.47V78.86a1,1,0,0,1,2,0V95.51A4.45,4.45,0,0,1,69.72,99.95Z"/><path class="cls-4" d="M62.09,41.68a1,1,0,0,1-1-1V19.58a1,1,0,0,1,2,0V40.7A1,1,0,0,1,62.09,41.68Z"/><path class="cls-4" d="M62.09,47.47a1,1,0,0,1-1-1v-3a1,1,0,0,1,2,0v3A1,1,0,0,1,62.09,47.47Z"/></svg>