<svg id="Layer_1" data-name="Layer 1" xmlns="http://www.w3.org/2000/svg" viewBox="0 0 61.43 100"><defs><style>.cls-1{fill:#525f7f;}.cls-2{fill:#fcfcfc;}.cls-3{fill:#fff;}.cls-4{fill:#ccd0d3;}</style></defs><title>iPhone_ecommerce_apps</title><path class="cls-1" d="M54.79,98.93H6.64a5.57,5.57,0,0,1-5.57-5.57V6.75A5.57,5.57,0,0,1,6.64,1.18H54.79a5.57,5.57,0,0,1,5.57,5.57V93.36A5.57,5.57,0,0,1,54.79,98.93Z"/><path class="cls-1" d="M54.79,98.93h-3a5.55,5.55,0,0,0,.39-2V10.28A5.57,5.57,0,0,0,46.56,4.7H1.46A5.57,5.57,0,0,1,6.64,1.18H54.79a5.57,5.57,0,0,1,5.57,5.57V93.36A5.57,5.57,0,0,1,54.79,98.93Z"/><rect class="cls-2" x="6.47" y="11.17" width="48.68" height="74.21" rx="1.07" ry="1.07"/><path class="cls-2" d="M54.08,11.17H46.49V80.82a1.07,1.07,0,0,1-1.07,1.07h-39v2.41a1.07,1.07,0,0,0,1.07,1.07H54.08a1.07,1.07,0,0,0,1.07-1.07V12.23A1.07,1.07,0,0,0,54.08,11.17Z"/><circle class="cls-3" cx="30.71" cy="92.49" r="2.99"/><path d="M26.29,92.49a4.42,4.42,0,1,0,4.42-4.42A4.43,4.43,0,0,0,26.29,92.49Zm6,0a1.56,1.56,0,1,1-1.56-1.56A1.56,1.56,0,0,1,32.27,92.49Z"/><path d="M53.36,86.23H8.25a2.64,2.64,0,0,1-2.64-2.64V12.95a2.64,2.64,0,0,1,2.64-2.64H53.36A2.64,2.64,0,0,1,56,12.95V83.59A2.64,2.64,0,0,1,53.36,86.23ZM8.25,12a.93.93,0,0,0-.93.93V83.59a.93.93,0,0,0,.93.93H53.36a.93.93,0,0,0,.93-.93V12.95a.93.93,0,0,0-.93-.93Z"/><path d="M1.07,27.94A1.07,1.07,0,0,1,0,26.87V23.66a1.07,1.07,0,1,1,2.14,0v3.21A1.07,1.07,0,0,1,1.07,27.94Z"/><path d="M54.63,100H6.8A6.81,6.81,0,0,1,0,93.2V32.33a1.07,1.07,0,1,1,2.14,0V93.2A4.67,4.67,0,0,0,6.8,97.86H54.63a4.67,4.67,0,0,0,4.66-4.66V6.8a4.67,4.67,0,0,0-4.66-4.66H6.8A4.67,4.67,0,0,0,2.14,6.8V18.21a1.07,1.07,0,1,1-2.14,0V6.8A6.81,6.81,0,0,1,6.8,0H54.63a6.81,6.81,0,0,1,6.8,6.8V93.2A6.81,6.81,0,0,1,54.63,100Z"/><path class="cls-4" d="M30.36,39a3.42,3.42,0,0,1,.2-1.69,5.45,5.45,0,0,1,3.23-3.19,5.18,5.18,0,0,1,1.76-.4C36,36.26,33.24,39.24,30.36,39Z"/><path class="cls-4" d="M24.25,55.61a8.27,8.27,0,0,0,1.49,1.65,2.51,2.51,0,0,0,2.41.46c.45-.13.88-.33,1.31-.51a4.46,4.46,0,0,1,2.26-.3,5.26,5.26,0,0,1,1.56.51,3.9,3.9,0,0,0,1.58.41,3,3,0,0,0,2.29-1.1,13.69,13.69,0,0,0,2.13-3.15c.33-.67.59-1.37.89-2a5.36,5.36,0,0,1-.65-9.41L39.43,42a5.38,5.38,0,0,0-5.91-2c-.68.21-1.34.48-2,.74a1.81,1.81,0,0,1-1.37,0l-1.29-.51a4.58,4.58,0,0,0-3-.23,5.77,5.77,0,0,0-3.94,3.51,9.31,9.31,0,0,0-.54,5,15.58,15.58,0,0,0,.73,3.12"/><path d="M22.65,52.93q.31.67.69,1.32"/></svg>