<svg id="Layer_1" data-name="Layer 1" xmlns="http://www.w3.org/2000/svg" viewBox="0 0 61.58 100.25"><defs><style>.cls-1{fill:#525f7f;}.cls-2{fill:#fcfcfc;}.cls-3{fill:#fff;}.cls-4{fill:#ccd0d3;}</style></defs><title>iphone</title><path class="cls-1" d="M54.92,99.18H6.66a5.59,5.59,0,0,1-5.59-5.59V6.77A5.59,5.59,0,0,1,6.66,1.18H54.92a5.59,5.59,0,0,1,5.59,5.59V93.59A5.59,5.59,0,0,1,54.92,99.18Z"/><path class="cls-1" d="M54.92,99.18h-3a5.57,5.57,0,0,0,.39-2.05V10.3a5.59,5.59,0,0,0-5.59-5.59H1.46a5.59,5.59,0,0,1,5.2-3.53H54.92a5.59,5.59,0,0,1,5.59,5.59V93.59A5.59,5.59,0,0,1,54.92,99.18Z"/><rect class="cls-2" x="6.48" y="11.19" width="48.8" height="74.4" rx="1.07" ry="1.07"/><path class="cls-2" d="M54.21,11.19h-7.6V81a1.07,1.07,0,0,1-1.07,1.07H6.48v2.42a1.07,1.07,0,0,0,1.07,1.07H54.21a1.07,1.07,0,0,0,1.07-1.07V12.27A1.07,1.07,0,0,0,54.21,11.19Z"/><circle class="cls-3" cx="30.79" cy="92.72" r="3"/><path d="M26.36,92.72a4.43,4.43,0,1,0,4.43-4.43A4.44,4.44,0,0,0,26.36,92.72Zm6,0a1.56,1.56,0,1,1-1.56-1.56A1.56,1.56,0,0,1,32.35,92.72Z"/><path d="M53.5,86.45H8.27A2.65,2.65,0,0,1,5.62,83.8V13a2.65,2.65,0,0,1,2.64-2.64H53.5A2.65,2.65,0,0,1,56.14,13V83.8A2.65,2.65,0,0,1,53.5,86.45ZM8.27,12.05a.93.93,0,0,0-.93.93V83.8a.93.93,0,0,0,.93.93H53.5a.93.93,0,0,0,.93-.93V13a.93.93,0,0,0-.93-.93Z"/><path d="M1.07,28A1.07,1.07,0,0,1,0,26.94V23.72a1.07,1.07,0,0,1,2.15,0v3.22A1.07,1.07,0,0,1,1.07,28Z"/><path d="M54.76,100.25H6.82A6.83,6.83,0,0,1,0,93.43v-61a1.07,1.07,0,0,1,2.15,0v61a4.68,4.68,0,0,0,4.67,4.67H54.76a4.68,4.68,0,0,0,4.67-4.67V6.82a4.68,4.68,0,0,0-4.67-4.67H6.82A4.68,4.68,0,0,0,2.15,6.82V18.25a1.07,1.07,0,1,1-2.15,0V6.82A6.83,6.83,0,0,1,6.82,0H54.76a6.83,6.83,0,0,1,6.82,6.82V93.43A6.83,6.83,0,0,1,54.76,100.25Z"/><path class="cls-4" d="M30.43,39.09a3.43,3.43,0,0,1,.21-1.69,5.47,5.47,0,0,1,3.24-3.2,5.19,5.19,0,0,1,1.77-.41C36.07,36.35,33.33,39.34,30.43,39.09Z"/><path class="cls-4" d="M24.31,55.75a8.29,8.29,0,0,0,1.49,1.65,2.52,2.52,0,0,0,2.42.46c.45-.13.88-.33,1.31-.51a4.47,4.47,0,0,1,2.26-.3,5.27,5.27,0,0,1,1.56.51,3.91,3.91,0,0,0,1.59.41,3,3,0,0,0,2.29-1.1,13.72,13.72,0,0,0,2.14-3.15c.33-.67.6-1.37.89-2.05a5.38,5.38,0,0,1-.66-9.43l-.07-.11a5.39,5.39,0,0,0-5.92-2c-.68.21-1.35.48-2,.74a1.81,1.81,0,0,1-1.38,0l-1.3-.51a4.59,4.59,0,0,0-3-.23,5.78,5.78,0,0,0-4,3.52,9.34,9.34,0,0,0-.54,5,15.62,15.62,0,0,0,.73,3.12"/><path d="M22.71,53.07q.31.68.7,1.33"/></svg>