<svg id="Layer_1" data-name="Layer 1" xmlns="http://www.w3.org/2000/svg" viewBox="0 0 98.53 100"><defs><style>.cls-1{fill:#f7f7f7;}.cls-2{fill:#ddd;}.cls-3{fill:#b9b9b9;}.cls-4{fill:#fade76;}.cls-5{fill:#a8a8a8;}</style></defs><title>JavaScript Web Development</title><polyline class="cls-1" points="22.03 13.44 22.03 1.36 77.49 1.36 97.29 21.17 97.29 98.76 22.03 98.76 22.03 45.13"/><polyline class="cls-2" points="35.02 13.44 35.02 1.36 77.49 1.36 97.29 21.17 97.29 98.76 35.02 98.76 35.02 45.13"/><path class="cls-3" d="M95.56,22.9H76.71V3.09Zm0,0"/><path d="M98.45,24.14h-23V0ZM78,21.66H92.68L78,6.19Z"/><path class="cls-4" d="M44.6,17.37V41.16a4,4,0,0,1-4,3.95H5.19a4,4,0,0,1-4-3.95V17.37a4,4,0,0,1,4-4H40.65a4,4,0,0,1,4,4Zm0,0"/><path d="M31.75,62.94H71.36a2,2,0,1,0,0-4H31.75a2,2,0,0,0,0,4Zm0,0"/><path d="M59.48,66.9H31.75a2,2,0,0,0,0,4H59.48a2,2,0,1,0,0-4Zm0,0"/><path d="M59.48,74.82H31.75a2,2,0,0,0,0,4H59.48a2,2,0,1,0,0-4Zm0,0"/><path d="M71.36,82.72H31.75a2,2,0,1,0,0,4H71.36a2,2,0,1,0,0-4Zm0,0"/><path d="M16.88,19.37a2,2,0,0,0-2,2V33.26A2,2,0,0,1,13,35.21h-.06a2,2,0,0,1-1.95-1.95,2,2,0,1,0-4,0,5.92,5.92,0,0,0,5.91,5.91H13a5.92,5.92,0,0,0,5.91-5.91V21.35a2,2,0,0,0-2-2Zm0,0"/><path d="M35.5,33.2c0-3-2.31-6-6.73-6a1.93,1.93,0,1,1,0-3.86h2.59a2,2,0,0,0,3.94-.26V21.37a2,2,0,0,0-2-2H28.77a5.73,5.73,0,0,0-5.94,5.89,5.73,5.73,0,0,0,5.94,5.89c2,0,2.77,1.09,2.77,2s-.73,2-2.77,2h-2a2,2,0,0,0-4,0v1.93a2,2,0,0,0,2,2h4c4.42,0,6.73-3,6.73-6Zm0,0"/><path d="M40.65,46.35H5.19A5.19,5.19,0,0,1,0,41.16v-4a1.24,1.24,0,0,1,2.47,0v4a2.72,2.72,0,0,0,2.71,2.71H40.65a2.72,2.72,0,0,0,2.71-2.71V17.37a2.72,2.72,0,0,0-2.71-2.71H5.19a2.72,2.72,0,0,0-2.71,2.71V30A1.24,1.24,0,1,1,0,30V17.37a5.19,5.19,0,0,1,5.19-5.19H40.65a5.19,5.19,0,0,1,5.19,5.19V41.16A5.19,5.19,0,0,1,40.65,46.35Z"/><rect x="20.8" y="46.36" width="2.47" height="6.56"/><path d="M98.53,100H20.8V57.75a1.24,1.24,0,0,1,2.47,0V97.53H96.06V21.68L77,2.6H23.27V12a1.24,1.24,0,0,1-2.47,0V.13H78L98.53,20.65Z"/><path class="cls-5" d="M92.24,54.69a1.08,1.08,0,0,1-1.08-1.08V33a1.08,1.08,0,0,1,2.16,0V53.6A1.08,1.08,0,0,1,92.24,54.69Z"/><path class="cls-5" d="M92.24,62A1.08,1.08,0,0,1,91.16,61V57a1.08,1.08,0,1,1,2.16,0V61A1.08,1.08,0,0,1,92.24,62Z"/></svg>