<svg id="Layer_1" data-name="Layer 1" xmlns="http://www.w3.org/2000/svg" viewBox="0 0 99.39 100.03"><defs><style>.cls-1{fill:#ef7d00;}.cls-2{fill:#b25a02;}.cls-3{fill:#fff;}.cls-4{fill:none;}</style></defs><title>java_script</title><path class="cls-1" d="M94.32,1.61H5A3.16,3.16,0,0,0,1.82,4.82V95A3.16,3.16,0,0,0,5,98.22H94.32A3.16,3.16,0,0,0,97.5,95V4.82A3.16,3.16,0,0,0,94.32,1.61Z"/><path class="cls-2" d="M97.5,4.82V95a3.16,3.16,0,0,1-3.18,3.21H49.66V1.61H94.32A3.16,3.16,0,0,1,97.5,4.82Z"/><path d="M94.32,99.83H5A4.74,4.74,0,0,1,.22,95V4.82A4.74,4.74,0,0,1,5,0H94.32A4.74,4.74,0,0,1,99.1,4.82V74.09a1.6,1.6,0,0,1-3.21,0V4.82a1.55,1.55,0,0,0-1.57-1.6H5a1.55,1.55,0,0,0-1.57,1.6V95A1.55,1.55,0,0,0,5,96.62H94.32A1.55,1.55,0,0,0,95.9,95V86.8a1.6,1.6,0,0,1,3.21,0V95A4.74,4.74,0,0,1,94.32,99.83Z"/><path class="cls-3" d="M42.88,59.27c0,10-5.59,16.18-14.6,16.18-5.65,0-10.71-2.84-14.23-8a5,5,0,1,1,8.25-5.64c1.65,2.41,3.66,3.63,6,3.63,1.83,0,4.6,0,4.6-6.18V33.83H19.23a5,5,0,1,1,0-10H37.88a5,5,0,0,1,5,5Z"/><path class="cls-3" d="M67.44,76.36A25.21,25.21,0,0,1,49.6,69a5,5,0,0,1,7.26-6.87,15.35,15.35,0,0,0,10.58,4.25c4,0,8.71-1.17,8.71-4.48,0-3.11-1.63-4.28-9.33-6.61-6.8-2.06-17.06-5.17-17.06-17,0-8.84,7.67-14.79,19.08-14.79a28.05,28.05,0,0,1,14.46,4,5,5,0,0,1-5.43,8.4,18.34,18.34,0,0,0-9-2.42c-4.19,0-9.09,1.25-9.09,4.79,0,3.84,2.25,5.1,10,7.44,6.58,2,16.53,5,16.43,16.22,0,8.62-7.52,14.43-18.7,14.43Z"/><g id="_Slice_" data-name="&lt;Slice&gt;"><rect class="cls-4" width="99.39" height="100.03"/></g></svg>