<svg id="Layer_1" data-name="Layer 1" xmlns="http://www.w3.org/2000/svg" viewBox="0 0 100.88 99.75"><defs><style>.cls-1{fill:#d68441;}</style></defs><title>joomla_development</title><path class="cls-1" d="M89.09,77.61a10.17,10.17,0,0,1,6.6,4.84A9.93,9.93,0,0,1,97,88.94a10.25,10.25,0,0,1-20.16,1c-8.39,2.64-15.59.66-21.72-5.56l9.29-9.23a13,13,0,0,0,.92,1,7.09,7.09,0,0,0,11.88-4.27,6.69,6.69,0,0,0-2-5.87Q67.87,58.52,60.41,51.1L55.34,46l-.16-.17,9.19-9.18,2,2.06q8.86,8.86,17.73,17.72a20.14,20.14,0,0,1,5.08,20.74Z" transform="translate(0 0)"/><path class="cls-1" d="M9.85,77.23c-2.47-8.37-.69-15.61,5.55-21.72l9.19,9.24c-.27.26-.6.55-.9.88A6.84,6.84,0,0,0,22,72.73a6.72,6.72,0,0,0,5.46,4.83,6.88,6.88,0,0,0,6.42-2l19.7-19.7a2.68,2.68,0,0,0,.23-.3l9.24,9.25c-.24.22-.54.47-.81.74Q52.63,75.15,43,84.8a19.7,19.7,0,0,1-11.53,5.69,19.16,19.16,0,0,1-8.69-.84l-.52-.16h-.09a10.18,10.18,0,0,1-5,6.67,9.93,9.93,0,0,1-6.35,1.22,10.25,10.25,0,0,1-.93-20.16Z" transform="translate(0 0)"/><path class="cls-1" d="M37.85,35.73l2.67-2.65L57.73,15.87a19.64,19.64,0,0,1,11.78-5.68,20.23,20.23,0,0,1,8.82.87l.36.11A10.21,10.21,0,0,1,84.6,3.9a9.86,9.86,0,0,1,6.27-.66,10.21,10.21,0,0,1,8,8.83,10,10,0,0,1-1.82,7.1A10.15,10.15,0,0,1,91,23.25c2.49,8.38.68,15.63-5.54,21.74L76.3,35.81c.4-.42.85-.86,1.25-1.34a7.08,7.08,0,0,0-1.19-10.19,7.44,7.44,0,0,0-5.14-1.21,7.33,7.33,0,0,0-4.65,2.31q-9.62,9.69-19.3,19.32c-.09.09-.16.19-.23.27Z" transform="translate(0 0)"/><path class="cls-1" d="M24.44,10C32.74,7.57,40,9.22,46.11,15.36L36.86,24.6c-.1-.12-.24-.3-.4-.48a7.09,7.09,0,0,0-5.82-2.24,6.57,6.57,0,0,0-6.36,4.79,6.86,6.86,0,0,0,1.79,7.17q9.86,9.91,19.78,19.77a3.1,3.1,0,0,0,.27.22l-9.23,9.22c-.23-.25-.51-.55-.79-.84Q26.55,52.68,17,43.14a19.76,19.76,0,0,1-5.66-10.72A20.11,20.11,0,0,1,12,22.59l.11-.36a.32.32,0,0,0,0-.09,10.19,10.19,0,0,1-6.67-5,9.92,9.92,0,0,1-1.22-6.39A10.25,10.25,0,0,1,24.44,10Z" transform="translate(0 0)"/><path d="M86.83,99.75a12.11,12.11,0,0,1-11.22-7.54c-8.22,2-15.56-.18-21.82-6.54l-1.32-1.34,12-12,1.33,1.49.3.35a5.92,5.92,0,0,0,.49.54A4.92,4.92,0,0,0,72,75.85a4.86,4.86,0,0,0,3.4-4.25,4.79,4.79,0,0,0-1.42-4.28c-3.58-3.61-7.24-7.26-10.77-10.79L54,47.37l-.19-.2-1.24-1.33,1.27-1.31L64.38,34l2,2,1.41,1.42,4.74,4.74c4.25,4.26,8.65,8.66,13,13a22,22,0,0,1,6,21.26,12.14,12.14,0,0,1,7.46,12.81A12.13,12.13,0,0,1,88.25,99.67,12.32,12.32,0,0,1,86.83,99.75ZM78.24,87.48l.46,2a8.45,8.45,0,0,0,9.12,6.44,8.35,8.35,0,0,0,7.32-7.22,8,8,0,0,0-1.07-5.29,8.29,8.29,0,0,0-5.43-4l-2-.49.75-2.33A18.37,18.37,0,0,0,88,67.58a18,18,0,0,0-5.24-9.77c-4.34-4.32-8.74-8.72-13-13l-4.74-4.74-.71-.72-6.51,6.5,8,8C69.37,57.39,73,61,76.61,64.66a8.56,8.56,0,0,1,2.48,7.46,8.67,8.67,0,0,1-5.87,7.29,8.57,8.57,0,0,1-8.84-1.61L57.85,84.3c5.38,4.75,11.43,6,18.44,3.79Z" transform="translate(0 0)"/><path d="M12.21,99.37a12.71,12.71,0,0,1-1.67-.11A12.16,12.16,0,0,1,7.57,76c-1.92-8.35.27-15.68,6.52-21.8l1.34-1.31L27.29,64.77,25.91,66.1l-.28.27c-.19.18-.38.36-.54.53a5,5,0,0,0-1.24,5.25,4.84,4.84,0,0,0,4,3.54,5,5,0,0,0,4.74-1.53L39,67.76,52.23,54.52h0l.11-.15,1.31-1.72L65.83,64.82l-1.46,1.33-.26.23c-.16.14-.33.29-.49.45l-6.83,6.83Q50.55,79.9,44.3,86.14a21.62,21.62,0,0,1-12.61,6.22,20.91,20.91,0,0,1-8.32-.56,11.88,11.88,0,0,1-5.3,6A11.72,11.72,0,0,1,12.21,99.37Zm3.23-41.16c-4.64,5.27-5.87,11.33-3.77,18.48l.58,2-2,.42A8.36,8.36,0,0,0,11,95.52a8.1,8.1,0,0,0,5.17-1A8.27,8.27,0,0,0,20.31,89l.31-1.26,1.25-.15a2,2,0,0,1,.9,0l.57.18a17.37,17.37,0,0,0,7.84.77,17.92,17.92,0,0,0,10.46-5.16L54.12,71l6.27-6.27-6.5-6.51L41.66,70.43l-6.41,6.41a8.77,8.77,0,0,1-8.1,2.57,9,9,0,0,1-5.21-14.66Z" transform="translate(0 0)"/><path d="M47.17,47.78l-12-12.06,2.14-2.13,1.87-1.86,3.18-3.18,14-14A21.59,21.59,0,0,1,69.28,8.31a22,22,0,0,1,8.17.52,11.86,11.86,0,0,1,6.37-6.65,11.72,11.72,0,0,1,7.45-.78,12.1,12.1,0,0,1,9.53,10.47,11.84,11.84,0,0,1-2.16,8.41A11.86,11.86,0,0,1,93.3,24.5c1.94,8.36-.24,15.7-6.5,21.84l-1.34,1.31L73.66,35.85l1.26-1.33.4-.42c.27-.28.55-.57.79-.85a5.12,5.12,0,0,0,1.14-4,4.93,4.93,0,0,0-2-3.44,5.59,5.59,0,0,0-3.88-.87,5.45,5.45,0,0,0-3.49,1.76c-4.63,4.67-9.36,9.39-13.94,14L48.63,46l0,0-.1.12Zm31.76-12,6.52,6.52c4.65-5.29,5.88-11.36,3.77-18.5l-.56-1.9,1.93-.47a8.23,8.23,0,0,0,5-3.33A8.06,8.06,0,0,0,97,12.29a8.32,8.32,0,0,0-6.56-7.2,8,8,0,0,0-5.1.53,8.33,8.33,0,0,0-4.85,6l-.47,2-2.3-.71a18.47,18.47,0,0,0-8-.79A17.66,17.66,0,0,0,59.07,17.2l-14,14-3.18,3.18-1.33,1.33L47,42.27,51.3,38c4.57-4.57,9.3-9.29,13.93-14A9.14,9.14,0,0,1,71,21.19a9.32,9.32,0,0,1,6.4,1.55A8.71,8.71,0,0,1,81,28.8a8.91,8.91,0,0,1-2,6.9Z" transform="translate(0 0)"/><path d="M36.84,65.77,35.27,64.1l-.52-.55L31,59.82,15.68,44.48A21.7,21.7,0,0,1,9.5,32.76a21.94,21.94,0,0,1,.35-9.38,11.89,11.89,0,0,1-6-5.3A11.78,11.78,0,0,1,2.38,10.5,12.15,12.15,0,0,1,12.94.09a12.3,12.3,0,0,1,12.8,7.61c8.35-1.88,15.64.24,21.71,6.34l1.33,1.34-12,12L35.3,25.68l-.23-.27a5.21,5.21,0,0,0-4.35-1.63,4.7,4.7,0,0,0-4.62,3.43,5,5,0,0,0,1.31,5.31c4.89,4.91,9.88,9.9,14.71,14.71l5.07,5,.12.09,1.63,1.32ZM14,21.87a2,2,0,0,1,0,.89l-.13.4a18.32,18.32,0,0,0-.62,8.93,18,18,0,0,0,5.13,9.71L33.69,57.14l3.22,3.22,6.51-6.5-4-4c-4.83-4.82-9.82-9.8-14.72-14.72a8.7,8.7,0,0,1-2.26-9A8.5,8.5,0,0,1,30.56,20a9.1,9.1,0,0,1,6.3,1.92l6.53-6.52C38.16,10.9,32.11,9.72,25,11.79l-2,.58-.39-2A8.37,8.37,0,0,0,6.12,11a8.08,8.08,0,0,0,1,5.2,8.28,8.28,0,0,0,5.48,4.1l1.26.31ZM47.18,52.28h0Z" transform="translate(0 0)"/></svg>