<svg id="Layer_1" data-name="Layer 1" xmlns="http://www.w3.org/2000/svg" viewBox="0 0 100.17 99.95"><defs><style>.cls-1{fill:#0cd9ef;}.cls-2{fill:#59f4fc;}.cls-3{fill:none;}</style></defs><title>jquery</title><path class="cls-1" d="M13.54,16.47c-.57,3.43-1.37,7.07-1.76,10.76a43.18,43.18,0,0,0,3.66,22.55c8.27,18.38,22.36,29.88,42.07,34.06,13.62,2.89,26.21-.05,37.56-8.15L96,75c0,.16.11.29.08.34-2.92,4.86-5.78,9.75-10.13,13.55a36.63,36.63,0,0,1-20.24,9c-18.42,2.11-34.28-3.72-47.64-16.3A50.24,50.24,0,0,1,2.76,55.23C.89,46.42,1,37.65,5.12,29.45c2.06-4.07,4.92-7.75,7.42-11.6C12.9,17.29,13.32,16.77,13.54,16.47Z"/><path d="M58.44,100C43,100,29.09,94.2,17,82.81A51.81,51.81,0,0,1,1.25,55.55C-1,45.17-.14,36.4,3.74,28.75a73.28,73.28,0,0,1,5.17-8.28c.78-1.13,1.58-2.3,2.34-3.46.29-.45.61-.87.84-1.17l.2-.27a1.55,1.55,0,0,1,2.78,1.16c-.18,1.07-.38,2.17-.58,3.24-.44,2.42-.9,4.93-1.17,7.43a41.61,41.61,0,0,0,3.53,21.75c8.09,18,21.88,29.13,41,33.18l.75.16c5.73,1.22,7.27,1.55,13,.71A1.55,1.55,0,0,1,72,86.25c-6.29.92-8.26.5-14.1-.74l-.75-.16C37.06,81.08,22.54,69.33,14,50.42a44.66,44.66,0,0,1-3.78-23.35c.14-1.3.32-2.58.53-3.85A62.67,62.67,0,0,0,6.5,30.15c-3.54,7-4.27,15.1-2.22,24.76A48.78,48.78,0,0,0,19.11,80.56C32.43,93.1,48,98.45,65.52,96.45a35.15,35.15,0,0,0,19.4-8.68,37,37,0,0,0,6.6-7.95A49.81,49.81,0,0,1,80.19,84.7a1.55,1.55,0,1,1-.85-3,48.73,48.73,0,0,0,14.84-7.29l.6-.42.32-.23a1.55,1.55,0,0,1,2.39.89v0a1.71,1.71,0,0,1-.11,1.48l-.33.56c-2.82,4.7-5.74,9.55-10.1,13.36a38.18,38.18,0,0,1-21.08,9.42A65.33,65.33,0,0,1,58.44,100Zm36.3-25.36h0Z"/><path class="cls-1" d="M36.58,8c-.41,2.47-1,5.1-1.27,7.75A31.13,31.13,0,0,0,37.95,32c6,13.25,16.11,21.54,30.33,24.55,9.82,2.08,18.89,0,27.08-5.87l.66-.47c0,.12.08.21.05.25-2.11,3.5-4.17,7-7.3,9.76a26.4,26.4,0,0,1-14.59,6.52C60.9,68.31,49.46,64.11,39.83,55A36.22,36.22,0,0,1,28.81,36c-1.35-6.35-1.3-12.67,1.7-18.58A92.47,92.47,0,0,1,35.86,9C36.12,8.63,36.42,8.25,36.58,8Z"/><path d="M68.94,68.64c-11.23,0-21.36-4.18-30.16-12.47A37.77,37.77,0,0,1,27.3,36.3c-1.61-7.58-1-14,1.83-19.6a53.14,53.14,0,0,1,3.76-6C33.45,9.86,34,9,34.57,8.19c.22-.34.45-.64.62-.87l.14-.19a1.55,1.55,0,0,1,2.78,1.16c-.13.77-.28,1.57-.42,2.34-.32,1.74-.65,3.54-.84,5.32a29.57,29.57,0,0,0,2.51,15.46c6.38,14.17,19.37,23.7,33.09,24.27a1.55,1.55,0,0,1-.13,3.09,38.17,38.17,0,0,1-21.71-8.18,47.65,47.65,0,0,1-14.07-17.9,32.62,32.62,0,0,1-2.76-17.05q0-.46.11-.91a34.85,34.85,0,0,0-2,3.38c-2.51,5-3,10.7-1.56,17.56A34.73,34.73,0,0,0,40.89,53.92c9.51,9,20.64,12.77,33.11,11.34A24.91,24.91,0,0,0,87.75,59.1a23.52,23.52,0,0,0,3.68-4.16,35.71,35.71,0,0,1-6.68,2.68,1.55,1.55,0,1,1-.85-3,34.7,34.7,0,0,0,10.56-5.19l.43-.3.24-.17a1.55,1.55,0,0,1,2.39.88,1.65,1.65,0,0,1-.12,1.43l-.24.4c-2.05,3.41-4.17,6.94-7.37,9.73a27.94,27.94,0,0,1-15.43,6.89A47.57,47.57,0,0,1,68.94,68.64ZM97.52,49.9h0Z"/><path class="cls-1" d="M59,2.11c-.27,1.64-.65,3.38-.84,5.15A20.66,20.66,0,0,0,59.94,18,27.25,27.25,0,0,0,80.07,34.33a22,22,0,0,0,18-3.9l.44-.31c0,.08.05.14,0,.16a25.79,25.79,0,0,1-4.84,6.48A17.52,17.52,0,0,1,84,41.1c-8.81,1-16.4-1.78-22.79-7.8a24,24,0,0,1-7.31-12.65C53,16.43,53,12.24,55,8.32a61.37,61.37,0,0,1,3.55-5.55C58.73,2.5,58.93,2.25,59,2.11Z"/><path d="M80.5,42.85c-7.59,0-14.42-2.82-20.37-8.42A25.57,25.57,0,0,1,52.37,21c-1.09-5.15-.68-9.52,1.26-13.35a35.66,35.66,0,0,1,2.53-4.05c.37-.54.75-1.09,1.11-1.64.15-.24.32-.45.43-.61l.09-.12a1.55,1.55,0,0,1,2.78,1.16c-.09.51-.18,1-.28,1.56-.21,1.14-.43,2.33-.55,3.49a19.11,19.11,0,0,0,1.62,10C65.32,26.23,71.64,31,81.84,33a1.55,1.55,0,0,1-.59,3A32.37,32.37,0,0,1,67,30a29.16,29.16,0,0,1-8.51-11.31,22.2,22.2,0,0,1-2-10l-.16.3c-1.61,3.18-1.93,6.88-1,11.31a22.54,22.54,0,0,0,6.86,11.85C68.45,38,75.7,40.49,83.81,39.57a16,16,0,0,0,8.84-4,12.67,12.67,0,0,0,1-1,23.49,23.49,0,0,1-2.49.87,1.55,1.55,0,1,1-.85-3,22.51,22.51,0,0,0,6.85-3.37l.31-.22.14-.1a1.55,1.55,0,0,1,2.38.86,1.6,1.6,0,0,1-.13,1.36l-.17.28a26.08,26.08,0,0,1-5,6.58,19.06,19.06,0,0,1-10.52,4.7A32.17,32.17,0,0,1,80.5,42.85ZM100,29.77h0Z"/><path class="cls-2" d="M10.44,63.21a1,1,0,0,1-.87-.47A31.25,31.25,0,0,1,4.89,44.18a34.44,34.44,0,0,1,1.56-9,1,1,0,0,1,1.94.68c-.06.17-4.73,14,2.91,25.72a1,1,0,0,1-.86,1.59Z"/><path class="cls-2" d="M16.26,72.67a1,1,0,0,1-.49-.13c-1.67-.91-3.91-5.31-4.56-6.64a1,1,0,0,1,1.85-.9c1.19,2.44,2.94,5.32,3.69,5.73a1,1,0,0,1-.49,1.94Z"/><g id="_Slice_" data-name="&lt;Slice&gt;"><rect class="cls-3" width="100.17" height="99.75"/></g></svg>