<svg id="Layer_1" data-name="Layer 1" xmlns="http://www.w3.org/2000/svg" viewBox="0 0 99.917 99.91"><defs><style>.cls-1{fill:#e8ae38;}.cls-2{fill:#ffc48a;}.cls-3{fill:#db7200;}.cls-4{fill:#63d3fd;}.cls-5{fill:#3db9f9;}</style></defs><title>json.</title><polygon class="cls-1" points="26.353 78.615 26.353 38.154 78.615 38.154 78.615 21.295 58.385 21.295 58.385 1.065 1.065 1.065 1.065 98.845 78.615 98.845 78.615 78.615 26.353 78.615"/><polygon class="cls-2" points="1.065 98.845 6.123 98.845 6.123 1.065 1.065 1.065 1.065 98.845"/><polygon class="cls-3" points="73.557 98.845 78.615 98.845 78.615 21.295 73.557 21.295 73.557 98.845"/><polygon class="cls-3" points="78.615 21.295 58.385 21.295 58.385 1.065 78.615 21.295"/><path d="M78.615,22.361H58.384A1.065,1.065,0,0,1,57.319,21.3V1.065A1.065,1.065,0,0,1,59.138.312l20.23,20.231a1.065,1.065,0,0,1-.753,1.818ZM59.45,20.23H76.043L59.45,3.637Z"/><path d="M78.615,99.91H1.065A1.065,1.065,0,0,1,0,98.845V30.5a1.065,1.065,0,1,1,2.13,0V97.78H77.55V79.68h-51.2a1.065,1.065,0,0,1-1.065-1.065V38.154a1.065,1.065,0,0,1,1.065-1.065h51.2V22.361H58.384A1.065,1.065,0,0,1,57.319,21.3V2.13H2.13V13.411a1.065,1.065,0,0,1-2.13,0V1.065A1.065,1.065,0,0,1,1.065,0H58.384A1.065,1.065,0,0,1,59.45,1.065V20.23H78.615A1.065,1.065,0,0,1,79.68,21.3V38.154a1.065,1.065,0,0,1-1.065,1.065h-51.2V77.55h51.2a1.065,1.065,0,0,1,1.065,1.065v20.23A1.065,1.065,0,0,1,78.615,99.91Z"/><path d="M1.065,25.834A1.065,1.065,0,0,1,0,24.769v-5.63a1.065,1.065,0,0,1,2.13,0v5.63A1.065,1.065,0,0,1,1.065,25.834Z"/><polygon class="cls-4" points="7.809 78.615 98.845 78.615 98.845 38.154 7.809 38.154 7.809 78.615"/><polygon class="cls-5" points="93.788 78.615 98.845 78.615 98.845 38.154 93.788 38.154 93.788 78.615"/><path d="M39.84,73.551a8.432,8.432,0,0,1-8.423-8.423,1.679,1.679,0,1,1,3.359,0,5.064,5.064,0,1,0,5.064-5.064,8.423,8.423,0,1,1,8.423-8.423,1.679,1.679,0,0,1-3.359,0,5.064,5.064,0,1,0-5.064,5.064,8.423,8.423,0,0,1,0,16.846Z"/><path d="M19.61,73.551a6.745,6.745,0,0,1-6.737-6.737,1.679,1.679,0,0,1,3.359,0,3.378,3.378,0,1,0,6.757,0V46.583a1.679,1.679,0,1,1,3.359,0v20.23A6.745,6.745,0,0,1,19.61,73.551Z"/><path d="M61.756,73.551H60.07a6.745,6.745,0,0,1-6.737-6.737V49.955a6.745,6.745,0,0,1,6.737-6.737h1.686a6.744,6.744,0,0,1,6.737,6.737V66.814A6.745,6.745,0,0,1,61.756,73.551ZM60.07,46.577a3.382,3.382,0,0,0-3.379,3.378V66.814a3.382,3.382,0,0,0,3.379,3.379h1.686a3.382,3.382,0,0,0,3.378-3.379V49.955a3.382,3.382,0,0,0-3.378-3.378H60.07Z"/><path d="M92.1,73.551a1.68,1.68,0,0,1-1.424-.789L76.922,50.753V71.872a1.679,1.679,0,1,1-3.359,0V44.9a1.679,1.679,0,0,1,3.1-.89L90.422,66.016V44.9a1.679,1.679,0,1,1,3.359,0V71.871A1.68,1.68,0,0,1,92.1,73.551Z"/><path d="M98.852,79.68H7.815A1.065,1.065,0,0,1,6.75,78.615V38.154a1.065,1.065,0,0,1,1.065-1.065H98.852a1.065,1.065,0,0,1,1.065,1.065V78.615A1.065,1.065,0,0,1,98.852,79.68ZM8.88,77.55H97.786V39.219H8.88Z"/></svg>