<svg id="Layer_1" data-name="Layer 1" xmlns="http://www.w3.org/2000/svg" xmlns:xlink="http://www.w3.org/1999/xlink" viewBox="0 0 100 100"><defs><style>.cls-1{fill:url(#linear-gradient);}.cls-2{fill:#231f20;}.cls-3{fill:url(#linear-gradient-2);}.cls-4{fill:url(#linear-gradient-3);}</style><linearGradient id="linear-gradient" x1="0.53" y1="99.47" x2="50" y2="50" gradientUnits="userSpaceOnUse"><stop offset="0" stop-color="#00afff"/><stop offset="0.99" stop-color="#945dff"/></linearGradient><linearGradient id="linear-gradient-2" x1="-20.89" y1="62.37" x2="96.15" y2="-5.21" gradientUnits="userSpaceOnUse"><stop offset="0" stop-color="#c757bc"/><stop offset="0.05" stop-color="#cd5ca7"/><stop offset="0.16" stop-color="#da687b"/><stop offset="0.28" stop-color="#e67255"/><stop offset="0.41" stop-color="#ef7b36"/><stop offset="0.53" stop-color="#f6811e"/><stop offset="0.67" stop-color="#fb850d"/><stop offset="0.82" stop-color="#fe8803"/><stop offset="1" stop-color="#ff8900"/></linearGradient><linearGradient id="linear-gradient-3" x1="-10.94" y1="33.66" x2="49.11" y2="-1.01" gradientUnits="userSpaceOnUse"><stop offset="0" stop-color="#00afff"/><stop offset="0.88" stop-color="#945dff"/></linearGradient></defs><title>KOTLIN_APP_DEVELOPER</title><polygon class="cls-1" points="0.53 0.53 0.53 99.47 99.47 99.47 0.53 0.53"/><path class="cls-2" d="M99.47,100H.53A.53.53,0,0,1,0,99.47V.53A.53.53,0,0,1,.91.16L99.84,99.09a.53.53,0,0,1-.38.91ZM1.07,98.93H98.18L1.07,1.82Z" transform="translate(0 0)"/><polygon class="cls-3" points="0.53 99.47 0.53 0.53 99.47 0.53 0.53 99.47"/><polygon class="cls-4" points="0.53 0.53 0.53 53.53 50 0.53 0.53 0.53"/><path class="cls-2" d="M.53,54.07A.53.53,0,0,1,0,53.53V.53A.53.53,0,0,1,.53,0H50a.53.53,0,0,1,.39.9L.92,53.9A.53.53,0,0,1,.53,54.07Zm.53-53V52.18L48.77,1.07Z" transform="translate(0 0)"/><path class="cls-2" d="M.53,100A.53.53,0,0,1,0,99.47V.53A.53.53,0,0,1,.53,0H99.47a.53.53,0,0,1,.38.91L91.5,9.25a.53.53,0,1,1-.76-.76l7.43-7.43H1.07V98.18l85-85a.53.53,0,0,1,.76.76L.91,99.84A.53.53,0,0,1,.53,100Z" transform="translate(0 0)"/></svg>