<svg id="Layer_1" data-name="Layer 1" xmlns="http://www.w3.org/2000/svg" viewBox="0 0 98.63 100.1"><defs><style>.cls-1{fill:#f7f7f7;}.cls-2{fill:#ddd;}.cls-3{fill:#b9b9b9;}.cls-4{fill:#fade76;}.cls-5{fill:#a8a8a8;}</style></defs><title>language</title><polyline class="cls-1" points="22.05 13.46 22.05 1.36 77.56 1.36 97.39 21.19 97.39 98.86 22.05 98.86 22.05 45.18"/><polyline class="cls-2" points="35.05 13.46 35.05 1.36 77.56 1.36 97.39 21.19 97.39 98.86 35.05 98.86 35.05 45.18"/><path class="cls-3" d="M95.65,22.92H76.79V3.1Zm0,0"/><path d="M98.54,24.16h-23V0ZM78,21.68H92.76L78,6.2Z"/><path class="cls-4" d="M44.64,17.39V41.2a4,4,0,0,1-4,4H5.19a4,4,0,0,1-4-4V17.39a4,4,0,0,1,4-4h35.5a4,4,0,0,1,4,4Zm0,0"/><path d="M31.78,63H71.43a2,2,0,1,0,0-4H31.78a2,2,0,0,0,0,4Zm0,0"/><path d="M59.54,67H31.78a2,2,0,0,0,0,4H59.54a2,2,0,1,0,0-4Zm0,0"/><path d="M59.54,74.89H31.78a2,2,0,0,0,0,4H59.54a2,2,0,1,0,0-4Zm0,0"/><path d="M71.43,82.8H31.78a2,2,0,1,0,0,4H71.43a2,2,0,1,0,0-4Zm0,0"/><path d="M16.9,19.38a2,2,0,0,0-2,2V33.29a2,2,0,0,1-2,2H12.9a2,2,0,0,1-2-2,2,2,0,1,0-4,0,5.92,5.92,0,0,0,5.92,5.92H13a5.92,5.92,0,0,0,5.92-5.92V21.37a2,2,0,0,0-2-2Zm0,0"/><path d="M35.54,33.23c0-3-2.32-6-6.74-6a1.93,1.93,0,1,1,0-3.87h2.6a2,2,0,0,0,3.95-.26V21.39a2,2,0,0,0-2-2H28.79a5.73,5.73,0,0,0-5.95,5.9,5.73,5.73,0,0,0,5.95,5.9c2,0,2.78,1.09,2.78,2s-.73,2-2.78,2h-2a2,2,0,0,0-4,0v1.94a2,2,0,0,0,2,2h4c4.43,0,6.74-3,6.74-6Zm0,0"/><path d="M40.69,46.39H5.19A5.2,5.2,0,0,1,0,41.2v-4a1.24,1.24,0,1,1,2.48,0v4a2.72,2.72,0,0,0,2.72,2.72h35.5A2.72,2.72,0,0,0,43.4,41.2V17.39a2.72,2.72,0,0,0-2.72-2.72H5.19a2.72,2.72,0,0,0-2.72,2.72V30.06a1.24,1.24,0,1,1-2.48,0V17.39A5.2,5.2,0,0,1,5.19,12.2h35.5a5.2,5.2,0,0,1,5.19,5.19V41.2A5.2,5.2,0,0,1,40.69,46.39Z"/><rect x="20.82" y="46.41" width="2.48" height="6.56"/><path d="M98.63,100.1H20.82V57.8a1.24,1.24,0,1,1,2.48,0V97.62H96.15V21.7L77,2.6H23.29V12a1.24,1.24,0,1,1-2.48,0V.13H78.08L98.63,20.67Z"/><path class="cls-5" d="M92.33,54.74a1.08,1.08,0,0,1-1.08-1.08V33a1.08,1.08,0,1,1,2.17,0V53.66A1.08,1.08,0,0,1,92.33,54.74Z"/><path class="cls-5" d="M92.33,62.1A1.08,1.08,0,0,1,91.24,61V57.08a1.08,1.08,0,1,1,2.17,0V61A1.08,1.08,0,0,1,92.33,62.1Z"/></svg>