<svg id="Layer_1" data-name="Layer 1" xmlns="http://www.w3.org/2000/svg" viewBox="0 0 229.67 99.5"><defs><style>.cls-1{fill:#a1fffc;}.cls-2{fill:#03e5e5;}</style></defs><title>less</title><path class="cls-1" d="M53.66,69H55.8L57.93,81a23,23,0,0,1-8.54,1.42q-15.29,0-15.29-19.21V9.92h-5q-3.56,0-4.8,1.6t-1.24,6.22l.36,18.14q0,6.4-2,9.42A8.68,8.68,0,0,1,15.25,49v.71a9.88,9.88,0,0,1,6.22,4.09q2,3,2,9.07,0,3.56-.36,10V81.4q0,4.62,1.24,6.4t4.8,1.78h2.13v8.54H24.14q-7.82,0-11.2-3.56T9.56,82.11q0-4.27.53-10.14t.53-9.25A7.73,7.73,0,0,0,8.32,57Q6,54.73,1,54.73v-10q5,0,7.29-2.49a8.13,8.13,0,0,0,2.31-5.69q0-3.2-.53-9.25T9.56,17q0-8.89,3.38-12.45T24.14,1H50.82v63.3a5.58,5.58,0,0,0,.89,3.56A2.54,2.54,0,0,0,53.66,69Z"/><path class="cls-2" d="M34.52.39H51v63.3a5.58,5.58,0,0,0,.89,3.56,2.54,2.54,0,0,0,2,1.07H56l2.13,12.09a23,23,0,0,1-8.54,1.42q-15.29,0-15.29-19.21V9.28"/><path class="cls-2" d="M98.65,31.08Q92.43,23.43,81,23.43q-10.67,0-18.67,8.18T54.55,53.13q.18,13.34,8,21.16t20.27,7.82a34.32,34.32,0,0,0,19.92-6.4l-5.33-10A25.58,25.58,0,0,1,85,69.31q-12.45,0-14.58-12.09h33.79v-.36a33,33,0,0,0,.71-6.4Q104.88,38.72,98.65,31.08ZM70.38,46.9a13.22,13.22,0,0,1,3.73-8.18A9.83,9.83,0,0,1,81,35.88q9.6,0,9.6,11Z"/><path class="cls-2" d="M136.17,48Q151.46,53,151.46,65a16.34,16.34,0,0,1-6,13q-6,5.16-17.07,5.16A32.77,32.77,0,0,1,117.14,81,33.61,33.61,0,0,1,107,75.36l7.47-11Q121.95,70,129.06,70t7.11-4.62q0-2.13-3.2-4.27a42.17,42.17,0,0,0-7.11-2.84l-1.07-.71q-14.94-5.69-14.94-16.36a15.34,15.34,0,0,1,6-12.63q6-4.8,15.83-4.8t19,7.11l-7.47,10q-6.4-4.62-11.74-4.62-6.4,0-6.4,4.27a4.35,4.35,0,0,0,2.49,3.91,22.78,22.78,0,0,0,6,2.49Q135.46,47.62,136.17,48Z"/><path class="cls-2" d="M181.34,48Q196.63,53,196.63,65a16.34,16.34,0,0,1-6,13q-6,5.16-17.07,5.16a33.42,33.42,0,0,1-11-2.13,28.89,28.89,0,0,1-10-5.69l7.47-11Q167.47,70,174.58,70t7.11-4.62q0-2.13-3.2-4.27a42.17,42.17,0,0,0-7.11-2.84L170,57.57q-14.58-5.69-14.58-16.36a15.52,15.52,0,0,1,5.87-12.63q5.87-4.8,15.65-4.8t19.38,7.11l-7.47,10q-6.4-4.62-12.09-4.62-6,0-6,4.27,0,2.13,2.49,3.91a22.62,22.62,0,0,0,5.69,2.49Q180.63,47.62,181.34,48Z"/><path class="cls-1" d="M219,36.59a8.13,8.13,0,0,0,2.31,5.69q2.31,2.49,7.29,2.49v10q-5,0-7.29,2.49A8.34,8.34,0,0,0,219,63.09q0,3.38.53,9.25t.53,10.14q0,8.89-3.38,12.45t-11.2,3.56h-7.11V89.58h2.13v-.36q3.56,0,5-1.6t1.42-6.22l-.71-18.49q0-6,2-9.07a9.88,9.88,0,0,1,6.22-4.09V49a10.18,10.18,0,0,1-6.22-3.91q-2-2.85-2-9.25l.71-18.49q0-4.62-1.24-6.22t-5.16-1.6h-2.13V1h7.11q7.82,0,11.2,3.56T220.1,17q0,4.27-.53,10.14T219,36.59Z"/><path d="M82.83,83.14c-8.54,0-15.61-2.73-21-8.13s-8.18-12.75-8.3-21.87,2.61-16.62,8.12-22.25S73.68,22.4,81,22.4c7.88,0,14.07,2.7,18.4,8s6.45,12,6.45,20a34,34,0,0,1-.71,6.5v1.28H71.64c1.58,6.75,6,10,13.32,10a24.69,24.69,0,0,0,11.95-3.43l.91-.51L104.08,76l-.75.52A35.48,35.48,0,0,1,82.83,83.14ZM81,24.46c-6.79,0-12.83,2.65-17.94,7.87s-7.65,12.22-7.53,20.79,2.71,15.45,7.7,20.45,11.57,7.52,19.55,7.52a33.3,33.3,0,0,0,18.57-5.71L97,67.15a26.16,26.16,0,0,1-12,3.19c-8.83,0-14.08-4.35-15.59-12.94l-.21-1.21h34.09a31.33,31.33,0,0,0,.6-5.73c0-7.54-2-13.85-6-18.73S88.27,24.46,81,24.46Z"/><path d="M91.68,47.93H69.2l.16-1.16a14.27,14.27,0,0,1,4-8.79A10.87,10.87,0,0,1,81,34.85c4.85,0,10.63,2.09,10.63,12.05ZM71.59,45.88h18c-.27-6.11-3-9-8.55-9a8.76,8.76,0,0,0-6.23,2.57A11.61,11.61,0,0,0,71.59,45.88Z"/><path d="M173.51,84.21A34.58,34.58,0,0,1,162.15,82a30,30,0,0,1-10.31-5.9l-.66-.6,8.58-12.66.86.66c4.77,3.64,9.47,5.48,14,5.48,6.09,0,6.09-2.61,6.09-3.6,0-1.3-1.48-2.56-2.72-3.4a42.08,42.08,0,0,0-6.89-2.74l-.13-.06-1.38-.69c-10.08-3.95-15.19-9.77-15.19-17.3a16.57,16.57,0,0,1,6.24-13.42c4.08-3.34,9.57-5,16.3-5s13.44,2.46,20,7.31l.83.62L189,42.28l-.82-.59c-4.07-2.94-7.93-4.43-11.49-4.43-5,0-5,2.35-5,3.24,0,1.08.67,2.09,2.06,3.08h0a20.91,20.91,0,0,0,5.4,2.34l.06,0c1.17.47,2,.82,2.5,1.07,10.57,3.46,15.93,9.52,15.93,18a17.4,17.4,0,0,1-6.41,13.76C187,82.39,181.08,84.21,173.51,84.21Zm-19.62-9a28.76,28.76,0,0,0,8.94,4.9,32.56,32.56,0,0,0,10.68,2.08c7.06,0,12.58-1.65,16.4-4.91A15.23,15.23,0,0,0,195.6,65c0-7.64-4.77-12.9-14.58-16.09l-.07,0-.07,0c-.43-.22-1.24-.56-2.38-1a23.16,23.16,0,0,1-5.94-2.62c-1.93-1.38-2.91-3-2.91-4.74,0-2.42,1.23-5.29,7.07-5.29,3.75,0,7.74,1.42,11.87,4.24l6.24-8.33c-5.92-4.18-12-6.3-17.93-6.3-6.25,0-11.29,1.54-15,4.57a14.42,14.42,0,0,0-5.49,11.83c0,6.71,4.56,11.74,13.93,15.4l.09,0,1.36.68A42,42,0,0,1,179,60.25l0,0c2.46,1.64,3.66,3.32,3.66,5.12,0,2.58-1.41,5.65-8.14,5.65-4.67,0-9.49-1.77-14.33-5.25Z"/><path d="M205.52,99.5h-8.14V88.55h2.13V88.2h1c2.05,0,3.47-.42,4.21-1.26.53-.6,1.16-2,1.16-5.52l-.71-18.51c0-4.27.69-7.42,2.12-9.63a10.17,10.17,0,0,1,4.85-3.88,10.31,10.31,0,0,1-4.83-3.69c-1.44-2.09-2.14-5.31-2.14-9.83v0l.71-18.47c0-3.52-.56-5-1-5.57-.61-.79-2.12-1.2-4.35-1.2h-3.16V0h8.14C211,0,215,1.3,217.47,3.87s3.66,6.9,3.66,13.16c0,2.86-.18,6.3-.54,10.23s-.53,7-.53,9.33a7.07,7.07,0,0,0,2,5c1.33,1.43,3.53,2.16,6.54,2.16h1v12h-1c-3,0-5.21.73-6.54,2.16a7.28,7.28,0,0,0-2,5.17c0,2.21.18,5.29.53,9.15s.54,7.37.54,10.23c0,6.26-1.2,10.56-3.66,13.15S211,99.5,205.52,99.5Zm-6.09-2.05h6.09c4.9,0,8.42-1.09,10.46-3.24s3.1-6.11,3.1-11.74c0-2.8-.18-6.18-.53-10s-.54-7.07-.54-9.34a9.37,9.37,0,0,1,2.59-6.57c1.57-1.69,3.92-2.62,7-2.79v-8c-3.09-.17-5.45-1.1-7-2.79A9.16,9.16,0,0,1,218,36.59c0-2.39.18-5.59.54-9.52s.53-7.24.53-10c0-5.63-1-9.58-3.1-11.74s-5.56-3.24-10.46-3.24h-6.09V8.53h1.11c3,0,4.92.65,6,2S208,14,208,17.39v0l-.71,18.47c0,4,.6,6.93,1.78,8.65a9.24,9.24,0,0,0,5.63,3.5l.78.19v2.32l-.78.19a8.82,8.82,0,0,0-5.61,3.65c-1.19,1.83-1.79,4.69-1.79,8.49L208,81.4c0,3.37-.55,5.63-1.68,6.91a6.7,6.7,0,0,1-4.72,1.91v.39h-2.13Z"/><path d="M32.28,99.14H24.14c-5.48,0-9.5-1.3-11.95-3.88s-3.66-6.9-3.66-13.16c0-2.86.18-6.3.54-10.23s.53-6.94.53-9.15a6.69,6.69,0,0,0-2-5c-1.33-1.33-3.54-2-6.56-2H0v-12H1c3,0,5.21-.73,6.54-2.16a7.07,7.07,0,0,0,2-5c0-2.1-.18-5.18-.53-9.16-.21-2.39-.36-4.6-.45-6.58a1,1,0,0,1,2.05-.09c.09,2,.23,4.13.44,6.49.36,4,.54,7.18.54,9.34A9.16,9.16,0,0,1,9.07,43c-1.57,1.69-3.92,2.62-7,2.79v8c3.08.15,5.43,1,7,2.59a8.76,8.76,0,0,1,2.61,6.42c0,2.27-.18,5.42-.54,9.34s-.53,7.25-.53,10c0,5.63,1,9.58,3.1,11.74s5.56,3.24,10.46,3.24h6.09V90.61H29.12c-2.71,0-4.61-.75-5.64-2.22S22,84.73,22,81.4V72.81c.23-4.22.35-7.56.35-9.9,0-3.81-.6-6.67-1.79-8.51A8.82,8.82,0,0,0,15,50.75l-.78-.19V48.17l.86-.14a7.64,7.64,0,0,0,5.53-3.28c1.19-1.84,1.79-4.82,1.79-8.87L22,17.76c0-3.37.48-5.61,1.46-6.87s2.88-2,5.61-2h6V63.26c0,12.23,4.67,18.18,14.27,18.18a23.14,23.14,0,0,0,7.37-1.06L54.93,70H53.66a3.53,3.53,0,0,1-2.74-1.44,6.45,6.45,0,0,1-1.13-4.21V2.05H24.14c-4.9,0-8.42,1.09-10.46,3.24A12.07,12.07,0,0,0,11,11.73a1,1,0,0,1-2-.33A14,14,0,0,1,12.2,3.88C14.64,1.3,18.66,0,24.14,0h27.7V64.33a4.55,4.55,0,0,0,.65,2.9c.58.7,1,.7,1.17.7h3l2.43,13.76-.78.31a24.09,24.09,0,0,1-8.92,1.5c-5.4,0-9.53-1.75-12.27-5.19s-4-8.43-4-15V10.95h-4c-2,0-3.37.4-4,1.2-.47.6-1,2.06-1,5.59l.36,18.12c0,4.53-.69,7.8-2.12,10a9,9,0,0,1-4.67,3.61,10.11,10.11,0,0,1,4.66,3.81c1.43,2.2,2.12,5.35,2.12,9.63,0,2.38-.12,5.74-.36,10V81.4c0,3.55.58,5.12,1.06,5.81.62.89,2,1.34,4,1.34h3.16Z"/><path d="M136,83.46a1,1,0,0,1-.21-2,20.09,20.09,0,0,0,9-4.19A15.23,15.23,0,0,0,150.44,65c0-7.64-4.77-12.9-14.58-16.09l-.07,0-.07,0c-.43-.22-1.23-.56-2.37-1a23.7,23.7,0,0,1-6.27-2.6,5.38,5.38,0,0,1-3-4.77c0-2.42,1.29-5.29,7.43-5.29,3.53,0,7.39,1.42,11.51,4.24l6.26-8.34c-5.7-4.17-11.61-6.29-17.59-6.29-6.25,0-11.36,1.54-15.19,4.58a14.25,14.25,0,0,0-5.66,11.82c0,6.7,4.67,11.74,14.28,15.4l.11,0,1,.7a41.75,41.75,0,0,1,7.19,2.89l0,0c2.46,1.64,3.66,3.32,3.66,5.12,0,2.58-1.41,5.65-8.14,5.65-4.67,0-9.49-1.77-14.33-5.25l-6.34,9.35a33.25,33.25,0,0,0,9.11,4.93,37.78,37.78,0,0,0,4,1.21,1,1,0,1,1-.49,2A39.86,39.86,0,0,1,116.79,82a34.79,34.79,0,0,1-10.44-5.87l-.71-.6,8.6-12.69.86.66c4.77,3.64,9.47,5.48,14,5.48,6.09,0,6.09-2.61,6.09-3.6,0-1.3-1.48-2.56-2.72-3.4a42.06,42.06,0,0,0-6.89-2.74l-.13,0-1.09-.72c-10.28-3.94-15.49-9.76-15.49-17.28a16.39,16.39,0,0,1,6.43-13.43c4.2-3.33,9.74-5,16.47-5s13.33,2.46,19.65,7.32l.8.62L143.5,42.28l-.82-.59c-4.07-2.94-7.81-4.43-11.13-4.43-5.37,0-5.37,2.35-5.37,3.24a3.33,3.33,0,0,0,2,3l.11.07c.58.44,2.05,1.2,5.73,2.33l.08,0c1.17.47,2,.82,2.5,1.07,10.57,3.46,15.93,9.52,15.93,18a17.4,17.4,0,0,1-6.41,13.76,22.11,22.11,0,0,1-9.85,4.63Z"/><path d="M128.35,84.21c-.52,0-1.07,0-1.64,0a1,1,0,1,1,.12-2.05c.53,0,1,0,1.52,0,.64,0,1.32,0,2.07-.05a1,1,0,1,1,.1,2.05C129.73,84.19,129,84.21,128.35,84.21Z"/><path class="cls-1" d="M160.05,45.57a.72.72,0,0,1-.7-.54c-1.93-7.49,1.86-11.6,2-11.77a.72.72,0,0,1,1,1c-.14.15-3.39,3.74-1.68,10.42a.72.72,0,0,1-.52.88Z"/><path class="cls-1" d="M163.75,32.62a.72.72,0,0,1-.61-1.1,10.2,10.2,0,0,1,6-4,.72.72,0,0,1,.34,1.4,8.81,8.81,0,0,0-5.11,3.38A.72.72,0,0,1,163.75,32.62Z"/></svg>