<svg id="Layer_1" data-name="Layer 1" xmlns="http://www.w3.org/2000/svg" viewBox="0 0 77.73 100"><defs><style>.cls-1{fill:#03a4d6;}.cls-2{fill:#99ecff;}</style></defs><title>libraries</title><polyline class="cls-1" points="1.24 13.44 1.24 1.36 56.69 1.36 76.5 21.17 76.5 98.76 1.24 98.76 1.24 45.13"/><polyline class="cls-2" points="14.22 13.44 14.22 1.36 56.69 1.36 76.5 21.17 76.5 98.76 14.22 98.76 14.22 45.13"/><path class="cls-1" d="M74.76,22.9H55.92V3.09Zm0,0"/><path d="M77.65,24.14h-23V0Zm-20.5-2.47H71.88L57.15,6.19Z"/><path d="M11,62.94H50.57a2,2,0,1,0,0-4H11a2,2,0,0,0,0,4Zm0,0"/><path d="M38.68,66.9H11a2,2,0,0,0,0,4H38.68a2,2,0,1,0,0-4Zm0,0"/><path d="M38.68,74.82H11a2,2,0,0,0,0,4H38.68a2,2,0,1,0,0-4Zm0,0"/><path d="M50.57,82.72H11a2,2,0,1,0,0,4H50.57a2,2,0,1,0,0-4Zm0,0"/><path d="M77.73,100H0V21a1.24,1.24,0,1,1,2.47,0V97.53H75.26V21.68L56.18,2.6H2.47V12A1.24,1.24,0,1,1,0,12V.13H57.2L77.73,20.65Z"/></svg>