<svg id="Layer_1" data-name="Layer 1" xmlns="http://www.w3.org/2000/svg" viewBox="0 0 61.5 100.118"><defs><style>.cls-1{fill:#21d8de;}.cls-2{fill:#10c4c4;}.cls-3{fill:#fff;}.cls-4{fill:#e1effb;}.cls-5{fill:#0fb0c0;}.cls-6{fill:#ccc;}.cls-7{fill:#ff4c4c;}</style></defs><title>m_commerce</title><path class="cls-1" d="M54.85,99.047H6.65a5.579,5.579,0,0,1-5.579-5.579V6.759A5.579,5.579,0,0,1,6.65,1.18h48.2a5.579,5.579,0,0,1,5.579,5.579v86.71A5.579,5.579,0,0,1,54.85,99.047Z"/><path class="cls-2" d="M54.85,1.18H51.807a5.559,5.559,0,0,1,.39,2.05v86.71a5.579,5.579,0,0,1-5.579,5.579H1.461A5.579,5.579,0,0,0,6.65,99.047h48.2a5.579,5.579,0,0,0,5.579-5.579V6.759A5.579,5.579,0,0,0,54.85,1.18Z"/><path class="cls-3" d="M7.545,85.476H54.14a1.07,1.07,0,0,0,1.07-1.07V12.249a1.07,1.07,0,0,0-1.07-1.07H7.545a1.07,1.07,0,0,0-1.07,1.07V84.406A1.071,1.071,0,0,0,7.545,85.476Z"/><path class="cls-4" d="M54.14,11.179H46.545V80.917a1.07,1.07,0,0,1-1.07,1.07h-39v2.418a1.07,1.07,0,0,0,1.07,1.07H54.14a1.07,1.07,0,0,0,1.07-1.07V12.249A1.07,1.07,0,0,0,54.14,11.179Z"/><circle class="cls-5" cx="30.75" cy="92.597" r="2.992"/><circle class="cls-6" cx="23.505" cy="55.386" r="2.349"/><circle class="cls-6" cx="41.777" cy="55.386" r="2.349"/><path class="cls-7" d="M18.431,34.292l3.681,14.432H44.091a.981.981,0,0,0,.95-.738l3.18-12.47a.981.981,0,0,0-.95-1.223H18.431Z"/><path d="M26.2,46.526a1.435,1.435,0,0,0,1.39-1.788L25.767,37.57a1.434,1.434,0,0,0-2.778.708l1.828,7.168A1.434,1.434,0,0,0,26.2,46.526Z"/><path d="M33.342,46.526a1.434,1.434,0,0,0,1.433-1.434V37.924a1.434,1.434,0,1,0-2.867,0v7.168A1.434,1.434,0,0,0,33.342,46.526Z"/><path d="M40.123,46.481a1.432,1.432,0,0,0,1.744-1.035L43.7,38.278a1.434,1.434,0,0,0-2.778-.708l-1.828,7.168A1.433,1.433,0,0,0,40.123,46.481Z"/><path d="M12.553,27.254l2.917,1.615a.292.292,0,0,1,.141.183h0v0l5.9,23.122h0A3.78,3.78,0,1,0,27,56.819H38.277a3.78,3.78,0,0,0,7,0h.773a1.434,1.434,0,0,0,0-2.867h-.771l-.01-.021c-.01-.023-.021-.045-.031-.068-.035-.079-.073-.158-.113-.234q-.024-.046-.05-.092c-.041-.073-.084-.143-.129-.213-.016-.024-.03-.048-.046-.071q-.093-.135-.2-.262l-.039-.045q-.087-.1-.182-.2l-.072-.071q-.088-.086-.182-.165l-.067-.058c-.085-.069-.172-.135-.263-.2l-.039-.024q-.119-.079-.243-.148l-.089-.048q-.108-.057-.221-.106l-.087-.039c-.1-.042-.207-.081-.313-.115l-.027-.007c-.1-.03-.2-.055-.3-.077l-.1-.02q-.123-.023-.248-.038l-.1-.012c-.115-.011-.231-.018-.349-.018s-.234.007-.349.018l-.1.012q-.125.015-.248.038l-.1.02c-.1.022-.2.047-.3.077l-.027.007c-.107.033-.211.073-.313.115l-.087.039c-.075.033-.148.068-.221.106l-.09.048q-.124.069-.243.148l-.039.025c-.091.062-.178.127-.263.2l-.068.058q-.094.08-.182.165l-.072.072q-.094.1-.181.2l-.04.045c-.069.084-.134.172-.2.262-.016.023-.031.048-.046.072-.045.069-.089.14-.129.212q-.026.045-.05.092c-.04.077-.078.155-.113.234-.01.023-.021.045-.031.068l-.01.021H27l-.01-.023-.02-.045q-.059-.137-.129-.268c-.008-.015-.016-.031-.024-.046-.051-.093-.107-.184-.165-.272l-.038-.056c-.061-.089-.125-.176-.194-.259l-.009-.01c-.067-.081-.138-.158-.211-.233l-.045-.046q-.112-.111-.234-.212l-.046-.037c-.078-.063-.158-.123-.241-.18l-.028-.02c-.089-.06-.18-.115-.274-.167l-.061-.033c-.094-.05-.191-.1-.29-.14l-.037-.015q-.14-.058-.284-.1l-.054-.018c-.085-.026-.171-.05-.259-.07l-.393-1.541H44.09a2.413,2.413,0,0,0,2.34-1.818l3.18-12.47a2.414,2.414,0,0,0-2.34-3.011H19.545l-1.155-4.518h0a3.171,3.171,0,0,0-1.53-1.981l-2.917-1.615a1.433,1.433,0,0,0-1.389,2.508ZM41.776,54.47a.916.916,0,1,1-.916.916A.917.917,0,0,1,41.776,54.47Zm-17.356.916a.916.916,0,1,1-.916-.916A.917.917,0,0,1,24.42,55.386Zm22.269-19.66L43.739,47.29H23.226L20.277,35.726Z"/><path d="M26.324,92.6A4.426,4.426,0,1,0,30.75,88.17,4.431,4.431,0,0,0,26.324,92.6Zm5.985,0a1.559,1.559,0,1,1-1.559-1.559A1.561,1.561,0,0,1,32.309,92.6Z"/><path d="M39.384,6.937H22.116a.857.857,0,1,1,0-1.714H39.384a.857.857,0,0,1,0,1.714Z"/><path d="M53.427,86.333H8.258a2.643,2.643,0,0,1-2.64-2.64V12.962a2.643,2.643,0,0,1,2.64-2.64H53.427a2.643,2.643,0,0,1,2.64,2.64V83.693A2.643,2.643,0,0,1,53.427,86.333ZM8.258,12.036a.928.928,0,0,0-.926.926V83.693a.927.927,0,0,0,.926.926H53.427a.927.927,0,0,0,.926-.926V12.962a.927.927,0,0,0-.926-.926Z"/><path d="M60.429,27.976A1.071,1.071,0,0,1,59.358,26.9V23.691a1.071,1.071,0,1,1,2.142,0V26.9A1.071,1.071,0,0,1,60.429,27.976Z"/><path d="M54.691,100.118H6.809A6.816,6.816,0,0,1,0,93.309V6.809A6.816,6.816,0,0,1,6.809,0H54.691A6.816,6.816,0,0,1,61.5,6.809v11.42a1.071,1.071,0,0,1-2.142,0V6.809a4.672,4.672,0,0,0-4.667-4.666H6.809A4.672,4.672,0,0,0,2.142,6.809v86.5a4.672,4.672,0,0,0,4.666,4.666H54.691a4.672,4.672,0,0,0,4.667-4.666V32.367a1.071,1.071,0,0,1,2.142,0V93.309A6.816,6.816,0,0,1,54.691,100.118Z"/><path d="M24.546,67.322H15.9a.857.857,0,1,1,0-1.714h8.644a.857.857,0,1,1,0,1.714Z"/><path d="M49.49,67.322H31.01a.857.857,0,0,1,0-1.714H49.49a.857.857,0,1,1,0,1.714Z"/><path d="M49.883,71.178H15.509a.857.857,0,1,1,0-1.714H49.883a.857.857,0,1,1,0,1.714Z"/></svg>