<svg id="Layer_1" data-name="Layer 1" xmlns="http://www.w3.org/2000/svg" viewBox="0 0 142.5 99.59"><defs><style>.cls-1{fill:#1991eb;}.cls-2{fill:#64c4ff;}.cls-3{fill:#4dbbff;}</style></defs><title>marvel_app</title><path class="cls-1" d="M82.86,31.62l5.81-5.81q2.52-2.52,4.8-4.42T98,17.48a52.08,52.08,0,0,1,8.33-6.06,13.32,13.32,0,0,1,6.31-1.77,11,11,0,0,1,7.7,3.16A9.59,9.59,0,0,1,123.75,20a13.36,13.36,0,0,1-1.64,6.18,64.26,64.26,0,0,1-5.93,8.71Q96.49,60.65,96.49,68.22q0,3.28,3.28,3.28a9.87,9.87,0,0,0,5.55-2.15,53.35,53.35,0,0,0,7.82-7.45q2.52-2.77,6.18-7.57t6.44-8.83A27.06,27.06,0,0,1,130.44,40a6.86,6.86,0,0,1,4.42-1.51,6,6,0,0,1,6.06,6.06q0,4.8-4.42,12.75A102.18,102.18,0,0,1,125,73.52a78.43,78.43,0,0,1-18,16.41q-9.22,5.81-16.79,5.81a15.51,15.51,0,0,1-11.61-4.67,16.47,16.47,0,0,1-4.54-12,39.37,39.37,0,0,1,.63-7.19,48.68,48.68,0,0,1,1.89-7.07A51.71,51.71,0,0,1,80.08,57a98.73,98.73,0,0,1,5.81-9.21q.25-.5,1.26-2a83.73,83.73,0,0,0-13,12.75,120.75,120.75,0,0,0-13,19.81Q56.35,86.4,53.83,89a8.35,8.35,0,0,1-6.31,2.65,8.66,8.66,0,0,1-6.69-2.9,10.26,10.26,0,0,1-2.65-7.19,23.3,23.3,0,0,1,.63-5.43A44,44,0,0,1,41.46,69a76.63,76.63,0,0,1,3.28-7.7,56.43,56.43,0,0,1,3.53-6.44l4.8-8.33A11.69,11.69,0,0,0,54.59,44a90.76,90.76,0,0,0-9.84,9.21q-4.81,5.19-9.21,10.73a103.9,103.9,0,0,0-7.82,11.23,91.3,91.3,0,0,0-5.68,11q-3,7.07-5.43,9.47A8.37,8.37,0,0,1,10.42,98a7.89,7.89,0,0,1-6.31-3,11.83,11.83,0,0,1-2.52-7.82q0-9.59,9.34-33.07A225.8,225.8,0,0,1,22.41,29.35,160.57,160.57,0,0,1,34.65,9.91a35.38,35.38,0,0,1,6.06-6.44,9,9,0,0,1,5.55-1.89,8,8,0,0,1,5.68,2.27,7.37,7.37,0,0,1,2.4,5.55,14,14,0,0,1-1.14,5.3,76,76,0,0,1-5.43,9.59q-1.15,1.95-2.27,3.91Q44,30.86,41.72,34.9l-2.78,5.55q7.57-9.09,13.25-15.4a126.74,126.74,0,0,1,10-10.1,40,40,0,0,1,7.7-5.55A13.68,13.68,0,0,1,76,7.64,8.49,8.49,0,0,1,82.1,10,7.87,7.87,0,0,1,84.63,16a15,15,0,0,1-1,5,65.84,65.84,0,0,1-4.29,8.58L74,39.19,72,43l3-3.28q4.54-4.79,7.82-8.08Z"/><path class="cls-2" d="M88.67,25.81"/><path class="cls-2" d="M75,39.7"/><path d="M110.49,66.33a1.58,1.58,0,0,1-1.13-2.69c.82-.84,1.7-1.78,2.62-2.79l1-1.12a1.58,1.58,0,1,1,2.39,2.07l-1,1.17c-.94,1-1.85,2-2.7,2.88A1.58,1.58,0,0,1,110.49,66.33Z"/><path d="M10.42,99.59A9.44,9.44,0,0,1,2.89,96,13.42,13.42,0,0,1,0,87.15C0,80.5,3.09,69.49,9.45,53.5A228.39,228.39,0,0,1,21,28.59,162.91,162.91,0,0,1,33.38,9l0,0a36.48,36.48,0,0,1,6.36-6.73A10.62,10.62,0,0,1,46.26,0,9.56,9.56,0,0,1,53,2.7a8.92,8.92,0,0,1,2.89,6.7,15.61,15.61,0,0,1-1.25,5.9,76.34,76.34,0,0,1-5.54,9.82c-.58,1-1.15,2-1.72,2.95Q49.3,25.91,51,24a129,129,0,0,1,10.1-10.23,41.69,41.69,0,0,1,8-5.77A15.29,15.29,0,0,1,76,6.06a10.07,10.07,0,0,1,7.15,2.83,9.43,9.43,0,0,1,3,7.08,16.6,16.6,0,0,1-1.1,5.59,66.57,66.57,0,0,1-4.4,8.82L79.23,33q1.33-1.37,2.51-2.54l5.81-5.81c1.71-1.71,3.36-3.23,4.9-4.51s3.07-2.6,4.51-3.88l0,0a53,53,0,0,1,8.6-6.25,14.93,14.93,0,0,1,7.06-2,12.63,12.63,0,0,1,8.77,3.58A11.15,11.15,0,0,1,125.33,20a15,15,0,0,1-1.82,6.91,66,66,0,0,1-6.08,8.95C101.43,56.79,98.07,65,98.07,68.22c0,1.32.38,1.7,1.7,1.7a8.07,8.07,0,0,0,4.33-1.64,1.58,1.58,0,1,1,1.77,2.62,11.08,11.08,0,0,1-6.1,2.18,4.47,4.47,0,0,1-4.86-4.86c0-5.46,6.55-16.67,20-34.28a63.21,63.21,0,0,0,5.79-8.48A11.85,11.85,0,0,0,122.17,20a8,8,0,0,0-2.9-6,9.43,9.43,0,0,0-6.62-2.73,11.83,11.83,0,0,0-5.56,1.58,50.81,50.81,0,0,0-8,5.86c-1.46,1.3-3,2.62-4.57,3.93s-3,2.68-4.69,4.32L84,32.74c-2.16,2.16-4.71,4.79-7.79,8L64.81,53.11l7.83-14.69,5.3-9.59a65.12,65.12,0,0,0,4.19-8.36A13.49,13.49,0,0,0,83,16a6.29,6.29,0,0,0-2-4.79,6.9,6.9,0,0,0-5-2,12.22,12.22,0,0,0-5.46,1.59,38.61,38.61,0,0,0-7.38,5.33,125.94,125.94,0,0,0-9.84,10c-3.77,4.19-8.22,9.36-13.21,15.35L31.42,51.95l8.92-17.82c1.66-2.94,2.86-5.07,3.79-6.7.75-1.31,1.51-2.64,2.28-3.93l0,0a75.52,75.52,0,0,0,5.3-9.35,12.49,12.49,0,0,0,1-4.7A5.79,5.79,0,0,0,50.85,5a6.4,6.4,0,0,0-4.59-1.84,7.42,7.42,0,0,0-4.6,1.58,34.07,34.07,0,0,0-5.75,6.13A159.76,159.76,0,0,0,23.8,30.11a225.26,225.26,0,0,0-11.4,24.56C6.27,70.07,3.17,81,3.17,87.15A10.22,10.22,0,0,0,5.32,94a6.33,6.33,0,0,0,5.09,2.46,6.79,6.79,0,0,0,5.07-1.93c1.45-1.45,3.16-4.47,5.09-9a93.34,93.34,0,0,1,5.78-11.17,106,106,0,0,1,7.94-11.4c2.95-3.71,6.07-7.35,9.29-10.82a92.8,92.8,0,0,1,10-9.37l5.63-4.5L56,44.7a13.66,13.66,0,0,1-1.65,2.76L49.6,55.72A55.21,55.21,0,0,0,46.17,62,75.42,75.42,0,0,0,43,69.51l0,.11a42.81,42.81,0,0,0-2.56,6.91,21.83,21.83,0,0,0-.59,5.06A8.66,8.66,0,0,0,42,87.73a7.09,7.09,0,0,0,5.52,2.39A6.78,6.78,0,0,0,52.69,88c1.59-1.67,4-5.18,7.09-10.42a122.83,122.83,0,0,1,13.16-20,85.74,85.74,0,0,1,13.25-13l7.63-5.87-5.34,8a21.58,21.58,0,0,0-1.16,1.84l-.05.11-.07.1a97.7,97.7,0,0,0-5.71,9.06A50.36,50.36,0,0,0,78,65.33a47.31,47.31,0,0,0-1.83,6.84,38,38,0,0,0-.6,6.91A14.82,14.82,0,0,0,79.7,90a13.87,13.87,0,0,0,10.48,4.19c4.72,0,10.08-1.87,15.94-5.56A77.23,77.23,0,0,0,123.8,72.51a101.13,101.13,0,0,0,11.32-16c2.8-5,4.22-9.07,4.22-12A4.45,4.45,0,0,0,134.86,40a5.28,5.28,0,0,0-3.43,1.17,25.82,25.82,0,0,0-4.35,5.21c-1.77,2.58-3.84,5.42-6.15,8.46a1.58,1.58,0,0,1-2.52-1.92c2.28-3,4.32-5.8,6.06-8.34a28.17,28.17,0,0,1,5-5.89,8.44,8.44,0,0,1,5.41-1.86,7.61,7.61,0,0,1,7.64,7.64c0,3.5-1.51,7.92-4.62,13.52a104.24,104.24,0,0,1-11.66,16.54,80.33,80.33,0,0,1-18.41,16.72c-6.37,4-12.31,6.05-17.63,6.05a17.1,17.1,0,0,1-12.75-5.15,18.07,18.07,0,0,1-5-13.09,41.14,41.14,0,0,1,.66-7.48,50.5,50.5,0,0,1,2-7.3,53.54,53.54,0,0,1,3.64-8.07l.7-1.25q-2,2.14-4,4.54A119.78,119.78,0,0,0,62.54,79.07l0,.05c-3.29,5.53-5.75,9.14-7.53,11a9.92,9.92,0,0,1-7.46,3.14,10.23,10.23,0,0,1-7.86-3.42A11.84,11.84,0,0,1,36.6,81.6a25,25,0,0,1,.67-5.79A44.82,44.82,0,0,1,40,68.39a78.76,78.76,0,0,1,3.33-7.8A58.64,58.64,0,0,1,46.93,54l1.16-2q-1.1,1.12-2.19,2.29c-3.16,3.41-6.24,7-9.13,10.64A102.82,102.82,0,0,0,29.06,76a90.19,90.19,0,0,0-5.58,10.79c-2.12,4.94-4,8.2-5.76,10A9.93,9.93,0,0,1,10.42,99.59Z"/><path class="cls-3" d="M92,91.12c-4.95,0-8.64-1.39-11-4.16C76.2,81.38,78.74,72.42,78.85,72a1.06,1.06,0,0,1,2,.59c0,.12-2.32,8.27,1.7,13,2.48,2.9,6.92,4,13.19,3.16A1.05,1.05,0,1,1,96,90.84,32,32,0,0,1,92,91.12Z"/><path class="cls-3" d="M99.56,89.28a1.06,1.06,0,0,1-.35-2.05c.06,0,5.82-2.06,8.26-4.5A1.05,1.05,0,1,1,109,84.22c-2.78,2.78-8.79,4.91-9,5A1.05,1.05,0,0,1,99.56,89.28Z"/></svg>