<svg id="Layer_1" data-name="Layer 1" xmlns="http://www.w3.org/2000/svg" viewBox="0 0 105 100.15"><defs><style>.cls-1{fill:#00dbe0;}.cls-2{fill:#6bf9f5;}</style></defs><title>material_design</title><path class="cls-1" d="M103.4,37.49a11.38,11.38,0,0,0-4.57-8.68L52.5,1.85l-46.33,27A11.38,11.38,0,0,0,1.6,37.49v50.9A10.2,10.2,0,0,0,11.79,98.56H93.21A10.2,10.2,0,0,0,103.4,88.39ZM52.5,62.94,10.25,36.47,52.5,12,94.75,36.47Zm0,0"/><polygon class="cls-2" points="52.5 62.94 52.5 97.9 7.41 98.56 3.09 93.68 1.97 34.89 4.43 32.23 10.25 36.47 52.5 62.94"/><path d="M93.21,100.15H11.79A11.79,11.79,0,0,1,0,88.39V37.49a13,13,0,0,1,5.17-9.92l.09-.08L52.5,0,99.73,27.49l.09.08A13,13,0,0,1,105,37.49V71.17a1.6,1.6,0,1,1-3.2,0V37.49a9.75,9.75,0,0,0-3.89-7.36L52.5,3.7,7.09,30.14A9.75,9.75,0,0,0,3.2,37.49v50.9A8.59,8.59,0,0,0,11.79,97H93.21a8.59,8.59,0,0,0,8.59-8.56V83.92a1.6,1.6,0,1,1,3.2,0v4.47A11.79,11.79,0,0,1,93.21,100.15Z"/><path class="cls-2" d="M98.14,67a1.07,1.07,0,0,1-1.07-1.07V61.35a1.07,1.07,0,0,1,2.13,0V65.9A1.07,1.07,0,0,1,98.14,67Z"/><path class="cls-2" d="M98.14,58.22a1.07,1.07,0,0,1-1.07-1.07V41.93a1.07,1.07,0,0,1,2.13,0V57.16A1.07,1.07,0,0,1,98.14,58.22Z"/></svg>