<svg id="Layer_1" data-name="Layer 1" xmlns="http://www.w3.org/2000/svg" viewBox="0 0 61.42 99.98"><defs><style>.cls-1{fill:#21d8de;}.cls-2{fill:#10c4c4;}.cls-3{fill:#fff;}.cls-4{fill:#e1effb;}.cls-5{fill:#0fb0c0;}.cls-6{fill:#ccc;}.cls-7{fill:#ff4c4c;}</style></defs><title>mobile_ecommerce_apps</title><path class="cls-1" d="M54.78,98.91H6.64a5.57,5.57,0,0,1-5.57-5.57V6.75A5.57,5.57,0,0,1,6.64,1.18H54.78a5.57,5.57,0,0,1,5.57,5.57V93.34A5.57,5.57,0,0,1,54.78,98.91Z"/><path class="cls-2" d="M54.78,1.18h-3a5.55,5.55,0,0,1,.39,2V89.82a5.57,5.57,0,0,1-5.57,5.57H1.46a5.57,5.57,0,0,0,5.18,3.52H54.78a5.57,5.57,0,0,0,5.57-5.57V6.75A5.57,5.57,0,0,0,54.78,1.18Z"/><path class="cls-3" d="M7.53,85.36H54.07a1.07,1.07,0,0,0,1.07-1.07V12.23a1.07,1.07,0,0,0-1.07-1.07H7.53a1.07,1.07,0,0,0-1.07,1.07V84.29A1.07,1.07,0,0,0,7.53,85.36Z"/><path class="cls-4" d="M54.07,11.16H46.48V80.81a1.07,1.07,0,0,1-1.07,1.07H6.47v2.41a1.07,1.07,0,0,0,1.07,1.07H54.07a1.07,1.07,0,0,0,1.07-1.07V12.23A1.07,1.07,0,0,0,54.07,11.16Z"/><circle class="cls-5" cx="30.71" cy="92.47" r="2.99"/><circle class="cls-6" cx="23.47" cy="55.31" r="2.35"/><circle class="cls-6" cx="41.72" cy="55.31" r="2.35"/><path class="cls-7" d="M18.41,34.25l3.68,14.41H44a1,1,0,0,0,.95-.74l3.18-12.45a1,1,0,0,0-.95-1.22H18.41Z"/><path d="M26.17,46.46a1.43,1.43,0,0,0,1.39-1.79l-1.83-7.16a1.43,1.43,0,0,0-2.77.71l1.83,7.16A1.43,1.43,0,0,0,26.17,46.46Z"/><path d="M33.3,46.46A1.43,1.43,0,0,0,34.73,45V37.87a1.43,1.43,0,1,0-2.86,0V45A1.43,1.43,0,0,0,33.3,46.46Z"/><path d="M40.07,46.42a1.43,1.43,0,0,0,1.74-1l1.83-7.16a1.43,1.43,0,0,0-2.77-.71L39,44.68A1.43,1.43,0,0,0,40.07,46.42Z"/><path d="M12.54,27.22l2.91,1.61a.29.29,0,0,1,.14.18h0L21.48,52.1h0A3.77,3.77,0,1,0,27,56.74H38.23a3.78,3.78,0,0,0,7,0H46a1.43,1.43,0,0,0,0-2.86h-.77v0l0-.07-.11-.23L45,53.46l-.13-.21,0-.07-.2-.26,0,0-.18-.2-.07-.07-.18-.17-.07-.06-.26-.2,0,0L43.55,52l-.09,0-.22-.11-.09,0-.31-.11h0l-.3-.08-.1,0-.25,0h-.1l-.35,0-.35,0h-.1l-.25,0-.1,0-.3.08h0l-.31.11-.09,0L40,52l-.09,0-.24.15,0,0-.26.2-.07.06-.18.16-.07.07-.18.2,0,0-.2.26,0,.07-.13.21-.05.09-.11.23,0,.07v0H27v0l0,0-.13-.27,0,0-.17-.27,0-.06-.19-.26h0l-.21-.23,0,0-.23-.21,0,0-.24-.18,0,0L25.3,52l-.06,0L25,51.84h0l-.28-.1-.05,0-.26-.07-.39-1.54H44a2.41,2.41,0,0,0,2.34-1.82l3.18-12.45a2.41,2.41,0,0,0-2.34-3H19.52L18.36,28.3h0a3.17,3.17,0,0,0-1.53-2l-2.91-1.61a1.43,1.43,0,0,0-1.39,2.5ZM41.72,54.4a.91.91,0,1,1-.91.91A.92.92,0,0,1,41.72,54.4Zm-17.33.91a.91.91,0,1,1-.91-.91A.92.92,0,0,1,24.39,55.31ZM46.62,35.68,43.68,47.23H23.19L20.25,35.68Z"/><path d="M26.29,92.47a4.42,4.42,0,1,0,4.42-4.42A4.43,4.43,0,0,0,26.29,92.47Zm6,0a1.56,1.56,0,1,1-1.56-1.56A1.56,1.56,0,0,1,32.27,92.47Z"/><path d="M39.33,6.93H22.09a.86.86,0,0,1,0-1.71H39.33a.86.86,0,1,1,0,1.71Z"/><path d="M53.35,86.22H8.25a2.64,2.64,0,0,1-2.64-2.64V12.94a2.64,2.64,0,0,1,2.64-2.64H53.35A2.64,2.64,0,0,1,56,12.94V83.58A2.64,2.64,0,0,1,53.35,86.22ZM8.25,12a.93.93,0,0,0-.93.93V83.58a.93.93,0,0,0,.93.93H53.35a.93.93,0,0,0,.93-.93V12.94a.93.93,0,0,0-.93-.93Z"/><path d="M60.35,27.94a1.07,1.07,0,0,1-1.07-1.07V23.66a1.07,1.07,0,1,1,2.14,0v3.21A1.07,1.07,0,0,1,60.35,27.94Z"/><path d="M54.62,100H6.8A6.81,6.81,0,0,1,0,93.18V6.8A6.81,6.81,0,0,1,6.8,0H54.62a6.81,6.81,0,0,1,6.8,6.8V18.2a1.07,1.07,0,1,1-2.14,0V6.8a4.67,4.67,0,0,0-4.66-4.66H6.8A4.67,4.67,0,0,0,2.14,6.8V93.18A4.67,4.67,0,0,0,6.8,97.84H54.62a4.67,4.67,0,0,0,4.66-4.66V32.32a1.07,1.07,0,1,1,2.14,0V93.18A6.81,6.81,0,0,1,54.62,100Z"/><path d="M24.51,67.23H15.88a.86.86,0,0,1,0-1.71h8.63a.86.86,0,0,1,0,1.71Z"/><path d="M49.42,67.23H31a.86.86,0,0,1,0-1.71H49.42a.86.86,0,0,1,0,1.71Z"/><path d="M49.82,71.08H15.49a.86.86,0,0,1,0-1.71H49.82a.86.86,0,0,1,0,1.71Z"/></svg>