<svg id="Layer_1" data-name="Layer 1" xmlns="http://www.w3.org/2000/svg" viewBox="0 0 82.22 99.96"><defs><style>.cls-1{fill:#00b2ad;}.cls-2{fill:#6cfffb;}.cls-3{fill:#fea82f;}.cls-4{fill:#ff8031;}.cls-5{fill:#d7ffed;}.cls-6{fill:#6dc296;}.cls-7{fill:#5fa77e;}.cls-8{fill:#fff;}.cls-9{fill:#00e2e2;}.cls-10{fill:#9ff;}</style></defs><title>mobile_responsiove_design</title><path class="cls-1" d="M53.41,1.06H5.82A4.76,4.76,0,0,0,1.07,5.82V94.14a4.76,4.76,0,0,0,4.75,4.75h47.6a4.76,4.76,0,0,0,4.75-4.75V5.82A4.76,4.76,0,0,0,53.41,1.06Z"/><path class="cls-2" d="M5,94.14V5.82A4.76,4.76,0,0,1,9.75,1.06H5.82A4.76,4.76,0,0,0,1.07,5.82V94.14a4.76,4.76,0,0,0,4.75,4.75H9.75A4.76,4.76,0,0,1,5,94.14Z"/><path d="M53.41,100H5.82A5.82,5.82,0,0,1,0,94.14V5.82A5.82,5.82,0,0,1,5.82,0h47.6a5.82,5.82,0,0,1,5.82,5.82V9.9a1.06,1.06,0,0,1-2.13,0V5.82a3.69,3.69,0,0,0-3.69-3.69H5.82A3.69,3.69,0,0,0,2.13,5.82V94.14a3.69,3.69,0,0,0,3.69,3.69h47.6a3.69,3.69,0,0,0,3.69-3.69v-78a1.06,1.06,0,1,1,2.13,0v78A5.82,5.82,0,0,1,53.41,100Z"/><path class="cls-3" d="M50.58,15.87H8.65A1.18,1.18,0,0,0,7.44,17V78.19a1.18,1.18,0,0,0,1.21,1.15H50.58a1.18,1.18,0,0,0,1.21-1.15V17A1.18,1.18,0,0,0,50.58,15.87Z"/><path class="cls-4" d="M11.38,78.19V17a1.18,1.18,0,0,1,1.21-1.15H8.65A1.18,1.18,0,0,0,7.44,17V78.19a1.18,1.18,0,0,0,1.21,1.15h3.94A1.18,1.18,0,0,1,11.38,78.19Z"/><path class="cls-5" d="M50.58,15.87H8.65a1.21,1.21,0,0,0-1.21,1.21v8.15H51.79V17.08A1.21,1.21,0,0,0,50.58,15.87Z"/><path class="cls-6" d="M16.08,15.87H8.65a1.21,1.21,0,0,0-1.21,1.21v8.15h8.64V15.87Z"/><path class="cls-7" d="M11.38,17.23a1.47,1.47,0,0,1,.91-1.36H8.65a1.21,1.21,0,0,0-1.21,1.21v8.15h3.94Z"/><path class="cls-8" d="M33.73,93.56H25.49a2.24,2.24,0,0,1-2.23-2.23V90.2A2.24,2.24,0,0,1,25.49,88h8.24A2.24,2.24,0,0,1,36,90.2v1.12A2.24,2.24,0,0,1,33.73,93.56Z"/><path d="M33.73,94.41H25.49a3.09,3.09,0,0,1-3.08-3.08V90.2a3.09,3.09,0,0,1,3.08-3.08h8.24a3.09,3.09,0,0,1,3.08,3.08v1.12A3.09,3.09,0,0,1,33.73,94.41Zm-8.24-5.58a1.38,1.38,0,0,0-1.38,1.38v1.12a1.38,1.38,0,0,0,1.38,1.38h8.24a1.38,1.38,0,0,0,1.38-1.38V90.2a1.38,1.38,0,0,0-1.38-1.38Z"/><path class="cls-9" d="M80.75,50.58h-5.6a14.12,14.12,0,0,0-1.75-4.24l4-4a.62.62,0,0,0,0-.87L73.64,37.8a.62.62,0,0,0-.87,0l-4,4A14.12,14.12,0,0,0,64.57,40V34.4a.62.62,0,0,0-.62-.62H58.69a.62.62,0,0,0-.62.62V40a14.12,14.12,0,0,0-4.24,1.75l-4-4a.62.62,0,0,0-.87,0l-3.72,3.72a.62.62,0,0,0,0,.87l4,4a14.12,14.12,0,0,0-1.75,4.24H41.9a.62.62,0,0,0-.62.62v5.26a.62.62,0,0,0,.62.62h5.6a14.12,14.12,0,0,0,1.75,4.24l-4,4a.62.62,0,0,0,0,.87L49,69.86a.62.62,0,0,0,.87,0l4-4a14.12,14.12,0,0,0,4.24,1.75v5.6a.62.62,0,0,0,.62.62H64a.62.62,0,0,0,.62-.62v-5.6a14.12,14.12,0,0,0,4.24-1.75l4,4a.62.62,0,0,0,.87,0l3.72-3.72a.62.62,0,0,0,0-.87l-4-4a14.12,14.12,0,0,0,1.75-4.24h5.6a.62.62,0,0,0,.62-.62V51.2A.62.62,0,0,0,80.75,50.58ZM61.33,60.26a6.43,6.43,0,1,1,6.43-6.43A6.43,6.43,0,0,1,61.33,60.26Z"/><path class="cls-8" d="M32.71,10h-6.2a1.48,1.48,0,1,1,0-3h6.2a1.48,1.48,0,0,1,0,3Z"/><path d="M32.71,10.89h-6.2a2.33,2.33,0,1,1,0-4.66h6.2a2.33,2.33,0,0,1,0,4.66Zm-6.2-3a.62.62,0,0,0,0,1.25h6.2a.62.62,0,0,0,0-1.25Z"/><path class="cls-4" d="M41.28,39.26H14.9a1.48,1.48,0,0,1,0-3H41.28a1.48,1.48,0,1,1,0,3Z"/><path class="cls-4" d="M41.28,47.28H14.9a1.48,1.48,0,0,1,0-3H41.28a1.48,1.48,0,1,1,0,3Z"/><path class="cls-4" d="M41.28,55.3H14.9a1.48,1.48,0,0,1,0-3H41.28a1.48,1.48,0,0,1,0,3Z"/><path class="cls-4" d="M41.28,63.33H14.9a1.48,1.48,0,0,1,0-3H41.28a1.48,1.48,0,1,1,0,3Z"/><path class="cls-4" d="M41.28,71.35H14.9a1.48,1.48,0,0,1,0-3H41.28a1.48,1.48,0,0,1,0,3Z"/><path class="cls-10" d="M45.37,56.46V51.2a.62.62,0,0,1,.62-.62H41.9a.62.62,0,0,0-.62.62v5.26a.62.62,0,0,0,.62.62H46A.62.62,0,0,1,45.37,56.46Z"/><path class="cls-10" d="M49.25,46.35a14.12,14.12,0,0,0-1.75,4.24h3.3a.82.82,0,0,0,.79-.6,14.11,14.11,0,0,1,1.4-3.3.51.51,0,0,0-.08-.62l-3.68-3.68a.62.62,0,0,1,0-.87l2.19-2.19L49.89,37.8a.62.62,0,0,0-.87,0l-3.72,3.72a.62.62,0,0,0,0,.87Z"/><path class="cls-10" d="M49.23,66.14a.62.62,0,0,1,0-.87l3.61-3.61a.62.62,0,0,0,.1-.75,14.12,14.12,0,0,1-1.4-3.39.6.6,0,0,0-.58-.44H47.5a14.12,14.12,0,0,0,1.75,4.24l-4,4a.62.62,0,0,0,0,.87L49,69.86a.62.62,0,0,0,.87,0l1.53-1.53Z"/><path class="cls-10" d="M62,34.4a.62.62,0,0,1,.62-.62H58.69a.62.62,0,0,0-.62.62V40h3.06A1,1,0,0,0,62,39Z"/><path class="cls-10" d="M62,73.25v-5a.61.61,0,0,0-.61-.61H58.08v5.6a.62.62,0,0,0,.62.62h3.94A.62.62,0,0,1,62,73.25Z"/><path d="M64,74.72H58.69a1.47,1.47,0,0,1-1.47-1.47V68.32A14.94,14.94,0,0,1,54,67l-3.49,3.49a1.47,1.47,0,0,1-2.08,0l-3.72-3.72a1.47,1.47,0,0,1,0-2.08l3.49-3.49a14.94,14.94,0,0,1-1.34-3.25H41.9a1.47,1.47,0,0,1-1.47-1.47V51.2a1.47,1.47,0,0,1,1.47-1.47h4.94a14.94,14.94,0,0,1,1.34-3.25L44.69,43a1.47,1.47,0,0,1,0-2.08l3.72-3.72a1.47,1.47,0,0,1,2.08,0L54,40.68a14.93,14.93,0,0,1,3.25-1.34V34.4a1.47,1.47,0,0,1,1.47-1.47H64a1.47,1.47,0,0,1,1.47,1.47v4.94a14.93,14.93,0,0,1,3.25,1.34l3.49-3.49a1.47,1.47,0,0,1,2.08,0L78,40.91A1.47,1.47,0,0,1,78,43l-3.49,3.49a14.94,14.94,0,0,1,1.34,3.25h4.94a1.47,1.47,0,0,1,1.47,1.47v5.26a1.47,1.47,0,0,1-1.47,1.47H75.81a14.93,14.93,0,0,1-1.34,3.25l.89.89a.85.85,0,0,1-1.2,1.2l-1.83-1.83.36-.57a13.24,13.24,0,0,0,1.65-4l.15-.66h6V51.43h-6l-.15-.66a13.25,13.25,0,0,0-1.65-4l-.36-.57L76.59,42,73.2,38.57l-4.27,4.27-.57-.36a13.26,13.26,0,0,0-4-1.65l-.66-.15v-6H58.93v6l-.66.15a13.25,13.25,0,0,0-4,1.65l-.57.36-4.27-4.27L46.06,42l4.27,4.27-.36.57a13.25,13.25,0,0,0-1.65,4l-.15.66h-6v4.79h6l.15.66a13.25,13.25,0,0,0,1.65,4l.36.57L46.06,65.7l3.39,3.39,4.27-4.27.57.36a13.26,13.26,0,0,0,4,1.65l.66.15v6h4.79V67l.66-.15a13.25,13.25,0,0,0,4-1.65l.57-.36,4.27,4.27,3.39-3.39L76,65.11a.85.85,0,1,1,1.2-1.21l.76.76a1.47,1.47,0,0,1,0,2.08l-3.72,3.72a1.47,1.47,0,0,1-2.08,0L68.67,67a14.94,14.94,0,0,1-3.25,1.34v4.94A1.47,1.47,0,0,1,64,74.72ZM61.33,61.11a7.29,7.29,0,1,1,7.29-7.29A7.29,7.29,0,0,1,61.33,61.11Zm0-12.87a5.58,5.58,0,1,0,5.58,5.58A5.59,5.59,0,0,0,61.33,48.25Z"/><path d="M46,84.58H1.07a.85.85,0,0,1,0-1.7H46a.85.85,0,0,1,0,1.7Z"/><path d="M58.08,84.58H48.7a.85.85,0,1,1,0-1.7h9.37a.85.85,0,1,1,0,1.7Z"/></svg>