<svg id="Capa_1" data-name="Capa 1" xmlns="http://www.w3.org/2000/svg" viewBox="0 0 280 400.1"><defs><style>.cls-1{fill:#b4fcfc;}.cls-2{fill:#9ee5e3;}.cls-3{fill:#fff;}</style></defs><title>Mobile_progressive_web_apps</title><rect class="cls-1" x="4.04" y="4.04" width="212.19" height="392.01" rx="31.88" ry="31.88"/><path class="cls-2" d="M43.63,396.06h-15A25.86,25.86,0,0,1,2.82,370.27V29.83A25.86,25.86,0,0,1,28.6,4h15"/><path d="M190.45,400.1H29.83A29.86,29.86,0,0,1,0,370.27V29.83A29.86,29.86,0,0,1,29.83,0H146.44a4,4,0,0,1,0,8.09H29.83A21.76,21.76,0,0,0,8.09,29.83V370.27A21.76,21.76,0,0,0,29.83,392H190.45a21.76,21.76,0,0,0,21.74-21.74V29.83A21.76,21.76,0,0,0,190.45,8.09H177.31a4,4,0,1,1,0-8.09h13.13a29.86,29.86,0,0,1,29.83,29.83V370.27A29.86,29.86,0,0,1,190.45,400.1Z"/><rect x="4.04" y="40.44" width="212.18" height="8.09"/><rect x="2.82" y="345.37" width="212.18" height="8.09"/><circle class="cls-3" cx="108.91" cy="372.87" r="12.44"/><path d="M108.91,388.55a15.68,15.68,0,1,1,15.68-15.68A15.7,15.7,0,0,1,108.91,388.55Zm0-24.89a9.21,9.21,0,1,0,9.21,9.21A9.22,9.22,0,0,0,108.91,363.66Z"/><path d="M71.71,234a4,4,0,0,1-2.43-7.28L167,153.42l21.84,22.79,80.5-57.63a4,4,0,1,1,4.71,6.58l-86.2,61.71-21.73-22.67-91.95,69A4,4,0,0,1,71.71,234Z"/><path d="M271.66,153.51l-.49,0a4,4,0,0,1-3.53-4.5l3.24-27h-30a4,4,0,1,1,0-8.09H280l-4.33,36A4,4,0,0,1,271.66,153.51Z"/><rect x="82.23" y="21.57" width="55.81" height="9.3" rx="4.65" ry="4.65"/><path d="M60.17,243.33a4,4,0,0,1-2.71-7.05l2.25-2a4,4,0,1,1,5.41,6l-2.25,2A4,4,0,0,1,60.17,243.33Z"/></svg>