<svg id="Layer_1" data-name="Layer 1" xmlns="http://www.w3.org/2000/svg" viewBox="0 0 66 100.12"><defs><style>.cls-1{fill:#32d8d0;}.cls-2{fill:#4bf7ea;}.cls-3{fill:#5cffef;}</style></defs><title>mongo_db</title><polygon class="cls-1" points="33 98.14 1.31 50.06 33 1.99 64.69 50.06 33 98.14"/><polygon class="cls-2" points="22.73 82.56 53.79 33.53 64.69 50.06 33 98.14 22.73 82.56"/><path d="M46.25,79.13a1.09,1.09,0,0,1-.91-1.69l2.4-3.64A1.09,1.09,0,1,1,49.57,75l-2.4,3.64A1.09,1.09,0,0,1,46.25,79.13Z"/><path d="M33,100.12,0,50.06,33,0,66,50.06,53.6,68.87a1.09,1.09,0,1,1-1.82-1.2L63.38,50.06,33,4,2.62,50.06,33,96.15l8.31-12.6a1.09,1.09,0,0,1,1.82,1.2Z"/><path class="cls-3" d="M7.14,51.15a1.09,1.09,0,0,1-.9-1.7L21.83,26.36a1.09,1.09,0,1,1,1.81,1.22L8,50.67A1.09,1.09,0,0,1,7.14,51.15Z"/><path class="cls-3" d="M25.06,24.49a1.09,1.09,0,0,1-.89-1.72L27.56,18a1.09,1.09,0,0,1,1.79,1.26L26,24A1.09,1.09,0,0,1,25.06,24.49Z"/></svg>