<svg id="Layer_1" data-name="Layer 1" xmlns="http://www.w3.org/2000/svg" viewBox="0 0 111.34 100"><defs><style>.cls-1{fill:#4dc46f;}.cls-2{fill:#147c36;}.cls-3{fill:#7ce096;}</style></defs><title>MVC_FRAMEWORK</title><path class="cls-1" d="M94.94,20.39,87.35,7.24A12.12,12.12,0,0,0,76.86,1.18H34.48A12.12,12.12,0,0,0,24,7.24L2.8,43.94a12.12,12.12,0,0,0,0,12.12L24,92.76a12.12,12.12,0,0,0,10.49,6.06H76.86a12.12,12.12,0,0,0,10.49-6.06l21.19-36.7a12.12,12.12,0,0,0,0-12.12L100.3,29.66"/><path d="M76.86,100H34.48A13.34,13.34,0,0,1,23,93.35L1.78,56.65a13.34,13.34,0,0,1,0-13.3L23,6.65A13.34,13.34,0,0,1,34.48,0H76.86A13.34,13.34,0,0,1,88.38,6.65l21.19,36.7a13.34,13.34,0,0,1,0,13.3l-8.25,14.28a1.18,1.18,0,0,1-2.05-1.18l8.25-14.28a11,11,0,0,0,0-10.93L86.33,7.83a11,11,0,0,0-9.47-5.47H34.48A11,11,0,0,0,25,7.83L3.83,44.53a11,11,0,0,0,0,10.93L25,92.17a11,11,0,0,0,9.47,5.47H76.86a11,11,0,0,0,9.47-5.47L93.92,79A1.18,1.18,0,1,1,96,80.2L88.38,93.35A13.34,13.34,0,0,1,76.86,100Z"/><circle class="cls-2" cx="24.96" cy="50" r="14.49"/><circle class="cls-2" cx="55.67" cy="50" r="14.49"/><circle class="cls-2" cx="86.38" cy="50" r="14.49"/><path class="cls-3" d="M19.68,56.67H17.43V43.33h3.51l4,8.38,4-8.38h3.5V56.67H30.24V46.25l-4.66,9.26H24.32l-4.64-9.26Z"/><path class="cls-3" d="M56.94,56.67H54.41L49,43.33h2.52l4.11,10,4.11-10H62.3Z"/><path class="cls-3" d="M87.16,54.72a4.72,4.72,0,0,0,2-.39,6.9,6.9,0,0,0,1.76-1.25l1.45,1.49a6.68,6.68,0,0,1-5.15,2.35,6.9,6.9,0,0,1-5-1.95,7.08,7.08,0,0,1,0-9.89,7.05,7.05,0,0,1,5.14-2,6.72,6.72,0,0,1,5.19,2.29l-1.43,1.57a6.27,6.27,0,0,0-1.8-1.28,5.06,5.06,0,0,0-2-.36,4.74,4.74,0,0,0-3.4,1.31A4.41,4.41,0,0,0,82.55,50a4.61,4.61,0,0,0,1.37,3.4A4.42,4.42,0,0,0,87.16,54.72Z"/></svg>