<svg id="Layer_1" data-name="Layer 1" xmlns="http://www.w3.org/2000/svg" viewBox="0 0 98.31 100"><defs><style>.cls-1{fill:#55dbff;}.cls-2{fill:#ffd597;}.cls-3{fill:#191919;}.cls-4{fill:#029fc9;}</style></defs><title>Native_mobile_performance</title><path class="cls-1" d="M11.82,18l10.3,7.49c.9.65.88.66.54,1.71-1.25,3.83-2.5,7.66-3.72,11.5a.78.78,0,0,1-.89.66c-4.2,0-8.4,0-12.6,0a.72.72,0,0,1-.83-.59C3.34,34.78,2,30.76.71,26.73c-.1-.3-.21-.54.15-.79Q6.27,22,11.65,18.12Z" transform="translate(0)"/><path class="cls-2" d="M47.47,23.54h4.07V50.79l.16,0,1.15-2.47c1.22-2.65,2.43-5.31,3.66-8a8.19,8.19,0,0,1,5.09-4.54l13-4.18c0,.81,0,1.55,0,2.3s.2,1.48-.12,1.91-1.17.5-1.79.7c-3.19,1-6.38,2-9.58,3a4.66,4.66,0,0,0-3,2.64Q57.51,48,54.86,53.77a2.55,2.55,0,0,1-2.47,1.62q-2.84,0-5.68,0a2.56,2.56,0,0,1-2.53-1.62C42.45,50,40.7,46.22,39,42.44a4.93,4.93,0,0,0-3.2-2.84C31.87,38.37,28,37.11,24,35.86l-.47-.18,1.26-3.86L32,34.1c1.9.61,3.8,1.19,5.69,1.84a8,8,0,0,1,4.78,4.29c1.62,3.46,3.2,6.94,4.8,10.42,0,.07.08.13.22.36Z" transform="translate(0)"/><path class="cls-1" d="M97.69,32q0,3.64,0,7.28a2.34,2.34,0,0,1-2.57,2.57H80.8c-1.83,0-2.69-.86-2.69-2.68q0-7.16,0-14.32a2.37,2.37,0,0,1,2.65-2.61H94.89c1.91,0,2.79.87,2.79,2.78q0,3.49,0,7Z" transform="translate(0)"/><path class="cls-1" d="M49.49,20h-7a3.46,3.46,0,0,1-3.12-5.32q3.5-6.17,7.09-12.28a3.46,3.46,0,0,1,6.14.06l7,12.17A3.49,3.49,0,0,1,56.58,20Z" transform="translate(0)"/><path class="cls-3" d="M71.55,43.47h0V40.61L67.61,41.8v3.05a2.21,2.21,0,0,0,0,.58v47H53.28a1.19,1.19,0,0,0-.05.2c0,.7,0,1.4,0,2.1a1.39,1.39,0,0,1-1.51,1.5H45.9a1.42,1.42,0,0,1-1.58-1.61c0-.71,0-1.43,0-2.21H30.06v-.92q0-24.45,0-48.9a8.13,8.13,0,0,0,0-.92.49.49,0,0,0-.24-.35c-1.26-.42-2.53-.82-3.88-1.25,0,3.1,0,6.08,0,9.07q0,22.75,0,45.5a4.48,4.48,0,0,0,4.5,4.71q18.28,0,36.55,0a4.41,4.41,0,0,0,4.6-4.64q0-25.41,0-50.81C71.58,43.74,71.56,43.56,71.55,43.47Z" transform="translate(0)"/><path class="cls-4" d="M48.84,69.81a11.44,11.44,0,0,0-7.59,3,1.48,1.48,0,0,1-1.63.42,1.33,1.33,0,0,1-.31-2.28,13.7,13.7,0,0,1,6.77-3.48A14.23,14.23,0,0,1,58.8,70.88a1.35,1.35,0,1,1-1.8,2A11.84,11.84,0,0,0,48.84,69.81Z" transform="translate(0)"/><path class="cls-4" d="M49,72.95a8.72,8.72,0,0,1,5.78,2.15,1.39,1.39,0,0,1,.29,2.06,1.35,1.35,0,0,1-2,0,6,6,0,0,0-8,0,1.38,1.38,0,0,1-1.47.33,1.24,1.24,0,0,1-.84-1,1.4,1.4,0,0,1,.53-1.31A8.73,8.73,0,0,1,49,72.95Z" transform="translate(0)"/><path class="cls-4" d="M49.11,78.6a3.28,3.28,0,0,1,3.3,3.35,3.35,3.35,0,0,1-3.32,3.29,3.32,3.32,0,0,1-3.32-3.34A3.26,3.26,0,0,1,49.11,78.6Z" transform="translate(0)"/><path class="cls-4" d="M64.24,67.36a21.88,21.88,0,0,0-12.11-5.69h0l-.63-.08h-.06l-.18,0-.75-.06h-.14a28.07,28.07,0,0,0-3.34.06h-.11l-.76.08h-.1a21.21,21.21,0,0,0-9.17,3.41,36.21,36.21,0,0,0-3.15,2.48A1.21,1.21,0,0,0,33.49,69a1.27,1.27,0,0,0,1.17.78c.6,0,1-.37,1.37-.72A19.64,19.64,0,0,1,58.62,66.6a39.15,39.15,0,0,1,3.95,2.84,1.34,1.34,0,0,0,1.49.21,1.58,1.58,0,0,0,.87-1.26A5,5,0,0,0,64.24,67.36Z" transform="translate(0)"/><path d="M18.06,40h0c-4.3,0-8.59,0-12.59,0A1.33,1.33,0,0,1,4,39C2.94,35.56,1.8,32.06.7,28.68L.11,26.87A1.14,1.14,0,0,1,.5,25.43C3.21,23.49,6,21.49,8.61,19.57l2.68-1.95a.91.91,0,0,1,.22-.11l.06,0,.32-.14L15,19.6,22.48,25c1.1.8,1.19,1.09.78,2.37l-.43,1.33c-1.09,3.34-2.21,6.79-3.3,10.19A1.38,1.38,0,0,1,18.06,40Zm-5.68-1.25,5.67,0a.65.65,0,0,0,.21,0,.92.92,0,0,0,.09-.21c1.09-3.4,2.21-6.86,3.3-10.2L22.08,27a5.06,5.06,0,0,0,.17-.59,5,5,0,0,0-.5-.39L14.27,20.6l-2.49-1.81L9.33,20.57C6.69,22.48,4,24.47,1.26,26.41l0,.06,0,.06.57,1.76C3,31.68,4.12,35.18,5.22,38.63a.68.68,0,0,0,.06.15h.17Z" transform="translate(0)"/><path d="M52.41,56H46.69a3.19,3.19,0,0,1-3.07-2L42,50.46c-1.17-2.54-2.39-5.18-3.56-7.77a4.31,4.31,0,0,0-2.82-2.51c-2.86-.89-5.76-1.82-8.57-2.72l-3.18-1-.32-.12-.19-.07a.62.62,0,0,1-.37-.77l1.26-3.86a.62.62,0,0,1,.77-.4l2.13.68,5,1.6,1.58.5c1.35.43,2.75.87,4.12,1.34A8.55,8.55,0,0,1,43,40c1.12,2.39,2.24,4.84,3.33,7.2l.52,1.14V23.54a.62.62,0,0,1,.62-.62h4.07a.62.62,0,0,1,.62.62V48.38l.13-.28,1.25-2.72c.79-1.72,1.6-3.5,2.41-5.24a8.8,8.8,0,0,1,5.46-4.87l9.14-2.94,3.88-1.24a.62.62,0,0,1,.81.59c0,.25,0,.49,0,.73,0,.54,0,1.06,0,1.58,0,.16,0,.35,0,.54A2.54,2.54,0,0,1,75,36.27a2.59,2.59,0,0,1-1.59.79l-.51.13-1.36.43c-2.69.86-5.48,1.75-8.22,2.61a4.06,4.06,0,0,0-2.62,2.31c-1.62,3.55-3.46,7.58-5.27,11.49A3.16,3.16,0,0,1,52.41,56Zm-2.8-1.24h2.8a1.93,1.93,0,0,0,1.89-1.26C56.12,49.6,58,45.58,59.57,42a5.3,5.3,0,0,1,3.37-3c2.74-.85,5.52-1.74,8.21-2.61L72.52,36c.2-.06.4-.11.6-.16a2.26,2.26,0,0,0,.88-.32,2.27,2.27,0,0,0,0-.91c0-.21,0-.43,0-.65,0-.48,0-1,0-1.45l-3.07,1-9.14,2.94a7.61,7.61,0,0,0-4.72,4.21c-.81,1.74-1.62,3.52-2.41,5.23l-1.25,2.72-.79,1.7-.36.78a.62.62,0,0,1-.71.34l-.16,0a.62.62,0,0,1-.47-.6V24.16H48.09V51a.62.62,0,0,1-1.15.32l-.12-.2a1.94,1.94,0,0,1-.13-.23l-1.48-3.22c-1.08-2.36-2.2-4.8-3.32-7.19a7.36,7.36,0,0,0-4.42-4c-1.35-.46-2.75-.9-4.09-1.33l-1.59-.5-5-1.6-1.54-.49-.88,2.72,3.08,1c2.8.9,5.7,1.83,8.56,2.71a5.54,5.54,0,0,1,3.58,3.18c1.17,2.59,2.38,5.22,3.55,7.77l1.64,3.56a2,2,0,0,0,1.95,1.26h2.92Z" transform="translate(0)"/><path d="M88,42.47H80.8a3,3,0,0,1-3.31-3.3c0-4.58,0-9.4,0-14.32a3,3,0,0,1,3.27-3.23H94.9a3.43,3.43,0,0,1,2.55.85A3.42,3.42,0,0,1,98.3,25q0,2.4,0,4.8v4.34q0,2.56,0,5.12a3,3,0,0,1-3.19,3.18ZM80.76,22.85c-1.38,0-2,.63-2,2,0,4.92,0,9.74,0,14.32,0,1.48.58,2.06,2.08,2.06H95.12a1.73,1.73,0,0,0,2-1.95q0-2.56,0-5.12V29.82q0-2.4,0-4.79a2.29,2.29,0,0,0-.5-1.67,2.3,2.3,0,0,0-1.67-.49H80.76Z" transform="translate(0)"/><path d="M53.85,20.67H42.51a4.24,4.24,0,0,1-3.74-2,4.19,4.19,0,0,1,.08-4.21c2.2-3.87,4.52-7.89,7.1-12.29A4.14,4.14,0,0,1,49.52,0h0a4.21,4.21,0,0,1,3.63,2.2l6.18,10.69.86,1.48a4.1,4.1,0,0,1-3.6,6.29Zm-4.36-1.24h7.1A2.92,2.92,0,0,0,59.2,18a3,3,0,0,0-.08-3l-.86-1.48L52.09,2.82a3,3,0,0,0-2.56-1.58h0A2.88,2.88,0,0,0,47,2.75C44.44,7.15,42.12,11.16,39.93,15a2.93,2.93,0,0,0-.09,3,3,3,0,0,0,2.67,1.42h7Z" transform="translate(0)"/><path d="M44.36,100H30.43a5.11,5.11,0,0,1-5.12-5.32q0-18,0-36.09V40.1a.62.62,0,0,1,.81-.59l.85.27c1,.33,2,.65,3,1a1.08,1.08,0,0,1,.66.87,5.33,5.33,0,0,1,0,.74c0,.08,0,.17,0,.25v49.2H44.31a.62.62,0,0,1,.62.62c0,.25,0,.49,0,.73,0,.51,0,1,0,1.48,0,.73.26,1,1,1h5.8c.61,0,.88-.28.89-.89,0-.44,0-.89,0-1.33q0-.38,0-.77a.87.87,0,0,1,.05-.27l0-.09a.62.62,0,0,1,.59-.45H67V45.48a2.91,2.91,0,0,1,0-.66v-3a.62.62,0,0,1,.44-.59L71.36,40a.62.62,0,0,1,.8.59V43.5c0,.11,0,.25,0,.41q0,25.41,0,50.81A5,5,0,0,1,67,100ZM26.55,40.95V58.58q0,18,0,36.09a3.86,3.86,0,0,0,3.88,4.09c13,0,24.93,0,36.55,0a3.79,3.79,0,0,0,4-4q0-25.41,0-50.81c0-.1,0-.2,0-.29h0a.62.62,0,0,1,0-.15v-2l-2.69.81v2.59s0,0,0,.05a1.79,1.79,0,0,0,0,.4.61.61,0,0,1,0,.13v47a.62.62,0,0,1-.62.62H53.84q0,.17,0,.35c0,.44,0,.9,0,1.35a2,2,0,0,1-2.12,2.1H45.89a2,2,0,0,1-2.2-2.22c0-.49,0-1,0-1.49v-.11H30.06a.62.62,0,0,1-.62-.62V42.63c0-.09,0-.19,0-.28s0-.32,0-.47L26.59,41Z" transform="translate(0)"/><path d="M40.13,73.94a2,2,0,0,1-.74-.15,1.87,1.87,0,0,1-1.17-1.41,2.08,2.08,0,0,1,.67-1.89A14.34,14.34,0,0,1,46,66.85a14.86,14.86,0,0,1,13.25,3.56,2.18,2.18,0,0,1,.78,1.5,1.91,1.91,0,0,1-.5,1.39,2,2,0,0,1-2.9,0,11.28,11.28,0,0,0-7.75-2.9,10.89,10.89,0,0,0-7.18,2.84A2.33,2.33,0,0,1,40.13,73.94Zm9.09-6.18a15.77,15.77,0,0,0-3,.3,13.12,13.12,0,0,0-6.47,3.33.85.85,0,0,0-.3.76.65.65,0,0,0,.42.49c.27.11.54.1,1-.3a12.11,12.11,0,0,1,8-3.16h0a12.47,12.47,0,0,1,8.57,3.21c.32.28.81.47,1.16.09a.66.66,0,0,0,.18-.49,1,1,0,0,0-.36-.64A13.58,13.58,0,0,0,49.22,67.76Z" transform="translate(0)"/><path d="M44.09,78.21a2,2,0,0,1-.69-.13,1.86,1.86,0,0,1-1.24-1.53,2,2,0,0,1,.74-1.86A9.33,9.33,0,0,1,49,72.33h0a9.29,9.29,0,0,1,6.17,2.3,2,2,0,0,1,.35,2.92,1.8,1.8,0,0,1-1.24.66,2.29,2.29,0,0,1-1.65-.6,5.33,5.33,0,0,0-7.2,0A2.16,2.16,0,0,1,44.09,78.21ZM49,73.56a8.12,8.12,0,0,0-5.32,2.05.77.77,0,0,0-.33.75.63.63,0,0,0,.45.55c.25.1.48.09.86-.23a6.58,6.58,0,0,1,8.79,0,1.08,1.08,0,0,0,.75.31.58.58,0,0,0,.4-.22.81.81,0,0,0-.22-1.19A8.1,8.1,0,0,0,49,73.56Z" transform="translate(0)"/><path d="M49.13,85.85h0a3.92,3.92,0,0,1-3.93-4,3.86,3.86,0,0,1,4-3.91h0a3.89,3.89,0,0,1,2.78,1.15,3.94,3.94,0,0,1-.06,5.59A3.85,3.85,0,0,1,49.13,85.85Zm0-6.63a2.65,2.65,0,0,0-2.72,2.68,2.7,2.7,0,0,0,2.71,2.72A2.65,2.65,0,0,0,51,83.84,2.7,2.7,0,0,0,51,80a2.67,2.67,0,0,0-1.9-.78h0Z" transform="translate(0)"/><path d="M34.74,70.41h-.13a1.88,1.88,0,0,1-1.69-1.16,1.81,1.81,0,0,1,.44-2.19l.27-.23a33.35,33.35,0,0,1,2.93-2.29,21.71,21.71,0,0,1,7.57-3.19L44,61.29,46,61h.11l.77-.08H47a28.68,28.68,0,0,1,3.33-.05h.18l.77.06.18,0h.06l.66.08,2,.27-.1.05A22.63,22.63,0,0,1,64.66,66.9h0a3.15,3.15,0,0,1,.6.84c.06.11.12.22.18.31l.13.21,0,.24a2.2,2.2,0,0,1-1.2,1.7,1.94,1.94,0,0,1-2.13-.27l-1.11-.85a23.33,23.33,0,0,0-2.78-1.95,19,19,0,0,0-21.88,2.39l-.12.11A2.32,2.32,0,0,1,34.74,70.41Zm11.59-8.17-.18,0a20.67,20.67,0,0,0-8.9,3.31,32.41,32.41,0,0,0-2.82,2.21l-.27.23c-.08.06-.31.26-.1.76a.65.65,0,0,0,.64.41c.26,0,.46-.15.79-.45l.13-.12a20.21,20.21,0,0,1,23.3-2.54,24.24,24.24,0,0,1,2.93,2l1.08.83c.38.29.62.27.85.15a.87.87,0,0,0,.48-.6l-.08-.15a2.2,2.2,0,0,0-.36-.53A21.36,21.36,0,0,0,52,62.27l-.29,0-.32,0h-.06l-.17,0-.73-.06h-.13a27.44,27.44,0,0,0-3.26.06H47Z" transform="translate(0)"/></svg>