<svg id="Layer_1" data-name="Layer 1" xmlns="http://www.w3.org/2000/svg" viewBox="0 0 95.22 99.94"><defs><style>.cls-1{fill:#95d920;}.cls-2{fill:#960c3f;}.cls-3{fill:#ea1f5e;}.cls-4{fill:#288e9c;}.cls-5{fill:#1dcfc3;}</style></defs><title>NetBeans</title><polygon class="cls-1" points="27.45 30 50.11 19.43 67.49 27.96 88.28 18.75 49.26 0.69 8.36 21.48 27.45 30"/><polygon class="cls-2" points="0.69 31.36 16.71 38.86 16.71 70.9 0.69 80.62 0.69 31.36"/><polygon class="cls-3" points="16.71 70.9 39.2 81.98 39.77 99.25 0.69 80.62 16.71 70.9"/><path d="M39.77,99.94a.69.69,0,0,1-.3-.07L.39,81.24A.69.69,0,0,1,0,80.62V73a.69.69,0,0,1,1.38,0v7.18L39,98.14l-.52-15.73L16.4,71.52A.69.69,0,0,1,16,70.9V39.3L1.38,32.45V62.36a.69.69,0,0,1-1.38,0v-31a.69.69,0,0,1,1-.62l16,7.5a.69.69,0,0,1,.4.62V70.47L39.51,81.36a.69.69,0,0,1,.38.59l.57,17.27a.69.69,0,0,1-.69.71Z" transform="translate(0 0)"/><path d="M.69,69.75A.69.69,0,0,1,0,69.06V66.31a.69.69,0,1,1,1.38,0v2.75A.69.69,0,0,1,.69,69.75Z" transform="translate(0 0)"/><path d="M27.44,30.69a.69.69,0,0,1-.28-.06L8.08,22.11a.69.69,0,0,1,0-1.24L48.95.07a.69.69,0,0,1,.6,0L75.72,12.18a.69.69,0,0,1-.58,1.25l-25.87-12L10,21.44l17.48,7.81L49.82,18.81a.69.69,0,0,1,.59,0l17.1,8.38,19.11-8.46-7.19-3.33A.69.69,0,1,1,80,14.16l8.57,4a.69.69,0,0,1,0,1.25l-20.79,9.2a.69.69,0,0,1-.58,0L50.1,20.2,27.74,30.62A.69.69,0,0,1,27.44,30.69Z" transform="translate(0 0)"/><polygon class="cls-4" points="94.53 31.36 78.52 38.86 78.52 70.9 94.53 80.62 94.53 31.36"/><polygon class="cls-5" points="78.52 70.9 56.02 81.98 55.45 99.25 94.53 80.62 78.52 70.9"/><path d="M55.45,99.94a.69.69,0,0,1-.69-.71L55.33,82a.69.69,0,0,1,.38-.59L77.83,70.47V38.86a.69.69,0,0,1,.4-.62l16-7.5a.69.69,0,0,1,1,.62V80.62a.69.69,0,0,1-.39.62L55.75,99.87A.69.69,0,0,1,55.45,99.94Zm1.24-17.52-.52,15.73,37.67-18V32.45L79.2,39.3V70.9a.69.69,0,0,1-.38.62ZM78.51,70.9h0Z" transform="translate(0 0)"/><path class="cls-5" d="M91.56,70.69a.69.69,0,0,1-.69-.69V43a.69.69,0,0,1,1.38,0V70A.69.69,0,0,1,91.56,70.69Z" transform="translate(0 0)"/><path class="cls-5" d="M91.56,76.33a.69.69,0,0,1-.69-.69V73a.69.69,0,1,1,1.38,0v2.68A.69.69,0,0,1,91.56,76.33Z" transform="translate(0 0)"/></svg>