<svg id="Layer_1" data-name="Layer 1" xmlns="http://www.w3.org/2000/svg" viewBox="0 0 99.36 100"><defs><style>.cls-1{fill:#ef7d00;}.cls-2{fill:#b25a02;}.cls-3{fill:#fff;}.cls-4{fill:none;}</style></defs><title>node_js_development</title><path class="cls-1" d="M94.29,1.61H5A3.16,3.16,0,0,0,1.82,4.82V95A3.16,3.16,0,0,0,5,98.19h89.3A3.16,3.16,0,0,0,97.47,95V4.82A3.16,3.16,0,0,0,94.29,1.61Z"/><path class="cls-2" d="M97.47,4.82V95a3.16,3.16,0,0,1-3.17,3.21H49.65V1.61H94.29A3.16,3.16,0,0,1,97.47,4.82Z"/><path d="M94.29,99.79H5A4.74,4.74,0,0,1,.22,95V4.82A4.74,4.74,0,0,1,5,0h89.3a4.74,4.74,0,0,1,4.78,4.81V74.06a1.6,1.6,0,0,1-3.21,0V4.82a1.55,1.55,0,0,0-1.57-1.6H5a1.55,1.55,0,0,0-1.57,1.6V95A1.55,1.55,0,0,0,5,96.59h89.3A1.55,1.55,0,0,0,95.87,95V86.78a1.6,1.6,0,1,1,3.21,0V95A4.74,4.74,0,0,1,94.29,99.79Z"/><path class="cls-3" d="M42.87,59.25c0,10-5.59,16.17-14.59,16.17-5.65,0-10.7-2.84-14.23-8A5,5,0,1,1,22.3,61.8c1.65,2.41,3.66,3.63,6,3.63,1.83,0,4.6,0,4.6-6.18V33.82H19.22a5,5,0,1,1,0-10H37.87a5,5,0,0,1,5,5Z"/><path class="cls-3" d="M67.42,76.33A25.2,25.2,0,0,1,49.59,69a5,5,0,0,1,7.26-6.87,15.34,15.34,0,0,0,10.58,4.25c4,0,8.7-1.17,8.7-4.47,0-3.11-1.63-4.28-9.33-6.61-6.79-2.06-17.06-5.17-17.06-17,0-8.84,7.67-14.78,19.08-14.78a28,28,0,0,1,14.45,4,5,5,0,0,1-5.42,8.39,18.34,18.34,0,0,0-9-2.42c-4.19,0-9.08,1.25-9.08,4.79,0,3.84,2.25,5.1,10,7.44,6.58,2,16.52,5,16.43,16.21,0,8.61-7.51,14.43-18.69,14.43Z"/><g id="_Slice_" data-name="&lt;Slice&gt;"><rect class="cls-4" width="99.36" height="100"/></g></svg>