<svg id="Layer_1" data-name="Layer 1" xmlns="http://www.w3.org/2000/svg" viewBox="0 0 91.425 100"><defs><style>.cls-1{fill:#e2ac00;}.cls-2{fill:#ffcf57;}.cls-3{fill:none;stroke:#000;stroke-linecap:round;stroke-miterlimit:10;stroke-width:10px;}</style></defs><title>omni-channel_planning</title><rect x="60.9" y="33.413" width="20.212" height="3.188" transform="translate(-8.013 39.839) rotate(-29.743)"/><rect x="69.689" y="54.203" width="3.188" height="20.242" transform="translate(-18.138 99.29) rotate(-63.419)"/><rect x="44.626" y="67.036" width="3.188" height="21.873"/><rect x="10.922" y="62.041" width="24.926" height="3.188" transform="translate(-28.508 20.007) rotate(-29.768)"/><rect x="21.837" y="23.185" width="3.188" height="29.175" transform="translate(-21.018 37.447) rotate(-57.768)"/><rect x="44.072" y="13.836" width="3.188" height="23.05"/><circle class="cls-1" cx="45.667" cy="51.05" r="21.057"/><circle class="cls-2" cx="79.781" cy="29.992" r="10.028"/><circle class="cls-2" cx="46.22" cy="11.091" r="10.028"/><circle class="cls-2" cx="11.091" cy="29.992" r="10.028"/><circle class="cls-2" cx="12.566" cy="69.823" r="10.028"/><circle class="cls-2" cx="46.22" cy="88.909" r="10.028"/><circle class="cls-2" cx="80.334" cy="68.852" r="10.028"/><path d="M79.781,41.083A11.091,11.091,0,1,1,90.872,29.992,11.1,11.1,0,0,1,79.781,41.083Zm0-20.057a8.966,8.966,0,1,0,8.966,8.966A8.976,8.976,0,0,0,79.781,21.027Z"/><path d="M46.22,22.182A11.091,11.091,0,1,1,57.311,11.091,11.1,11.1,0,0,1,46.22,22.182Zm0-20.057a8.966,8.966,0,1,0,8.966,8.966A8.976,8.976,0,0,0,46.22,2.125Z"/><path d="M11.091,41.083A11.091,11.091,0,1,1,22.182,29.992,11.1,11.1,0,0,1,11.091,41.083Zm0-20.057a8.966,8.966,0,1,0,8.966,8.966A8.976,8.976,0,0,0,11.091,21.027Z"/><path d="M12.566,80.914A11.091,11.091,0,1,1,23.658,69.823,11.1,11.1,0,0,1,12.566,80.914Zm0-20.057a8.966,8.966,0,1,0,8.966,8.966A8.976,8.976,0,0,0,12.566,60.858Z"/><path d="M46.22,100A11.091,11.091,0,1,1,57.311,88.909,11.1,11.1,0,0,1,46.22,100Zm0-20.057a8.966,8.966,0,1,0,8.966,8.966A8.976,8.976,0,0,0,46.22,79.943Z"/><path d="M80.334,79.943A11.091,11.091,0,1,1,91.425,68.852,11.1,11.1,0,0,1,80.334,79.943Zm0-20.057A8.966,8.966,0,1,0,89.3,68.852,8.976,8.976,0,0,0,80.334,59.886Z"/><path class="cls-2" d="M63.177,53.08h-.05a.85.85,0,0,1-.8-.9A17.257,17.257,0,0,0,56.54,38.441.85.85,0,0,1,57.59,37.1a18.66,18.66,0,0,1,6.435,15.175A.85.85,0,0,1,63.177,53.08Z"/><path class="cls-3" d="M66.693,47.371a21.913,21.913,0,1,0,.366,4.992"/></svg>