<svg id="Layer_1" data-name="Layer 1" xmlns="http://www.w3.org/2000/svg" viewBox="0 0 104.15 100"><defs><style>.cls-1{fill:#3ba137;}.cls-2{fill:#5aea53;}</style></defs><title>open_source</title><path class="cls-1" d="M31.91,98.57A50.86,50.86,0,1,1,102.5,44.41c3.86,26.16-12.16,46.53-30.24,54.15L62,71.36A21.88,21.88,0,0,0,72.81,58.9,20.91,20.91,0,0,0,73,45.62a21.84,21.84,0,0,0-41.69-.16,20.93,20.93,0,0,0,.68,15A21.94,21.94,0,0,0,42.22,71.36Z"/><path d="M32.52,100l-1-.44A52.55,52.55,0,0,1,7.11,78.09,51,51,0,0,1,.5,44.87a52.06,52.06,0,0,1,103.06-.62,51,51,0,0,1-7,34.75A52.3,52.3,0,0,1,72.68,99.55l-1,.43-11-29.13.83-.45A20.93,20.93,0,0,0,71.79,58.55a19.89,19.89,0,0,0,.14-12.62,20.77,20.77,0,0,0-39.64-.15A19.91,19.91,0,0,0,32.93,60a20.72,20.72,0,0,0,9.79,10.41l.84.45ZM52.06,2.15a49.72,49.72,0,0,0-20.75,95l9.58-25.27a22.91,22.91,0,0,1-9.93-11,22,22,0,0,1-.71-15.71,23.11,23.11,0,0,1,8.42-11.64A22.91,22.91,0,0,1,74,45.3a22,22,0,0,1-.16,14A22.85,22.85,0,0,1,63.29,71.85l9.57,25.27c16.59-7.49,32.36-26.86,28.57-52.55A49.65,49.65,0,0,0,53.11,2.17Z"/><path class="cls-2" d="M74.84,92.61a1.08,1.08,0,0,1-.57-2c.15-.09,15.13-9.53,19.15-21.51a1.08,1.08,0,0,1,2,.69C91.18,82.51,76,92,75.4,92.44A1.07,1.07,0,0,1,74.84,92.61Z"/><path class="cls-2" d="M95.73,65.46a1.08,1.08,0,0,1-1-1.44c0-.06,2.08-5.89,1.77-10.66a1.08,1.08,0,0,1,2.15-.14c.33,5.22-1.8,11.27-1.89,11.53A1.08,1.08,0,0,1,95.73,65.46Z"/><path class="cls-2" d="M25.07,53.51a1.08,1.08,0,0,1-1.08-1,29.2,29.2,0,0,1,2.09-10.88A26.77,26.77,0,0,1,43.26,25.72a1.08,1.08,0,0,1,.68,2c-7.66,2.54-13,7.43-15.81,14.54a27.57,27.57,0,0,0-2,10.08,1.08,1.08,0,0,1-1,1.12Z"/></svg>