<svg id="Layer_1" data-name="Layer 1" xmlns="http://www.w3.org/2000/svg" viewBox="0 0 100 100"><defs><style>.cls-1{fill:#053791;}.cls-2{fill:#1b2868;}.cls-3{fill:#19cffc;}.cls-4{fill:#fff;}</style></defs><title>photoshop</title><path class="cls-1" d="M95.18,1.61H4.82A3.18,3.18,0,0,0,1.61,4.82V95.18a3.18,3.18,0,0,0,3.21,3.21H95.18a3.18,3.18,0,0,0,3.21-3.21V4.82A3.18,3.18,0,0,0,95.18,1.61Z"/><path class="cls-2" d="M96.68,4.82V95.18a3.18,3.18,0,0,1-3.21,3.21H48.29V1.61H93.47A3.18,3.18,0,0,1,96.68,4.82Z"/><path class="cls-3" d="M95.18,100H4.82A4.77,4.77,0,0,1,0,95.18V4.82A4.77,4.77,0,0,1,4.82,0H95.18A4.77,4.77,0,0,1,100,4.82v69.4a1.61,1.61,0,1,1-3.21,0V4.82a1.57,1.57,0,0,0-1.61-1.61H4.82A1.57,1.57,0,0,0,3.21,4.82V95.18a1.57,1.57,0,0,0,1.61,1.61H95.18a1.57,1.57,0,0,0,1.61-1.61V87A1.61,1.61,0,1,1,100,87v8.23A4.77,4.77,0,0,1,95.18,100Z"/><path class="cls-4" d="M50,27.58a16,16,0,0,0-12.85-6.49H17.88a3.18,3.18,0,0,0-3.21,3.21V75.7a3.21,3.21,0,0,0,6.42,0V53.21H37.15A16.06,16.06,0,0,0,53.21,37.15,15.48,15.48,0,0,0,50,27.58ZM37.15,46.79H21.09V27.52H37.15a9.64,9.64,0,0,1,0,19.27Z"/><path class="cls-4" d="M72.48,78.91A12.86,12.86,0,0,1,59.64,66.06a3.21,3.21,0,0,1,6.42,0,6.42,6.42,0,1,0,6.42-6.42A12.85,12.85,0,1,1,85.33,46.79a3.21,3.21,0,0,1-6.42,0,6.42,6.42,0,1,0-6.42,6.42,12.85,12.85,0,0,1,0,25.7Z"/><path class="cls-4" d="M53.21,37.15A16.08,16.08,0,0,1,50,46.79V27.58A15.48,15.48,0,0,1,53.21,37.15Z"/></svg>