<svg id="Layer_1" data-name="Layer 1" xmlns="http://www.w3.org/2000/svg" viewBox="0 0 100.125 100.364"><defs><style>.cls-1{fill:#ef725e;}.cls-2{fill:none;}.cls-3{fill:#fca89a;}</style></defs><title>plugin_integration</title><path class="cls-1" d="M87.258,48.99a12.309,12.309,0,0,1,6.213,1.275,3.17,3.17,0,0,0,4.621-2.8V24.514H75.144a3.169,3.169,0,0,1-2.8-4.621,12.352,12.352,0,1,0-22.1.021,3.164,3.164,0,0,1-2.812,4.6H24.474V47.461a3.169,3.169,0,0,1-4.62,2.8,12.352,12.352,0,1,0,.02,22.1,3.163,3.163,0,0,1,4.6,2.812V98.131H47.422a3.168,3.168,0,0,0,2.8-4.62,12.353,12.353,0,1,1,22.1.02,3.164,3.164,0,0,0,2.812,4.6H98.091V75.182a3.163,3.163,0,0,0-4.6-2.812A12.353,12.353,0,1,1,87.258,48.99Z"/><path class="cls-1" d="M87.258,48.99"/><rect class="cls-2" width="100.125" height="100.364"/><path class="cls-3" d="M39.791,33.918H31.885a1.994,1.994,0,0,1,0-3.987h7.906a1.994,1.994,0,0,1,0,3.987Zm0,0"/><path class="cls-3" d="M49.426,33.918H47.2a1.994,1.994,0,0,1,0-3.987h2.224a1.994,1.994,0,1,1,0,3.987Zm0,0"/><path d="M99.96,100H75.142a5.033,5.033,0,0,1-4.483-7.308,10.484,10.484,0,0,0-9.8-15.165A10.486,10.486,0,0,0,51.9,92.676a5.057,5.057,0,0,1-.214,4.952A4.974,4.974,0,0,1,47.422,100H22.6V75.182A1.261,1.261,0,0,0,22,74.091a1.3,1.3,0,0,0-1.286-.052A14.226,14.226,0,0,1,4.094,71.179,14.114,14.114,0,0,1,.136,60.755,14.222,14.222,0,0,1,20.689,48.593a1.33,1.33,0,0,0,1.317-.051,1.232,1.232,0,0,0,.6-1.081V22.645H47.424a1.261,1.261,0,0,0,1.09-.606,1.3,1.3,0,0,0,.052-1.285,14.226,14.226,0,0,1,2.86-16.619A14.112,14.112,0,0,1,61.85.175,14.223,14.223,0,0,1,74.013,20.728a1.332,1.332,0,0,0,.05,1.318,1.231,1.231,0,0,0,1.081.6H99.961V47.461a4.975,4.975,0,0,1-2.371,4.261,5.061,5.061,0,0,1-4.955.215,10.483,10.483,0,0,0-12.23,16.65A10.488,10.488,0,0,0,92.653,70.7a5.032,5.032,0,0,1,7.307,4.483v5.993a1.869,1.869,0,0,1-3.738,0V75.182a1.261,1.261,0,0,0-.606-1.09,1.3,1.3,0,0,0-1.286-.052A14.222,14.222,0,0,1,73.753,60.755,14.222,14.222,0,0,1,94.306,48.593a1.333,1.333,0,0,0,1.318-.051,1.231,1.231,0,0,0,.6-1.081V26.383H75.144a4.975,4.975,0,0,1-4.261-2.371,5.06,5.06,0,0,1-.214-4.955A10.484,10.484,0,0,0,54.017,6.829a10.488,10.488,0,0,0-2.11,12.247,5.033,5.033,0,0,1-4.483,7.307H26.343V47.461a4.976,4.976,0,0,1-2.371,4.261,5.061,5.061,0,0,1-4.954.215,10.483,10.483,0,0,0-12.23,16.65A10.488,10.488,0,0,0,19.035,70.7a5.032,5.032,0,0,1,7.307,4.483v21.08H47.422a1.232,1.232,0,0,0,1.081-.6,1.33,1.33,0,0,0,.05-1.316A14.224,14.224,0,0,1,60.715,73.792,14.223,14.223,0,0,1,74,94.37a1.3,1.3,0,0,0,.052,1.286,1.262,1.262,0,0,0,1.09.606h21.08V91.587a1.869,1.869,0,0,1,3.738,0Z"/></svg>