<svg id="Layer_1" data-name="Layer 1" xmlns="http://www.w3.org/2000/svg" viewBox="0 0 45.09 100"><defs><style>.cls-1{fill:#595959;}.cls-2{fill:#fff;}.cls-3{fill:#161616;}</style></defs><title>POS Application Development</title><rect class="cls-1" x="10.81" y="31.6" width="23.47" height="15.89"/><path d="M35.69,48.91H9.4V30.19H35.69ZM12.22,46.08H32.87V33H12.22Z"/><rect class="cls-2" x="13.06" y="1.41" width="18.97" height="30.16"/><path d="M33.44,33H11.65V0H33.44Zm-19-2.82H30.62V2.82H14.47Z"/><path class="cls-3" d="M43.68,96.14a2.45,2.45,0,0,1-2.45,2.45H3.86a2.45,2.45,0,0,1-2.45-2.45V24.8a2.45,2.45,0,0,1,2.45-2.45H8.32v4.42a2.36,2.36,0,0,0-2.25,2.36V49.87a2.37,2.37,0,0,0,2.37,2.37H36.65A2.37,2.37,0,0,0,39,49.87V29.14a2.37,2.37,0,0,0-2.25-2.36V22.35h4.46a2.45,2.45,0,0,1,2.45,2.45Z"/><path d="M42.51,100H2.58A2.58,2.58,0,0,1,0,97.42V23.52a2.58,2.58,0,0,1,2.58-2.58H6.27A3.46,3.46,0,0,1,9.73,24.4v3.72l-1.34.07a1,1,0,0,0-.63.28,1,1,0,0,0-.28.68V50.83H37.61V28.23l-2.25-.11V24.25a3.31,3.31,0,0,1,3.31-3.31h3.84a2.58,2.58,0,0,1,2.58,2.58V97.42A2.58,2.58,0,0,1,42.51,100ZM6.91,23.76H2.82V97.18H42.27V23.76H38.18v1.92a3.78,3.78,0,0,1,2.25,3.46v22a2.5,2.5,0,0,1-2.5,2.5H7.16a2.5,2.5,0,0,1-2.5-2.5V29a2.74,2.74,0,0,1,.09-.76,3.89,3.89,0,0,1,2.16-2.52Z"/><path class="cls-2" d="M43.68,96.14"/><path class="cls-2" d="M19,59.55H8.38a2.37,2.37,0,1,0,0,4.74H19a2.37,2.37,0,1,0,0-4.74Zm0,0"/><path class="cls-2" d="M36.71,59.55H26.09a2.37,2.37,0,0,0,0,4.74H36.71a2.37,2.37,0,0,0,0-4.74Zm0,0"/><path class="cls-2" d="M19,71.84H8.38a2.37,2.37,0,1,0,0,4.74H19a2.37,2.37,0,1,0,0-4.74Zm0,0"/><path class="cls-2" d="M36.71,71.84H26.09a2.37,2.37,0,0,0,0,4.74H36.71a2.37,2.37,0,0,0,0-4.74Zm0,0"/><path class="cls-2" d="M19,84.37H8.38a2.37,2.37,0,1,0,0,4.74H19a2.37,2.37,0,1,0,0-4.74Zm0,0"/><path class="cls-2" d="M36.71,84.37H26.09a2.37,2.37,0,0,0,0,4.74H36.71a2.37,2.37,0,0,0,0-4.74Zm0,0"/></svg>