<svg id="Layer_1" data-name="Layer 1" xmlns="http://www.w3.org/2000/svg" viewBox="0 0 107.19 100.4"><defs><style>.cls-1{fill:#e8e8e8;}.cls-2{fill:#f4f4f4;}.cls-3{fill:#5994cf;}.cls-4{fill:#4d7fb1;}.cls-5{fill:none;}.cls-6{fill:#f15e73;}.cls-7{fill:#f6d868;}.cls-8{fill:#269463;}.cls-9{fill:#e35668;}.cls-10{fill:#c0e3ef;}.cls-11{fill:#a8d6e2;}.cls-12{fill:#4a5764;}.cls-13{fill:#010101;}</style></defs><title>PROFESSIONAL_WEBSITE_TEMPLATES</title><path class="cls-1" d="M100.93,1.12H98.32A5.37,5.37,0,0,1,98.68,3V97.54a5.37,5.37,0,0,1-.36,1.93h3a4.89,4.89,0,0,0,4.89-4.89V6.35a5.23,5.23,0,0,0-5.23-5.23Zm0,0"/><path class="cls-2" d="M101.28,99.47H5.92A4.89,4.89,0,0,1,1,94.57V6.63A5.51,5.51,0,0,1,6.53,1.12h94.4a5.23,5.23,0,0,1,5.23,5.23V94.57a4.89,4.89,0,0,1-4.89,4.89Zm0,0"/><path class="cls-3" d="M1,20H106.17V6.16a5,5,0,0,0-5-5H6.07a5,5,0,0,0-5,5Zm0,0"/><path class="cls-4" d="M101.13,1.12H98.32A5.37,5.37,0,0,1,98.68,3V20h7.49V6.16a5,5,0,0,0-5-5Zm0,0"/><rect class="cls-5" x="1.03" y="1.12" width="105.14" height="98.36"/><path class="cls-6" d="M17.38,10.58a3.73,3.73,0,1,1-3.73-3.73,3.73,3.73,0,0,1,3.73,3.73Zm0,0"/><path class="cls-7" d="M30,10.58a3.73,3.73,0,1,1-3.73-3.73A3.74,3.74,0,0,1,30,10.58Zm0,0"/><path class="cls-8" d="M42.67,10.58a3.73,3.73,0,1,1-3.73-3.73,3.74,3.74,0,0,1,3.73,3.73Zm0,0"/><path class="cls-6" d="M95.71,36.73H11.49a2.8,2.8,0,0,1-2.8-2.8V30.6a2.8,2.8,0,0,1,2.8-2.8H95.71a2.8,2.8,0,0,1,2.8,2.8v3.33a2.8,2.8,0,0,1-2.8,2.8Zm0,0"/><path class="cls-9" d="M95.71,27.81H89a3.1,3.1,0,0,1,1.7,2.76V34A3.1,3.1,0,0,1,89,36.73h6.74a2.8,2.8,0,0,0,2.8-2.8V30.6a2.8,2.8,0,0,0-2.8-2.8Zm0,0"/><path class="cls-10" d="M44.35,90.94h-32a3.68,3.68,0,0,1-3.68-3.68V49.2a3.68,3.68,0,0,1,3.68-3.68h32A3.68,3.68,0,0,1,48,49.2V87.26a3.68,3.68,0,0,1-3.68,3.68Zm0,0"/><path class="cls-11" d="M44.35,45.52H41.47a4.08,4.08,0,0,1,.67,2.24V88.71a4.08,4.08,0,0,1-.67,2.24h2.87A3.68,3.68,0,0,0,48,87.26V49.2a3.68,3.68,0,0,0-3.68-3.68Zm0,0"/><path class="cls-10" d="M94.83,90.94h-32a3.68,3.68,0,0,1-3.68-3.68V49.2a3.68,3.68,0,0,1,3.68-3.68h32A3.68,3.68,0,0,1,98.5,49.2V87.26a3.68,3.68,0,0,1-3.68,3.68Zm0,0"/><path class="cls-11" d="M94.83,45.52H92.25a4.09,4.09,0,0,1,.6,2.13V88.81a4.09,4.09,0,0,1-.6,2.13h2.57a3.68,3.68,0,0,0,3.68-3.68V49.2a3.68,3.68,0,0,0-3.68-3.68Zm0,0"/><path class="cls-12" d="M56.49,12.17H95.13a1.59,1.59,0,0,0,0-3.17H56.49a1.59,1.59,0,0,0,0,3.17Zm0,0"/><path class="cls-13" d="M13.65,15.14a4.56,4.56,0,1,1,4.56-4.56A4.56,4.56,0,0,1,13.65,15.14Zm0-7.47a2.91,2.91,0,1,0,2.91,2.91A2.92,2.92,0,0,0,13.65,7.67Z"/><path class="cls-13" d="M26.29,15.14a4.56,4.56,0,1,1,4.56-4.56A4.56,4.56,0,0,1,26.29,15.14Zm0-7.47a2.91,2.91,0,1,0,2.91,2.91A2.92,2.92,0,0,0,26.29,7.67Z"/><path class="cls-13" d="M38.93,15.14a4.56,4.56,0,1,1,4.56-4.56A4.56,4.56,0,0,1,38.93,15.14Zm0-7.47a2.91,2.91,0,1,0,2.91,2.91A2.92,2.92,0,0,0,38.93,7.67Z"/><path class="cls-13" d="M95.13,13H56.49a2.41,2.41,0,0,1,0-4.82H95.13a2.41,2.41,0,0,1,0,4.82ZM56.49,9.82a.77.77,0,0,0,0,1.53H95.13a.77.77,0,0,0,0-1.53Z"/><path class="cls-12" d="M41,51.25H21.47a1.59,1.59,0,0,0,0,3.17H41a1.59,1.59,0,0,0,0-3.17Zm0,0"/><path class="cls-12" d="M41,60.62H15.68a1.59,1.59,0,1,0,0,3.17H41a1.59,1.59,0,0,0,0-3.17Zm0,0"/><path class="cls-12" d="M41,70H15.68a1.59,1.59,0,1,0,0,3.17H41A1.59,1.59,0,0,0,41,70Zm0,0"/><path class="cls-12" d="M41,79.38H15.68a1.59,1.59,0,1,0,0,3.17H41a1.59,1.59,0,0,0,0-3.17Zm0,0"/><path class="cls-12" d="M91.52,51.25H71.94a1.59,1.59,0,1,0,0,3.17H91.52a1.59,1.59,0,1,0,0-3.17Zm0,0"/><path class="cls-12" d="M91.52,60.62H66.15a1.59,1.59,0,0,0,0,3.17H91.52a1.59,1.59,0,1,0,0-3.17Zm0,0"/><path class="cls-12" d="M91.52,70H66.15a1.59,1.59,0,0,0,0,3.17H91.52a1.59,1.59,0,1,0,0-3.17Zm0,0"/><path class="cls-12" d="M91.52,79.38H66.15a1.59,1.59,0,0,0,0,3.17H91.52a1.59,1.59,0,1,0,0-3.17Zm0,0"/><path class="cls-13" d="M101.28,100.4H5.92A5.92,5.92,0,0,1,0,94.48V6.53A6.54,6.54,0,0,1,6.53,0h94.4a6.27,6.27,0,0,1,6.26,6.26V94.48A5.92,5.92,0,0,1,101.28,100.4ZM6.53,2.05A4.48,4.48,0,0,0,2.05,6.53V94.48a3.87,3.87,0,0,0,3.86,3.86h95.36a3.87,3.87,0,0,0,3.86-3.86V6.26a4.21,4.21,0,0,0-4.2-4.2Z"/><path class="cls-13" d="M107.19,21H0V6.07A6.07,6.07,0,0,1,6.07,0h95.06a6.07,6.07,0,0,1,6.07,6.07ZM2.05,18.93H105.14V6.07a4,4,0,0,0-4-4H6.07a4,4,0,0,0-4,4Z"/><path class="cls-13" d="M44.35,92h-32a4.71,4.71,0,0,1-4.7-4.71V49.2a4.71,4.71,0,0,1,4.7-4.71h32a4.71,4.71,0,0,1,4.7,4.71V87.26A4.71,4.71,0,0,1,44.35,92Zm-32-45.42A2.65,2.65,0,0,0,9.72,49.2V87.26a2.65,2.65,0,0,0,2.65,2.65h32A2.65,2.65,0,0,0,47,87.26V49.2a2.65,2.65,0,0,0-2.65-2.65Z"/><path class="cls-13" d="M94.83,92h-32a4.71,4.71,0,0,1-4.7-4.71V49.2a4.71,4.71,0,0,1,4.7-4.71h32a4.71,4.71,0,0,1,4.7,4.71V87.26A4.71,4.71,0,0,1,94.83,92Zm-32-45.42a2.65,2.65,0,0,0-2.65,2.65V87.26a2.65,2.65,0,0,0,2.65,2.65h32a2.65,2.65,0,0,0,2.65-2.65V49.2a2.65,2.65,0,0,0-2.65-2.65Z"/><path class="cls-13" d="M95.71,37.75H11.49a3.83,3.83,0,0,1-3.82-3.82V30.6a3.83,3.83,0,0,1,3.82-3.82H95.71a3.83,3.83,0,0,1,3.82,3.82v3.33A3.83,3.83,0,0,1,95.71,37.75ZM11.49,28.83A1.77,1.77,0,0,0,9.72,30.6v3.33a1.77,1.77,0,0,0,1.77,1.77H95.71a1.77,1.77,0,0,0,1.77-1.77V30.6a1.77,1.77,0,0,0-1.77-1.77Z"/></svg>