<svg id="Layer_1" data-name="Layer 1" xmlns="http://www.w3.org/2000/svg" viewBox="0 0 120.46 100"><defs><style>.cls-1{fill:#fcf2d0;}.cls-2{fill:#f6e3a3;}.cls-3{fill:#f7ef87;}.cls-4{fill:#efd176;}.cls-5{fill:#6a96d7;}.cls-6{fill:#eda1ab;}.cls-7{fill:#e1b89a;}</style></defs><title>PROFESSIONAL_BLOG_SITE</title><path class="cls-1" d="M72.91,98.78H27.05A25.87,25.87,0,0,1,1.19,72.91V27.05A25.87,25.87,0,0,1,27.05,1.19H72.91A25.87,25.87,0,0,1,98.78,27.05V72.91A25.87,25.87,0,0,1,72.91,98.78Zm0,0"/><path class="cls-2" d="M38.68,1.19H27.05A25.87,25.87,0,0,0,1.19,27.05V72.91A25.87,25.87,0,0,0,27.05,98.78H72.91l.89,0C42.38,77.55,31.05,32.49,38.68,1.19Zm0,0"/><path d="M72.91,100H27.05A27.06,27.06,0,0,1,.1,75.28a1.19,1.19,0,0,1,2.37-.2A24.82,24.82,0,0,0,27.05,97.62H72.91A24.71,24.71,0,0,0,97.59,72.94V27.09A24.71,24.71,0,0,0,72.91,2.41H27.05A24.71,24.71,0,0,0,2.38,27.09V53.66a1.19,1.19,0,0,1-2.38,0V27.09A27.09,27.09,0,0,1,27.05,0H72.91A27.09,27.09,0,0,1,100,27.09V72.94A27.09,27.09,0,0,1,72.91,100Z"/><path d="M1.19,68.13A1.19,1.19,0,0,1,0,66.94v-5a1.19,1.19,0,1,1,2.38,0v5A1.19,1.19,0,0,1,1.19,68.13Z"/><path class="cls-3" d="M117.22,19.41,62.57,74.06A38.39,38.39,0,0,1,52.08,81.5L41.54,86.57a5.73,5.73,0,0,1-7.65-7.65L39,68.39A38.39,38.39,0,0,1,46.41,57.9L101.06,3.25a7,7,0,0,1,10,0l6.21,6.21a7,7,0,0,1,0,10Zm0,0"/><path class="cls-4" d="M70,34.28,46.41,57.9A38.39,38.39,0,0,0,39,68.39L33.89,78.93a5.73,5.73,0,0,0,7.65,7.65L52.08,81.5a38.39,38.39,0,0,0,10.49-7.44l13-13C69,53.27,66.45,44.78,70,34.28Zm0,0"/><path class="cls-5" d="M67.73,54.52a1.78,1.78,0,0,1-1.26-3L80.06,37.89a1.78,1.78,0,1,1,2.52,2.52L69,54a1.78,1.78,0,0,1-1.26.52Zm0,0"/><path class="cls-6" d="M101.06,3.25l-6,6,16.16,16.16,6-6a7,7,0,0,0,0-10L111,3.25a7,7,0,0,0-10,0Zm0,0"/><path class="cls-5" d="M111.18,25.45l-6.92,6.92L88.1,16.21,95,9.29Zm0,0"/><path class="cls-7" d="M45.63,58.71A38.39,38.39,0,0,0,39,68.39L33.89,78.93a5.73,5.73,0,0,0,7.65,7.65L52.08,81.5a38.39,38.39,0,0,0,9.68-6.67Zm0,0"/><path d="M39,88.34a6.94,6.94,0,0,1-6.2-9.93L37.9,67.87a39.47,39.47,0,0,1,7.67-10.82L100.22,2.41a8.22,8.22,0,0,1,11.63,0l6.21,6.21a8.23,8.23,0,0,1,0,11.63L63.41,74.9a39.47,39.47,0,0,1-10.82,7.67L42.06,87.64A7,7,0,0,1,39,88.34Zm67-86a5.81,5.81,0,0,0-4.14,1.71L47.25,58.74A37.11,37.11,0,0,0,40,68.9L35,79.44A4.54,4.54,0,0,0,41,85.5l10.54-5.07a37.11,37.11,0,0,0,10.17-7.21l54.65-54.65a5.86,5.86,0,0,0,0-8.27l-6.21-6.21A5.81,5.81,0,0,0,106,2.38Z"/><rect x="52.84" y="55.89" width="2.38" height="22.1" transform="translate(-31.41 56.94) rotate(-44.42)"/><rect x="95.23" y="13.77" width="2.38" height="21.9" transform="translate(11.36 76.42) rotate(-45.67)"/><rect x="101.91" y="5.94" width="2.38" height="22.86" transform="translate(17.91 77.99) rotate(-45)"/></svg>