<svg id="Layer_1" data-name="Layer 1" xmlns="http://www.w3.org/2000/svg" viewBox="0 0 100 100"><defs><style>.cls-1{fill:#00e9f4;}.cls-2{fill:#898890;}.cls-3{fill:#ffdaaa;}.cls-4{fill:#a78966;}.cls-5{fill:#61ffff;}</style></defs><title>programming_app</title><path d="M92.85,50.87H7.57a1.06,1.06,0,1,1,0-2.11H92.85a1.06,1.06,0,1,1,0,2.11Z"/><path class="cls-1" d="M98.95,9.49V38.19H66.88l-.19.05a1,1,0,0,0-.25-.44L62.2,33.56a1,1,0,0,0-1.28-.08L56.36,37a11.41,11.41,0,0,0-1.69-.69L54,30.59a1,1,0,0,0-1-.84H47a1,1,0,0,0-1,.84l-.71,5.74a11.41,11.41,0,0,0-1.69.69l-4.56-3.54a1,1,0,0,0-1.28.08L33.56,37.8a1,1,0,0,0-.25.44l-.18-.05H1.06V9.49Zm0,0"/><path class="cls-2" d="M98.95,2.74V9.49H1.06V2.74A1.69,1.69,0,0,1,2.74,1.06H97.26a1.69,1.69,0,0,1,1.69,1.69Zm0,0"/><path d="M66,39.53l-.28-1-4.17-4.17-5,3.91-.6-.3a10.39,10.39,0,0,0-1.53-.63l-.64-.21-.78-6.33H47.07l-.78,6.33-.64.21a10.39,10.39,0,0,0-1.53.63l-.6.3-5-3.91-4.17,4.17-.3,1-1-.26H0V8.44H100v30.8H67Zm1.3-2.4H97.89V10.55H2.11V37.13H32.74l.06-.07,4.25-4.25a2,2,0,0,1,2.68-.16l4,3.14.58-.24L45,30.46a2,2,0,0,1,2-1.77h6a2,2,0,0,1,2,1.77l.63,5.09.58.24,4-3.15a2,2,0,0,1,2.69.18l4.23,4.23ZM38.43,34.31h0Zm23,0h0Zm.12,0h0Zm-23,0h0ZM53,30.8h0Zm-6,0h0Z"/><path d="M100,10.55H0V2.74A2.75,2.75,0,0,1,2.74,0H97.26A2.75,2.75,0,0,1,100,2.74ZM2.11,8.44H97.89V2.74a.63.63,0,0,0-.63-.63H2.74a.63.63,0,0,0-.63.63Z"/><path class="cls-3" d="M90.51,90.51a39.66,39.66,0,0,1-.9,8.44H10.39a39.65,39.65,0,0,1-.89-8.44A40.53,40.53,0,0,1,32.13,54.15h0l4.19.52A11.36,11.36,0,0,0,37,56.36l-3.54,4.56a1,1,0,0,0,.08,1.28l4.24,4.24a1,1,0,0,0,1.28.08L43.64,63a11.34,11.34,0,0,0,1.69.69L46,69.41a1,1,0,0,0,1,.84h6a1,1,0,0,0,1-.84l.71-5.74A11.34,11.34,0,0,0,56.36,63l4.56,3.54a1,1,0,0,0,1.28-.08l4.24-4.24a1,1,0,0,0,.08-1.28L63,56.36a11.36,11.36,0,0,0,.69-1.69l4.19-.52h0A40.54,40.54,0,0,1,90.51,90.51Zm0,0"/><path class="cls-4" d="M70.25,47v6a1,1,0,0,1-.84,1l-1.54.19h0l-4.19.52A11.36,11.36,0,0,1,63,56.36l3.54,4.56a1,1,0,0,1-.08,1.28L62.2,66.44a1,1,0,0,1-1.28.08L56.36,63a11.34,11.34,0,0,1-1.69.69L54,69.41a1,1,0,0,1-1,.84H47a1,1,0,0,1-1-.84l-.71-5.74A11.34,11.34,0,0,1,43.64,63l-4.56,3.54a1,1,0,0,1-1.28-.08L33.56,62.2a1,1,0,0,1-.08-1.28L37,56.36a11.36,11.36,0,0,1-.69-1.69l-4.19-.52h0L30.59,54a1,1,0,0,1-.84-1V47a1,1,0,0,1,.84-1l5.74-.71A11.33,11.33,0,0,1,37,43.64l-3.54-4.56a.91.91,0,0,1-.17-.84,1,1,0,0,1,.25-.44l4.24-4.24a1,1,0,0,1,1.28-.08L43.64,37a11.41,11.41,0,0,1,1.69-.69L46,30.59a1,1,0,0,1,1-.84h6a1,1,0,0,1,1,.84l.71,5.74a11.41,11.41,0,0,1,1.69.69l4.56-3.54a1,1,0,0,1,1.28.08l4.24,4.24a1,1,0,0,1,.25.44.91.91,0,0,1-.17.84L63,43.64a11.33,11.33,0,0,1,.69,1.69l5.74.71a1,1,0,0,1,.84,1Zm0,0"/><path d="M47,71.31a2,2,0,0,1-2-1.77l-.63-5.09-.58-.24-4,3.15A2,2,0,0,1,37,67.17l-4.22-4.22a2,2,0,0,1-.17-2.69l3.14-4q-.13-.29-.24-.59L30.46,55a2,2,0,0,1-1.77-2V47a2,2,0,0,1,1.77-2l5.09-.63q.11-.29.24-.58l-3.14-4a2,2,0,0,1-.35-1.81,2.08,2.08,0,0,1,.51-.87l4.25-4.25a2,2,0,0,1,2.68-.16l4,3.14.58-.24L45,30.46a2,2,0,0,1,2-1.77h6a2,2,0,0,1,2,1.77l.63,5.09.58.24,4-3.15a2,2,0,0,1,2.69.18l4.23,4.23a2.1,2.1,0,0,1,.52.89,2,2,0,0,1-.36,1.8l-3.14,4q.13.29.24.58l5.09.63a2,2,0,0,1,1.77,2v6a2,2,0,0,1-1.77,2l-1.62.19-3.47.43q-.11.29-.24.59l3.15,4A2,2,0,0,1,67.17,63l-4.22,4.22a2,2,0,0,1-2.68.17l-4-3.14-.58.24L55,69.54a2,2,0,0,1-2,1.77H47Zm0-2.11h0Zm-3.48-7.46.6.3a10.32,10.32,0,0,0,1.53.63l.64.21.78,6.33h5.86l.78-6.33.64-.21A10.32,10.32,0,0,0,55.89,62l.6-.3,5,3.91,4.14-4.14-3.91-5,.3-.6a10.37,10.37,0,0,0,.63-1.53l.2-.64,6.33-.78V47.07l-6.33-.78-.21-.64A10.31,10.31,0,0,0,62,44.11l-.3-.6,3.91-5-4.14-4.14-5,3.91-.6-.3a10.38,10.38,0,0,0-1.53-.63l-.64-.21-.78-6.33H47.07l-.78,6.33-.64.21a10.38,10.38,0,0,0-1.53.63l-.6.3-5-3.91-4.14,4.14,3.91,5-.3.6a10.3,10.3,0,0,0-.63,1.53l-.21.64-6.33.78v5.86l1.47.18,4.86.61.2.64A10.34,10.34,0,0,0,38,55.89l.3.6-3.91,5,4.14,4.14ZM53,69.2h0Zm8.44-3.5h0Zm-23,0h0Zm.12,0h0Zm23,0h0Zm4.13-4.12h0Zm-31.38,0h0Zm31.38-.11h0Zm-31.4,0h0ZM69.2,53h0ZM30.8,53h0Zm38.4-6h0ZM30.8,47h0Zm7.63-12.68h0Zm23,0h0Zm.12,0h0Zm-23,0h0ZM47,30.8h0Zm6,0h0Z"/><path class="cls-3" d="M58.44,50A8.44,8.44,0,1,1,50,41.56,8.44,8.44,0,0,1,58.44,50Zm0,0"/><path d="M50,59.49A9.49,9.49,0,1,1,59.49,50,9.51,9.51,0,0,1,50,59.49Zm0-16.88A7.38,7.38,0,1,0,57.38,50,7.39,7.39,0,0,0,50,42.62Z"/><path d="M93.88,15.62H70.25a1.06,1.06,0,0,1,0-2.11H93.88a1.06,1.06,0,0,1,0,2.11Z"/><path d="M93.88,20.26H78.5a1.06,1.06,0,1,1,0-2.11H93.88a1.06,1.06,0,0,1,0,2.11Z"/><path d="M77.54,91.79H75.43a7.38,7.38,0,1,0-14.77,0H58.55a9.49,9.49,0,1,1,19,0Z"/><rect x="62.04" y="92.24" width="11.81" height="2.11"/><path d="M42.08,91.79H40a7.38,7.38,0,1,0-14.77,0H23.09a9.49,9.49,0,1,1,19,0Z"/><rect x="26.58" y="92.24" width="11.81" height="2.11"/><path d="M93.88,26H71.29a1.06,1.06,0,0,1,0-2.11H93.88a1.06,1.06,0,0,1,0,2.11Z"/><path d="M93.88,30.8H63.3a1.06,1.06,0,1,1,0-2.11H93.88a1.06,1.06,0,0,1,0,2.11Z"/><path d="M63.3,15.62h-53a1.06,1.06,0,0,1,0-2.11h53a1.06,1.06,0,0,1,0,2.11Z"/><path d="M68.15,20.26H10.31a1.06,1.06,0,0,1,0-2.11H68.15a1.06,1.06,0,0,1,0,2.11Z"/><path d="M61.79,26H10.31a1.06,1.06,0,0,1,0-2.11H61.79a1.06,1.06,0,1,1,0,2.11Z"/><path d="M40.9,30.8H15.16a1.06,1.06,0,0,1,0-2.11H40.9a1.06,1.06,0,1,1,0,2.11Z"/><path d="M32.06,35H9.92V30.61H4.85V13.93a1.06,1.06,0,0,1,2.11,0V28.5H12v4.43h20a1.06,1.06,0,0,1,0,2.11Z"/><path d="M90.46,100H9.54l-.18-.83a40.78,40.78,0,0,1-.92-8.66A41.59,41.59,0,0,1,31.66,53.2l.22-.11h.39l4.86.61.2.64A10.34,10.34,0,0,0,38,55.89l.3.6-3.91,5,4.14,4.14,5-3.91.6.3a10.32,10.32,0,0,0,1.53.63l.64.21.78,6.33h5.86l.78-6.33.64-.21A10.32,10.32,0,0,0,55.89,62l.6-.3,5,3.91,4.14-4.14-3.91-5,.3-.6a10.37,10.37,0,0,0,.63-1.53l.2-.64,5-.62h.25l.24.11A41.79,41.79,0,0,1,89.63,78a1.06,1.06,0,0,1-2,.64A39.67,39.67,0,0,0,67.68,55.24l-3.23.4q-.11.29-.24.59l3.15,4A2,2,0,0,1,67.17,63l-4.22,4.22a2,2,0,0,1-2.68.17l-4-3.14-.58.24L55,69.54a2,2,0,0,1-2,1.77H47a2,2,0,0,1-2-1.77l-.63-5.09-.58-.24-4,3.15A2,2,0,0,1,37,67.17l-4.22-4.22a2,2,0,0,1-.17-2.69l3.14-4q-.13-.29-.24-.59l-3.24-.4A39.23,39.23,0,0,0,10.55,90.51a38.67,38.67,0,0,0,.7,7.38h77.5a38.7,38.7,0,0,0,.7-7.38,39.68,39.68,0,0,0-.37-5.38,1.06,1.06,0,0,1,2.09-.29,41.8,41.8,0,0,1,.39,5.66,40.79,40.79,0,0,1-.92,8.66ZM47,69.2h0Zm6,0h0Zm8.44-3.5h0Zm-23,0h0Zm.12,0h0Zm23,0h0Zm4.13-4.12h0Zm-31.38,0h0Zm31.38-.11h0Zm-31.4,0h0Z"/><path class="cls-5" d="M98.95,50a5.06,5.06,0,1,1-5.06-5.06A5.06,5.06,0,0,1,98.95,50Zm0,0"/><path d="M93.88,56.12A6.12,6.12,0,1,1,100,50,6.13,6.13,0,0,1,93.88,56.12Zm0-10.13a4,4,0,1,0,4,4A4,4,0,0,0,93.88,46Z"/><path class="cls-5" d="M11.18,50a5.06,5.06,0,1,1-5.06-5.06A5.06,5.06,0,0,1,11.18,50Zm0,0"/><path d="M6.12,56.12A6.12,6.12,0,1,1,12.24,50,6.13,6.13,0,0,1,6.12,56.12ZM6.12,46a4,4,0,1,0,4,4A4,4,0,0,0,6.12,46Z"/></svg>