<svg id="Layer_1" data-name="Layer 1" xmlns="http://www.w3.org/2000/svg" viewBox="0 0 116.62 100"><defs><style>.cls-1{fill:#f9ccb4;}.cls-2{fill:#fff;}.cls-3{fill:#e8e8e8;}.cls-4{fill:#cfcfcf;}.cls-5{fill:#fcc08d;}</style></defs><title>Progressive_web_apps_development_services</title><polyline class="cls-1" points="109.12 1.16 115.46 1.16 115.46 22.22 1.16 22.22 1.16 1.16 88.53 1.16"/><path class="cls-2" d="M16.93,11.44a4.52,4.52,0,1,1-4.52-4.52,4.52,4.52,0,0,1,4.52,4.52Zm0,0"/><path class="cls-3" d="M31.55,11.44A4.52,4.52,0,1,1,27,6.93a4.52,4.52,0,0,1,4.52,4.52Zm0,0"/><path class="cls-4" d="M46.17,11.44a4.52,4.52,0,1,1-4.52-4.52,4.52,4.52,0,0,1,4.52,4.52Zm0,0"/><path d="M12.41,17.12a5.68,5.68,0,1,1,5.68-5.68A5.69,5.69,0,0,1,12.41,17.12Zm0-9a3.36,3.36,0,1,0,3.36,3.35A3.36,3.36,0,0,0,12.41,8.09Z"/><path d="M27,17.12a5.68,5.68,0,1,1,5.68-5.68A5.69,5.69,0,0,1,27,17.12Zm0-9a3.36,3.36,0,1,0,3.36,3.35A3.36,3.36,0,0,0,27,8.09Z"/><path d="M41.66,17.12a5.68,5.68,0,1,1,5.68-5.68A5.69,5.69,0,0,1,41.66,17.12Zm0-9A3.36,3.36,0,1,0,45,11.44,3.36,3.36,0,0,0,41.66,8.09Z"/><path class="cls-2" d="M1.16,22.22h114.3V91.67a7.17,7.17,0,0,1-7.17,7.17H7.25a6.09,6.09,0,0,1-6.09-6.09Z"/><path d="M116.62,23.38H0V0H98.09a1.16,1.16,0,0,1,0,2.32H2.32V21.06h112V2.32h-5.17a1.16,1.16,0,1,1,0-2.32h7.5Z"/><path d="M107.9,100H8.18A8.19,8.19,0,0,1,0,91.82V21.06H116.62V91.28A8.73,8.73,0,0,1,107.9,100ZM2.32,23.38V91.82a5.86,5.86,0,0,0,5.85,5.85H107.9a6.4,6.4,0,0,0,6.4-6.4V23.38Z"/><path d="M104,2.32h-.66a1.16,1.16,0,1,1,0-2.32H104a1.16,1.16,0,1,1,0,2.32Z"/><path class="cls-5" d="M44.73,87.17,49,71.36l12,12Zm0,0"/><path class="cls-4" d="M60.95,83.34l-12-12L64.72,55.6,80.93,39.39l12,12L75.82,68.47Zm0,0"/><path class="cls-1" d="M80.93,39.39l1.29-1.28a8.47,8.47,0,0,1,12,12l-1.28,1.28Zm0,0"/><path d="M44.73,88.34a1.16,1.16,0,0,1-1.12-1.46l4.23-15.82a1.16,1.16,0,0,1,1.94-.52l12,12a1.16,1.16,0,0,1-.55,2L45,88.31A1.16,1.16,0,0,1,44.73,88.34ZM49.56,73.6l-3.21,12,12.3-2.91Z"/><path d="M60.95,84.5a1.16,1.16,0,0,1-.82-.34l-12-12a1.16,1.16,0,0,1,0-1.64l32-32a1.16,1.16,0,0,1,1.64,0l12,12a1.16,1.16,0,0,1,0,1.64l-32,32A1.16,1.16,0,0,1,60.95,84.5ZM50.6,71.36,60.95,81.7,91.27,51.37,80.93,41Z"/><path d="M92.92,52.53a1.16,1.16,0,0,1-.82-.34l-12-12a1.16,1.16,0,0,1,0-1.64l1.29-1.28A9.64,9.64,0,1,1,95,50.91l-1.28,1.28A1.16,1.16,0,0,1,92.92,52.53ZM82.57,39.39,92.92,49.73l.46-.46A7.31,7.31,0,1,0,83,38.93Z"/><path d="M43.69,88.34H16.93a1.16,1.16,0,1,1,0-2.32H43.69a1.16,1.16,0,1,1,0,2.32Z"/><path d="M36.85,64H18.69a1.16,1.16,0,1,1,0-2.32H36.85a1.16,1.16,0,0,1,0,2.32Z"/><path d="M40.77,64H40.7a1.16,1.16,0,1,1,0-2.32h.07a1.16,1.16,0,0,1,0,2.32Z"/><path d="M57.54,64h-13a1.16,1.16,0,0,1,0-2.32h13a1.16,1.16,0,0,1,0,2.32Z"/><path d="M55.18,78.21a1.16,1.16,0,0,1-.82-2L86.08,44.85a1.16,1.16,0,0,1,1.63,1.65L56,77.87A1.16,1.16,0,0,1,55.18,78.21Z"/></svg>