<svg id="Layer_1" data-name="Layer 1" xmlns="http://www.w3.org/2000/svg" viewBox="0 0 61.42 99.98"><defs><style>.cls-1{fill:#e58e13;}.cls-2{fill:#f7d360;}.cls-3{fill:#fcfcfc;}.cls-4{fill:#fff;}</style></defs><title>push_notifications</title><path class="cls-1" d="M54.78,98.91H6.64a5.57,5.57,0,0,1-5.57-5.57V6.75A5.57,5.57,0,0,1,6.64,1.18H54.78a5.57,5.57,0,0,1,5.57,5.57V93.34A5.57,5.57,0,0,1,54.78,98.91Z"/><path class="cls-2" d="M54.78,98.91h-3a5.55,5.55,0,0,0,.39-2V10.27A5.57,5.57,0,0,0,46.56,4.7H1.46A5.57,5.57,0,0,1,6.64,1.18H54.78a5.57,5.57,0,0,1,5.57,5.57V93.34A5.57,5.57,0,0,1,54.78,98.91Z"/><rect class="cls-3" x="6.47" y="11.16" width="48.67" height="74.2" rx="1.07" ry="1.07"/><path class="cls-3" d="M54.07,11.16H46.48V80.81a1.07,1.07,0,0,1-1.07,1.07H6.47v2.41a1.07,1.07,0,0,0,1.07,1.07H54.07a1.07,1.07,0,0,0,1.07-1.07V12.23A1.07,1.07,0,0,0,54.07,11.16Z"/><circle class="cls-4" cx="30.71" cy="92.47" r="2.99"/><path d="M26.29,92.47a4.42,4.42,0,1,0,4.42-4.42A4.43,4.43,0,0,0,26.29,92.47Zm6,0a1.56,1.56,0,1,1-1.56-1.56A1.56,1.56,0,0,1,32.27,92.47Z"/><path d="M53.35,86.22H8.25a2.64,2.64,0,0,1-2.64-2.64V12.94a2.64,2.64,0,0,1,2.64-2.64H53.35A2.64,2.64,0,0,1,56,12.94V83.58A2.64,2.64,0,0,1,53.35,86.22ZM8.25,12a.93.93,0,0,0-.93.93V83.58a.93.93,0,0,0,.93.93H53.35a.93.93,0,0,0,.93-.93V12.94a.93.93,0,0,0-.93-.93Z"/><path d="M1.07,27.94A1.07,1.07,0,0,1,0,26.87V23.66a1.07,1.07,0,1,1,2.14,0v3.21A1.07,1.07,0,0,1,1.07,27.94Z"/><path d="M54.62,100H6.8A6.81,6.81,0,0,1,0,93.18V32.32a1.07,1.07,0,1,1,2.14,0V93.18A4.67,4.67,0,0,0,6.8,97.84H54.62a4.67,4.67,0,0,0,4.66-4.66V6.8a4.67,4.67,0,0,0-4.66-4.66H6.8A4.67,4.67,0,0,0,2.14,6.8V18.2A1.07,1.07,0,1,1,0,18.2V6.8A6.81,6.81,0,0,1,6.8,0H54.62a6.81,6.81,0,0,1,6.8,6.8V93.18A6.81,6.81,0,0,1,54.62,100Z"/><path d="M22.65,52.92q.31.67.69,1.32"/><path class="cls-2" d="M43.39,53.79H16.5a2.3,2.3,0,0,0,2.32-1.71c1.91-5.16-3.18-20.2,11.12-20.2s9.21,15,11.12,20.2a2.3,2.3,0,0,0,2.32,1.71Zm0,0"/><path class="cls-1" d="M46,56.39a2.6,2.6,0,0,1-2.6,2.6H16.5a2.6,2.6,0,1,1,0-5.21h26.9a2.6,2.6,0,0,1,2.6,2.6Zm0,0"/><path class="cls-1" d="M41.07,52.07h-14a2.67,2.67,0,0,1-2.67-2.75c.2-6.37-.82-17.33,5.42-17.45C12.72,32,23.66,53.79,16.5,53.79h26.9a2.3,2.3,0,0,1-2.32-1.71Zm0,0"/><path class="cls-2" d="M46,56.39a2.6,2.6,0,0,1-2.6,2.6H24a2.6,2.6,0,0,1,0-5.21H43.39a2.6,2.6,0,0,1,2.6,2.6Zm0,0"/><path class="cls-1" d="M35.15,59a5.21,5.21,0,1,1-10.42,0Zm0,0"/><path class="cls-2" d="M34.9,60.6A5.22,5.22,0,0,1,31.34,64a5.21,5.21,0,0,1-2.66-1.74,1,1,0,0,1,.81-1.67Zm0,0"/><path class="cls-1" d="M32.59,32.07c0-.07,0-.13,0-.2a2.65,2.65,0,1,0-5.31,0c0,.07,0,.13,0,.2"/><path d="M32.45,32.86h-.1a1.07,1.07,0,0,1-1-1.16s0-.07,0-.1a1.59,1.59,0,0,0-3.17,0s0,.07,0,.1a1.07,1.07,0,0,1-2.13.19c0-.1,0-.19,0-.29a3.72,3.72,0,0,1,7.45,0c0,.1,0,.2,0,.29A1.07,1.07,0,0,1,32.45,32.86Z"/><path d="M43.68,60.06H16.78a3.67,3.67,0,1,1,0-7.35h26.9a3.67,3.67,0,1,1,0,7.35Zm-26.9-5.21a1.53,1.53,0,1,0,0,3.07h26.9a1.53,1.53,0,1,0,0-3.07Z"/><path d="M30,65.34a6.29,6.29,0,0,1-6.28-6.28V58H36.29v1.07A6.27,6.27,0,0,1,30,65.34Zm-4-5.21a4.14,4.14,0,0,0,8,0Z"/><path d="M43.39,54.86H16.5a1.07,1.07,0,1,1,0-2.14c.58,0,1-.17,1.32-1a18.81,18.81,0,0,0,.47-5.39c0-3.29,0-7,1.47-10.06,1.71-3.62,5.13-5.46,10.18-5.46,6.69,0,10.39,3.11,11.34,9.52a1.07,1.07,0,0,1-.48,1.06,1.07,1.07,0,0,1,.69.93c.09,1.37.1,2.71.11,4a18.82,18.82,0,0,0,.47,5.39c.31.85.74,1,1.32,1a1.07,1.07,0,0,1,0,2.14ZM19.72,52.72H40.18l-.11-.27a19.43,19.43,0,0,1-.6-6.12c0-1.27,0-2.58-.11-3.88a1.07,1.07,0,0,1,.49-1,1.07,1.07,0,0,1-.68-.85c-.79-5.39-3.55-7.69-9.22-7.69-4.27,0-6.89,1.34-8.25,4.23-1.23,2.61-1.25,6.09-1.27,9.16a19.43,19.43,0,0,1-.6,6.12Z"/></svg>