<svg id="Layer_1" data-name="Layer 1" xmlns="http://www.w3.org/2000/svg" viewBox="0 0 59.26 100"><defs><style>.cls-1{fill:#fcd597;}.cls-2{fill:#00acea;}.cls-3{fill:#00efd1;}.cls-4{fill:#9c27b0;}.cls-5{fill:#7b1fa2;}.cls-6{fill:#fff;}.cls-7{fill:#f7caa5;}</style></defs><title>PWA_app_shell_model</title><rect class="cls-1" x="1.04" y="1.04" width="57.17" height="97.91" rx="28.58" ry="28.58"/><path class="cls-2" d="M67.71,76.2"/><path class="cls-2" d="M57.48,79.42v13A6.51,6.51,0,0,1,51,99H7.56A6.51,6.51,0,0,1,1,92.44v-13h29l1,1.88A7.23,7.23,0,0,0,37.44,85H46a7.23,7.23,0,0,0,7-5.6h4.47ZM33.6,89.19a4.34,4.34,0,1,0-4.34,4.34,4.34,4.34,0,0,0,4.34-4.34Zm0,0"/><path class="cls-2" d="M57.48,7.79v9.77H1V7.79A6.51,6.51,0,0,1,7.56,1.28H51a6.51,6.51,0,0,1,6.51,6.51Zm0,0"/><path class="cls-3" d="M33.6,89.19a4.34,4.34,0,1,1-4.34-4.34,4.34,4.34,0,0,1,4.34,4.34Zm0,0"/><path d="M29.26,94.57a5.39,5.39,0,1,1,5.39-5.39A5.39,5.39,0,0,1,29.26,94.57Zm0-8.68a3.3,3.3,0,1,0,3.3,3.3A3.3,3.3,0,0,0,29.26,85.89Z"/><path d="M22.21,10.62H36.32a1.67,1.67,0,1,0,0-3.34H22.21a1.67,1.67,0,1,0,0,3.34Zm0,0"/><path d="M26.13,80.47H1a1,1,0,0,1,0-2.09H26.13a1,1,0,0,1,0,2.09Z"/><path d="M56.64,80.46H53a1,1,0,0,1,0-2.09h3.63a1,1,0,1,1,0,2.09Z"/><rect x="1.04" y="16.52" width="56.65" height="2.09"/><path d="M50.34,100H8.92A8.93,8.93,0,0,1,0,91.08V8.92A8.93,8.93,0,0,1,8.92,0H50.34a8.93,8.93,0,0,1,8.92,8.92V91.08A8.93,8.93,0,0,1,50.34,100ZM8.92,2.09A6.83,6.83,0,0,0,2.09,8.92V91.08a6.83,6.83,0,0,0,6.83,6.83H50.34a6.83,6.83,0,0,0,6.83-6.83V8.92a6.83,6.83,0,0,0-6.83-6.83Z"/><polygon class="cls-4" points="12.59 32.69 29.63 26.49 46.68 32.69 43.95 55.18 29.63 63.26 15.07 55.22 12.59 32.69"/><polyline class="cls-5" points="29.63 26.49 46.68 32.69 43.95 55.18 29.63 63.26"/><path d="M29.63,64,14.46,55.63,11.88,32.24l17.76-6.45,17.76,6.45L46.94,36a.66.66,0,1,1-1.31-.16L46,33.12,29.63,27.19,13.3,33.13,15.69,54.8l13.94,7.71,13.71-7.74,1.73-14.3a.66.66,0,0,1,1.31.16l-1.81,15Z"/><path class="cls-6" d="M33.73,41H35.8l0,.08-3,7.47c0,.09-.06.17-.09.26H30.6a.93.93,0,0,0,0-.12l-1.25-4-.13-.42,0,.12-.5,1.53-.95,2.88H25.65a1.22,1.22,0,0,0-.05-.12L24.66,47a.21.21,0,0,1,0-.19l.8-2.47.21-.64L26.8,46l.05-.14L28,42.51,28.45,41H30v0l1.49,4.91,0,.11.05-.11,1.51-3.55Z"/><path class="cls-6" d="M21.24,48.78h-2V41h3.48l.55.09a2.29,2.29,0,0,1,1.48.95.16.16,0,0,1,0,.16l-1.2,3.72a.13.13,0,0,1-.12.11,6.29,6.29,0,0,1-.65.09c-.49,0-1,0-1.46,0-.09,0-.13,0-.12.12s0,.44,0,.66Q21.25,47.83,21.24,48.78Zm0-6.29a.36.36,0,0,0,0,.06c0,.65,0,1.3,0,2,0,.07,0,.08.09.08.31,0,.63,0,.94,0a.88.88,0,0,0,.92-.73,1.66,1.66,0,0,0,0-.53.86.86,0,0,0-.73-.78,1.33,1.33,0,0,0-.27,0Z"/><path class="cls-6" d="M37.81,48.78a.67.67,0,0,0,0-.09l-.44-1.23a.12.12,0,0,0-.14-.09H34.53l0-.11L35.08,46a.12.12,0,0,1,.14-.09h1.63l0-.12-.74-2.08a.26.26,0,0,1,0-.2L37,41.1l0-.1.06.13,2.84,7.54,0,.09-.08,0Z"/><path class="cls-7" d="M37.25,63a1.87,1.87,0,0,1,1.87-1.87h1.67A1.87,1.87,0,0,1,42.66,63v1.31h0a1.87,1.87,0,0,1,1.87-1.87h1.65a1.87,1.87,0,0,1,1.87,1.87v3.42a2,2,0,0,1,2-2.19H51a2.2,2.2,0,0,1,2.22,2.19c0,5.27,0,2.62,0,10A7.32,7.32,0,0,1,53,79.42,7.23,7.23,0,0,1,46,85H37.44a7.23,7.23,0,0,1-6.3-3.72l-1-1.88-6.57-11.8.8-.61a4,4,0,0,1,5.56.4L32,69.85c0-2.88,0-6.34,0-9.59S32,54,32,52a2.15,2.15,0,0,1,2.22-2.13h.82A2.15,2.15,0,0,1,37.27,52c0,.53,0,4.61,0,8.25,0,1,0,1.93,0,2.77Zm0,0"/><path d="M46,86.06H37.44a8.28,8.28,0,0,1-7.21-4.25L22.6,68.12a1,1,0,0,1,.28-1.34l.78-.59a5,5,0,0,1,7,.53l.3.34c0-2.19,0-4.54,0-6.8C31,57.05,31,54,31,52a3.19,3.19,0,0,1,3.27-3.17h.82A3.19,3.19,0,0,1,38.32,52c0,.53,0,4.59,0,8.23a2.9,2.9,0,0,1,.82-.12h1.67a2.92,2.92,0,0,1,2.58,1.56,2.9,2.9,0,0,1,1.17-.25h1.65a2.92,2.92,0,0,1,2.91,2.91v.35a3.13,3.13,0,0,1,1-.16H51a3.24,3.24,0,0,1,3.27,3.23c0,3.48,0,3.52,0,5.26,0,.9,0,2.25,0,4.78A8.37,8.37,0,0,1,54,79.65,8.24,8.24,0,0,1,46,86.06ZM24.87,67.9,32,80.79A6.19,6.19,0,0,0,37.44,84H46a6.16,6.16,0,0,0,6-4.79,6.27,6.27,0,0,0,.16-1.39c0-2.52,0-3.88,0-4.78,0-1.74,0-1.77,0-5.24a1.16,1.16,0,0,0-.35-.81,1.12,1.12,0,0,0-.82-.33H50.1a1,1,0,0,0-1,1.14,1,1,0,0,1-2.09,0V64.34a.83.83,0,0,0-.82-.82H44.54a.83.83,0,0,0-.82.82,1,1,0,0,1-1,1,1.06,1.06,0,0,1-1.06-1V63a.83.83,0,0,0-.83-.82H39.12a.83.83,0,0,0-.82.82,1,1,0,0,1-1,1h0a1,1,0,0,1-1-1V60.26c0-3.64,0-7.72,0-8.25a1.11,1.11,0,0,0-1.18-1.09h-.82A1.11,1.11,0,0,0,33.05,52c0,2,0,5,0,8.25s0,6.71,0,9.59a1,1,0,0,1-1.83.69l-2.13-2.45A2.93,2.93,0,0,0,25,67.8l0,0Z"/></svg>