<svg id="Layer_1" data-name="Layer 1" xmlns="http://www.w3.org/2000/svg" viewBox="0 0 105.8 100"><defs><style>.cls-1{fill:#4795d1;}.cls-1,.cls-2{fill-rule:evenodd;}.cls-2{fill:#ffc851;}</style></defs><title>PYTHON_developers</title><path class="cls-1" d="M69.92,46.87c7.95-3.6,9.14-31,4.44-39.13C68.24-2.79,39.09-.69,29.88,6.87c-1,3.75-.93,10.53-.9,16H57.86v2.53H29s-12.87.08-12.87.08C-6,25.43-5.57,73.57,23.71,73.57c0,0,1-10.68,2.93-16,5.82-16.5,30.2-4.74,43.28-10.68Zm-30.23-28a6,6,0,1,1,6-6,6,6,0,0,1-6,6Zm0,0" transform="translate(0)"/><path class="cls-2" d="M81.1,26.42s-.78,10.68-2.64,16c-5.81,16.5-30.19,4.74-43.27,10.68-8,3.59-9.15,31-4.44,39.13,6.11,10.56,35.23,8.43,44.44.88,1.07-3.72,1-10.53.9-15.93H47.22V74.64H76.1s14.21-.05,14.21-.05c20.45,0,22.29-48.17-9.21-48.17ZM64.4,80a6,6,0,1,1-6,6,6,6,0,0,1,6-6Zm0,0" transform="translate(0)"/><path d="M23.71,74.09a23.13,23.13,0,0,1-8.87-1.68A21,21,0,0,1,8.07,67.9,27.69,27.69,0,0,1,.72,53.71a.52.52,0,0,1,1-.21C4.26,65.57,12.28,72.84,23.24,73c.23-2.15,1.23-10.91,2.91-15.66C29.86,46.87,40.86,47.43,51.5,48c6.53.33,13.28.67,18.2-1.57,1.89-.86,3.54-3.34,4.76-7.17a55.66,55.66,0,0,0,2.12-17.11C76.47,16,75.46,10.69,73.9,8c-1.78-3.07-5.8-5.25-11.62-6.3-11-2-25.83.57-31.95,5.46-.92,3.48-.88,9.65-.84,14.62v.52H57.86a.52.52,0,0,1,.52.52v2.53a.52.52,0,0,1-.52.52H27l-4.42,0-6.43,0a12.62,12.62,0,0,0-9.3,3.9C3.1,33.65.93,40.14,1,47.2a.52.52,0,0,1-.51.53h0A.52.52,0,0,1,0,47.22a31.32,31.32,0,0,1,1.45-10.1,20.16,20.16,0,0,1,4.65-8,13.8,13.8,0,0,1,10-4.21c3.41,0,12.31-.06,12.82-.08H57.34V23.34H29a.52.52,0,0,1-.52-.52v-1c0-5.38-.07-11.47.92-15.06a.52.52,0,0,1,.17-.26C32.6,4,37.79,2,44.17.86A54.78,54.78,0,0,1,62.47.69C68.6,1.79,72.86,4.14,74.8,7.48c3.48,6,3.81,22.17.65,32.07-1.34,4.18-3.13,6.8-5.32,7.8-5.15,2.34-12,2-18.69,1.66-5.2-.26-10.57-.53-14.93.51-4.84,1.17-7.83,3.77-9.39,8.21-1.85,5.21-2.9,15.79-2.91,15.89A.52.52,0,0,1,23.71,74.09ZM28.62,25a.51.51,0,0,0-.13.34A.52.52,0,0,1,28.62,25Zm.33-.18-.14,0Zm10.75-5.41a6.55,6.55,0,1,1,6.55-6.55A6.56,6.56,0,0,1,39.69,19.42Zm0-12.06a5.51,5.51,0,1,0,5.51,5.51A5.52,5.52,0,0,0,39.69,7.36Z" transform="translate(0)"/><path d="M50.88,100a46.89,46.89,0,0,1-8.28-.69c-6.11-1.11-10.36-3.46-12.29-6.8-3.49-6-3.82-22.17-.66-32.07,1.34-4.18,3.13-6.8,5.33-7.8,5.15-2.34,12-2,18.69-1.66,5.2.26,10.57.53,14.92-.51,4.84-1.17,7.82-3.77,9.38-8.21,1.82-5.21,2.6-15.77,2.61-15.88a.52.52,0,0,1,.52-.48,22.92,22.92,0,0,1,22.29,14.71.52.52,0,0,1-1,.4c-2.16-5.19-7.73-13.86-20.85-14.07-.18,2.18-1,10.91-2.63,15.66-3.7,10.51-14.7,10-25.34,9.41-6.53-.33-13.28-.67-18.2,1.57-1.89.86-3.54,3.33-4.77,7.17a55.6,55.6,0,0,0-2.12,17.11C28.64,84,29.64,89.3,31.2,92,33,95.06,37,97.24,42.78,98.29c11,2,25.82-.56,32-5.47,1-3.56.9-10,.84-15.11H47.22a.52.52,0,0,1-.52-.52V74.64a.52.52,0,0,1,.52-.52h31.1l4.89,0,7.11,0a11.94,11.94,0,0,0,9.32-4.58c4.3-5.13,6.11-13.84,4.63-22.19a.52.52,0,0,1,1-.18c1.54,8.64-.37,17.69-4.86,23a13,13,0,0,1-10.12,4.95c-3.78,0-13.63,0-14.16.05H47.74v1.51H76.1a.52.52,0,0,1,.52.51v.52c.06,5.3.14,11.88-.92,15.56a.52.52,0,0,1-.17.26C72.47,96,67.27,98,60.89,99.14A59,59,0,0,1,50.88,100ZM76.3,75.12l-.14,0Zm.32-.48a.52.52,0,0,1-.14.35A.51.51,0,0,0,76.62,74.65Zm-12.22,18a6.55,6.55,0,1,1,6.55-6.55A6.55,6.55,0,0,1,64.4,92.62Zm0-12.05a5.51,5.51,0,1,0,5.51,5.51A5.51,5.51,0,0,0,64.4,80.57Z" transform="translate(0)"/></svg>