<svg id="Layer_1" data-name="Layer 1" xmlns="http://www.w3.org/2000/svg" viewBox="0 0 89.11 100"><defs><style>.cls-1{fill:#00b3dd;}</style></defs><title>react_native</title><circle class="cls-1" cx="44.56" cy="50" r="8.89" transform="translate(-21.58 39.48) rotate(-39.26)"/><path d="M44.35,60.62A10.47,10.47,0,0,1,39,59.17a1.61,1.61,0,1,1,1.63-2.77A7.29,7.29,0,0,0,50,45.51a7.29,7.29,0,0,0-10.25-1,7.33,7.33,0,0,0-2.47,7.36,1.61,1.61,0,0,1-3.12.76A10.56,10.56,0,0,1,37.72,42a10.5,10.5,0,1,1,6.63,18.62Z"/><path d="M13.64,81.38c-5.48,0-9.39-1.57-11.34-4.65-2.88-4.55-.93-11.6,5.48-19.84,6.08-7.81,15.52-16,26.6-23s22.5-12,32.16-14.19c10.2-2.26,17.4-1,20.28,3.55s.93,11.59-5.47,19.83a1.61,1.61,0,0,1-2.54-2c5.43-7,7.36-12.87,5.29-16.14s-8.22-4-16.87-2.13c-9.31,2.07-20.37,7-31.14,13.77S16.17,51.34,10.31,58.87C4.88,65.86,2.94,71.75,5,75s8.22,4,16.87,2.13c9.31-2.07,20.37-7,31.14-13.77A112.75,112.75,0,0,0,75,45.61a1.61,1.61,0,0,1,2.35,2.19A116,116,0,0,1,54.74,66.09c-11.08,7-22.5,12-32.16,14.19A41.78,41.78,0,0,1,13.64,81.38Z"/><path d="M75.47,79.92a44.56,44.56,0,0,1-7.53-.71c-9.75-1.69-21.4-6.18-32.8-12.66S13.93,52.37,7.49,44.85C.7,36.92-1.58,30,1.08,25.29c2.49-4.37,8.67-6,17.89-4.83a1.61,1.61,0,1,1-.42,3.18c-7.59-1-12.95.18-14.68,3.24C2,30.24,4.17,36,9.93,42.76c6.2,7.24,15.72,14.7,26.8,21S59.1,74.42,68.49,76c8.73,1.51,14.83.44,16.75-2.92S84.94,64,79.18,57.24c-6.2-7.24-15.72-14.7-26.8-21a110.83,110.83,0,0,0-28-11.5,1.61,1.61,0,1,1,.74-3.13A112.49,112.49,0,0,1,54,33.45c11.4,6.48,21.22,14.18,27.66,21.7C88.41,63.08,90.69,70,88,74.71,86.08,78.14,81.72,79.92,75.47,79.92Z"/><path d="M43.93,100h-.12c-4.53-.07-8.63-3.88-11.87-11a1.61,1.61,0,1,1,2.93-1.32c2.65,5.85,5.84,9.1,9,9.15,3.87.07,7.88-4.66,11-13,3.36-8.92,5.32-20.85,5.51-33.6S59,25.5,55.87,16.49C53,8.11,49.12,3.27,45.25,3.21s-7.88,4.66-11,13c-3.36,8.92-5.32,20.85-5.51,33.6-.18,12,1.27,23.55,4.07,32.4a1.61,1.61,0,1,1-3.06,1c-2.9-9.17-4.4-21-4.22-33.42.19-13.11,2.23-25.43,5.72-34.69,3.66-9.7,8.61-15,13.94-15h.12c5.38.08,10.22,5.56,13.61,15.44,3.22,9.36,4.88,21.73,4.68,34.84S61.37,75.71,57.88,85C54.22,94.67,49.27,100,43.93,100Z"/></svg>