<svg id="Layer_1" data-name="Layer 1" xmlns="http://www.w3.org/2000/svg" viewBox="0 0 100 100"><defs><style>.cls-1{fill:#fff;}.cls-2{fill:#2fbebc;}.cls-3{fill:#70cddd;}.cls-4{fill:#010101;}</style></defs><title>Realm</title><path class="cls-1" d="M98.93,50A48.93,48.93,0,1,0,5,69.24a2,2,0,0,0,.1.2,48.8,48.8,0,0,0,77.46,17l.09-.05v0A48.77,48.77,0,0,0,98.93,50Z"/><path class="cls-2" d="M1.45,51.11c1.32-.5,4.44-1.3,11-1.3,4.27,0,8.78,1.47,13.47,3.72-.52.4-1,.78-1.56,1.2A96.05,96.05,0,0,1,4.5,66.81,48.41,48.41,0,0,1,1.45,51.11Z"/><path class="cls-2" d="M73,74.29A83.12,83.12,0,0,1,54.53,65.6a32.64,32.64,0,0,1,13.36-2.49c10.54,0,16.4,3.23,20.35,6.14a55.7,55.7,0,0,1-14.18,5l-.64.17Z"/><path class="cls-2" d="M92.06,72.2c.35.26.69.51,1,.73a48.8,48.8,0,0,1-3.53,5.51c-2.53-.51-5.1-1.07-7.72-1.72A50.77,50.77,0,0,0,92.06,72.2Z"/><path class="cls-2" d="M92.29,66.75C88,63.4,81.13,58.68,67.89,58.68c-7.94,0-13.35,1.71-17.83,4.16Q47.5,61.23,45,59.59C41.35,57.26,37.8,55,34.3,53c8.08-5.35,14.84-7.59,22.51-7.59,10.29,0,22.43,6.22,37.95,19.33A24.17,24.17,0,0,1,92.29,66.75Z"/><path class="cls-2" d="M42.57,63.32l3.32,2.13c-1.53,1.09-3,2.23-4.48,3.39-2.11,1.66-4.33,3.35-6.81,4.93C28.71,70.16,19.19,68.63,12.15,68a98,98,0,0,0,15-9.8c1.09-.87,2.12-1.64,3.15-2.41C34.28,58,38.38,60.63,42.57,63.32Z"/><path class="cls-2" d="M30,76.34a49.69,49.69,0,0,1-17.52,4.46,48.92,48.92,0,0,1-5.71-8.72C12.39,72.35,23.16,73.25,30,76.34Z"/><path class="cls-2" d="M34.44,79.07c1.55,1.2,3,2.37,4.36,3.48,2.21,1.81,4.3,3.51,6.53,5A132.79,132.79,0,0,0,34.2,95.85a48.8,48.8,0,0,1-17.85-11A52.21,52.21,0,0,0,34.44,79.07Z"/><path class="cls-2" d="M41.61,79.12c-1-.83-2.08-1.69-3.19-2.57,2-1.4,3.94-2.82,5.72-4.22,2-1.54,3.85-3,5.86-4.29a110.63,110.63,0,0,0,16.25,8.54,96.6,96.6,0,0,0-16.83,8.36A70.28,70.28,0,0,1,41.61,79.12Z"/><path class="cls-2" d="M73.4,79c4.44,1.29,8.78,2.37,13,3.29a49.11,49.11,0,0,1-3.49,3.52,27,27,0,0,1-12.84,3.9c-7,0-11.91-.9-15.9-2.44A78.32,78.32,0,0,1,73.4,79Z"/><path class="cls-3" d="M50.16,1A48.59,48.59,0,0,1,97.52,61.25C81.19,47.48,68.17,40.95,56.8,40.95c-10.33,0-18.55,3.74-26.87,9.62C24,47.49,18.17,45.38,12.47,45.38A44.09,44.09,0,0,0,1.55,46.45,48.8,48.8,0,0,1,50.16,1Z"/><path class="cls-2" d="M50.16,98.59a48.64,48.64,0,0,1-10.74-1.23c2.38-1.87,5.93-4.5,10.19-7.24,4.93,2.48,11.06,4,20.51,4h.26A48.41,48.41,0,0,1,50.16,98.59Z"/><path class="cls-4" d="M50,100A50,50,0,0,1,4.16,69.92l-.09-.18,0-.08A49.55,49.55,0,0,1,0,50,50,50,0,0,1,94.31,26.86a1.07,1.07,0,1,1-1.89,1A47.85,47.85,0,0,0,6,68.8l0,.08L6.1,69A47.73,47.73,0,0,0,81.73,85.73l.21-.19a47.7,47.7,0,0,0,13.68-50,1.07,1.07,0,1,1,2-.65A49.83,49.83,0,0,1,100,50a49.25,49.25,0,0,1-4.5,20.66A50.09,50.09,0,0,1,84.05,86.5l.1.15-.89.59-.06,0A49.86,49.86,0,0,1,50,100Z"/></svg>