<svg id="Capa_1" data-name="Capa 1" xmlns="http://www.w3.org/2000/svg" viewBox="0 0 95.8 100"><defs><style>.cls-1{fill:#fdbd40;}.cls-2{fill:#fff;}.cls-3{fill:#fcf05a;}.cls-4{fill:#5f79ba;}.cls-5{fill:#212121;}.cls-6{fill:#9c27b0;}.cls-7{fill:#7b1fa2;}</style></defs><title>responsive_pwa_design</title><path class="cls-1" d="M36.58,91.51H59.22A6.47,6.47,0,0,1,65.69,98H30.12A6.47,6.47,0,0,1,36.58,91.51Z"/><rect class="cls-2" x="7.48" y="17.13" width="80.85" height="61.44" rx="6.47" ry="6.47"/><path d="M81.86,79.59H13.95a7.49,7.49,0,0,1-7.48-7.48V23.6a7.49,7.49,0,0,1,7.48-7.48H81.86a7.49,7.49,0,0,1,7.48,7.48V72.11A7.49,7.49,0,0,1,81.86,79.59ZM13.95,18.14A5.46,5.46,0,0,0,8.49,23.6V72.11a5.46,5.46,0,0,0,5.46,5.46H81.86a5.46,5.46,0,0,0,5.46-5.46V23.6a5.46,5.46,0,0,0-5.46-5.46Z"/><path class="cls-1" d="M7.48,65.64H88.33v6.47a6.47,6.47,0,0,1-6.47,6.47H13.95a6.47,6.47,0,0,1-6.47-6.47V65.64Z"/><path d="M81.86,79.59H13.95a7.49,7.49,0,0,1-7.48-7.48V64.63H89.34v7.48A7.49,7.49,0,0,1,81.86,79.59ZM8.49,66.65v5.46a5.46,5.46,0,0,0,5.46,5.46H81.86a5.46,5.46,0,0,0,5.46-5.46V66.65Z"/><path class="cls-3" d="M43.05,78.58h9.7V91.51h-9.7Z"/><path d="M66.7,99H29.11V98a7.49,7.49,0,0,1,7.48-7.48H59.22A7.49,7.49,0,0,1,66.7,98ZM31.22,97H64.58a5.47,5.47,0,0,0-5.36-4.45H36.58A5.47,5.47,0,0,0,31.22,97Z"/><path d="M53.76,92.52H42v-15H53.76Zm-9.7-2h7.68V79.59H44.06Z"/><path class="cls-3" d="M10.71,77.15a1.62,1.62,0,0,1-1.14-2.76l6.86-6.86a1.62,1.62,0,1,1,2.33,2.25l0,0-6.86,6.86A1.62,1.62,0,0,1,10.71,77.15Z"/><path class="cls-3" d="M20.41,77.15a1.62,1.62,0,0,1-1.14-2.76l6.86-6.86a1.62,1.62,0,0,1,2.29,2.29l-6.86,6.86A1.62,1.62,0,0,1,20.41,77.15Z"/><path d="M91.56,99H78.62a4.25,4.25,0,0,1-4.24-4.24V90.5H95.8v4.24A4.25,4.25,0,0,1,91.56,99ZM76.4,92.52v2.22A2.23,2.23,0,0,0,78.62,97H91.56a2.23,2.23,0,0,0,2.22-2.22V92.52Z"/><path class="cls-3" d="M82.81,79.24a1.62,1.62,0,0,1-1.14-2.76l4.57-4.57a1.62,1.62,0,0,1,2.29,2.29l-4.57,4.57A1.62,1.62,0,0,1,82.81,79.24Z"/><path d="M47.93,73.72a1.62,1.62,0,1,1,0-3.23h0a1.62,1.62,0,0,1,0,3.23Z"/><path class="cls-1" d="M51.14,25.22H44.67a1.62,1.62,0,0,1,0-3.23h6.47a1.62,1.62,0,0,1,0,3.23Z"/><path d="M47.93,73.72a1.62,1.62,0,0,0,0-3.23h0a1.62,1.62,0,1,0,0,3.23Z"/><path d="M51.14,22H44.67a1.62,1.62,0,0,0,0,3.23h6.47a1.62,1.62,0,0,0,0-3.23Z"/><rect class="cls-4" x="1.01" y="49.47" width="35.57" height="48.51" rx="3.23" ry="3.23"/><rect class="cls-4" x="75.39" y="59.17" width="19.4" height="38.81" rx="3.23" ry="3.23"/><path d="M33.35,99H4.24A4.25,4.25,0,0,1,0,94.74v-42a4.25,4.25,0,0,1,4.24-4.24H33.35a4.25,4.25,0,0,1,4.24,4.24v42A4.25,4.25,0,0,1,33.35,99ZM4.24,50.48A2.23,2.23,0,0,0,2,52.7v42A2.23,2.23,0,0,0,4.24,97H33.35a2.23,2.23,0,0,0,2.22-2.22v-42a2.23,2.23,0,0,0-2.22-2.22Z"/><path d="M91.56,99H78.62a4.25,4.25,0,0,1-4.24-4.24V62.41a4.25,4.25,0,0,1,4.24-4.24H91.56a4.25,4.25,0,0,1,4.24,4.24V94.74A4.25,4.25,0,0,1,91.56,99ZM78.62,60.18a2.23,2.23,0,0,0-2.22,2.22V94.74A2.23,2.23,0,0,0,78.62,97H91.56a2.23,2.23,0,0,0,2.22-2.22V62.41a2.23,2.23,0,0,0-2.22-2.22Z"/><path class="cls-5" d="M75.39,92.52h19.4v3.23A3.23,3.23,0,0,1,91.56,99H78.62a3.23,3.23,0,0,1-3.23-3.23V92.52Z"/><path d="M91.56,100H78.62a4.25,4.25,0,0,1-4.24-4.24V91.51H95.8v4.24A4.25,4.25,0,0,1,91.56,100ZM76.4,93.53v2.22A2.23,2.23,0,0,0,78.62,98H91.56a2.23,2.23,0,0,0,2.22-2.22V93.53Z"/><path class="cls-5" d="M1,91.51H36.58v3.23A3.23,3.23,0,0,1,33.35,98H4.24A3.23,3.23,0,0,1,1,94.74V91.51Z"/><path d="M33.35,99H4.24A4.25,4.25,0,0,1,0,94.74V90.5H37.59v4.24A4.25,4.25,0,0,1,33.35,99ZM2,92.52v2.22A2.23,2.23,0,0,0,4.24,97H33.35a2.23,2.23,0,0,0,2.22-2.22V92.52Z"/><path class="cls-2" d="M18.71,67.53a1.62,1.62,0,0,0-2.29,0L9.57,74.39a1.62,1.62,0,0,0,2.25,2.33l0,0,6.86-6.86A1.62,1.62,0,0,0,18.71,67.53Z"/><path class="cls-2" d="M26.13,67.53l-6.86,6.86a1.62,1.62,0,0,0,2.25,2.33l0,0,6.86-6.86a1.62,1.62,0,0,0-2.29-2.29Z"/><path class="cls-2" d="M86.23,71.91l-4.57,4.57a1.62,1.62,0,0,0,2.25,2.33l0,0,4.57-4.57a1.62,1.62,0,0,0-2.29-2.29Z"/><polygon class="cls-6" points="26.32 8.74 47.93 0.89 69.54 8.74 66.08 37.25 47.93 47.51 29.47 37.3 26.32 8.74"/><polyline class="cls-7" points="47.93 0.89 69.54 8.74 66.08 37.25 47.93 47.51"/><path d="M47.93,48.46,28.69,37.82,25.42,8.18,47.93,0,70.44,8.18l-.57,4.73a.83.83,0,0,1-1.65-.2l.41-3.41L47.93,1.77,27.22,9.3l3,27.48,17.67,9.77,17.38-9.82L67.5,18.6a.83.83,0,0,1,1.65.2l-2.3,19Z"/><path class="cls-2" d="M53.13,19.25h2.63l0,.1L51.9,28.81c0,.11-.08.22-.12.33H49.16a1.18,1.18,0,0,0,0-.15l-1.58-5.07-.17-.53-.06.15-.63,1.94-1.2,3.65h-2.6a1.55,1.55,0,0,0-.07-.15l-1.19-2.05a.27.27,0,0,1,0-.24l1-3.14.26-.81,1.46,2.9.07-.17,1.4-4.29.63-1.94h2v0l1.88,6.23.05.14.07-.14L52.39,21Z"/><path class="cls-2" d="M37.29,29.14H34.8v-9.9h4.41c.23,0,.47.06.7.11a2.9,2.9,0,0,1,1.87,1.2.21.21,0,0,1,0,.21l-1.53,4.71a.17.17,0,0,1-.15.14,8,8,0,0,1-.83.12c-.62,0-1.23,0-1.85,0-.12,0-.16,0-.16.15,0,.28,0,.56,0,.84Q37.3,27.94,37.29,29.14Zm0-8a.46.46,0,0,0,0,.08c0,.83,0,1.65,0,2.48,0,.08,0,.11.11.1.4,0,.8,0,1.19,0a1.12,1.12,0,0,0,1.17-.93,2.1,2.1,0,0,0,0-.68,1.09,1.09,0,0,0-.92-1,1.68,1.68,0,0,0-.34,0Z"/><path class="cls-2" d="M58.3,29.14a.85.85,0,0,0,0-.11c-.18-.52-.37-1-.55-1.55a.15.15,0,0,0-.17-.11h-3.4l0-.14.65-1.66a.16.16,0,0,1,.17-.12h2.07L57,25.3l-.94-2.64a.32.32,0,0,1,0-.25l1.19-3,.05-.13.07.17L61,29a1.14,1.14,0,0,0,.06.11l-.11,0Z"/></svg>