<svg id="Layer_1" data-name="Layer 1" xmlns="http://www.w3.org/2000/svg" viewBox="0 0 115.67 100.03"><defs><style>.cls-1{fill:#f9f3bd;}.cls-2{fill:#fdbd40;}.cls-3{fill:#161616;}.cls-4{fill:#6d6d6d;}.cls-5{fill:#fcf05a;}</style></defs><title>mobile_responsiove_design</title><rect class="cls-1" x="9.05" y="1.22" width="97.59" height="74.17" rx="7.81" ry="7.81"/><path class="cls-2" d="M9.05,59.77h97.59v7.81a7.81,7.81,0,0,1-7.81,7.81h-82a7.81,7.81,0,0,1-7.81-7.81V59.77Z"/><path class="cls-2" d="M44.18,42a2,2,0,0,1-1.38-3.33L62.13,19.36a2,2,0,0,1,2.76,2.76L45.56,41.44a1.94,1.94,0,0,1-1.38.57Z"/><path class="cls-2" d="M56.09,42a2,2,0,0,1-1.38-3.33L74,19.36a2,2,0,0,1,2.76,2.76L57.47,41.44a2,2,0,0,1-1.38.57Z"/><path class="cls-2" d="M61.75,11H53.94a2,2,0,0,1,0-3.9h7.81a2,2,0,0,1,0,3.9Z"/><path d="M74,19.36,54.71,38.68a2,2,0,1,0,2.71,2.81l0,0L76.79,22.12A2,2,0,0,0,74,19.36Z"/><path d="M61.75,7.08H53.94a2,2,0,0,0,0,3.9h7.81a2,2,0,0,0,0-3.9Z"/><path d="M98.83,76.61h-82a9,9,0,0,1-9-9V9a9,9,0,0,1,9-9h82a9,9,0,0,1,9,9v6.75a1.22,1.22,0,0,1-2.44,0V9a6.59,6.59,0,0,0-6.59-6.59h-82A6.59,6.59,0,0,0,10.27,9V67.58a6.59,6.59,0,0,0,6.59,6.59h82a6.59,6.59,0,0,0,6.59-6.59V22.93a1.22,1.22,0,0,1,2.44,0V67.58A9,9,0,0,1,98.83,76.61Z"/><path class="cls-3" d="M44.18,91H71.51a7.81,7.81,0,0,1,7.81,7.81H36.38A7.81,7.81,0,0,1,44.18,91Z"/><path class="cls-4" d="M52,75.39H63.7V91H52Z"/><rect class="cls-4" x="1.24" y="40.26" width="42.94" height="58.55" rx="3.9" ry="3.9"/><rect class="cls-4" x="91.03" y="51.97" width="23.42" height="46.84" rx="3.9" ry="3.9"/><path class="cls-5" d="M91,91h23.42v3.9a3.9,3.9,0,0,1-3.9,3.9H94.93a3.9,3.9,0,0,1-3.9-3.9V91Z"/><path class="cls-5" d="M1.24,91H44.18v3.9a3.9,3.9,0,0,1-3.9,3.9H5.15a3.9,3.9,0,0,1-3.9-3.9V91Z"/><path class="cls-5" d="M13,73.67a2,2,0,0,1-1.38-3.33l8.28-8.28a2,2,0,1,1,2.81,2.71l0,0L14.33,73.1A2,2,0,0,1,13,73.67Z"/><path class="cls-5" d="M24.67,73.67a2,2,0,0,1-1.38-3.33l8.28-8.28a2,2,0,0,1,2.76,2.76L26,73.1A2,2,0,0,1,24.67,73.67Z"/><path class="cls-5" d="M100,76.2a2,2,0,0,1-1.38-3.33l5.52-5.52a2,2,0,0,1,2.76,2.76l-5.52,5.52A2,2,0,0,1,100,76.2Z"/><path d="M57.88,69.53a2,2,0,1,1,0-3.9h0a2,2,0,0,1,0,3.9Z"/><path d="M22.61,62.06a2,2,0,0,0-2.76,0l-8.28,8.28a2,2,0,0,0,2.71,2.81l0,0,8.28-8.28A2,2,0,0,0,22.61,62.06Z"/><path d="M31.56,62.06l-8.28,8.28A2,2,0,0,0,26,73.15l0,0,8.28-8.28a2,2,0,0,0-2.76-2.76Z"/><path d="M104.12,67.34,98.6,72.86a2,2,0,0,0,2.71,2.81l0,0,5.52-5.52a2,2,0,0,0-2.76-2.76Z"/><path d="M57.88,69.53a2,2,0,0,0,0-3.9h0a2,2,0,1,0,0,3.9Z"/><path d="M110.54,100H94.93a5.13,5.13,0,0,1-5.12-5.12v-39a5.13,5.13,0,0,1,5.12-5.12h15.61a5.13,5.13,0,0,1,5.12,5.12v39A5.13,5.13,0,0,1,110.54,100ZM94.93,53.19a2.69,2.69,0,0,0-2.68,2.68v39a2.69,2.69,0,0,0,2.68,2.68h15.61a2.69,2.69,0,0,0,2.68-2.68v-39a2.69,2.69,0,0,0-2.68-2.68Z"/><path d="M40.26,100H5.12A5.13,5.13,0,0,1,0,94.91V88a1.22,1.22,0,0,1,2.44,0v6.91a2.69,2.69,0,0,0,2.68,2.68H40.26a2.69,2.69,0,0,0,2.68-2.68V44.16a2.69,2.69,0,0,0-2.68-2.68H5.12a2.69,2.69,0,0,0-2.68,2.68V80.84a1.22,1.22,0,0,1-2.44,0V44.16A5.13,5.13,0,0,1,5.12,39H40.26a5.13,5.13,0,0,1,5.12,5.12V94.91A5.13,5.13,0,0,1,40.26,100Z"/></svg>