<svg id="Layer_1" data-name="Layer 1" xmlns="http://www.w3.org/2000/svg" viewBox="0 0 101.53 99.88"><defs><style>.cls-1{fill:#ffe757;}.cls-2{fill:#ff884d;}.cls-3{fill:#00e8c6;}.cls-4{fill:#ffd79c;}.cls-5{fill:#d2fffd;}</style></defs><title>retro_fit</title><path class="cls-1" d="M31.17,45.67c-4.57,3.05-6.1,9.1-4.36,14.31l2.95,13L38.17,60.4,35.74,43.79A12.58,12.58,0,0,0,31.17,45.67Z"/><path class="cls-1" d="M70.44,45.67a12.56,12.56,0,0,0-4.56-1.88L63.43,60.4,71.86,73,74.8,60C76.54,54.78,75,48.72,70.44,45.67Z"/><path d="M71.86,74.11a1.08,1.08,0,0,1-.9-.48L62.54,61a1.08,1.08,0,0,1-.17-.75l2.44-16.61a1.08,1.08,0,0,1,1.27-.9,13.57,13.57,0,0,1,5,2h0c4.79,3.2,6.76,9.56,4.81,15.5l-2.93,13a1.08,1.08,0,0,1-.86.82Zm-7.29-14,6.8,10.19,2.39-10.59,0-.1c1.68-5,.06-10.41-3.94-13.08a11.45,11.45,0,0,0-3.07-1.45Z"/><path d="M29.75,74.11l-.2,0a1.08,1.08,0,0,1-.86-.82l-2.93-13c-2-5.94,0-12.3,4.81-15.5h0a13.6,13.6,0,0,1,5-2,1.08,1.08,0,0,1,1.27.9l2.43,16.61a1.08,1.08,0,0,1-.17.75L30.65,73.63A1.08,1.08,0,0,1,29.75,74.11Zm2-27.54c-4,2.67-5.62,8-3.94,13.08l0,.1,2.39,10.59L37,60.15l-2.2-15a11.47,11.47,0,0,0-3.08,1.45Z"/><path d="M55,59.64a2.11,2.11,0,1,0,2.11,2.11A2.11,2.11,0,0,0,55,59.64Z"/><path class="cls-2" d="M43.64,68.75l-2.11-4.21h5a2.11,2.11,0,1,0,0-4.21H40l-3.38-23.1a44.77,44.77,0,0,1,.37-13.91,38.75,38.75,0,0,1,2-6.29,18.94,18.94,0,0,0,23.54.09,46.25,46.25,0,0,1,2.35,21.13L61.36,61.79l-3.48,7H43.64Z"/><path d="M58.67,69.83H43.09l-3.18-6.37h6.76a1,1,0,1,0,0-2.05H39.14l-3.51-24A45.94,45.94,0,0,1,36,23.07a39.91,39.91,0,0,1,2-6.46l.55-1.33,1.12.9a17.86,17.86,0,0,0,22.2.09l1.16-.91.51,1.39A47.41,47.41,0,0,1,66,38.37v0L62.52,62.12ZM44.43,67.67H57.33l3.1-6.21L63.87,38.1A45.55,45.55,0,0,0,62,18.84a20,20,0,0,1-22.51-.11,37.37,37.37,0,0,0-1.43,4.82,43.61,43.61,0,0,0-.35,13.53L41,59.25h5.67a3.18,3.18,0,1,1,0,6.37H43.4Z"/><path class="cls-2" d="M50.79,1.42A44.83,44.83,0,0,1,60.69,13.8a14.72,14.72,0,0,1-19.88,0A45.24,45.24,0,0,1,50.79,1.42Z"/><path d="M50.76,18.73a15.79,15.79,0,0,1-10.68-4.15L39.46,14l.4-.74A46.13,46.13,0,0,1,50.08.61l.7-.61.71.61A45.73,45.73,0,0,1,61.65,13.3L62,14l-.62.56A15.79,15.79,0,0,1,50.76,18.73Zm-8.58-5.19a13.64,13.64,0,0,0,17.15,0A44,44,0,0,0,50.79,2.86,44.05,44.05,0,0,0,42.18,13.54Z"/><path class="cls-3" d="M91.39,98.8H10.13c-4.82,0-9.05-3.93-9.05-8.42S5.31,82,10.13,82a9.41,9.41,0,0,1,8.45,5.38A10.52,10.52,0,0,0,16,89.25a2.11,2.11,0,1,0,3,3,6.29,6.29,0,0,1,2.77-1.62h0a6.31,6.31,0,0,1,6.15,1.62,2.11,2.11,0,1,0,3-3c-.23-.23-.48-.45-.73-.66A8.42,8.42,0,0,1,40.24,87.3v5.18a2.11,2.11,0,0,0,4.21,0V72.27H57.08V92.48a2.11,2.11,0,0,0,4.21,0V87.29a8.43,8.43,0,0,1,10.12,1.3c-.25.21-.49.43-.73.66a2.11,2.11,0,1,0,3,3,6.31,6.31,0,0,1,8.93,0,2.11,2.11,0,1,0,3-3,10.53,10.53,0,0,0-2.63-1.92A9.42,9.42,0,0,1,91.39,82c4.82,0,9.05,3.93,9.05,8.42S96.22,98.8,91.39,98.8Z"/><path d="M91.39,99.88H10.13C4.73,99.88,0,95.44,0,90.38s4.73-9.5,10.13-9.5a10.47,10.47,0,0,1,9.44,6l.4.92-.9.46A9.43,9.43,0,0,0,16.71,90a1,1,0,0,0,.73,1.75h0a1,1,0,0,0,.73-.3,7.37,7.37,0,0,1,3.17-1.88l.08,0a7.39,7.39,0,0,1,7.2,1.9,1,1,0,0,0,.73.3h0A1,1,0,0,0,30.08,90c-.2-.2-.42-.4-.65-.59l-.91-.76.84-.84a9.5,9.5,0,0,1,11.43-1.46l.53.31v5.8a1,1,0,0,0,2.05,0V71.19H58.16V92.48a1,1,0,0,0,2.05,0V86.67l.54-.31a9.51,9.51,0,0,1,11.43,1.46l.84.84-.91.76c-.23.19-.45.39-.65.59a1,1,0,1,0,1.45,1.45,7.38,7.38,0,0,1,10.45,0,1,1,0,0,0,.73.3h0A1,1,0,0,0,84.81,90a9.44,9.44,0,0,0-2.36-1.72l-.9-.46.4-.92a10.47,10.47,0,0,1,9.44-6c5.4,0,10.13,4.44,10.13,9.5S96.79,99.88,91.39,99.88ZM10.13,83c-4.25,0-8,3.43-8,7.34s3.73,7.34,8,7.34H91.39c4.25,0,8-3.43,8-7.34S95.64,83,91.39,83a8.5,8.5,0,0,0-7,3.88,11.53,11.53,0,0,1,2,1.57,3.18,3.18,0,0,1-2.25,5.43h0A3.16,3.16,0,0,1,81.83,93a5.23,5.23,0,0,0-7.4,0,3.16,3.16,0,0,1-2.25.94h0a3.18,3.18,0,0,1-2.38-5.3,7.38,7.38,0,0,0-7.43-.69v4.54a3.18,3.18,0,0,1-6.37,0V73.35H45.52V92.48a3.18,3.18,0,0,1-6.37,0V87.94a7.18,7.18,0,0,0-3.13-.7,7.29,7.29,0,0,0-4.3,1.38,3.18,3.18,0,0,1-2.38,5.3h0A3.16,3.16,0,0,1,27.09,93a5.18,5.18,0,0,0-1.43-1,5.24,5.24,0,0,0-3.61-.34l-.07,0A5.21,5.21,0,0,0,19.69,93a3.16,3.16,0,0,1-2.25.93h0a3.18,3.18,0,0,1-2.25-5.43,11.52,11.52,0,0,1,2-1.57A8.5,8.5,0,0,0,10.13,83Z"/><path d="M58.67,69.83H43.09l-3.18-6.37h6.76a1,1,0,1,0,0-2.05H39.14l-3.51-24c-.09-.74-.17-1.53-.23-2.37a1.08,1.08,0,0,1,2.15-.16c.06.8.13,1.55.22,2.25L41,59.25h5.67a3.18,3.18,0,1,1,0,6.37H43.4l1,2.05H57.33l3.1-6.21L63.87,38.1A45.55,45.55,0,0,0,62,18.84a20,20,0,0,1-22.51-.11,37.37,37.37,0,0,0-1.43,4.82,35.11,35.11,0,0,0-.7,6.92,1.08,1.08,0,1,1-2.16,0A37.26,37.26,0,0,1,36,23.07a39.93,39.93,0,0,1,2-6.46l.55-1.33,1.12.9a17.86,17.86,0,0,0,22.2.09l1.16-.91.51,1.39A47.41,47.41,0,0,1,66,38.37v0L62.52,62.12Z"/><polygon class="cls-1" points="42.34 68.99 59.18 68.99 63.39 60.56 38.13 60.56 42.34 68.99"/><path d="M59.22,69.9H42.38a1.08,1.08,0,0,1-1-.6l-4.21-8.42a1.08,1.08,0,0,1,1-1.56H63.43a1.08,1.08,0,0,1,1,1.56L60.19,69.3A1.08,1.08,0,0,1,59.22,69.9ZM43,67.74H58.56l3.13-6.27H39.92Z"/><path class="cls-4" d="M50.76,28.75a8.42,8.42,0,1,1-8.42,8.42A8.42,8.42,0,0,1,50.76,28.75Z"/><path d="M50.76,46.67a9.5,9.5,0,1,1,9.5-9.5A9.51,9.51,0,0,1,50.76,46.67Zm0-16.84a7.34,7.34,0,1,0,7.34,7.34A7.35,7.35,0,0,0,50.76,29.83Z"/><path d="M50.76,35.07a2.11,2.11,0,1,0,2.11,2.11A2.11,2.11,0,0,0,50.76,35.07Z"/><path class="cls-5" d="M48.25,91.33a.54.54,0,0,1-.54-.54V76.08a.54.54,0,0,1,1.08,0V90.79A.54.54,0,0,1,48.25,91.33Z"/><path class="cls-5" d="M48.25,95.86a.54.54,0,0,1-.54-.54V92.71a.54.54,0,0,1,1.08,0v2.61A.54.54,0,0,1,48.25,95.86Z"/><path class="cls-5" d="M4.55,91.33h0A.54.54,0,0,1,4,90.78c.17-6.43,7.25-6.5,7.32-6.5h0a.54.54,0,0,1,0,1.08h0c-.26,0-6.1.08-6.25,5.46A.54.54,0,0,1,4.55,91.33Z"/><path class="cls-4" d="M58.37,57.64h-.09a.54.54,0,0,1-.45-.62l1.84-11.51a.54.54,0,1,1,1.06.17L58.9,57.19A.54.54,0,0,1,58.37,57.64Z"/></svg>