<svg id="Layer_1" data-name="Layer 1" xmlns="http://www.w3.org/2000/svg" viewBox="0 0 100.49 100"><defs><style>.cls-1{fill:#ef3f4d;}.cls-2{fill:#d32128;}.cls-3{fill:#231f20;}</style></defs><title>RUBY_ON_RAILS_DEVELOPER</title><path class="cls-1" d="M68.47,1c1.91.07,2.83.56,2.83,2.49,0,.67.12,1.35.24,2.52-2.23,0-4.27.08-6.29-.06-.44,0-1-.76-1.2-1.29-.41-1.31-.62-2.69-.91-4C65.77.87,65.89.94,68.47,1Z"/><path class="cls-2" d="M60.2,99.37H57.72c-14.29,0-28.59,0-42.88,0-1.91,0-2.67-.42-2.7-2.48A103.27,103.27,0,0,1,18.93,59C23.42,46.92,28.74,35.12,37,25,45.7,14.2,57,7.83,71.11,7.94,82.21,8,91.34,13.17,99.41,20.4a2.9,2.9,0,0,1,.38.62c-.35.56-.69,1.15-1.07,1.71-.26.39-.57.74-.93,1.19-7.07-6-14.77-6.24-22.85-2.73A36.66,36.66,0,0,0,59.38,34c-6.77,9.6-8.08,20.46-7.25,31.79a111.64,111.64,0,0,0,7,30.73Z"/><path class="cls-1" d="M.66,84.09c.35-2.88.6-5.42,1-7.93a1.75,1.75,0,0,1,1.37-1c2.55.11,5.09.38,8,.63L9.46,85.13Z"/><path class="cls-1" d="M20,48l-2.47,7L9.16,52.3l2.65-7.59Z"/><path class="cls-1" d="M22.84,26.33l5-5.61,6.28,4.15-4.84,5.78Z"/><path class="cls-1" d="M57.62,84c2.55,0,4.82,0,7.09,0a1.58,1.58,0,0,1,1.11.74c1,1.89,1.88,3.82,3,6.2-3.25-.2-6-.35-8.84-.57a1.25,1.25,0,0,1-.84-.75C58.64,87.86,58.18,86.06,57.62,84Z"/><path class="cls-1" d="M45.61,13.41l-4.3-5.23c1.83-1,3.48-1.88,5.19-2.66a1.61,1.61,0,0,1,1.39.41c1.19,1.22,2.27,2.55,3.57,4Z"/><path class="cls-1" d="M54.29,61.3c2.55,1.34,4.46,2.3,6.31,3.37A1.94,1.94,0,0,1,61.4,66c.17,1.5.19,3,.29,5-2.5-1.1-4.74-2.05-6.95-3.09-.26-.12-.42-.7-.43-1.07C54.27,65.18,54.29,63.53,54.29,61.3Z"/><path class="cls-1" d="M57.09,44.93c1.59,1.2,3.09,2.27,4.5,3.45A1.76,1.76,0,0,1,62,49.8c-.28,1.54-.7,3.05-1.17,5-2-1.72-3.77-3.19-5.45-4.76a1.6,1.6,0,0,1-.13-1.42C55.74,47.43,56.39,46.3,57.09,44.93Z"/><path class="cls-1" d="M67.5,40.69,62,34.59l3.72-3.42c1.15,1.72,2.59,3.15,3.06,4.84C69.17,37.35,67.72,39.19,67.5,40.69Z"/><path class="cls-1" d="M75.56,29.51l-2.94-3.67L77,23.79C78.86,26.23,78.83,26.37,75.56,29.51Z"/><path class="cls-1" d="M94.07,10.62c-.62.17-1.35.65-1.85.47-3.77-1.34-4.27-2-3.8-5.27l5.52,4Z"/><path class="cls-1" d="M87.36,24.51V22.15c3.67,0,4.59.54,4.44,2.8Z"/><path class="cls-3" d="M68.14,6.66c-1,0-2,0-2.93-.08-.78-.05-1.51-1-1.72-1.7a27,27,0,0,1-.69-2.93c-.08-.38-.15-.78-.24-1.17L62.39,0l.8.06L65,.22c1.08.1,1.67.15,3.45.22h0c1.76.07,3.4.49,3.4,3.08A12.45,12.45,0,0,0,72,4.9c0,.31.08.66.12,1.08l.06.65H68.14ZM65.3,5.39c1.45.1,2.92.08,4.48.07h1.1l0-.41a13.44,13.44,0,0,1-.12-1.52c0-1.44-.47-1.83-2.26-1.9h0c-1.81-.07-2.41-.12-3.51-.22l-1.06-.09.08.41a26.07,26.07,0,0,0,.66,2.8A1.79,1.79,0,0,0,65.3,5.39Zm0,0Z"/><path class="cls-3" d="M10,85.78,0,84.61.07,84c.09-.73.17-1.45.25-2.14.23-2,.45-3.93.77-5.82a2.27,2.27,0,0,1,2-1.47c1.89.08,3.79.25,5.8.44l2.2.2.64.05ZM1.32,83.57l7.65.9,1.37-8.13L8.77,76.2c-2-.18-3.88-.35-5.75-.43a1.44,1.44,0,0,0-.76.51C2,78.13,1.73,80,1.5,82Zm.94-7.28Z"/><path class="cls-3" d="M17.94,55.73,8.39,52.68l3.06-8.75,9.34,3.68Zm-8-3.81,7.29,2.33,2.09-6-7.13-2.81Z"/><path class="cls-3" d="M29.4,31.44l-7.45-5,5.8-6.5L35,24.75Zm-5.66-5.23,5.43,3.65L33.24,25l-5.3-3.5Z"/><path class="cls-3" d="M69.83,91.61l-1-.06-2.19-.13c-2.32-.14-4.51-.27-6.66-.44a1.81,1.81,0,0,1-1.36-1.17c-.4-1.32-.76-2.66-1.14-4.09L57,84.13l-.2-.75h2.69c1.8,0,3.5,0,5.19,0a2.16,2.16,0,0,1,1.62,1.06c.73,1.39,1.39,2.78,2.16,4.4l.88,1.82Zm-9.75-1.82c2.13.17,4.31.3,6.61.44l1.19.07-.44-.92c-.77-1.6-1.43-3-2.15-4.36a1,1,0,0,0-.61-.42c-1.67-.05-3.36,0-5.15,0H58.39l.22.84c.38,1.41.73,2.75,1.13,4A.83.83,0,0,0,60.08,89.79Z"/><path class="cls-3" d="M45.47,14.18,40.39,8,41,7.65l1.42-.75C43.75,6.21,45,5.56,46.26,5a2.15,2.15,0,0,1,2.07.54c.87.9,1.69,1.85,2.55,2.85l1,1.2.47.54ZM42.23,8.37l3.51,4.27,4.81-2.84L50,9.14c-.85-1-1.66-1.93-2.5-2.8a1.25,1.25,0,0,0-.74-.28C45.5,6.63,44.29,7.27,43,8Z"/><path class="cls-3" d="M62.33,71.91l-.88-.39-1.72-.75c-1.82-.8-3.55-1.55-5.24-2.35-.58-.27-.76-1.16-.77-1.59,0-1.19,0-2.39,0-3.79,0-.55,0-1.13,0-1.75v-1l.87.46,2,1c1.61.84,3,1.56,4.34,2.34A2.51,2.51,0,0,1,62,65.91c.12,1.08.17,2.16.22,3.41,0,.51,0,1.05.07,1.63ZM55,67.38c1.66.78,3.36,1.52,5.15,2.31l.85.37,0-.69c-.05-1.23-.09-2.29-.21-3.33a1.38,1.38,0,0,0-.51-.86C59,64.42,57.6,63.7,56,62.87l-1.12-.59q0,.4,0,.78c0,1.38,0,2.58,0,3.75A1.43,1.43,0,0,0,55,67.38Z"/><path class="cls-3" d="M61.18,55.89l-.74-.64L59,54c-1.4-1.2-2.72-2.33-4-3.5a2.12,2.12,0,0,1-.27-2.08c.36-.88.81-1.72,1.27-2.61l.59-1.13.32-.63.57.43,1.26.95c1.14.85,2.22,1.65,3.26,2.52a2.31,2.31,0,0,1,.61,2c-.2,1.11-.47,2.2-.78,3.45-.12.5-.26,1-.39,1.59ZM55.8,49.63c1.24,1.16,2.55,2.27,3.93,3.45l.75.64.16-.66c.31-1.23.57-2.3.77-3.37a1.25,1.25,0,0,0-.21-.86c-1-.85-2.07-1.64-3.2-2.48l-.71-.53-.27.52c-.46.87-.89,1.69-1.23,2.52A1.28,1.28,0,0,0,55.8,49.63Z"/><path class="cls-3" d="M67.91,42l-6.74-7.48,4.67-4.29.38.58c.34.51.71,1,1.08,1.48a11,11,0,0,1,2.06,3.53A5,5,0,0,1,68.71,39a7.72,7.72,0,0,0-.62,1.78Zm-5.07-7.4,4.38,4.86c.12-.32.26-.65.4-1a4.31,4.31,0,0,0,.6-2.35A10.15,10.15,0,0,0,66.36,33c-.24-.32-.48-.64-.72-1Z"/><path class="cls-3" d="M75.51,30.39l-3.81-4.77L77.13,23l.29.38c.93,1.2,1.6,2.06,1.35,3.1-.22.89-1.06,1.74-2.8,3.41Zm-1.95-4.34,2.06,2.58c1.19-1.16,1.88-1.88,2-2.39s-.17-.83-.84-1.72Z"/><path class="cls-3" d="M92.46,11.72a1.3,1.3,0,0,1-.44-.07c-4-1.44-4.71-2.38-4.19-5.92l.14-1L94.48,9.5,94.74,11l-.52.14a5.31,5.31,0,0,0-.55.2A3.36,3.36,0,0,1,92.46,11.72ZM88.88,6.89c-.19,2,.36,2.51,3.54,3.64a2.24,2.24,0,0,0,.82-.24l.17-.07v0Z"/><path class="cls-3" d="M92.34,25.59,86.76,25V21.55h.59c2.15,0,3.64.18,4.42,1a3.12,3.12,0,0,1,.6,2.42ZM87.95,24l3.26.32a1.4,1.4,0,0,0-.3-.91c-.38-.41-1.25-.6-3-.63Z"/><path class="cls-3" d="M14.78,100c-2,0-3.19-.52-3.24-3.06a97.71,97.71,0,0,1,1.63-19.4,113.38,113.38,0,0,1,5.2-18.7c4-10.81,9.28-23.33,18.12-34.23C45.78,13.16,57.31,7.35,70.75,7.35h.37A36.5,36.5,0,0,1,86.65,11a54.62,54.62,0,0,1,13.16,9,1.7,1.7,0,0,1,.37.53l.12.23.19.31-.19.31-.3.5c-.25.41-.5.83-.78,1.24s-.41.55-.63.82l-.33.4-.38.48-.47-.4C91,18.91,83.69,18,75.18,21.74A36.18,36.18,0,0,0,59.86,34.32c-5.84,8.27-8.11,18.25-7.15,31.4a97.31,97.31,0,0,0,1.23,9.81.59.59,0,1,1-1.17.21,98.51,98.51,0,0,1-1.25-9.93c-1-13.44,1.35-23.66,7.36-32.17a37.35,37.35,0,0,1,15.81-13A24.49,24.49,0,0,1,86.8,18.41a20.34,20.34,0,0,1,10.91,4.68c.2-.24.37-.46.52-.68.26-.39.51-.79.75-1.19l.13-.21a1.22,1.22,0,0,0-.09-.16C89.73,12.52,80.86,8.61,71.1,8.54c-13.22-.11-24.55,5.56-33.69,16.82-8.73,10.76-14,23.17-17.93,33.89a103.22,103.22,0,0,0-6.76,37.66c0,1.68.45,1.9,2.11,1.9,10.89-.06,22-.05,32.66,0H59.35l-.12-.33-.64-1.75a124.73,124.73,0,0,1-4.9-16.42A.59.59,0,1,1,54.85,80,123.55,123.55,0,0,0,59.7,96.28L60.35,98l.71,1.93H47.5c-10.7,0-21.77,0-32.66,0Z"/></svg>