<svg id="Layer_1" data-name="Layer 1" xmlns="http://www.w3.org/2000/svg" viewBox="0 0 120.25 99.95"><defs><style>.cls-1{fill:#00c9b5;}.cls-2{fill:#9ffff3;}</style></defs><title>sass</title><path class="cls-1" d="M103.63,59.3c-1.88.71-1.81.72-2.8-1.09a15.75,15.75,0,0,1-2-7.39,17.13,17.13,0,0,1,1.35-6.45c.62-1.65-.19-2.23-1.61-2.38a15.53,15.53,0,0,0-3.15,0c-2.7.28-3,.51-3.69,3.13a26.73,26.73,0,0,1-1.47,4.6c-1.74,3.64-3.73,7.14-5.76,10.62a9.1,9.1,0,0,1-1.18,1.84A13.77,13.77,0,0,1,81.17,55a18.25,18.25,0,0,1,1.5-7.19,1.13,1.13,0,0,0-.63-1.6,2.71,2.71,0,0,0-1-.31,14.64,14.64,0,0,0-5.15.36,1.79,1.79,0,0,0-1.43,1.49A22.77,22.77,0,0,1,73,52.6q-2.89,6.49-5.76,13c-1.67,3.76-3.32,7.53-5.3,11.14-.14.26-.26.7-.61.61s-.23-.52-.25-.82a21.37,21.37,0,0,1,1-6.19c.78-3.22,1.64-6.42,2.47-9.63a1.64,1.64,0,0,0-.93-2,2.82,2.82,0,0,0-3.38.22,20.7,20.7,0,0,0,.18-3.6C60.22,52.77,59,51.11,57,50.72a7,7,0,0,0-4.28.8A21.63,21.63,0,0,0,44.89,58a2.83,2.83,0,0,1-.86.8Q38,62,32.08,65.31a.72.72,0,0,1-1-.16,55.57,55.57,0,0,0-6.63-5.72,73.57,73.57,0,0,1-9.32-7.93,15.33,15.33,0,0,1-3.65-6.07C10.34,41.6,11.16,38,13,34.63a32.13,32.13,0,0,1,9-9.88A86.44,86.44,0,0,1,40.37,14c7.32-3.21,14.92-5.27,23-5a20.26,20.26,0,0,1,9.17,2.25,6.8,6.8,0,0,1,3.74,5.07,12.4,12.4,0,0,1-1.44,7.72c-2.74,5.4-7.08,9.22-12.22,12.21a40.62,40.62,0,0,1-13.78,4.9,25.44,25.44,0,0,1-8.12.32c-3.12-.47-6-1.52-8.13-4a.76.76,0,0,0-1-.29c-.43.21-.4.59-.35,1a3.29,3.29,0,0,0,.19.74,8.75,8.75,0,0,0,2.89,3.71c3.25,2.64,7.1,3.42,11.14,3.5a46.2,46.2,0,0,0,11.71-1.35c8.7-2.08,16-6.34,21.3-13.66,3.18-4.37,5.19-9.19,5-14.7a12.86,12.86,0,0,0-3.84-9.09A21.52,21.52,0,0,0,68.84,2a40.25,40.25,0,0,0-13.61-.59A56.17,56.17,0,0,0,43.55,4,104.19,104.19,0,0,0,26.78,11.4,71.94,71.94,0,0,0,11.56,22.35c-4,3.88-7.48,8.16-9.42,13.48a12.36,12.36,0,0,0-.87,7.08,20,20,0,0,0,4.33,8.39A56.16,56.16,0,0,0,16.44,60.8c3.16,2.27,6.46,4.33,9.49,6.77.86.69.85.69-.16,1.22-1.18.62-2.38,1.21-3.54,1.87-4.68,2.65-9.21,5.52-12.9,9.5a14.61,14.61,0,0,0-3.63,6.62A62.32,62.32,0,0,0,16.33,98.9c6.9-.54,12.18-4.13,16.08-10.06a20.65,20.65,0,0,0,3.1-9.53,22.29,22.29,0,0,0-.9-8.82c-.15-.51-.73-1-.5-1.46s.84-.62,1.31-.89l5.7-3.28a1.66,1.66,0,0,1-.15.92c-1.11,4.07-1.88,8.18-1,12.41A17.28,17.28,0,0,0,43,85.5a4.7,4.7,0,0,0,7.08-.06,33.8,33.8,0,0,0,3.47-6.33c.56-1.2,1.07-2.41,1.6-3.62a40.45,40.45,0,0,0,0,4.29,8.34,8.34,0,0,0,1,4,2.92,2.92,0,0,0,4,1.12,9,9,0,0,0,3.55-3.7,172.11,172.11,0,0,0,9.85-19.8c.6-1.45,1.21-2.9,1.89-4.52.1.53.17.85.24,1.18A30.91,30.91,0,0,0,79,67.3a1.31,1.31,0,0,1-.13,1.65c-1.48,2-3.1,3.91-4.7,5.83a50.14,50.14,0,0,0-3.92,4.93c-1,1.6-.43,3.23,1.26,3.59a7.26,7.26,0,0,0,1.61.14,16.92,16.92,0,0,0,8.25-2.37c3.43-2,5.46-4.82,5.37-8.9a14.08,14.08,0,0,0-1.29-5.34.9.9,0,0,1,.07-1,98.79,98.79,0,0,0,6.4-10.64,9.25,9.25,0,0,1,1.14-2c.07.26.13.42.16.58a28.77,28.77,0,0,0,3,8.73c.43.74.21,1.12-.38,1.62a23.27,23.27,0,0,0-5.07,6A11.36,11.36,0,0,0,89,75.94a3.1,3.1,0,0,0,4.07,3.16,18.09,18.09,0,0,0,6.54-3c4.3-3.15,5.56-6.46,4.21-11.1-.53-1.82-.52-1.79,1.31-2.34a26.61,26.61,0,0,1,12.13-.59q.69.11,1.37.26.36-2.17.56-4.4A25.85,25.85,0,0,0,103.63,59.3ZM19.16,91.91a8.66,8.66,0,0,1-3.59.49A2.77,2.77,0,0,1,13,89.57a10.18,10.18,0,0,1,1.26-5.22c1.49-3,4-5,6.56-7a75.32,75.32,0,0,1,7.86-5.2c.82-.49.83-.48,1,.49A14.45,14.45,0,0,1,30,76.27C30.26,83.1,25.3,89.74,19.16,91.91ZM56.37,57.49A42.09,42.09,0,0,1,54,65.81c-1.36,3.7-2.69,7.41-4.41,11a8.61,8.61,0,0,1-1.44,2.3c-.6.63-1.13.56-1.55-.21a11,11,0,0,1-.84-4.4,25.34,25.34,0,0,1,5.46-15.58A6.83,6.83,0,0,1,55,56.21C56,55.94,56.54,56.37,56.37,57.49ZM80,75.56A11.39,11.39,0,0,1,75.13,80c-.22.11-.5.3-.7,0s.11-.4.25-.55c2-2.22,4-4.45,5.84-6.86,0,0,.1,0,.25-.11A6,6,0,0,1,80,75.56Zm14-.09c-.3.14-.65.41-.95.18s-.2-.69-.1-1a18.12,18.12,0,0,1,1.94-4.41,16.32,16.32,0,0,1,2.59-3.13c.4-.38.57-.33.71.21A7.44,7.44,0,0,1,98.38,69,6.83,6.83,0,0,1,94,75.47Z" transform="translate(0 0)"/><path class="cls-2" d="M15.1,51.51a15.33,15.33,0,0,1-3.65-6.07C10.34,41.6,11.16,38,13,34.63a32.13,32.13,0,0,1,9-9.88A86.44,86.44,0,0,1,40.37,14c7.32-3.21,14.92-5.27,23-5a20.26,20.26,0,0,1,9.17,2.25,6.8,6.8,0,0,1,3.74,5.07,12.4,12.4,0,0,1-1.44,7.72c-2.74,5.4-7.08,9.22-12.22,12.21a40.62,40.62,0,0,1-13.78,4.9,25.44,25.44,0,0,1-8.12.32c-3.12-.47-6-1.52-8.13-4a.76.76,0,0,0-1-.29c-.43.21-.4.59-.35,1a3.29,3.29,0,0,0,.19.74,8.75,8.75,0,0,0,2.89,3.71c3.25,2.64,7.1,3.42,11.14,3.5a46.2,46.2,0,0,0,11.71-1.35c8.7-2.08,16-6.34,21.3-13.66,3.18-4.37,5.19-9.19,5-14.7a12.86,12.86,0,0,0-3.84-9.09A21.52,21.52,0,0,0,68.84,2a40.25,40.25,0,0,0-13.61-.59A56.17,56.17,0,0,0,43.55,4,104.19,104.19,0,0,0,26.78,11.4,71.94,71.94,0,0,0,11.56,22.35c-4,3.88-7.48,8.16-9.42,13.48a12.36,12.36,0,0,0-.87,7.08,20,20,0,0,0,4.33,8.39" transform="translate(0 0)"/><path d="M16.33,100a1,1,0,0,1-.69-.26A63.38,63.38,0,0,1,4.84,87.36a1,1,0,0,1-.15-.82,15.68,15.68,0,0,1,3.88-7.09c3.88-4.19,8.61-7.14,13.15-9.7.87-.49,1.76-1,2.62-1.39l.53-.27c-1.82-1.43-3.77-2.77-5.66-4.06-1.12-.76-2.27-1.55-3.39-2.36a56.34,56.34,0,0,1-11-9.7A20.89,20.89,0,0,1,.24,43.13a13.45,13.45,0,0,1,.91-7.67C2.9,30.68,6,26.28,10.83,21.59A73,73,0,0,1,26.27,10.49c2.89-1.61,6-3.12,9.15-4.5a1,1,0,0,1,.83,1.93c-3.12,1.35-6.13,2.83-9,4.4a70.91,70.91,0,0,0-15,10.78c-4.62,4.46-7.53,8.61-9.17,13.08a11.4,11.4,0,0,0-.83,6.48A18.85,18.85,0,0,0,6.4,50.62,54.5,54.5,0,0,0,17.05,60c1.1.79,2.24,1.57,3.35,2.33,2.06,1.41,4.19,2.87,6.19,4.47.58.46,1.08.87,1,1.58s-.63,1-1.33,1.38l-1,.5c-.84.44-1.72.88-2.55,1.36-4.39,2.48-9,5.33-12.65,9.3a13.74,13.74,0,0,0-3.26,5.71,61.28,61.28,0,0,0,9.85,11.24c6.08-.6,11.07-3.82,14.84-9.56a19.55,19.55,0,0,0,2.93-9.06,21.13,21.13,0,0,0-.86-8.41,2.28,2.28,0,0,0-.17-.31,1.94,1.94,0,0,1-.27-1.93,2.82,2.82,0,0,1,1.4-1.15l.33-.17,4.2-2.42L40.6,64a1,1,0,0,1,1.55.7A2.26,2.26,0,0,1,42,65.95l0,.11C41,69.8,40.13,73.84,41,78a16.13,16.13,0,0,0,2.87,6.87A3.22,3.22,0,0,0,46.44,86h0a3.52,3.52,0,0,0,2.79-1.23,30.28,30.28,0,0,0,3.14-5.68l.21-.45c.38-.82.75-1.67,1.11-2.5l.48-1.1a1,1,0,0,1,2,.49,39.13,39.13,0,0,0,0,4.18A7.21,7.21,0,0,0,57,83.25a1.87,1.87,0,0,0,2.65.72,7.83,7.83,0,0,0,3.13-3.29A169,169,0,0,0,72.57,61c.44-1.07.89-2.14,1.36-3.27l.53-1.26a1,1,0,0,1,2,.2l.14.71.09.47a30,30,0,0,0,3.23,8.93,2.35,2.35,0,0,1-.2,2.77C78.43,71.33,77,73,75.66,74.64l-.68.81-1,1.14a33.6,33.6,0,0,0-2.87,3.68,1.56,1.56,0,0,0-.26,1.39,1.14,1.14,0,0,0,.86.61,6.14,6.14,0,0,0,1.37.11,15.76,15.76,0,0,0,7.74-2.23c3.34-1.9,4.92-4.51,4.84-8a13,13,0,0,0-1.2-4.94,2,2,0,0,1,.17-2A97.35,97.35,0,0,0,91,54.7c.08-.16.16-.33.25-.51a6.83,6.83,0,0,1,1-1.69,1,1,0,0,1,1.8.4l.07.22a4.49,4.49,0,0,1,.12.45A28.24,28.24,0,0,0,97.13,62a2.11,2.11,0,0,1-.61,2.94,22.29,22.29,0,0,0-4.85,5.76,10.32,10.32,0,0,0-1.61,5.27,2.25,2.25,0,0,0,.77,1.83,2.31,2.31,0,0,0,2,.32A17.13,17.13,0,0,0,99,75.28c3.93-2.88,5-5.76,3.82-10-.32-1.09-.51-1.75-.16-2.42s1-.87,2.08-1.2l.09,0a27.49,27.49,0,0,1,12.6-.62l.33.06c.11-.78.21-1.56.29-2.33A25,25,0,0,0,104,60.28l-.1,0c-1,.39-1.66.63-2.36.37s-1-.85-1.55-1.82l-.09-.16a16.72,16.72,0,0,1-2.14-7.87A18.24,18.24,0,0,1,99.19,44c.2-.54.13-.71.13-.71s-.15-.17-.87-.25a14.44,14.44,0,0,0-2.93,0,4.55,4.55,0,0,0-2,.44,4.64,4.64,0,0,0-.77,1.92l-.23.86a21.59,21.59,0,0,1-1.31,3.92c-1.81,3.78-3.86,7.37-5.8,10.7l-.24.43a7.24,7.24,0,0,1-1.09,1.61,1,1,0,0,1-1.63-.14,14.63,14.63,0,0,1-2.33-7.73,19.06,19.06,0,0,1,1.56-7.6.89.89,0,0,0,.05-.2.87.87,0,0,0-.16-.1,1.79,1.79,0,0,0-.57-.21,13.4,13.4,0,0,0-4.79.32c-.44.12-.6.28-.68.69A23.89,23.89,0,0,1,73.92,53l-3.28,7.39L68.15,66l-.34.77c-1.54,3.46-3.13,7-5,10.44l0,.1c-.5,1.09-1.22,1.16-1.74,1s-1.1-.52-1-1.68c0,0,0-.08,0-.11a19.68,19.68,0,0,1,.83-5.84l.16-.65c.59-2.4,1.22-4.84,1.84-7.19l.64-2.45c.08-.29.09-.51-.43-.81a1.77,1.77,0,0,0-2.23.16,1,1,0,0,1-1.67-1,19.53,19.53,0,0,0,.17-3.42c-.07-1.45-.57-3.27-2.52-3.63a5.85,5.85,0,0,0-3.64.71,20.48,20.48,0,0,0-7.42,6.15,3.82,3.82,0,0,1-1.19,1.08c-4.24,2.31-8.06,4.39-11.94,6.53a1.76,1.76,0,0,1-2.31-.37,51.24,51.24,0,0,0-6.06-5.26l-.44-.35L22.14,59a59.8,59.8,0,0,1-7.82-6.79,16.2,16.2,0,0,1-3.89-6.48c-1.08-3.76-.54-7.55,1.65-11.6,2-3.63,4.82-6.78,9.25-10.21A86.88,86.88,0,0,1,39.95,13.05C48.35,9.37,56,7.72,63.41,8A21.06,21.06,0,0,1,73,10.38a7.87,7.87,0,0,1,4.27,5.82,13.38,13.38,0,0,1-1.54,8.36c-2.56,5-6.69,9.19-12.63,12.65a41.88,41.88,0,0,1-14.13,5,26.51,26.51,0,0,1-8.46.32,14.08,14.08,0,0,1-7.88-3.45A8.23,8.23,0,0,0,35,41.81c2.67,2.17,5.9,3.17,10.5,3.26a44.8,44.8,0,0,0,11.44-1.32c9-2.15,15.78-6.49,20.7-13.25,3.39-4.67,5-9.26,4.81-14a11.74,11.74,0,0,0-3.53-8.38C76.41,5.61,73.13,4,68.61,3A39.43,39.43,0,0,0,55.35,2.4l-1.57.21a1,1,0,1,1-.3-2.08L55.1.32a41.54,41.54,0,0,1,14,.61C74,2,77.59,3.83,80.39,6.58a13.93,13.93,0,0,1,4.15,9.81c.17,5.27-1.54,10.29-5.21,15.35C74.1,38.93,66.94,43.53,57.42,45.8a47,47,0,0,1-12,1.37c-5-.1-8.77-1.28-11.78-3.73a9.69,9.69,0,0,1-3.21-4.16,4.32,4.32,0,0,1-.25-1,1.83,1.83,0,0,1,.94-2,1.79,1.79,0,0,1,2.23.55c1.68,2,4.06,3.15,7.49,3.67a24.59,24.59,0,0,0,7.79-.32A39.78,39.78,0,0,0,62.09,35.4c5.58-3.25,9.44-7.1,11.81-11.78a11.36,11.36,0,0,0,1.34-7.08A5.72,5.72,0,0,0,72,12.22a19.06,19.06,0,0,0-8.7-2.12C56.18,9.82,49,11.37,40.79,15a84.83,84.83,0,0,0-18.17,10.6c-4.19,3.25-6.87,6.2-8.69,9.55-1.92,3.54-2.4,6.81-1.48,10a14.2,14.2,0,0,0,3.42,5.65,58.19,58.19,0,0,0,7.55,6.54l1.64,1.27.44.35a53.83,53.83,0,0,1,6.2,5.37c3.84-2.12,7.63-4.18,11.82-6.47a1.92,1.92,0,0,0,.54-.53,22.52,22.52,0,0,1,8.17-6.76,8.08,8.08,0,0,1,4.93-.88c2.54.47,4.08,2.51,4.23,5.59a18.33,18.33,0,0,1,0,2,3.92,3.92,0,0,1,2.69.55A2.67,2.67,0,0,1,65.49,61l-.64,2.46c-.61,2.34-1.25,4.76-1.83,7.15l-.16.66c-.21.83-.41,1.65-.55,2.45,1.28-2.56,2.45-5.18,3.59-7.75l.34-.77,2.48-5.59L72,52.18a21.79,21.79,0,0,0,1.47-4.63,2.82,2.82,0,0,1,2.18-2.3,15.36,15.36,0,0,1,5.52-.39,3.68,3.68,0,0,1,1.35.42,2.16,2.16,0,0,1,1.14,2.9A17.32,17.32,0,0,0,82.21,55a13.75,13.75,0,0,0,1.18,5.24l.2-.36c1.92-3.28,3.94-6.83,5.72-10.54a19.71,19.71,0,0,0,1.17-3.55l.23-.88c.83-3,1.47-3.58,4.59-3.9a16.48,16.48,0,0,1,3.36,0,3.18,3.18,0,0,1,2.44,1.24,2.82,2.82,0,0,1,0,2.55,16.32,16.32,0,0,0-1.29,6.05,14.67,14.67,0,0,0,1.88,6.9l.09.16c.17.31.34.63.46.8.2-.06.54-.18.86-.31l.1,0a26.64,26.64,0,0,1,16.19-1.38,1,1,0,0,1,.8,1.11c-.13,1.48-.32,3-.57,4.47a1,1,0,0,1-1.26.85c-.42-.09-.86-.18-1.32-.25a25.44,25.44,0,0,0-11.66.56l-.09,0-.73.23c.05.21.14.51.22.79,1.47,5.06.05,8.83-4.6,12.23a19.21,19.21,0,0,1-6.92,3.15,4.35,4.35,0,0,1-3.79-.71A4.3,4.3,0,0,1,88,75.95a12.35,12.35,0,0,1,1.89-6.33,24.38,24.38,0,0,1,5.3-6.3l.2-.19L95.31,63a27,27,0,0,1-2.65-7,98.67,98.67,0,0,1-6.25,10.35v0a15,15,0,0,1,1.38,5.73c.1,4.24-1.89,7.55-5.9,9.83a18,18,0,0,1-8.75,2.51,8.28,8.28,0,0,1-1.84-.16,3.2,3.2,0,0,1-2.36-1.85,3.6,3.6,0,0,1,.43-3.33,35.65,35.65,0,0,1,3-3.91l1-1.12.68-.81c1.34-1.6,2.73-3.26,4-5a.78.78,0,0,0,.16-.28h0a.7.7,0,0,0-.1-.24,32,32,0,0,1-3-7.45l-.6,1.44A171.09,171.09,0,0,1,64.6,81.72a9.82,9.82,0,0,1-4,4.11,4,4,0,0,1-5.42-1.52,9,9,0,0,1-1.11-3.89,30.35,30.35,0,0,1-3.18,5.65,5.57,5.57,0,0,1-4.46,2.06h0a5.29,5.29,0,0,1-4.29-2A18.13,18.13,0,0,1,38.9,78.4,25.78,25.78,0,0,1,39.58,67l-3.64,2.1-.45.23-.26.13a3.45,3.45,0,0,1,.37.77,23.18,23.18,0,0,1,.94,9.22,21.58,21.58,0,0,1-3.27,10c-4.24,6.45-9.91,10-16.87,10.53ZM35,69.57Zm51.36-3.11Zm-70.13,27-.74,0a3.82,3.82,0,0,1-3.57-3.81,11.14,11.14,0,0,1,1.37-5.75c1.54-3.08,4-5.16,6.85-7.37a75.35,75.35,0,0,1,8-5.28c.56-.33,1.08-.64,1.71-.36s.75.9.88,1.56a15.63,15.63,0,0,1,.4,3.86A17.83,17.83,0,0,1,19.51,92.9h0A9.8,9.8,0,0,1,16.23,93.47Zm12.5-20.17a70.65,70.65,0,0,0-7.3,4.86c-2.73,2.12-4.92,4-6.26,6.66A9,9,0,0,0,14,89.51a1.76,1.76,0,0,0,1.64,1.85,7.63,7.63,0,0,0,3.16-.43h0c5.9-2.09,10.37-8.51,10.18-14.62,0,0,0-.07,0-.11A11.81,11.81,0,0,0,28.73,73.31Zm45.93,8a1.32,1.32,0,0,1-1-.53,1.3,1.3,0,0,1,.28-1.88l0,0c1.93-2.11,4-4.36,5.77-6.77a1.19,1.19,0,0,1,.6-.41l.08,0a1,1,0,0,1,1.46,1,7,7,0,0,1-.92,3.5A12.48,12.48,0,0,1,75.61,81l-.06,0A1.92,1.92,0,0,1,74.65,81.26Zm6.72-8,0,0Zm-34,7.25h-.22a2,2,0,0,1-1.49-1.17,9.18,9.18,0,0,1-.9-4c0-.29,0-.57-.06-.82a1.06,1.06,0,0,1,0-.12,26.45,26.45,0,0,1,5.67-16.2A7.86,7.86,0,0,1,54.7,55.2a2,2,0,0,1,2.71,2.45h0A43.55,43.55,0,0,1,55,66.18l-.35,1c-1.23,3.35-2.5,6.81-4.09,10.1a9.48,9.48,0,0,1-1.63,2.57A2.09,2.09,0,0,1,47.38,80.55Zm-.58-6.14c0,.27,0,.56.06.85a7.65,7.65,0,0,0,.6,3,8.05,8.05,0,0,0,1.17-1.94c1.55-3.2,2.8-6.61,4-9.91l.35-1a41.1,41.1,0,0,0,2.32-8.12h0s0-.09,0-.13l-.13,0a5.75,5.75,0,0,0-3.16,2.29A24.1,24.1,0,0,0,46.81,74.41Zm8.76-17.23ZM93.31,76.79a1.41,1.41,0,0,1-.88-.31A1.89,1.89,0,0,1,92,74.33,19.06,19.06,0,0,1,94,69.65a17.12,17.12,0,0,1,2.76-3.33,1.37,1.37,0,0,1,2.46.72A8.37,8.37,0,0,1,99.43,69v0a7.85,7.85,0,0,1-5,7.43h0l-.12.06A2.25,2.25,0,0,1,93.31,76.79ZM94,75.47h0Zm3.31-6.7a13.47,13.47,0,0,0-1.52,2,16.42,16.42,0,0,0-1.6,3.44A5.6,5.6,0,0,0,97.33,69C97.33,68.92,97.33,68.84,97.33,68.77Zm-55.83-63a1,1,0,0,1-.36-2L43.21,3c1.44-.5,3-.94,4.51-1.32a1,1,0,0,1,.5,2c-1.49.37-2.94.79-4.32,1.27l-2,.72A1,1,0,0,1,41.49,5.74Z" transform="translate(0 0)"/></svg>