<svg id="Layer_1" data-name="Layer 1" xmlns="http://www.w3.org/2000/svg" viewBox="0 0 67.24 100"><defs><style>.cls-1{fill:#77d300;}.cls-2{fill:#bbff5a;}</style></defs><title>sencha_touch</title><path class="cls-1" d="M1.63,33.37a4.15,4.15,0,0,1,0-1.61v0c.08-.72.14-1.45.23-2.17a30,30,0,0,1,1-4.58,32.6,32.6,0,0,1,1.55-4.24A32.23,32.23,0,0,1,6,17.65,31.62,31.62,0,0,1,8.4,14c.51-.65,1-1.29,1.6-1.9s1.34-1.43,2.06-2.1,1.41-1.23,2.14-1.81a29.38,29.38,0,0,1,3.63-2.46c.41-.24.82-.47,1.24-.68l2.83-1.45L24.2,2.45l1.69-.87a.22.22,0,0,1,.16,0L26,1.62a15.46,15.46,0,0,0-2.13,1.46l-.13.11c-.36.34-.72.69-1.06,1.05a13.33,13.33,0,0,0-2.9,4.66A13.82,13.82,0,0,0,19,12.25a12.92,12.92,0,0,0-.06,2.24,13.74,13.74,0,0,0,2.87,7.7A15.05,15.05,0,0,0,23.51,24a12.14,12.14,0,0,0,2.27,1.65c.4.22.8.43,1.21.63L47.69,36.71A31.61,31.61,0,0,1,52.91,40a27.11,27.11,0,0,1,2.38,2c.36.36.75.69,1.1,1.06a33.42,33.42,0,0,1,3,3.57,33.89,33.89,0,0,1,2.28,3.59,31.45,31.45,0,0,1,2.59,6.15c.28.94.51,1.89.73,2.85a12.22,12.22,0,0,1,.18,1.4c.07.67.13,1.35.2,2l.18,1.83c0,.43.1.85.12,1.28s0,.75,0,1.12c0,.08,0,.16,0,.24a26.13,26.13,0,0,1-.26,3.19,30.35,30.35,0,0,1-.74,3.83,32.7,32.7,0,0,1-4.53,10.07,29.5,29.5,0,0,1-2.35,3.08c-.39.44-.78.88-1.19,1.3s-1,1.05-1.56,1.54c-1,.89-2,1.7-3.06,2.52l-.13.1a43,43,0,0,1-3.89,2.31c-1.19.62-2.38,1.21-3.58,1.82L41.8,98.21l-.44.23,0,0a1,1,0,0,1,.12-.1,13.93,13.93,0,0,0,2.11-1.5,13.65,13.65,0,0,0,1.66-1.7A13.88,13.88,0,0,0,47,92.33a13.7,13.7,0,0,0,1.23-4,13.54,13.54,0,0,0,.15-2.5,14.27,14.27,0,0,0-.53-3.32,14.07,14.07,0,0,0-1.09-2.7,12.44,12.44,0,0,0-1.55-2.3c-.35-.4-.7-.81-1.08-1.18a12,12,0,0,0-2.87-2.12c-2.83-1.44-5.67-2.86-8.5-4.28l-8.25-4.13c-1.86-.94-3.73-1.87-5.58-2.82a24.86,24.86,0,0,1-3.21-2c-.77-.56-1.54-1.13-2.28-1.73a28.85,28.85,0,0,1-2.15-2A32.62,32.62,0,0,1,8,53.57a33,33,0,0,1-2.27-3.5,32.32,32.32,0,0,1-3.68-10.3c-.08-.45-.09-.92-.13-1.38s-.1-1.08-.14-1.62-.08-1.1-.14-1.64v0a4,4,0,0,1,0-1.58A.34.34,0,0,0,1.63,33.37Z" transform="translate(0 0)"/><path d="M41.36,100a1.56,1.56,0,0,1-1.26-.64l0,0a1.56,1.56,0,0,1,.24-2.09,2,2,0,0,1,.36-.27,12.46,12.46,0,0,0,1.88-1.33A12,12,0,0,0,44,94.11a12.26,12.26,0,0,0,1.57-2.45,12.05,12.05,0,0,0,1.09-3.57,11.91,11.91,0,0,0,.13-2.22,12.24,12.24,0,0,0-1.44-5.36,10.86,10.86,0,0,0-1.35-2c-.32-.37-.65-.75-1-1.08a10.46,10.46,0,0,0-2.5-1.85c-2.35-1.2-4.74-2.4-7.06-3.56L32,71.29,27.9,69.22l-4.12-2.06-.84-.42c-1.56-.78-3.17-1.59-4.76-2.41a26.55,26.55,0,0,1-3.41-2.09c-.76-.55-1.57-1.15-2.34-1.77a30.14,30.14,0,0,1-2.27-2.06A34.33,34.33,0,0,1,6.76,54.5a34.75,34.75,0,0,1-2.37-3.66A33.87,33.87,0,0,1,.53,40a11,11,0,0,1-.12-1.11c0-.13,0-.26,0-.4Q.31,37.71.24,36.9l0-.56c0-.34-.05-.67-.09-1a5.56,5.56,0,0,1,0-1.9,5.75,5.75,0,0,1,0-1.92c0-.28.06-.57.09-.85s.08-.86.14-1.29a31.74,31.74,0,0,1,1-4.81,33.93,33.93,0,0,1,3.28-7.69,33.38,33.38,0,0,1,2.56-3.79c.59-.75,1.13-1.4,1.68-2,.83-.9,1.49-1.58,2.14-2.19S12.49,7.6,13.22,7A30.77,30.77,0,0,1,17,4.42c.46-.27.89-.5,1.31-.72l1.93-1,.91-.46,2.31-1.18L25.18.2A1.77,1.77,0,0,1,26.4,0a1.56,1.56,0,0,1,.66,2.71,1.78,1.78,0,0,1-.33.23A14.1,14.1,0,0,0,24.81,4.3l0,0c-.33.31-.66.63-1,1a11.71,11.71,0,0,0-2.56,4.13,12.35,12.35,0,0,0-.7,3,11.41,11.41,0,0,0,0,2A12.19,12.19,0,0,0,23,21.24a13.52,13.52,0,0,0,1.55,1.66,10.61,10.61,0,0,0,2,1.43c.36.2.74.4,1.14.6l6.8,3.41,13.91,7a33.31,33.31,0,0,1,5.48,3.45,28.75,28.75,0,0,1,2.51,2.15l.43.41c.23.21.47.44.7.68a35.15,35.15,0,0,1,3.16,3.74A35.64,35.64,0,0,1,63,49.49a33.14,33.14,0,0,1,2.72,6.45c.13.43.25.89.39,1.4a1.56,1.56,0,1,1-3,.77c-.12-.47-.23-.89-.35-1.27A30,30,0,0,0,60.31,51a32.53,32.53,0,0,0-2.17-3.42,32,32,0,0,0-2.88-3.4c-.18-.19-.38-.37-.59-.57l-.48-.46a25.91,25.91,0,0,0-2.24-1.91,30.19,30.19,0,0,0-5-3.12l-13.91-7-6.8-3.41c-.43-.22-.85-.43-1.28-.67a13.73,13.73,0,0,1-2.56-1.86,16.57,16.57,0,0,1-1.9-2.05,15.3,15.3,0,0,1-3.19-8.55,14.53,14.53,0,0,1,.06-2.51,15.46,15.46,0,0,1,.88-3.72q.27-.73.61-1.41l-.3.17a27.71,27.71,0,0,0-3.44,2.33c-.68.55-1.4,1.13-2,1.74s-1.2,1.18-2,2c-.49.53-1,1.12-1.52,1.81a30.28,30.28,0,0,0-2.31,3.43A30.84,30.84,0,0,0,5.8,21.38a31.2,31.2,0,0,0-1.47,4,28.64,28.64,0,0,0-.91,4.34c0,.4-.09.79-.13,1.21s-.06.63-.1.94c0,.05,0,.1,0,.15a2.59,2.59,0,0,0,0,1,1.89,1.89,0,0,1,0,.76,2.41,2.41,0,0,0,0,1c0,.06,0,.12,0,.17,0,.38.07.75.1,1.13l0,.54q.07.81.14,1.62c0,.15,0,.3,0,.46s0,.56.08.8a30.76,30.76,0,0,0,3.5,9.8,31.61,31.61,0,0,0,2.16,3.33,31.2,31.2,0,0,0,3.08,3.55,27.15,27.15,0,0,0,2,1.85c.68.55,1.38,1.07,2.22,1.68a23.42,23.42,0,0,0,3,1.84c1.57.81,3.17,1.61,4.72,2.39l.85.42,4.11,2.06,4.14,2.07,1.43.72c2.32,1.17,4.73,2.37,7.08,3.57a13.5,13.5,0,0,1,3.25,2.39c.44.42.81.86,1.18,1.28a13.92,13.92,0,0,1,1.74,2.59,15.36,15.36,0,0,1,1.8,6.67,14.91,14.91,0,0,1-.16,2.79A15.33,15.33,0,0,1,48.39,93l0,.08c.84-.47,1.7-1,2.62-1.62h0l.46-.37c.85-.68,1.73-1.38,2.53-2.1.46-.42.9-.87,1.36-1.35l.11-.12c.34-.36.71-.75,1.14-1.24a27.75,27.75,0,0,0,2.23-2.91,31.14,31.14,0,0,0,4.32-9.6,28.94,28.94,0,0,0,.7-3.63,24.49,24.49,0,0,0,.25-3,2.55,2.55,0,0,1,0-.28c0-.09,0-.17,0-.26s0-.34,0-.52a1.56,1.56,0,0,1,1.53-1.59h0A1.56,1.56,0,0,1,67.24,66c0,.2,0,.41,0,.61s0,.19,0,.28a2.59,2.59,0,0,1,0,.29A27.88,27.88,0,0,1,67,70.52a32,32,0,0,1-.78,4A34.24,34.24,0,0,1,61.43,85.1a30.8,30.8,0,0,1-2.48,3.24c-.47.53-.86,1-1.24,1.35l-.11.12c-.48.5-1,1-1.52,1.5-.87.79-1.79,1.52-2.68,2.22l-.45.36-.25.18a44.33,44.33,0,0,1-4,2.39L46.22,97.7l-1.15.58L42.51,99.6l-.28.15-.14.07A1.55,1.55,0,0,1,41.36,100ZM64.12,66.89h0ZM.11,31.47h0Z" transform="translate(0 0)"/><path class="cls-2" d="M60.21,60.28a.83.83,0,0,1-.81-.66c-2-9.36-11.35-16.07-11.44-16.14a.83.83,0,0,1,1-1.36c.41.29,10,7.14,12.11,17.15a.83.83,0,0,1-.64,1Z" transform="translate(0 0)"/><path class="cls-2" d="M45.12,41.42a.83.83,0,0,1-.59-.24h0a18.67,18.67,0,0,0-4.89-3,.83.83,0,1,1,.7-1.51A19.71,19.71,0,0,1,45.7,40a.83.83,0,0,1-.59,1.42Z" transform="translate(0 0)"/></svg>