<svg id="Layer_1" data-name="Layer 1" xmlns="http://www.w3.org/2000/svg" viewBox="0 0 103.89 99.75"><defs><style>.cls-1{fill:#3ba137;}.cls-2{fill:#5aea53;}</style></defs><title>server</title><path class="cls-1" d="M31.83,98.32a50.73,50.73,0,1,1,70.41-54c3.85,26.1-12.12,46.41-30.16,54L61.8,71.18A21.83,21.83,0,0,0,72.63,58.76a20.86,20.86,0,0,0,.15-13.26,21.79,21.79,0,0,0-41.59-.16,20.88,20.88,0,0,0,.68,14.93A21.88,21.88,0,0,0,42.11,71.18Z" transform="translate(0 0)"/><path d="M32.44,99.75l-1-.44A52.42,52.42,0,0,1,7.09,77.89,50.84,50.84,0,0,1,.5,44.76a51.93,51.93,0,0,1,102.8-.61,50.82,50.82,0,0,1-7,34.67A52.17,52.17,0,0,1,72.49,99.3l-1,.43-11-29.05.83-.45A20.88,20.88,0,0,0,71.61,58.41a19.84,19.84,0,0,0,.14-12.59,20.71,20.71,0,0,0-39.54-.15,19.86,19.86,0,0,0,.64,14.18,20.67,20.67,0,0,0,9.76,10.38l.84.44ZM51.93,2.15a49.59,49.59,0,0,0-20.7,94.73l9.55-25.21a22.85,22.85,0,0,1-9.9-11A22,22,0,0,1,30.16,45a23.05,23.05,0,0,1,8.4-11.61A22.85,22.85,0,0,1,73.8,45.18a21.94,21.94,0,0,1-.16,13.92A22.79,22.79,0,0,1,63.13,71.67l9.55,25.21C89.23,89.4,105,70.09,101.18,44.46A49.53,49.53,0,0,0,53,2.16Z" transform="translate(0 0)"/><path class="cls-2" d="M74.65,92.38a1.07,1.07,0,0,1-.57-2c.15-.09,15.09-9.51,19.1-21.46a1.07,1.07,0,0,1,2,.68c-4.26,12.68-19.36,22.2-20,22.6A1.07,1.07,0,0,1,74.65,92.38Z" transform="translate(0 0)"/><path class="cls-2" d="M95.49,65.3a1.08,1.08,0,0,1-1-1.44c0-.06,2.07-5.87,1.77-10.64a1.07,1.07,0,0,1,2.14-.14c.33,5.21-1.8,11.24-1.89,11.5A1.07,1.07,0,0,1,95.49,65.3Z" transform="translate(0 0)"/><path class="cls-2" d="M25,53.37a1.07,1.07,0,0,1-1.07-1A29.13,29.13,0,0,1,26,41.49,26.7,26.7,0,0,1,43.15,25.66a1.07,1.07,0,0,1,.68,2c-7.65,2.53-13,7.41-15.77,14.5a27.5,27.5,0,0,0-2,10.06,1.08,1.08,0,0,1-1,1.12Z" transform="translate(0 0)"/></svg>