<svg id="Layer_1" data-name="Layer 1" xmlns="http://www.w3.org/2000/svg" viewBox="0 0 87.7 100"><defs><style>.cls-1{fill:#75c14d;}.cls-2{fill:#fff;}.cls-3{fill:#a2ff6c;}</style></defs><title>shopify_development</title><path class="cls-1" d="M41.55,1A9.07,9.07,0,0,1,46,3.44a.87.87,0,0,0,.6.19c3.74,0,6.25,1.93,8,5,.85,1.51,1.48,3.15,2.27,4.88l3-.88L55.7,99,1,88.83c.35-2.73.69-5.38,1-8q1.29-10,2.59-20T7.15,40.85c.49-3.76,1-7.53,1.45-11.29a1.24,1.24,0,0,1,1-1.26c3.3-1,6.57-2.06,9.87-3a1.59,1.59,0,0,0,1.22-1.32C22.31,17.8,24.51,12,29,7.22c2.47-2.63,5.13-5,8.73-6,.33-.09.66-.2,1-.31Zm5.27,35c-2.43-.35-4.69-.75-7-1C33.3,34.21,27.65,36,23.3,41.15c-3.68,4.33-5.11,9.29-3.59,14.87a14.79,14.79,0,0,0,5,7.29,24,24,0,0,1,4.18,4.29c2,2.79.87,5.6-2.24,6.24a6.46,6.46,0,0,1-2.73-.08,19.15,19.15,0,0,1-6.27-3.18l-.9-.6c-.92,2.7-1.83,5.28-2.67,7.89a1.24,1.24,0,0,0,.34,1.06,37.68,37.68,0,0,0,4.38,3.52A15.28,15.28,0,0,0,29.4,85,15.48,15.48,0,0,0,42.53,67.56C42,62.9,40,59.27,36,56.76c-1.43-.9-2.81-1.87-4.22-2.81a5,5,0,0,1-2.16-5.07,4.39,4.39,0,0,1,4-3.24,15.58,15.58,0,0,1,4,.1c1.62.26,3.2.79,4.87,1.22ZM42.47,4.69a3.94,3.94,0,0,0-3.67-.32A24.45,24.45,0,0,0,34,7a26.29,26.29,0,0,0-9.32,15.7c-.05.26-.08.52-.14.89,2.49-.77,4.83-1.49,7.15-2.25a1,1,0,0,0,.5-.68c.29-1.14.48-2.31.79-3.44,1.11-4,2.91-7.62,6.27-10.25C40.25,6.22,41.33,5.5,42.47,4.69Zm2.47,3.1c-5.25,1.75-8.47,7.35-9,12.2.06,0,.12,0,.17,0,3-.94,6.09-1.87,9.11-2.85a1.08,1.08,0,0,0,.51-.84,27.6,27.6,0,0,0-.14-3.05C45.38,11.48,45.15,9.69,44.94,7.78Zm8.79,6.73c-1.27-3.89-2.66-6.72-5.24-6.92l1,8.24Z"/><path class="cls-1" d="M57.91,99,62,12.65l2.38,2.52a24.21,24.21,0,0,1,2.08,2.25A3.53,3.53,0,0,0,69.9,18.9c1.88-.12,3.77,0,5.65,0,.72,0,1,.19,1.07.94,1.48,10.84,3,21.67,4.51,32.51q2,14.12,3.91,28.24c.56,4,1.12,8,1.7,12.12Z"/><path class="cls-2" d="M46.82,35.94,42.49,47c-1.67-.43-3.25-1-4.87-1.22a15.58,15.58,0,0,0-4-.1,4.39,4.39,0,0,0-4,3.24A5,5,0,0,0,31.83,54c1.4.94,2.79,1.91,4.22,2.81,4,2.51,6,6.14,6.48,10.8A15.48,15.48,0,0,1,29.4,85a15.28,15.28,0,0,1-10.57-2.52,37.68,37.68,0,0,1-4.38-3.52,1.24,1.24,0,0,1-.34-1.06c.84-2.6,1.74-5.18,2.67-7.89l.9.6a19.15,19.15,0,0,0,6.27,3.18,6.46,6.46,0,0,0,2.73.08c3.11-.65,4.19-3.45,2.24-6.24a24,24,0,0,0-4.18-4.29,14.79,14.79,0,0,1-5-7.29c-1.53-5.58-.09-10.54,3.59-14.87,4.35-5.11,10-6.94,16.55-6.21C42.13,35.19,44.39,35.59,46.82,35.94Z"/><polygon class="cls-3" points="69.21 18.91 75.55 18.85 76.62 19.79 86.74 92.66 72.33 95.85 69.21 18.91"/><path d="M55.7,100l-.18,0L.78,89.77A1,1,0,0,1,0,88.71l.32-2.48c.24-1.87.48-3.71.71-5.55l1.2-9.28L3.63,60.65,5.1,49.28l1.1-8.55.41-3.13c.35-2.67.71-5.44,1-8.16a2.19,2.19,0,0,1,1.69-2.06c1.7-.5,3.43-1,5.09-1.57s3.17-1,4.77-1.47c.36-.11.45-.17.57-.65,1.46-5.55,3.61-11.93,8.49-17.12C30.7,4,33.51,1.4,37.44.34l.63-.19.32-.1a1,1,0,0,1,.29,0h2.87a1,1,0,0,1,.28,0,10.2,10.2,0,0,1,4.74,2.63c3.77,0,6.74,1.81,8.82,5.51A36.36,36.36,0,0,1,57,11.53l.37.84,2.16-.64a1,1,0,0,1,1.23,1L56.66,99.09a1,1,0,0,1-1,.91ZM2,88.05,54.8,97.9l4-83.95-1.67.49A1,1,0,0,1,56,13.93c-.26-.56-.49-1.1-.72-1.63a35,35,0,0,0-1.51-3.18C52,6,49.65,4.56,46.58,4.59a1.78,1.78,0,0,1-1.34-.52A7.89,7.89,0,0,0,41.4,1.92H38.82L38.66,2l-.72.22c-3.47.94-6,3.29-8.29,5.69-4.58,4.87-6.63,11-8,16.29a2.52,2.52,0,0,1-1.88,2c-1.58.47-3.19,1-4.74,1.47s-3.41,1.07-5.12,1.58c-.28.08-.28.08-.33.45-.33,2.73-.69,5.5-1,8.18L8.1,41,7,49.52,5.53,60.9,4.14,71.65l-1.2,9.28c-.24,1.84-.47,3.68-.71,5.55ZM46.69,2.81h0ZM27.36,86.09a17,17,0,0,1-9-2.82,29,29,0,0,1-3.65-2.86l-.85-.74a2.16,2.16,0,0,1-.63-2.08c.65-2,1.32-4,2-6.05l.63-1.85a1,1,0,0,1,1.44-.49l.31.21.6.4a18.27,18.27,0,0,0,6,3,5.51,5.51,0,0,0,2.32.07,3,3,0,0,0,2.29-1.66,3.32,3.32,0,0,0-.64-3.1,23.13,23.13,0,0,0-4-4.11,15.52,15.52,0,0,1-5.33-7.77c-1.55-5.67-.28-11,3.78-15.74C26.94,35.39,32.79,33.19,40,34c1.57.17,3.1.41,4.73.66L47,35a1,1,0,0,1,.75,1.3l-4.33,11a1,1,0,0,1-1.13.58l-1.52-.42a29.5,29.5,0,0,0-3.26-.79,14.7,14.7,0,0,0-3.74-.09,3.47,3.47,0,0,0-3.12,2.49,4.1,4.1,0,0,0,1.75,4.07l1.34.9c.93.63,1.9,1.29,2.86,1.89,4.08,2.57,6.34,6.33,6.93,11.5A16.45,16.45,0,0,1,29.54,85.92,14.46,14.46,0,0,1,27.36,86.09ZM15.09,78.24l.83.73a27.1,27.1,0,0,0,3.4,2.68A14.37,14.37,0,0,0,29.25,84,14.57,14.57,0,0,0,41.58,67.67a12.84,12.84,0,0,0-6-10.09c-1-.62-2-1.29-2.91-1.93l-1.33-.9a6,6,0,0,1-2.56-6.06,5.35,5.35,0,0,1,4.8-4,16.39,16.39,0,0,1,4.24.1,31.36,31.36,0,0,1,3.47.83l.67.19,3.58-9.1-1.09-.17c-1.6-.25-3.12-.48-4.65-.65C33.16,35.16,28,37.08,24,41.77c-3.63,4.26-4.77,9-3.39,14a13.71,13.71,0,0,0,4.72,6.82,24.73,24.73,0,0,1,4.34,4.47,5.22,5.22,0,0,1,.85,4.9,4.85,4.85,0,0,1-3.68,2.83,7.38,7.38,0,0,1-3.15-.08,19.75,19.75,0,0,1-6.44-3.22l-.23.68c-.7,2-1.37,4-2,5.94A.57.57,0,0,0,15.09,78.24ZM15,78.06ZM24.52,24.6a1,1,0,0,1-.95-1.11l.05-.34c0-.22.06-.4.1-.6A27.29,27.29,0,0,1,33.38,6.3a20.07,20.07,0,0,1,4.15-2.39l.85-.41a4.82,4.82,0,0,1,4.53.33A1,1,0,0,1,43,5.47l-1.08.76c-.75.52-1.45,1-2.13,1.54-2.82,2.2-4.71,5.3-5.94,9.75-.16.6-.29,1.2-.43,1.84s-.22,1.06-.36,1.59A2,2,0,0,1,32,22.3c-1.83.6-3.64,1.16-5.56,1.75l-1.61.5A1,1,0,0,1,24.52,24.6ZM40.21,5a2.23,2.23,0,0,0-1,.23l-.87.41a18.67,18.67,0,0,0-3.76,2.14,25.31,25.31,0,0,0-8.84,14.47l.1,0c1.86-.57,3.61-1.12,5.37-1.69l0-.06c.13-.49.23-1,.34-1.51s.27-1.3.45-2c1.35-4.87,3.45-8.28,6.61-10.75.56-.43,1.12-.84,1.7-1.25ZM36,21a1.21,1.21,0,0,1-.36-.06,1,1,0,0,1-.73-1c.58-4.89,3.85-11,9.69-13a1,1,0,0,1,1.26.8q.1.85.19,1.67c.15,1.32.3,2.56.42,3.83a28.32,28.32,0,0,1,.14,3.16,2,2,0,0,1-1.17,1.73c-2.55.83-5.15,1.63-7.67,2.41l-1.45.45A1,1,0,0,1,36,21Zm-.35-.06h0ZM44.13,9.14c-3.85,1.82-6.22,5.88-7,9.56l.15,0c2.45-.76,5-1.54,7.47-2.34l0,0a26.62,26.62,0,0,0-.13-2.91c-.12-1.25-.26-2.49-.42-3.79Zm.61,7.12h0Zm4.78.53a1,1,0,0,1-1-.84l-1-8.24a1,1,0,0,1,1-1.07c3.42.27,4.93,4.05,6.08,7.58A1,1,0,0,1,54,15.43l-4.21,1.32A1,1,0,0,1,49.52,16.79ZM49.63,9l.7,5.6,2.18-.68C51.57,11.22,50.67,9.66,49.63,9Z"/><path d="M57.91,100a1,1,0,0,1-1-1L61,12.6A1,1,0,0,1,62.69,12l2.38,2.53.64.65a14.16,14.16,0,0,1,1.52,1.69,2.59,2.59,0,0,0,2.61,1.08c1.16-.08,2.33-.06,3.45,0,.74,0,1.5,0,2.24,0a1.8,1.8,0,0,1,2,1.76c1,7.38,2.06,14.88,3.07,22.14q.72,5.18,1.44,10.37Q83.25,60.59,84.42,69l.76,5.47a1,1,0,1,1-1.9.26l-.76-5.47q-1.16-8.43-2.33-16.85-.72-5.18-1.44-10.37c-1-7.26-2.06-14.76-3.07-22.14l0-.11h-.08c-.77,0-1.55,0-2.3,0-1.09,0-2.22,0-3.3,0A4.48,4.48,0,0,1,65.68,18a12.56,12.56,0,0,0-1.32-1.46l-.68-.7L62.85,15,58.93,97.83l26.74-5.92L85.26,89c-.35-2.48-.69-4.93-1-7.39a1,1,0,1,1,1.9-.26c.34,2.45.69,4.91,1,7.38l.53,3.76a1,1,0,0,1-.74,1.07L58.12,100Z"/><path class="cls-3" d="M69.21,84.61a.77.77,0,0,1-.76-.73L67.28,59a.77.77,0,0,1,1.53-.07L70,83.81a.77.77,0,0,1-.73.8Z"/><path class="cls-3" d="M69.37,92a.77.77,0,0,1-.76-.73L68.44,88A.77.77,0,0,1,70,87.94l.17,3.27a.77.77,0,0,1-.73.8Z"/></svg>