<svg id="Layer_1" data-name="Layer 1" xmlns="http://www.w3.org/2000/svg" viewBox="0 0 90 100.14"><defs><style>.cls-1{fill:#3ef1ff;}.cls-2{fill:#79f4f7;}.cls-3{fill:#00c7cc;}.cls-4{fill:#ff9811;}.cls-5{fill:#f7e286;}.cls-6{fill:#ee8700;}.cls-7{fill:#ff5023;}</style></defs><title>SMARTPHONE_APP_DEVELOPMENT</title><path class="cls-1" d="M55.14,1.06H7.82A6.76,6.76,0,0,0,1.06,7.82V92.32a6.76,6.76,0,0,0,6.76,6.76H55.14a6.76,6.76,0,0,0,6.76-6.76V7.82a6.76,6.76,0,0,0-6.76-6.76Zm0,0"/><path class="cls-2" d="M11.2,99.08H7.82a6.76,6.76,0,0,1-6.76-6.76V7.82A6.76,6.76,0,0,1,7.82,1.06H11.2A6.76,6.76,0,0,0,4.44,7.82V92.32a6.76,6.76,0,0,0,6.76,6.76Zm0,0"/><path class="cls-3" d="M61.9,87.81v2.26a33.06,33.06,0,0,1-3.38,1.12,31.78,31.78,0,0,1-8.45,1.13A32.1,32.1,0,0,1,29.13,35.89,32.1,32.1,0,0,0,61.9,87.81Zm0,0"/><path class="cls-4" d="M45,1.06V6.13a3.39,3.39,0,0,1-3.38,3.38H21.34A3.39,3.39,0,0,1,18,6.13V1.06Zm0,0"/><path d="M21.34,10.56A4.46,4.46,0,0,1,16.9,6.13V0H46.06V6.13a4.46,4.46,0,0,1-4.43,4.44ZM19,2.11v4a2.34,2.34,0,0,0,2.33,2.32H41.62a2.34,2.34,0,0,0,2.32-2.33v-4Z"/><path d="M55.14,100.14H7.82A7.83,7.83,0,0,1,0,92.32V79.79a1.06,1.06,0,1,1,2.11,0V92.32A5.71,5.71,0,0,0,7.82,98H55.14a5.71,5.71,0,0,0,5.7-5.7V7.82a5.71,5.71,0,0,0-5.7-5.7H7.82a5.71,5.71,0,0,0-5.7,5.7V62.68a1.06,1.06,0,1,1-2.11,0V7.82A7.83,7.83,0,0,1,7.82,0H55.14A7.83,7.83,0,0,1,63,7.82V92.32A7.83,7.83,0,0,1,55.14,100.14Z"/><path d="M1.06,74.51A1.06,1.06,0,0,1,0,73.45V69a1.06,1.06,0,1,1,2.11,0v4.44A1.06,1.06,0,0,1,1.06,74.51Z"/><path class="cls-5" d="M84.08,56.83a32.11,32.11,0,0,1-23.66,31A31.78,31.78,0,0,1,52,88.94a32.11,32.11,0,1,1,0-64.23,31.78,31.78,0,0,1,8.45,1.13,32.11,32.11,0,0,1,23.66,31Zm0,0"/><path d="M52.86,90h0a33.17,33.17,0,0,1,0-66.34h0a32.83,32.83,0,0,1,8.68,1.17,33.17,33.17,0,0,1,0,64A32.82,32.82,0,0,1,52.86,90Zm0-64.23h0a31.06,31.06,0,1,0,0,62.11h0A30.73,30.73,0,0,0,61,86.79a31.06,31.06,0,0,0,0-59.92A30.73,30.73,0,0,0,52.86,25.77Z"/><path d="M59.49,94.47a1.06,1.06,0,0,1-.22-2.09c.66-.14,1.33-.31,2-.49a1.06,1.06,0,1,1,.56,2c-.7.19-1.41.36-2.11.51Z"/><path d="M51.81,95.28h-.69a1.06,1.06,0,0,1,0-2.11h.68c1.14,0,2.29-.06,3.42-.16a1.06,1.06,0,0,1,.2,2.1C54.24,95.22,53,95.28,51.81,95.28ZM46.94,95h-.14a38.36,38.36,0,0,1-4.25-.8,1.06,1.06,0,1,1,.51-2.05,36.11,36.11,0,0,0,4,.75,1.06,1.06,0,0,1-.13,2.1Zm-8.15-2a1.05,1.05,0,0,1-.37-.07,38.22,38.22,0,0,1-4-1.74,1.06,1.06,0,0,1,1-1.88,36,36,0,0,0,3.74,1.64,1.06,1.06,0,0,1-.37,2Zm-7.49-3.8a1,1,0,0,1-.58-.17,38.52,38.52,0,0,1-3.47-2.58,1.06,1.06,0,1,1,1.35-1.62,36.49,36.49,0,0,0,3.28,2.44,1.06,1.06,0,0,1-.58,1.94Zm-6.44-5.38a1.05,1.05,0,0,1-.76-.33,38.6,38.6,0,0,1-2.8-3.29A1.06,1.06,0,0,1,23,78.88,36.49,36.49,0,0,0,25.63,82a1.06,1.06,0,0,1-.76,1.79Zm-5.08-6.68a1.06,1.06,0,0,1-.91-.52,38.26,38.26,0,0,1-2-3.83,1.06,1.06,0,1,1,1.93-.87,36.15,36.15,0,0,0,1.89,3.62,1.06,1.06,0,0,1-.91,1.6Zm-3.45-7.65a1.06,1.06,0,0,1-1-.73,38.08,38.08,0,0,1-1.08-4.19,1.06,1.06,0,0,1,2.07-.41,36,36,0,0,0,1,4,1.06,1.06,0,0,1-1,1.38ZM14.7,61.21a1.06,1.06,0,0,1-1.05-1c-.09-1.06-.13-2.13-.13-3.2,0-.37,0-.75,0-1.12a1.06,1.06,0,1,1,2.11.06c0,.35,0,.71,0,1.06,0,1,0,2,.12,3a1.06,1.06,0,0,1-1,1.14ZM15,52.82H14.8a1.06,1.06,0,0,1-.9-1.19,38.19,38.19,0,0,1,.85-4.24,1.06,1.06,0,1,1,2,.53,36.07,36.07,0,0,0-.8,4A1.06,1.06,0,0,1,15,52.82ZM88.4,51.76a1.06,1.06,0,0,1-1-.88,36.16,36.16,0,0,0-.92-4,1.06,1.06,0,1,1,2-.59,38.21,38.21,0,0,1,1,4.21,1.06,1.06,0,0,1-.86,1.22ZM17.07,44.69a1.06,1.06,0,0,1-1-1.44,38.24,38.24,0,0,1,1.79-3.94,1.06,1.06,0,1,1,1.87,1A36.1,36.1,0,0,0,18.05,44,1.06,1.06,0,0,1,17.07,44.69Zm69-1a1.06,1.06,0,0,1-1-.65,36.24,36.24,0,0,0-1.79-3.67,1.06,1.06,0,1,1,1.84-1A38.32,38.32,0,0,1,87,42.24a1.06,1.06,0,0,1-1,1.47ZM21,37.26a1.06,1.06,0,0,1-.87-1.65,38.53,38.53,0,0,1,2.62-3.44,1.06,1.06,0,1,1,1.6,1.37,36.45,36.45,0,0,0-2.48,3.25A1.06,1.06,0,0,1,21,37.26Zm61-.87a1.06,1.06,0,0,1-.86-.44,36.33,36.33,0,0,0-2.57-3.18,1.06,1.06,0,0,1,1.57-1.42,38.52,38.52,0,0,1,2.72,3.36,1.06,1.06,0,0,1-.86,1.67Zm-55.52-5.5a1.06,1.06,0,0,1-.72-1.83A38.61,38.61,0,0,1,29,26.29,1.06,1.06,0,1,1,30.29,28a36.47,36.47,0,0,0-3.14,2.61A1.05,1.05,0,0,1,26.43,30.88Zm49.88-.72a1.05,1.05,0,0,1-.7-.26,36.25,36.25,0,0,0-3.22-2.52,1.06,1.06,0,1,1,1.21-1.73A38.34,38.34,0,0,1,77,28.31a1.06,1.06,0,0,1-.7,1.85ZM33.17,25.89a1.06,1.06,0,0,1-.53-2A38.28,38.28,0,0,1,36.5,22a1.06,1.06,0,1,1,.84,1.94,36.18,36.18,0,0,0-3.64,1.84A1.05,1.05,0,0,1,33.17,25.89Zm36.24-.52a1.05,1.05,0,0,1-.5-.13,36.14,36.14,0,0,0-3.7-1.73,1.06,1.06,0,0,1,.79-2,38.26,38.26,0,0,1,3.92,1.83,1.06,1.06,0,0,1-.5,2ZM40.86,22.54a1.06,1.06,0,0,1-.31-2.07,38.09,38.09,0,0,1,4.2-1,1.06,1.06,0,1,1,.38,2.08,36,36,0,0,0-4,1A1.06,1.06,0,0,1,40.86,22.54Zm20.75-.29a1.06,1.06,0,0,1-.28,0l-.06,0a35.9,35.9,0,0,0-3.93-.84,1.06,1.06,0,0,1,.33-2.09,38,38,0,0,1,4.16.89l.07,0a1.06,1.06,0,0,1-.28,2.07ZM49.12,21A1.06,1.06,0,0,1,49,18.9c.9-.06,1.81-.1,2.72-.1h.06c.51,0,1,0,1.55,0a1.06,1.06,0,1,1-.09,2.11l-1.46,0h-.05c-.86,0-1.72,0-2.57.09Z"/><path d="M88.94,58.1A1.06,1.06,0,0,1,87.89,57c0-.68,0-1.37-.06-2.05a1.06,1.06,0,1,1,2.11-.12c0,.72.06,1.45.06,2.17A1.06,1.06,0,0,1,88.94,58.1Z"/><path class="cls-6" d="M66.59,61a14.13,14.13,0,0,1-1.34,3.21l2.25,3.36-4.78,4.78-2.3-1.54-1.06-.71a14.13,14.13,0,0,1-3.21,1.34l-.79,4H48.59l-.79-4a14.13,14.13,0,0,1-3.21-1.34l-3.36,2.25-4.78-4.78,2.25-3.36A14.13,14.13,0,0,1,37.35,61l-4-.79V53.45l4-.79a14.13,14.13,0,0,1,1.34-3.21l-2.25-3.36,4.78-4.78,3.36,2.25a14.13,14.13,0,0,1,3.21-1.34l.79-4h6.76l.79,4a14.13,14.13,0,0,1,3.21,1.34l1.06-.71,2.3-1.54,4.78,4.78-2.25,3.36a14.13,14.13,0,0,1,1.34,3.21l4,.79v6.76Zm0,0"/><path d="M56.22,76.48H47.73l-.84-4.2a15.21,15.21,0,0,1-2.24-.93l-3.55,2.38-6-6,2.38-3.55a15.21,15.21,0,0,1-.93-2.24l-4.2-.84V52.58l4.2-.84a15.22,15.22,0,0,1,.93-2.24l-2.38-3.55,6-6,3.55,2.38a15.21,15.21,0,0,1,2.24-.93l.84-4.2h8.49l.84,4.2a15.21,15.21,0,0,1,2.24.93l3.55-2.38,6,6L66.49,49.5a15.22,15.22,0,0,1,.93,2.24l4.2.84v8.49l-4.2.84a15.21,15.21,0,0,1-.93,2.24l2.38,3.55-6,6L59.3,71.35a15.23,15.23,0,0,1-2.24.93Zm-6.76-2.11h5l.75-3.76.63-.17a13.09,13.09,0,0,0,3-1.24l.57-.32L62.59,71l3.56-3.56L64,64.26l.32-.57a13.09,13.09,0,0,0,1.24-3l.17-.63,3.76-.75v-5l-3.76-.75-.17-.63a13.1,13.1,0,0,0-1.24-3L64,49.4l2.13-3.18-3.56-3.56L59.4,44.79l-.57-.32a13.08,13.08,0,0,0-3-1.24l-.63-.17-.75-3.76h-5l-.75,3.76-.63.17a13.08,13.08,0,0,0-3,1.24l-.57.32-3.18-2.13L37.8,46.22l2.13,3.18-.32.57a13.1,13.1,0,0,0-1.24,3l-.17.63-3.76.75v5l3.76.75.17.63a13.09,13.09,0,0,0,1.24,3l.32.57L37.8,67.45,41.36,71l3.18-2.13.57.32a13.09,13.09,0,0,0,3,1.24l.63.17Z"/><path class="cls-7" d="M60.42,56.83A8.45,8.45,0,1,1,52,48.38a8.45,8.45,0,0,1,8.45,8.45Zm0,0"/><path d="M52,66.34a9.51,9.51,0,1,1,9.51-9.51A9.52,9.52,0,0,1,52,66.34Zm0-16.9a7.39,7.39,0,1,0,7.39,7.39A7.4,7.4,0,0,0,52,49.44Z"/></svg>