<svg id="Layer_1" data-name="Layer 1" xmlns="http://www.w3.org/2000/svg" viewBox="0 0 100.06 99.83"><defs><style>.cls-1{fill:#00ddd7;}.cls-2{fill:#5afff7;}.cls-3{fill:#8ffff7;}</style></defs><title>soap</title><path class="cls-1" d="M51.72,48.24H72a59.07,59.07,0,0,0-4.51-21.08,62.47,62.47,0,0,1-15.73,2.43Zm0,0" transform="translate(0)"/><path class="cls-2" d="M69.32,23a59,59,0,0,0,14.07-7l1.1-.84A48.86,48.86,0,0,0,53.57,1.07l-.87.71A62.62,62.62,0,0,1,69.32,23Zm0,0" transform="translate(0)"/><path class="cls-1" d="M51.72,5.39V26.21A59,59,0,0,0,66,24,59.12,59.12,0,0,0,51.72,5.39Zm0,0" transform="translate(0)"/><path class="cls-2" d="M71.26,72.27a62.27,62.27,0,0,1,15,7.84l1.47,1.1A48.75,48.75,0,0,0,99,51.63H75.33a62.42,62.42,0,0,1-4.07,20.64Zm0,0" transform="translate(0)"/><path class="cls-1" d="M16.68,16a59,59,0,0,0,14.07,7A62.59,62.59,0,0,1,47.37,1.78l-.87-.71a48.9,48.9,0,0,0-31,14.11Zm0,0" transform="translate(0)"/><path class="cls-1" d="M48.34,5.39A59.12,59.12,0,0,0,34,24a59,59,0,0,0,14.32,2.17Zm0,0" transform="translate(0)"/><path class="cls-1" d="M24.73,51.63H1.07A48.78,48.78,0,0,0,12.33,81.21l1.44-1.07a62.41,62.41,0,0,1,15.05-7.86,62.19,62.19,0,0,1-4.09-20.64Zm0,0" transform="translate(0)"/><path class="cls-1" d="M29.38,26.11a62.26,62.26,0,0,1-14.61-7.35l-1.59-1.08A48.76,48.76,0,0,0,1.07,48.24H24.73a62.35,62.35,0,0,1,4.65-22.13Zm0,0" transform="translate(0)"/><path class="cls-1" d="M28.11,48.24H48.34V29.59a62.45,62.45,0,0,1-15.73-2.43,59,59,0,0,0-4.51,21.08Zm0,0" transform="translate(0)"/><path class="cls-1" d="M47.19,97.94A62.72,62.72,0,0,1,30.11,75.39a58.65,58.65,0,0,0-14.35,7.48l-1.17.87A48.87,48.87,0,0,0,46,98.77Zm0,0" transform="translate(0)"/><path class="cls-1" d="M48.34,68.59v-17H28.11A59.21,59.21,0,0,0,32,71.19a62.35,62.35,0,0,1,16.32-2.6Zm0,0" transform="translate(0)"/><path class="cls-2" d="M84.28,82.84A59,59,0,0,0,70,75.39,62.4,62.4,0,0,1,52.87,97.94l1.16.82a48.87,48.87,0,0,0,31.45-15Zm0,0" transform="translate(0)"/><path class="cls-2" d="M85.37,18.71a62.78,62.78,0,0,1-14.68,7.4,62.44,62.44,0,0,1,4.65,22.13H99A48.74,48.74,0,0,0,86.82,17.61Zm0,0" transform="translate(0)"/><path class="cls-1" d="M48.34,94.48V72a59,59,0,0,0-15,2.37,59.18,59.18,0,0,0,15,20.14Zm0,0" transform="translate(0)"/><path class="cls-1" d="M72,51.63H51.72v17a62.4,62.4,0,0,1,16.33,2.6A59.42,59.42,0,0,0,72,51.63Zm0,0" transform="translate(0)"/><path class="cls-1" d="M66.74,74.33a59.09,59.09,0,0,0-15-2.37V94.48a58.94,58.94,0,0,0,15-20.15Zm0,0" transform="translate(0)"/><path d="M72,49.31H51.72a1.07,1.07,0,0,1-1.07-1.07V29.59a1.07,1.07,0,0,1,1-1.07,61.5,61.5,0,0,0,15.46-2.39,1.07,1.07,0,0,1,1.28.61A60,60,0,0,1,73,48.21,1.07,1.07,0,0,1,72,49.31ZM52.79,47.17H70.85a57.79,57.79,0,0,0-4-18.73,63.66,63.66,0,0,1-14,2.18Z" transform="translate(0)"/><path d="M69.32,24.08a1.07,1.07,0,0,1-1-.61A61.2,61.2,0,0,0,52,2.6,1.07,1.07,0,0,1,52,.95L52.9.24A1.07,1.07,0,0,1,53.65,0,50,50,0,0,1,85.24,14.37a1.07,1.07,0,0,1-.1,1.61l-1.1.84,0,0A60.17,60.17,0,0,1,69.67,24,1.06,1.06,0,0,1,69.32,24.08ZM54.9,2.25a63.18,63.18,0,0,1,15,19.44,57.87,57.87,0,0,0,12.9-6.59l.09-.07A47.91,47.91,0,0,0,54.9,2.25Z" transform="translate(0)"/><path d="M51.72,27.28a1.07,1.07,0,0,1-1.07-1.07V5.39a1.07,1.07,0,0,1,1.77-.8A59.94,59.94,0,0,1,67,23.57a1.07,1.07,0,0,1-.67,1.49,60.18,60.18,0,0,1-14.58,2.21ZM52.79,7.8V25.1A58.09,58.09,0,0,0,64.5,23.35,57.68,57.68,0,0,0,52.79,7.8Z" transform="translate(0)"/><path d="M30.75,24.08A1.06,1.06,0,0,1,30.4,24a60.15,60.15,0,0,1-14.32-7.17l-1.16-.79a1.07,1.07,0,0,1-.15-1.64A50.07,50.07,0,0,1,46.42,0a1.07,1.07,0,0,1,.75.24L48,.95A1.07,1.07,0,0,1,48,2.6,61.17,61.17,0,0,0,31.71,23.48,1.07,1.07,0,0,1,30.75,24.08ZM17.2,15l.08.05h0a57.84,57.84,0,0,0,12.92,6.6,63.14,63.14,0,0,1,15-19.44A47.93,47.93,0,0,0,17.2,15Z" transform="translate(0)"/><path d="M48.34,27.28h0a60.24,60.24,0,0,1-14.57-2.21,1.07,1.07,0,0,1-.67-1.49,59.93,59.93,0,0,1,14.57-19,1.07,1.07,0,0,1,1.77.8V26.21a1.07,1.07,0,0,1-1.07,1.07ZM35.56,23.35A58.15,58.15,0,0,0,47.27,25.1V7.8A57.68,57.68,0,0,0,35.56,23.35Z" transform="translate(0)"/><path d="M12.33,82.27a1.07,1.07,0,0,1-.82-.39A49.53,49.53,0,0,1,0,51.66a1.07,1.07,0,0,1,1.07-1.1H24.73a1.07,1.07,0,0,1,1.07,1,61.07,61.07,0,0,0,4,20.29,1.07,1.07,0,0,1-.63,1.38A61.44,61.44,0,0,0,14.4,81L13,82.06A1.06,1.06,0,0,1,12.33,82.27ZM2.18,52.69a47.36,47.36,0,0,0,10.33,27l.62-.46h0a63.41,63.41,0,0,1,14.3-7.62A63.17,63.17,0,0,1,23.7,52.69Z" transform="translate(0)"/><path d="M24.73,49.31H1.07A1.07,1.07,0,0,1,0,48.21,50.09,50.09,0,0,1,12.38,17a1.07,1.07,0,0,1,1.4-.18l1.59,1.08a61.32,61.32,0,0,0,14.36,7.23,1.07,1.07,0,0,1,.63,1.41A61.12,61.12,0,0,0,25.8,48.27,1.07,1.07,0,0,1,24.73,49.31ZM2.18,47.17H23.7A63.21,63.21,0,0,1,28,26.74a63.2,63.2,0,0,1-13.81-7.1l-.8-.54A48,48,0,0,0,2.18,47.17Z" transform="translate(0)"/><path d="M48.34,49.31H28.11A1.07,1.07,0,0,1,27,48.21a59.88,59.88,0,0,1,4.59-21.46,1.07,1.07,0,0,1,1.28-.61,61.5,61.5,0,0,0,15.46,2.39,1.07,1.07,0,0,1,1,1.07V48.24A1.07,1.07,0,0,1,48.34,49.31ZM29.21,47.17H47.27V30.62a63.66,63.66,0,0,1-14-2.18A57.72,57.72,0,0,0,29.21,47.17Z" transform="translate(0)"/><path d="M46,99.83H46A50,50,0,0,1,13.82,84.47,1.07,1.07,0,0,1,14,82.87L15.13,82a59.82,59.82,0,0,1,14.62-7.62,1.07,1.07,0,0,1,1.33.57A61.26,61.26,0,0,0,47.88,97.12a1.07,1.07,0,0,1-.07,1.69l-1.16.82A1.07,1.07,0,0,1,46,99.83Zm-29.83-16a47.82,47.82,0,0,0,29,13.75A63.26,63.26,0,0,1,29.55,76.73a57.49,57.49,0,0,0-13.17,7Z" transform="translate(0)"/><path d="M32,72.26a1.07,1.07,0,0,1-1-.68,60.18,60.18,0,0,1-4-19.92,1.07,1.07,0,0,1,1.07-1.1H48.34a1.07,1.07,0,0,1,1.07,1.07v17a1.07,1.07,0,0,1-1,1.07,61.42,61.42,0,0,0-16,2.56A1.07,1.07,0,0,1,32,72.26Zm-2.8-19.57a58,58,0,0,0,3.45,17.2,63.55,63.55,0,0,1,14.6-2.33V52.69Zm19.12,15.9h0Z" transform="translate(0)"/><path d="M54,99.83a1.07,1.07,0,0,1-.62-.2l-1.16-.82a1.07,1.07,0,0,1-.06-1.69A60.93,60.93,0,0,0,69,75a1.07,1.07,0,0,1,1.34-.57A60.16,60.16,0,0,1,84.9,82h0l1.2.89a1.07,1.07,0,0,1,.13,1.59A50,50,0,0,1,54.11,99.83Zm16.5-23.1A62.93,62.93,0,0,1,54.89,97.62a47.81,47.81,0,0,0,29-13.76l-.21-.16A57.87,57.87,0,0,0,70.52,76.73Z" transform="translate(0)"/><path d="M48.34,95.54a1.07,1.07,0,0,1-.7-.26,59.93,59.93,0,0,1-15.28-20.5A1.07,1.07,0,0,1,33,73.31,60.19,60.19,0,0,1,48.31,70.9a1.09,1.09,0,0,1,.77.3,1.07,1.07,0,0,1,.32.77V94.48a1.07,1.07,0,0,1-1.07,1.07ZM34.83,75a57.68,57.68,0,0,0,12.45,17v-19A58.1,58.1,0,0,0,34.83,75Z" transform="translate(0)"/><path d="M68.05,72.26a1.07,1.07,0,0,1-.31,0,61.43,61.43,0,0,0-16.05-2.56,1.07,1.07,0,0,1-1-1.07v-17a1.07,1.07,0,0,1,1.07-1.07H72A1.07,1.07,0,0,1,73,51.66a60.38,60.38,0,0,1-4,19.92A1.07,1.07,0,0,1,68.05,72.26Zm-15.26-4.7A63.55,63.55,0,0,1,67.4,69.89a58.21,58.21,0,0,0,3.45-17.2H52.79Z" transform="translate(0)"/><path d="M51.72,95.55a1.07,1.07,0,0,1-1.07-1.07V72a1.07,1.07,0,0,1,1.1-1.07A60.23,60.23,0,0,1,67,73.31a1.07,1.07,0,0,1,.67,1.46A59.66,59.66,0,0,1,52.42,95.29,1.07,1.07,0,0,1,51.72,95.55Zm1.07-22.48v19A57.41,57.41,0,0,0,65.25,75,58.11,58.11,0,0,0,52.79,73.07Z" transform="translate(0)"/><path d="M99,49.31H75.33a1.07,1.07,0,0,1-1.07-1A61.2,61.2,0,0,0,69.7,26.52a1.07,1.07,0,0,1,.63-1.41,61.87,61.87,0,0,0,14.41-7.26l1.43-1.09a1.07,1.07,0,0,1,1.45.14,49.9,49.9,0,0,1,9.13,15,1.07,1.07,0,0,1-2,.77,47.74,47.74,0,0,0-8.09-13.64l-.66.5,0,0a63.84,63.84,0,0,1-13.88,7.15,63.29,63.29,0,0,1,4.27,20.43H97.88a47.94,47.94,0,0,0-1-7.25A1.07,1.07,0,1,1,99,39.48a50.11,50.11,0,0,1,1.07,8.73A1.07,1.07,0,0,1,99,49.31Z" transform="translate(0)"/><path d="M87.73,82.27a1.06,1.06,0,0,1-.64-.21L85.64,81a61.35,61.35,0,0,0-14.74-7.7,1.07,1.07,0,0,1-.63-1.38,61.27,61.27,0,0,0,4-20.29,1.07,1.07,0,0,1,1.07-1H99a1.07,1.07,0,0,1,1.07,1.1,50.3,50.3,0,0,1-.68,6.67,1.07,1.07,0,0,1-2.1-.36,48.26,48.26,0,0,0,.6-5.29H76.36a63.37,63.37,0,0,1-3.73,18.95,63.28,63.28,0,0,1,14.26,7.6h0l.65.48A47.66,47.66,0,0,0,95.47,65.2a1.07,1.07,0,1,1,2,.68,49.82,49.82,0,0,1-8.94,16A1.06,1.06,0,0,1,87.73,82.27Z" transform="translate(0)"/><path class="cls-3" d="M8.45,36.88a.75.75,0,0,1-.71-1,54.64,54.64,0,0,1,5.62-11.25.75.75,0,0,1,1.24.83,54.16,54.16,0,0,0-5.45,10.9A.75.75,0,0,1,8.45,36.88Z" transform="translate(0)"/><path class="cls-3" d="M21.37,16.58a.75.75,0,0,1-.53-1.27,66.72,66.72,0,0,1,9.34-7.48A.75.75,0,0,1,31,9.07a66.43,66.43,0,0,0-9.12,7.29A.74.74,0,0,1,21.37,16.58Z" transform="translate(0)"/></svg>