<svg id="Layer_1" data-name="Layer 1" xmlns="http://www.w3.org/2000/svg" viewBox="0 0 99.68 100"><defs><style>.cls-1{fill:#0084a3;}.cls-2{fill:#ceb121;}.cls-3{fill:#fff;}</style></defs><title>social_networking</title><path d="M31.36,83.27H5.94a1.07,1.07,0,1,1,0-2.14H31.36a1.07,1.07,0,1,1,0,2.14Z"/><path d="M75.42,95.13A1.07,1.07,0,0,1,75,95L51.73,84.09a1.07,1.07,0,0,1,.91-1.94L75.88,93.09a1.07,1.07,0,0,1-.46,2Z"/><path d="M52.19,76.25a1.07,1.07,0,0,1-.42-2.06l19.84-8.37a1.07,1.07,0,0,1,.83,2L52.61,76.17A1.07,1.07,0,0,1,52.19,76.25Z"/><path d="M75.91,52.68a1.07,1.07,0,0,1-1-.81L67.77,23.14a1.07,1.07,0,0,1,2.08-.51L77,51.35a1.07,1.07,0,0,1-1,1.33Z"/><path d="M94.06,27.35a1.07,1.07,0,0,1-.43-.09l-22-9.62a1.07,1.07,0,0,1,.86-2l22,9.62a1.07,1.07,0,0,1-.43,2.05Z"/><path d="M46.33,17.73a1.07,1.07,0,0,1-.39-.07L18.26,6.94a1.07,1.07,0,0,1,.77-2L46.71,15.66a1.07,1.07,0,0,1-.39,2.07Z"/><path d="M51.17,52.77a1.07,1.07,0,0,1-.33-.05l-22-7.17L2.9,37.42a1.07,1.07,0,0,1,.64-2l25.92,8.13,22,7.17a1.07,1.07,0,0,1-.33,2.09Z"/><path d="M26.28,35.82a1.07,1.07,0,0,1-.36-2.08L54.73,23.57a1.07,1.07,0,1,1,.71,2L26.63,35.76A1.07,1.07,0,0,1,26.28,35.82Z"/><path class="cls-1" d="M34.75,39.83A16.95,16.95,0,1,0,9.33,54.49V50a3.49,3.49,0,0,1,3.56-3.41h9.83A3.49,3.49,0,0,1,26.28,50v4.46A16.91,16.91,0,0,0,34.75,39.83Z"/><circle class="cls-2" cx="94.06" cy="26.28" r="5.08"/><path d="M94.06,31.89a5.62,5.62,0,1,1,5.62-5.62A5.63,5.63,0,0,1,94.06,31.89Zm0-10.17a4.55,4.55,0,1,0,4.55,4.55A4.55,4.55,0,0,0,94.06,21.73Z"/><circle class="cls-2" cx="5.94" cy="82.2" r="5.08"/><path d="M5.94,87.82a5.62,5.62,0,1,1,5.62-5.62A5.63,5.63,0,0,1,5.94,87.82Zm0-10.17a4.55,4.55,0,1,0,4.55,4.55A4.55,4.55,0,0,0,5.94,77.65Z"/><circle class="cls-2" cx="75.42" cy="94.06" r="5.08"/><path d="M75.42,99.68A5.62,5.62,0,1,1,81,94.06,5.63,5.63,0,0,1,75.42,99.68Zm0-10.17A4.55,4.55,0,1,0,80,94.06,4.55,4.55,0,0,0,75.42,89.51Z"/><circle class="cls-2" cx="50" cy="51.69" r="5.08"/><path d="M50,57.31a5.62,5.62,0,1,1,5.62-5.62A5.63,5.63,0,0,1,50,57.31Zm0-10.17a4.55,4.55,0,1,0,4.55,4.55A4.55,4.55,0,0,0,50,47.15Z"/><circle class="cls-3" cx="17.8" cy="34.53" r="5.08"/><path d="M17.8,40.69A6.15,6.15,0,1,1,24,34.53,6.16,6.16,0,0,1,17.8,40.69Zm0-10.17a4,4,0,1,0,4,4A4,4,0,0,0,17.8,30.52Z"/><path class="cls-3" d="M22.72,46.4H12.89a3.49,3.49,0,0,0-3.56,3.41v4.47a16.85,16.85,0,0,0,16.95,0V49.81A3.49,3.49,0,0,0,22.72,46.4Z"/><path d="M17.8,57.63a18,18,0,0,1-9-2.43,1.07,1.07,0,0,1-.53-.93V49.81a4.56,4.56,0,0,1,4.63-4.49h9.83a4.56,4.56,0,0,1,4.63,4.49v4.47a1.07,1.07,0,0,1-.53.93A18,18,0,0,1,17.8,57.63Zm-7.4-4a15.77,15.77,0,0,0,14.8,0V49.81a2.42,2.42,0,0,0-2.49-2.34H12.89a2.42,2.42,0,0,0-2.49,2.34Z"/><path class="cls-1" d="M75.42,17.8A16.95,16.95,0,1,0,50,32.46V28a3.49,3.49,0,0,1,3.56-3.41h9.83A3.49,3.49,0,0,1,66.95,28v4.46A16.91,16.91,0,0,0,75.42,17.8Z"/><circle class="cls-3" cx="58.47" cy="12.5" r="5.08"/><path d="M58.47,18.66a6.15,6.15,0,1,1,6.15-6.15A6.16,6.16,0,0,1,58.47,18.66Zm0-10.17a4,4,0,1,0,4,4A4,4,0,0,0,58.47,8.49Z"/><path class="cls-3" d="M63.39,24.37H53.56A3.49,3.49,0,0,0,50,27.78v4.47a16.85,16.85,0,0,0,16.95,0V27.78A3.49,3.49,0,0,0,63.39,24.37Z"/><path d="M58.47,35.61a18,18,0,0,1-9-2.43,1.07,1.07,0,0,1-.53-.93V27.78a4.56,4.56,0,0,1,4.63-4.49h9.83A4.56,4.56,0,0,1,68,27.78v4.47a1.07,1.07,0,0,1-.53.93A18,18,0,0,1,58.47,35.61Zm-7.4-4a15.77,15.77,0,0,0,14.8,0V27.78a2.42,2.42,0,0,0-2.49-2.34H53.56a2.42,2.42,0,0,0-2.49,2.34Z"/><path class="cls-1" d="M97.45,61.86A16.95,16.95,0,1,0,72,76.52V72.06a3.49,3.49,0,0,1,3.56-3.41h9.83A3.49,3.49,0,0,1,89,72.06v4.46A16.91,16.91,0,0,0,97.45,61.86Z"/><circle class="cls-3" cx="80.5" cy="56.56" r="5.08"/><path d="M80.5,62.72a6.15,6.15,0,1,1,6.15-6.15A6.16,6.16,0,0,1,80.5,62.72Zm0-10.17a4,4,0,1,0,4,4A4,4,0,0,0,80.5,52.55Z"/><path class="cls-3" d="M85.42,68.43H75.59A3.49,3.49,0,0,0,72,71.84v4.47a16.85,16.85,0,0,0,16.95,0V71.84A3.49,3.49,0,0,0,85.42,68.43Z"/><path d="M80.5,79.66a18,18,0,0,1-9-2.43,1.07,1.07,0,0,1-.53-.93V71.84a4.56,4.56,0,0,1,4.63-4.49h9.83A4.56,4.56,0,0,1,90,71.84v4.47a1.07,1.07,0,0,1-.53.93A18,18,0,0,1,80.5,79.66Zm-7.4-4a15.77,15.77,0,0,0,14.8,0V71.84a2.42,2.42,0,0,0-2.49-2.34H75.59a2.42,2.42,0,0,0-2.49,2.34Z"/><path class="cls-1" d="M56.78,82.2A16.95,16.95,0,1,0,31.36,96.86V92.39A3.49,3.49,0,0,1,34.92,89h9.83a3.49,3.49,0,0,1,3.56,3.41v4.46A16.91,16.91,0,0,0,56.78,82.2Z"/><path d="M10.19,56,8.9,55.23a17.81,17.81,0,1,1,17.8,0L25.42,56V50a2.64,2.64,0,0,0-2.7-2.56H12.89A2.64,2.64,0,0,0,10.19,50ZM17.8,23.74A16.08,16.08,0,0,0,8.47,52.92V50a4.35,4.35,0,0,1,4.41-4.27h9.83A4.35,4.35,0,0,1,27.13,50v2.89A16.08,16.08,0,0,0,17.8,23.74Z"/><path d="M50.86,33.95l-1.29-.75a17.81,17.81,0,1,1,17.8,0l-1.29.74V28a2.64,2.64,0,0,0-2.7-2.56H53.56A2.64,2.64,0,0,0,50.86,28ZM58.47,1.71a16.08,16.08,0,0,0-9.33,29.18V28a4.35,4.35,0,0,1,4.41-4.27h9.83A4.35,4.35,0,0,1,67.8,28v2.89A16.08,16.08,0,0,0,58.47,1.71Z"/><path d="M72.89,78l-1.29-.75a17.81,17.81,0,1,1,17.8,0L88.12,78V72.06a2.64,2.64,0,0,0-2.7-2.56H75.59a2.64,2.64,0,0,0-2.7,2.56ZM80.5,45.77A16.08,16.08,0,0,0,71.17,75v-2.9a4.35,4.35,0,0,1,4.41-4.27h9.83a4.35,4.35,0,0,1,4.41,4.27V75A16.08,16.08,0,0,0,80.5,45.77Z"/><circle class="cls-3" cx="39.83" cy="76.9" r="5.08"/><path d="M39.83,83.05A6.15,6.15,0,1,1,46,76.9,6.16,6.16,0,0,1,39.83,83.05Zm0-10.17a4,4,0,1,0,4,4A4,4,0,0,0,39.83,72.89Z"/><path class="cls-3" d="M44.75,88.76H34.92a3.49,3.49,0,0,0-3.56,3.41v4.47a16.85,16.85,0,0,0,16.95,0V92.18A3.49,3.49,0,0,0,44.75,88.76Z"/><path d="M39.83,100a18,18,0,0,1-9-2.43,1.07,1.07,0,0,1-.53-.93V92.18a4.56,4.56,0,0,1,4.63-4.49h9.83a4.56,4.56,0,0,1,4.63,4.49v4.47a1.07,1.07,0,0,1-.53.93A18,18,0,0,1,39.83,100Zm-7.4-4a15.77,15.77,0,0,0,14.8,0V92.18a2.42,2.42,0,0,0-2.49-2.34H34.92a2.42,2.42,0,0,0-2.49,2.34Z"/><circle class="cls-2" cx="17.8" cy="5.94" r="5.08"/><path d="M17.8,11.56a5.62,5.62,0,1,1,5.62-5.62A5.63,5.63,0,0,1,17.8,11.56Zm0-10.17a4.55,4.55,0,1,0,4.55,4.55A4.55,4.55,0,0,0,17.8,1.39Z"/><path d="M32.22,98.34l-1.29-.75a17.81,17.81,0,1,1,17.8,0l-1.29.74V92.39a2.64,2.64,0,0,0-2.7-2.56H34.92a2.64,2.64,0,0,0-2.7,2.56Zm7.62-32.24A16.08,16.08,0,0,0,30.5,95.29v-2.9a4.35,4.35,0,0,1,4.41-4.27h9.83a4.35,4.35,0,0,1,4.41,4.27v2.89a16.08,16.08,0,0,0-9.33-29.18Z"/></svg>