<svg id="Layer_1" data-name="Layer 1" xmlns="http://www.w3.org/2000/svg" viewBox="0 0 111.5 99.99"><defs><style>.cls-1{fill:#74b700;}.cls-2{fill:#cbff78;}</style></defs><title>spring_4.3</title><path class="cls-1" d="M94.76,36.31c-9.06,17.58-23,29.9-40.9,38C41.3,80.06,27.7,82.59,14.19,85.14c-1.62.31-4-.92-5.39-2.1C.92,76.56.1,67.77,1.85,58.79,4.58,44.75,14,36.26,27.69,32.64a91.44,91.44,0,0,1,19.73-2.45c17.89-.7,33.35-6.7,45.93-19.25,2.83-2.82,5-6.25,7.87-9.86,1.49,4.85,3.06,9.46,4.32,14.15,3.19,11.95,5.49,24,4.74,36.47-.69,11.41-3.74,22-12.22,30.43C91,89.15,81.95,92.38,72.23,93c-11.45.77-23,.57-34.46.75a74.52,74.52,0,0,1-12.69-.66c6.08-1.86,12.18-3.68,18.25-5.58C66.78,80.21,83,65.07,92.84,43.22a41.23,41.23,0,0,0,1.69-5.43A11,11,0,0,0,94.76,36.31Z" transform="translate(0)"/><path d="M35.33,94.88a68,68,0,0,1-10.42-.69,1.08,1.08,0,0,1-.15-2.11l5.74-1.74c4.1-1.24,8.35-2.53,12.5-3.83,21.53-6.73,37.52-20.52,47.56-41A80.65,80.65,0,0,1,78.35,59.67a91.37,91.37,0,0,1-24,15.67C41.78,81,28.1,83.62,14.87,86.12l-.48.09c-2.22.42-5-1.26-6.28-2.32A21.8,21.8,0,0,1,2,76.07a1.08,1.08,0,1,1,2-.9,19.66,19.66,0,0,0,5.51,7c1.3,1.07,3.32,2.09,4.5,1.87l.48-.09c13.1-2.47,26.65-5,38.94-10.63,18.24-8.3,31.83-20.93,40.39-37.55a1.08,1.08,0,0,1,2,.66c0,.14,0,.29-.05.43a6.85,6.85,0,0,1-.21,1.2c-.14.49-.28,1-.41,1.5a26.24,26.24,0,0,1-1.33,4.06,83.85,83.85,0,0,1-19.92,28A80.32,80.32,0,0,1,43.65,88.57c-4.17,1.3-8.42,2.59-12.52,3.84l-.59.18c2.48.14,4.9.14,7.21.1,3.23-.05,6.52-.07,9.7-.09,8.12-.05,16.51-.1,24.71-.65,10.29-.69,18.75-4.25,25.14-10.58,7.34-7.27,11.12-16.72,11.9-29.73.81-13.37-2.09-26.33-4.71-36.13-.85-3.19-1.84-6.29-2.88-9.57L100.8,3.4,99.48,5.17a57,57,0,0,1-5.37,6.54A65.35,65.35,0,0,1,72.79,26a73.93,73.93,0,0,1-25.32,5.26c-6,.23-13,.7-19.5,2.41-11.62,3.08-19.44,9.49-23.24,19a1.08,1.08,0,0,1-2-.8,31.3,31.3,0,0,1,9.54-13,40.41,40.41,0,0,1,15.15-7.35c6.65-1.76,13.83-2.25,20-2.48,18.36-.71,33.14-6.91,45.2-18.93a55.43,55.43,0,0,0,5.16-6.3c.83-1.12,1.7-2.28,2.63-3.47a1.08,1.08,0,0,1,1.89.35c.47,1.53,1,3,1.42,4.52,1.05,3.31,2,6.43,2.91,9.67,2.66,10,5.6,23.14,4.78,36.82s-4.8,23.47-12.54,31.13c-6.77,6.71-15.69,10.48-26.52,11.2-8.27.55-16.69.61-24.84.66-3.17,0-6.45,0-9.68.09Z" transform="translate(0)"/><path d="M1.12,68.62a1.08,1.08,0,0,1-1.08-1,35.71,35.71,0,0,1,.45-7.34,1.08,1.08,0,1,1,2.14.34,33.53,33.53,0,0,0-.43,6.9,1.08,1.08,0,0,1-1,1.14Z" transform="translate(0)"/><circle class="cls-1" cx="11.23" cy="95.35" r="3.77" transform="translate(-56.19 27) rotate(-37.89)"/><path d="M11.24,100a4.71,4.71,0,0,1-.58,0,4.62,4.62,0,1,1,.58,0Zm0-7.54a2.89,2.89,0,0,0-1.78.61h0a2.91,2.91,0,1,0,1.78-.61Z" transform="translate(0)"/><path class="cls-2" d="M11.23,50.74a1.08,1.08,0,0,1-.92-1.66A25.83,25.83,0,0,1,17.94,42c4.83-3.11,13.24-6.71,25.92-6.23a1.08,1.08,0,0,1-.08,2.17c-12-.46-20,2.91-24.56,5.82a24.33,24.33,0,0,0-7.07,6.48A1.08,1.08,0,0,1,11.23,50.74Z" transform="translate(0)"/><path class="cls-2" d="M6.42,61.5H6.29a1.08,1.08,0,0,1-.94-1.21c.71-5.83,2.63-7.8,2.85-8A1.08,1.08,0,0,1,9.7,53.83c-.05.06-1.6,1.74-2.2,6.71A1.08,1.08,0,0,1,6.42,61.5Z" transform="translate(0)"/></svg>