<svg id="Layer_1" data-name="Layer 1" xmlns="http://www.w3.org/2000/svg" viewBox="0 0 83.18 100"><defs><style>.cls-1{fill:#fca28d;}.cls-2{fill:#d1573b;}.cls-3{fill:#f77956;}</style></defs><title>sql_server_2014</title><path class="cls-1" d="M82.64,37.85c-.2-.24-.29-.36-.4-.47A39.86,39.86,0,0,0,73.07,30c-.89-.51-1.12-.45-1.55.45a36.45,36.45,0,0,1-6.38,9.29c-.59.64-1.2,1.27-1.8,1.9l.09.19Z" transform="translate(0 0)"/><path d="M63.43,42.41a.54.54,0,0,1-.49-.31l-.09-.19a.54.54,0,0,1,.1-.59l.57-.6,1.23-1.3A35.67,35.67,0,0,0,71,30.27a1.72,1.72,0,0,1,.92-1,1.78,1.78,0,0,1,1.38.35A40.61,40.61,0,0,1,82.63,37l.24.28.18.22a.54.54,0,0,1-.3.87l-19.21,4Zm8.85-12.16a1.9,1.9,0,0,0-.27.47,36.73,36.73,0,0,1-6.47,9.43l-.87.92,17-3.55a39.46,39.46,0,0,0-8.83-7A2,2,0,0,0,72.28,30.26Z" transform="translate(0 0)"/><path class="cls-2" d="M30.43,82.89l0,.33c1.42.54,2.82,1.16,4.28,1.6,2.24.68,4.51,1.24,6.77,1.84,1.17.31,1.61,0,2-1.14.12-.34.23-.69.33-1q.93-3.1,1.85-6.2c.27-.91.51-1.82.77-2.73l-.18-.13Z" transform="translate(0 0)"/><path class="cls-1" d="M57.92,42.48,68.13,29.4l-.19-.28L51.14,35.24Z" transform="translate(0 0)"/><path d="M57.92,43a.54.54,0,0,1-.39-.17L50.74,35.6a.54.54,0,0,1,.21-.87l16.81-6.11a.54.54,0,0,1,.63.21l.19.28a.54.54,0,0,1,0,.63L58.34,42.81a.54.54,0,0,1-.4.21Zm-5.84-7.56,5.8,6.2,9-11.6Z" transform="translate(0 0)"/><path class="cls-2" d="M21.36,95.4c1.66-.16,18.56-5.26,18.91-5.7l-4.85-1.17c-2.37-.58-4.74-1.18-7.12-1.72a1.06,1.06,0,0,0-.87.34c-1.29,1.66-2.55,3.36-3.79,5.05C22.87,93.23,22.14,94.28,21.36,95.4Z" transform="translate(0 0)"/><path d="M21.36,95.93a.54.54,0,0,1-.44-.85l.72-1c.53-.76,1-1.47,1.56-2.18,1.13-1.53,2.44-3.32,3.8-5.06a1.58,1.58,0,0,1,1.42-.53c1.73.39,3.48.83,5.17,1.24l2,.48,3.33.8,1.52.37a.54.54,0,0,1,.29.86c-.12.15-.37.46-9.23,3.13-4,1.22-9.1,2.68-10,2.77Zm6.82-8.61a.67.67,0,0,0-.33.15c-1.35,1.74-2.66,3.51-3.78,5-.5.68-1,1.35-1.48,2.07C26,93.7,34.94,91,38.5,89.82L35.29,89l-2-.48c-1.69-.42-3.43-.85-5.15-1.24Z" transform="translate(0 0)"/><path class="cls-2" d="M11.87,64C7.91,65.75,1,72.87.81,75.45l2.11-.59c3-.86,6-1.7,8.92-2.59,1.29-.38,1.28-.42,1.14-1.71,0-.05,0-.1,0-.16Z" transform="translate(0 0)"/><path d="M.81,76a.54.54,0,0,1-.53-.58c.23-3,7.56-10.21,11.38-11.85a.54.54,0,0,1,.74.4l.1.57,1,5.78a1.11,1.11,0,0,1,0,.17v0c.17,1.56,0,1.83-1.52,2.28-2.2.66-4.45,1.3-6.62,1.93l-2.3.66-1.43.4L1,76ZM11.46,64.84c-3.59,1.89-8.7,7.23-9.87,9.84l1.19-.34,2.3-.66c2.17-.62,4.41-1.27,6.61-1.92a3.6,3.6,0,0,0,.81-.3,4.17,4.17,0,0,0-.05-.82,1.37,1.37,0,0,1,0-.14v0Z" transform="translate(0 0)"/><path class="cls-2" d="M22.81,81.06a4.15,4.15,0,0,0-.44-.54c-2-1.62-4-3.24-6-4.83a.72.72,0,0,0-.69.06c-.47.48-.86,1-1.29,1.56L7.49,85.9a7.41,7.41,0,0,0-.42.7Z" transform="translate(0 0)"/><path d="M7.07,87.13a.54.54,0,0,1-.46-.81l.17-.3a3.21,3.21,0,0,1,.29-.45l5.85-7.3L14,77l.33-.42a14.51,14.51,0,0,1,1-1.18,1.21,1.21,0,0,1,1.41-.11c2,1.57,4,3.2,6,4.77l.08.06a1.92,1.92,0,0,1,.34.38l.18.24a.54.54,0,0,1-.24.84L7.25,87.1A.53.53,0,0,1,7.07,87.13Zm8.92-11c-.3.32-.58.67-.87,1l-.34.43-1,1.29L8.47,85.54l13.42-4.72C20,79.28,18,77.69,16.08,76.16Zm.12,0Z" transform="translate(0 0)"/><path class="cls-1" d="M55.17,43.54a4.32,4.32,0,0,0-.46-.51c-1.91-1.49-3.84-3-5.73-4.47-.59-.47-1-.48-1.49.13-2.56,3-5.15,5.95-7.73,8.92-.27.32-.54.64-.8,1l.11.13Z" transform="translate(0 0)"/><path d="M39.07,49.24a.54.54,0,0,1-.41-.19l-.11-.13a.54.54,0,0,1,0-.69l.25-.3.56-.67,2.22-2.56c1.81-2.08,3.68-4.23,5.5-6.36a1.41,1.41,0,0,1,2.23-.2c1.23,1,2.5,2,3.72,2.91l2,1.55a2.3,2.3,0,0,1,.37.38l.16.19a.54.54,0,0,1-.24.87L39.24,49.21Zm9.18-10.48c-.11,0-.2.09-.36.28-1.82,2.13-3.7,4.28-5.51,6.36l-2,2.32L54.18,43.3l-1.8-1.39C51.15,41,49.88,40,48.65,39,48.46,38.83,48.35,38.76,48.26,38.76Z" transform="translate(0 0)"/><path class="cls-2" d="M13.23,74.55c-.43,0-.64.05-.83.1L6.4,76c-1.77.42-3.53.87-5.3,1.26-.56.13-.63.4-.5.9a12.29,12.29,0,0,0,4.35,6.6c.52.42.83.35,1.19-.18,1.08-1.56,2.19-3.1,3.28-4.66Z" transform="translate(0 0)"/><path d="M5.52,85.62a1.49,1.49,0,0,1-.92-.39A12.74,12.74,0,0,1,.07,78.34a1.31,1.31,0,0,1,.08-1A1.22,1.22,0,0,1,1,76.79c1.12-.25,2.27-.53,3.37-.8l1.93-.46,6-1.4a3.7,3.7,0,0,1,.51-.07l.38,0a.54.54,0,0,1,.5.84l-1.25,1.78L9.86,80.28,8.73,81.87c-.71,1-1.45,2-2.15,3.06a1.41,1.41,0,0,1-.92.67ZM1.07,77.88a1.14,1.14,0,0,0,0,.2,11.71,11.71,0,0,0,4.17,6.31.86.86,0,0,0,.23.15.92.92,0,0,0,.18-.21c.71-1,1.45-2.07,2.16-3.08L9,79.66,11.54,76l.53-.75-5.55,1.3L4.6,77c-1.11.27-2.25.55-3.39.8Z" transform="translate(0 0)"/><path class="cls-1" d="M66.22,27.44v-.2l-5.31-1.79q-3.18-1.08-6.35-2.19c-.64-.22-.92,0-1.08.64-.37,1.52-.85,3-1.28,4.51-.33,1.14-.64,2.28-1,3.68Z" transform="translate(0 0)"/><path d="M51.18,32.62a.54.54,0,0,1-.52-.68L51,30.69c.24-.87.46-1.65.69-2.43.14-.48.28-1,.42-1.43.3-1,.6-2,.86-3.06a1.49,1.49,0,0,1,.65-1,1.39,1.39,0,0,1,1.13,0c2.33.81,4.61,1.59,6.34,2.18l3.69,1.25,1.61.54a.54.54,0,0,1,.36.54v.2a.54.54,0,0,1-.38.48l-15,4.65Zm3-8.91A1,1,0,0,0,54,24c-.26,1-.57,2.1-.87,3.11-.14.47-.28.94-.42,1.42L52,31l-.08.3,12.83-4-.34-.11L60.75,26c-1.73-.59-4-1.37-6.35-2.19A.82.82,0,0,0,54.14,23.71Z" transform="translate(0 0)"/><path class="cls-2" d="M45.65,72.8v-.22L44.16,72l-7.87-3.2a.75.75,0,0,0-1.15.47c-.9,2.13-1.85,4.24-2.78,6.35L31,78.76Z" transform="translate(0 0)"/><path d="M31,79.3a.54.54,0,0,1-.49-.75L31,77.4l.88-2,.75-1.69c.67-1.52,1.37-3.1,2-4.66a1.28,1.28,0,0,1,1.85-.76l7.44,3,.43.17,1,.39.48.18a.54.54,0,0,1,.34.52v.22a.54.54,0,0,1-.33.48l-14.68,6A.54.54,0,0,1,31,79.3Zm4.86-10.09c-.09,0-.12.08-.21.27-.66,1.57-1.36,3.14-2,4.67l-.74,1.69L32,77.77l12.48-5.07-.51-.2-.43-.17-7.45-3A.8.8,0,0,0,35.83,69.21Z" transform="translate(0 0)"/><path class="cls-2" d="M26.51,79.84l5.6-11.18L18.57,73.28Z" transform="translate(0 0)"/><path d="M26.51,80.38a.54.54,0,0,1-.34-.12l-7.94-6.56a.54.54,0,0,1,.17-.92l13.54-4.62a.54.54,0,0,1,.65.75L27,80.08a.54.54,0,0,1-.37.28Zm-6.86-6.9L26.33,79,31,69.6Z" transform="translate(0 0)"/><path class="cls-2" d="M32,65.57l-5.78-7.88-5.71,11.9Z" transform="translate(0 0)"/><path d="M20.54,70.13a.54.54,0,0,1-.48-.77l5.71-11.9a.54.54,0,0,1,.92-.09l5.78,7.88a.54.54,0,0,1-.26.82l-11.5,4A.54.54,0,0,1,20.54,70.13Zm5.81-11.4-4.77,9.93,9.59-3.35Z" transform="translate(0 0)"/><path class="cls-2" d="M48.86,71.08l.83-10.84-.22-.12L39,66.42Z" transform="translate(0 0)"/><path class="cls-2" d="M23.83,85.05l-7.48,2.16L8.78,89.4c.58.29,1,.52,1.4.7,2.41,1.06,4.82,2.09,7.22,3.16.83.37,1.06.36,1.55-.4C20.56,90.31,22.15,87.74,23.83,85.05Z" transform="translate(0 0)"/><path d="M18.2,94a2.6,2.6,0,0,1-1-.28c-1.48-.66-3-1.32-4.45-2L10,90.59c-.29-.13-.57-.27-.89-.44l-.53-.27a.54.54,0,0,1,.09-1l15-4.34a.54.54,0,0,1,.6.8l-1.38,2.21c-1.2,1.93-2.34,3.75-3.5,5.59C19,93.78,18.64,94,18.2,94Zm-8-4.5.16.07,2.77,1.21c1.46.64,3,1.29,4.46,2a1.53,1.53,0,0,0,.56.19s.1-.05.31-.39c1.16-1.84,2.3-3.66,3.5-5.59l.64-1Z" transform="translate(0 0)"/><path class="cls-2" d="M36.86,63.71,47.48,58l-9.06-5.13Z" transform="translate(0 0)"/><path d="M36.86,64.25a.54.54,0,0,1-.53-.61l1.55-10.88a.54.54,0,0,1,.79-.39l9.06,5.13a.54.54,0,0,1,0,.94L37.12,64.19A.54.54,0,0,1,36.86,64.25Zm2-10.56-1.29,9L46.37,58Z" transform="translate(0 0)"/><path class="cls-2" d="M42,92.92l-.19-.19L25.16,97.84a5.33,5.33,0,0,0,.6.17c2.29.31,4.58.64,6.87.93,1.65.2,3.31.35,5,.51a1.93,1.93,0,0,0,2.07-1.22c.55-1.18,1.12-2.35,1.65-3.54C41.58,94.12,41.77,93.51,42,92.92Z" transform="translate(0 0)"/><path d="M37.85,100h-.3l-.66-.06c-1.42-.13-2.88-.27-4.32-.45-1.74-.21-3.5-.46-5.21-.7l-1.67-.23a2.28,2.28,0,0,1-.41-.11L25,98.36a.54.54,0,0,1,0-1l16.64-5.11a.54.54,0,0,1,.53.13l.19.19a.54.54,0,0,1,.13.58l-.2.55c-.15.41-.3.84-.49,1.26-.4.9-.83,1.8-1.24,2.68l-.41.87A2.43,2.43,0,0,1,37.85,100ZM27.43,97.71h.08c1.7.24,3.46.48,5.19.69,1.42.18,2.88.31,4.29.44l.66.06A1.4,1.4,0,0,0,39.18,98l.41-.87c.41-.87.84-1.77,1.24-2.66.15-.33.27-.66.4-1Z" transform="translate(0 0)"/><path class="cls-1" d="M51.71,23.15,51.52,23,40.87,29.56c.27.17.42.29.6.38,1.83.89,3.67,1.75,5.48,2.67.52.26.72.16.93-.34.92-2.21,1.88-4.41,2.81-6.61C51,24.82,51.37,24,51.71,23.15Z" transform="translate(0 0)"/><path d="M47.39,33.28a1.55,1.55,0,0,1-.69-.2c-1.23-.62-2.49-1.23-3.71-1.82l-1.76-.85a3.49,3.49,0,0,1-.42-.25L40.58,30a.54.54,0,0,1,0-.91l10.65-6.59a.54.54,0,0,1,.66.07l.19.19a.54.54,0,0,1,.12.59l-.32.78c-.23.57-.47,1.15-.71,1.72l-1,2.31c-.6,1.41-1.23,2.86-1.82,4.3a1.25,1.25,0,0,1-.67.76A.9.9,0,0,1,47.39,33.28ZM41.9,29.55l1.55.75c1.23.59,2.5,1.2,3.73,1.83l.13.06.06-.13c.6-1.44,1.22-2.9,1.83-4.31l1-2.31c.19-.46.38-.91.57-1.37Z" transform="translate(0 0)"/><path class="cls-1" d="M39.12,27.33l9.52-5.26c-3.5-.8-6.91-1.44-10.32-2.07-.41-.08-.6.09-.51.52q.19,1,.37,1.9Z" transform="translate(0 0)"/><path d="M39.12,27.86a.54.54,0,0,1-.53-.44l-.33-1.74-.61-3.17q-.18-1-.37-1.9a.9.9,0,0,1,1.14-1.15c3.33.62,6.78,1.25,10.34,2.07a.54.54,0,0,1,.14,1L39.38,27.8A.54.54,0,0,1,39.12,27.86Zm-.76-7.31q.17.88.35,1.76l.61,3.17.19,1,7.64-4.22C44.14,21.62,41.21,21.08,38.36,20.56Z" transform="translate(0 0)"/><path class="cls-2" d="M34,63.67a7.22,7.22,0,0,0,.33-1c.45-2.84.9-5.69,1.32-8.54.12-.78-.13-.92-.9-.62L29,55.82c-.77.31-.8.39-.29,1.08q2.23,3,4.46,6A7.58,7.58,0,0,0,34,63.67Z" transform="translate(0 0)"/><path d="M34,64.21a.54.54,0,0,1-.37-.15l-.33-.3a3.52,3.52,0,0,1-.53-.53c-1.33-1.77-2.67-3.58-4-5.33l-.5-.68c-.26-.36-.54-.73-.42-1.15s.54-.58.95-.75l5-2,.67-.27a1.37,1.37,0,0,1,1.33,0,1.27,1.27,0,0,1,.3,1.2c-.42,2.85-.87,5.66-1.32,8.54a3.31,3.31,0,0,1-.2.67c0,.11-.09.24-.15.4a.54.54,0,0,1-.38.35ZM29,56.4l.13.18.5.68c1.29,1.75,2.63,3.56,4,5.33l.14.15a1,1,0,0,0,0-.13c.46-2.88.9-5.69,1.32-8.53V54l-.18.07-.67.27-5.05,2Z" transform="translate(0 0)"/><path class="cls-2" d="M21.68,4.81l0,.14L34,6.91,32.06.54Z" transform="translate(0 0)"/><path d="M34,7.44h-.08l-12.25-2a.54.54,0,0,1-.44-.4l0-.14a.54.54,0,0,1,.32-.62L31.86,0a.54.54,0,0,1,.72.34l1.9,6.37a.54.54,0,0,1-.51.69ZM23.41,4.68l9.8,1.57-1.49-5Z" transform="translate(0 0)"/><path class="cls-1" d="M35.75,20l-.31-.18-7.05,5.92,8.23,2.34Z" transform="translate(0 0)"/><path d="M36.61,28.62l-.15,0-8.23-2.34a.54.54,0,0,1-.2-.93l7.05-5.92a.54.54,0,0,1,.61-.05l.31.18a.54.54,0,0,1,.27.41L37.15,28a.54.54,0,0,1-.53.59ZM29.5,25.51,36,27.35l-.72-6.7Z" transform="translate(0 0)"/><path class="cls-2" d="M16.6,69.62l6.26-11.07a2.6,2.6,0,0,0-.43.07c-2,.92-4,1.82-5.91,2.8a1.71,1.71,0,0,0-.83,1.12,23.63,23.63,0,0,0-.14,3.88A6.88,6.88,0,0,0,16.6,69.62Z" transform="translate(0 0)"/><path d="M16.6,70.16a.54.54,0,0,1-.46-.26A7.39,7.39,0,0,1,15,66.45a24.26,24.26,0,0,1,.14-4,2.25,2.25,0,0,1,1.13-1.54c1.49-.75,3-1.47,4.52-2.15l1.41-.66a1,1,0,0,1,.34-.08l.24,0a.54.54,0,0,1,.55.79L17.06,69.89a.54.54,0,0,1-.46.27Zm5.07-10.6-.44.2c-1.48.68-3,1.39-4.48,2.14a1.2,1.2,0,0,0-.54.7,23.19,23.19,0,0,0-.13,3.79,5.75,5.75,0,0,0,.54,2.11Z" transform="translate(0 0)"/><path class="cls-1" d="M43.24,39.32l-.09-.14a2.08,2.08,0,0,0-.34.12L34.35,44a1,1,0,0,0-.47,1.25c.18.68.34,1.36.53,2s.42,1.41.7,2.34Z" transform="translate(0 0)"/><path d="M35.11,50.18H35a.54.54,0,0,1-.41-.37L34.34,49c-.17-.55-.32-1-.45-1.52s-.2-.76-.3-1.13-.15-.61-.24-.91a1.49,1.49,0,0,1,.73-1.86l5.34-3,3.11-1.73a1.58,1.58,0,0,1,.35-.13l.09,0a.54.54,0,0,1,.62.21l.09.14a.54.54,0,0,1,0,.63L35.53,50A.54.54,0,0,1,35.11,50.18Zm6.42-9.56L40,41.5l-5.34,3c-.23.13-.33.23-.22.64s.16.62.24.93.19.74.29,1.1.25.86.4,1.35Z" transform="translate(0 0)"/><path class="cls-2" d="M22,8.2l-.1.27a5,5,0,0,0,.4.56c1.17,1.26,2.34,2.52,3.53,3.76a1.79,1.79,0,0,0,2.39.37q1.77-.92,3.51-1.88c.46-.26.89-.57,1.53-1Z" transform="translate(0 0)"/><path d="M27.13,14a2.36,2.36,0,0,1-1.72-.83c-1.18-1.23-2.36-2.49-3.5-3.72l0,0a3.18,3.18,0,0,1-.34-.45l-.11-.17a.54.54,0,0,1-.06-.5l.1-.27a.54.54,0,0,1,.6-.34L33.31,9.76a.54.54,0,0,1,.19,1l-.57.38c-.35.24-.66.44-1,.63-1.11.62-2.3,1.25-3.52,1.89A2.82,2.82,0,0,1,27.13,14ZM22.88,8.92c1.08,1.16,2.19,2.35,3.3,3.5a1.27,1.27,0,0,0,1.76.26c1.22-.63,2.39-1.26,3.5-1.88l.38-.23Z" transform="translate(0 0)"/><path class="cls-1" d="M24.19,17.52l2.33,6.33,6.19-4.48-.06-.24Z" transform="translate(0 0)"/><path d="M26.52,24.39l-.16,0A.54.54,0,0,1,26,24L23.69,17.7a.54.54,0,0,1,.6-.71l8.47,1.61a.54.54,0,0,1,.42.41l.06.24a.54.54,0,0,1-.21.56l-6.19,4.48A.54.54,0,0,1,26.52,24.39ZM25,18.22,26.78,23l4.87-3.52Z" transform="translate(0 0)"/><path class="cls-1" d="M27.89,36.73a5.48,5.48,0,0,0,.68-.44c1.75-1.59,3.49-3.18,5.22-4.79.46-.43.07-.62-.31-.73l-4.69-1.42c-.77-.23-.94-.13-.94.68,0,1.92,0,3.85,0,5.77C27.85,36.07,27.87,36.34,27.89,36.73Z" transform="translate(0 0)"/><path d="M27.89,37.27a.54.54,0,0,1-.54-.51c0-.13,0-.25,0-.35s0-.41,0-.6v-.64c0-1.68,0-3.42,0-5.13a1.35,1.35,0,0,1,.4-1.15,1.36,1.36,0,0,1,1.24,0l.21.06,4.48,1.36c.21.06.76.23.88.73a.93.93,0,0,1-.36.91c-1.64,1.53-3.32,3.06-5,4.55l-.27.25a2.74,2.74,0,0,1-.49.33l-.27.16A.54.54,0,0,1,27.89,37.27Zm.51-7.47c0,.06,0,.13,0,.23,0,1.71,0,3.45,0,5.13v.58l.1-.09c1.57-1.43,3.2-2.91,4.78-4.39l-4.41-1.34-.21-.06Z" transform="translate(0 0)"/><path class="cls-2" d="M48.92,55.42c0-.52,0-.8,0-1.07-.15-1.76-.32-3.51-.47-5.27,0-.55-.37-.56-.77-.43l-3.25,1.07-2.7.89-.07.27Z" transform="translate(0 0)"/><path d="M48.92,56a.54.54,0,0,1-.28-.08l-7.27-4.54a.54.54,0,0,1-.23-.59l.07-.27a.54.54,0,0,1,.35-.37l3.65-1.21,2.3-.76a1.21,1.21,0,0,1,1,.06A1,1,0,0,1,49,49q.12,1.34.24,2.69t.23,2.58a6.16,6.16,0,0,1,0,.65c0,.13,0,.28,0,.47a.54.54,0,0,1-.54.54Zm-6.27-5.08,5.74,3.58v-.06q-.11-1.29-.23-2.58t-.24-2.68l-.07,0-2.29.76Z" transform="translate(0 0)"/><path class="cls-1" d="M23.93,54.46l.11.13a3.64,3.64,0,0,0,.52-.13c1.66-.68,3.31-1.37,5-2.07a26,26,0,0,0,2.68-1.25c.86-.49.94-.88.54-1.74-.23-.49-.51-1-.76-1.44-.35-.67-.61-.71-1.18-.17-1.17,1.1-2.36,2.2-3.52,3.32S25,53.34,23.93,54.46Z" transform="translate(0 0)"/><path d="M24,55.13a.54.54,0,0,1-.41-.19l-.11-.13a.54.54,0,0,1,0-.73l1-1c.76-.77,1.54-1.56,2.33-2.33s1.66-1.58,2.48-2.35l1-1a1.39,1.39,0,0,1,1.14-.51,1.34,1.34,0,0,1,.89.81l.27.49c.17.31.35.63.51,1a1.6,1.6,0,0,1-.76,2.43,22.79,22.79,0,0,1-2.4,1.13l-.33.14c-1.44.62-2.9,1.22-4.32,1.81l-.64.27a2.4,2.4,0,0,1-.45.13l-.15,0ZM31.38,48l-.22.18-1,1c-.81.76-1.66,1.55-2.47,2.33-.64.62-1.28,1.26-1.91,1.9,1.18-.49,2.39-1,3.57-1.5l.34-.14a22,22,0,0,0,2.29-1.08c.59-.34.62-.42.32-1-.14-.3-.3-.6-.48-.91l-.28-.51A2,2,0,0,0,31.38,48Z" transform="translate(0 0)"/><path class="cls-1" d="M43.67,35.55l0-.25c-1.53-.76-3.07-1.5-4.6-2.27-.41-.21-.56,0-.68.34C37.7,35.18,37,37,36.39,38.79a3.6,3.6,0,0,0,0,.74Z" transform="translate(0 0)"/><path d="M36.35,40.07a.54.54,0,0,1-.54-.56c0-.14,0-.26,0-.35a1.58,1.58,0,0,1,.07-.55q.55-1.56,1.12-3.12l.83-2.31a1.13,1.13,0,0,1,.59-.72,1,1,0,0,1,.84.08l3.35,1.65,1.25.62a.54.54,0,0,1,.29.38l0,.25a.54.54,0,0,1-.27.57L36.6,40A.53.53,0,0,1,36.35,40.07Zm2.5-6.53h0L38,35.86l-1,2.68,5.67-3.09-.59-.29Z" transform="translate(0 0)"/><path class="cls-1" d="M32,42.19l3.61-8.44-.16-.11-6.93,5.93Z" transform="translate(0 0)"/><path d="M32,42.73a.54.54,0,0,1-.32-.11L28.16,40a.54.54,0,0,1,0-.84l6.93-5.93a.54.54,0,0,1,.64,0l.17.11a.54.54,0,0,1,.2.66L32.45,42.4a.54.54,0,0,1-.35.31Zm-2.63-3.18,2.4,1.8,2.61-6.09Z" transform="translate(0 0)"/><path class="cls-2" d="M21.76,13.75l.17-.29c-1.15-1.45-2.3-2.92-3.48-4.35a.73.73,0,0,0-.68,0c-.92.53-1.82,1.09-2.7,1.68a4.93,4.93,0,0,0-.72.84Z" transform="translate(0 0)"/><path d="M21.76,14.29l-.15,0L14.18,12.1a.54.54,0,0,1-.26-.86l.29-.36a2.33,2.33,0,0,1,.55-.58c1-.64,1.86-1.2,2.73-1.7a1.22,1.22,0,0,1,1.36.17c.94,1.14,1.87,2.31,2.76,3.44l.72.91a.54.54,0,0,1,0,.6l-.17.29A.54.54,0,0,1,21.76,14.29Zm-6.51-3,5.57,1.62,0,0c-.87-1.1-1.77-2.24-2.68-3.34H18c-.85.49-1.71,1-2.65,1.65ZM18,9.54Z" transform="translate(0 0)"/><path class="cls-2" d="M35.47,12.53l-3.84,2.69.07.2,5.5.79.08-.25Z" transform="translate(0 0)"/><path d="M37.2,16.75h-.08L31.63,16a.54.54,0,0,1-.43-.37l-.07-.2a.54.54,0,0,1,.2-.61l3.84-2.69a.54.54,0,0,1,.78.19l1.81,3.43a.54.54,0,0,1,0,.42l-.08.25A.54.54,0,0,1,37.2,16.75ZM32.82,15l3.65.52-1.19-2.25Z" transform="translate(0 0)"/><path class="cls-3" d="M18.65,16l4.59,4.93C22.91,17.9,21.56,16.49,18.65,16Z" transform="translate(0 0)"/><path d="M23.24,21.48a.54.54,0,0,1-.39-.17l-4.59-4.93a.54.54,0,0,1,.48-.89c3.18.53,4.68,2.14,5,5.4a.54.54,0,0,1-.53.59Zm-2.88-4.41,1.92,2.06A3.63,3.63,0,0,0,20.36,17.06Z" transform="translate(0 0)"/><path class="cls-1" d="M25.07,47.07l.19.13,3.67-2.79a12.67,12.67,0,0,0-1.56-.93.81.81,0,0,0-.76.23C26.05,44.81,25.57,45.94,25.07,47.07Z" transform="translate(0 0)"/><path d="M25.26,47.74a.54.54,0,0,1-.31-.1l-.19-.13a.54.54,0,0,1-.18-.66l.37-.83c.37-.84.76-1.71,1.18-2.55A1.29,1.29,0,0,1,27.57,43a7.38,7.38,0,0,1,1.15.66l.49.31a.54.54,0,0,1,0,.88l-3.67,2.79A.54.54,0,0,1,25.26,47.74ZM27,44c-.29.58-.56,1.18-.82,1.77L28,44.45a5.89,5.89,0,0,0-.8-.46Z" transform="translate(0 0)"/><path d="M42.26,87.31a3.56,3.56,0,0,1-.9-.13L40,86.82c-1.78-.46-3.63-.94-5.42-1.49-1-.31-2-.71-3-1.1l-1.31-.51a.54.54,0,0,1-.34-.45l0-.33a.54.54,0,0,1,.3-.54l15.87-7.48a.54.54,0,0,1,.55.06l.18.13a.54.54,0,0,1,.19.57l-.23.85c-.17.62-.35,1.26-.53,1.89l-.84,2.84a.54.54,0,0,1-1-.31l.84-2.83c.18-.61.35-1.24.52-1.85L31.42,83l.55.22c1,.38,1.93.77,2.92,1.07,1.78.54,3.61,1,5.38,1.48l1.37.36c.89.23,1.06.14,1.38-.79.1-.3.21-.63.32-1l.21-.7a.54.54,0,1,1,1,.31l-.21.7c-.12.41-.23.74-.34,1.06C43.65,86.81,43.13,87.31,42.26,87.31Z" transform="translate(0 0)"/><path d="M48.86,71.61a.53.53,0,0,1-.23-.05l-9.86-4.65a.54.54,0,0,1,0-.94l10.46-6.31a.54.54,0,0,1,.53,0l.22.12a.54.54,0,0,1,.29.52l-.41,5.36a.54.54,0,0,1-1.07-.08L49.1,61l-9,5.4,8.25,3.89.19-2.44a.54.54,0,0,1,1.07.08l-.25,3.21a.54.54,0,0,1-.53.5Z" transform="translate(0 0)"/><path class="cls-2" d="M77.23,35.82a.53.53,0,0,1-.35-.13,30.44,30.44,0,0,0-4.15-2.94.54.54,0,0,1,.54-.93,30.91,30.91,0,0,1,4.32,3.06.54.54,0,0,1-.35.94Z" transform="translate(0 0)"/><path class="cls-2" d="M78.92,37.32a.53.53,0,0,1-.38-.16L78,36.62a.54.54,0,0,1,.76-.76l.54.54a.54.54,0,0,1-.38.92Z" transform="translate(0 0)"/></svg>