<svg id="Layer_1" data-name="Layer 1" xmlns="http://www.w3.org/2000/svg" viewBox="0 0 45.41 100"><defs><style>.cls-1{fill:#009fd4;}.cls-2{fill:#43c5ff;}</style></defs><title>sqlite</title><path class="cls-1" d="M4,86.3c.24,2.63,2.19,10.26,2.64,12.87C.07,65.79,22.07,21.32,35.88,10.71A174,174,0,0,0,8.82,73.1c2.62-2.32,5.24-5.24,8.41-7.3,5.31-3.43,7.55-9.07,11.35-13.56l-.4-.52L19.7,53.86a74.34,74.34,0,0,1,9.85-5.14,5.22,5.22,0,0,0,2.22-1.59c4.8-7.6,9.3-15.41,11.56-24.16a38.73,38.73,0,0,0,1.15-12.49C43.95,3.79,38.18-.67,32.86,1.3a22.07,22.07,0,0,0-8.61,5.45A81.1,81.1,0,0,0,8.26,34c-1.89,5.34-5.14,10.58-2.8,16.72L4.08,49.05C1,52.34,3.2,55.54,3.9,58.79L2,55.87l-.89.07C1.05,58.08.6,60.28,1,62.33c.76,4.14,2.34,8.15,2.89,12.3C4.38,78.46,4,82.4,4,86.3" transform="translate(0 0)"/><path d="M6.61,100a.83.83,0,0,1-.81-.67l-.15-.77c-.2-1-.52-2.41-.85-3.88C4.1,91.57,3.3,88,3.15,86.37c0,0,0,0,0-.07,0-1.2,0-2.43.08-3.61A49.47,49.47,0,0,0,3,74.74,51,51,0,0,0,1.52,68c-.5-1.8-1-3.66-1.35-5.53a17,17,0,0,1,0-4.6c.06-.65.12-1.32.14-2a.83.83,0,0,1,.76-.8L2,55a6.46,6.46,0,0,1,1.52-6.56.83.83,0,0,1,.47-.25c-.6-4.12.91-7.85,2.37-11.47.4-1,.81-2,1.16-3A82,82,0,0,1,23.63,6.2,22.74,22.74,0,0,1,32.57.53a8.44,8.44,0,0,1,7.62.91,11.68,11.68,0,0,1,5.11,9,39.38,39.38,0,0,1-1.17,12.76c-2.39,9.28-7.27,17.46-11.66,24.4a5.86,5.86,0,0,1-2.56,1.89L28.68,50c-1.06.49-2.12,1-3.19,1.51l2.5-.63a.83.83,0,0,1,.86.3l.4.52a.83.83,0,0,1,0,1,52.71,52.71,0,0,0-3.47,4.77c-2.17,3.24-4.42,6.59-8.07,8.95a41.23,41.23,0,0,0-5.88,5c-.83.8-1.62,1.55-2.43,2.26A.83.83,0,0,1,8,72.93,173.48,173.48,0,0,1,30.69,17.11C17.61,33.11,2.11,69.79,7.28,98.24c.06.29.11.56.15.79a.83.83,0,0,1-.67,1ZM1.88,57.19c0,.28,0,.56-.07.84a15.59,15.59,0,0,0,0,4.15c.33,1.8.83,3.63,1.32,5.39a52.24,52.24,0,0,1,1.58,7,33.34,33.34,0,0,1,.26,4A124.22,124.22,0,0,1,12.84,46.1C19,30.17,28,15.69,35.37,10.05a.83.83,0,0,1,1.19,1.13A173.1,173.1,0,0,0,10.21,70.69l.45-.43a42.48,42.48,0,0,1,6.13-5.15c3.36-2.17,5.42-5.23,7.59-8.48.84-1.25,1.7-2.53,2.64-3.75L19.9,54.66a.83.83,0,0,1-.66-1.5A65.14,65.14,0,0,1,28,48.54L29.2,48a4.87,4.87,0,0,0,1.87-1.28c5.36-8.47,9.36-15.79,11.46-23.92a37.71,37.71,0,0,0,1.12-12.22A10,10,0,0,0,39.3,2.83a6.82,6.82,0,0,0-6.15-.75,21.08,21.08,0,0,0-8.28,5.22A80.36,80.36,0,0,0,9,34.32c-.37,1-.78,2.07-1.19,3.07-1.75,4.32-3.4,8.41-1.62,13.07a.83.83,0,0,1-1.42.82l-.73-.91c-1.3,1.94-.7,3.84,0,6,.23.73.47,1.48.64,2.24a.83.83,0,0,1-1.51.62Z" transform="translate(0 0)"/><path class="cls-2" d="M38,27.7a.83.83,0,0,1-.7-1.28c2.92-4.58,3.6-14.45,3.61-14.54A.83.83,0,0,1,42.6,12c0,.42-.71,10.39-3.86,15.33A.83.83,0,0,1,38,27.7Z" transform="translate(0 0)"/><path class="cls-2" d="M41.48,10.19a.83.83,0,0,1-.79-.59c-.89-2.9-2-3.56-2-3.57a.82.82,0,0,1-.39-1.1.84.84,0,0,1,1.12-.39c.18.08,1.78.93,2.89,4.58a.83.83,0,0,1-.79,1.07Z" transform="translate(0 0)"/></svg>