<svg id="Layer_1" data-name="Layer 1" xmlns="http://www.w3.org/2000/svg" viewBox="0 0 95 100.15"><defs><style>.cls-1{fill:#f0554e;}.cls-2{fill:#fff;}.cls-3{fill:#81d2e3;}.cls-4{fill:#231f20;}.cls-5{fill:#fedd79;}.cls-6{fill:#010101;}</style></defs><title>STARTUP_SOLUTIONS</title><path class="cls-1" d="M94,1.19A80.8,80.8,0,0,1,89.56,22.8L72.43,5.67A80.8,80.8,0,0,1,94,1.19Z"/><path class="cls-2" d="M72.43,5.67,89.56,22.8c-2.68,7.6-7,15.93-13.78,22.75A72.13,72.13,0,0,1,54,60.34L34.89,41.19a73.24,73.24,0,0,1,9.89-16.27,68.51,68.51,0,0,1,4.91-5.47C56.5,12.64,64.83,8.35,72.43,5.67Z"/><path class="cls-3" d="M73.17,22.06a7.38,7.38,0,1,1-10.44,0A7.38,7.38,0,0,1,73.17,22.06Z"/><path class="cls-4" d="M67.95,35.58a8.3,8.3,0,1,1,5.87-2.43A8.28,8.28,0,0,1,67.95,35.58Zm0-14.75a6.46,6.46,0,1,0,4.57,1.89A6.44,6.44,0,0,0,67.95,20.83Z"/><path class="cls-1" d="M70.56,50.77C80.07,65,62.27,74.25,52.29,74.25a13.71,13.71,0,0,0,3.69-12L54,60.34a73.24,73.24,0,0,0,16.27-9.89Z"/><path class="cls-1" d="M32.74,54.7l-.3-.3a3.58,3.58,0,0,1-1-3.37,64.3,64.3,0,0,1,3.45-9.84L54,60.34a64.3,64.3,0,0,1-9.84,3.45,3.58,3.58,0,0,1-3.37-1l-.3-.3Z"/><path class="cls-1" d="M44.46,24.67l.31.25a73.24,73.24,0,0,0-9.89,16.27l-1.95-1.95a13.71,13.71,0,0,0-12,3.69C21,33,30.2,15.16,44.46,24.67Z"/><path class="cls-4" d="M52.29,75.17H50.06l1.57-1.57a12.81,12.81,0,0,0,3.49-10.86L52.43,60l1.23-.54a71.87,71.87,0,0,0,16.06-9.76l.72-.58.87,1.1c4.1,6.15,3,11,1.43,14C69.15,71,59.33,75.17,52.29,75.17Zm3.34-14.54,1.19,1.19.06.26A14.65,14.65,0,0,1,54.4,73.2c6.25-.72,13.88-4.47,16.72-9.79,1.92-3.58,1.58-7.49-1-11.63A73.7,73.7,0,0,1,55.64,60.63Z"/><path class="cls-4" d="M43.41,64.81a4.62,4.62,0,0,1-3.24-1.37l-8.38-8.38a4.51,4.51,0,0,1-1.25-4.26,65,65,0,0,1,3.5-10l.54-1.23L55.64,60.64l-1.23.54a65,65,0,0,1-10,3.5A4.11,4.11,0,0,1,43.41,64.81Zm-10-10.76,8.08,8.08A2.65,2.65,0,0,0,44,62.9,62,62,0,0,0,52.42,60L35.2,42.8a62,62,0,0,0-2.87,8.45,2.65,2.65,0,0,0,.77,2.49l.3.3Z"/><path class="cls-4" d="M20.06,45.16V42.94c0-7,4.16-16.86,10.89-20.46,3-1.61,7.88-2.67,14,1.43L45,24l1,.83-.58.72a71.87,71.87,0,0,0-9.76,16.06l-.54,1.23-2.7-2.7a12.67,12.67,0,0,0-10.86,3.49Zm16.5-22.28a9.93,9.93,0,0,0-4.74,1.22C26.5,26.95,22.75,34.57,22,40.82a14.65,14.65,0,0,1,11.12-2.48l.26.06,1.19,1.19a73.71,73.71,0,0,1,8.85-14.48A13,13,0,0,0,36.55,22.88Z"/><path class="cls-5" d="M32.74,54.7l7.78,7.78A14.54,14.54,0,0,1,36.63,69C32.31,73.36,21,74.25,21,74.25s.89-11.33,5.22-15.66A14.54,14.54,0,0,1,32.74,54.7Z"/><path class="cls-6" d="M51,46.85a1.85,1.85,0,1,0-2.61,0A1.85,1.85,0,0,0,51,46.85Z"/><path class="cls-4" d="M89.94,24.25,70.74,5.06l1.38-.49A80.94,80.94,0,0,1,94,0l1,0,0,1a80.94,80.94,0,0,1-4.54,21.88ZM74.13,5.83l15,15A82.7,82.7,0,0,0,93.06,1.94,82.83,82.83,0,0,0,74.13,5.83Z"/><path class="cls-4" d="M53.83,61.21l-20-20,.25-.58a73.72,73.72,0,0,1,10-16.47,69.72,69.72,0,0,1,5-5.54,60.87,60.87,0,0,1,23.1-14l.55-.19L90.62,22.33l-.19.55a60.86,60.86,0,0,1-14,23.1,73.16,73.16,0,0,1-22,15ZM36,40.76,54.24,59A71.26,71.26,0,0,0,75.12,44.67,58.74,58.74,0,0,0,88.49,22.81L72.19,6.51A58.74,58.74,0,0,0,50.33,19.88a67.83,67.83,0,0,0-4.84,5.4A71.84,71.84,0,0,0,36,40.76Z"/><path class="cls-4" d="M20,75l.09-1.08c0-.48,1-11.72,5.49-16.24a15.53,15.53,0,0,1,7-4.13l.51-.13L41.55,62l-.13.51a15.53,15.53,0,0,1-4.13,7C32.77,74,21.53,74.9,21.05,74.94Zm12.5-19.52A14,14,0,0,0,26.85,59C23.58,62.29,22.36,70.09,22,73c2.9-.35,10.7-1.57,14-4.83a13.94,13.94,0,0,0,3.51-5.62Z"/><path class="cls-4" d="M12.47,63a.92.92,0,0,1-.65-1.57l7.57-7.57a.92.92,0,1,1,1.3,1.3l-7.57,7.57A.92.92,0,0,1,12.47,63Z"/><path class="cls-4" d="M.92,86.32a.92.92,0,0,1-.65-1.57L15.6,69.42a.92.92,0,1,1,1.3,1.3L1.57,86.05A.92.92,0,0,1,.92,86.32Z"/><path class="cls-4" d="M7.37,100.15a.92.92,0,0,1-.65-1.57L27.63,77.66a.92.92,0,0,1,1.3,1.3L8,99.88A.92.92,0,0,1,7.37,100.15Z"/><path class="cls-4" d="M28.89,91.66a.92.92,0,0,1-.65-1.57L43.62,74.71a.92.92,0,0,1,1.3,1.3L29.55,91.39A.92.92,0,0,1,28.89,91.66Z"/><path class="cls-4" d="M52.29,43.86a.92.92,0,0,1-.7-1.52L57,36a.92.92,0,0,1,1.4,1.2L53,43.54A.92.92,0,0,1,52.29,43.86Z"/></svg>