<svg id="Layer_1" data-name="Layer 1" xmlns="http://www.w3.org/2000/svg" viewBox="0 0 112.88 100"><defs><style>.cls-1{fill:#db8323;}.cls-2{fill:#ffa64d;}</style></defs><title>swift</title><path class="cls-1" d="M1.07,65c4,2.12,7.81,4.29,11.74,6.19,8.37,4,17.18,6.41,26.55,6.18a70.86,70.86,0,0,0,18.57-3.24,9.69,9.69,0,0,0,4.67-2.71C53.5,62.73,44,54.44,35.43,45.29S18.57,26.65,11.61,16.09c6.93,5.36,13.83,10.75,20.8,16.06s14,10.6,21.2,15.52l.39-.42C43.38,36.42,34.69,24.11,26.37,11.47a406.65,406.65,0,0,0,52.21,41.3A9,9,0,0,0,80.16,48c.42-3.52.91-7.06,1-10.6a48.73,48.73,0,0,0-.66-8A60.87,60.87,0,0,0,71.75,4.88c-.76-1.2-1.46-2.44-2.28-3.8a2.49,2.49,0,0,1,.45.13c12.17,7.54,22,17.3,28.32,30.29,3.75,7.72,6.19,15.87,5.89,24.54-.14,4-1.16,7.89-1.88,11.82a3.27,3.27,0,0,0,.66,2.92c6,8,9.4,16.9,8.82,27.07a1.38,1.38,0,0,1-.35.84c-.68-.76-1.37-1.51-2-2.28-3.8-4.48-8.52-7.28-14.46-7.71-3.39-.24-6.46.93-9.41,2.47S80,94.29,77,95.49A47.37,47.37,0,0,1,49.79,98C37.73,95.73,26.62,91.27,17,83.54c-6.07-4.87-10.77-11-15.21-17.31C1.52,65.87,1.34,65.47,1.07,65Z" transform="translate(0 0)"/><path d="M103.2,46.61a1.08,1.08,0,0,1-1.05-.86c-.27-1.31-.61-2.65-1-4a1.07,1.07,0,0,1,2.06-.61c.41,1.4.77,2.8,1.05,4.17a1.07,1.07,0,0,1-.83,1.27Z" transform="translate(0 0)"/><path d="M59.45,100a53.28,53.28,0,0,1-9.86-.94c-13.17-2.48-24.06-7.28-33.28-14.68C10,79.34,5.19,73,.89,66.85a8.4,8.4,0,0,1-.53-.9l-.23-.42a1.08,1.08,0,0,1,1.44-1.48c1.26.67,2.52,1.35,3.74,2,2.72,1.48,5.29,2.87,8,4.16,8.93,4.29,17.45,6.29,26.05,6.08a68.94,68.94,0,0,0,18.29-3.2,9.72,9.72,0,0,0,3.43-1.67C58.54,69,56,66.65,53.47,64.34,47.16,58.47,40.64,52.41,34.65,46,27,37.88,18.18,28,10.71,16.68a1.08,1.08,0,0,1,1.56-1.44l6.34,4.91c4.73,3.67,9.62,7.46,14.46,11.14,5.27,4,10.18,7.72,15.06,11.23-8.68-9.77-16-20.34-22.65-30.47a1.07,1.07,0,0,1,1.63-1.38A408.94,408.94,0,0,0,78.26,51.27a10.39,10.39,0,0,0,.83-3.39q.1-.86.21-1.72c.35-2.88.71-5.87.8-8.78a47.63,47.63,0,0,0-.64-7.75v-.07a60.12,60.12,0,0,0-8.6-24.11c-.52-.83-1-1.66-1.53-2.54l-.76-1.28A1.08,1.08,0,0,1,69.76,0l.2.05a1.64,1.64,0,0,1,.53.2C83.77,8.52,93.16,18.57,99.21,31c.58,1.19,1.12,2.39,1.62,3.56a1.08,1.08,0,0,1-2,.84c-.48-1.14-1-2.31-1.57-3.46-5.36-11-13.45-20.14-24.67-27.74l0,.08a62.25,62.25,0,0,1,8.91,25v.07a49.24,49.24,0,0,1,.66,8.1c-.09,3-.46,6-.81,9q-.1.85-.21,1.71a10.07,10.07,0,0,1-1.81,5.31,1.08,1.08,0,0,1-1.43.22A405.11,405.11,0,0,1,32.17,18.19,206,206,0,0,0,54.77,46.5a1.08,1.08,0,0,1,0,1.48l-.39.42a1.07,1.07,0,0,1-1.39.16C46,43.8,39.24,38.7,31.76,33,26.92,29.32,22,25.52,17.29,21.85l-.82-.64A244.56,244.56,0,0,0,36.22,44.56c5.94,6.33,12.44,12.36,18.72,18.2,2.77,2.57,5.63,5.23,8.41,7.88a1.08,1.08,0,0,1,.07,1.49,10.67,10.67,0,0,1-5.17,3,71,71,0,0,1-18.85,3.28c-8.95.21-17.79-1.85-27-6.29-2.71-1.3-5.29-2.7-8-4.18A74.15,74.15,0,0,0,17.65,82.7C26.6,89.87,37.17,94.53,50,96.95a46.48,46.48,0,0,0,26.64-2.45,58.3,58.3,0,0,0,5.8-2.9c.84-.46,1.7-.93,2.56-1.38,2.59-1.35,6.07-2.86,10-2.58,5.89.42,11,3.14,15.2,8.08l.55.63c.18-8.8-2.66-17-8.66-24.92a4.31,4.31,0,0,1-.86-3.76c.19-1,.39-2,.59-3A53.77,53.77,0,0,0,103.06,56c0-.84,0-1.72,0-2.61a1.08,1.08,0,0,1,2.15-.06c0,.93,0,1.86,0,2.75a55.4,55.4,0,0,1-1.31,9c-.2,1-.41,2-.59,3a2.2,2.2,0,0,0,.46,2.08c6.65,8.81,9.6,17.9,9,27.78a2.43,2.43,0,0,1-.56,1.42,1.08,1.08,0,0,1-1.66.07l-.65-.72c-.46-.51-.94-1-1.4-1.59-3.86-4.55-8.35-6.95-13.72-7.33-3.35-.24-6.35,1.05-8.83,2.35-.84.44-1.7.91-2.52,1.36a59.94,59.94,0,0,1-6,3A47.1,47.1,0,0,1,59.45,100Z" transform="translate(0 0)"/><path class="cls-2" d="M38.4,91.41l-.23,0c-9.49-2.11-22.69-13.19-23.25-13.66a1.08,1.08,0,0,1,1.39-1.64c.13.11,13.36,11.21,22.33,13.21a1.08,1.08,0,0,1-.23,2.12Z" transform="translate(0 0)"/><path class="cls-2" d="M52.21,95.39h-.16a72.55,72.55,0,0,1-10.66-2.81,1.07,1.07,0,0,1,.7-2,71.84,71.84,0,0,0,10.27,2.72,1.08,1.08,0,0,1-.16,2.14Z" transform="translate(0 0)"/></svg>