<svg id="Layer_1" data-name="Layer 1" xmlns="http://www.w3.org/2000/svg" viewBox="0 0 99.89 100"><defs><style>.cls-1{fill:#4dbbeb;}.cls-2{fill:#e2e2e2;}.cls-3{fill:#feb756;}.cls-4{fill:#ffd097;}.cls-5{fill:#b6ecff;}.cls-6{fill:#c1c1c1;}.cls-7{fill:#ffad4a;}</style></defs><title>ui_ux_design</title><path class="cls-1" d="M95.07,3.29A4.31,4.31,0,1,1,90.76,7.6,4.31,4.31,0,0,1,95.07,3.29Z"/><path class="cls-1" d="M5.32,3.29A4.31,4.31,0,1,1,1,7.6,4.31,4.31,0,0,1,5.32,3.29Z"/><path d="M90.11,8.68H9.35a1.08,1.08,0,0,1,0-2.16H90.11a1.08,1.08,0,0,1,0,2.16Z"/><path d="M94.79,12.71A5.11,5.11,0,1,1,99.89,7.6,5.11,5.11,0,0,1,94.79,12.71Zm0-8.06a3,3,0,1,0,3,3A3,3,0,0,0,94.79,4.65Z"/><circle cx="85.47" cy="28.79" r="2.01"/><circle cx="12" cy="28.79" r="2.01"/><path d="M8.12,46.43A1.08,1.08,0,0,1,7,45.35,43.7,43.7,0,0,1,8.43,34.41a1.08,1.08,0,1,1,2.09.54A41.54,41.54,0,0,0,9.2,45.35,1.08,1.08,0,0,1,8.12,46.43Z"/><path d="M90.69,46.43a1.08,1.08,0,0,1-1.08-1.08A41.54,41.54,0,0,0,88.3,35a1.08,1.08,0,0,1,2.09-.54,43.7,43.7,0,0,1,1.39,10.94A1.08,1.08,0,0,1,90.69,46.43Z"/><path d="M78.68,22.18a1.07,1.07,0,0,1-.77-.32,41.44,41.44,0,0,0-58.53-.56,1.08,1.08,0,0,1-1.51-1.54,43.6,43.6,0,0,1,61.58.59,1.08,1.08,0,0,1-.77,1.83Z"/><path class="cls-1" d="M8.55,42.68A4.31,4.31,0,1,1,4.24,47,4.31,4.31,0,0,1,8.55,42.68Z"/><path d="M8.27,52.1A5.11,5.11,0,1,1,13.38,47,5.11,5.11,0,0,1,8.27,52.1Zm0-8.06a3,3,0,1,0,2.95,3A3,3,0,0,0,8.27,44Z"/><path d="M5.11,12.71A5.11,5.11,0,1,1,10.21,7.6,5.11,5.11,0,0,1,5.11,12.71Zm0-8.06a3,3,0,1,0,2.95,3A3,3,0,0,0,5.11,4.65Z"/><path class="cls-1" d="M49.73.62a7,7,0,1,1-7,7A7,7,0,0,1,49.73.62Z"/><path d="M49.38,15.21A7.6,7.6,0,1,1,57,7.6,7.61,7.61,0,0,1,49.38,15.21Zm0-13.05A5.45,5.45,0,1,0,54.83,7.6,5.45,5.45,0,0,0,49.38,2.16Z"/><path class="cls-2" d="M28.17,58.39,49.73,18.94,71.29,58.39,62.66,81.24H36.8Z"/><path class="cls-3" d="M62.66,81.24a4.31,4.31,0,0,1,0,8.62H36.8a4.31,4.31,0,0,1,0-8.62Z"/><path class="cls-4" d="M56.2,81.24h6.47a4.31,4.31,0,0,1,0,8.62H56.2"/><rect class="cls-1" x="36.8" y="89.87" width="25.87" height="9.05"/><rect class="cls-5" x="55.41" y="89.87" width="7.25" height="9.05"/><path class="cls-1" d="M49.73,54.3a4.31,4.31,0,1,1-4.31,4.31A4.31,4.31,0,0,1,49.73,54.3Z"/><path d="M49.73,64a5.39,5.39,0,1,1,5.39-5.39A5.4,5.4,0,0,1,49.73,64Zm0-8.62A3.23,3.23,0,1,0,53,58.61,3.24,3.24,0,0,0,49.73,55.38Z"/><polygon points="63.74 100 35.72 100 35.72 89.65 37.87 89.65 37.87 97.84 61.59 97.84 61.59 89.65 63.74 89.65 63.74 100"/><path d="M62.66,82.11a1.08,1.08,0,0,1-1-1.46l2.56-6.79a1.08,1.08,0,0,1,2,.76l-2.56,6.79A1.08,1.08,0,0,1,62.66,82.11Z"/><path d="M36.8,82.11a1.08,1.08,0,0,1-1-.7L27,58.1,49.73,16.48,72.47,58.1l-4.2,11.13a1.08,1.08,0,0,1-2-.76L70.1,58.26,49.73,21,29.36,58.26,37.8,80.65a1.08,1.08,0,0,1-1,1.46Z"/><path d="M62.66,91.38H45.13a1.08,1.08,0,0,1,0-2.16H62.66a3.23,3.23,0,0,0,0-6.47H36.8a3.23,3.23,0,0,0,0,6.47h4.31a1.08,1.08,0,0,1,0,2.16H36.8a5.39,5.39,0,0,1,0-10.78H62.66a5.39,5.39,0,0,1,0,10.78Z"/><path d="M49.73,54.32a1.08,1.08,0,0,1-1.08-1.08V18.73a1.08,1.08,0,1,1,2.16,0V53.24A1.08,1.08,0,0,1,49.73,54.32Z"/><path d="M71.29,59.4H62.66a1.08,1.08,0,1,1,0-2.16h8.62a1.08,1.08,0,0,1,0,2.16Z"/><path d="M37.87,59h-9a1.08,1.08,0,0,1,0-2.16h9a1.08,1.08,0,0,1,0,2.16Z"/><path class="cls-1" d="M91.12,43.54a4.31,4.31,0,1,1-4.31,4.31A4.31,4.31,0,0,1,91.12,43.54Z"/><path d="M90.84,53a5.11,5.11,0,1,1,5.11-5.11A5.11,5.11,0,0,1,90.84,53Zm0-8.06a3,3,0,1,0,3,3A3,3,0,0,0,90.84,44.9Z"/><path class="cls-6" d="M38.67,72.24a1.08,1.08,0,0,1-1-.68l-3.75-9.32a1.08,1.08,0,0,1,2-.81l3.75,9.32a1.08,1.08,0,0,1-1,1.48Z"/><path class="cls-6" d="M41.23,78.71a1.08,1.08,0,0,1-1-.68l-1.37-3.4a1.08,1.08,0,0,1,2-.81l1.37,3.4a1.08,1.08,0,0,1-1,1.48Z"/><path class="cls-7" d="M61.84,86.36a.54.54,0,0,1-.54-.54V84a.54.54,0,1,1,1.08,0v1.83A.54.54,0,0,1,61.84,86.36Z"/><path class="cls-7" d="M61.84,88.39a.54.54,0,0,1-.54-.54v-.74a.54.54,0,1,1,1.08,0v.74A.54.54,0,0,1,61.84,88.39Z"/></svg>