<svg id="Layer_1" data-name="Layer 1" xmlns="http://www.w3.org/2000/svg" viewBox="0 0 96.5 99.81"><defs><style>.cls-1{fill:#fff;}.cls-2{fill:#58c7dd;}</style></defs><title>ui_ux_apps</title><path d="M5.33,22.19l-.42-1.57a1.66,1.66,0,1,0-3.21.86l.42,1.58a1.65,1.65,0,0,0,1.6,1.22,1.49,1.49,0,0,0,.43-.06,1.66,1.66,0,0,0,1.18-2Zm0,0"/><path d="M1.85,16.41A1.66,1.66,0,0,0,3.35,14.6a3.77,3.77,0,0,1,0-.41,3.73,3.73,0,0,1,.07-.75,1.66,1.66,0,0,0-3.27-.63A7.45,7.45,0,0,0,0,14.2a7,7,0,0,0,0,.72,1.66,1.66,0,0,0,1.66,1.5Zm0,0"/><path d="M9.54,37.91l-.41-1.58a1.67,1.67,0,0,0-3.22.87l.42,1.57A1.66,1.66,0,0,0,7.93,40a1.58,1.58,0,0,0,.43-.06,1.66,1.66,0,0,0,1.18-2Zm0,0"/><path d="M18,69.34l-.42-1.57a1.66,1.66,0,1,0-3.21.86l.42,1.57a1.65,1.65,0,0,0,1.6,1.23,1.48,1.48,0,0,0,.43-.06,1.66,1.66,0,0,0,1.18-2Zm0,0"/><path d="M7.43,30.05,7,28.48a1.66,1.66,0,1,0-3.21.86l.42,1.58a1.66,1.66,0,0,0,1.6,1.23,1.5,1.5,0,0,0,.43-.06,1.65,1.65,0,0,0,1.18-2Zm0,0"/><path d="M6,10.35a1.86,1.86,0,0,0,.43,0L8,9.88a1.67,1.67,0,1,0-.86-3.22l-1.57.42A1.66,1.66,0,0,0,6,10.35Zm0,0"/><path d="M13.88,8.25a1.59,1.59,0,0,0,.43-.06l1.57-.42a1.67,1.67,0,0,0,1.18-2,1.65,1.65,0,0,0-2-1.17L13.45,5a1.68,1.68,0,0,0-1.18,2,1.66,1.66,0,0,0,1.61,1.24Zm0,0"/><path d="M15.86,61.48l-.42-1.58a1.67,1.67,0,0,0-3.22.86l.42,1.58a1.68,1.68,0,0,0,1.61,1.24,2.13,2.13,0,0,0,.43-.06,1.67,1.67,0,0,0,1.18-2Zm0,0"/><path d="M11.65,45.76l-.42-1.57A1.66,1.66,0,1,0,8,45.06l.42,1.57A1.66,1.66,0,0,0,10,47.86a1.56,1.56,0,0,0,.43-.06,1.67,1.67,0,0,0,1.18-2Zm0,0"/><path d="M13.75,53.62l-.42-1.57a1.67,1.67,0,0,0-3.22.86l.42,1.57a1.67,1.67,0,0,0,1.61,1.24,1.58,1.58,0,0,0,.43-.06,1.66,1.66,0,0,0,1.18-2Zm0,0"/><path d="M91.53,27.31a1.66,1.66,0,0,0-2,1.17l-.42,1.58a1.67,1.67,0,0,0,1.18,2,2,2,0,0,0,.43.06,1.67,1.67,0,0,0,1.61-1.24l.42-1.58a1.66,1.66,0,0,0-1.18-2Zm0,0"/><path d="M93.63,19.45a1.66,1.66,0,0,0-2,1.18l-.42,1.57a1.67,1.67,0,0,0,1.18,2,1.57,1.57,0,0,0,.43.06,1.66,1.66,0,0,0,1.61-1.23l.42-1.57a1.67,1.67,0,0,0-1.18-2Zm0,0"/><path d="M96.37,12.82a1.66,1.66,0,0,0-3.27.63,3.67,3.67,0,0,1,.07.75,3.28,3.28,0,0,1,0,.4,1.67,1.67,0,0,0,1.5,1.81h.15a1.66,1.66,0,0,0,1.66-1.5c0-.25,0-.48,0-.72a7.28,7.28,0,0,0-.13-1.38Zm0,0"/><path d="M80.62,7.76l1.57.42a1.54,1.54,0,0,0,.43.06A1.67,1.67,0,0,0,83.06,5l-1.57-.41a1.66,1.66,0,1,0-.86,3.21Zm0,0"/><path d="M88.48,9.88l1.57.42a1.94,1.94,0,0,0,.43,0,1.66,1.66,0,0,0,.43-3.26l-1.57-.42a1.67,1.67,0,1,0-.86,3.22Zm0,0"/><path d="M89.43,35.16a1.66,1.66,0,0,0-2,1.18L87,37.91a1.67,1.67,0,0,0,1.18,2,1.64,1.64,0,0,0,.43.06,1.67,1.67,0,0,0,1.61-1.24l.42-1.57a1.66,1.66,0,0,0-1.18-2Zm0,0"/><path d="M78.9,74.45a1.66,1.66,0,0,0-2,1.18l-.32,1.19v-.29s0,0,0-.07V70.09s0,0,0-.08V68.39s0,0,0-.08V62s0,0,0-.08V60.25s0,0,0-.08V53.83s0-.06,0-.08V52.12s0-.06,0-.08V45.69s0,0,0-.07V44s0,0,0-.08V37.56s0,0,0-.08V35.85s0,0,0-.07V29.42s0,0,0-.08V27.72s0,0,0-.08V21.29s0,0,0-.08V19.58s0-.06,0-.08V13.16s0-.06,0-.08V11.45s0,0,0-.08v-4A7.34,7.34,0,0,0,69.2,0H27.29A7.33,7.33,0,0,0,20,7.33V76.79l-.32-1.18a1.67,1.67,0,0,0-3.22.86L16.85,78a1.66,1.66,0,0,0,3.11.28v3.95a1.36,1.36,0,0,0-.25,0,1.67,1.67,0,0,0-1.18,2L19,85.9A1.68,1.68,0,0,0,20,87v5.47a7.34,7.34,0,0,0,7.33,7.33H69.2a7.34,7.34,0,0,0,7.33-7.33V87a1.64,1.64,0,0,0,1-1.11L78,84.33a1.66,1.66,0,0,0-1.17-2,1.46,1.46,0,0,0-.27,0v-4a1.64,1.64,0,0,0,1.08.91,1.67,1.67,0,0,0,2-1.18l.41-1.57a1.65,1.65,0,0,0-1.17-2Z"/><rect class="cls-1" x="23.29" y="13.3" width="49.91" height="63.22"/><path class="cls-2" d="M27.29,3.33H69.2a4,4,0,0,1,4,4V10H23.29V7.33a4,4,0,0,1,4-4Z"/><path class="cls-2" d="M69.2,96.48H27.29a4,4,0,0,1-4-4V79.85H73.2V92.49a4,4,0,0,1-4,4Z"/><path d="M69.2,96.48"/><path d="M83.11,58.74a1.66,1.66,0,0,0-2,1.17l-.42,1.58a1.68,1.68,0,0,0,1.18,2,2.09,2.09,0,0,0,.43.06,1.66,1.66,0,0,0,1.61-1.24l.42-1.57a1.66,1.66,0,0,0-1.18-2Zm0,0"/><path d="M81,66.59a1.66,1.66,0,0,0-2,1.18l-.42,1.57a1.67,1.67,0,0,0,1.18,2,2,2,0,0,0,.43.06,1.66,1.66,0,0,0,1.61-1.23l.42-1.57a1.67,1.67,0,0,0-1.18-2Zm0,0"/><path d="M85.21,50.87a1.65,1.65,0,0,0-2,1.18l-.42,1.58a1.65,1.65,0,0,0,1.18,2,1.5,1.5,0,0,0,.43.06A1.66,1.66,0,0,0,86,54.49l.42-1.58a1.67,1.67,0,0,0-1.18-2Zm0,0"/><path d="M87.32,43a1.66,1.66,0,0,0-2,1.18l-.42,1.57a1.66,1.66,0,0,0,1.18,2,1.49,1.49,0,0,0,.43.06,1.66,1.66,0,0,0,1.6-1.23l.42-1.57a1.66,1.66,0,0,0-1.17-2Zm0,0"/><path d="M46.58,81.51a6.66,6.66,0,1,0,6.65,6.65,6.67,6.67,0,0,0-6.65-6.65Zm0,10a3.33,3.33,0,1,1,3.32-3.33,3.34,3.34,0,0,1-3.32,3.33Zm0,0"/><path d="M41.59,8.32h6.65a1.67,1.67,0,1,0,0-3.33H41.59a1.67,1.67,0,0,0,0,3.33Zm0,0"/><path d="M53.24,8.32H54.9A1.67,1.67,0,0,0,54.9,5H53.24a1.67,1.67,0,0,0,0,3.33Zm0,0"/></svg>