<svg xmlns="http://www.w3.org/2000/svg" xmlns:xlink="http://www.w3.org/1999/xlink" width="47" zoomAndPan="magnify" viewBox="0 0 35.25 44.999999" height="60" preserveAspectRatio="xMidYMid meet" version="1.0"><defs><clipPath id="21b05b4682"><path d="M 0 0.46875 L 34.515625 0.46875 L 34.515625 44.53125 L 0 44.53125 Z M 0 0.46875 " clip-rule="nonzero"/></clipPath><clipPath id="b2f5ad68f4"><path d="M 3 6.710938 L 32 6.710938 L 32 24 L 3 24 Z M 3 6.710938 " clip-rule="nonzero"/></clipPath><clipPath id="8e0c97c740"><path d="M 15.730469 37.792969 L 19 37.792969 L 19 41.144531 L 15.730469 41.144531 Z M 15.730469 37.792969 " clip-rule="nonzero"/></clipPath><clipPath id="07f9c58d43"><path d="M 10.011719 37.792969 L 13.824219 37.792969 L 13.824219 41.144531 L 10.011719 41.144531 Z M 10.011719 37.792969 " clip-rule="nonzero"/></clipPath><clipPath id="70974dc9e4"><path d="M 21 37.792969 L 24.789062 37.792969 L 24.789062 41.144531 L 21 41.144531 Z M 21 37.792969 " clip-rule="nonzero"/></clipPath><clipPath id="ce16132d5c"><path d="M 31 30.167969 L 34.515625 30.167969 L 34.515625 33.980469 L 31 33.980469 Z M 31 30.167969 " clip-rule="nonzero"/></clipPath><clipPath id="d4cd2f4c60"><path d="M 25.265625 20.632812 L 34.515625 20.632812 L 34.515625 29.691406 L 25.265625 29.691406 Z M 25.265625 20.632812 " clip-rule="nonzero"/></clipPath><clipPath id="26d17308d5"><path d="M 31 18.246094 L 34.515625 18.246094 L 34.515625 22 L 31 22 Z M 31 18.246094 " clip-rule="nonzero"/></clipPath></defs><g clip-path="url(#21b05b4682)"><path fill="#ffffff" d="M 0 0.46875 L 34.515625 0.46875 L 34.515625 44.53125 L 0 44.53125 Z M 0 0.46875 " fill-opacity="1" fill-rule="nonzero"/><path fill="#ffffff" d="M 0 0.46875 L 34.515625 0.46875 L 34.515625 44.53125 L 0 44.53125 Z M 0 0.46875 " fill-opacity="1" fill-rule="nonzero"/></g><path fill="#aee5f1" d="M 7.433594 23.441406 C 5.734375 23.441406 5.683594 22.167969 5.84375 20.523438 C 4.742188 20.152344 3.953125 19.121094 3.953125 17.902344 C 3.953125 16.847656 4.550781 15.945312 5.421875 15.476562 C 5.363281 15.257812 5.324219 15.035156 5.324219 14.796875 C 5.324219 13.316406 6.515625 12.113281 7.988281 12.113281 C 8.09375 12.113281 8.195312 12.132812 8.296875 12.144531 C 8.433594 9.800781 10.359375 7.941406 12.722656 7.941406 C 13.6875 7.941406 14.574219 8.25 15.300781 8.777344 C 16.261719 7.886719 17.542969 7.34375 18.960938 7.34375 C 21.277344 7.34375 23.238281 8.796875 24.011719 10.828125 C 24.464844 10.667969 24.945312 10.5625 25.453125 10.5625 C 27.84375 10.5625 29.78125 12.484375 29.78125 14.855469 C 29.78125 15.246094 29.730469 15.621094 29.632812 15.980469 C 30.339844 16.769531 30.777344 17.816406 30.777344 18.96875 C 30.777344 21.4375 29.335938 23.441406 26.882812 23.441406 L 7.433594 23.441406 " fill-opacity="1" fill-rule="nonzero"/><g clip-path="url(#b2f5ad68f4)"><path fill="#100f0d" d="M 26.882812 23.976562 L 26.347656 23.976562 L 26.347656 22.902344 L 26.882812 22.902344 C 29.203125 22.902344 30.242188 20.925781 30.242188 18.96875 C 30.242188 18 29.882812 17.0625 29.234375 16.335938 L 29.039062 16.121094 L 29.113281 15.839844 C 29.203125 15.519531 29.246094 15.1875 29.246094 14.855469 C 29.246094 12.785156 27.542969 11.101562 25.453125 11.101562 C 25.046875 11.101562 24.632812 11.175781 24.1875 11.332031 L 23.695312 11.507812 L 23.507812 11.015625 C 22.796875 9.140625 20.96875 7.878906 18.960938 7.878906 C 17.734375 7.878906 16.566406 8.339844 15.664062 9.167969 L 15.34375 9.46875 L 14.988281 9.210938 C 14.320312 8.730469 13.539062 8.476562 12.722656 8.476562 C 10.664062 8.476562 8.953125 10.101562 8.832031 12.175781 L 8.800781 12.742188 L 8.140625 12.664062 C 8.089844 12.65625 8.039062 12.648438 7.988281 12.648438 C 6.8125 12.648438 5.859375 13.613281 5.859375 14.796875 C 5.859375 14.960938 5.882812 15.132812 5.941406 15.339844 L 6.046875 15.75 L 5.675781 15.949219 C 4.941406 16.34375 4.488281 17.089844 4.488281 17.902344 C 4.488281 18.855469 5.101562 19.707031 6.015625 20.015625 L 6.421875 20.152344 L 6.378906 20.574219 C 6.292969 21.4375 6.257812 22.285156 6.582031 22.644531 C 6.742188 22.816406 7.019531 22.902344 7.433594 22.902344 L 7.96875 22.902344 L 7.96875 23.976562 L 7.433594 23.976562 C 6.710938 23.976562 6.15625 23.769531 5.789062 23.363281 C 5.230469 22.746094 5.203125 21.816406 5.277344 20.867188 C 4.148438 20.316406 3.414062 19.171875 3.414062 17.902344 C 3.414062 16.832031 3.945312 15.835938 4.820312 15.21875 C 4.800781 15.074219 4.789062 14.933594 4.789062 14.796875 C 4.789062 13.078125 6.132812 11.667969 7.820312 11.582031 C 8.214844 9.199219 10.277344 7.402344 12.722656 7.402344 C 13.621094 7.402344 14.488281 7.644531 15.257812 8.105469 C 16.308594 7.265625 17.609375 6.808594 18.960938 6.808594 C 21.246094 6.808594 23.335938 8.140625 24.3125 10.175781 C 24.699219 10.078125 25.078125 10.027344 25.453125 10.027344 C 28.136719 10.027344 30.320312 12.195312 30.320312 14.855469 C 30.320312 15.1875 30.285156 15.515625 30.21875 15.839844 C 30.925781 16.726562 31.3125 17.828125 31.3125 18.96875 C 31.3125 21.917969 29.492188 23.976562 26.882812 23.976562 " fill-opacity="1" fill-rule="nonzero"/></g><path fill="#100f0d" d="M 13.609375 16.464844 L 12.535156 16.464844 L 12.535156 11.101562 L 13.609375 11.101562 L 13.609375 16.464844 " fill-opacity="1" fill-rule="nonzero"/><path fill="#100f0d" d="M 16.558594 12.171875 C 16.117188 12.171875 15.753906 12.535156 15.753906 12.976562 L 15.753906 14.585938 C 15.753906 15.03125 16.117188 15.390625 16.558594 15.390625 C 17.003906 15.390625 17.363281 15.03125 17.363281 14.585938 L 17.363281 12.976562 C 17.363281 12.535156 17.003906 12.171875 16.558594 12.171875 Z M 16.558594 16.464844 C 15.523438 16.464844 14.683594 15.621094 14.683594 14.585938 L 14.683594 12.976562 C 14.683594 11.941406 15.523438 11.101562 16.558594 11.101562 C 17.59375 11.101562 18.4375 11.941406 18.4375 12.976562 L 18.4375 14.585938 C 18.4375 15.621094 17.59375 16.464844 16.558594 16.464844 " fill-opacity="1" fill-rule="nonzero"/><path fill="#100f0d" d="M 21.121094 16.464844 L 20.046875 16.464844 L 20.046875 11.101562 L 21.121094 11.101562 L 21.121094 16.464844 " fill-opacity="1" fill-rule="nonzero"/><path fill="#100f0d" d="M 22.191406 12.171875 L 18.972656 12.171875 L 18.972656 11.101562 L 22.191406 11.101562 L 22.191406 12.171875 " fill-opacity="1" fill-rule="nonzero"/><path fill="#100f0d" d="M 17.902344 39 L 16.828125 39 L 16.828125 34.707031 L 17.902344 34.707031 L 17.902344 39 " fill-opacity="1" fill-rule="nonzero"/><path fill="#100f0d" d="M 12.535156 39 L 11.460938 39 L 11.460938 35.777344 L 14.683594 35.777344 L 14.683594 34.707031 L 15.753906 34.707031 L 15.753906 36.855469 L 12.535156 36.855469 L 12.535156 39 " fill-opacity="1" fill-rule="nonzero"/><path fill="#100f0d" d="M 23.265625 39 L 22.191406 39 L 22.191406 36.855469 L 18.972656 36.855469 L 18.972656 34.707031 L 20.046875 34.707031 L 20.046875 35.777344 L 23.265625 35.777344 L 23.265625 39 " fill-opacity="1" fill-rule="nonzero"/><path fill="#f7cc33" d="M 16.289062 39.535156 C 16.289062 38.941406 16.769531 38.460938 17.363281 38.460938 C 17.957031 38.460938 18.4375 38.941406 18.4375 39.535156 C 18.4375 40.128906 17.957031 40.609375 17.363281 40.609375 C 16.769531 40.609375 16.289062 40.128906 16.289062 39.535156 " fill-opacity="1" fill-rule="nonzero"/><g clip-path="url(#8e0c97c740)"><path fill="#100f0d" d="M 17.363281 39 C 17.066406 39 16.828125 39.238281 16.828125 39.535156 C 16.828125 39.832031 17.066406 40.070312 17.363281 40.070312 C 17.660156 40.070312 17.902344 39.832031 17.902344 39.535156 C 17.902344 39.238281 17.660156 39 17.363281 39 Z M 17.363281 41.144531 C 16.476562 41.144531 15.753906 40.421875 15.753906 39.535156 C 15.753906 38.648438 16.476562 37.925781 17.363281 37.925781 C 18.25 37.925781 18.972656 38.648438 18.972656 39.535156 C 18.972656 40.421875 18.25 41.144531 17.363281 41.144531 " fill-opacity="1" fill-rule="nonzero"/></g><path fill="#f7cc33" d="M 10.925781 39.535156 C 10.925781 38.941406 11.40625 38.460938 12 38.460938 C 12.59375 38.460938 13.074219 38.941406 13.074219 39.535156 C 13.074219 40.128906 12.59375 40.609375 12 40.609375 C 11.40625 40.609375 10.925781 40.128906 10.925781 39.535156 " fill-opacity="1" fill-rule="nonzero"/><g clip-path="url(#07f9c58d43)"><path fill="#100f0d" d="M 12 39 C 11.703125 39 11.460938 39.238281 11.460938 39.535156 C 11.460938 39.832031 11.703125 40.070312 12 40.070312 C 12.292969 40.070312 12.535156 39.832031 12.535156 39.535156 C 12.535156 39.238281 12.292969 39 12 39 Z M 12 41.144531 C 11.113281 41.144531 10.390625 40.421875 10.390625 39.535156 C 10.390625 38.648438 11.113281 37.925781 12 37.925781 C 12.886719 37.925781 13.609375 38.648438 13.609375 39.535156 C 13.609375 40.421875 12.886719 41.144531 12 41.144531 " fill-opacity="1" fill-rule="nonzero"/></g><path fill="#f7cc33" d="M 21.65625 39.535156 C 21.65625 38.941406 22.136719 38.460938 22.730469 38.460938 C 23.324219 38.460938 23.804688 38.941406 23.804688 39.535156 C 23.804688 40.128906 23.324219 40.609375 22.730469 40.609375 C 22.136719 40.609375 21.65625 40.128906 21.65625 39.535156 " fill-opacity="1" fill-rule="nonzero"/><g clip-path="url(#70974dc9e4)"><path fill="#100f0d" d="M 22.730469 39 C 22.433594 39 22.191406 39.238281 22.191406 39.535156 C 22.191406 39.832031 22.433594 40.070312 22.730469 40.070312 C 23.023438 40.070312 23.265625 39.832031 23.265625 39.535156 C 23.265625 39.238281 23.023438 39 22.730469 39 Z M 22.730469 41.144531 C 21.84375 41.144531 21.121094 40.421875 21.121094 39.535156 C 21.121094 38.648438 21.84375 37.925781 22.730469 37.925781 C 23.617188 37.925781 24.339844 38.648438 24.339844 39.535156 C 24.339844 40.421875 23.617188 41.144531 22.730469 41.144531 " fill-opacity="1" fill-rule="nonzero"/></g><path fill="#100f0d" d="M 11.460938 32.5625 L 2.339844 32.5625 L 2.339844 31.488281 L 11.460938 31.488281 L 11.460938 32.5625 " fill-opacity="1" fill-rule="nonzero"/><path fill="#100f0d" d="M 7.707031 37.925781 L 4.488281 37.925781 L 4.488281 36.855469 L 6.632812 36.855469 L 6.632812 33.632812 L 13.609375 33.632812 L 13.609375 34.707031 L 7.707031 34.707031 L 7.707031 37.925781 " fill-opacity="1" fill-rule="nonzero"/><path fill="#f7cc33" d="M 1.804688 30.949219 C 2.398438 30.949219 2.878906 31.433594 2.878906 32.023438 C 2.878906 32.617188 2.398438 33.097656 1.804688 33.097656 C 1.210938 33.097656 0.730469 32.617188 0.730469 32.023438 C 0.730469 31.433594 1.210938 30.949219 1.804688 30.949219 " fill-opacity="1" fill-rule="nonzero"/><path fill="#100f0d" d="M 1.804688 31.488281 C 1.507812 31.488281 1.269531 31.730469 1.269531 32.023438 C 1.269531 32.320312 1.507812 32.5625 1.804688 32.5625 C 2.101562 32.5625 2.339844 32.320312 2.339844 32.023438 C 2.339844 31.730469 2.101562 31.488281 1.804688 31.488281 Z M 1.804688 33.632812 C 0.917969 33.632812 0.195312 32.910156 0.195312 32.023438 C 0.195312 31.136719 0.917969 30.414062 1.804688 30.414062 C 2.691406 30.414062 3.414062 31.136719 3.414062 32.023438 C 3.414062 32.910156 2.691406 33.632812 1.804688 33.632812 " fill-opacity="1" fill-rule="nonzero"/><path fill="#f7cc33" d="M 3.953125 36.316406 C 4.542969 36.316406 5.023438 36.796875 5.023438 37.390625 C 5.023438 37.980469 4.542969 38.460938 3.953125 38.460938 C 3.359375 38.460938 2.878906 37.980469 2.878906 37.390625 C 2.878906 36.796875 3.359375 36.316406 3.953125 36.316406 " fill-opacity="1" fill-rule="nonzero"/><path fill="#100f0d" d="M 3.953125 36.855469 C 3.65625 36.855469 3.414062 37.09375 3.414062 37.390625 C 3.414062 37.6875 3.65625 37.925781 3.953125 37.925781 C 4.246094 37.925781 4.488281 37.6875 4.488281 37.390625 C 4.488281 37.09375 4.246094 36.855469 3.953125 36.855469 Z M 3.953125 39 C 3.0625 39 2.339844 38.277344 2.339844 37.390625 C 2.339844 36.5 3.0625 35.777344 3.953125 35.777344 C 4.839844 35.777344 5.5625 36.5 5.5625 37.390625 C 5.5625 38.277344 4.839844 39 3.953125 39 " fill-opacity="1" fill-rule="nonzero"/><path fill="#100f0d" d="M 32.386719 32.5625 L 23.265625 32.5625 L 23.265625 31.488281 L 32.386719 31.488281 L 32.386719 32.5625 " fill-opacity="1" fill-rule="nonzero"/><path fill="#100f0d" d="M 30.242188 37.925781 L 27.019531 37.925781 L 27.019531 34.707031 L 21.121094 34.707031 L 21.121094 33.632812 L 28.097656 33.632812 L 28.097656 36.855469 L 30.242188 36.855469 L 30.242188 37.925781 " fill-opacity="1" fill-rule="nonzero"/><path fill="#f7cc33" d="M 32.921875 33.097656 C 32.332031 33.097656 31.851562 32.617188 31.851562 32.023438 C 31.851562 31.433594 32.332031 30.949219 32.921875 30.949219 C 33.515625 30.949219 33.996094 31.433594 33.996094 32.023438 C 33.996094 32.617188 33.515625 33.097656 32.921875 33.097656 " fill-opacity="1" fill-rule="nonzero"/><g clip-path="url(#ce16132d5c)"><path fill="#100f0d" d="M 32.921875 31.488281 C 32.628906 31.488281 32.386719 31.730469 32.386719 32.023438 C 32.386719 32.320312 32.628906 32.5625 32.921875 32.5625 C 33.21875 32.5625 33.460938 32.320312 33.460938 32.023438 C 33.460938 31.730469 33.21875 31.488281 32.921875 31.488281 Z M 32.921875 33.632812 C 32.035156 33.632812 31.3125 32.910156 31.3125 32.023438 C 31.3125 31.136719 32.035156 30.414062 32.921875 30.414062 C 33.8125 30.414062 34.535156 31.136719 34.535156 32.023438 C 34.535156 32.910156 33.8125 33.632812 32.921875 33.632812 " fill-opacity="1" fill-rule="nonzero"/></g><path fill="#f7cc33" d="M 30.777344 38.460938 C 30.183594 38.460938 29.703125 37.980469 29.703125 37.390625 C 29.703125 36.796875 30.183594 36.316406 30.777344 36.316406 C 31.371094 36.316406 31.851562 36.796875 31.851562 37.390625 C 31.851562 37.980469 31.371094 38.460938 30.777344 38.460938 " fill-opacity="1" fill-rule="nonzero"/><path fill="#100f0d" d="M 30.777344 36.855469 C 30.480469 36.855469 30.242188 37.09375 30.242188 37.390625 C 30.242188 37.6875 30.480469 37.925781 30.777344 37.925781 C 31.074219 37.925781 31.3125 37.6875 31.3125 37.390625 C 31.3125 37.09375 31.074219 36.855469 30.777344 36.855469 Z M 30.777344 39 C 29.890625 39 29.167969 38.277344 29.167969 37.390625 C 29.167969 36.5 29.890625 35.777344 30.777344 35.777344 C 31.664062 35.777344 32.386719 36.5 32.386719 37.390625 C 32.386719 38.277344 31.664062 39 30.777344 39 " fill-opacity="1" fill-rule="nonzero"/><path fill="#aaa9a8" d="M 23.804688 28.804688 C 23.804688 29.992188 20.921875 30.949219 17.363281 30.949219 C 13.808594 30.949219 10.925781 29.992188 10.925781 28.804688 L 10.925781 26.125 L 23.804688 26.125 L 23.804688 28.804688 " fill-opacity="1" fill-rule="nonzero"/><path fill="#100f0d" d="M 11.460938 26.660156 L 11.460938 28.804688 C 11.460938 29.351562 13.546875 30.414062 17.363281 30.414062 C 21.183594 30.414062 23.265625 29.351562 23.265625 28.804688 L 23.265625 26.660156 Z M 17.363281 31.488281 C 13.898438 31.488281 10.390625 30.566406 10.390625 28.804688 L 10.390625 25.585938 L 24.339844 25.585938 L 24.339844 28.804688 C 24.339844 30.566406 20.832031 31.488281 17.363281 31.488281 " fill-opacity="1" fill-rule="nonzero"/><path fill="#aaa9a8" d="M 23.804688 26.125 C 23.804688 27.308594 20.921875 28.269531 17.363281 28.269531 C 13.808594 28.269531 10.925781 27.308594 10.925781 26.125 L 10.925781 23.441406 L 23.804688 23.441406 L 23.804688 26.125 " fill-opacity="1" fill-rule="nonzero"/><path fill="#100f0d" d="M 11.460938 23.976562 L 11.460938 26.125 C 11.460938 26.667969 13.546875 27.730469 17.363281 27.730469 C 21.183594 27.730469 23.265625 26.667969 23.265625 26.125 L 23.265625 23.976562 Z M 17.363281 28.804688 C 13.898438 28.804688 10.390625 27.882812 10.390625 26.125 L 10.390625 22.902344 L 24.339844 22.902344 L 24.339844 26.125 C 24.339844 27.882812 20.832031 28.804688 17.363281 28.804688 " fill-opacity="1" fill-rule="nonzero"/><path fill="#aaa9a8" d="M 23.804688 23.441406 C 23.804688 24.625 20.921875 25.585938 17.363281 25.585938 C 13.808594 25.585938 10.925781 24.625 10.925781 23.441406 L 10.925781 20.757812 L 23.804688 20.757812 L 23.804688 23.441406 " fill-opacity="1" fill-rule="nonzero"/><path fill="#100f0d" d="M 11.460938 21.292969 L 11.460938 23.441406 C 11.460938 23.984375 13.546875 25.050781 17.363281 25.050781 C 21.183594 25.050781 23.265625 23.984375 23.265625 23.441406 L 23.265625 21.292969 Z M 17.363281 26.125 C 13.898438 26.125 10.390625 25.203125 10.390625 23.441406 L 10.390625 20.21875 L 24.339844 20.21875 L 24.339844 23.441406 C 24.339844 25.203125 20.832031 26.125 17.363281 26.125 " fill-opacity="1" fill-rule="nonzero"/><path fill="#ffffff" d="M 23.804688 20.757812 C 23.804688 21.941406 20.921875 22.902344 17.363281 22.902344 C 13.808594 22.902344 10.925781 21.941406 10.925781 20.757812 C 10.925781 19.570312 13.808594 18.609375 17.363281 18.609375 C 20.921875 18.609375 23.804688 19.570312 23.804688 20.757812 " fill-opacity="1" fill-rule="nonzero"/><path fill="#100f0d" d="M 17.363281 19.148438 C 13.546875 19.148438 11.460938 20.210938 11.460938 20.757812 C 11.460938 21.304688 13.546875 22.367188 17.363281 22.367188 C 21.183594 22.367188 23.265625 21.304688 23.265625 20.757812 C 23.265625 20.210938 21.183594 19.148438 17.363281 19.148438 Z M 17.363281 23.441406 C 13.898438 23.441406 10.390625 22.519531 10.390625 20.757812 C 10.390625 18.996094 13.898438 18.074219 17.363281 18.074219 C 20.832031 18.074219 24.339844 18.996094 24.339844 20.757812 C 24.339844 22.519531 20.832031 23.441406 17.363281 23.441406 " fill-opacity="1" fill-rule="nonzero"/><path fill="#5f87cd" d="M 8.511719 20.886719 C 8.203125 20.671875 7.863281 20.496094 7.503906 20.367188 L 7.503906 19.148438 L 4.605469 19.148438 L 4.605469 20.367188 C 4.097656 20.550781 3.636719 20.816406 3.234375 21.164062 L 2.179688 20.550781 L 0.730469 23.066406 L 1.785156 23.675781 C 1.738281 23.933594 1.710938 24.199219 1.710938 24.46875 C 1.710938 24.742188 1.738281 25.007812 1.785156 25.265625 L 0.730469 25.875 L 2.179688 28.390625 L 3.234375 27.777344 C 3.636719 28.125 4.097656 28.394531 4.605469 28.570312 L 4.605469 29.792969 L 7.503906 29.792969 L 7.503906 28.570312 C 7.863281 28.445312 8.203125 28.269531 8.511719 28.054688 L 8.511719 20.886719 " fill-opacity="1" fill-rule="nonzero"/><path fill="#100f0d" d="M 8.039062 30.332031 L 4.070312 30.332031 L 4.070312 28.933594 C 3.757812 28.796875 3.464844 28.625 3.1875 28.425781 L 1.984375 29.125 L 0 25.679688 L 1.199219 24.984375 C 1.183594 24.808594 1.171875 24.640625 1.171875 24.46875 C 1.171875 24.300781 1.183594 24.132812 1.199219 23.957031 L 0 23.261719 L 1.984375 19.816406 L 3.1875 20.515625 C 3.464844 20.316406 3.757812 20.144531 4.070312 20.007812 L 4.070312 18.609375 L 8.039062 18.609375 L 8.039062 20.007812 C 8.308594 20.125 8.566406 20.273438 8.816406 20.445312 L 9.257812 20.746094 L 8.648438 21.632812 L 8.207031 21.328125 C 7.929688 21.136719 7.632812 20.984375 7.324219 20.875 L 6.964844 20.746094 L 6.964844 19.683594 L 5.144531 19.683594 L 5.144531 20.746094 L 4.785156 20.875 C 4.34375 21.03125 3.9375 21.265625 3.585938 21.570312 L 3.292969 21.816406 L 2.375 21.285156 L 1.464844 22.871094 L 2.382812 23.402344 L 2.3125 23.773438 C 2.269531 24.015625 2.246094 24.246094 2.246094 24.46875 C 2.246094 24.695312 2.269531 24.921875 2.3125 25.167969 L 2.382812 25.539062 L 1.464844 26.070312 L 2.375 27.65625 L 3.292969 27.125 L 3.585938 27.371094 C 3.9375 27.675781 4.34375 27.910156 4.785156 28.066406 L 5.144531 28.195312 L 5.144531 29.257812 L 6.964844 29.257812 L 6.964844 28.195312 L 7.324219 28.066406 C 7.632812 27.957031 7.929688 27.804688 8.207031 27.613281 L 8.648438 27.308594 L 9.257812 28.195312 L 8.816406 28.496094 C 8.566406 28.667969 8.308594 28.8125 8.039062 28.933594 L 8.039062 30.332031 " fill-opacity="1" fill-rule="nonzero"/><path fill="#100f0d" d="M 7.707031 25.050781 L 4.488281 25.050781 L 4.488281 23.976562 L 7.707031 23.976562 L 7.707031 25.050781 " fill-opacity="1" fill-rule="nonzero"/><path fill="#100f0d" d="M 6.632812 26.125 L 5.5625 26.125 L 5.5625 22.902344 L 6.632812 22.902344 L 6.632812 26.125 " fill-opacity="1" fill-rule="nonzero"/><path fill="#84ce3f" d="M 25.949219 19.148438 L 31.851562 19.148438 L 31.851562 21.292969 L 25.949219 21.292969 L 25.949219 19.148438 " fill-opacity="1" fill-rule="nonzero"/><path fill="#100f0d" d="M 32.386719 21.832031 L 25.414062 21.832031 L 25.414062 20.757812 L 31.3125 20.757812 L 31.3125 19.683594 L 25.414062 19.683594 L 25.414062 18.609375 L 32.386719 18.609375 L 32.386719 21.832031 " fill-opacity="1" fill-rule="nonzero"/><path fill="#ffffff" d="M 25.949219 21.292969 L 33.996094 21.292969 L 33.996094 28.804688 L 25.949219 28.804688 L 25.949219 21.292969 " fill-opacity="1" fill-rule="nonzero"/><g clip-path="url(#d4cd2f4c60)"><path fill="#100f0d" d="M 34.535156 29.339844 L 25.414062 29.339844 L 25.414062 28.269531 L 33.460938 28.269531 L 33.460938 21.832031 L 25.414062 21.832031 L 25.414062 20.757812 L 34.535156 20.757812 L 34.535156 29.339844 " fill-opacity="1" fill-rule="nonzero"/></g><path fill="#aaa9a8" d="M 33.996094 21.292969 L 31.851562 21.292969 L 31.851562 19.148438 L 33.996094 19.148438 L 33.996094 21.292969 " fill-opacity="1" fill-rule="nonzero"/><g clip-path="url(#26d17308d5)"><path fill="#100f0d" d="M 32.386719 20.757812 L 33.460938 20.757812 L 33.460938 19.683594 L 32.386719 19.683594 Z M 34.535156 21.832031 L 31.3125 21.832031 L 31.3125 18.609375 L 34.535156 18.609375 L 34.535156 21.832031 " fill-opacity="1" fill-rule="nonzero"/></g></svg>