<svg xmlns="http://www.w3.org/2000/svg" xmlns:xlink="http://www.w3.org/1999/xlink" width="47" zoomAndPan="magnify" viewBox="0 0 35.25 44.999999" height="60" preserveAspectRatio="xMidYMid meet" version="1.0"><defs><clipPath id="e7519448c7"><path d="M 0 0.46875 L 34.515625 0.46875 L 34.515625 44.53125 L 0 44.53125 Z M 0 0.46875 " clip-rule="nonzero"/></clipPath><clipPath id="d014debae4"><path d="M 0 3.921875 L 34.515625 3.921875 L 34.515625 38.4375 L 0 38.4375 Z M 0 3.921875 " clip-rule="nonzero"/></clipPath></defs><g clip-path="url(#e7519448c7)"><path fill="#ffffff" d="M 0 0.46875 L 34.515625 0.46875 L 34.515625 44.53125 L 0 44.53125 Z M 0 0.46875 " fill-opacity="1" fill-rule="nonzero"/><path fill="#ffffff" d="M 0 0.46875 L 34.515625 0.46875 L 34.515625 44.53125 L 0 44.53125 Z M 0 0.46875 " fill-opacity="1" fill-rule="nonzero"/></g><path fill="#000000" d="M 15.894531 9.601562 L 18.65625 9.601562 C 18.875 9.601562 19.058594 9.417969 19.058594 9.199219 L 19.058594 8.652344 C 19.058594 8.214844 18.804688 7.816406 18.402344 7.671875 L 18.074219 7.523438 C 17.859375 7.742188 17.566406 7.851562 17.238281 7.851562 C 16.914062 7.851562 16.65625 7.742188 16.402344 7.523438 L 16.074219 7.671875 C 15.675781 7.851562 15.421875 8.253906 15.421875 8.652344 L 15.421875 9.199219 C 15.496094 9.417969 15.675781 9.601562 15.894531 9.601562 Z M 15.894531 9.601562 " fill-opacity="1" fill-rule="nonzero"/><path fill="#000000" d="M 18.183594 6.394531 C 18.183594 6.535156 18.160156 6.671875 18.117188 6.800781 C 18.070312 6.929688 18.003906 7.042969 17.917969 7.144531 C 17.832031 7.242188 17.734375 7.316406 17.625 7.371094 C 17.511719 7.425781 17.398438 7.453125 17.277344 7.453125 C 17.15625 7.453125 17.039062 7.425781 16.929688 7.371094 C 16.816406 7.316406 16.71875 7.242188 16.632812 7.144531 C 16.546875 7.042969 16.480469 6.929688 16.4375 6.800781 C 16.390625 6.671875 16.367188 6.535156 16.367188 6.394531 C 16.367188 6.257812 16.390625 6.121094 16.4375 5.992188 C 16.480469 5.863281 16.546875 5.75 16.632812 5.648438 C 16.71875 5.550781 16.816406 5.472656 16.929688 5.421875 C 17.039062 5.367188 17.15625 5.339844 17.277344 5.339844 C 17.398438 5.339844 17.511719 5.367188 17.625 5.421875 C 17.734375 5.472656 17.832031 5.550781 17.917969 5.648438 C 18.003906 5.75 18.070312 5.863281 18.117188 5.992188 C 18.160156 6.121094 18.183594 6.257812 18.183594 6.394531 Z M 18.183594 6.394531 " fill-opacity="1" fill-rule="nonzero"/><path fill="#000000" d="M 9.53125 13.132812 L 9.53125 12.585938 C 9.53125 12.148438 9.277344 11.75 8.875 11.601562 L 8.550781 11.492188 C 8.332031 11.710938 8.039062 11.820312 7.714844 11.820312 C 7.386719 11.820312 7.132812 11.710938 6.875 11.492188 L 6.550781 11.640625 C 6.148438 11.820312 5.894531 12.222656 5.894531 12.621094 L 5.894531 13.167969 C 5.894531 13.386719 6.078125 13.570312 6.296875 13.570312 L 9.058594 13.570312 C 9.347656 13.53125 9.53125 13.386719 9.53125 13.132812 Z M 9.53125 13.132812 " fill-opacity="1" fill-rule="nonzero"/><path fill="#000000" d="M 7.75 11.421875 C 8.257812 11.421875 8.660156 10.945312 8.660156 10.363281 C 8.660156 9.78125 8.257812 9.308594 7.75 9.308594 C 7.242188 9.308594 6.839844 9.78125 6.839844 10.363281 C 6.839844 10.945312 7.242188 11.421875 7.75 11.421875 Z M 7.75 11.421875 " fill-opacity="1" fill-rule="nonzero"/><path fill="#000000" d="M 25.421875 13.53125 L 28.183594 13.53125 C 28.402344 13.53125 28.585938 13.351562 28.585938 13.132812 L 28.585938 12.585938 C 28.585938 12.148438 28.328125 11.75 27.929688 11.601562 L 27.601562 11.457031 C 27.382812 11.675781 27.09375 11.785156 26.765625 11.785156 C 26.4375 11.785156 26.183594 11.675781 25.929688 11.457031 L 25.601562 11.601562 C 25.203125 11.785156 24.949219 12.183594 24.949219 12.585938 L 24.949219 13.132812 C 25.019531 13.386719 25.203125 13.53125 25.421875 13.53125 Z M 25.421875 13.53125 " fill-opacity="1" fill-rule="nonzero"/><path fill="#000000" d="M 26.800781 11.421875 C 27.3125 11.421875 27.710938 10.945312 27.710938 10.363281 C 27.710938 9.78125 27.3125 9.308594 26.800781 9.308594 C 26.292969 9.308594 25.894531 9.78125 25.894531 10.363281 C 25.929688 10.945312 26.328125 11.421875 26.800781 11.421875 Z M 26.800781 11.421875 " fill-opacity="1" fill-rule="nonzero"/><path fill="#000000" d="M 4.914062 21.179688 L 4.585938 21.03125 C 4.367188 21.25 4.078125 21.359375 3.75 21.359375 C 3.421875 21.359375 3.167969 21.25 2.914062 21.03125 L 2.660156 21.179688 C 2.257812 21.359375 2.003906 21.722656 2.003906 22.160156 L 2.003906 22.707031 C 2.003906 22.925781 2.1875 23.109375 2.40625 23.109375 L 5.167969 23.109375 C 5.386719 23.109375 5.566406 22.925781 5.566406 22.707031 L 5.566406 22.160156 C 5.566406 21.722656 5.3125 21.359375 4.914062 21.179688 Z M 4.914062 21.179688 " fill-opacity="1" fill-rule="nonzero"/><path fill="#000000" d="M 3.785156 20.960938 C 4.296875 20.960938 4.695312 20.488281 4.695312 19.902344 C 4.695312 19.320312 4.296875 18.847656 3.785156 18.847656 C 3.277344 18.847656 2.878906 19.320312 2.878906 19.902344 C 2.914062 20.488281 3.3125 20.960938 3.785156 20.960938 Z M 3.785156 20.960938 " fill-opacity="1" fill-rule="nonzero"/><path fill="#000000" d="M 18.402344 34.6875 L 18.074219 34.539062 C 17.859375 34.757812 17.566406 34.867188 17.238281 34.867188 C 16.914062 34.867188 16.65625 34.757812 16.402344 34.539062 L 16.074219 34.6875 C 15.675781 34.867188 15.421875 35.269531 15.421875 35.667969 L 15.421875 36.214844 C 15.421875 36.433594 15.601562 36.617188 15.820312 36.617188 L 18.585938 36.617188 C 18.804688 36.617188 18.984375 36.433594 18.984375 36.214844 L 18.984375 35.667969 C 19.058594 35.230469 18.804688 34.867188 18.402344 34.6875 Z M 18.402344 34.6875 " fill-opacity="1" fill-rule="nonzero"/><path fill="#000000" d="M 17.277344 34.46875 C 17.785156 34.46875 18.183594 33.992188 18.183594 33.410156 C 18.183594 32.828125 17.785156 32.355469 17.277344 32.355469 C 16.765625 32.355469 16.367188 32.828125 16.367188 33.410156 C 16.367188 33.992188 16.765625 34.46875 17.277344 34.46875 Z M 17.277344 34.46875 " fill-opacity="1" fill-rule="nonzero"/><path fill="#000000" d="M 8.875 30.71875 L 8.550781 30.570312 C 8.332031 30.789062 8.039062 30.898438 7.714844 30.898438 C 7.386719 30.898438 7.132812 30.789062 6.875 30.570312 L 6.550781 30.71875 C 6.148438 30.898438 5.894531 31.300781 5.894531 31.699219 L 5.894531 32.246094 C 5.894531 32.464844 6.078125 32.648438 6.296875 32.648438 L 9.058594 32.648438 C 9.277344 32.648438 9.457031 32.464844 9.457031 32.246094 L 9.457031 31.738281 C 9.53125 31.300781 9.277344 30.898438 8.875 30.71875 Z M 8.875 30.71875 " fill-opacity="1" fill-rule="nonzero"/><path fill="#000000" d="M 7.75 30.5 C 8.257812 30.5 8.660156 30.027344 8.660156 29.441406 C 8.660156 28.859375 8.257812 28.386719 7.75 28.386719 C 7.242188 28.386719 6.839844 28.859375 6.839844 29.441406 C 6.839844 30.027344 7.242188 30.5 7.75 30.5 Z M 7.75 30.5 " fill-opacity="1" fill-rule="nonzero"/><path fill="#000000" d="M 26.800781 30.898438 C 26.476562 30.898438 26.21875 30.789062 25.964844 30.570312 L 25.640625 30.71875 C 25.238281 30.898438 24.984375 31.300781 24.984375 31.699219 L 24.984375 32.246094 C 24.984375 32.464844 25.167969 32.648438 25.382812 32.648438 L 28.183594 32.648438 C 28.402344 32.648438 28.585938 32.464844 28.585938 32.246094 L 28.585938 31.738281 C 28.585938 31.300781 28.328125 30.898438 27.929688 30.753906 L 27.601562 30.609375 C 27.421875 30.789062 27.128906 30.898438 26.800781 30.898438 Z M 26.800781 30.898438 " fill-opacity="1" fill-rule="nonzero"/><path fill="#000000" d="M 25.929688 29.480469 C 25.929688 30.0625 26.328125 30.535156 26.839844 30.535156 C 27.347656 30.535156 27.746094 30.0625 27.746094 29.480469 C 27.746094 28.898438 27.347656 28.421875 26.839844 28.421875 C 26.328125 28.421875 25.929688 28.898438 25.929688 29.480469 Z M 25.929688 29.480469 " fill-opacity="1" fill-rule="nonzero"/><g clip-path="url(#d014debae4)"><path fill="#000000" d="M 30.765625 17.390625 C 30.4375 17.390625 30.148438 17.429688 29.820312 17.5 L 28.839844 14.804688 C 29.894531 14.113281 30.582031 12.949219 30.582031 11.640625 C 30.582031 9.5625 28.875 7.851562 26.800781 7.851562 C 25.421875 7.851562 24.222656 8.582031 23.566406 9.710938 L 20.984375 8.507812 C 21.058594 8.253906 21.058594 8 21.058594 7.707031 C 21.058594 5.632812 19.347656 3.921875 17.277344 3.921875 C 15.203125 3.921875 13.496094 5.59375 13.496094 7.671875 C 13.496094 8 13.53125 8.289062 13.605469 8.617188 L 10.914062 9.601562 C 10.222656 8.542969 9.058594 7.851562 7.75 7.851562 C 5.675781 7.851562 3.96875 9.5625 3.96875 11.640625 C 3.96875 13.023438 4.695312 14.222656 5.824219 14.878906 L 4.621094 17.464844 C 4.367188 17.390625 4.113281 17.390625 3.824219 17.390625 C 1.714844 17.390625 0.00390625 19.101562 0.00390625 21.179688 C 0.00390625 23.253906 1.714844 24.964844 3.785156 24.964844 C 4.113281 24.964844 4.40625 24.929688 4.730469 24.855469 L 5.714844 27.550781 C 4.660156 28.242188 3.96875 29.40625 3.96875 30.71875 C 3.96875 32.792969 5.675781 34.503906 7.75 34.503906 C 9.132812 34.503906 10.332031 33.777344 10.984375 32.648438 L 13.566406 33.847656 C 13.496094 34.101562 13.496094 34.359375 13.496094 34.648438 C 13.496094 36.726562 15.203125 38.4375 17.277344 38.4375 C 19.347656 38.4375 21.058594 36.726562 21.058594 34.648438 C 21.058594 34.320312 21.019531 34.03125 20.949219 33.703125 L 23.640625 32.71875 C 24.328125 33.777344 25.492188 34.46875 26.800781 34.46875 C 28.875 34.46875 30.582031 32.757812 30.582031 30.679688 C 30.582031 29.296875 29.855469 28.097656 28.730469 27.441406 L 29.929688 24.855469 C 30.183594 24.929688 30.4375 24.929688 30.730469 24.929688 C 32.800781 24.929688 34.511719 23.21875 34.511719 21.140625 C 34.511719 19.066406 32.839844 17.390625 30.765625 17.390625 Z M 29.273438 17.683594 C 28.039062 18.191406 27.128906 19.394531 26.984375 20.777344 L 20.65625 18.15625 L 24.328125 14.480469 C 24.984375 15.0625 25.855469 15.390625 26.800781 15.390625 C 27.347656 15.390625 27.855469 15.28125 28.328125 15.0625 Z M 17.566406 20.488281 L 17.566406 17.5 L 19.675781 18.375 Z M 16.984375 20.488281 L 14.875 18.375 L 16.984375 17.5 Z M 16.984375 21.871094 L 16.984375 24.855469 L 14.875 23.980469 Z M 17.566406 21.871094 L 19.675781 23.980469 L 17.566406 24.855469 Z M 20.257812 18.59375 L 25.746094 20.886719 L 17.96875 20.886719 Z M 20.113281 17.9375 L 18.039062 17.0625 L 23.058594 14.988281 Z M 14.441406 17.9375 L 11.496094 14.988281 L 16.546875 17.0625 Z M 16.585938 20.886719 L 8.804688 20.886719 L 14.292969 18.59375 Z M 16.585938 21.46875 L 14.292969 23.761719 L 8.804688 21.46875 Z M 14.441406 24.417969 L 16.511719 25.292969 L 11.496094 27.367188 Z M 20.113281 24.417969 L 23.058594 27.367188 L 18.003906 25.292969 Z M 17.96875 21.46875 L 25.746094 21.46875 L 20.257812 23.761719 Z M 26.800781 8.398438 C 28.585938 8.398438 30.003906 9.855469 30.003906 11.601562 C 30.003906 13.386719 28.546875 14.804688 26.800781 14.804688 C 25.019531 14.804688 23.601562 13.351562 23.601562 11.601562 C 23.601562 9.855469 25.058594 8.398438 26.800781 8.398438 Z M 23.3125 10.21875 C 23.128906 10.65625 23.019531 11.128906 23.019531 11.640625 C 23.019531 12.550781 23.347656 13.386719 23.855469 14.042969 L 17.53125 16.664062 L 17.53125 11.457031 C 19.019531 11.347656 20.257812 10.363281 20.765625 9.054688 Z M 17.277344 4.464844 C 19.058594 4.464844 20.476562 5.921875 20.476562 7.671875 C 20.476562 9.453125 19.019531 10.875 17.277344 10.875 C 15.53125 10.875 14.078125 9.417969 14.078125 7.671875 C 14.078125 5.886719 15.496094 4.464844 17.277344 4.464844 Z M 13.785156 9.164062 C 14.332031 10.4375 15.53125 11.347656 16.984375 11.457031 L 16.984375 16.664062 L 10.660156 14.042969 C 11.203125 13.386719 11.496094 12.550781 11.496094 11.640625 C 11.496094 11.09375 11.386719 10.582031 11.167969 10.109375 Z M 4.511719 11.640625 C 4.511719 9.855469 5.96875 8.433594 7.714844 8.433594 C 9.496094 8.433594 10.914062 9.890625 10.914062 11.640625 C 10.914062 13.421875 9.457031 14.84375 7.714844 14.84375 C 5.96875 14.84375 4.511719 13.386719 4.511719 11.640625 Z M 6.332031 15.132812 C 6.769531 15.316406 7.242188 15.425781 7.75 15.425781 C 8.695312 15.425781 9.53125 15.0625 10.222656 14.515625 L 13.894531 18.191406 L 7.566406 20.8125 C 7.421875 19.359375 6.476562 18.15625 5.167969 17.683594 Z M 0.585938 21.179688 C 0.585938 19.394531 2.039062 17.972656 3.785156 17.972656 C 5.53125 17.972656 6.984375 19.429688 6.984375 21.179688 C 6.984375 22.925781 5.53125 24.382812 3.785156 24.382812 C 2.039062 24.382812 0.585938 22.960938 0.585938 21.179688 Z M 5.277344 24.671875 C 6.511719 24.128906 7.421875 22.960938 7.566406 21.578125 L 13.894531 24.199219 L 10.1875 27.839844 C 9.53125 27.257812 8.660156 26.929688 7.714844 26.929688 C 7.167969 26.929688 6.660156 27.039062 6.1875 27.257812 Z M 7.75 33.957031 C 5.96875 33.957031 4.550781 32.5 4.550781 30.753906 C 4.550781 28.96875 6.003906 27.550781 7.75 27.550781 C 9.53125 27.550781 10.949219 29.007812 10.949219 30.753906 C 10.949219 32.5 9.496094 33.957031 7.75 33.957031 Z M 11.238281 32.136719 C 11.421875 31.699219 11.53125 31.226562 11.53125 30.71875 C 11.53125 29.808594 11.203125 28.96875 10.695312 28.3125 L 17.019531 25.691406 L 17.019531 30.898438 C 15.53125 31.007812 14.292969 31.992188 13.785156 33.300781 Z M 17.277344 37.890625 C 15.496094 37.890625 14.078125 36.433594 14.078125 34.6875 C 14.078125 32.902344 15.53125 31.480469 17.277344 31.480469 C 19.058594 31.480469 20.476562 32.9375 20.476562 34.6875 C 20.476562 36.46875 19.058594 37.890625 17.277344 37.890625 Z M 20.765625 33.191406 C 20.222656 31.917969 19.019531 31.007812 17.566406 30.898438 L 17.566406 25.730469 L 23.894531 28.351562 C 23.347656 29.007812 23.058594 29.84375 23.058594 30.753906 C 23.058594 31.300781 23.167969 31.808594 23.382812 32.28125 Z M 30.039062 30.71875 C 30.039062 32.5 28.585938 33.921875 26.839844 33.921875 C 25.058594 33.921875 23.640625 32.464844 23.640625 30.71875 C 23.640625 28.933594 25.09375 27.511719 26.839844 27.511719 C 28.585938 27.511719 30.039062 28.96875 30.039062 30.71875 Z M 28.21875 27.222656 C 27.785156 27.039062 27.3125 26.929688 26.800781 26.929688 C 25.855469 26.929688 24.984375 27.292969 24.328125 27.839844 L 20.695312 24.199219 L 27.019531 21.578125 C 27.167969 23.035156 28.113281 24.238281 29.421875 24.710938 Z M 30.765625 24.382812 C 28.984375 24.382812 27.566406 22.925781 27.566406 21.179688 C 27.566406 19.394531 29.019531 17.972656 30.765625 17.972656 C 32.546875 17.972656 33.964844 19.429688 33.964844 21.179688 C 33.964844 22.960938 32.546875 24.382812 30.765625 24.382812 Z M 30.765625 24.382812 " fill-opacity="1" fill-rule="nonzero"/></g><path fill="#000000" d="M 31.894531 21.179688 L 31.566406 21.03125 C 31.347656 21.25 31.054688 21.359375 30.730469 21.359375 C 30.402344 21.359375 30.148438 21.25 29.894531 21.03125 L 29.636719 21.179688 C 29.238281 21.359375 28.984375 21.761719 28.984375 22.160156 L 28.984375 22.707031 C 28.984375 22.925781 29.164062 23.109375 29.382812 23.109375 L 32.148438 23.109375 C 32.367188 23.109375 32.546875 22.925781 32.546875 22.707031 L 32.546875 22.160156 C 32.546875 21.722656 32.292969 21.359375 31.894531 21.179688 Z M 31.894531 21.179688 " fill-opacity="1" fill-rule="nonzero"/><path fill="#000000" d="M 30.765625 20.960938 C 31.273438 20.960938 31.675781 20.488281 31.675781 19.902344 C 31.675781 19.320312 31.273438 18.847656 30.765625 18.847656 C 30.257812 18.847656 29.855469 19.320312 29.855469 19.902344 C 29.855469 20.488281 30.257812 20.960938 30.765625 20.960938 Z M 30.765625 20.960938 " fill-opacity="1" fill-rule="nonzero"/></svg>