<svg xmlns="http://www.w3.org/2000/svg" xmlns:xlink="http://www.w3.org/1999/xlink" width="47" zoomAndPan="magnify" viewBox="0 0 35.25 44.999999" height="60" preserveAspectRatio="xMidYMid meet" version="1.0"><defs><clipPath id="d7367abbc0"><path d="M 0 0.46875 L 34.515625 0.46875 L 34.515625 44.53125 L 0 44.53125 Z M 0 0.46875 " clip-rule="nonzero"/></clipPath><clipPath id="d4f9e3bcea"><path d="M 28.320312 26.476562 L 34.515625 26.476562 L 34.515625 37.300781 L 28.320312 37.300781 Z M 28.320312 26.476562 " clip-rule="nonzero"/></clipPath><clipPath id="c9d68addf7"><path d="M 11 3.921875 L 24 3.921875 L 24 11 L 11 11 Z M 11 3.921875 " clip-rule="nonzero"/></clipPath><clipPath id="a7a02a1b8b"><path d="M 12.390625 35.839844 L 22.125 35.839844 L 22.125 39.878906 L 12.390625 39.878906 Z M 12.390625 35.839844 " clip-rule="nonzero"/></clipPath></defs><g clip-path="url(#d7367abbc0)"><path fill="#ffffff" d="M 0 0.46875 L 34.515625 0.46875 L 34.515625 44.53125 L 0 44.53125 Z M 0 0.46875 " fill-opacity="1" fill-rule="nonzero"/><path fill="#ffffff" d="M 0 0.46875 L 34.515625 0.46875 L 34.515625 44.53125 L 0 44.53125 Z M 0 0.46875 " fill-opacity="1" fill-rule="nonzero"/></g><path fill="#000000" d="M 6.125 30.066406 L 6.125 37.078125 L 0 33.574219 L 0 26.5625 L 6.125 30.066406 " fill-opacity="1" fill-rule="nonzero"/><path fill="#000000" d="M 14.109375 26.5625 L 14.109375 33.574219 L 7.988281 37.078125 L 7.988281 30.066406 L 14.109375 26.5625 " fill-opacity="1" fill-rule="nonzero"/><path fill="#000000" d="M 13.179688 24.960938 L 7.054688 28.46875 L 0.929688 24.960938 L 7.054688 21.453125 L 13.179688 24.960938 " fill-opacity="1" fill-rule="nonzero"/><path fill="#000000" d="M 26.542969 30.066406 L 26.542969 37.078125 L 20.417969 33.574219 L 20.417969 26.5625 L 26.542969 30.066406 " fill-opacity="1" fill-rule="nonzero"/><g clip-path="url(#d4f9e3bcea)"><path fill="#000000" d="M 34.53125 26.5625 L 34.53125 33.574219 L 28.40625 37.078125 L 28.40625 30.066406 L 34.53125 26.5625 " fill-opacity="1" fill-rule="nonzero"/></g><path fill="#000000" d="M 33.597656 24.960938 L 27.476562 28.46875 L 21.351562 24.960938 L 27.476562 21.453125 L 33.597656 24.960938 " fill-opacity="1" fill-rule="nonzero"/><path fill="#000000" d="M 16.332031 12.5625 L 16.332031 19.574219 L 10.207031 16.070312 L 10.207031 9.054688 L 16.332031 12.5625 " fill-opacity="1" fill-rule="nonzero"/><path fill="#000000" d="M 24.320312 9.054688 L 24.320312 16.070312 L 18.195312 19.574219 L 18.195312 12.5625 L 24.320312 9.054688 " fill-opacity="1" fill-rule="nonzero"/><g clip-path="url(#c9d68addf7)"><path fill="#000000" d="M 23.386719 7.453125 L 17.265625 10.960938 L 11.140625 7.453125 L 17.265625 3.949219 L 23.386719 7.453125 " fill-opacity="1" fill-rule="nonzero"/></g><path fill="#000000" d="M 5.246094 19.773438 L 5.246094 16.730469 L 7.820312 15.257812 L 7.820312 12.574219 L 3.488281 15.054688 C 3.125 15.261719 2.902344 15.644531 2.902344 16.058594 L 2.902344 21.113281 L 5.246094 19.773438 " fill-opacity="1" fill-rule="nonzero"/><path fill="#000000" d="M 26.710938 15.257812 L 29.28125 16.730469 L 29.28125 19.773438 L 31.625 21.113281 L 31.625 16.058594 C 31.625 15.644531 31.402344 15.261719 31.039062 15.054688 L 26.710938 12.574219 L 26.710938 15.257812 " fill-opacity="1" fill-rule="nonzero"/><g clip-path="url(#a7a02a1b8b)"><path fill="#000000" d="M 19.753906 35.953125 L 17.265625 37.375 L 14.777344 35.953125 L 12.433594 37.292969 L 16.679688 39.722656 C 16.859375 39.828125 17.0625 39.878906 17.265625 39.878906 C 17.46875 39.878906 17.667969 39.828125 17.851562 39.722656 L 22.097656 37.292969 L 19.753906 35.953125 " fill-opacity="1" fill-rule="nonzero"/></g></svg>