<svg xmlns="http://www.w3.org/2000/svg" xmlns:xlink="http://www.w3.org/1999/xlink" width="47" zoomAndPan="magnify" viewBox="0 0 35.25 44.999999" height="60" preserveAspectRatio="xMidYMid meet" version="1.0"><defs><clipPath id="b16d21bc3c"><path d="M 0 0.46875 L 34.515625 0.46875 L 34.515625 44.53125 L 0 44.53125 Z M 0 0.46875 " clip-rule="nonzero"/></clipPath><clipPath id="ffc50e4788"><path d="M 5 32 L 20 32 L 20 38.589844 L 5 38.589844 Z M 5 32 " clip-rule="nonzero"/></clipPath><clipPath id="0488661d60"><path d="M 0 20 L 7 20 L 7 38.589844 L 0 38.589844 Z M 0 20 " clip-rule="nonzero"/></clipPath><clipPath id="a545400922"><path d="M 13 6.277344 L 22 6.277344 L 22 16 L 13 16 Z M 13 6.277344 " clip-rule="nonzero"/></clipPath><clipPath id="5f52ecaed0"><path d="M 0 6.277344 L 34.515625 6.277344 L 34.515625 38.589844 L 0 38.589844 Z M 0 6.277344 " clip-rule="nonzero"/></clipPath></defs><g clip-path="url(#b16d21bc3c)"><path fill="#ffffff" d="M 0 0.46875 L 34.515625 0.46875 L 34.515625 44.53125 L 0 44.53125 Z M 0 0.46875 " fill-opacity="1" fill-rule="nonzero"/><path fill="#ffffff" d="M 0 0.46875 L 34.515625 0.46875 L 34.515625 44.53125 L 0 44.53125 Z M 0 0.46875 " fill-opacity="1" fill-rule="nonzero"/></g><path fill="#bfd0d8" d="M 25.613281 18.160156 L 33.570312 30.394531 L 29.910156 30.914062 L 26.492188 31.398438 L 22.027344 32.03125 C 20.828125 32.203125 19.84375 33.183594 19.84375 34.21875 L 19.84375 34.121094 C 19.84375 33.765625 19.738281 33.449219 19.558594 33.195312 L 13.59375 20.777344 C 13.824219 19.933594 14.691406 19.234375 15.714844 19.132812 L 18.753906 18.832031 Z M 25.613281 18.160156 " fill-opacity="1" fill-rule="nonzero"/><path fill="#d2b6d7" d="M 29.910156 30.914062 L 33.570312 30.394531 C 32.882812 31.464844 32.753906 33.121094 33.570312 34.144531 L 22.027344 35.785156 C 21.0625 35.917969 20.242188 35.496094 19.953125 34.789062 C 19.882812 34.613281 19.84375 34.421875 19.84375 34.21875 C 19.84375 33.183594 20.828125 32.203125 22.027344 32.03125 L 26.492188 31.398438 Z M 29.910156 30.914062 " fill-opacity="1" fill-rule="nonzero"/><g clip-path="url(#ffc50e4788)"><path fill="#d2b6d7" d="M 19.84375 34.21875 L 19.84375 34.3125 C 19.84375 35.292969 19.050781 36.207031 18.078125 36.34375 L 5.734375 38.160156 C 7.074219 36.917969 6.671875 35.125 6.230469 34.273438 L 7.996094 34.023438 L 18.078125 32.59375 C 18.695312 32.503906 19.242188 32.75 19.558594 33.195312 C 19.738281 33.449219 19.84375 33.765625 19.84375 34.121094 Z M 19.84375 34.21875 " fill-opacity="1" fill-rule="nonzero"/></g><path fill="#bfd0d8" d="M 13.59375 20.777344 L 19.558594 33.195312 C 19.242188 32.75 18.695312 32.503906 18.078125 32.59375 L 7.996094 34.023438 L 6.230469 34.273438 L 1.042969 20.730469 L 11.765625 19.5 C 12.515625 19.394531 13.160156 19.777344 13.414062 20.40625 Z M 13.59375 20.777344 " fill-opacity="1" fill-rule="nonzero"/><g clip-path="url(#0488661d60)"><path fill="#d2b6d7" d="M 6.230469 34.273438 C 6.671875 35.125 7.074219 36.917969 5.734375 38.160156 L 0.550781 24.617188 C 1.320312 23.214844 1.394531 21.640625 1.042969 20.730469 Z M 6.230469 34.273438 " fill-opacity="1" fill-rule="nonzero"/></g><path fill="#d26caa" d="M 23.910156 20.015625 L 27.90625 21.539062 L 27.90625 21.597656 L 27.847656 21.597656 L 23.910156 23.835938 L 23.910156 28.375 L 23.933594 28.417969 L 23.910156 28.433594 L 19.914062 26.136719 L 19.914062 21.539062 Z M 23.910156 20.015625 " fill-opacity="1" fill-rule="nonzero"/><path fill="#fde266" d="M 27.90625 21.597656 L 27.90625 26.136719 L 23.933594 28.417969 L 23.910156 28.375 L 23.910156 23.835938 L 27.847656 21.597656 Z M 27.90625 21.597656 " fill-opacity="1" fill-rule="nonzero"/><g clip-path="url(#a545400922)"><path fill="#d26caa" d="M 17.0625 6.882812 L 21.058594 8.40625 L 21.058594 8.460938 L 21 8.460938 L 17.0625 10.703125 L 17.0625 15.242188 L 17.085938 15.285156 L 17.0625 15.300781 L 13.066406 13 L 13.066406 8.40625 Z M 17.0625 6.882812 " fill-opacity="1" fill-rule="nonzero"/></g><path fill="#fde266" d="M 21.058594 8.460938 L 21.058594 13 L 17.085938 15.285156 L 17.0625 15.242188 L 17.0625 10.703125 L 21 8.460938 Z M 21.058594 8.460938 " fill-opacity="1" fill-rule="nonzero"/><path fill="#d26caa" d="M 8.363281 17.902344 L 12.359375 19.425781 L 12.359375 19.480469 L 12.304688 19.480469 L 8.363281 21.722656 L 8.363281 26.261719 L 8.390625 26.304688 L 8.363281 26.320312 L 4.367188 24.019531 L 4.367188 19.425781 Z M 8.363281 17.902344 " fill-opacity="1" fill-rule="nonzero"/><path fill="#fde266" d="M 12.359375 19.480469 L 12.359375 24.019531 L 8.390625 26.304688 L 8.363281 26.261719 L 8.363281 21.722656 L 12.304688 19.480469 Z M 12.359375 19.480469 " fill-opacity="1" fill-rule="nonzero"/><g clip-path="url(#5f52ecaed0)"><path fill="#3d176e" d="M 34.070312 30.234375 C 34.058594 30.164062 34.03125 30.097656 33.992188 30.039062 L 28.410156 21.457031 C 28.40625 21.265625 28.292969 21.089844 28.117188 21.011719 L 26.035156 17.808594 C 25.933594 17.65625 25.753906 17.566406 25.566406 17.585938 L 22.316406 17.90625 L 20.496094 13.820312 L 21.308594 13.351562 C 21.464844 13.261719 21.558594 13.097656 21.558594 12.921875 L 21.558594 8.324219 C 21.558594 8.117188 21.433594 7.933594 21.238281 7.859375 L 17.242188 6.335938 C 17.128906 6.292969 17 6.292969 16.886719 6.335938 L 12.890625 7.859375 C 12.695312 7.933594 12.570312 8.117188 12.570312 8.324219 L 12.570312 12.921875 C 12.570312 13.097656 12.664062 13.261719 12.816406 13.351562 L 12.824219 13.355469 L 9.246094 17.628906 L 8.542969 17.359375 C 8.429688 17.316406 8.300781 17.316406 8.1875 17.359375 L 4.1875 18.882812 C 3.996094 18.957031 3.871094 19.140625 3.871094 19.347656 L 3.871094 19.828125 L 0.984375 20.15625 C 0.75 20.183594 0.5625 20.382812 0.546875 20.613281 C 0.519531 20.964844 0.71875 21.324219 0.738281 21.679688 C 0.792969 22.710938 0.371094 23.449219 0.0742188 24.386719 C 0 24.613281 0.128906 24.839844 0.210938 25.046875 C 0.550781 25.941406 0.894531 26.835938 1.238281 27.730469 C 2.269531 30.425781 3.300781 33.121094 4.332031 35.816406 C 4.628906 36.585938 4.921875 37.355469 5.21875 38.128906 C 5.308594 38.367188 5.445312 38.585938 5.734375 38.585938 C 5.757812 38.582031 5.785156 38.582031 5.808594 38.578125 L 18.152344 36.761719 C 18.890625 36.65625 19.546875 36.191406 19.945312 35.570312 C 20.371094 35.992188 20.988281 36.230469 21.671875 36.230469 C 21.8125 36.230469 21.957031 36.222656 22.101562 36.199219 L 33.648438 34.5625 C 34.515625 34.4375 33.507812 32.847656 33.507812 32.308594 C 33.507812 31.542969 34.070312 30.925781 34.070312 30.234375 Z M 25.363281 18.605469 L 26.535156 20.40625 L 24.089844 19.472656 C 23.976562 19.429688 23.851562 19.429688 23.734375 19.472656 L 23.121094 19.707031 L 22.746094 18.863281 Z M 22.59375 20.972656 L 23.132812 22.171875 C 23.214844 22.359375 23.398438 22.46875 23.585938 22.46875 C 23.65625 22.46875 23.722656 22.453125 23.789062 22.425781 C 24.042969 22.3125 24.15625 22.019531 24.042969 21.769531 L 23.527344 20.617188 L 23.914062 20.46875 L 26.773438 21.558594 L 23.667969 23.328125 C 23.511719 23.417969 23.414062 23.582031 23.414062 23.761719 L 23.414062 27.496094 L 20.414062 25.773438 L 20.414062 24.828125 L 21.75 25.03125 C 21.777344 25.035156 21.804688 25.035156 21.828125 25.035156 C 22.070312 25.035156 22.28125 24.859375 22.320312 24.613281 C 22.363281 24.34375 22.175781 24.089844 21.902344 24.046875 L 20.414062 23.820312 L 20.414062 21.804688 Z M 27.410156 22.339844 L 27.410156 25.773438 L 24.410156 27.496094 L 24.410156 24.046875 Z M 22.191406 20.0625 L 19.738281 20.996094 C 19.546875 21.070312 19.417969 21.253906 19.417969 21.460938 L 19.417969 23.671875 L 15.273438 23.039062 L 14.132812 20.667969 C 14.378906 20.082031 15.035156 19.621094 15.765625 19.546875 L 21.699219 18.964844 Z M 20.5625 12.632812 L 20.085938 12.90625 L 19.488281 11.570312 C 19.378906 11.320312 19.082031 11.207031 18.832031 11.316406 C 18.582031 11.429688 18.46875 11.722656 18.578125 11.972656 L 19.21875 13.40625 L 17.5625 14.359375 L 17.5625 10.910156 L 20.5625 9.203125 Z M 13.566406 8.664062 L 17.0625 7.332031 L 19.925781 8.421875 L 16.816406 10.191406 C 16.660156 10.28125 16.566406 10.445312 16.566406 10.621094 L 16.566406 14.359375 L 14.347656 13.082031 L 15.34375 11.894531 C 15.519531 11.683594 15.492188 11.371094 15.277344 11.195312 C 15.066406 11.019531 14.753906 11.046875 14.578125 11.257812 L 13.566406 12.464844 Z M 13.699219 13.859375 L 16.816406 15.648438 C 16.890625 15.695312 16.976562 15.714844 17.0625 15.714844 C 17.152344 15.714844 17.238281 15.695312 17.316406 15.648438 L 19.625 14.320312 L 21.273438 18.007812 L 15.667969 18.558594 C 14.835938 18.640625 14.078125 19.058594 13.59375 19.652344 C 13.375 19.375 13.082031 19.167969 12.753906 19.042969 C 12.699219 18.972656 12.625 18.914062 12.539062 18.882812 L 10.230469 18.003906 Z M 14.078125 22.859375 L 12.859375 22.671875 L 12.859375 20.335938 C 12.898438 20.390625 12.929688 20.449219 12.957031 20.515625 C 12.957031 20.515625 12.957031 20.519531 12.960938 20.523438 C 12.960938 20.527344 12.964844 20.535156 12.96875 20.542969 L 13.140625 20.902344 C 13.140625 20.90625 13.144531 20.90625 13.144531 20.910156 Z M 10.289062 23.285156 L 11.863281 23.523438 L 11.863281 23.65625 L 8.863281 25.382812 L 8.863281 21.933594 L 11.863281 20.226562 L 11.863281 22.519531 L 10.4375 22.304688 C 10.167969 22.261719 9.910156 22.449219 9.871094 22.71875 C 9.828125 22.992188 10.015625 23.242188 10.289062 23.285156 Z M 4.867188 19.6875 L 8.363281 18.355469 L 8.574219 18.433594 L 7.710938 19.464844 C 7.535156 19.675781 7.5625 19.988281 7.773438 20.164062 C 7.867188 20.242188 7.980469 20.28125 8.09375 20.28125 C 8.234375 20.28125 8.375 20.21875 8.476562 20.101562 L 9.558594 18.808594 L 11.226562 19.445312 L 8.117188 21.214844 C 7.960938 21.300781 7.867188 21.46875 7.867188 21.644531 L 7.867188 25.382812 L 4.867188 23.65625 Z M 5.886719 37.085938 L 1.09375 24.570312 C 1.296875 24.167969 1.441406 23.761719 1.546875 23.363281 L 5.761719 34.375 C 5.761719 34.378906 5.765625 34.382812 5.765625 34.382812 C 5.773438 34.398438 5.777344 34.414062 5.785156 34.429688 C 6.09375 35.023438 6.382812 36.132812 5.886719 37.085938 Z M 1.734375 21.070312 L 3.867188 20.828125 L 3.867188 23.945312 C 3.867188 24.121094 3.964844 24.285156 4.117188 24.375 L 8.117188 26.671875 C 8.191406 26.714844 8.277344 26.738281 8.363281 26.738281 C 8.453125 26.738281 8.539062 26.714844 8.617188 26.671875 L 12.609375 24.375 C 12.765625 24.285156 12.859375 24.121094 12.859375 23.945312 L 12.859375 23.675781 L 14.601562 23.941406 L 18.476562 32.007812 C 18.324219 32 18.167969 32.003906 18.011719 32.027344 L 7.9375 33.457031 C 7.933594 33.457031 7.929688 33.457031 7.925781 33.457031 L 6.550781 33.652344 Z M 19.351562 34.238281 C 19.351562 34.96875 18.734375 35.675781 18.007812 35.777344 L 6.832031 37.425781 C 7.292969 36.449219 7.1875 35.386719 6.929688 34.601562 L 8.050781 34.441406 C 8.058594 34.441406 8.0625 34.441406 8.066406 34.441406 L 18.152344 33.007812 C 18.558594 32.953125 18.929688 33.097656 19.148438 33.398438 C 19.148438 33.398438 19.152344 33.402344 19.152344 33.402344 C 19.152344 33.402344 19.152344 33.40625 19.15625 33.40625 C 19.15625 33.40625 19.15625 33.40625 19.15625 33.410156 C 19.28125 33.585938 19.351562 33.804688 19.351562 34.046875 Z M 19.894531 32.660156 L 15.792969 24.121094 L 19.417969 24.675781 L 19.417969 26.058594 C 19.417969 26.234375 19.511719 26.398438 19.667969 26.488281 L 23.664062 28.785156 C 23.742188 28.832031 23.828125 28.851562 23.914062 28.851562 C 24 28.851562 24.085938 28.832031 24.164062 28.785156 L 28.160156 26.488281 C 28.3125 26.398438 28.410156 26.234375 28.410156 26.058594 L 28.410156 23.285156 L 32.738281 29.9375 L 26.429688 30.832031 L 21.960938 31.464844 C 21.121094 31.585938 20.371094 32.042969 19.894531 32.660156 Z M 21.960938 35.21875 C 21.25 35.320312 20.628906 35.042969 20.421875 34.527344 C 20.371094 34.410156 20.347656 34.277344 20.347656 34.144531 C 20.347656 33.359375 21.148438 32.582031 22.101562 32.449219 L 32.738281 30.9375 C 32.453125 31.796875 32.410156 32.8125 32.777344 33.683594 Z M 21.960938 35.21875 " fill-opacity="1" fill-rule="nonzero"/></g></svg>