<svg id="Layer_1" data-name="Layer 1" xmlns="http://www.w3.org/2000/svg" viewBox="0 0 99.83 99.83"><defs><style>.cls-1{fill:#e16600;}.cls-2{fill:#ffb98a;}</style></defs><title>volley</title><path class="cls-1" d="M13.59,82.56A49,49,0,0,0,25.5,92.22,49.06,49.06,0,0,0,44.21,72.83,48.85,48.85,0,0,1,7.63,25.5h0a48.86,48.86,0,0,0,3.43,54"/><path class="cls-1" d="M72.61,43.4A48.86,48.86,0,0,1,49.92,98.75,48.83,48.83,0,0,0,98.75,49.92,49,49,0,0,0,72.61,43.4Zm0,0"/><path class="cls-2" d="M32.93,33.52a48.52,48.52,0,0,0,17,16.4,48.8,48.8,0,0,1,48.84,0A48.6,48.6,0,0,0,92.22,25.5h0a48.85,48.85,0,0,0-59.28,8Zm0,0"/><path class="cls-2" d="M44.21,72.83a48.52,48.52,0,0,0,5.71-22.91,48.58,48.58,0,0,1-17-16.39A49,49,0,0,1,25.5,7.62,49,49,0,0,0,7.62,25.5h0A48.85,48.85,0,0,0,44.21,72.83Zm0,0"/><path class="cls-2" d="M72.61,43.4a48.5,48.5,0,0,0-22.69,6.51,48.6,48.6,0,0,1-5.7,22.91A49,49,0,0,1,25.5,92.21a48.56,48.56,0,0,0,24.42,6.54A48.86,48.86,0,0,0,72.61,43.4Zm0,0"/><path class="cls-1" d="M32.93,33.52a48.86,48.86,0,0,1,59.28-8h0A48.86,48.86,0,0,0,25.49,7.62a49.07,49.07,0,0,0,7.43,25.9Zm0,0"/><path d="M25.5,93.47,25,93.15a50,50,0,0,1-12.17-9.87,1.08,1.08,0,1,1,1.61-1.45A47.86,47.86,0,0,0,25.5,91,47.86,47.86,0,0,0,42.6,73.51,49.89,49.89,0,0,1,6.7,29.57,47.79,47.79,0,0,0,2.16,49.92a47.31,47.31,0,0,0,9.74,28.91,1.08,1.08,0,0,1-1.72,1.31A49.94,49.94,0,0,1,6.68,25l.52-.89,1.5.78v.66A47.72,47.72,0,0,0,44.49,71.78l1.33.34-.64,1.21A50,50,0,0,1,26,93.15Z"/><path d="M49.92,99.83H45.86l3.51-2A47.73,47.73,0,0,0,71.57,43.68l-.37-1.32,1.37,0A50,50,0,0,1,99.29,49l.54.31v.62A49.91,49.91,0,0,1,49.92,99.83ZM74,44.45A49.9,49.9,0,0,1,53.92,97.5a47.76,47.76,0,0,0,43.75-47A47.91,47.91,0,0,0,74,44.45Z"/><path d="M44.76,74.09l-.82-.21A49.88,49.88,0,0,1,6.55,26.16l-.42-.22.56-1A50.09,50.09,0,0,1,25,6.69l1.62-.94V7.62A47.73,47.73,0,0,0,50.46,49l.54.31v.62a49.91,49.91,0,0,1-5.83,23.42ZM8.71,25.77A47.71,47.71,0,0,0,43.65,71.56a47.77,47.77,0,0,0,5.18-21,49.89,49.89,0,0,1-24.38-41A47.93,47.93,0,0,0,8.71,25.77Z"/><path d="M50.21,99.83h-.29a49.85,49.85,0,0,1-25-6.68l-1.62-.94L25,91.28A47.73,47.73,0,0,0,48.83,49.92v-.62l.54-.31a49.89,49.89,0,0,1,23.2-6.66l.85,0,.23.82a49.89,49.89,0,0,1-23.2,56.57ZM27.66,92.17a47.73,47.73,0,0,0,22,5.49A47.73,47.73,0,0,0,71.79,44.52a47.75,47.75,0,0,0-20.79,6,50,50,0,0,1-5.83,22.79A50,50,0,0,1,27.66,92.17Z"/><path d="M32.73,35.26,32,34.09a50,50,0,0,1-7.6-26.47V7L25,6.68A49.92,49.92,0,0,1,93.15,25l.57,1-1.53.8-.52-.29A47.67,47.67,0,0,0,66.94,20h0a1.08,1.08,0,0,1,0-2.16,50,50,0,0,1,22.23,4.8A47.78,47.78,0,0,0,26.58,8.24a47.88,47.88,0,0,0,6.56,23.54,49.39,49.39,0,0,1,28-13.49,1.08,1.08,0,0,1,.28,2.14A47.28,47.28,0,0,0,33.7,34.28Z"/><path d="M99.83,51.78l-1.62-.93a47.71,47.71,0,0,0-47.75,0l-.54.31-.54-.31A49.91,49.91,0,0,1,32,34.09l-.45-.72.6-.61a49.41,49.41,0,0,1,29-14.47,1.08,1.08,0,0,1,.28,2.14A47.24,47.24,0,0,0,34.31,33.67a47.77,47.77,0,0,0,15.62,15,49.87,49.87,0,0,1,47.71-.61,47.71,47.71,0,0,0-6.2-21.76A47.71,47.71,0,0,0,66.94,20h0a1.08,1.08,0,0,1,0-2.16,49.91,49.91,0,0,1,25.33,6.4l.39-.2.53.89a49.89,49.89,0,0,1,6.68,25Z"/></svg>