<svg id="Layer_1" data-name="Layer 1" xmlns="http://www.w3.org/2000/svg" viewBox="0 0 116 100.19"><defs><style>.cls-1{fill:#35495e;}.cls-2{fill:#41b883;}</style></defs><title>Vue.Js Web Development</title><polygon class="cls-1" points="1.31 0.76 44.65 0.76 58 23.94 71.19 0.76 114.69 0.76 58 98.68 1.31 0.76"/><polygon class="cls-2" points="1.31 0.76 23.82 0.76 58 59.88 92.01 0.76 114.69 0.76 58 98.68 1.31 0.76"/><path d="M58,100.19,0,0H45.09L58,22.41,70.74,0H116L101,26a.76.76,0,0,1-1.31-.76l13.72-23.7H71.63L58,25.46,44.21,1.52H2.63L58,97.16,96.16,31.25a.76.76,0,0,1,1.31.76Z"/><path d="M58,100.19,0,0H24.26L58,58.36,91.57,0H116L101.12,25.71a.76.76,0,1,1-1.31-.76L113.37,1.52H92.45L58,61.4,23.38,1.52H2.63L58,97.16,96.31,31a.76.76,0,0,1,1.31.76Z"/></svg>