<svg id="Layer_1" data-name="Layer 1" xmlns="http://www.w3.org/2000/svg" viewBox="0 0 115.78 100"><defs><style>.cls-1{fill:#35495e;}.cls-2{fill:#41b883;}</style></defs><title>VUEJS_DEVELOPMENT</title><polygon class="cls-1" points="1.31 0.76 44.56 0.76 57.89 23.89 71.05 0.76 114.47 0.76 57.89 98.49 1.31 0.76"/><polygon class="cls-2" points="1.31 0.76 23.78 0.76 57.89 59.77 91.84 0.76 114.47 0.76 57.89 98.49 1.31 0.76"/><path d="M57.89,100,0,0H45L57.89,22.37,70.61,0h45.17l-15,25.93a.76.76,0,1,1-1.31-.76L113.16,1.51H71.49l-13.6,23.9L44.13,1.51H2.62L57.89,97,96,31.19a.76.76,0,0,1,1.31.76Z"/><path d="M57.89,100,0,0H24.21L57.89,58.25,91.4,0h24.38L100.93,25.66a.76.76,0,0,1-1.31-.76L113.16,1.51H92.27L57.89,61.28,23.34,1.51H2.62L57.89,97,96.13,30.92a.76.76,0,1,1,1.31.76Z"/></svg>