<svg id="Layer_1" data-name="Layer 1" xmlns="http://www.w3.org/2000/svg" viewBox="0 0 100 100.11"><defs><style>.cls-1{fill:#4dbbeb;}.cls-2{fill:#e2e2e2;}.cls-3{fill:#feb756;}.cls-4{fill:#ffd097;}.cls-5{fill:#b6ecff;}.cls-6{fill:#c1c1c1;}.cls-7{fill:#ffad4a;}</style></defs><title>we_design</title><path class="cls-1" d="M95.17,3.3a4.32,4.32,0,1,1-4.32,4.32A4.32,4.32,0,0,1,95.17,3.3Z"/><path class="cls-1" d="M5.33,3.3A4.32,4.32,0,1,1,1,7.61,4.32,4.32,0,0,1,5.33,3.3Z"/><path d="M90.21,8.69H9.36a1.08,1.08,0,1,1,0-2.16H90.21a1.08,1.08,0,0,1,0,2.16Z"/><path d="M94.89,12.72A5.11,5.11,0,1,1,100,7.61,5.12,5.12,0,0,1,94.89,12.72Zm0-8.06a3,3,0,1,0,3,3A3,3,0,0,0,94.89,4.66Z"/><circle cx="85.56" cy="28.82" r="2.02"/><circle cx="12.02" cy="28.82" r="2.02"/><path d="M8.13,46.48A1.08,1.08,0,0,1,7.05,45.4,43.75,43.75,0,0,1,8.44,34.45a1.08,1.08,0,0,1,2.09.54A41.58,41.58,0,0,0,9.21,45.4,1.08,1.08,0,0,1,8.13,46.48Z"/><path d="M90.79,46.48a1.08,1.08,0,0,1-1.08-1.08A41.59,41.59,0,0,0,88.39,35a1.08,1.08,0,0,1,2.09-.54A43.75,43.75,0,0,1,91.87,45.4,1.08,1.08,0,0,1,90.79,46.48Z"/><path d="M78.77,22.21a1.08,1.08,0,0,1-.77-.32,41.48,41.48,0,0,0-58.6-.56,1.08,1.08,0,1,1-1.51-1.54,43.64,43.64,0,0,1,61.65.59,1.08,1.08,0,0,1-.77,1.83Z"/><path class="cls-1" d="M8.56,42.72A4.32,4.32,0,1,1,4.25,47,4.32,4.32,0,0,1,8.56,42.72Z"/><path d="M8.28,52.15A5.11,5.11,0,1,1,13.39,47,5.12,5.12,0,0,1,8.28,52.15Zm0-8.06a3,3,0,1,0,3,3A3,3,0,0,0,8.28,44.09Z"/><path d="M5.11,12.72a5.11,5.11,0,1,1,5.11-5.11A5.12,5.12,0,0,1,5.11,12.72Zm0-8.06a3,3,0,1,0,3,3A3,3,0,0,0,5.11,4.66Z"/><path class="cls-1" d="M49.78.62a7,7,0,1,1-7,7A7,7,0,0,1,49.78.62Z"/><path d="M49.43,15.22A7.61,7.61,0,1,1,57,7.61,7.62,7.62,0,0,1,49.43,15.22Zm0-13.07a5.45,5.45,0,1,0,5.45,5.45A5.46,5.46,0,0,0,49.43,2.16Z"/><path class="cls-2" d="M28.2,58.46,49.78,19,71.37,58.46,62.73,81.33H36.84Z"/><path class="cls-3" d="M62.73,81.33a4.32,4.32,0,0,1,0,8.63H36.84a4.32,4.32,0,0,1,0-8.63Z"/><path class="cls-4" d="M56.26,81.33h6.47a4.32,4.32,0,0,1,0,8.63H56.26"/><rect class="cls-1" x="36.84" y="89.96" width="25.9" height="9.06"/><rect class="cls-5" x="55.47" y="89.96" width="7.26" height="9.06"/><path class="cls-1" d="M49.78,54.36a4.32,4.32,0,1,1-4.32,4.32A4.32,4.32,0,0,1,49.78,54.36Z"/><path d="M49.78,64.07a5.4,5.4,0,1,1,5.4-5.4A5.4,5.4,0,0,1,49.78,64.07Zm0-8.63A3.24,3.24,0,1,0,53,58.67,3.24,3.24,0,0,0,49.78,55.44Z"/><polygon points="63.81 100.11 35.76 100.11 35.76 89.75 37.91 89.75 37.91 97.95 61.65 97.95 61.65 89.75 63.81 89.75 63.81 100.11"/><path d="M62.73,82.2a1.08,1.08,0,0,1-1-1.46l2.57-6.8a1.08,1.08,0,1,1,2,.76l-2.57,6.8A1.08,1.08,0,0,1,62.73,82.2Z"/><path d="M36.84,82.2a1.08,1.08,0,0,1-1-.7L27,58.16,49.78,16.5,72.55,58.16,68.34,69.3a1.08,1.08,0,1,1-2-.76l3.86-10.22L49.78,21,29.39,58.32l8.46,22.41a1.08,1.08,0,0,1-1,1.46Z"/><path d="M62.73,91.48H45.18a1.08,1.08,0,0,1,0-2.16H62.73a3.24,3.24,0,0,0,0-6.47H36.84a3.24,3.24,0,0,0,0,6.47h4.32a1.08,1.08,0,1,1,0,2.16H36.84a5.4,5.4,0,1,1,0-10.79h25.9a5.4,5.4,0,0,1,0,10.79Z"/><path d="M49.78,54.38A1.08,1.08,0,0,1,48.7,53.3V18.75a1.08,1.08,0,0,1,2.16,0V53.3A1.08,1.08,0,0,1,49.78,54.38Z"/><path d="M71.36,59.46H62.73a1.08,1.08,0,1,1,0-2.16h8.63a1.08,1.08,0,0,1,0,2.16Z"/><path d="M37.91,59.1h-9a1.08,1.08,0,1,1,0-2.16h9a1.08,1.08,0,1,1,0,2.16Z"/><path class="cls-1" d="M91.22,43.59A4.32,4.32,0,1,1,86.9,47.9,4.32,4.32,0,0,1,91.22,43.59Z"/><path d="M90.94,53A5.11,5.11,0,1,1,96,47.9,5.12,5.12,0,0,1,90.94,53Zm0-8.06a3,3,0,1,0,3,3A3,3,0,0,0,90.94,45Z"/><path class="cls-6" d="M38.71,72.31a1.08,1.08,0,0,1-1-.68L33.95,62.3a1.08,1.08,0,0,1,2-.81l3.76,9.33a1.08,1.08,0,0,1-1,1.48Z"/><path class="cls-6" d="M41.28,78.8a1.08,1.08,0,0,1-1-.68l-1.37-3.4a1.08,1.08,0,1,1,2-.81l1.37,3.4a1.08,1.08,0,0,1-1,1.48Z"/><path class="cls-7" d="M61.91,86.46a.54.54,0,0,1-.54-.54V84.08a.54.54,0,0,1,1.08,0v1.83A.54.54,0,0,1,61.91,86.46Z"/><path class="cls-7" d="M61.91,88.49a.54.54,0,0,1-.54-.54v-.74a.54.54,0,1,1,1.08,0V88A.54.54,0,0,1,61.91,88.49Z"/></svg>