<svg id="Layer_1" data-name="Layer 1" xmlns="http://www.w3.org/2000/svg" viewBox="0 0 134.22 100"><defs><style>.cls-1{fill:#ffc66c;}.cls-2{fill:#ff5d5d;}.cls-3{fill:#39b4d1;}.cls-4{fill:#72d8ff;}</style></defs><title>Web Application Development</title><path class="cls-1" d="M112,52.67h12.83a8,8,0,0,0,8-8V9.36a8,8,0,0,0-8-8H9.36a8,8,0,0,0-8,8V44.65a8,8,0,0,0,8,8Zm0,0"/><path d="M124.87,54H9.36A9.37,9.37,0,0,1,0,44.65V9.36A9.37,9.37,0,0,1,9.36,0H124.87a9.37,9.37,0,0,1,9.36,9.36V44.65A9.37,9.37,0,0,1,124.87,54ZM9.36,2.67A6.69,6.69,0,0,0,2.67,9.36V44.65a6.69,6.69,0,0,0,6.68,6.68H124.87a6.69,6.69,0,0,0,6.68-6.68V9.36a6.69,6.69,0,0,0-6.68-6.68Z"/><path class="cls-2" d="M97.89,80.13,115,97.22a4.92,4.92,0,1,0,7-7L104.85,73.18Zm0,0"/><path d="M118.46,100A6.21,6.21,0,0,1,114,98.17l-18-18,8.84-8.84,18,18A6.25,6.25,0,0,1,118.46,100ZM99.79,80.13l16.14,16.14A3.58,3.58,0,1,0,121,91.21L104.85,75.07Z"/><path class="cls-3" d="M108.57,59.17A24.68,24.68,0,1,1,83.89,34.49a24.68,24.68,0,0,1,24.68,24.68Zm0,0"/><path d="M83.89,85.19a26,26,0,1,1,26-26A26,26,0,0,1,83.89,85.19Zm0-49.36a23.34,23.34,0,1,0,23.34,23.34A23.37,23.37,0,0,0,83.89,35.83Z"/><path class="cls-4" d="M102.81,59.17A18.92,18.92,0,1,1,83.89,40.25a18.92,18.92,0,0,1,18.92,18.92Zm0,0"/><path d="M83.89,79.43a20.26,20.26,0,1,1,20.26-20.26A20.28,20.28,0,0,1,83.89,79.43Zm0-37.84a17.59,17.59,0,1,0,17.59,17.59A17.61,17.61,0,0,0,83.89,41.59Z"/><path d="M81.55,96.52"/><path d="M41.87,14.59l2.57,9.88,2.77-9.88h4.16l-4.72,15.5h-4l-2.53-9.5-2.53,9.5h-4L29,14.59h4.3l2.77,9.88,2.53-9.88Z"/><path d="M72.11,14.59l2.57,9.88,2.77-9.88h4.16l-4.72,15.5h-4l-2.53-9.5-2.53,9.5h-4l-4.72-15.5h4.3l2.77,9.88,2.53-9.88Z"/><path d="M102.34,14.59l2.57,9.88,2.77-9.88h4.16l-4.72,15.5h-4l-2.53-9.5-2.53,9.5h-4l-4.72-15.5h4.3l2.77,9.88L99,14.59Z"/></svg>