<svg id="Layer_1" data-name="Layer 1" xmlns="http://www.w3.org/2000/svg" viewBox="0 0 130.81 99.88"><defs><style>.cls-1{fill:#beb8a4;}.cls-2{fill:#fff4d7;}.cls-3{fill:#9e9e9e;}.cls-4{fill:#d9dcde;}</style></defs><title>web_services</title><path class="cls-1" d="M113,1.15H17.81a9.52,9.52,0,0,0-9.52,9.52V84.44H122.52V10.67A9.52,9.52,0,0,0,113,1.15Zm0,0"/><path d="M123.67,85.6H7.14V10.67A10.68,10.68,0,0,1,17.81,0H113a10.68,10.68,0,0,1,10.67,10.67V63.34a1.15,1.15,0,0,1-2.3,0V10.67A8.38,8.38,0,0,0,113,2.3H17.81a8.38,8.38,0,0,0-8.37,8.37V83.29H121.37V70.86a1.15,1.15,0,0,1,2.3,0Z"/><rect class="cls-2" x="17.81" y="10.67" width="95.19" height="78.53"/><rect class="cls-3" x="24.95" y="34.26" width="4.76" height="4.76"/><rect class="cls-3" x="34.47" y="34.26" width="4.76" height="4.76"/><rect class="cls-3" x="43.99" y="34.26" width="4.76" height="4.76"/><rect class="cls-3" x="24.95" y="46.16" width="76.15" height="14.28"/><path class="cls-4" d="M122.52,98.72H8.29a7.14,7.14,0,0,1-7.14-7.14V84.44H50.85a4.31,4.31,0,0,1,3.85,2.38,4.3,4.3,0,0,0,3.85,2.38H72.26a4.3,4.3,0,0,0,3.85-2.38A4.31,4.31,0,0,1,80,84.44h49.69v7.14a7.14,7.14,0,0,1-7.14,7.14Zm0,0"/><path d="M122.52,99.88H8.29A8.3,8.3,0,0,1,0,91.58V83.29H50.85a5.43,5.43,0,0,1,4.88,3,3.13,3.13,0,0,0,2.82,1.74H72.26a3.13,3.13,0,0,0,2.82-1.74,5.43,5.43,0,0,1,4.88-3h50.85v8.29A8.3,8.3,0,0,1,122.52,99.88ZM2.3,85.6v6a6,6,0,0,0,6,6H122.52a6,6,0,0,0,6-6v-6H80a3.14,3.14,0,0,0-2.82,1.74,5.42,5.42,0,0,1-4.88,3H58.55a5.42,5.42,0,0,1-4.88-3,3.14,3.14,0,0,0-2.82-1.74Z"/></svg>