<svg id="Layer_1" data-name="Layer 1" xmlns="http://www.w3.org/2000/svg" viewBox="0 0 94 100"><defs><style>.cls-1{fill:#d7eff4;}.cls-2{fill:#a6ddee;}.cls-3{fill:#45bded;}.cls-4{fill:#4898d3;}.cls-5{fill:#f6c5ba;}.cls-6{fill:#f2aba4;}.cls-7{fill:#005da0;}.cls-8{fill:#005281;}</style></defs><title>WEBSITE_DEVELOPERS</title><path class="cls-1" d="M92.95,90.43H1v-23a26.5,26.5,0,0,1,26.5-26.5h38.9a26.5,26.5,0,0,1,26.5,26.5Zm0,0"/><path class="cls-2" d="M66.48,40.9H54.15A26.47,26.47,0,0,1,80.62,67.37V90.43H92.95V67.37A26.47,26.47,0,0,0,66.48,40.9Zm0,0"/><path d="M92.95,74.34a1,1,0,0,1-1-1V69.77a1,1,0,0,1,2.09,0v3.53A1,1,0,0,1,92.95,74.34Z"/><path d="M94,91.48H0V67.39A27.58,27.58,0,0,1,27.55,39.85h38.9A27.55,27.55,0,0,1,93.86,64.64a1,1,0,1,1-2.08.21,25.35,25.35,0,0,0-25.32-22.9H27.55A25.48,25.48,0,0,0,2.09,67.39v22H91.9V78.32a1,1,0,0,1,2.09,0Z"/><path class="cls-3" d="M73.83,99H20.16a2.09,2.09,0,0,1-2.09-2.09v-30a2.09,2.09,0,0,1,2.09-2.09H73.83a2.09,2.09,0,0,1,2.09,2.09v30A2.09,2.09,0,0,1,73.83,99Zm0,0"/><path class="cls-4" d="M73.84,64.74h-7.5V92.69a2.09,2.09,0,0,1-2.09,2.09H18.07v2.09A2.09,2.09,0,0,0,20.16,99H73.84a2.09,2.09,0,0,0,2.09-2.09v-30a2.09,2.09,0,0,0-2.09-2.09Zm0,0"/><path d="M73.83,100H20.16A3.14,3.14,0,0,1,17,96.86v-30a3.14,3.14,0,0,1,3.14-3.14H73.83A3.14,3.14,0,0,1,77,66.83v30A3.14,3.14,0,0,1,73.83,100ZM20.16,65.79a1,1,0,0,0-1,1v30a1,1,0,0,0,1,1H73.83a1,1,0,0,0,1-1v-30a1,1,0,0,0-1-1Z"/><path class="cls-5" d="M68.62,28.89c0-2.84-1.54-5.17-3.51-5.42V16.09a15,15,0,0,0-15-15H41.91a15,15,0,0,0-15,15v7.38c-2,.26-3.51,2.59-3.51,5.42S25,34.15,27,34.32a15,15,0,0,0,6.84,10.8,7.94,7.94,0,0,0,7.92,7.42h8.48a7.94,7.94,0,0,0,7.92-7.42A15,15,0,0,0,65,34.32c2-.18,3.63-2.54,3.63-5.44Zm0,0"/><path d="M46,39.83a7.32,7.32,0,0,0,7.32-7.32H38.7A7.32,7.32,0,0,0,46,39.83Zm0,0"/><path class="cls-6" d="M68.62,28.89c0-2.84-1.54-5.17-3.51-5.42V16.08a15,15,0,0,0-9.61-14,15,15,0,0,1,4.8,11V29.44a15,15,0,0,1-15,15H37.1a15,15,0,0,1-5.43-1,15,15,0,0,0,10.24,4h8.53a9.15,9.15,0,0,1-7.83,5.06h7.63a7.94,7.94,0,0,0,7.92-7.42A15,15,0,0,0,65,34.32c2-.18,3.63-2.54,3.63-5.44Zm0,0"/><path class="cls-7" d="M44.08,11.48H47.9A19.12,19.12,0,0,1,65.11,22.26V16.08a15,15,0,0,0-15-15H41.9a15,15,0,0,0-15,15v6.18A19.12,19.12,0,0,1,44.08,11.48Zm0,0"/><path class="cls-8" d="M65,14.67A15.1,15.1,0,0,0,59.41,4.3l-.07-.05A15.07,15.07,0,0,0,57.55,3l0,0a14.91,14.91,0,0,0-2-1h0a15,15,0,0,1,4.8,11v3a19.21,19.21,0,0,1,4.8,6.21V16.08c0-.47,0-.94-.07-1.41Zm0,0"/><path d="M65.11,23.31a1,1,0,0,1-.94-.59A18,18,0,0,0,47.9,12.53H44.08A18,18,0,0,0,27.81,22.72a1,1,0,0,1-2-.46V16.08A16.1,16.1,0,0,1,41.9,0h8.17A16.1,16.1,0,0,1,66.16,16.08v6.18a1,1,0,0,1-.81,1ZM41.9,2.09a14,14,0,0,0-14,14v2.45a20.16,20.16,0,0,1,16.16-8.1H47.9a20.16,20.16,0,0,1,16.16,8.1V16.08a14,14,0,0,0-14-14Z"/><path class="cls-7" d="M39.7,24.74a2.79,2.79,0,1,1-2.79-2.79,2.79,2.79,0,0,1,2.79,2.79Zm0,0"/><path class="cls-7" d="M57.15,24.74a2.79,2.79,0,1,1-2.79-2.79,2.79,2.79,0,0,1,2.79,2.79Zm0,0"/><path d="M39.7,24.74a2.79,2.79,0,1,1-2.79-2.79,2.79,2.79,0,0,1,2.79,2.79Zm0,0"/><path d="M57.15,24.74a2.79,2.79,0,1,1-2.79-2.79,2.79,2.79,0,0,1,2.79,2.79Zm0,0"/><path d="M50.23,53.59H41.75a9,9,0,0,1-8.91-7.87A16,16,0,0,1,26.06,35.2c-2.19-.68-3.75-3.23-3.75-6.32,0-2.94,1.46-5.43,3.51-6.23V16.09A16.1,16.1,0,0,1,41.91,0h8.17A16.1,16.1,0,0,1,66.16,16.09v6.57c2.05.8,3.51,3.29,3.51,6.23s-1.56,5.63-3.75,6.31a16,16,0,0,1-6.78,10.53A9,9,0,0,1,50.23,53.59ZM41.91,2.09a14,14,0,0,0-14,14v8.3L27,24.5c-1.43.19-2.6,2.15-2.6,4.39s1.2,4.27,2.67,4.39l.84.07.1.84a13.94,13.94,0,0,0,6.37,10.05l.45.29,0,.53a6.9,6.9,0,0,0,6.87,6.44h8.48a6.9,6.9,0,0,0,6.87-6.44l0-.53.45-.29A13.94,13.94,0,0,0,64,34.19l.1-.84.84-.07c1.47-.13,2.67-2.1,2.67-4.39s-1.17-4.2-2.6-4.39l-.91-.12v-8.3a14,14,0,0,0-14-14Z"/></svg>