<svg id="Layer_1" data-name="Layer 1" xmlns="http://www.w3.org/2000/svg" viewBox="0 0 99.44 99.97"><defs><style>.cls-1{fill:#228bcb;}.cls-2{fill:none;stroke:#000;stroke-linejoin:round;stroke-width:10px;}</style></defs><title>windows_application_development</title><polygon class="cls-1" points="97.14 45.98 46.52 45.98 46.52 10.29 97.14 2.3 97.14 45.98"/><polygon class="cls-1" points="38.89 11.93 38.89 45.98 2.3 45.98 2.3 17.7 38.89 11.93"/><polygon class="cls-1" points="2.3 54.08 38.89 54.08 38.89 88.05 2.3 82.28 2.3 54.08"/><polygon class="cls-1" points="46.52 89.69 46.52 54.08 97.14 54.08 97.14 97.67 46.52 89.69"/><path d="M97.14,48.28H46.53a2.3,2.3,0,0,1-2.3-2.3V10.29A2.3,2.3,0,0,1,46.17,8L96.78,0A2.3,2.3,0,0,1,99.44,2.3V46A2.3,2.3,0,0,1,97.14,48.28Zm-48.31-4.6h46V5l-46,7.26Z" transform="translate(0 0)"/><path d="M38.89,48.28H2.3A2.3,2.3,0,0,1,0,46V17.7a2.3,2.3,0,0,1,1.94-2.27L38.53,9.66a2.3,2.3,0,0,1,2.66,2.27V46A2.3,2.3,0,0,1,38.89,48.28ZM4.6,43.68h32V14.62l-32,5Z" transform="translate(0 0)"/><path d="M38.89,90.35l-.36,0L1.94,84.55A2.3,2.3,0,0,1,0,82.28V54.08a2.3,2.3,0,0,1,2.3-2.3H38.89a2.3,2.3,0,0,1,2.3,2.3V88a2.3,2.3,0,0,1-2.3,2.3ZM4.6,80.31l32,5v-29H4.6Z" transform="translate(0 0)"/><path class="cls-2" d="M49.29,89.23" transform="translate(0 0)"/><path d="M97.14,100l-.36,0L46.17,92a2.3,2.3,0,0,1-1.94-2.27V54.08a2.3,2.3,0,0,1,2.3-2.3H70.28a2.3,2.3,0,1,1,0,4.6H48.82V87.72l46,7.26V56.38H80.17a2.3,2.3,0,1,1,0-4.6h17a2.3,2.3,0,0,1,2.3,2.3V97.67a2.3,2.3,0,0,1-2.3,2.3Z" transform="translate(0 0)"/></svg>