<svg id="Layer_1" data-name="Layer 1" xmlns="http://www.w3.org/2000/svg" viewBox="0 0 167.488 100"><defs><style>.cls-1{fill:#9b5c8f;}.cls-2{fill:#ffc0f9;}</style></defs><title>woo_commerce</title><path class="cls-1" d="M1.1,68.3V15.959a8.754,8.754,0,0,0,.4-1.377,14.864,14.864,0,0,1,11.2-12.74c1.081-.276,2.176-.5,3.264-.746h136.03a5.2,5.2,0,0,0,1.032.4,15.274,15.274,0,0,1,13.36,15.665q.027,25.031-.018,50.062a18.581,18.581,0,0,1-.548,4.3,14.882,14.882,0,0,1-14.661,11.527q-23.093.03-46.187.016c-.709,0-1.418.11-2.409.192L108.9,98.9c-.586-.265-.836-.358-1.066-.486-8.6-4.791-17.174-9.617-25.808-14.341a8.274,8.274,0,0,0-3.79-.982c-20.671-.062-41.342-.028-62.013-.059A15.112,15.112,0,0,1,1.614,70.964C1.437,70.078,1.268,69.19,1.1,68.3ZM58.708,48.412a7.239,7.239,0,0,1-.35-.817c-1.279-4.266-2.63-8.513-3.8-12.81-.9-3.307-1.339-6.75-2.388-10-1.249-3.872-5.522-4.717-8.408-1.836A10.982,10.982,0,0,0,41.9,25.553C38.488,31.962,35.126,38.4,31.746,44.823c-1.366,2.6-2.737,5.192-4.188,7.944a6.785,6.785,0,0,1-.365-.948C25.1,40.7,22.933,29.6,20.973,18.457c-.714-4.056-2.276-5.66-6.387-5.546a5.666,5.666,0,0,0-5.43,6.58c.285,1.692.522,3.394.853,5.077,2.385,12.1,4.658,24.226,7.26,36.28a61.121,61.121,0,0,0,4,11.7c1.589,3.591,4.419,4.047,7.22,1.351a24.4,24.4,0,0,0,4.578-5.787C36.875,61.063,40.434,53.88,44.1,46.753c.248-.483.538-.945.942-1.651.259.816.4,1.274.549,1.732,2.557,8.035,5.719,15.79,10.985,22.481a25.534,25.534,0,0,0,5.3,5.347c3.447,2.373,7.3.4,7.828-3.766.167-1.314-.05-2.673.045-4,.495-6.9.786-13.832,1.616-20.695,1.161-9.6,2.816-19.111,7.056-27.974A5.935,5.935,0,0,0,67.629,13.3,54.078,54.078,0,0,0,62.4,28.147C61.022,34.853,59.931,41.617,58.708,48.412Zm99.858-9.728a28,28,0,0,0-3.247-13.014c-4.995-9.145-17.886-11.078-25.6-4.36-8.91,7.756-12.811,24.148-8.67,35.479A17.1,17.1,0,0,0,150.9,61.442,37.6,37.6,0,0,0,158.565,38.684Zm-41.9.266a69.557,69.557,0,0,0-1.478-8.526c-1.977-6.618-5.992-11.339-13.127-12.755-6.613-1.312-12.23.621-16.474,5.717-7.566,9.085-10.051,19.591-7.3,31.079,1.72,7.171,6.085,12.2,13.7,13.539,7.379,1.3,13.137-1.547,17.478-7.464A38,38,0,0,0,116.666,38.95Z"/><path class="cls-2" d="M58.708,48.412c1.223-6.794,2.314-13.558,3.688-20.265A54.078,54.078,0,0,1,67.629,13.3,5.935,5.935,0,0,1,78.42,18.224c-4.24,8.863-5.9,18.376-7.056,27.974-.83,6.863-1.122,13.792-1.616,20.695-.1,1.329.122,2.688-.045,4-.531,4.171-4.381,6.139-7.828,3.766a25.534,25.534,0,0,1-5.3-5.347c-5.265-6.691-8.428-14.446-10.985-22.481-.146-.458-.291-.917-.549-1.732-.4.706-.694,1.168-.942,1.651-3.661,7.128-7.221,14.31-11.032,21.357A24.4,24.4,0,0,1,28.485,73.9c-2.8,2.7-5.631,2.24-7.22-1.351a61.121,61.121,0,0,1-4-11.7c-2.6-12.054-4.875-24.179-7.26-36.28-.332-1.683-.568-3.385-.853-5.077a5.666,5.666,0,0,1,5.43-6.58c4.111-.114,5.673,1.49,6.387,5.546C22.933,29.6,25.1,40.7,27.192,51.819a6.785,6.785,0,0,0,.365.948c1.451-2.753,2.822-5.347,4.188-7.944C35.126,38.4,38.488,31.962,41.9,25.553a10.982,10.982,0,0,1,1.866-2.607c2.887-2.881,7.159-2.035,8.408,1.836,1.049,3.252,1.49,6.695,2.388,10,1.167,4.3,2.517,8.544,3.8,12.81A7.239,7.239,0,0,0,58.708,48.412Z"/><path class="cls-2" d="M158.565,38.684A37.6,37.6,0,0,1,150.9,61.442a17.1,17.1,0,0,1-29.855-4.653c-4.14-11.331-.24-27.723,8.67-35.479,7.718-6.718,20.609-4.785,25.6,4.36A28,28,0,0,1,158.565,38.684Zm-11.373,2.1c.141-.036-.191-.86-.05-.9a58.432,58.432,0,0,0-1.88-7.24c-1.686-4.272-5.383-4.983-8.463-1.558-5.35,5.951-7.211,12.866-4.62,20.617,1.76,5.267,5.4,6.058,9.359,2.1a15.927,15.927,0,0,0,2.837-3.879C145.975,46.841,147.278,44.3,147.193,40.786Z"/><path class="cls-2" d="M116.666,38.95a38,38,0,0,1-7.2,21.59c-4.341,5.917-10.1,8.766-17.478,7.464-7.612-1.343-11.977-6.369-13.7-13.539-2.755-11.489-.27-21.994,7.3-31.079,4.244-5.1,9.861-7.029,16.474-5.717,7.135,1.416,11.15,6.137,13.127,12.755A69.557,69.557,0,0,1,116.666,38.95Zm-11.841-.09a47.09,47.09,0,0,0-1.852-6.472c-1.678-3.979-5.256-4.638-8.188-1.451-5.221,5.672-7.184,12.327-5.062,19.908.641,2.291,1.478,4.741,4.153,5.288,2.828.578,4.762-1.323,6.418-3.274C103.465,49.121,104.361,44.569,104.825,38.859Z"/><path class="cls-1" d="M147.162,41.215c.086,3.515-1.187,5.626-2.787,8.716a15.927,15.927,0,0,1-2.837,3.879c-3.957,3.957-7.6,3.166-9.359-2.1-2.591-7.751-.73-14.666,4.62-20.617,3.08-3.426,6.777-2.715,8.463,1.558a58.432,58.432,0,0,1,1.88,7.24A5.089,5.089,0,0,1,147.162,41.215Z"/><path d="M136.815,57.4a4.672,4.672,0,0,1-1.074-.123c-1.415-.333-3.361-1.509-4.6-5.219-2.637-7.889-1.007-15.188,4.845-21.7,1.742-1.938,3.779-2.811,5.74-2.458s3.59,1.9,4.556,4.346a32.955,32.955,0,0,1,1.411,5.133c.161.741.327,1.507.512,2.242a1.084,1.084,0,0,1,.025.136,6.124,6.124,0,0,1,.028,1.5c.07,3.475-1.079,5.673-2.531,8.45q-.186.357-.38.729a16.993,16.993,0,0,1-3.034,4.149C140.1,56.793,138.218,57.4,136.815,57.4Zm4.06-27.381a4.631,4.631,0,0,0-3.261,1.807c-5.285,5.879-6.764,12.452-4.4,19.537.508,1.519,1.445,3.408,3.025,3.781,1.26.3,2.865-.452,4.52-2.107a14.774,14.774,0,0,0,2.638-3.608q.2-.377.384-.737c1.366-2.613,2.353-4.5,2.281-7.448a1.07,1.07,0,0,1,0-.134,3.91,3.91,0,0,0-.009-1.021c-.187-.748-.352-1.507-.512-2.243a30.81,30.81,0,0,0-1.308-4.794c-.676-1.715-1.709-2.778-2.906-2.994A2.592,2.592,0,0,0,140.876,30.017Z"/><path class="cls-1" d="M104.825,38.859c-.463,5.709-1.36,10.262-4.531,14-1.656,1.951-3.59,3.853-6.418,3.274-2.675-.547-3.512-3-4.153-5.288-2.122-7.581-.158-14.236,5.062-19.908,2.933-3.187,6.511-2.528,8.188,1.451A19.5,19.5,0,0,1,104.825,38.859Z"/><path d="M94.885,57.332a6.114,6.114,0,0,1-1.229-.127c-3.491-.714-4.428-4.064-4.989-6.066-2.161-7.721-.374-14.768,5.311-20.945,1.671-1.816,3.639-2.634,5.54-2.3s3.5,1.778,4.463,4.069l.03.071a20.441,20.441,0,0,1,1.9,6.7,1.083,1.083,0,0,1,0,.214c-.483,5.959-1.483,10.725-4.788,14.618C99.972,54.929,97.932,57.332,94.885,57.332Zm3.81-27.32a4.418,4.418,0,0,0-3.1,1.666c-5.137,5.581-6.756,11.93-4.814,18.871.622,2.223,1.3,4.1,3.318,4.51,2.053.42,3.574-.8,5.363-2.91,2.918-3.437,3.8-7.63,4.266-13.27a18.271,18.271,0,0,0-1.73-5.994l-.03-.071a4.119,4.119,0,0,0-2.82-2.762A2.608,2.608,0,0,0,98.7,30.012Z"/><path d="M108.9,100a1.094,1.094,0,0,1-.452-.1c-.213-.1-.381-.17-.519-.23-.254-.111-.438-.191-.628-.3q-3.277-1.826-6.55-3.657c-6.3-3.52-12.814-7.159-19.25-10.681a7.17,7.17,0,0,0-3.267-.848c-12.3-.037-24.8-.039-36.89-.042-8.233,0-16.747,0-25.121-.016A15.956,15.956,0,0,1,6.1,80.421,16.2,16.2,0,0,1,.54,71.179C.419,70.575.3,69.97.185,69.365L.02,68.512A1.093,1.093,0,0,1,0,68.3V15.959a1.1,1.1,0,0,1,.046-.314c.048-.161.1-.321.16-.481a3.873,3.873,0,0,0,.2-.717A15.862,15.862,0,0,1,12.423.78c.758-.193,1.525-.362,2.268-.525.342-.075.684-.15,1.025-.228A1.1,1.1,0,0,1,15.959,0h136.03a1.1,1.1,0,0,1,.4.077c.129.051.256.11.384.169a2.2,2.2,0,0,0,.417.166,16.851,16.851,0,0,1,10.363,5.6,16.9,16.9,0,0,1,3.92,11.147c.021,19.181.015,35.089-.019,50.066a19.548,19.548,0,0,1-.579,4.553A15.957,15.957,0,0,1,151.154,84.14q-4.394.006-8.789.005h-3.255a1.1,1.1,0,0,1,0-2.191h3.255q4.393,0,8.787-.005a13.8,13.8,0,0,0,13.6-10.69,17.36,17.36,0,0,0,.517-4.041c.034-14.974.04-30.881.019-50.059A14.2,14.2,0,0,0,152.848,2.575a3.716,3.716,0,0,1-1-.343l-.089-.042H16.081q-.459.1-.92.2c-.725.159-1.474.324-2.2.508A13.711,13.711,0,0,0,2.584,14.718a5.6,5.6,0,0,1-.31,1.167c-.028.081-.056.161-.083.242V68.2l.146.751c.116.6.232,1.2.352,1.8A14.082,14.082,0,0,0,16.222,81.941c8.373.013,16.886.015,25.119.016,12.092,0,24.6.006,36.9.042a9.328,9.328,0,0,1,4.312,1.117c6.444,3.526,12.963,7.168,19.267,10.69l4.955,2.767-5.229-12.909a1.1,1.1,0,0,1,.925-1.5c.329-.027.626-.058.9-.086a15.611,15.611,0,0,1,1.6-.11q4.79,0,9.58,0h3.193a1.1,1.1,0,0,1,0,2.191h-3.193q-4.789,0-9.579,0c-.267,0-.539.018-.844.046l5.788,14.291A1.1,1.1,0,0,1,108.9,100Zm16.113-15.848a1.1,1.1,0,0,1,0-2.191l6.831,0a1.1,1.1,0,1,1,0,2.191ZM64.934,76.779a6.5,6.5,0,0,1-3.682-1.216,26.639,26.639,0,0,1-5.542-5.572C50.1,62.857,46.909,54.5,44.763,47.851q-1.421,2.772-2.83,5.551C39.384,58.414,36.749,63.6,34.026,68.63a25.342,25.342,0,0,1-4.781,6.055c-2.108,2.03-3.928,2.187-5.083,1.959-1.139-.224-2.741-1.04-3.9-3.656A61.976,61.976,0,0,1,16.2,61.078c-1.944-9-3.732-18.191-5.461-27.077q-.9-4.612-1.8-9.223c-.223-1.132-.405-2.282-.582-3.393-.09-.571-.181-1.143-.277-1.713a6.762,6.762,0,0,1,6.48-7.857c4.5-.126,6.668,1.744,7.5,6.451,1.441,8.188,3.02,16.5,4.547,24.533q.659,3.47,1.316,6.941l.052-.1c.954-1.809,1.883-3.568,2.809-5.329q1.344-2.556,2.687-5.114c2.439-4.646,4.961-9.449,7.469-14.161a12,12,0,0,1,2.059-2.868A6.378,6.378,0,0,1,48.968,20.3a5.966,5.966,0,0,1,4.248,4.15,56.477,56.477,0,0,1,1.432,5.817c.292,1.4.595,2.85.971,4.235.837,3.082,1.786,6.2,2.7,9.209l.066.217.321-1.838c.811-4.65,1.65-9.459,2.612-14.159A55.433,55.433,0,0,1,66.664,12.78,6.8,6.8,0,0,1,75.522,9.4a7.249,7.249,0,0,1,4.111,4.023,6.557,6.557,0,0,1-.225,5.271c-4.252,8.886-5.856,18.532-6.957,27.632-.6,4.952-.922,10.037-1.235,14.955-.118,1.864-.241,3.791-.377,5.686a16.3,16.3,0,0,0,0,1.684,14.705,14.705,0,0,1-.051,2.379,6.493,6.493,0,0,1-3.6,5.266A5.487,5.487,0,0,1,64.934,76.779Zm-19.9-32.773a1.074,1.074,0,0,1,.117.006,1.1,1.1,0,0,1,.928.758l.549,1.731c2.092,6.574,5.21,15.03,10.8,22.136a24.684,24.684,0,0,0,5.062,5.122,3.813,3.813,0,0,0,3.8.54,4.278,4.278,0,0,0,2.325-3.543h0a12.888,12.888,0,0,0,.035-2.029,18.081,18.081,0,0,1,0-1.913c.135-1.887.257-3.809.375-5.669.314-4.949.639-10.066,1.246-15.079,1.123-9.286,2.767-19.143,7.155-28.315a4.387,4.387,0,0,0,.161-3.527,5.053,5.053,0,0,0-2.879-2.786,4.661,4.661,0,0,0-6.12,2.378,52.511,52.511,0,0,0-5.124,14.55c-.956,4.668-1.792,9.461-2.6,14.1-.351,2.012-.714,4.092-1.083,6.143a1.1,1.1,0,0,1-2.082.243c-.028-.065-.061-.132-.093-.2a5.091,5.091,0,0,1-.3-.739q-.535-1.783-1.08-3.563c-.923-3.028-1.878-6.16-2.724-9.274-.393-1.448-.7-2.929-1-4.361a54.752,54.752,0,0,0-1.372-5.592,3.825,3.825,0,0,0-2.678-2.693,4.159,4.159,0,0,0-3.914,1.3,9.829,9.829,0,0,0-1.673,2.346c-2.5,4.706-5.025,9.507-7.463,14.15q-1.343,2.558-2.687,5.115c-.927,1.762-1.856,3.522-2.81,5.332l-1.379,2.613a1.1,1.1,0,0,1-1.989-.111c-.06-.152-.114-.277-.161-.386a3.45,3.45,0,0,1-.261-.759q-.829-4.407-1.669-8.813c-1.528-8.043-3.109-16.36-4.552-24.563-.65-3.7-1.833-4.735-5.278-4.641a4.571,4.571,0,0,0-4.381,5.3c.1.577.189,1.156.281,1.735.173,1.092.352,2.221.567,3.313q.909,4.612,1.8,9.228c1.727,8.875,3.514,18.052,5.452,27.033A59.856,59.856,0,0,0,22.267,72.1c.428.968,1.178,2.169,2.317,2.393,1.169.229,2.353-.628,3.141-1.388A23.186,23.186,0,0,0,32.1,67.588c2.71-5.009,5.338-10.179,7.88-15.179q1.566-3.081,3.141-6.157c.177-.344.369-.672.592-1.051.113-.193.237-.4.374-.644A1.1,1.1,0,0,1,45.037,44.006Zm50.4,25.407a20.923,20.923,0,0,1-3.638-.33c-7.6-1.341-12.641-6.308-14.572-14.363-2.842-11.853-.313-22.631,7.519-32.036,4.474-5.372,10.534-7.478,17.529-6.09s11.7,5.937,13.963,13.515a38.835,38.835,0,0,1,1.126,6.008c.117.875.237,1.779.382,2.652a1.089,1.089,0,0,1,.014.222,38.849,38.849,0,0,1-7.411,22.195h0C106.337,66.657,101.333,69.413,95.436,69.413Zm2.715-51.049a14.736,14.736,0,0,0-11.723,5.723c-7.365,8.844-9.745,18.979-7.072,30.123,1.737,7.243,6.051,11.522,12.822,12.716,6.606,1.165,12.126-1.2,16.4-7.034a36.691,36.691,0,0,0,6.983-20.874c-.142-.871-.26-1.755-.374-2.61a36.636,36.636,0,0,0-1.054-5.671c-2.042-6.835-6.062-10.758-12.29-11.994A18.991,18.991,0,0,0,98.152,18.364ZM109.466,60.54h0Zm27.781,8.854a18.745,18.745,0,0,1-2.829-.216,18.172,18.172,0,0,1-14.4-12.012c-4.338-11.871-.225-28.669,8.98-36.681a17.888,17.888,0,0,1,15-3.975,17.3,17.3,0,0,1,12.282,8.636,28.806,28.806,0,0,1,3.381,13.516c0,.016,0,.033,0,.049-.216,9.088-2.8,16.742-7.892,23.4h0A18.168,18.168,0,0,1,137.247,69.393ZM140.7,18.407a15.674,15.674,0,0,0-10.271,3.729c-8.441,7.348-12.348,23.365-8.361,34.277a16.009,16.009,0,0,0,27.956,4.363h0a36.518,36.518,0,0,0,7.441-22.094,26.664,26.664,0,0,0-3.113-12.488,15.124,15.124,0,0,0-10.746-7.53A16.481,16.481,0,0,0,140.7,18.407Z"/></svg>