<svg id="Layer_1" data-name="Layer 1" xmlns="http://www.w3.org/2000/svg" viewBox="0 0 129.3 100"><defs><style>.cls-1{fill:#f8e690;}.cls-2{fill:#010101;}.cls-3{fill:#ccc;}.cls-4{fill:#f9f9f9;}.cls-5{fill:#fff;}.cls-6{fill:#9c5c8f;}.cls-7{fill:#edc3dc;}</style></defs><title>WOOCOMMERCE_WORDPRESS_DEVELOPER</title><path class="cls-1" d="M17.57,1.29A11.52,11.52,0,0,0,6.71,12.79V77.84H120.52V12.79A11.52,11.52,0,0,0,109,1.28h-1"/><path class="cls-2" d="M121.8,79.12H5.43V12.79A12.79,12.79,0,0,1,17.5,0h.07L109,0A12.81,12.81,0,0,1,121.8,12.79ZM8,76.57H119.25V12.79A10.25,10.25,0,0,0,109,2.55h-1l-90.4,0A10.24,10.24,0,0,0,8,12.79Z"/><path class="cls-3" d="M128,77.84v7.59a13.29,13.29,0,0,1-13.29,13.29H14.57A13.29,13.29,0,0,1,1.28,85.43V77.84Zm0,0"/><path class="cls-4" d="M128,77.84v7.59A13.22,13.22,0,0,1,126.31,92a13.22,13.22,0,0,1-3.82.56H22.33A13.29,13.29,0,0,1,9,79.23V77.84Zm0,0"/><path class="cls-5" d="M69.15,88.28H53.43a6.54,6.54,0,0,1-6.54-6.54v-3.9h28.8v3.9a6.54,6.54,0,0,1-6.54,6.54Zm0,0"/><path class="cls-2" d="M69.15,89.56H53.43a7.82,7.82,0,0,1-7.81-7.81V76.57H77v5.18A7.82,7.82,0,0,1,69.15,89.56Zm-21-10.44v2.63A5.27,5.27,0,0,0,53.43,87H69.15a5.27,5.27,0,0,0,5.26-5.26V79.12Z"/><path class="cls-2" d="M114.73,100H14.57A14.58,14.58,0,0,1,0,85.43V76.57H129.3v8.87A14.56,14.56,0,0,1,114.73,100ZM2.55,79.12v6.32a12,12,0,0,0,12,12H114.73a12,12,0,0,0,12-12V79.12Z"/><path class="cls-6" d="M27,54.05V30.18a4,4,0,0,0,.18-.63,6.78,6.78,0,0,1,5.11-5.81c.49-.13,1-.23,1.49-.34h62a2.37,2.37,0,0,0,.47.18,7,7,0,0,1,6.09,7.14q0,11.42,0,22.83a8.47,8.47,0,0,1-.25,2,6.79,6.79,0,0,1-6.69,5.26H74.33c-.32,0-.65.05-1.1.09L76.12,68c-.27-.12-.38-.16-.49-.22-3.92-2.19-7.83-4.39-11.77-6.54a3.77,3.77,0,0,0-1.73-.45c-9.43,0-18.85,0-28.28,0a6.89,6.89,0,0,1-6.66-5.51C27.11,54.86,27,54.46,27,54.05ZM53.23,45a3.3,3.3,0,0,1-.16-.37c-.58-1.95-1.2-3.88-1.73-5.84-.41-1.51-.61-3.08-1.09-4.56a2.21,2.21,0,0,0-3.83-.84,5,5,0,0,0-.85,1.19c-1.56,2.92-3.09,5.86-4.63,8.79L39,47a3.09,3.09,0,0,1-.17-.43c-1-5.07-1.94-10.13-2.84-15.22-.33-1.85-1-2.58-2.91-2.53a2.58,2.58,0,0,0-2.48,3c.13.77.24,1.55.39,2.32,1.09,5.52,2.12,11,3.31,16.55A27.87,27.87,0,0,0,36.16,56c.72,1.64,2,1.85,3.29.62A11.13,11.13,0,0,0,41.54,54c1.74-3.21,3.36-6.49,5-9.74.11-.22.25-.43.43-.75l.25.79a31.73,31.73,0,0,0,5,10.25A11.64,11.64,0,0,0,54.68,57a2.21,2.21,0,0,0,3.57-1.72c.08-.6,0-1.22,0-1.83.23-3.15.36-6.31.74-9.44a40.24,40.24,0,0,1,3.22-12.76A2.71,2.71,0,0,0,57.3,29a24.66,24.66,0,0,0-2.39,6.77C54.29,38.8,53.79,41.88,53.23,45Zm45.54-4.44a12.77,12.77,0,0,0-1.48-5.94,7.75,7.75,0,0,0-11.68-2c-4.06,3.54-5.84,11-4,16.18a7.8,7.8,0,0,0,13.62,2.12A17.15,17.15,0,0,0,98.77,40.54Zm-19.11.12A31.72,31.72,0,0,0,79,36.78c-.9-3-2.73-5.17-6-5.82a7.35,7.35,0,0,0-7.51,2.61,15.53,15.53,0,0,0-3.33,14.17c.78,3.27,2.77,5.56,6.25,6.17a7.68,7.68,0,0,0,8-3.4A17.33,17.33,0,0,0,79.66,40.66Z"/><path class="cls-7" d="M53.23,45c.56-3.1,1.06-6.18,1.68-9.24A24.66,24.66,0,0,1,57.3,29a2.71,2.71,0,0,1,4.92,2.25A40.24,40.24,0,0,0,59,44c-.38,3.13-.51,6.29-.74,9.44,0,.61.06,1.23,0,1.83A2.21,2.21,0,0,1,54.68,57a11.64,11.64,0,0,1-2.42-2.44,31.73,31.73,0,0,1-5-10.25L47,43.47c-.18.32-.32.53-.43.75-1.67,3.25-3.29,6.53-5,9.74a11.13,11.13,0,0,1-2.09,2.64c-1.28,1.23-2.57,1-3.29-.62a27.87,27.87,0,0,1-1.82-5.34c-1.19-5.5-2.22-11-3.31-16.55-.15-.77-.26-1.54-.39-2.32a2.58,2.58,0,0,1,2.48-3c1.87-.05,2.59.68,2.91,2.53.89,5.08,1.88,10.15,2.84,15.22A3.09,3.09,0,0,0,39,47l1.91-3.62c1.54-2.93,3.07-5.87,4.63-8.79a5,5,0,0,1,.85-1.19,2.21,2.21,0,0,1,3.83.84c.48,1.48.68,3.05,1.09,4.56.53,2,1.15,3.9,1.73,5.84A3.3,3.3,0,0,0,53.23,45Z"/><path class="cls-7" d="M98.77,40.54a17.15,17.15,0,0,1-3.5,10.38A7.8,7.8,0,0,1,81.66,48.8c-1.89-5.17-.11-12.64,4-16.18a7.75,7.75,0,0,1,11.68,2A12.77,12.77,0,0,1,98.77,40.54Zm-5.19,1c.06,0-.09-.39,0-.41a26.65,26.65,0,0,0-.86-3.3c-.77-1.95-2.46-2.27-3.86-.71a9,9,0,0,0-2.11,9.4c.8,2.4,2.46,2.76,4.27,1a7.26,7.26,0,0,0,1.29-1.77A8.16,8.16,0,0,0,93.59,41.5Z"/><path class="cls-7" d="M79.66,40.66a17.33,17.33,0,0,1-3.28,9.85,7.68,7.68,0,0,1-8,3.4c-3.47-.61-5.46-2.9-6.25-6.17a15.53,15.53,0,0,1,3.33-14.17A7.35,7.35,0,0,1,73,31c3.25.65,5.08,2.8,6,5.82A31.72,31.72,0,0,1,79.66,40.66Zm-5.4,0a21.48,21.48,0,0,0-.84-3c-.77-1.81-2.4-2.12-3.73-.66a9.1,9.1,0,0,0-2.31,9.08c.29,1,.67,2.16,1.89,2.41s2.17-.6,2.93-1.49C73.64,45.3,74.05,43.23,74.26,40.62Z"/><path class="cls-6" d="M93.57,41.7a7.48,7.48,0,0,1-1.27,4A7.26,7.26,0,0,1,91,47.44c-1.8,1.8-3.47,1.44-4.27-1a9,9,0,0,1,2.11-9.4c1.4-1.56,3.09-1.24,3.86.71a26.65,26.65,0,0,1,.86,3.3A2.32,2.32,0,0,1,93.57,41.7Z"/><path class="cls-2" d="M88.85,49.08a2.13,2.13,0,0,1-.49-.06c-.65-.15-1.53-.69-2.1-2.38a9.48,9.48,0,0,1,2.21-9.89,2.6,2.6,0,0,1,4.7.86,15,15,0,0,1,.64,2.34c.07.34.15.69.23,1V41a2.79,2.79,0,0,1,0,.68,7.28,7.28,0,0,1-1.15,3.85l-.17.33a7.76,7.76,0,0,1-1.38,1.89A3.62,3.62,0,0,1,88.85,49.08Zm1.85-12.49a2.11,2.11,0,0,0-1.49.82,8.54,8.54,0,0,0-2,8.91c.23.69.66,1.55,1.38,1.72a2.43,2.43,0,0,0,2.06-1,6.74,6.74,0,0,0,1.2-1.65l.18-.34a6.39,6.39,0,0,0,1-3.4.49.49,0,0,1,0-.06,1.78,1.78,0,0,0,0-.47c-.08-.34-.16-.69-.23-1a14.06,14.06,0,0,0-.6-2.19,2,2,0,0,0-1.33-1.37Z"/><path class="cls-6" d="M74.26,40.62c-.21,2.6-.62,4.68-2.07,6.38-.76.89-1.64,1.76-2.93,1.49s-1.6-1.37-1.89-2.41A9.1,9.1,0,0,1,69.69,37c1.34-1.45,3-1.15,3.73.66A8.89,8.89,0,0,1,74.26,40.62Z"/><path class="cls-2" d="M69.73,49a2.79,2.79,0,0,1-.56-.06c-1.59-.33-2-1.85-2.28-2.77a9.57,9.57,0,0,1,2.42-9.55,2.56,2.56,0,0,1,4.56.81v0a9.32,9.32,0,0,1,.87,3.05.5.5,0,0,1,0,.1c-.22,2.72-.68,4.89-2.18,6.67A3.92,3.92,0,0,1,69.73,49Zm1.74-12.46a2,2,0,0,0-1.42.76A8.63,8.63,0,0,0,67.86,46c.28,1,.59,1.87,1.51,2.06s1.63-.37,2.45-1.33c1.33-1.57,1.73-3.48,1.95-6.05A8.33,8.33,0,0,0,73,37.9v0a1.88,1.88,0,0,0-1.29-1.26Z"/><path class="cls-2" d="M76.12,68.51a.5.5,0,0,1-.21,0l-.24-.1-.29-.14-3-1.67c-2.87-1.6-5.84-3.26-8.77-4.86a3.27,3.27,0,0,0-1.49-.39c-5.6,0-11.3,0-16.81,0H33.85a7.28,7.28,0,0,1-4.62-1.69,7.39,7.39,0,0,1-2.53-4.22l-.16-.84-.07-.38a.5.5,0,0,1,0-.1V30.18a.5.5,0,0,1,0-.14l.07-.22a1.76,1.76,0,0,0,.09-.33,7.23,7.23,0,0,1,5.48-6.23l1-.24.47-.1H95.77a.5.5,0,0,1,.18,0l.17.08.19.08a7.46,7.46,0,0,1,6.51,7.64c0,8.74,0,16,0,22.83a8.93,8.93,0,0,1-.26,2.08,7.28,7.28,0,0,1-7.17,5.64H89.9a.5.5,0,1,1,0-1h5.49a6.29,6.29,0,0,0,6.2-4.88,7.92,7.92,0,0,0,.24-1.84c0-6.84,0-14.09,0-22.83a6.48,6.48,0,0,0-5.67-6.65,1.69,1.69,0,0,1-.45-.16l0,0H33.79l-.42.09-1,.23a6.25,6.25,0,0,0-4.73,5.39,2.55,2.55,0,0,1-.14.53l0,.11V54l.06.33.16.83a6.42,6.42,0,0,0,6.17,5.1H45.33c5.51,0,11.21,0,16.81,0a4.26,4.26,0,0,1,2,.51c2.94,1.61,5.9,3.26,8.78,4.87l2.27,1.27-2.38-5.89a.5.5,0,0,1,.42-.69l.41,0a7.09,7.09,0,0,1,.73,0h5.83a.5.5,0,0,1,0,1H74.33l-.38,0,2.64,6.52a.5.5,0,0,1-.46.69Zm7.49-7.23h-.14a.5.5,0,0,1,0-1h3.12a.5.5,0,0,1,0,1h-3ZM56.07,57.92a3,3,0,0,1-1.68-.55,12.15,12.15,0,0,1-2.53-2.54,32.2,32.2,0,0,1-5-10.1l-1.29,2.53c-1.16,2.28-2.36,4.65-3.6,6.94A11.56,11.56,0,0,1,39.8,57a2.59,2.59,0,0,1-2.32.89,2.54,2.54,0,0,1-1.78-1.67,28.26,28.26,0,0,1-1.85-5.43c-.89-4.11-1.7-8.3-2.49-12.35q-.41-2.1-.82-4.2c-.1-.52-.18-1-.27-1.55,0-.26-.08-.52-.13-.78a3.08,3.08,0,0,1,3-3.58c2.05-.06,3,.8,3.42,2.94.66,3.73,1.38,7.52,2.07,11.19l.6,3.17,0-.05,1.28-2.43,1.23-2.33c1.11-2.12,2.26-4.31,3.41-6.46A5.47,5.47,0,0,1,46.06,33a2.91,2.91,0,0,1,2.73-.85A2.72,2.72,0,0,1,50.73,34a25.75,25.75,0,0,1,.65,2.65c.13.64.27,1.3.44,1.93.38,1.41.81,2.83,1.23,4.2l0,.1.15-.84c.37-2.12.75-4.31,1.19-6.46a25.29,25.29,0,0,1,2.44-6.91,3.1,3.1,0,0,1,4-1.54A3.31,3.31,0,0,1,62.77,29a3,3,0,0,1-.1,2.4A40,40,0,0,0,59.5,44c-.27,2.26-.42,4.58-.56,6.82-.05.85-.11,1.73-.17,2.59a7.39,7.39,0,0,0,0,.77,6.72,6.72,0,0,1,0,1.08h0a3,3,0,0,1-1.64,2.4A2.5,2.5,0,0,1,56.07,57.92ZM47,43h.05a.5.5,0,0,1,.42.35l.25.79a31.8,31.8,0,0,0,4.93,10.1A11.26,11.26,0,0,0,55,56.54a1.74,1.74,0,0,0,1.73.25,2,2,0,0,0,1.06-1.62,5.88,5.88,0,0,0,0-.93,8.27,8.27,0,0,1,0-.87c.06-.86.12-1.74.17-2.58.14-2.26.29-4.59.57-6.88A40.87,40.87,0,0,1,61.77,31a2,2,0,0,0,.07-1.61,2.3,2.3,0,0,0-1.31-1.27,2.13,2.13,0,0,0-2.79,1.08,24.29,24.29,0,0,0-2.34,6.64c-.44,2.13-.82,4.32-1.19,6.43-.16.92-.33,1.87-.49,2.8a.5.5,0,0,1-.95.11l0-.09a2.33,2.33,0,0,1-.14-.34l-.49-1.62c-.42-1.38-.86-2.81-1.24-4.23-.18-.66-.32-1.34-.46-2a25,25,0,0,0-.63-2.55,1.74,1.74,0,0,0-1.22-1.23,1.9,1.9,0,0,0-1.79.59A4.48,4.48,0,0,0,46,34.79c-1.14,2.15-2.29,4.33-3.4,6.45l-1.23,2.33L40.1,46l-.63,1.2a.5.5,0,0,1-.91-.05L38.49,47a1.58,1.58,0,0,1-.12-.35l-.76-4c-.7-3.67-1.42-7.46-2.08-11.2-.3-1.69-.84-2.16-2.41-2.12a2.08,2.08,0,0,0-2,2.42c0,.26.09.53.13.79.08.5.16,1,.26,1.51q.41,2.1.82,4.21c.79,4,1.6,8.23,2.49,12.33a27.3,27.3,0,0,0,1.79,5.24c.2.44.54,1,1.06,1.09a1.78,1.78,0,0,0,1.43-.63,10.58,10.58,0,0,0,2-2.52c1.24-2.28,2.43-4.64,3.59-6.92L46.12,44c.08-.16.17-.31.27-.48l.17-.29A.5.5,0,0,1,47,43ZM58.25,55.23h0ZM70,54.56a9.54,9.54,0,0,1-1.66-.15c-3.47-.61-5.76-2.88-6.65-6.55a16,16,0,0,1,3.43-14.61,7.87,7.87,0,0,1,8-2.78c3.19.63,5.34,2.71,6.37,6.16A17.71,17.71,0,0,1,80,39.37c.05.4.11.81.17,1.21a.5.5,0,0,1,0,.1,17.72,17.72,0,0,1-3.38,10.12l-.4-.3.4.3A8.21,8.21,0,0,1,70,54.56Zm1.24-23.28a6.72,6.72,0,0,0-5.35,2.61,15,15,0,0,0-3.23,13.74c.79,3.3,2.76,5.25,5.85,5.8A7.21,7.21,0,0,0,76,50.22a16.73,16.73,0,0,0,3.18-9.52c-.06-.4-.12-.8-.17-1.19a16.69,16.69,0,0,0-.48-2.59c-.93-3.12-2.76-4.91-5.61-5.47A8.66,8.66,0,0,0,71.22,31.28ZM89.05,54.55a8.55,8.55,0,0,1-1.29-.1A8.29,8.29,0,0,1,81.19,49c-2-5.41-.1-13.07,4.1-16.73a8.15,8.15,0,0,1,6.84-1.81,7.89,7.89,0,0,1,5.6,3.94,13.14,13.14,0,0,1,1.54,6.16s0,0,0,0a17.62,17.62,0,0,1-3.6,10.67l-.4-.3.4.3A8.29,8.29,0,0,1,89.05,54.55ZM90.63,31.3A7.15,7.15,0,0,0,85.94,33c-3.85,3.35-5.63,10.66-3.81,15.63a7.3,7.3,0,0,0,5.78,4.83,7.52,7.52,0,0,0,1.13.09,7.3,7.3,0,0,0,5.84-2.93,16.65,16.65,0,0,0,3.39-10.08,12.16,12.16,0,0,0-1.42-5.69A6.9,6.9,0,0,0,92,31.41,7.52,7.52,0,0,0,90.63,31.3Z"/></svg>