<svg id="Layer_1" data-name="Layer 1" xmlns="http://www.w3.org/2000/svg" viewBox="0 0 87.65 100"><defs><style>.cls-1{fill:#5bc9f4;}.cls-2{fill:#235ee1;}</style></defs><title>Xcode App Development</title><path class="cls-1" d="M8.53,71.48a.14.14,0,0,1,.14-.12h.06L15,74.27a.19.19,0,0,1,.07.29L7.26,84.4Z"/><path d="M8.85,71.82l5.82,2.69L7.73,83.24,8.85,71.82M8.66,71a.49.49,0,0,0-.49.45l-1.28,13a.32.32,0,0,0,.32.35.31.31,0,0,0,.25-.12l7.89-9.93a.54.54,0,0,0-.2-.83L8.87,71a.49.49,0,0,0-.21,0Z"/><rect class="cls-2" x="2.59" y="53.5" width="30.95" height="7.38" transform="translate(-41.77 53.01) rotate(-68.47)"/><path d="M20.51,41.9l6.21,2.45L15.62,72.49,9.41,70,20.51,41.9m-.26-.85a.26.26,0,0,0-.24.16L8.58,70.2a.26.26,0,0,0,.14.33l7.05,2.78.09,0a.26.26,0,0,0,.24-.16l11.43-29a.26.26,0,0,0-.14-.33l-7.05-2.78-.09,0Z"/><rect class="cls-1" x="4.78" y="56.58" width="30.2" height="2.71" transform="translate(-41.31 55.16) rotate(-68.47)"/><path class="cls-1" d="M27.54,42.78l-.09,0L21,40.19a.22.22,0,0,1-.12-.29l1.5-3.8a2.82,2.82,0,0,1,3.67-1.59l1.61.64a2.83,2.83,0,0,1,1.59,3.67l-1.51,3.82a.24.24,0,0,1-.22.15Z"/><path d="M25,34.67a2.46,2.46,0,0,1,.91.17l1.61.64a2.47,2.47,0,0,1,1.39,3.2l-1.47,3.72-6.19-2.48,1.45-3.68A2.46,2.46,0,0,1,25,34.67M25,34a3.18,3.18,0,0,0-3,2l-1.5,3.8a.58.58,0,0,0,.32.75l6.42,2.58a.6.6,0,0,0,.78-.33l1.51-3.82a3.18,3.18,0,0,0-1.79-4.13l-1.61-.64A3.17,3.17,0,0,0,25,34Z"/><path class="cls-2" d="M.4,56.59l12.94-2.17-2.88,7.2a1,1,0,0,1-.83.63l-8.24,1Z"/><path d="M12.78,54.87l-2.64,6.61a.67.67,0,0,1-.54.41l-7.9,1-.89-6,12-2M13.91,54,0,56.29l1.1,7.35,8.59-1a1.38,1.38,0,0,0,1.11-.86L13.91,54Z"/><path d="M60.28,54.8a.53.53,0,0,1-.08-1.06l5.67-.82a.71.71,0,0,0,.6-.78l-.64-5a.61.61,0,0,0-.68-.53L61,47.09A.53.53,0,1,1,60.82,46L65,45.51A1.68,1.68,0,0,1,66.9,47l.64,5A1.78,1.78,0,0,1,66,54l-5.67.82Z"/><path class="cls-2" d="M24.62,53.95a2,2,0,0,1,1.51-1.29L40.39,50.2l.2,0a1.18,1.18,0,0,1,.94.46L46,56.55l-23.6,3.8Z"/><path d="M40.59,50.54a.83.83,0,0,1,.65.32l4.13,5.44L22.94,59.91l2-5.85A1.6,1.6,0,0,1,26.19,53l14.25-2.46h.14m0-.71-.26,0L26.07,52.31a2.31,2.31,0,0,0-1.79,1.52l-2.4,7,24.77-4-4.85-6.38a1.53,1.53,0,0,0-1.22-.6Z"/><path class="cls-2" d="M43,99.65a7.62,7.62,0,0,1-2.49-.46h0a4.8,4.8,0,0,1-2.9-2.37c-1.07-2-.87-4.89.59-8.54v0L54.06,42.52a.75.75,0,0,1,.71-.5L55,42l4.67,1.22a.59.59,0,0,1,.43.71L48.3,95.16a7.68,7.68,0,0,1-1.13,2.27A5,5,0,0,1,43,99.65Z"/><path d="M54.76,41.66v.71h.1l4.67,1.22a.24.24,0,0,1,.17.29L48,95.08a7.34,7.34,0,0,1-1.08,2.17,4.64,4.64,0,0,1-3.88,2,7.27,7.27,0,0,1-2.37-.44h-.08a4.37,4.37,0,0,1-2.67-2.2,6.18,6.18,0,0,1-.62-3,15.37,15.37,0,0,1,1.23-5.19v0L54.39,42.63a.4.4,0,0,1,.37-.27v-.71m0,0a1.11,1.11,0,0,0-1,.74L37.83,88.13c-4,10,2.56,11.39,2.56,11.39A7.92,7.92,0,0,0,43,100c4.41,0,5.65-4.75,5.65-4.75L60.4,44a1,1,0,0,0-.69-1.13L55,41.69a1.11,1.11,0,0,0-.28,0Z"/><path class="cls-1" d="M43.23,95.61s-6.55-1.42-2.56-11.39L55.41,41.79l-.37-.1a1.11,1.11,0,0,0-1.32.71L37.83,88.13c-4,10,2.56,11.39,2.56,11.39,6.13,2.13,8-3.48,8.24-4.2A6,6,0,0,1,43.23,95.61Z"/><path class="cls-1" d="M60.25,41.1a.63.63,0,0,1-.2,0l-4.24-1.41a.52.52,0,0,1-.33-.63l2.91-10.3a72.51,72.51,0,0,0,1.72-10.6h0a19.35,19.35,0,0,0-.94-7,9.46,9.46,0,0,0-7.55-6.2,72.4,72.4,0,0,0-9.86-.61h-.7a28.22,28.22,0,0,1,15-4,38.22,38.22,0,0,1,10.7,1.56l.87.24c.29.07.58.15.87.24,5.6,1.73,7.75,4.5,7.77,4.52v0l0,0a5.53,5.53,0,0,0,3.09,1.48l.33,0a2.39,2.39,0,0,0,.74-.12,12,12,0,0,1,3-.74h0l.12,0a8.26,8.26,0,0,1,3.62,1.49L84,19.93l-3.64-1a1.64,1.64,0,0,1-.93-.68v0l0,0a5.41,5.41,0,0,0-1.53-1.52,6.58,6.58,0,0,0-3.51-.94,6.4,6.4,0,0,0-.68,0c-2.45.13-4.52,1.55-6,4.13a14.09,14.09,0,0,0-1.46,3.82l-5.39,17a.63.63,0,0,1-.6.44Z"/><path d="M56.06.71A37.85,37.85,0,0,1,66.65,2.26l.89.24c.3.08.58.15.85.23a19.7,19.7,0,0,1,5.87,2.84A9.31,9.31,0,0,1,76,7.13l0,0,0,0a5.89,5.89,0,0,0,3.29,1.58l.38,0a2.75,2.75,0,0,0,.85-.13A13.73,13.73,0,0,1,83.39,8l.19,0a7.8,7.8,0,0,1,3.25,1.28L83.76,19.49l-3.3-.94a1.36,1.36,0,0,1-.72-.5v0l-.05-.07a5.8,5.8,0,0,0-1.63-1.61,6.94,6.94,0,0,0-3.7-1,6.79,6.79,0,0,0-.71,0c-2.57.14-4.74,1.63-6.25,4.31a14.52,14.52,0,0,0-1.49,3.91L60.51,40.55a.27.27,0,0,1-.26.19h-.09l-4.24-1.41a.16.16,0,0,1-.1-.2l2.91-10.3a71.31,71.31,0,0,0,1.73-10.67v0a19.7,19.7,0,0,0-1-7.08,9.81,9.81,0,0,0-7.83-6.43A70.66,70.66,0,0,0,42.38,4a26.09,26.09,0,0,1,5.88-2.31,31,31,0,0,1,7.8-1m0-.71A28.5,28.5,0,0,0,39.82,4.71s.74,0,1.93,0a71.42,71.42,0,0,1,9.81.61,9.13,9.13,0,0,1,7.27,6,18.84,18.84,0,0,1,.92,6.83A71.67,71.67,0,0,1,58,28.62l-2.91,10.3A.87.87,0,0,0,55.7,40l4.24,1.41a1,1,0,0,0,1.25-.64l5.39-17S68,16.38,73.7,16.1a5.83,5.83,0,0,1,.65,0,6.17,6.17,0,0,1,3.33.89,4.93,4.93,0,0,1,1.42,1.42,2,2,0,0,0,1.14.85l4,1.14L87.65,9a8.59,8.59,0,0,0-4-1.71s0,0-.2,0A12.29,12.29,0,0,0,80.35,8a2,2,0,0,1-.63.1l-.28,0A5.16,5.16,0,0,1,76.55,6.7S74.38,3.83,68.6,2c-.57-.18-1.17-.3-1.74-.47A38.34,38.34,0,0,0,56.06,0Z"/><path d="M47.76,56.72a.53.53,0,0,1-.41-.19l-22-26.6a4.52,4.52,0,0,1,7-5.76L51.19,47a.53.53,0,0,1-.82.68L31.47,24.84a3.45,3.45,0,0,0-5.32,4.4l22,26.6a.53.53,0,0,1-.41.87Z"/><path d="M64.06,78.71V76.46c0-.78-.26-2.92-1.4-3.5a27.89,27.89,0,0,1-3.33-1.78C57,69.7,55.8,68.32,55.8,67.06a.53.53,0,0,1,1.06,0c0,.84,1.07,2,3,3.22A27.18,27.18,0,0,0,63.09,72h0a3.79,3.79,0,0,1,1.75,2.56c1.64-4.09,1.53-7.68-.34-10.7a10.93,10.93,0,0,0-3.86-3.71,1.83,1.83,0,0,0-2.42,1.12.53.53,0,0,1-1-.38,3.52,3.52,0,0,1,.85-1.24,2.7,2.7,0,0,1,3-.5l.05,0a11.83,11.83,0,0,1,4.31,4.11,10.93,10.93,0,0,1,1.63,5.48,16.7,16.7,0,0,1-2,7.92Z"/><path d="M54.76,41.66v.71h.1l4.67,1.22a.24.24,0,0,1,.17.29L48,95.08a7.34,7.34,0,0,1-1.08,2.17,4.64,4.64,0,0,1-3.88,2,7.27,7.27,0,0,1-2.37-.44h-.08a4.37,4.37,0,0,1-2.67-2.2,6.18,6.18,0,0,1-.62-3,15.37,15.37,0,0,1,1.23-5.19v0L54.39,42.63a.4.4,0,0,1,.37-.27v-.71m0,0a1.11,1.11,0,0,0-1,.74L37.83,88.13c-4,10,2.56,11.39,2.56,11.39A7.92,7.92,0,0,0,43,100c4.41,0,5.65-4.75,5.65-4.75L60.4,44a1,1,0,0,0-.69-1.13L55,41.69a1.11,1.11,0,0,0-.28,0Z"/></svg>