<svg id="Layer_1" data-name="Layer 1" xmlns="http://www.w3.org/2000/svg" viewBox="0 0 88.5 100.01"><defs><style>.cls-1{fill:#8dce00;}.cls-2{fill:#daf761;}.cls-3{fill:#597200;}.cls-4{fill:#ffdd7d;}.cls-5{fill:#ffc533;}</style></defs><title>xml</title><polygon class="cls-1" points="26.38 78.69 26.38 38.19 78.69 38.19 78.69 21.32 58.44 21.32 58.44 1.07 1.07 1.07 1.07 98.94 78.69 98.94 78.69 78.69 26.38 78.69"/><polygon class="cls-2" points="1.07 98.94 6.13 98.94 6.13 1.07 1.07 1.07 1.07 98.94"/><polygon class="cls-3" points="73.63 98.94 78.69 98.94 78.69 21.32 73.63 21.32 73.63 98.94"/><polygon class="cls-3" points="78.69 21.32 58.44 21.32 58.44 1.07 78.69 21.32"/><path d="M78.69,22.38H58.44a1.07,1.07,0,0,1-1.07-1.07V1.07A1.07,1.07,0,0,1,59.2.31L79.45,20.56a1.07,1.07,0,0,1-.75,1.82ZM59.51,20.25H76.12L59.51,3.64Z"/><path d="M78.69,100H1.07A1.07,1.07,0,0,1,0,98.94V30.53a1.07,1.07,0,0,1,2.13,0V97.88H77.63V79.76H26.38a1.07,1.07,0,0,1-1.07-1.07V38.19a1.07,1.07,0,0,1,1.07-1.07H77.63V22.38H58.44a1.07,1.07,0,0,1-1.07-1.07V2.13H2.13V13.42a1.07,1.07,0,1,1-2.13,0V1.07A1.07,1.07,0,0,1,1.07,0H58.44a1.07,1.07,0,0,1,1.07,1.07V20.25H78.69a1.07,1.07,0,0,1,1.07,1.07V38.19a1.07,1.07,0,0,1-1.07,1.07H27.45V77.63H78.69a1.07,1.07,0,0,1,1.07,1.07V98.94A1.07,1.07,0,0,1,78.69,100Z"/><path d="M1.07,25.86A1.07,1.07,0,0,1,0,24.79V19.16a1.07,1.07,0,1,1,2.13,0v5.64A1.07,1.07,0,0,1,1.07,25.86Z"/><rect class="cls-4" x="7.82" y="38.19" width="79.61" height="40.5" rx="6.54" ry="6.54"/><path class="cls-5" d="M81.68,77.83h0C85,75.27,87.43,75.45,87.43,74V43.29c0-1.46-2.58-5.76-5.76-5.76h0c-3.18,0-5.76,1.18-5.76,2.64V77.11C75.92,78.57,78.5,77.83,81.68,77.83Z"/><path d="M79.77,79.76H15.49A8.74,8.74,0,0,1,6.76,71V45.86a8.74,8.74,0,0,1,8.73-8.73H79.77a8.74,8.74,0,0,1,8.73,8.73V71A8.74,8.74,0,0,1,79.77,79.76ZM15.49,39.26a6.61,6.61,0,0,0-6.6,6.6V71a6.61,6.61,0,0,0,6.6,6.6H79.77a6.61,6.61,0,0,0,6.6-6.6V45.86a6.61,6.61,0,0,0-6.6-6.6Z"/><path d="M31.63,46l-5.71,9.92L20.21,46H16.39L24,59.36,16.39,72.7h3.82l5.71-9.9,5.71,9.9h3.82L27.82,59.36,35.45,46Zm0,0"/><path d="M54.5,46,48.79,57.46,43.08,46H39.26V72.7h3.82V53.65l3.79,7.63h3.82l3.82-7.63V72.7h3.82V46H54.5Zm0,0"/><path d="M65.92,46H62.13V72.7H81.19V68.89H65.92Zm0,0"/></svg>