<svg id="Layer_1" data-name="Layer 1" xmlns="http://www.w3.org/2000/svg" viewBox="0 0 86.62 99.83"><defs><style>.cls-1{fill:#e58b48;}.cls-2{fill:#2882bb;}.cls-3{fill:#9bc73a;}.cls-4{fill:#ffaf78;}.cls-5{fill:#d3fc65;}</style></defs><title>yii</title><path class="cls-1" d="M59.51,60.9c-.6-.07-.75,0-.83-.1-10-6.94-21.31-10.53-32.85-13.67a54.33,54.33,0,0,1-7.75-2.61,27.41,27.41,0,0,1-16-28,2.58,2.58,0,0,1,1.49-1.7c13.14-4.55,25.16-3,35.71,6.64,8,7.29,13,16.38,16.51,26.44C57.2,52.1,58.24,56.45,59.51,60.9Z" transform="translate(0 0)"/><path class="cls-2" d="M30.4,98a37.48,37.48,0,0,1,.5-16.33c1.8-7.56,5.86-13.91,10.69-19.84A1.53,1.53,0,0,1,43,61.47a62.54,62.54,0,0,1,16.4,9.09,2.77,2.77,0,0,1,.71,2.2c-1.9,12.93-9.7,21.12-22.87,24C35,97.3,32.83,97.56,30.4,98Z" transform="translate(0 0)"/><path class="cls-3" d="M65.66,56.16C64.28,46.78,61,38.41,57.1,30.27c-1.72-3.54-3.16-7.1-2.86-11.22C55,8.15,64.63,2.35,71.93,1.87a4.44,4.44,0,0,1,2.4.79C80.75,6.66,83.6,12.8,84.54,20a26.91,26.91,0,0,1-2.21,14.2C78.68,42.83,72.42,49.45,65.66,56.16Z" transform="translate(0 0)"/><path d="M65.66,58a1.87,1.87,0,0,1-1.85-1.6c-1.18-8-3.76-15.81-8.4-25.35-1.65-3.4-3.38-7.42-3-12.17A19.55,19.55,0,0,1,59.44,5.13,21.93,21.93,0,0,1,71.81,0a6.21,6.21,0,0,1,3.51,1.07c6.33,3.93,10,10.05,11.08,18.7A28.52,28.52,0,0,1,84.06,35C80.26,43.87,73.81,50.7,67,57.49A1.87,1.87,0,0,1,65.66,58ZM72.07,3.73h0c-6.19.41-15.23,5.47-15.95,15.45-.25,3.45.84,6.49,2.67,10.27a93.43,93.43,0,0,1,8.11,22.83c5.59-5.69,10.67-11.58,13.74-18.79a24.9,24.9,0,0,0,2.07-13.23c-1-7.47-4-12.71-9.35-16A3,3,0,0,0,72.07,3.73Z" transform="translate(0 0)"/><path d="M59.51,62.77h-.21l-.46,0a2.27,2.27,0,0,1-1.24-.38c-9-6.27-19.31-9.72-28.2-12.27a1.87,1.87,0,1,1,1-3.59c8.17,2.34,17.5,5.42,26.11,10.7-.82-3-1.59-5.86-2.56-8.67-3.75-10.85-9-19.25-16-25.67C28.39,14.08,17.33,12,4.17,16.58a1.22,1.22,0,0,0-.29.3A25.58,25.58,0,0,0,18.83,42.81a1.87,1.87,0,1,1-1.51,3.41A29.34,29.34,0,0,1,.18,16.32a4.37,4.37,0,0,1,2.73-3.25c14.38-5,27-2.62,37.58,7,7.5,6.85,13.06,15.75,17,27.21,1,2.94,1.81,5.85,2.65,8.94.37,1.36.75,2.76,1.15,4.16a1.87,1.87,0,0,1-1.79,2.38ZM3.85,16.92h0Zm.29-.33h0Z" transform="translate(0 0)"/><path d="M30.4,99.83a1.87,1.87,0,0,1-1.83-1.5,39.44,39.44,0,0,1,.52-17.12c1.63-6.85,5-13.2,11.06-20.59a3.31,3.31,0,0,1,3.51-.88,63.67,63.67,0,0,1,16.88,9.37A4.55,4.55,0,0,1,61.93,73a30.52,30.52,0,0,1-6.86,15.86,1.87,1.87,0,0,1-2.82-2.44,26.86,26.86,0,0,0,6-14,1.37,1.37,0,0,0-.12-.55,59.63,59.63,0,0,0-15.4-8.57c-5.45,6.76-8.54,12.54-10,18.69a35.94,35.94,0,0,0-.79,13.77l.49-.07c1.54-.23,3-.45,4.4-.77a31.69,31.69,0,0,0,10.46-4.22,1.87,1.87,0,1,1,2,3.13,35.39,35.39,0,0,1-11.69,4.74c-1.53.34-3,.57-4.65.81l-2.27.35Zm27.7-27.93h0Z" transform="translate(0 0)"/><path class="cls-4" d="M36.21,25.89a.93.93,0,0,1-.66-.27c-7.4-7.41-18.29-7.75-18.4-7.75a.93.93,0,0,1,0-1.87c.48,0,11.75.37,19.68,8.3a.93.93,0,0,1-.66,1.59Z" transform="translate(0 0)"/><path class="cls-5" d="M77.15,35.58a.93.93,0,0,1-.88-1.23c4.23-12.47.23-18.13.19-18.18A.93.93,0,0,1,77.95,15c.19.26,4.66,6.4.09,19.9A.93.93,0,0,1,77.15,35.58Z" transform="translate(0 0)"/></svg>