<svg id="Layer_1" data-name="Layer 1" xmlns="http://www.w3.org/2000/svg" viewBox="0 0 206.33 100.01"><defs><style>.cls-1{fill:#d9ff50;}.cls-2{fill:#90c400;}</style></defs><title>zend</title><path class="cls-1" d="M45.82,76.94c.49,0,.81.07,1.13.07H87.73a6.15,6.15,0,0,0,.67,0c.54-.06.69.18.69.7q0,9.81,0,19.62c0,.61-.27.68-.77.67H4L58.89,23.06c-.47,0-.76-.07-1.06-.07H12.7c-1,0-1,0-1-1q0-9.54,0-19.09c0-.89,0-.89.88-.89h87.93Z"/><path class="cls-2" d="M98.09,29.71c.66-8.06,3-15.24,9.16-20.69a22.77,22.77,0,0,1,10.88-5.11,34.1,34.1,0,0,1,6.64-.57h79.39c-.08,1-.1,2-.23,2.89a31.47,31.47,0,0,1-4.07,12.07,22.27,22.27,0,0,1-15.75,10.81,37.58,37.58,0,0,1-6.64.58q-39.14.06-78.27,0Z"/><path class="cls-2" d="M143.11,37.26h20.35c.87,0,.92,0,.85.88-.65,7.56-3,14.37-8.83,19.6a21.92,21.92,0,0,1-11.74,5.39,51.44,51.44,0,0,1-7.25.53c-12.41.05-24.82,0-37.22,0-1.12,0-1.12,0-1-1.1a31.24,31.24,0,0,1,3.6-12.82,22.35,22.35,0,0,1,16.57-11.95,37.05,37.05,0,0,1,6-.53C130.66,37.22,136.88,37.26,143.11,37.26Z"/><path class="cls-2" d="M105.82,97.58H99.09c-1,0-.93,0-.88-1a31.66,31.66,0,0,1,2.34-10.24C104,78.07,110.11,73.09,119,71.6a35.19,35.19,0,0,1,5.32-.42c4.24-.06,8.48,0,12.72,0,.63,0,.82.18.76.79-.72,8.05-3.29,15.23-9.79,20.5a23,23,0,0,1-10.62,4.61C113.47,97.76,109.52,97.54,105.82,97.58Z"/><path d="M88.35,100H0L55,25H12.7c-2.12,0-3-.9-3-3q0-9.54,0-19.09c0-2,.89-2.9,2.89-2.9h91.88L49.72,75H88.19a2.57,2.57,0,0,1,2.07.61,2.67,2.67,0,0,1,.84,2.09c0,7.53,0,13.76,0,19.61a2.64,2.64,0,0,1-.74,1.95A2.75,2.75,0,0,1,88.35,100Zm-14-4H87.08c0-5.12,0-10.58,0-17H46.94c-.29,0-.55,0-.83,0l-.42,0L42,78.71,96.54,4H13.69q0,8.48,0,17H57.84c.27,0,.52,0,.78,0l.4,0,3.66.23L7.92,96H74.33Z"/><path d="M109.75,99.59H99.09a2.5,2.5,0,0,1-2.89-3v0a33.79,33.79,0,0,1,2.49-10.88c3.7-9,10.42-14.41,20-16a36.75,36.75,0,0,1,5.62-.45c2.48,0,5,0,7.42,0H137a2.79,2.79,0,0,1,2.14.82,2.69,2.69,0,0,1,.64,2.16C138.93,81.81,135.48,89,129.27,94a24.86,24.86,0,0,1-11.52,5A44.16,44.16,0,0,1,109.75,99.59Zm-2.87-4h1.42a47.54,47.54,0,0,0,8.73-.49,21,21,0,0,0,9.71-4.19c5.1-4.14,8-9.79,8.91-17.72h-3.95c-2.42,0-4.91,0-7.36,0a32.89,32.89,0,0,0-5,.39c-8.2,1.38-13.74,5.82-16.92,13.58a29.83,29.83,0,0,0-2.1,8.42h6.57Z"/><path d="M131.66,31.72H95.91l.18-2.17c.81-9.84,3.93-16.84,9.83-22a24.57,24.57,0,0,1,11.82-5.57,35.61,35.61,0,0,1,7-.61h33.76a2,2,0,1,1,0,4H124.77a31.72,31.72,0,0,0-6.25.54,20.68,20.68,0,0,0-9.95,4.65c-4.64,4.08-7.29,9.57-8.26,17.17h15.2c20.31,0,41.31,0,62,0a35.53,35.53,0,0,0,6.28-.54,20.38,20.38,0,0,0,14.39-9.87A29.35,29.35,0,0,0,202,6c0-.2,0-.4.07-.61H178a2,2,0,1,1,0-4h28.34l-.16,2.16c0,.31,0,.61-.06.91,0,.68-.08,1.39-.18,2.11a33.26,33.26,0,0,1-4.34,12.83,24.24,24.24,0,0,1-17.11,11.75,39.56,39.56,0,0,1-7,.61C162.26,31.72,146.84,31.72,131.66,31.72Z"/><path d="M118.46,65.71H99.27a2.61,2.61,0,0,1-3.05-3.24,33.37,33.37,0,0,1,3.84-13.63,24.32,24.32,0,0,1,18-13,39.09,39.09,0,0,1,6.37-.56c4.27,0,6.08,0,8.82,0h4.66a2,2,0,0,1,0,4h-4.67c-2.72,0-4.52,0-8.76,0a35.09,35.09,0,0,0-5.71.5,20.22,20.22,0,0,0-15.15,10.92,29.14,29.14,0,0,0-3.28,11h8.59c9,0,18.39,0,27.58,0a49.45,49.45,0,0,0,7-.51,20,20,0,0,0,10.69-4.89c4.62-4.17,7.19-9.59,8-17h-8.67a2,2,0,0,1,0-4h10a2.49,2.49,0,0,1,2.85,3.06c-.77,9-3.87,15.86-9.48,20.92A23.91,23.91,0,0,1,144,65.12a53.49,53.49,0,0,1-7.53.56C130.51,65.7,124.46,65.71,118.46,65.71Z"/><path class="cls-1" d="M176,23.81H144.47a1.61,1.61,0,0,1,0-3.21H176a1.61,1.61,0,1,1,0,3.21Z"/><path class="cls-1" d="M181.75,23.8a4.26,4.26,0,0,1-.58,0,1.61,1.61,0,0,1,.44-3.18c.19,0,3.51.28,7.88-4.32a1.61,1.61,0,0,1,2.33,2.21C187.24,23.3,183.21,23.8,181.75,23.8Z"/><path class="cls-1" d="M138.07,57.27H106.56a1,1,0,1,1,0-2h31.51a1,1,0,1,1,0,2Z"/><path class="cls-1" d="M143.87,57.27a3.85,3.85,0,0,1-.52,0,1,1,0,0,1,.28-2c.08,0,3.76.37,8.39-4.5a1,1,0,1,1,1.45,1.38C149,56.8,145.23,57.27,143.87,57.27Z"/></svg>