<svg id="Layer_1" data-name="Layer 1" xmlns="http://www.w3.org/2000/svg" viewBox="0 0 123.25 99.79"><defs><style>.cls-1{fill:#f69833;}.cls-2{fill:#fdbd39;}.cls-3{fill:#fecf33;}.cls-4{fill:#e85e00;}</style></defs><title>zeplin</title><polygon class="cls-1" points="28.89 44.9 0.71 59.51 15.15 75.86 37.06 64.49 28.89 44.9"/><polygon class="cls-2" points="48.37 82.46 20.2 97.08 15.15 75.86 37.06 64.49 48.37 82.46"/><path d="M15.15,76.57a.71.71,0,0,1-.53-.24L.18,60a.71.71,0,0,1,.21-1.1L28.56,44.27a.71.71,0,0,1,1,.36l8.18,19.59a.71.71,0,0,1-.33.91L15.48,76.49A.71.71,0,0,1,15.15,76.57ZM1.85,59.73,15.32,75,36.16,64.16,28.53,45.89Z" transform="translate(0 0)"/><path d="M20.2,97.79a.71.71,0,0,1-.69-.55L14.46,76a.71.71,0,0,1,.36-.8L36.74,63.86a.71.71,0,0,1,.93.25L49,82.08a.71.71,0,0,1-.27,1L20.53,97.71A.71.71,0,0,1,20.2,97.79ZM16,76.24,20.68,96,47.36,82.19,36.81,65.43Z" transform="translate(0 0)"/><path class="cls-3" d="M60.85,28.32C81.09,17.82,101.76,14,116.58,16.83,105.65,6.71,80.16,8,55.41,20.85c-26.6,13.8-42.79,36-37.77,50.91C22.35,56.81,38.38,40,60.85,28.32Z" transform="translate(0 0)"/><path class="cls-2" d="M120.11,21.41a16.81,16.81,0,0,0-3.53-4.59c-14.82-2.82-35.49,1-55.73,11.49C38.38,40,22.35,56.81,17.64,71.75a16.41,16.41,0,0,0,1,2.31Z" transform="translate(0 0)"/><path class="cls-4" d="M80.34,65.88c20.24-10.5,35.26-25.2,41.49-38.94,2,14.76-13.76,34.85-38.51,47.69-26.6,13.8-54.05,14.26-63.37,1.56C34.87,80.95,57.87,77.54,80.34,65.88Z" transform="translate(0 0)"/><path class="cls-1" d="M120.11,21.41a16.81,16.81,0,0,1,1.72,5.53c-6.23,13.74-21.24,28.44-41.49,38.94C57.87,77.54,34.87,80.95,19.94,76.19a16.41,16.41,0,0,1-1.33-2.13Z" transform="translate(0 0)"/><path d="M44.4,85.88c-11.33,0-20-3.34-24.48-9.46a.71.71,0,0,1,.79-1.1C36,80.2,59,76.26,80.56,65.05l.33.63-.33-.63C99.94,55,115.33,40.57,121.73,26.45a.71.71,0,0,1,1.35.2c1,7.39-2.34,16.31-9.38,25.11S96.15,68.86,84.19,75.07c-12.91,6.7-26.58,10.53-38.48,10.8ZM22.54,77.32c4.72,4.84,12.82,7.36,23.13,7.12,11.69-.26,25.13-4,37.86-10.64,22.66-11.75,38.2-29.95,38.3-44.33-7.11,13.6-22.07,27.22-40.62,36.84C60.32,77.16,38.14,81.27,22.54,77.32Z" transform="translate(0 0)"/><path d="M18.19,72.27a.71.71,0,0,1-.67-.48c-2.51-7.48,0-16.9,7.13-26.53S42.72,26.72,55.63,20C67.44,13.89,80.1,10.1,91.29,9.35a.71.71,0,1,1,.1,1.42c-11,.74-23.46,4.47-35.1,10.51C43.56,27.88,32.73,36.7,25.79,46.1c-6.13,8.3-8.74,16.37-7.5,23,5.75-15,21.89-30.79,42.79-41.63,18.54-9.62,38.29-14,53.5-12-4.37-3-10.52-4.7-18-4.86a.71.71,0,1,1,0-1.42c9.06.2,16.31,2.58,21,6.89a.71.71,0,0,1-.62,1.22c-15.23-2.9-35.89,1.37-55.27,11.42-21.61,11.21-38,27.69-42.86,43a.71.71,0,0,1-.67.5Z" transform="translate(0 0)"/><path d="M19.16,74.58a.71.71,0,0,1-.63-.38,17.2,17.2,0,0,1-1-2.41.71.71,0,0,1,0-.44c4.94-15.68,21.64-32.48,43.57-43.86C80.73,17.29,101.73,13,117.26,15.93a.71.71,0,0,1,.35.18,17.57,17.57,0,0,1,3.68,4.78.71.71,0,0,1-.3,1L100.48,32.49l-.66-1.26,19.86-10.3a16.25,16.25,0,0,0-2.89-3.63C101.59,14.47,81,18.74,61.73,28.75c-21.5,11.15-37.87,27.53-42.79,42.8.16.46.35.91.55,1.35L80.43,41.29l.66,1.26-61.59,32A.71.71,0,0,1,19.16,74.58Z" transform="translate(0 0)"/><rect x="87.47" y="36.18" width="5.96" height="1.42" transform="translate(-6.83 45.79) rotate(-27.42)"/><path d="M35.35,78.79a49.94,49.94,0,0,1-15.08-2.12.71.71,0,0,1-.36-.26,17.23,17.23,0,0,1-1.39-2.22.71.71,0,0,1,.3-1l61.59-32a.71.71,0,1,1,.66,1.26L20.14,74.16c.24.42.51.82.79,1.22,15.31,4.77,38.13.82,59.63-10.33,19.29-10,34.63-24.36,41.08-38.42a16.25,16.25,0,0,0-1.3-4.45l-19.86,10.3a.71.71,0,0,1-.66-1.26l20.51-10.64a.71.71,0,0,1,1,.3,17.57,17.57,0,0,1,1.79,5.76A.71.71,0,0,1,123,27c-6.53,14.4-22.15,29.09-41.81,39.28C65.55,74.45,49.15,78.79,35.35,78.79Z" transform="translate(0 0)"/><path d="M87.81,39a.71.71,0,0,1-.33-1.34l5.29-2.74a.71.71,0,1,1,.66,1.26l-5.29,2.74A.71.71,0,0,1,87.81,39Z" transform="translate(0 0)"/><path d="M98.11,85.91h-.22l-.47,0-.48,0-.5-.07-.51-.09-.52-.11-.54-.13-.55-.15-.57-.17-.58-.19-.59-.21L92,84.47l-.62-.25-.63-.27-.65-.29-.66-.31L88.73,83,88,82.67l-.7-.36-.71-.38-.72-.4-.73-.42-.75-.43-.76-.45-.77-.47-.78-.48-.79-.5-.8-.52-.81-.53-.81-.55-.82-.56-.83-.58-.84-.59-.85-.61-.85-.62-.86-.64L73,72.93l-.87-.67-.88-.68-.89-.69-.89-.71-.9-.72-.9-.74L66.77,68l-.91-.76-.91-.77L64,65.66l-.92-.8L62.18,64l-.92-.82-.93-.83-.93-.85-.93-.86-.93-.87-.93-.88-.93-.88-.91-.88-.9-.88L53,55.41l-.88-.88-.87-.88-.86-.88-.85-.88L48.69,51l-.82-.87-.81-.87-.79-.87-.78-.86-.77-.86L44,45.84,43.23,45l-.73-.84-.71-.84-.7-.83-.68-.83-.67-.82L39.09,40l-.64-.81-.62-.8-.6-.79-.59-.78L36.07,36l-.56-.77L35,34.52l-.52-.75L33.95,33l-.49-.73L33,31.57l-.45-.71-.43-.7-.42-.69-.4-.68-.38-.67-.36-.66-.34-.64-.32-.63-.3-.62L29.29,25l-.26-.6-.24-.58-.22-.57-.2-.56-.18-.54q-.09-.27-.16-.53c-.05-.17-.1-.35-.14-.52s-.08-.34-.12-.5-.07-.33-.1-.49-.05-.32-.07-.48,0-.32,0-.47,0-.31,0-.45,0-.3,0-.44,0-.29,0-.43,0-.28.06-.42.06-.28.09-.41.08-.26.12-.39.1-.26.16-.38a4,4,0,0,1,.19-.36,3.82,3.82,0,0,1,.23-.34,3.76,3.76,0,0,1,.26-.31l.3-.28.32-.24.35-.21.37-.18.39-.14.4-.11L31.2,14l.43-.05.44,0h.45l.47,0,.48,0L34,14l.51.09.52.11.54.13.55.15.57.17.58.19.59.21.61.23.62.25.63.27.65.29.66.31.67.33.69.34.7.36.71.38.72.4.73.42.75.43.76.45.77.47.78.48.79.5.8.52.81.53a1,1,0,1,1-1.13,1.69l-.79-.52L48,22.71l-.77-.49-.76-.47-.75-.46L45,20.86l-.73-.42-.71-.4-.7-.39-.69-.37-.68-.35-.66-.33-.65-.31L39.5,18l-.62-.28-.6-.26-.59-.24L37.13,17l-.55-.2L36,16.62l-.52-.16-.5-.14-.48-.12-.46-.1L33.65,16,33.24,16l-.39,0-.37,0h-.35l-.32,0-.3,0-.27.05-.24.07-.22.08-.19.09-.17.1-.15.11-.14.13-.12.14-.11.16-.09.18-.08.2c0,.07,0,.14-.07.22s0,.16-.05.25,0,.18,0,.27,0,.2,0,.3,0,.21,0,.32,0,.23,0,.35,0,.24,0,.37,0,.26.06.39,0,.27.08.41.06.29.1.43L30,21l.14.47.16.49.19.51.21.52.23.54.25.56.27.57.29.59.31.6.33.62.35.63.37.64.39.66.4.67.42.68.44.69.46.7.48.71.49.72.51.73.53.74.55.75.56.76.58.77.6.78.61.79.63.8.64.8.66.81.67.82.69.82.7.83.72.83.73.84.74.84.76.85.77.85.79.86.8.86.81.86.82.87.84.87.85.87.86.87.87.87.88.87.9.87.91.88.92.88.92.87.92.86.92.85.92.84.92.83.92.81.91.8.91.79.91.78.9.77.9.75.9.74.89.73.89.71.88.7.88.69.87.67.86.66.86.64.85.63.84.61.83.6.83.58.82.57.81.55.8.54.79.52.78.51.77.49L84,78l.75.46.74.44.73.42.71.4.7.39.69.37.67.35.66.33.65.31.63.3.62.28.6.26.59.24.57.22.55.2.54.18.52.16.5.14.48.12.46.1.44.08.42.06.39,0,.37,0h.35l.32,0,.29,0,.27-.05.24-.07.22-.08.19-.09.17-.1.15-.12.14-.13.12-.14.11-.16.09-.18.08-.2c0-.07,0-.14.07-.22s0-.16.05-.25,0-.18,0-.27,0-.19,0-.3,0-.21,0-.32,0-.23,0-.34,0-.24,0-.37,0-.26-.06-.39,0-.27-.08-.41-.06-.29-.1-.43l-.12-.45-.14-.47-.16-.49-.19-.51-.21-.52-.23-.54-.25-.56L99,75.09l-.29-.59-.31-.6-.33-.62-.35-.63L97.37,72,97,71.36l-.4-.67L96.16,70l-.44-.69-.46-.7-.48-.71a1,1,0,1,1,1.69-1.14l.49.73.47.72.45.71.43.7.42.69.4.68.38.67.36.66.34.64.32.63.3.62.28.61.26.6.24.58.22.57.2.56.18.54.16.53c.05.17.1.35.14.52s.08.34.12.5.07.33.09.49.05.32.07.48,0,.31,0,.47,0,.31,0,.46,0,.3,0,.44,0,.29,0,.43,0,.28-.06.42-.06.28-.09.41-.08.26-.12.39-.1.26-.16.38a4,4,0,0,1-.19.36,3.79,3.79,0,0,1-.49.64,3.79,3.79,0,0,1-.3.28l-.32.25-.35.21-.37.18-.39.14-.4.11-.41.08-.43.05-.44,0Z" transform="translate(0 0)"/><path d="M72,99.79h-.27l-.4,0-.4-.09-.39-.13-.38-.16-.38-.19-.37-.22L69,98.69l-.36-.28-.35-.31L68,97.76l-.35-.36L67.27,97l-.34-.41-.34-.44-.34-.46-.34-.49-.34-.51-.34-.53-.33-.56L64.57,93l-.33-.61-.33-.63-.33-.65-.33-.67-.33-.7-.33-.72-.32-.74-.32-.76-.32-.78-.32-.8L61,85.16l-.31-.84-.31-.86-.31-.88-.31-.9-.31-.92-.3-.93-.3-1-.3-1-.29-1-.29-1-.29-1-.28-1-.28-1-.28-1.06-.27-1.08-.27-1.09L56,68.49l-.26-1.12-.25-1.14-.25-1.15L55,63.92l-.24-1.17-.24-1.18-.23-1.2-.22-1.21-.22-1.22-.21-1.23-.21-1.24-.2-1.25L53,53l-.19-1.27-.18-1.27-.17-1.26q-.08-.63-.17-1.25l-.16-1.25q-.08-.62-.15-1.24t-.14-1.23q-.07-.61-.13-1.22t-.12-1.21q-.06-.6-.11-1.2t-.11-1.19q-.05-.59-.1-1.18T51.23,37q0-.58-.08-1.16t-.07-1.15q0-.57-.07-1.14T51,32.46q0-.56,0-1.11t0-1.1q0-.55,0-1.09t0-1.07q0-.53,0-1.06t0-1q0-.52,0-1t0-1q0-.5,0-1t0-1q0-.49,0-1t0-.95q0-.47,0-.93t.05-.91q0-.45.06-.89t.07-.88q0-.43.08-.86t.08-.84q0-.41.09-.82t.1-.8q.05-.4.11-.78t.11-.76q.06-.37.12-.74t.13-.72q.07-.35.14-.7l.14-.67.15-.65.16-.63.17-.61.18-.59L53,5.72l.19-.54.2-.52.21-.49.22-.47.23-.45.24-.42.25-.4.26-.37.28-.35.29-.32.3-.29L56,.84l.34-.23.36-.2L57.1.24l.39-.12.4-.08.41,0h.41l.4,0,.4.09.39.13.38.16.38.19L61,.85l.36.25.36.28.35.31.35.33.35.36.34.39.34.41.34.44.34.46.34.49.34.51.34.54.33.56.33.58.33.61.33.63.33.65.33.67.33.7.33.72.32.74.32.76.32.78.32.8a1,1,0,0,1-1.89.74l-.31-.78L66.59,13l-.31-.74L66,11.56l-.31-.69-.32-.67L65,9.55l-.32-.62-.32-.6-.32-.57-.31-.55-.31-.52-.31-.5-.31-.47-.31-.44-.31-.42-.3-.39-.3-.36-.3-.33L61,3.47l-.29-.27L60.45,3l-.27-.21-.26-.18-.25-.15-.24-.12-.23-.1L59,2.11l-.21,0-.2,0h-.19l-.18,0-.18,0-.18.06-.18.08-.19.1-.19.13-.2.16-.2.19-.2.22-.2.25-.2.28-.2.31-.2.34-.19.37L55.5,5l-.18.43-.18.46L55,6.37l-.17.51-.16.54L54.48,8l-.15.59-.14.62-.14.64q-.07.33-.13.66t-.12.69q-.06.35-.12.71t-.11.73q-.05.37-.1.75t-.1.77q0,.39-.09.8t-.08.82q0,.41-.07.84t-.07.86q0,.43-.06.87t-.05.89q0,.45,0,.91t0,.93q0,.47,0,.95t0,1q0,.49,0,1t0,1q0,.5,0,1t0,1q0,.52,0,1t0,1.06q0,.53,0,1.07t0,1.09q0,.55,0,1.1T53,33.48q0,.56.06,1.12t.07,1.14q0,.57.08,1.15T53.35,38q0,.58.1,1.17t.11,1.18q.05.59.11,1.19t.12,1.2q.06.6.13,1.21t.14,1.22q.07.61.15,1.23t.16,1.23l.16,1.24.17,1.25.18,1.26.19,1.25.19,1.25.2,1.24.21,1.23.21,1.22.22,1.21.22,1.2.23,1.18.23,1.17L57,63.51l.24,1.15.25,1.14.25,1.12L58,68l.26,1.1.26,1.08.27,1.07.27,1.05.28,1,.28,1,.28,1,.29,1,.29,1,.29,1,.29.94.3.92.3.9.3.88.3.86.31.84.31.82.31.8.31.78.31.76.31.74.31.72.31.69.32.67.32.65.32.62.32.6.32.57.31.55.31.52.31.5.31.47.31.44.31.42.3.39.3.36.3.33.29.3.29.27.28.24.27.21.26.18.25.15.24.13.23.1.22.07.21,0,.2,0H72l.18,0,.18,0,.18-.06.18-.08.19-.1.19-.13.19-.16.2-.19.2-.22.2-.25.2-.28.2-.31.2-.34.19-.37.19-.4.18-.43.18-.46.17-.49.17-.51.16-.54.16-.57.15-.59.14-.62.14-.64q.07-.33.13-.66t.12-.69q.06-.35.12-.71t.11-.73q.05-.37.1-.75t.1-.78q0-.39.09-.8t.08-.82q0-.41.07-.84t.07-.86q0-.43.06-.87t.05-.89q0-.45,0-.91t0-.93q0-.47,0-.95t0-1a1,1,0,0,1,2,0q0,.5,0,1t0,1q0,.48,0,.95t0,.93q0,.46-.05.91t-.06.9q0,.44-.07.88t-.08.86q0,.42-.08.84t-.09.82q0,.41-.1.8t-.11.78q-.06.39-.11.76t-.12.74q-.06.37-.13.72t-.14.7q-.07.34-.14.68l-.15.65-.16.63-.17.61-.18.59-.18.56-.19.54-.2.52-.21.49-.22.47-.23.44-.24.42-.25.4-.26.37-.28.35-.29.32-.31.29-.32.26-.34.23-.36.2-.37.16-.39.12-.4.08-.41,0Z" transform="translate(0 0)"/></svg>