<svg width="26" height="27" viewBox="0 0 26 27" fill="none" xmlns="http://www.w3.org/2000/svg">
<ellipse cx="12.8749" cy="13.0916" rx="12.8749" ry="13.0916" fill="white"/>
<g clip-path="url(#clip0)">
<path d="M13.776 13.1001L17.6053 9.20615C17.8545 8.95287 17.8545 8.54334 17.6053 8.29006C17.3562 8.03678 16.9535 8.03678 16.7044 8.29006L12.8749 12.184L9.04557 8.29006C8.79636 8.03678 8.39373 8.03678 8.14464 8.29006C7.89543 8.54334 7.89543 8.95287 8.14464 9.20615L11.974 13.1001L8.14464 16.994C7.89543 17.2473 7.89543 17.6568 8.14464 17.9101C8.26878 18.0364 8.432 18.0999 8.5951 18.0999C8.75821 18.0999 8.92131 18.0364 9.04557 17.9101L12.8749 14.0162L16.7044 17.9101C16.8286 18.0364 16.9917 18.0999 17.1548 18.0999C17.3179 18.0999 17.4811 18.0364 17.6053 17.9101C17.8545 17.6568 17.8545 17.2473 17.6053 16.994L13.776 13.1001Z" fill="#CF0000"/>
</g>
<defs>
<clipPath id="clip0">
<rect width="9.83447" height="10" fill="white" transform="translate(7.95773 8.0918)"/>
</clipPath>
</defs>
</svg>
