<svg id="Layer_1" data-name="Layer 1" xmlns="http://www.w3.org/2000/svg" viewBox="0 0 98.5 100.22"><defs><style>.cls-1{fill:#4dffff;}.cls-2{fill:#2cdbd6;}.cls-3{fill:#fff;}.cls-4{fill:#eaff94;}.cls-5{fill:#d9fffe;}.cls-6{fill:#fdb62f;}</style></defs><title>Travel_and_Booking_Engine_Development_Services</title><circle class="cls-1" cx="49.96" cy="48.54" r="47.56"/><path class="cls-2" d="M82.36,13.73a62.58,62.58,0,0,1,1,10.78A62.14,62.14,0,0,1,21.48,86.64,47.56,47.56,0,0,0,82.36,13.73Z" transform="translate(0)"/><path d="M50,97.08A48.54,48.54,0,0,1,15.64,14.22,48.59,48.59,0,0,1,67.86,3.41a1,1,0,1,1-.72,1.82,46.66,46.66,0,1,0,6.35,3.1,1,1,0,0,1,1-1.68,48.52,48.52,0,0,1,24,41.9A48.54,48.54,0,0,1,50,97.08Z" transform="translate(0)"/><polygon class="cls-3" points="24.09 16 20.75 19.34 36.4 26.32 41.2 21.21 24.09 16"/><polygon class="cls-3" points="45.58 25.23 40.36 30.18 47.26 46.04 50.79 42.91 45.58 25.23"/><polygon class="cls-4" points="59.14 47.71 59.14 61.06 65.81 61.06 65.81 81.08 74.16 81.08 80.83 74.41 80.83 67.73 87.51 57.72 80.83 57.72 75.83 47.71 59.14 47.71"/><polygon class="cls-4" points="25.76 56.05 25.76 67.73 34.1 67.73 34.1 86.09 40.78 81.08 40.78 76.08 49.13 69.4 49.13 61.06 39.11 61.06 34.1 56.05 25.76 56.05"/><path class="cls-4" d="M72.49,26h-10V37.69h6.68l3.34-5h10l6.68,11.68h8.15a47.31,47.31,0,0,0-9.85-25H79.17Z" transform="translate(0)"/><path class="cls-4" d="M9.07,41l5-5-5-8.34H7.21a47.34,47.34,0,0,0-4.79,20H9.07Z" transform="translate(0)"/><path class="cls-5" d="M45.59,16.2,30.77,31l-6.68-1.67-3.34,3.34,8.34,5,5,8.34,3.34-3.34L35.77,36,50.83,21.16a12.09,12.09,0,0,0,3.3-8.3v-.2A12.09,12.09,0,0,0,45.59,16.2Z" transform="translate(0)"/><path d="M47.26,47.81l-.21,0a1,1,0,0,1-.68-.56L40.43,33.59l-3.58,3.53,1.53,6.14a1,1,0,0,1-.26.93L34.8,47.53a1,1,0,0,1-1.53-.19L28.39,39.2l-8.14-4.88a1,1,0,0,1-.19-1.53l3.34-3.34a1,1,0,0,1,.93-.26l6.14,1.53,3.59-3.59L20.35,21a1,1,0,0,1-.29-1.58L23.4,16.1a1,1,0,0,1,1-.24l16.07,4.9,4.45-4.45a13,13,0,0,1,9.24-3.83,1,1,0,0,1,1,1v.2a13,13,0,0,1-3.56,9l0,0-4.58,4.52,4.79,16.26a1,1,0,0,1-.29,1L47.9,47.57A1,1,0,0,1,47.26,47.81ZM22.33,33.29l7.27,4.36a1,1,0,0,1,.34.33l4.36,7.27,2.06-2.06-1.53-6.14a1,1,0,0,1,.26-.93l5-4.92a1,1,0,0,1,1.58.31l6,13.7,2.06-1.83L44.9,27.17a1,1,0,0,1,.25-1l5-4.92a11.06,11.06,0,0,0,3-6.8,11,11,0,0,0-6.85,3.21h0l-4.87,4.87a1,1,0,0,1-1,.24L24.37,17.9l-1.92,1.92,13.7,6.12a1,1,0,0,1,.29,1.58l-5,5a1,1,0,0,1-.93.26l-6.14-1.53Z" transform="translate(0)"/><path d="M74.24,82.06H65.9a1,1,0,0,1-1-1V62h-5.7a1,1,0,0,1-1-1V47.71a1,1,0,0,1,1-1H75.91a1,1,0,0,1,.87.54l4.74,9.47H87.6a1,1,0,0,1,.81,1.52L81.9,68v6.38a1,1,0,0,1-.29.69l-6.68,6.68A1,1,0,0,1,74.24,82.06Zm-7.37-2h7l6.1-6.1V67.73a1,1,0,0,1,.16-.54l5.66-8.5H80.92a1,1,0,0,1-.87-.54l-4.74-9.47H60.2v11.4h5.7a1,1,0,0,1,1,1Z" transform="translate(0)"/><path d="M34.19,87.07a1,1,0,0,1-1-1V68.71H25.85a1,1,0,0,1-1-1V56.05a1,1,0,0,1,1-1h8.34a1,1,0,0,1,.69.29l4.72,4.72h9.61a1,1,0,0,1,1,1V69.4a1,1,0,0,1-.37.76l-8,6.38v4.54a1,1,0,0,1-.39.78l-6.68,5A1,1,0,0,1,34.19,87.07ZM26.82,66.76h7.37a1,1,0,0,1,1,1v16.4l4.72-3.54V76.08a1,1,0,0,1,.37-.76l8-6.38V62h-9a1,1,0,0,1-.69-.29L33.79,57h-7Z" transform="translate(0)"/><path d="M97.42,45.34H89.26a1,1,0,0,1-.85-.49L82,33.66H73.1l-3,4.57a1,1,0,0,1-.81.43H62.56a1,1,0,0,1-1-1V26a1,1,0,0,1,1-1h9.61l6.39-6.39a1,1,0,0,1,.69-.29h8.32a1,1,0,0,1,.77.38,48.18,48.18,0,0,1,10,25.55,1,1,0,0,1-1,1.06Zm-7.58-2h6.51a46.21,46.21,0,0,0-9.25-23.08H79.66L73.27,26.7a1,1,0,0,1-.69.29h-9v9.73h5.18l3-4.57a1,1,0,0,1,.81-.43h10a1,1,0,0,1,.85.49Z" transform="translate(0)"/><path d="M9.16,48.68H2.5a1,1,0,0,1-1-1A48.63,48.63,0,0,1,6.42,27.25a1,1,0,0,1,.88-.55H9.16a1,1,0,0,1,.84.47l5,8.34a1,1,0,0,1-.15,1.19l-4.72,4.72v6.27A1,1,0,0,1,9.16,48.68Zm-5.65-2H8.18V41a1,1,0,0,1,.29-.69l4.47-4.47L8.6,28.66H7.91A46.71,46.71,0,0,0,3.51,46.73Z" transform="translate(0)"/><path class="cls-6" d="M30.75,92.05c-11.06,4.89-19.69,5.35-23.84,1.2s-3.54-12.55.82-22.84A113.18,113.18,0,0,1,26,42.12L23.5,39.95A121,121,0,0,0,5.84,66.31C-.26,79.26-1,90,4.55,95.62a14.38,14.38,0,0,0,10.57,3.8c5.2,0,11.57-1.72,18.84-5.16L35,93.7Q32.84,93,30.75,92.05Z" transform="translate(0)"/><path d="M14.34,100.22A15.26,15.26,0,0,1,4,96.19l0,0C1.09,93.26-.24,89.06,0,83.68.3,78.56,2,72.6,5.13,66A121.85,121.85,0,0,1,22.91,39.43.78.78,0,0,1,24,39.35l2.54,2.17a.78.78,0,0,1,.08,1.11A112.29,112.29,0,0,0,8.44,70.74,40.31,40.31,0,0,0,4.92,84.18C4.74,88,5.6,90.84,7.47,92.7c3.87,3.87,12.24,3.37,23-1.37a.78.78,0,0,1,.63,0c1.36.6,2.77,1.15,4.21,1.62a.78.78,0,0,1,.12,1.43l-1.07.56h0c-7.33,3.47-13.77,5.23-19.15,5.24ZM5.09,95.05a13.67,13.67,0,0,0,10,3.58h0c5,0,11-1.62,17.91-4.81-.78-.29-1.54-.6-2.29-.92a42.77,42.77,0,0,1-14.47,3.92c-4.36.22-7.7-.79-9.92-3-4.25-4.25-4-12.67.65-23.69A113.89,113.89,0,0,1,24.92,42.19L23.58,41a120.27,120.27,0,0,0-17,25.62C.48,79.54-.05,89.89,5.09,95.05Z" transform="translate(0)"/></svg>