<svg id="Layer_1" data-name="Layer 1" xmlns="http://www.w3.org/2000/svg" viewBox="0 0 87.13 99.88"><defs><style>.cls-1{fill:#6ff;}.cls-2{fill:#6d6d6d;}.cls-3{fill:#ffecca;}.cls-4{fill:#00f6fc;}</style></defs><title>Education_Website_Development_Services</title><polyline class="cls-1" points="70.2 26.66 84.55 20.88 43.56 1.15 2.57 20.65 16.93 26.51"/><path class="cls-2" d="M76.33,90.74a7,7,0,0,0-7-7H17.78a7,7,0,0,0-7,7v8.1H76.33Zm0,0"/><path class="cls-3" d="M58.78,38.05a19,19,0,0,0-15.22,7.61,19,19,0,0,0-24.65-5.11v15.8c0,11.21,7.48,18.51,17.73,21.5v5.9H50.48v-5.9c10.24-3,17.73-10.29,17.73-21.5V40.55a19,19,0,0,0-9.43-2.49Zm0,0"/><path d="M77.37,99.88H9.75V90.74a8,8,0,0,1,8-8H35.61V78.62a27.31,27.31,0,0,1-12.45-7.75,21.38,21.38,0,0,1-5.28-14.52V42.45l-1.43,1v-16L0,20.72,43.56,0,87.13,21,70.67,27.58V43.44l-1.43-1v13.9A21.38,21.38,0,0,1,64,70.86a27.32,27.32,0,0,1-12.45,7.75v4.09H69.34a8,8,0,0,1,8,8v.56a1,1,0,1,1-2.08,0v-.56a6,6,0,0,0-6-6H49.44V77.07l.75-.22c10.79-3.15,17-10.62,17-20.5V38.76l1.43.82v-14H70L82,20.8,43.56,2.3,5.14,20.58l12,4.89h1.4v14.1L20,38.76V56.35c0,9.88,6.19,17.35,17,20.5l.75.22v7.72H17.78a6,6,0,0,0-6,6v7.06H75.3V95.13a1,1,0,0,1,2.08,0Z"/><path class="cls-4" d="M40,53.2a7.46,7.46,0,1,1-7.46-7.46A7.46,7.46,0,0,1,40,53.2Zm0,0"/><path class="cls-4" d="M62.09,53.2a7.46,7.46,0,1,1-7.46-7.46,7.46,7.46,0,0,1,7.46,7.46Zm0,0"/><path d="M32.5,61.7A8.5,8.5,0,1,1,41,53.2,8.51,8.51,0,0,1,32.5,61.7Zm0-14.92a6.42,6.42,0,1,0,6.42,6.42A6.43,6.43,0,0,0,32.5,46.78Z"/><path d="M54.63,61.7a8.5,8.5,0,1,1,8.5-8.5A8.51,8.51,0,0,1,54.63,61.7Zm0-14.92a6.42,6.42,0,1,0,6.42,6.42A6.43,6.43,0,0,0,54.63,46.78Z"/><path class="cls-1" d="M69.63,23V42.84a19,19,0,0,0-26.07,4.21,19,19,0,0,0-26.07-4.21V23a95.76,95.76,0,0,1,26.07-3.31A95.76,95.76,0,0,1,69.63,23Zm0,0"/><path d="M24.09,30.11a2,2,0,0,1-.39,0,2.05,2.05,0,0,1-.37-.11,2.12,2.12,0,0,1-.34-.18,2.06,2.06,0,0,1-.3-.25,2,2,0,0,1-.43-2.16,2.06,2.06,0,0,1,.18-.34,2.2,2.2,0,0,1,.25-.3,2.28,2.28,0,0,1,.3-.25,2.12,2.12,0,0,1,.34-.18,2,2,0,0,1,2.16.43,2.08,2.08,0,0,1,.25.3,2.1,2.1,0,0,1,.18.34,2,2,0,0,1,.11.37,2,2,0,0,1,0,.78,2,2,0,0,1-.11.37,2.14,2.14,0,0,1-.18.34,2,2,0,0,1-.25.3,1.91,1.91,0,0,1-.3.25,2.09,2.09,0,0,1-.34.18,2,2,0,0,1-.37.11,2,2,0,0,1-.39,0Zm0,0"/><path d="M63,30.11a2,2,0,0,1-.41,0,95.26,95.26,0,0,0-19.07-1.83,103.66,103.66,0,0,0-10.86.56,2,2,0,1,1-.42-3.95,107.61,107.61,0,0,1,11.27-.58,99.26,99.26,0,0,1,19.88,1.91,2,2,0,0,1-.4,3.93Zm0,0"/><path d="M43.56,48.78l-.83-1.1a18,18,0,0,0-24.65-4l-1.63,1.14V22.19L17.2,22a97.6,97.6,0,0,1,26.36-3.35A97.6,97.6,0,0,1,69.93,22l.75.22V44.83L69,43.69a18,18,0,0,0-24.65,4ZM28.34,38.41a19.89,19.89,0,0,1,15.22,7A20.08,20.08,0,0,1,68.6,41V23.75a96.74,96.74,0,0,0-25-3.05,96.74,96.74,0,0,0-25,3.05V41A20,20,0,0,1,28.34,38.41Z"/><rect x="36.64" y="82.71" width="13.84" height="2.08"/><rect x="39.96" y="52.16" width="7.21" height="2.08"/></svg>