<svg id="Layer_1" data-name="Layer 1" xmlns="http://www.w3.org/2000/svg" viewBox="0 0 145.25 100.02"><defs><style>.cls-1{fill:#fb503b;}</style></defs><title>laravel</title><path class="cls-1" d="M45.42,22.4C43.16,18.91,36.83,7.65,34.48,4.07"/><path class="cls-1" d="M45.42,24.89a2.48,2.48,0,0,1-2.09-1.14C42.22,22,40.24,18.64,38.14,15c-2.24-3.83-4.55-7.79-5.74-9.61a2.49,2.49,0,1,1,4.16-2.73c1.26,1.93,3.61,5.94,5.88,9.83,2,3.39,4,6.9,5.07,8.52a2.49,2.49,0,0,1-2.09,3.83Z"/><path class="cls-1" d="M61.8,49.91c-2.25-3.49-8.59-14.76-10.94-18.33"/><path class="cls-1" d="M61.81,52.4a2.48,2.48,0,0,1-2.09-1.14c-1.1-1.71-3.09-5.11-5.19-8.71-2.24-3.83-4.55-7.79-5.74-9.61a2.49,2.49,0,1,1,4.16-2.73c1.26,1.93,3.61,5.94,5.88,9.83,2,3.39,4,6.9,5.07,8.52a2.49,2.49,0,0,1-2.09,3.83Z"/><path class="cls-1" d="M143.73,46.89q-8.17-10.12-16.35-20.23a13.39,13.39,0,0,0-1.78-1.75,2.58,2.58,0,0,0-1.95-.6c-.57.06-1.14.16-1.71.25l-11.17,1.85c-2.92.49-5.84,1-8.75,1.5-1.8.34-2.36,1.18-1.13,2.91,4.57,6.41,9.1,12.85,13.64,19.29.15.21.28.42.46.7-.26.08-.44.15-.63.19l-9.62,2.32q-16.22,3.89-32.44,7.79a.86.86,0,0,1-1.12-.49q-8.9-14.9-17.82-29.79l-4.82,1.77L65,61.06c.84,1.46.77,1.64-.89,2l-25.2,6c-1.31.31-1.31.3-1.89-.89Q29.28,52.16,21.5,36.09,14.79,22.25,8.06,8.43A4.12,4.12,0,0,1,7.87,8c-.25-.7-.1-1,.64-1l8.9-.77L27.56,5.3l4-.34c.73-.28,1.13.27,1.55,1l8.69,15,4.64-1.7L39.1,7c-.92-1.53-1.87-3-2.83-4.56a2.65,2.65,0,0,0-2.16-1.32,24,24,0,0,0-2.73,0q-4.31.28-8.62.63-5.76.45-11.52.94c-2.53.21-5.07.45-7.6.64A2.48,2.48,0,0,0,1.08,5.15V6c.54,1.4,1,2.84,1.65,4.2Q15.88,38.74,29.07,67.27c.82,1.77,1.62,3.54,2.45,5.3a5.34,5.34,0,0,0,5.94,3.3,56.68,56.68,0,0,0,5.68-1.29q12.55-3.22,25.08-6.5a.62.62,0,0,1,.85.37q1.2,2.23,2.45,4.44Q77.77,83.95,84,95c1,1.68,2,3.28,4,4h1.31c1.31-.38,2.65-.7,3.94-1.16q22.4-8,44.77-16a19.33,19.33,0,0,0,2.35-1c1-.51,1.14-1.15.59-2.12a12.76,12.76,0,0,0-.84-1.23L123.57,55c-.15-.2-.29-.41-.48-.69.33-.11.58-.21.84-.28l13.59-3.62c1.86-.5,3.73-1,5.57-1.53C144.28,48.56,144.47,47.82,143.73,46.89ZM133,75.07c.19.26.37.52.54.78.4.63.32,1-.4,1.23-1.19.45-2.4.84-3.6,1.25L91.62,91.21c-1.79.61-2.22.51-3.2-1.15q-5.05-8.54-10-17.12C77.24,71,76.12,69.05,75,67.11c-.11-.19-.21-.38-.37-.68l3.08-.81q19.51-5.08,39-10.16c1.58-.42,1.55-.57,2.69,1Q126.18,65.79,133,75.07Zm3.5-29.44c-2.33.6-4.67,1.15-7,1.72l-9.31,2.31-.54.11a5.86,5.86,0,0,1-.48-.52l-9-12.33c-1.1-1.51-2.21-3-3.3-4.53-.61-.85-.5-1.1.51-1.28l16.05-2.92a1.64,1.64,0,0,1,1.66.81l5.29,6.76L137,44.14C137.68,45,137.58,45.35,136.49,45.63Z"/><path d="M89.38,100H88.07a1.08,1.08,0,0,1-.35-.06c-2.38-.81-3.63-2.72-4.61-4.44-4-7-8-14.14-11.94-21l-.59-1c-.72-1.28-1.47-2.62-2.33-4.23C59.08,71.6,51,73.7,43.41,75.64l-.64.17a50.4,50.4,0,0,1-5.15,1.14A6.44,6.44,0,0,1,30.55,73c-.59-1.24-1.17-2.51-1.74-3.74l-.72-1.57-7.2-15.59a1.08,1.08,0,1,1,2-.91l7.2,15.59.73,1.58c.56,1.22,1.14,2.48,1.72,3.71a4.24,4.24,0,0,0,4.8,2.7,48.74,48.74,0,0,0,4.93-1.1l.65-.17c7.61-2,15.81-4.08,25.08-6.5a1.69,1.69,0,0,1,2.07.9c.91,1.69,1.69,3.09,2.43,4.42l.59,1c3.91,6.9,7.95,14,11.94,21,1,1.7,1.86,2.87,3.27,3.41h1l1.12-.31c.91-.25,1.76-.48,2.6-.78,15.6-5.57,31.39-11.23,44.77-16a18.21,18.21,0,0,0,2.22-.95,1.17,1.17,0,0,0,.32-.21,1.28,1.28,0,0,0-.17-.4,11.72,11.72,0,0,0-.77-1.13L128,62.78l-5.28-7.11-.33-.46-.17-.25a1.08,1.08,0,0,1,.55-1.64l.29-.1c.21-.07.4-.14.62-.2l5.87-1.56,7.72-2.05,1.13-.3c1.45-.38,3-.78,4.41-1.22l.25-.1a1.58,1.58,0,0,0-.15-.21l-1.7-2.1c-4.8-5.94-9.76-12.09-14.65-18.12a12.46,12.46,0,0,0-1.64-1.6,1.49,1.49,0,0,0-1.15-.35c-.45,0-.91.12-1.39.2l-1.77.29L111,27.49l-1.91.32c-2.24.37-4.55.76-6.82,1.18a2.06,2.06,0,0,0-.9.32,2.13,2.13,0,0,0,.46.91c3.39,4.75,6.81,9.6,10.11,14.29l3.53,5c.11.15.2.3.32.48l.16.25a1.08,1.08,0,0,1-.59,1.62l-.23.07-.46.14L105,54.39l-7.19,1.72c-8.28,2-16.84,4-25.25,6.06a1.92,1.92,0,0,1-2.31-1l-13-21.78-1.7-2.84c-1.12-1.9-1.94-3.27-2.59-4.33l-.4-.67-.1-.13-.4-.62a1.4,1.4,0,0,0-2.45,1.34,1.08,1.08,0,0,1,.07.22L60.83,51.65,66,60.52a2.67,2.67,0,0,1,.55,2.38c-.35.82-1.25,1-2.12,1.25l-25.2,6c-1.79.43-2.31.18-3.1-1.45l-3.86-8q-5.85-12.09-11.7-24.18-4.49-9.26-9-18.51L7.09,8.9a5,5,0,0,1-.24-.55,1.92,1.92,0,0,1,.07-1.7,1.89,1.89,0,0,1,1.5-.76l5.52-.48,3.38-.29,5.56-.49,4.59-.4L30.12,4l1.23-.1a1.92,1.92,0,0,1,1.09,0,1.08,1.08,0,0,1,.73.67,1.39,1.39,0,0,0,.14.29c1.21,1.84,3.52,5.81,5.76,9.65,2.1,3.6,4.08,7,5.17,8.68a1.4,1.4,0,1,0,2.36-1.52c-.28-.44-.65-1-1.11-1.8a1.08,1.08,0,0,1-.11-.26l-3.14-5.25-.73-1.25c-2.26-3.87-4.6-7.88-5.85-9.78A1.4,1.4,0,0,0,35.38,3a1.08,1.08,0,0,1-.16-.16,1.51,1.51,0,0,0-1.16-.64,22.78,22.78,0,0,0-2.61,0c-2.56.17-5.3.37-8.61.63-3.75.29-7.56.61-11.24.91l-.28,0L8.38,4c-1.53.13-3.1.27-4.66.39-1,.08-1.38.39-1.56.9v.47L2.6,6.95c.36,1,.7,1.89,1.11,2.78C9.07,21.37,14.35,32.82,19.26,43.45a1.08,1.08,0,1,1-2,.91C12.39,33.72,7.11,22.28,1.74,10.63c-.45-1-.82-2-1.17-2.94C.41,7.26.24,6.81.07,6.38A1.08,1.08,0,0,1,0,6V5.15a1.08,1.08,0,0,1,0-.29A3.53,3.53,0,0,1,3.55,2.25C5.1,2.14,6.67,2,8.19,1.87l3-.25.28,0c3.69-.31,7.5-.62,11.25-.92C26,.41,28.74.21,31.31,0a25,25,0,0,1,2.85,0,3.64,3.64,0,0,1,2.7,1.38,3.56,3.56,0,0,1,.6.7c1.28,2,3.63,6,5.91,9.88l.72,1.24,3.28,5.48a1.08,1.08,0,0,1,.11.25c.38.63.69,1.13.93,1.5a3.57,3.57,0,1,1-6,3.87c-1.12-1.73-3.11-5.14-5.21-8.75C35,11.78,32.69,7.86,31.51,6.05l-1.21.1-2.64.23-4.58.4-5.57.49-3.38.29L9.06,8l4.42,9.1q4.5,9.25,9,18.51Q28.33,47.7,34.18,59.8l3.86,8,.19.39.46-.11,25.2-6,.39-.1-.19-.34L59,52.74,47.61,33.15a1.08,1.08,0,0,1-.14-.5,3.57,3.57,0,0,1,6.38-3l.32.49a1,1,0,0,1,.13.18l.49.82c.65,1.06,1.48,2.45,2.6,4.35l1.7,2.84,13,21.77C80.5,58,89,56,97.31,54l7.19-1.72,8.75-2.11-3.12-4.43c-3.3-4.69-6.72-9.53-10.11-14.28a3.29,3.29,0,0,1-.71-3,3.21,3.21,0,0,1,2.52-1.63c2.29-.43,4.61-.82,6.86-1.19l1.91-.32,9.64-1.6,1.77-.29c.5-.08,1-.17,1.54-.22a3.67,3.67,0,0,1,2.75.85A14.43,14.43,0,0,1,128.22,26c4.9,6,9.86,12.18,14.66,18.13l1.7,2.1a2.17,2.17,0,0,1-1.16,3.73c-1.49.45-3,.86-4.49,1.25l-1.12.3-7.72,2.06-5.23,1.39,4.87,6.55,11.34,15.25a13.82,13.82,0,0,1,.91,1.34,2.62,2.62,0,0,1,.38,2.09,2.58,2.58,0,0,1-1.4,1.52,20.36,20.36,0,0,1-2.48,1.06c-13.39,4.81-29.18,10.47-44.78,16-.92.33-1.85.58-2.76.83l-1.24.35A1.08,1.08,0,0,1,89.38,100Zm.72-7.38c-1,0-1.75-.56-2.61-2-2.81-4.75-5.64-9.59-8.38-14.28l-1.67-2.85c-.83-1.41-1.65-2.85-2.46-4.24l-.92-1.6-.24-.43-.15-.27a1.08,1.08,0,0,1,.68-1.56l1-.28,2-.54L87,62.08c9.65-2.51,19.63-5.1,29.44-7.67l.34-.09c1.82-.49,2.29-.15,3.5,1.52,3.22,4.45,6.52,9,9.7,13.33l3.85,5.27c.19.26.39.54.58.84a2,2,0,0,1,.33,1.68,2,2,0,0,1-1.26,1.14c-1,.36-2,.69-2.9,1l-.73.25-12.67,4.3L92,92.23A6,6,0,0,1,90.1,92.63ZM76.25,67.12l.6,1c.8,1.39,1.63,2.82,2.45,4.23L81,75.24c2.74,4.68,5.57,9.52,8.37,14.27.47.8.66.93.72,1a3.16,3.16,0,0,0,1.21-.28l25.24-8.57,13.41-4.55c.84-.28,1.7-.57,2.53-.88l-.34-.48h0l-3.85-5.27c-3.19-4.37-6.49-8.88-9.71-13.34a10.4,10.4,0,0,0-.64-.83l-.54.14-.36.1c-9.81,2.57-19.79,5.16-29.44,7.67L78,66.66Zm56.45,9.47h0ZM119.64,50.86a1.08,1.08,0,0,1-.8-.35l-.1-.1a4.61,4.61,0,0,1-.45-.51l-8.52-11.68-1.29-1.77c-.82-1.12-1.66-2.28-2.49-3.42a2,2,0,0,1-.48-1.92A2,2,0,0,1,107.19,30l2.73-.5,13.32-2.43A2.74,2.74,0,0,1,126,28.33l1.41,1.8,3.88,5,4.53,5.75,2.07,2.63a2.17,2.17,0,0,1,.58,2,2.19,2.19,0,0,1-1.68,1.23c-1.5.38-3,.75-4.5,1.11l-2.51.61-5.95,1.47-3.36.83-.34.07-.24,0ZM108,32.1l2.23,3.07,1.29,1.77L120,48.59l3.26-.81,5.95-1.48,2.52-.62c1.4-.34,2.85-.69,4.27-1.05l-1.93-2.45-4.54-5.76-3.89-5-1.41-1.8c-.36-.46-.48-.44-.62-.41l-13.33,2.43Z"/></svg>