<svg id="Layer_1" data-name="Layer 1" xmlns="http://www.w3.org/2000/svg" viewBox="0 0 91.27 100"><defs><style>.cls-1{fill:#78d67f;}.cls-2{fill:#65d06c;}.cls-3{fill:none;}</style></defs><title>android</title><path class="cls-1" d="M68.92,1.87a3.14,3.14,0,0,1,1.44,4.2l-6.92,14.1L57.8,17.41l6.92-14.1a3.14,3.14,0,0,1,4.2-1.44Zm0,0"/><path class="cls-1" d="M22.18,1.87a3.14,3.14,0,0,0-1.44,4.2l6.92,14.1,5.64-2.77L26.38,3.31a3.14,3.14,0,0,0-4.2-1.44Zm0,0"/><path class="cls-1" d="M84,77.87a5.5,5.5,0,0,1-5.5-5.5V48.82a5.5,5.5,0,1,1,11,0V72.38a5.5,5.5,0,0,1-5.5,5.5Zm0,0"/><path class="cls-1" d="M72.25,43.32H18.85V81H26.7V92.8a5.5,5.5,0,0,0,11,0V81H53.4V92.8a5.5,5.5,0,1,0,11,0V81h7.85Zm0,0"/><rect class="cls-2" x="18.85" y="43.32" width="4.71" height="37.7"/><path class="cls-2" d="M31.41,92.8V81H26.7V92.8a5.5,5.5,0,0,0,7.85,5,5.5,5.5,0,0,1-3.14-5Zm0,0"/><path class="cls-2" d="M58.12,92.8V81H53.4V92.8a5.5,5.5,0,0,0,7.85,5,5.5,5.5,0,0,1-3.14-5Zm0,0"/><path class="cls-2" d="M7.07,77.87a5.5,5.5,0,0,1-5.5-5.5V48.82a5.5,5.5,0,1,1,11,0V72.38a5.5,5.5,0,0,1-5.5,5.5Zm0,0"/><path d="M84.55,78.6a6.72,6.72,0,0,1-6.71-6.71V48.32a6.71,6.71,0,1,1,13.43,0V71.89A6.72,6.72,0,0,1,84.55,78.6Zm0-34.56a4.29,4.29,0,0,0-4.28,4.28V71.89a4.28,4.28,0,1,0,8.56,0V48.32A4.29,4.29,0,0,0,84.55,44Z"/><path d="M7.59,78.6A6.72,6.72,0,0,1,.87,71.89V48.32a6.71,6.71,0,0,1,13.43,0V71.89A6.72,6.72,0,0,1,7.59,78.6ZM7.59,44a4.29,4.29,0,0,0-4.28,4.28V71.89a4.28,4.28,0,0,0,8.56,0V48.32A4.29,4.29,0,0,0,7.59,44Z"/><path class="cls-1" d="M45.55,10.33A26.7,26.7,0,0,0,18.85,37h53.4a26.7,26.7,0,0,0-26.7-26.7ZM33,30.75a3.14,3.14,0,1,1,3.14-3.14A3.14,3.14,0,0,1,33,30.75Zm25.13,0a3.14,3.14,0,1,1,3.14-3.14,3.14,3.14,0,0,1-3.14,3.14Zm0,0"/><path class="cls-2" d="M48.69,10.52a27.14,27.14,0,0,0-3.14-.18A26.7,26.7,0,0,0,18.85,37h6.28A26.71,26.71,0,0,1,48.69,10.52Zm0,0"/><rect class="cls-3" width="91" height="100"/><path d="M73.74,38.16H17.91V36.95a27.72,27.72,0,0,1,7.57-19.11L19.92,6.52a4.36,4.36,0,0,1,7.83-3.84l4.77,9.72a28,28,0,0,1,26.62,0L63.9,2.68a4.36,4.36,0,0,1,7.83,3.84L66.18,17.83a27.72,27.72,0,0,1,7.57,19.11ZM20.37,35.73H71.28a25.3,25.3,0,0,0-7.43-16.8l-.62-.62L69.54,5.45a1.92,1.92,0,1,0-3.46-1.7L60.16,15.83,59,15.14a25.51,25.51,0,0,0-26.4,0l-1.14.69L25.56,3.75a1.93,1.93,0,0,0-3.46,1.7l6.31,12.86-.62.62A25.3,25.3,0,0,0,20.37,35.73Zm38-3.85a4.36,4.36,0,1,1,4.36-4.36A4.36,4.36,0,0,1,58.39,31.88Zm0-6.28a1.92,1.92,0,1,0,1.92,1.93A1.93,1.93,0,0,0,58.39,25.6ZM33.26,31.88a4.36,4.36,0,1,1,4.36-4.36A4.36,4.36,0,0,1,33.26,31.88Zm0-6.28a1.92,1.92,0,1,0,1.93,1.93A1.93,1.93,0,0,0,33.26,25.6Z"/><path d="M59.18,99.27a6.72,6.72,0,0,1-6.71-6.71V82H39.19V92.56a6.71,6.71,0,0,1-13.43,0V82H17.91V41.86H59.38a1.22,1.22,0,0,1,0,2.43h-39V79.56h7.85v13a4.28,4.28,0,1,0,8.56,0v-13H54.9v13a4.28,4.28,0,1,0,8.56,0v-13h7.85V44.3H66a1.22,1.22,0,0,1,0-2.43h7.79V82H65.89V92.56A6.72,6.72,0,0,1,59.18,99.27Z"/></svg>