<svg id="Layer_1" data-name="Layer 1" xmlns="http://www.w3.org/2000/svg" viewBox="0 0 111.73 99.83"><defs><style>.cls-1{fill:#3596d2;}.cls-2{fill:#41ace1;}.cls-3{fill:#fff;}</style></defs><title>xamarin</title><path class="cls-1" d="M55.86,2.26c7.67,0,15.35,0,23,0a8,8,0,0,1,5,1.9,11.71,11.71,0,0,1,2.8,3.72q2.28,4,4.55,7.92c1.1,1.93,2.19,3.87,3.3,5.79,1.2,2.09,2.44,4.16,3.64,6.24,1.37,2.37,2.72,4.75,4.08,7.13L105,39.73c1.15,2,2.37,4,3.43,6a8.59,8.59,0,0,1-.17,8.67q-3.05,5.34-6.1,10.67L95,77.39,89.76,86.6c-1.34,2.34-2.59,4.74-4.07,7a7.93,7.93,0,0,1-6.85,4q-23,0-46,0a7.93,7.93,0,0,1-5-1.91A12,12,0,0,1,25,91.85l-4-7-2.61-4.56-4.84-8.4L10,65.83Q7,60.5,3.88,55.18a13.1,13.1,0,0,1-1.07-2.08,9.43,9.43,0,0,1,1.07-8.48c2-3.19,3.75-6.49,5.62-9.74,1.64-2.85,3.31-5.7,5-8.55,1.44-2.5,2.84-5,4.28-7.52,1.16-2,2.35-4,3.51-6s2.4-4.27,3.65-6.38a8.73,8.73,0,0,1,4.3-3.65,7.52,7.52,0,0,1,3-.49Q44.5,2.27,55.86,2.26Z"/><path class="cls-2" d="M32.8,97.59a7.93,7.93,0,0,1-5-1.91A12,12,0,0,1,25,91.85l-4-7-2.61-4.56-4.84-8.4L10,65.83Q7,60.5,3.88,55.18a13.1,13.1,0,0,1-1.07-2.08,9.43,9.43,0,0,1,1.07-8.48c2-3.19,3.75-6.49,5.62-9.74,1.64-2.85,3.31-5.7,5-8.55,1.44-2.5,2.84-5,4.28-7.52,1.16-2,2.35-4,3.51-6s2.4-4.27,3.65-6.38a8.73,8.73,0,0,1,4.3-3.65,7.52,7.52,0,0,1,3-.49q11.36,0,22.71,0"/><path class="cls-3" d="M55.91,50.73c-.19-.3-.31-.46-.4-.63q-4-7.08-8-14.17-2.46-4.39-4.9-8.8a1.37,1.37,0,0,0-1.29-.8c-2.41,0-4.83,0-7.24,0-1,0-1.39.73-.89,1.6L34,29.28c1.66,2.94,3.34,5.87,5,8.83,2.24,4,4.44,8,6.68,12.05a1.26,1.26,0,0,1,0,1.38c-1.46,2.58-2.9,5.17-4.35,7.76s-3,5.4-4.51,8.1c-1.16,2.07-2.31,4.13-3.5,6.18-.47.81-.23,1.83,1.09,1.79,2.27-.07,4.54,0,6.81,0a1.43,1.43,0,0,0,1.4-.81c.87-1.54,1.76-3.08,2.62-4.62l6.36-11.38,3.17-5.67c.35-.63.73-1.25,1.14-2,.15.23.22.32.28.43l2.72,4.85q2.87,5.12,5.75,10.24c1.53,2.73,3,5.48,4.59,8.2a1.46,1.46,0,0,0,1,.68c2.54.06,5.07,0,7.61,0a.86.86,0,0,0,.88-1,2.79,2.79,0,0,0-.36-1c-1-1.78-2-3.54-3-5.32-1.41-2.52-2.79-5-4.19-7.56q-2.52-4.53-5.07-9.06a1.07,1.07,0,0,1,0-1.16c.62-1.07,1.21-2.15,1.82-3.23l5.42-9.71L78.55,28a1,1,0,0,0-.87-1.62c-2.43,0-4.87,0-7.3,0a1.26,1.26,0,0,0-1.2.72c-.77,1.39-1.55,2.77-2.32,4.15-1.18,2.12-2.36,4.25-3.54,6.37Q61,41.69,58.68,45.81Z"/><path d="M32.79,99.83a10.2,10.2,0,0,1-6.33-2.37,13,13,0,0,1-3.24-4.15L23,93l-2.15-3.74L19,86l-1.34-2.33-1.28-2.23-2.32-4L11.54,73,9.91,70.16,8.07,67l-2.32-4L1.94,56.29,1.75,56A12.45,12.45,0,0,1,.69,53.84,11.68,11.68,0,0,1,2,43.43c1.3-2.11,2.55-4.32,3.75-6.46.6-1.06,1.21-2.15,1.83-3.22l2.3-4q1.33-2.28,2.65-4.57,1.08-1.87,2.14-3.75t2.14-3.76c.61-1.07,1.24-2.14,1.85-3.18s1.11-1.9,1.66-2.85.92-1.61,1.38-2.42c.74-1.31,1.51-2.66,2.3-4A11,11,0,0,1,29.33.67,9.8,9.8,0,0,1,33.15,0H62C67.5,0,73.23,0,78.87,0h0a10.23,10.23,0,0,1,6.31,2.37,12.8,12.8,0,0,1,3.21,4.09l.17.29c1.41,2.44,2.9,5,4.56,7.93l1.39,2.44c.62,1.1,1.27,2.24,1.91,3.35s1.21,2.08,1.82,3.12,1.22,2.08,1.82,3.12q1.33,2.29,2.64,4.6l1.45,2.54L106,37l.95,1.65c.35.61.7,1.21,1.06,1.81.81,1.38,1.65,2.81,2.42,4.28a10.85,10.85,0,0,1-.21,10.82l-1.76,3.08-4.35,7.6-4.23,7.35-2.85,5a2.25,2.25,0,0,1-3.9-2.24l2.86-5L100.18,64l4.34-7.59,1.76-3.08a6.38,6.38,0,0,0,.12-6.52c-.71-1.36-1.48-2.67-2.3-4.06L103,40.85l-.95-1.65-1.8-3.12-1.46-2.55Q97.52,31.24,96.2,29q-.9-1.55-1.81-3.09t-1.84-3.15c-.65-1.13-1.3-2.27-1.93-3.38l-1.38-2.42C87.59,14,86.1,11.43,84.7,9l-.17-.3a9,9,0,0,0-2.05-2.76,5.72,5.72,0,0,0-3.59-1.44c-5.65,0-11.38,0-16.93,0H33.14a5.39,5.39,0,0,0-2.1.32,6.47,6.47,0,0,0-3.23,2.73c-.76,1.28-1.52,2.61-2.24,3.9-.46.82-.93,1.64-1.39,2.45s-1.12,1.92-1.68,2.88-1.23,2.1-1.83,3.15q-1.07,1.87-2.13,3.74t-2.15,3.78q-1.32,2.3-2.66,4.59l-2.3,4c-.61,1.06-1.22,2.14-1.81,3.19-1.23,2.17-2.5,4.42-3.84,6.6a7.2,7.2,0,0,0-.86,6.56,8.85,8.85,0,0,0,.7,1.37l.2.35,3.81,6.63,2.32,4,1.84,3.21,1.63,2.84L18,75.14l2.32,4,1.28,2.24,1.33,2.32L24.77,87l2.16,3.74.2.35a9.13,9.13,0,0,0,2.08,2.82,5.67,5.67,0,0,0,3.58,1.44h0c10.92,0,22,0,32.77,0H78.84a5.66,5.66,0,0,0,5-3c.77-1.17,1.46-2.36,2-3.38a2.25,2.25,0,0,1,3.91,2.21c-.61,1.08-1.35,2.35-2.18,3.63a10.17,10.17,0,0,1-8.73,5H65.57c-10.74,0-21.84,0-32.76,0Z"/></svg>