<svg id="Layer_1" data-name="Layer 1" xmlns="http://www.w3.org/2000/svg" viewBox="0 0 93.26 100"><defs><style>.cls-1{fill:#e0d5c6;}.cls-2{fill:#dbdbdb;}.cls-3{fill:#fff;}.cls-4{fill:#acaab0;}.cls-5{fill:#a5a5a5;}.cls-6{fill:#d3c2ae;}.cls-7{fill:#d1e5f5;}</style></defs><title>Real_Estate_Portal_Development</title><path d="M37.64,10.11A1.69,1.69,0,0,1,36,8.43V1.69a1.69,1.69,0,0,1,3.37,0V8.43A1.69,1.69,0,0,1,37.64,10.11Z"/><rect class="cls-1" x="46.63" y="17.42" width="8.99" height="40.45"/><rect class="cls-1" x="28.65" y="8.43" width="17.98" height="8.99"/><path d="M56.59,59.06H45.65V16.66H56.59Zm-9-2h7V18.61h-7Z"/><path d="M47.61,18.61H27.68V7.67H47.61Zm-18-2h16v-7h-16Z"/><rect class="cls-2" x="21.91" y="17.42" width="31.46" height="40.45"/><path d="M54.35,58.84H20.93V16.44H54.35Zm-31.46-2H52.39V18.39H22.89Z"/><path class="cls-3" d="M44.38,28.09H30.9a1.69,1.69,0,0,1,0-3.37H44.38a1.69,1.69,0,1,1,0,3.37Z"/><path class="cls-3" d="M44.38,37.08H37.64a1.69,1.69,0,0,1,0-3.37h6.74a1.69,1.69,0,0,1,0,3.37Z"/><path class="cls-3" d="M44.38,46.07H37.64a1.69,1.69,0,0,1,0-3.37h6.74a1.69,1.69,0,0,1,0,3.37Z"/><rect class="cls-4" x="53.37" y="8.43" width="31.46" height="89.89"/><path d="M85.81,99.29H52.39V7.45H85.81V29.78a1,1,0,0,1-2,0V9.4H54.35V97.34H83.85V34.44a1,1,0,0,1,2,0Z"/><path class="cls-3" d="M62.36,21.35a1.69,1.69,0,0,1-1.69-1.69V17.42a1.69,1.69,0,1,1,3.37,0v2.25A1.69,1.69,0,0,1,62.36,21.35Z"/><path class="cls-3" d="M69.1,21.35a1.69,1.69,0,0,1-1.69-1.69V17.42a1.69,1.69,0,1,1,3.37,0v2.25A1.69,1.69,0,0,1,69.1,21.35Z"/><path class="cls-3" d="M75.84,21.35a1.69,1.69,0,0,1-1.69-1.69V17.42a1.69,1.69,0,1,1,3.37,0v2.25A1.69,1.69,0,0,1,75.84,21.35Z"/><path class="cls-3" d="M62.36,32.58a1.69,1.69,0,0,1-1.69-1.69V28.65a1.69,1.69,0,1,1,3.37,0V30.9A1.69,1.69,0,0,1,62.36,32.58Z"/><path class="cls-3" d="M69.1,32.58a1.69,1.69,0,0,1-1.69-1.69V28.65a1.69,1.69,0,1,1,3.37,0V30.9A1.69,1.69,0,0,1,69.1,32.58Z"/><path class="cls-3" d="M75.84,32.58a1.69,1.69,0,0,1-1.69-1.69V28.65a1.69,1.69,0,1,1,3.37,0V30.9A1.69,1.69,0,0,1,75.84,32.58Z"/><path class="cls-3" d="M62.36,43.82a1.69,1.69,0,0,1-1.69-1.69V39.89a1.69,1.69,0,1,1,3.37,0v2.25A1.69,1.69,0,0,1,62.36,43.82Z"/><path class="cls-3" d="M69.1,43.82a1.69,1.69,0,0,1-1.69-1.69V39.89a1.69,1.69,0,1,1,3.37,0v2.25A1.69,1.69,0,0,1,69.1,43.82Z"/><path class="cls-3" d="M75.84,43.82a1.69,1.69,0,0,1-1.69-1.69V39.89a1.69,1.69,0,1,1,3.37,0v2.25A1.69,1.69,0,0,1,75.84,43.82Z"/><path class="cls-3" d="M62.36,55.06a1.69,1.69,0,0,1-1.69-1.69V51.12a1.69,1.69,0,1,1,3.37,0v2.25A1.69,1.69,0,0,1,62.36,55.06Z"/><path class="cls-3" d="M69.1,55.06a1.69,1.69,0,0,1-1.69-1.69V51.12a1.69,1.69,0,1,1,3.37,0v2.25A1.69,1.69,0,0,1,69.1,55.06Z"/><path class="cls-3" d="M69.1,66.29a1.69,1.69,0,0,1-1.69-1.69V62.36a1.69,1.69,0,1,1,3.37,0v2.25A1.69,1.69,0,0,1,69.1,66.29Z"/><path class="cls-3" d="M69.1,77.53a1.69,1.69,0,0,1-1.69-1.69V73.6a1.69,1.69,0,1,1,3.37,0v2.25A1.69,1.69,0,0,1,69.1,77.53Z"/><path class="cls-3" d="M69.1,88.76a1.69,1.69,0,0,1-1.69-1.69V84.83a1.69,1.69,0,0,1,3.37,0v2.25A1.69,1.69,0,0,1,69.1,88.76Z"/><path class="cls-3" d="M75.84,55.06a1.69,1.69,0,0,1-1.69-1.69V51.12a1.69,1.69,0,1,1,3.37,0v2.25A1.69,1.69,0,0,1,75.84,55.06Z"/><path class="cls-3" d="M75.84,66.29a1.69,1.69,0,0,1-1.69-1.69V62.36a1.69,1.69,0,1,1,3.37,0v2.25A1.69,1.69,0,0,1,75.84,66.29Z"/><path class="cls-3" d="M75.84,77.53a1.69,1.69,0,0,1-1.69-1.69V73.6a1.69,1.69,0,0,1,3.37,0v2.25A1.69,1.69,0,0,1,75.84,77.53Z"/><path class="cls-3" d="M75.84,88.76a1.69,1.69,0,0,1-1.69-1.69V84.83a1.69,1.69,0,0,1,3.37,0v2.25A1.69,1.69,0,0,1,75.84,88.76Z"/><rect class="cls-5" x="6.18" y="33.15" width="31.46" height="65.17"/><path class="cls-3" d="M15.17,48.31a1.69,1.69,0,0,1-1.69-1.69V44.38a1.69,1.69,0,1,1,3.37,0v2.25A1.69,1.69,0,0,1,15.17,48.31Z"/><path class="cls-3" d="M21.91,48.31a1.69,1.69,0,0,1-1.69-1.69V44.38a1.69,1.69,0,1,1,3.37,0v2.25A1.69,1.69,0,0,1,21.91,48.31Z"/><path class="cls-3" d="M28.65,48.31A1.69,1.69,0,0,1,27,46.63V44.38a1.69,1.69,0,1,1,3.37,0v2.25A1.69,1.69,0,0,1,28.65,48.31Z"/><path class="cls-3" d="M15.17,59.55a1.69,1.69,0,0,1-1.69-1.69V55.62a1.69,1.69,0,1,1,3.37,0v2.25A1.69,1.69,0,0,1,15.17,59.55Z"/><path class="cls-3" d="M21.91,59.55a1.69,1.69,0,0,1-1.69-1.69V55.62a1.69,1.69,0,0,1,3.37,0v2.25A1.69,1.69,0,0,1,21.91,59.55Z"/><path class="cls-3" d="M28.65,59.55A1.69,1.69,0,0,1,27,57.87V55.62a1.69,1.69,0,0,1,3.37,0v2.25A1.69,1.69,0,0,1,28.65,59.55Z"/><path class="cls-3" d="M15.17,70.79a1.69,1.69,0,0,1-1.69-1.69V66.85a1.69,1.69,0,0,1,3.37,0V69.1A1.69,1.69,0,0,1,15.17,70.79Z"/><path class="cls-3" d="M21.91,70.79a1.69,1.69,0,0,1-1.69-1.69V66.85a1.69,1.69,0,0,1,3.37,0V69.1A1.69,1.69,0,0,1,21.91,70.79Z"/><path class="cls-3" d="M28.65,70.79A1.69,1.69,0,0,1,27,69.1V66.85a1.69,1.69,0,0,1,3.37,0V69.1A1.69,1.69,0,0,1,28.65,70.79Z"/><path class="cls-3" d="M15.17,82a1.69,1.69,0,0,1-1.69-1.69V78.09a1.69,1.69,0,1,1,3.37,0v2.25A1.69,1.69,0,0,1,15.17,82Z"/><path class="cls-3" d="M21.91,82a1.69,1.69,0,0,1-1.69-1.69V78.09a1.69,1.69,0,0,1,3.37,0v2.25A1.69,1.69,0,0,1,21.91,82Z"/><path class="cls-3" d="M28.65,82A1.69,1.69,0,0,1,27,80.34V78.09a1.69,1.69,0,1,1,3.37,0v2.25A1.69,1.69,0,0,1,28.65,82Z"/><rect class="cls-1" x="37.64" y="53.37" width="31.46" height="44.94"/><rect class="cls-6" x="46.63" y="53.37" width="22.47" height="44.94"/><path class="cls-3" d="M46.63,93.26a1.69,1.69,0,0,1-1.69-1.69V60.11a1.69,1.69,0,0,1,3.37,0V91.57A1.69,1.69,0,0,1,46.63,93.26Z"/><path class="cls-3" d="M53.37,93.26a1.69,1.69,0,0,1-1.69-1.69V60.11a1.69,1.69,0,0,1,3.37,0V91.57A1.69,1.69,0,0,1,53.37,93.26Z"/><path class="cls-3" d="M60.11,93.26a1.69,1.69,0,0,1-1.69-1.69V60.11a1.69,1.69,0,0,1,3.37,0V91.57A1.69,1.69,0,0,1,60.11,93.26Z"/><path class="cls-3" d="M46.63,58.43V93.26a1.69,1.69,0,0,0,1.69-1.69V60.11A1.69,1.69,0,0,0,46.63,58.43Z"/><rect class="cls-7" x="17.42" y="89.33" width="8.99" height="8.99"/><path d="M21.91,100a1.69,1.69,0,0,1-1.69-1.69V93.82a1.69,1.69,0,0,1,3.37,0v4.49A1.69,1.69,0,0,1,21.91,100Z"/><path d="M91.57,100H1.69a1.69,1.69,0,0,1,0-3.37H91.57a1.69,1.69,0,1,1,0,3.37Z"/><path d="M91.57,96.63H46.63V100H91.57a1.69,1.69,0,1,0,0-3.37Z"/><path d="M70.08,99.29H36.66V52.39H70.08Zm-31.46-2H68.12v-43H38.62Z"/><path d="M38.62,99.1H5.2V87.63a1,1,0,0,1,2,0v9.51H36.66V33.93H7.16V81.39a1,1,0,0,1-2,0V32H38.62Z"/></svg>