<svg id="Layer_1" data-name="Layer 1" xmlns="http://www.w3.org/2000/svg" viewBox="0 0 61.38 99.86"><defs><style>.cls-1{fill:#50c4d0;}.cls-2{fill:#8ad3e1;}.cls-3{fill:#fff;}.cls-4{fill:#00a9a9;}.cls-5{fill:#b358f9;}.cls-6{fill:#d7aeff;}</style></defs><title>phone_gap</title><rect class="cls-1" x="1.37" y="1.08" width="43.24" height="80.24" rx="12" ry="12"/><path class="cls-2" d="M26.15,1.08H40.43s4.18.57,4.18,4.18l-.27,75.88-41.19.35Z"/><path class="cls-3" d="M44.61,73.27v4.81A2.93,2.93,0,0,1,41.69,81H4.29a2.93,2.93,0,0,1-2.92-2.92V73.27"/><path class="cls-4" d="M12.23,78.61H8.48a1.25,1.25,0,0,1,0-2.49h3.74a1.25,1.25,0,0,1,0,2.49Z"/><path d="M12.23,78.83H8.48a1.46,1.46,0,0,1,0-2.93h3.74a1.46,1.46,0,0,1,0,2.93ZM8.48,76.33a1,1,0,0,0,0,2.06h3.74a1,1,0,0,0,0-2.06Z"/><path class="cls-4" d="M23.59,79.59a2.22,2.22,0,1,1,2.22-2.21,2.21,2.21,0,0,1-2.22,2.21Z"/><path d="M23.59,79.81A2.43,2.43,0,1,1,26,77.38,2.43,2.43,0,0,1,23.59,79.81Zm0-4.43a2,2,0,1,0,2,2A2,2,0,0,0,23.59,75.38Z"/><path class="cls-4" d="M37.48,78.61H33.75a1.25,1.25,0,0,1,0-2.49h3.73a1.25,1.25,0,1,1,0,2.49Z"/><path d="M37.48,78.83H33.75a1.46,1.46,0,0,1,0-2.93h3.73a1.46,1.46,0,1,1,0,2.93Zm-3.73-2.49a1,1,0,0,0,0,2.06h3.73a1,1,0,1,0,0-2.06Z"/><path d="M44.89,79.43a1.09,1.09,0,0,1-1.09-1.09V5.26a3.1,3.1,0,0,0-3.09-3.09H4.37a2.2,2.2,0,0,0-2.2,2.2V60.14a1.09,1.09,0,1,1-2.17,0V4.37A4.38,4.38,0,0,1,4.37,0H40.71A5.27,5.27,0,0,1,46,5.26V78.35A1.09,1.09,0,0,1,44.89,79.43Z"/><path d="M41.6,82.72H4.37A4.38,4.38,0,0,1,0,78.35V67.64a1.09,1.09,0,1,1,2.17,0V78.35a2.2,2.2,0,0,0,2.2,2.2H41.6a2.2,2.2,0,0,0,2.2-2.2V5.26a3.1,3.1,0,0,0-3.09-3.09,1.09,1.09,0,1,1,0-2.17A5.27,5.27,0,0,1,46,5.26V78.35A4.38,4.38,0,0,1,41.6,82.72Z"/><path d="M36,73.69H1.71a.43.43,0,1,1,0-.87H36a.43.43,0,1,1,0,.87Z"/><path d="M45,73.69h-7.1a.43.43,0,0,1,0-.87H45a.43.43,0,1,1,0,.87Z"/><rect class="cls-5" x="16.77" y="18.23" width="43.24" height="80.24" rx="12" ry="12"/><path class="cls-6" d="M41.55,18.23H55.84S60,18.8,60,22.41l-.27,75.88-41.19.35Z"/><path class="cls-3" d="M60,90.41v4.81a2.93,2.93,0,0,1-2.92,2.92H19.69a2.93,2.93,0,0,1-2.92-2.92V90.41"/><path class="cls-5" d="M27.63,95.75H23.89a1.25,1.25,0,0,1,0-2.49h3.74a1.25,1.25,0,0,1,0,2.49Z"/><path d="M27.63,96H23.89a1.46,1.46,0,0,1,0-2.93h3.74a1.46,1.46,0,0,1,0,2.93Zm-3.74-2.49a1,1,0,0,0,0,2.06h3.74a1,1,0,0,0,0-2.06Z"/><path class="cls-5" d="M39,96.73a2.22,2.22,0,1,1,2.22-2.21A2.21,2.21,0,0,1,39,96.73Z"/><path d="M39,97a2.43,2.43,0,1,1,2.44-2.43A2.43,2.43,0,0,1,39,97Zm0-4.43a2,2,0,1,0,2,2A2,2,0,0,0,39,92.52Z"/><path class="cls-5" d="M52.89,95.75H49.15a1.25,1.25,0,0,1,0-2.49h3.73a1.25,1.25,0,1,1,0,2.49Z"/><path d="M52.89,96H49.15a1.46,1.46,0,0,1,0-2.93h3.73a1.46,1.46,0,1,1,0,2.93Zm-3.73-2.49a1,1,0,0,0,0,2.06h3.73a1,1,0,1,0,0-2.06Z"/><path d="M60.3,96.58a1.08,1.08,0,0,1-1.09-1.09V22.41a3.1,3.1,0,0,0-3.09-3.09H19.78a2.2,2.2,0,0,0-2.2,2.2V77.28a1.09,1.09,0,1,1-2.17,0V21.51a4.38,4.38,0,0,1,4.37-4.37H56.12a5.27,5.27,0,0,1,5.26,5.26V95.49A1.08,1.08,0,0,1,60.3,96.58Z"/><path d="M57,99.86H19.78a4.38,4.38,0,0,1-4.37-4.37V84.78a1.09,1.09,0,1,1,2.17,0V95.49a2.2,2.2,0,0,0,2.2,2.2H57a2.2,2.2,0,0,0,2.2-2.2V22.41a3.1,3.1,0,0,0-3.09-3.09,1.09,1.09,0,1,1,0-2.17,5.27,5.27,0,0,1,5.26,5.26V95.49A4.38,4.38,0,0,1,57,99.86Z"/><path d="M51.39,90.4H17.12a.43.43,0,1,1,0-.87H51.39a.43.43,0,1,1,0,.87Z"/><path d="M60.44,90.4h-7.1a.43.43,0,1,1,0-.87h7.1a.43.43,0,1,1,0,.87Z"/></svg>