<svg id="Layer_1" data-name="Layer 1" xmlns="http://www.w3.org/2000/svg" viewBox="0 0 94.96 100"><defs><style>.cls-1{fill:#c9f3ff;}.cls-2{fill:#4dbaf6;}.cls-3{fill:#f48b00;}.cls-4{fill:#2e9de3;}.cls-5{fill:#ffe85f;}.cls-6{fill:#fff;}</style></defs><title>web_development</title><path class="cls-1" d="M86.35,19.83V74.37a4.81,4.81,0,0,1-4.81,4.81H5.87a4.81,4.81,0,0,1-4.81-4.81V19.83A4.81,4.81,0,0,1,5.87,15H81.54a4.81,4.81,0,0,1,4.81,4.81Zm0,0"/><rect class="cls-1" x="22.73" y="93.9" width="41.12" height="5.04"/><path class="cls-2" d="M1.05,66.79v7.58a4.81,4.81,0,0,0,4.81,4.81H81.54a4.81,4.81,0,0,0,4.81-4.81V66.79Zm0,0"/><path d="M63.84,100H22.73a1.05,1.05,0,0,1-1.05-1.05v-5a1.05,1.05,0,0,1,1.05-1.05H63.84A1.05,1.05,0,0,1,64.9,93.9v5A1.05,1.05,0,0,1,63.84,100ZM23.78,97.89h39V95h-39Z"/><path class="cls-3" d="M10.17,35.29H23.32a1.89,1.89,0,1,0,0-3.77H10.17a1.89,1.89,0,1,0,0,3.77Zm0,0"/><path class="cls-3" d="M10.17,45.86h4.4a1.89,1.89,0,0,0,0-3.77h-4.4a1.89,1.89,0,1,0,0,3.77Zm0,0"/><path class="cls-3" d="M21.5,52.65H10.17a1.89,1.89,0,1,0,0,3.77H21.5a1.89,1.89,0,1,0,0-3.77Zm0,0"/><path class="cls-3" d="M28.76,52.65a1.89,1.89,0,1,0,1.34.55,1.9,1.9,0,0,0-1.34-.55Zm0,0"/><path d="M86.35,67.84H16.15a1.05,1.05,0,1,1,0-2.11h70.2a1.05,1.05,0,1,1,0,2.11Z"/><path d="M10.68,67.84H1.05a1.05,1.05,0,1,1,0-2.11h9.62a1.05,1.05,0,0,1,0,2.11Z"/><path d="M81.54,80.24H78.81a1.05,1.05,0,0,1,0-2.11h2.74a3.76,3.76,0,0,0,3.76-3.76V19.83a3.76,3.76,0,0,0-3.76-3.76H5.87a3.76,3.76,0,0,0-3.76,3.76V74.37a3.76,3.76,0,0,0,3.76,3.76h66.9a1.05,1.05,0,1,1,0,2.11H5.87A5.87,5.87,0,0,1,0,74.37V19.83A5.87,5.87,0,0,1,5.87,14H81.54a5.87,5.87,0,0,1,5.87,5.87V74.37A5.87,5.87,0,0,1,81.54,80.24Z"/><rect class="cls-4" x="36.11" y="79.18" width="14.34" height="14.72"/><path d="M51.51,95H35.06V78.13H51.51ZM37.17,92.85H49.4V80.24H37.17Z"/><path class="cls-3" d="M39.74,52.65H35.35a1.89,1.89,0,0,0,0,3.77h4.39a1.89,1.89,0,0,0,0-3.77Zm0,0"/><path class="cls-5" d="M93.9,34.76V24.53H88.7a23.83,23.83,0,0,0-3.24-7.81L89.15,13,81.91,5.81,78.23,9.49a23.81,23.81,0,0,0-7.81-3.24V1.05H60.2V6.25a23.82,23.82,0,0,0-7.82,3.23L48.71,5.81,41.48,13l3.66,3.66a23.81,23.81,0,0,0-3.25,7.82H36.72V34.76h5.16a23.83,23.83,0,0,0,3.24,7.84l-3.65,3.65,7.23,7.23,3.65-3.65a23.8,23.8,0,0,0,7.84,3.24v5.17H70.43V53.06a23.83,23.83,0,0,0,7.82-3.25l3.66,3.66,7.23-7.23-3.67-3.67a23.82,23.82,0,0,0,3.23-7.82Zm0,0"/><path class="cls-6" d="M80.41,29.64a15.1,15.1,0,1,1-15.1-15.1,15.1,15.1,0,0,1,15.1,15.1Zm0,0"/><path d="M65.31,45.79A16.15,16.15,0,1,1,81.46,29.64,16.17,16.17,0,0,1,65.31,45.79Zm0-30.2a14,14,0,1,0,14,14A14.06,14.06,0,0,0,65.31,15.6Z"/><path class="cls-3" d="M65.31,33.83a1.89,1.89,0,1,0,1.33.55,1.9,1.9,0,0,0-1.33-.55Zm0,0"/><path class="cls-3" d="M65.31,28.09a7.57,7.57,0,0,0-5.39,2.23A1.89,1.89,0,1,0,62.59,33,3.85,3.85,0,0,1,68,33a1.89,1.89,0,1,0,2.67-2.67,7.57,7.57,0,0,0-5.39-2.23Zm0,0"/><path class="cls-3" d="M55.39,25.79a1.89,1.89,0,0,0,2.67,2.67,10.26,10.26,0,0,1,14.51,0,1.89,1.89,0,1,0,2.67-2.67,14,14,0,0,0-19.84,0Zm0,0"/><path d="M71.48,59.29H59.15V53.9a24.75,24.75,0,0,1-6.63-2.74L48.71,55,40,46.24l3.81-3.81a24.78,24.78,0,0,1-2.74-6.63H35.67V23.48h5.39a24.76,24.76,0,0,1,2.75-6.62L40,13l8.72-8.72,3.82,3.82a24.77,24.77,0,0,1,6.61-2.73V0H71.48V5.42a24.77,24.77,0,0,1,6.6,2.74l3.83-3.84L90.63,13,86.8,16.88a24.78,24.78,0,0,1,2.74,6.6H95v4.28a1.05,1.05,0,0,1-2.11,0V25.58h-5l-.18-.83a22.71,22.71,0,0,0-3.09-7.46l-.46-.71L87.66,13,81.91,7.3l-3.54,3.54-.71-.46A22.7,22.7,0,0,0,70.2,7.28l-.83-.18v-5H61.25v5l-.83.18a22.71,22.71,0,0,0-7.47,3.09l-.71.46L48.71,7.3,43,13l3.52,3.52-.46.71a22.7,22.7,0,0,0-3.11,7.48l-.18.83h-5v8.12h5l.18.83A22.71,22.71,0,0,0,46,42l.46.71L43,46.24,48.71,52l3.51-3.51.71.46A22.69,22.69,0,0,0,60.42,52l.83.18v5h8.12v-5L70.2,52a22.72,22.72,0,0,0,7.48-3.11l.71-.46L81.91,52l5.74-5.74-3.52-3.52.46-.71a22.7,22.7,0,0,0,3.09-7.47l.18-.83h5V31.53a1.05,1.05,0,0,1,2.11,0v4.28H89.54a24.77,24.77,0,0,1-2.73,6.61l3.82,3.82L81.91,55,78.1,51.15a24.79,24.79,0,0,1-6.62,2.75Z"/></svg>