<svg id="Layer_1" data-name="Layer 1" xmlns="http://www.w3.org/2000/svg" viewBox="0 0 126.08 99.92"><defs><style>.cls-1{fill:#edd966;}.cls-2{fill:#ffac3e;}</style></defs><title>cake_php</title><path class="cls-1" d="M63.09,59.12c-15.3-.06-30.43-1.39-45.08-6.18A37.84,37.84,0,0,1,5.93,46.86a9.75,9.75,0,0,1-4.05-8.43c.18-5.61.08-11.22,0-16.83a8,8,0,0,1,2-5.46,21.21,21.21,0,0,1,6.77-5A73.41,73.41,0,0,1,30,4.91,175.85,175.85,0,0,1,74.46,2.23a136.21,136.21,0,0,1,31.36,5.1,49.93,49.93,0,0,1,11.71,5c3,1.81,5.53,4,6.69,7.44v21.5a12.5,12.5,0,0,1-6,7,70.55,70.55,0,0,1-6.35,3.26,3.3,3.3,0,0,1-2,.19Q91.94,47.27,74,42.79l-11-2.72V59.16Z" transform="translate(0)"/><path class="cls-2" d="M125,80.19c-1.27,3.81-4.21,6-7.51,7.93-5.11,2.93-5.11,2.91-10.93,1.46L64.2,79.06a2.19,2.19,0,0,0-.35,0l0,0q0-6.32-.06-12.64c0-2.19,0-4.37,0-6.56l0,0,42.65,10.57c6,1.49,6,1.51,11.34-1.63,3.17-1.86,6-4.06,7.17-7.76Z" transform="translate(0)"/><path class="cls-2" d="M63.1,79V97.92a3.34,3.34,0,0,1-.64.13c-14-.14-27.88-1.34-41.41-5.23A45.75,45.75,0,0,1,9,87.82a32.24,32.24,0,0,1-5.15-4.19A6.93,6.93,0,0,1,1.91,78.4c0-5.65,0-11.3,0-17.25,2,5.21,6.31,7.47,10.72,9.49,7.1,3.26,14.67,4.93,22.33,6.18A177.47,177.47,0,0,0,62.31,79c.28,0,.55,0,.83.08Z" transform="translate(0)"/><path class="cls-2" d="M63.1,40.09V59a3.34,3.34,0,0,1-.64.13c-14-.14-27.88-1.34-41.41-5.23A45.75,45.75,0,0,1,9,48.88,32.24,32.24,0,0,1,3.83,44.7a6.93,6.93,0,0,1-1.92-5.23c0-5.65,0-11.3,0-17.25,2,5.21,6.31,7.47,10.72,9.49C19.74,35,27.31,36.64,35,37.9A177.47,177.47,0,0,0,62.31,40c.28,0,.55,0,.83.08Z" transform="translate(0)"/><path d="M110.87,92.4a24.51,24.51,0,0,1-5.47-1l-.07,0-36-9-6.06-1.51a1.86,1.86,0,0,1-1.34-.48l0,0a1.87,1.87,0,0,1-.58-1.75l0-3.31q0-4.46,0-8.93c0-1.51,0-3,0-4.53q0-.82,0-1.64a1.87,1.87,0,0,1,.43-1.59l0,0a1.87,1.87,0,0,1,2.06-.51l.18.08,11.83,2.93,30.39,7.54.09,0c2.72.68,4.08,1,5.13.86s2.19-.82,4.73-2.31,5.3-3.48,6.35-6.72a1.87,1.87,0,0,1,3.64.57V80.19a1.87,1.87,0,0,1-.1.59c-1.51,4.54-5.07,7.08-8.35,9S112.85,92.4,110.87,92.4ZM65,77.52l5.19,1.29,36,9,.07,0c2.64.66,4,1,5,.85s2-.72,4.51-2.14c2.73-1.56,5.4-3.45,6.57-6.62V67.3A24.19,24.19,0,0,1,118,70.45c-5.75,3.39-6.22,3.46-12.65,1.86l-.09,0L74.86,64.75l-9.92-2.46c0,1.36,0,2.75,0,4.12q0,4.46,0,8.92Z" transform="translate(0)"/><path d="M62.47,99.92h0c-16.59-.17-29.91-1.85-41.91-5.3A47.88,47.88,0,0,1,8,89.39,33.83,33.83,0,0,1,2.52,85,8.71,8.71,0,0,1,0,78.39c0-4,0-8,0-12.2q0-2.49,0-5a1.87,1.87,0,0,1,3.61-.67C5.4,65,9.11,67,13.42,69c7.35,3.37,15.17,4.94,21.85,6a174.9,174.9,0,0,0,27,2.13,6.13,6.13,0,0,1,.67,0,1.87,1.87,0,0,1,1.36.48l0,0A1.87,1.87,0,0,1,65,79.42V97.92a1.87,1.87,0,0,1-1.47,1.82l-.16,0A3.2,3.2,0,0,1,62.47,99.92ZM3.79,67.29c0,3.8,0,7.44,0,11.12A5.07,5.07,0,0,0,5.13,82.3,30.18,30.18,0,0,0,10,86.24,44.5,44.5,0,0,0,21.57,91c11.37,3.27,24,4.91,39.67,5.14V80.84a176.92,176.92,0,0,1-26.56-2.16c-6.93-1.13-15.06-2.77-22.81-6.33A27.9,27.9,0,0,1,3.79,67.29Z" transform="translate(0)"/><path d="M63.05,61a1.87,1.87,0,0,1-1.87-1.87v0a1.87,1.87,0,0,1,1.87-1.87h0a1.87,1.87,0,0,1,1.4,3.1l0,0A1.87,1.87,0,0,1,63.05,61Z" transform="translate(0)"/><path d="M63.05,61h0c-18.27-.08-32.76-2.07-45.62-6.27A38.91,38.91,0,0,1,4.76,48.31,11.58,11.58,0,0,1,0,38.36C.16,33.58.11,28.7.06,24q0-1.18,0-2.36a9.93,9.93,0,0,1,2.44-6.69A22.6,22.6,0,0,1,9.83,9.46C15.3,6.67,21.42,4.71,29.66,3.08A176.54,176.54,0,0,1,74.56.36a136.28,136.28,0,0,1,31.79,5.18A51.29,51.29,0,0,1,118.5,10.7c2.73,1.66,6,4.11,7.49,8.44a1.87,1.87,0,0,1,.1.59V26a1.87,1.87,0,0,1-3.73,0V20c-.88-2.38-2.63-4.24-5.79-6.16a47.71,47.71,0,0,0-11.28-4.77,132.68,132.68,0,0,0-30.93-5,172.88,172.88,0,0,0-44,2.66c-7.89,1.55-13.7,3.42-18.86,6a19.11,19.11,0,0,0-6.19,4.55,6.13,6.13,0,0,0-1.56,4.24q0,1.18,0,2.36c.05,4.77.1,9.69-.06,14.55A7.88,7.88,0,0,0,7.09,45.4a35.4,35.4,0,0,0,11.5,5.77c12.21,4,25.41,5.88,42.6,6.08V40.06a1.87,1.87,0,0,1,2.32-1.81l3.59.89L74.48,41,81,42.61c9.6,2.39,19.53,4.86,29.3,7.25a1.47,1.47,0,0,0,.79-.07,69.44,69.44,0,0,0,6.19-3.17,10.64,10.64,0,0,0,5-5.7v-1.2a1.87,1.87,0,1,1,3.73,0v1.5a1.87,1.87,0,0,1-.08.56,14.23,14.23,0,0,1-6.78,8,72.6,72.6,0,0,1-6.52,3.34,5.16,5.16,0,0,1-3.26.31c-9.78-2.4-19.71-4.87-29.31-7.26L73.58,44.6l-7.38-1.83-1.28-.32V59.12A1.87,1.87,0,0,1,63.05,61Z" transform="translate(0)"/><path class="cls-1" d="M56.72,50.87a1,1,0,0,1-1-1V42.33a1,1,0,0,1,2,0v7.55A1,1,0,0,1,56.72,50.87Z" transform="translate(0)"/><path class="cls-1" d="M56.72,56.1a1,1,0,0,1-1-1V52.86a1,1,0,0,1,2,0V55.1A1,1,0,0,1,56.72,56.1Z" transform="translate(0)"/></svg>