<svg id="Layer_1" data-name="Layer 1" xmlns="http://www.w3.org/2000/svg" viewBox="0 0 113.25 100"><defs><style>.cls-1{fill:#ed5151;}.cls-2{fill:#e3f2ff;}</style></defs><title>Healthcare_Website_Development_Services</title><path class="cls-1" d="M85.33,1.13c15.86,0,26.79,13.31,26.79,29.08C112.12,52,88.4,71,56.63,98.51,24.85,71,1.13,52,1.13,30.21c0-15.77,10.93-29.08,26.79-29.08,20.36,0,28.71,18.71,28.71,18.71S65,1.13,85.33,1.13Z"/><polygon class="cls-2" points="78.28 44.37 78.28 57.9 63.39 57.9 63.39 72.79 49.86 72.79 49.86 57.9 34.97 57.9 34.97 44.37 49.86 44.37 49.86 29.48 63.39 29.48 63.39 44.37 78.28 44.37"/><path d="M64.52,73.92H48.73V59H33.84V43.24H48.73V28.35H64.52V43.24H79.41V59H64.52ZM51,71.67H62.26V56.78H77.15V45.5H62.26V30.61H51V45.5H36.1V56.78H51Z"/><path d="M94.69,15a2.26,2.26,0,1,0-2.26-2.26A2.26,2.26,0,0,0,94.69,15Z"/><path d="M94.66,55.93a1.13,1.13,0,0,1-.88-1.83c7.17-9,10.5-16.56,10.5-23.89a24,24,0,0,0-2.7-11.12,1.13,1.13,0,1,1,2-1,26.28,26.28,0,0,1,3,12.17c0,7.87-3.49,15.91-11,25.29A1.13,1.13,0,0,1,94.66,55.93Z"/><path d="M25.83,72.38a1.12,1.12,0,0,1-.78-.31c-2.35-2.25-4.44-4.33-6.37-6.35a1.13,1.13,0,0,1,1.63-1.56c1.91,2,4,4.05,6.3,6.28a1.13,1.13,0,0,1-.78,1.94Z"/><path d="M56.63,100l-.74-.64-6.12-5.29c-6.1-5.27-11.86-10.24-17.14-15a1.13,1.13,0,1,1,1.51-1.68c5.25,4.73,11,9.7,17.1,15L56.63,97,62,92.37c28.44-24.55,49-42.29,49-62.16,0-15.94-11-28-25.66-28a28.94,28.94,0,0,0-21.19,9,34.45,34.45,0,0,0-6.49,9l-1,2.31-1-2.31A34.69,34.69,0,0,0,49,11.22a28.93,28.93,0,0,0-21.13-9c-14.63,0-25.66,12-25.66,28,0,8.56,3.78,17.15,11.88,27a1.13,1.13,0,1,1-1.74,1.43C3.94,48.36,0,39.32,0,30.21A31.74,31.74,0,0,1,7.73,9,26.66,26.66,0,0,1,27.92,0,31.64,31.64,0,0,1,50.71,9.69a38.57,38.57,0,0,1,5.92,7.73,38.57,38.57,0,0,1,5.92-7.73A31.64,31.64,0,0,1,85.33,0a26.66,26.66,0,0,1,20.18,9,31.73,31.73,0,0,1,7.73,21.2c0,20.9-20.87,38.92-49.77,63.86l-6.12,5.29Z"/></svg>