<svg id="Layer_1" data-name="Layer 1" xmlns="http://www.w3.org/2000/svg" viewBox="0 0 76.33 100"><defs><style>.cls-1{fill:#3077a6;}.cls-2{fill:#4deaff;}.cls-3{fill:#2dcad6;}.cls-4{fill:#87ced9;}.cls-5{fill:#7dc6d1;}.cls-6{fill:#e8594a;}.cls-7{fill:#f5fdff;}.cls-8{fill:#fdb62f;}.cls-9{fill:#3a3a3a;}</style></defs><title>Luxury_Lifestyle_Solutions</title><path class="cls-1" d="M68.6,14.5H34.79A6.76,6.76,0,0,0,28,21.26v71A6.76,6.76,0,0,0,34.79,99H68.6a6.76,6.76,0,0,0,6.76-6.76v-71A6.76,6.76,0,0,0,68.6,14.5Z"/><rect class="cls-2" x="28.02" y="24.64" width="47.34" height="64.24"/><rect x="51.69" y="23.67" width="23.67" height="1.95"/><polygon class="cls-3" points="28.02 77.05 28.02 88.88 75.36 88.88 75.36 29.71 28.02 77.05"/><path d="M68.6,100H34.78A7.74,7.74,0,0,1,27,92.26v-71a7.74,7.74,0,0,1,7.74-7.74H68.6a7.74,7.74,0,0,1,7.74,7.74v71A7.74,7.74,0,0,1,68.6,100ZM34.78,15.47A5.79,5.79,0,0,0,29,21.26v71a5.79,5.79,0,0,0,5.79,5.79H68.6a5.79,5.79,0,0,0,5.79-5.79v-71a5.79,5.79,0,0,0-5.79-5.79Z"/><path class="cls-4" d="M6,1H50A5.07,5.07,0,0,1,55.07,6V29.71A5.07,5.07,0,0,1,50,34.79H6A5.07,5.07,0,0,1,1,29.71V6A5.07,5.07,0,0,1,6,1Z"/><path class="cls-5" d="M50,1H43.66L9.85,34.79H50a5.07,5.07,0,0,0,5.07-5.07V6A5.07,5.07,0,0,0,50,1Z"/><circle class="cls-6" cx="39.86" cy="22.95" r="3.38"/><rect class="cls-7" x="6.05" y="7.74" width="30.43" height="3.38"/><rect class="cls-7" x="6.05" y="17.88" width="3.38" height="3.38"/><rect class="cls-7" x="12.81" y="17.88" width="3.38" height="3.38"/><rect class="cls-7" x="19.57" y="17.88" width="3.38" height="3.38"/><rect class="cls-7" x="26.33" y="17.88" width="3.38" height="3.38"/><rect class="cls-7" x="6.05" y="24.64" width="23.67" height="3.38"/><circle class="cls-8" cx="44.93" cy="22.95" r="3.38"/><path class="cls-9" d="M65.21,44.93a1.69,1.69,0,0,0-1.64,1.28l-1.37,5.48H36.48a1.69,1.69,0,0,0-1.69,1.69,1.67,1.67,0,0,0,.05.41l3.38,13.52a1.69,1.69,0,0,0,1.64,1.28H60.14a1.69,1.69,0,0,1,0,3.38h-22v3.38h22a5.07,5.07,0,0,0,2.05-9.7l3-11.87,1.37-5.48H68.6V44.93Zm-4.7,13.52H56.14l.42-3.38h4.79Zm-13.25,0-.42-3.38h6.31l-.42,3.38Zm5,3.38-.42,3.38H48.11l-.42-3.38Zm-8.88-6.76.42,3.38H39.49l-.85-3.38Zm-3.1,6.76h3.95l.42,3.38H41.18Zm15,3.38.42-3.38h3.95l-.85,3.38Z"/><circle class="cls-9" cx="41.55" cy="80.43" r="3.38"/><circle class="cls-9" cx="58.45" cy="80.43" r="3.38"/><path class="cls-7" d="M50,48.31a1.68,1.68,0,0,0,.94-.28L56,44.64l-1.88-2.81-2.44,1.63v-3.6H48.31v3.6l-2.44-1.63L44,44.64,49.06,48A1.68,1.68,0,0,0,50,48.31Z"/><path d="M62.73,89.86H28a1,1,0,0,1,0-1.95h34.7a1,1,0,0,1,0,1.95Z"/><path d="M74.61,89.86h-7.4a1,1,0,0,1,0-1.95h7.4a1,1,0,0,1,0,1.95Z"/><path d="M50,35.76H6a6.05,6.05,0,0,1-6-6V13.9a1,1,0,0,1,1.95,0V29.71A4.1,4.1,0,0,0,6,33.81H50a4.1,4.1,0,0,0,4.1-4.1V6A4.1,4.1,0,0,0,50,1.95H6A4.1,4.1,0,0,0,1.95,6V9.43A1,1,0,0,1,0,9.43V6A6.05,6.05,0,0,1,6,0H50a6.05,6.05,0,0,1,6,6V29.71A6.05,6.05,0,0,1,50,35.76Z"/></svg>