<svg id="Layer_1" data-name="Layer 1" xmlns="http://www.w3.org/2000/svg" viewBox="0 0 92.83 100"><defs><style>.cls-1{fill:#dd0330;}.cls-2{fill:#c30e2e;}.cls-3{fill:#fff;}.cls-4{fill:#ef2056;}</style></defs><title>angular_js</title><polygon class="cls-1" points="1.67 17.62 46.37 1.64 91.16 17.85 84.46 76.56 46.37 98.22 8.19 76.51 1.67 17.62"/><polyline class="cls-2" points="46.42 1.64 91.21 17.85 84.51 76.56 46.41 98.22"/><path class="cls-3" d="M18.1,75.12l28-62.8.67-.07L74.73,75c-3.81,0-7.17.07-10.52-.08-.46,0-1-1.13-1.29-1.83-1.41-3.38-2.8-6.77-4.08-10.2A2.42,2.42,0,0,0,56.24,61q-9.81.08-19.63,0A2.41,2.41,0,0,0,34,62.92c-1.28,3.43-2.78,6.78-4,10.21a2.68,2.68,0,0,1-3,2C24.22,75,21.46,75.12,18.1,75.12Zm28.67-41-.64,0L38.79,51.7H54.11Z"/><path d="M46.37,100,6.74,77.46,0,16.58,46.37,0,92.83,16.81,88.41,56a1.55,1.55,0,0,1-3.07-.35l4.15-36.71L46.37,3.29l-43,15.38,6.3,56.89L46.37,96.44,83,75.6l.86-7.51a1.55,1.55,0,0,1,3.07.35l-1,9.07Z"/><path class="cls-4" d="M82.77,44.43h-.1a1,1,0,0,1-.92-1.13L84,20.53a1,1,0,0,1,2.05.2L83.8,43.5A1,1,0,0,1,82.77,44.43Z"/><path class="cls-4" d="M81.9,54.66h-.1a1,1,0,0,1-.92-1.13l.46-4.63a1,1,0,1,1,2.05.2l-.46,4.63A1,1,0,0,1,81.9,54.66Z"/></svg>