<svg id="Layer_1" data-name="Layer 1" xmlns="http://www.w3.org/2000/svg" viewBox="0 0 97.93 100"><defs><style>.cls-1{fill:#afafaf;}.cls-2{fill:#eaeada;}.cls-3{fill:#e0e0de;}.cls-4{fill:#f26666;}.cls-5{fill:#3a9cc9;}.cls-6{fill:#fff;}.cls-7{fill:#5ac6d4;}.cls-8{fill:#00edff;}.cls-9{fill:#00dbe0;}.cls-10{fill:#e94f4f;}.cls-11{fill:#ebebe9;}</style></defs><title>Advertising_and_Publishing_Web_Development_Services</title><path class="cls-1" d="M90.29,12.6H7.65A6.61,6.61,0,0,0,1,19.21V67.14H96.9V19.21a6.61,6.61,0,0,0-6.61-6.61Zm0,0"/><path class="cls-2" d="M1,67.14v5a6.61,6.61,0,0,0,6.61,6.61H90.29A6.61,6.61,0,0,0,96.9,72.1v-5Zm0,0"/><rect x="1.03" y="66.11" width="95.87" height="2.07"/><path d="M90.29,79.74H7.64A7.65,7.65,0,0,1,0,72.1v-38a1,1,0,0,1,2.07,0v38a5.58,5.58,0,0,0,5.58,5.58H90.29a5.58,5.58,0,0,0,5.58-5.58V19.21a5.58,5.58,0,0,0-5.58-5.58H7.64a5.58,5.58,0,0,0-5.58,5.58v9.92a1,1,0,1,1-2.07,0V19.21a7.65,7.65,0,0,1,7.64-7.64H90.29a7.65,7.65,0,0,1,7.64,7.64V72.1A7.65,7.65,0,0,1,90.29,79.74Z"/><path class="cls-3" d="M63.24,96.48l-6-16.53H40.71l-6,16.53H27.48v3.31h43V96.48Zm0,0"/><rect class="cls-4" x="27.48" y="34.09" width="3.3" height="3.31"/><path class="cls-5" d="M67.8,53.59l2-2.64,6.61,5-2,2.64Zm0,0"/><path class="cls-5" d="M67.81,17.91l6.61-5,2,2.64-6.61,5Zm0,0"/><path class="cls-5" d="M71.7,45.61l.8-3.21,6.61,1.65-.8,3.21Zm0,0"/><path class="cls-5" d="M71.7,25.87l6.61-1.65.8,3.21L72.5,29.08Zm0,0"/><path class="cls-6" d="M59,83.67l-1.8-5H40.71l-1.8,5Zm0,0"/><rect class="cls-7" x="14.26" y="63.84" width="69.41" height="3.3"/><path class="cls-8" d="M77.07,1H20.88a6.61,6.61,0,0,0-6.61,6.61v59.5H83.67V7.64A6.61,6.61,0,0,0,77.07,1Zm0,0"/><path class="cls-9" d="M21.7,67.14h62V7.64a6.53,6.53,0,0,0-.38-2.11Zm0,0"/><path class="cls-10" d="M35.74,42.35H27.48a6.61,6.61,0,0,1,0-13.22h8.26Zm0,0"/><path class="cls-6" d="M55.58,19.21,35.74,29.13V42.35l19.83,9.92Zm0,0"/><path class="cls-3" d="M68.8,39,62.19,40.7V30.78l6.61,1.65Zm0,0"/><path d="M68.8,39,62.19,40.7V30.78l6.61,1.65Zm0,0"/><path class="cls-6" d="M39,55.57H32.44l-5-13.22h6.61Zm0,0"/><path d="M39,56.6H32.44a1,1,0,0,1-1-.67L26.75,43.35a7.64,7.64,0,0,1,.73-15.25h8.26a1,1,0,0,1,1,1V42.35a1,1,0,0,1-1,1h-.16L40,55.21a1,1,0,0,1-1,1.4Zm-5.9-2.07h4.4L33.12,42.71a1,1,0,0,1,1-1.4h.62V30.16H27.48a5.58,5.58,0,0,0,0,11.16,1,1,0,0,1,1,.67Z"/><path class="cls-11" d="M58.88,15.91a3.31,3.31,0,0,1,3.31,3.3V52.27a3.31,3.31,0,0,1-6.61,0V19.21a3.31,3.31,0,0,1,3.3-3.3Zm0,0"/><path d="M59,56.6a4.35,4.35,0,0,1-4.29-3.67L35.4,43.27a1,1,0,0,1-.57-.92V29.13a1,1,0,0,1,.57-.92l19.31-9.66a4.34,4.34,0,0,1,8.63.66V52.27A4.34,4.34,0,0,1,59,56.6ZM36.9,41.71l19.26,9.63a1,1,0,0,1,.57.92,2.27,2.27,0,0,0,4.54,0V19.21a2.27,2.27,0,0,0-4.54,0,1,1,0,0,1-.57.92L36.9,29.77Z"/><rect class="cls-5" x="19.22" y="5.99" width="3.31" height="3.31"/><rect class="cls-5" x="25.83" y="5.99" width="3.31" height="3.31"/><rect class="cls-5" x="32.44" y="5.99" width="3.31" height="3.31"/><rect x="19.22" y="5.99" width="3.31" height="3.31"/><rect x="25.83" y="5.99" width="3.31" height="3.31"/><rect x="32.44" y="5.99" width="3.31" height="3.31"/><rect x="27.48" y="34.09" width="3.3" height="3.31"/><path d="M68.8,52.27h0a1.65,1.65,0,0,1,2.31-.33l4,3a1.65,1.65,0,0,1,.33,2.31h0a1.65,1.65,0,0,1-2.31.33l-4-3A1.65,1.65,0,0,1,68.8,52.27Zm-1,1.32"/><path d="M69.13,16.91l4-3a1.65,1.65,0,0,1,2.31.33h0a1.65,1.65,0,0,1-.33,2.31l-4,3a1.65,1.65,0,0,1-2.31-.33h0A1.65,1.65,0,0,1,69.13,16.91Zm-1.32,1"/><path d="M72.1,44h0a1.65,1.65,0,0,1,2-1.2l3.41.85a1.65,1.65,0,0,1,1.2,2h0a1.65,1.65,0,0,1-2,1.2L73.3,46A1.65,1.65,0,0,1,72.1,44Zm-.4,1.6"/><path d="M73.3,25.47l3.4-.85a1.65,1.65,0,0,1,2,1.2h0a1.65,1.65,0,0,1-1.2,2l-3.4.85a1.65,1.65,0,0,1-2-1.2h0A1.65,1.65,0,0,1,73.3,25.47Zm-1.6.4"/><path d="M84.7,68.17H13.22V7.64A7.65,7.65,0,0,1,20.88,0H77.07a7.65,7.65,0,0,1,7.64,7.64ZM15.29,66.11H82.64V7.64a5.58,5.58,0,0,0-5.58-5.58H20.88A5.58,5.58,0,0,0,15.3,7.64Z"/><path d="M55.72,53.3a1,1,0,0,1-1-1V19.21a1,1,0,0,1,2.07,0V52.27A1,1,0,0,1,55.72,53.3Z"/><rect x="27.48" y="41.32" width="6.61" height="2.07"/><path d="M71.48,100h-45V94.63H34L40,78.1H58l6,16.53h7.52Zm-43-2.07h40.9V96.69h-6.9l-6-16.53H41.43l-6,16.53h-6.9Z"/></svg>