<svg id="Layer_1" data-name="Layer 1" xmlns="http://www.w3.org/2000/svg" viewBox="0 0 99.2 100"><defs><style>.cls-1{fill:#8c95a4;}.cls-2{fill:#798699;}.cls-3{fill:#39c3fc;}.cls-4{fill:#ececec;}.cls-5{fill:#b6c1ce;}.cls-6{fill:#d3a06c;}.cls-7{fill:#b27946;}.cls-8{fill:#148ce0;}.cls-9{fill:#afb8c9;}.cls-10{fill:#ffc729;}.cls-11{fill:#cd2c5a;}.cls-12{fill:#fcd770;}.cls-13{fill:#fb5968;}</style></defs><title>e-commerce</title><rect class="cls-1" x="28.57" y="87.45" width="42.06" height="11.33"/><rect class="cls-2" x="28.57" y="87.45" width="42.06" height="4.85"/><path class="cls-3" d="M20.48,18.86H7.54a6.47,6.47,0,0,0-6.47,6.47V75.49H98.14V25.33a6.47,6.47,0,0,0-6.47-6.47H20.48Z"/><polygon class="cls-4" points="75.49 18.86 75.49 51.22 65.78 51.22 31.8 51.22 23.72 51.22 23.72 18.86 75.49 18.86"/><rect class="cls-5" x="23.72" y="18.86" width="51.77" height="8.09"/><path d="M75.49,52.29H23.72a1.07,1.07,0,0,1-1.07-1.07V18.86a1.07,1.07,0,0,1,1.07-1.07H75.49a1.07,1.07,0,0,1,1.07,1.07V51.22A1.07,1.07,0,0,1,75.49,52.29ZM24.78,50.15H74.42V19.93H24.78Z"/><polygon class="cls-6" points="67.4 64.16 31.8 64.16 35.04 31.8 62.55 31.8 67.4 64.16"/><polygon class="cls-7" points="60.93 31.8 59.31 64.16 67.4 64.16 62.55 31.8 60.93 31.8"/><path d="M67.4,64.7H59.31a.53.53,0,0,1-.53-.56l1.62-32.36a.53.53,0,0,1,.53-.51h1.62a.53.53,0,0,1,.53.45l4.85,32.36a.53.53,0,0,1-.53.61Zm-7.53-1.07h6.91L62.09,32.34h-.65Z"/><path d="M67.4,65H31.81a.85.85,0,0,1-.85-.94l3.24-32.36A.85.85,0,0,1,35,31h27.5a.85.85,0,0,1,.84.73L68.24,64a.85.85,0,0,1-.84,1Zm-34.65-1.7H66.41l-4.6-30.65h-26Z"/><path d="M70.63,99.63H28.57a.85.85,0,0,1-.85-.85V87.45a.85.85,0,0,1,.85-.85H70.63a.85.85,0,0,1,.85.85V98.78A.85.85,0,0,1,70.63,99.63Zm-41.21-1.7H69.78V88.3H29.42Z"/><rect class="cls-8" x="1.07" y="72.25" width="97.07" height="4.85"/><path class="cls-9" d="M1.07,75.49H98.14V82a6.47,6.47,0,0,1-6.47,6.47H7.54A6.47,6.47,0,0,1,1.07,82Z"/><path class="cls-10" d="M40.16,17.24l-.27,3.24a4.85,4.85,0,1,0,9.71,0V17.24Z"/><path class="cls-10" d="M59,17.24l.27,3.24a4.85,4.85,0,0,0,9.71,0l-.54-3.24Z"/><path class="cls-10" d="M25.33,25.33a4.85,4.85,0,0,0,4.85-4.85l.54-3.24H21.56l-1.08,3.24A4.85,4.85,0,0,0,25.33,25.33Z"/><path class="cls-11" d="M30.73,17.24l-.54,3.24a4.85,4.85,0,0,0,9.71,0l.27-3.24Z"/><path class="cls-11" d="M69,20.48a4.85,4.85,0,1,0,9.71,0l-1.08-3.24H68.48Z"/><path class="cls-11" d="M49.6,17.24v3.24a4.85,4.85,0,0,0,9.71,0L59,17.24Z"/><path d="M52.84,38.28v1.62a4.85,4.85,0,1,1-9.71,0V38.28H39.89v1.62a8.09,8.09,0,0,0,16.18,0V38.28Z"/><path d="M80.44,76.55H1.07a1.07,1.07,0,1,1,0-2.13H80.44a1.07,1.07,0,1,1,0,2.13Z"/><path d="M98.14,76.55h-12a1.07,1.07,0,0,1,0-2.13h12a1.07,1.07,0,1,1,0,2.13Z"/><path d="M84.41,100H11.68a1.07,1.07,0,1,1,0-2.13H84.41a1.07,1.07,0,0,1,0,2.13Z"/><rect x="40.33" y="80.89" width="18.54" height="3.37" rx="1.62" ry="1.62"/><path d="M91.67,89.5H7.54A7.55,7.55,0,0,1,0,82V25.33A7.55,7.55,0,0,1,7.54,17.8H91.67a7.55,7.55,0,0,1,7.54,7.54v7.54a1.07,1.07,0,0,1-2.13,0V25.33a5.41,5.41,0,0,0-5.41-5.41H7.54a5.41,5.41,0,0,0-5.41,5.41V82a5.41,5.41,0,0,0,5.41,5.41H91.67A5.41,5.41,0,0,0,97.07,82V38.28a1.07,1.07,0,0,1,2.13,0V82A7.55,7.55,0,0,1,91.67,89.5Z"/><path class="cls-12" d="M27,1.07,20.48,20.48a4.85,4.85,0,0,0,9.71,0,4.85,4.85,0,0,0,9.71,0,4.85,4.85,0,1,0,9.71,0,4.85,4.85,0,0,0,9.71,0,4.85,4.85,0,0,0,9.71,0,4.85,4.85,0,1,0,9.71,0L72.25,1.07Z"/><path class="cls-13" d="M33.42,1.07,30.19,20.48a4.85,4.85,0,0,0,9.71,0L41.51,1.07Z"/><path class="cls-13" d="M73.87,25.33a4.85,4.85,0,0,0,4.85-4.85L72.25,1.07H65.78L69,20.48A4.85,4.85,0,0,0,73.87,25.33Z"/><path class="cls-13" d="M49.6,1.07V20.48a4.85,4.85,0,0,0,9.71,0L57.69,1.07Z"/><path d="M73.87,26.4A5.92,5.92,0,0,1,69,23.86a5.91,5.91,0,0,1-9.71,0,5.91,5.91,0,0,1-9.71,0,5.91,5.91,0,0,1-9.71,0,5.91,5.91,0,0,1-9.71,0,5.92,5.92,0,0,1-10.77-3.38v-.17L26.18,0H73l6.77,20.31v.17A5.93,5.93,0,0,1,73.87,26.4ZM68,20.48h2.13a3.79,3.79,0,0,0,7.57.16L71.48,2.13H27.72L21.55,20.64a3.79,3.79,0,0,0,7.57-.16h2.13a3.79,3.79,0,0,0,7.58,0H41a3.79,3.79,0,0,0,7.58,0h2.13a3.79,3.79,0,1,0,7.58,0h2.13a3.79,3.79,0,1,0,7.58,0Z"/><path class="cls-4" d="M94.21,70.45a.85.85,0,0,1-.85-.85V55.48a.85.85,0,0,1,1.7,0V69.6A.85.85,0,0,1,94.21,70.45Z"/><path class="cls-4" d="M94.21,53a.85.85,0,0,1-.85-.85V48a.85.85,0,0,1,1.7,0v4.14A.85.85,0,0,1,94.21,53Z"/></svg>