<svg id="Layer_1" data-name="Layer 1" xmlns="http://www.w3.org/2000/svg" viewBox="0 0 89 99.87"><defs><style>.cls-1{fill:#00b3dd;}</style></defs><title>react_js_development</title><circle class="cls-1" cx="44.5" cy="49.94" r="8.88" transform="translate(-21.56 39.43) rotate(-39.26)"/><path d="M44.29,60.54A10.46,10.46,0,0,1,39,59.09a1.6,1.6,0,0,1,1.63-2.76,7.28,7.28,0,0,0,9.33-10.88,7.28,7.28,0,0,0-10.24-1,7.32,7.32,0,0,0-2.47,7.36,1.6,1.6,0,0,1-3.12.76,10.55,10.55,0,0,1,3.56-10.59,10.49,10.49,0,1,1,6.62,18.6Z"/><path d="M13.62,81.28c-5.47,0-9.38-1.57-11.32-4.64-2.88-4.54-.93-11.58,5.47-19.82,6.07-7.8,15.5-16,26.57-23s22.47-12,32.12-14.18c10.18-2.26,17.37-1,20.25,3.54S87.64,34.81,81.24,43a1.6,1.6,0,1,1-2.53-2c5.43-7,7.35-12.86,5.29-16.12s-8.21-4-16.84-2.13c-9.3,2.06-20.34,6.95-31.1,13.75S16.15,51.27,10.3,58.79C4.87,65.77,2.94,71.65,5,74.92S13.21,79,21.85,77C31.15,75,42.19,70.1,53,63.29A112.59,112.59,0,0,0,74.87,45.55a1.6,1.6,0,1,1,2.35,2.19A115.84,115.84,0,0,1,54.67,66C43.6,73,32.2,78,22.55,80.18A41.73,41.73,0,0,1,13.62,81.28Z"/><path d="M75.38,79.82a44.5,44.5,0,0,1-7.52-.71c-9.74-1.68-21.37-6.17-32.75-12.64S13.91,52.3,7.48,44.79C.7,36.87-1.57,29.93,1.08,25.26c2.48-4.37,8.66-6,17.87-4.83a1.6,1.6,0,1,1-.42,3.18c-7.58-1-12.93.18-14.66,3.23C2,30.21,4.17,36,9.92,42.71c6.19,7.23,15.7,14.68,26.77,21S59,74.33,68.4,75.95c8.72,1.51,14.81.44,16.72-2.92s-.29-9.14-6-15.86c-6.19-7.23-15.7-14.68-26.77-21A110.69,110.69,0,0,0,24.37,24.7a1.6,1.6,0,1,1,.74-3.12A112.33,112.33,0,0,1,53.9,33.4c11.38,6.47,21.19,14.17,27.62,21.67,6.78,7.92,9.06,14.86,6.4,19.54C86,78,81.61,79.82,75.38,79.82Z"/><path d="M43.88,99.87h-.12c-4.52-.07-8.62-3.88-11.86-11a1.6,1.6,0,0,1,2.92-1.32c2.65,5.85,5.84,9.09,9,9.14h.07c3.85,0,7.82-4.71,10.93-12.94,3.36-8.91,5.31-20.83,5.5-33.56s-1.41-24.7-4.5-33.71C52.93,8.1,49.06,3.27,45.2,3.21h-.07c-3.85,0-7.82,4.71-10.93,12.94C30.84,25.05,28.88,37,28.69,49.7c-.18,12,1.26,23.52,4.06,32.36a1.6,1.6,0,0,1-3.06,1c-2.9-9.16-4.4-21-4.21-33.38C25.68,36.56,27.71,24.26,31.2,15c3.65-9.69,8.6-15,13.93-15h.12c5.38.08,10.2,5.56,13.59,15.42,3.21,9.35,4.87,21.71,4.68,34.8S61.29,75.61,57.8,84.86C54.15,94.55,49.21,99.87,43.88,99.87Z"/></svg>