<svg id="Layer_1" data-name="Layer 1" xmlns="http://www.w3.org/2000/svg" viewBox="0 0 107.86 99.86"><defs><style>.cls-1{fill:#ff5273;}.cls-2{fill:#e5dbc1;}.cls-3{fill:#999688;}.cls-4{fill:#ea1f3d;}.cls-5{fill:#00baac;}.cls-6{fill:#fff;}</style></defs><title>event_and_ticket</title><path class="cls-1" d="M81.82,1.06v7H69.53v-7H27.39v7H15.1v-7h-14V20.37H95.87V1.06Zm0,0"/><path class="cls-2" d="M15.1,20.37h-14V95.87H95.87V20.37Zm0,0"/><path class="cls-3" d="M66,32.67H15.1V83.58H81.82V32.67Zm-15.81,3.5H62.51V48.47H50.21ZM62.51,64.27H50.21V52H62.51ZM34.41,52H46.71V64.27H34.41Zm0-15.8H46.71V48.47H34.41Zm-15.8,0H30.91V48.47H18.61Zm0,15.8H30.91V64.27H18.61ZM30.91,80.07H18.61V67.78H30.91Zm15.8,0H34.41V67.78H46.71Zm15.8,0H50.21V67.78H62.51Zm15.8,0H66V67.78H78.31Zm0-15.8H66V52H78.31ZM66,48.47V36.17H78.31V48.47Zm0,0"/><rect class="cls-4" x="34.41" y="51.97" width="12.29" height="12.29"/><path d="M95.87,96.92H1.06A1.06,1.06,0,0,1,0,95.87V1.06A1.06,1.06,0,0,1,1.06,0h14a1.06,1.06,0,0,1,1.06,1.06V7H26.34v-6A1.06,1.06,0,0,1,27.39,0H69.53a1.06,1.06,0,0,1,1.06,1.06V7H80.77v-6A1.06,1.06,0,0,1,81.82,0h14a1.06,1.06,0,0,1,1.06,1.06V95.87A1.06,1.06,0,0,1,95.87,96.92ZM2.11,94.81h92.7V2.11H82.88v6a1.06,1.06,0,0,1-1.06,1.06H69.53a1.06,1.06,0,0,1-1.06-1.06v-6h-40v6a1.06,1.06,0,0,1-1.06,1.06H15.1A1.06,1.06,0,0,1,14,8.08v-6H2.11Z"/><path class="cls-5" d="M107,77.94A21.07,21.07,0,1,1,85.94,56.87,21.08,21.08,0,0,1,107,77.94Zm0,0"/><path d="M85.94,99.86a21.92,21.92,0,1,1,21.92-21.92A21.94,21.94,0,0,1,85.94,99.86Zm0-42.15a20.23,20.23,0,1,0,20.23,20.23A20.25,20.25,0,0,0,85.94,57.71Z"/><path class="cls-6" d="M97.48,67.72a1.75,1.75,0,0,0-2.44.44L85.21,82.28l-6.94-5.69A1.75,1.75,0,0,0,76,79.3l8.4,6.9a1.78,1.78,0,0,0,1.11.39h.24a1.74,1.74,0,0,0,1.2-.74L97.92,70.17a1.76,1.76,0,0,0-.44-2.44Zm0,0"/><path d="M69,21.22H1.06a.85.85,0,1,1,0-1.69H69a.85.85,0,1,1,0,1.69Z"/><path d="M96.37,21.22H76a.85.85,0,0,1,0-1.69H96.37a.85.85,0,1,1,0,1.69Z"/></svg>