<svg id="Layer_1" data-name="Layer 1" xmlns="http://www.w3.org/2000/svg" viewBox="0 0 58.09 100"><defs><style>.cls-1{fill:#fcfcfc;}.cls-2{fill:#33fff5;}.cls-3{fill:#fff;}.cls-4{fill:#f3756a;}.cls-5{fill:#50b4ff;}.cls-6{fill:#c1ee92;}.cls-7{fill:#fed99c;}</style></defs><title>Custom_application_development_services</title><polyline class="cls-1" points="56.41 13.74 56.41 80.28 0.32 80.28 0.32 13.74"/><path class="cls-2" d="M39.19,13.74H.32V6.34A5.34,5.34,0,0,1,5.66,1H51.08a5.34,5.34,0,0,1,5.34,5.34v7.41"/><path class="cls-2" d="M14.1,80.28h43V93.66A5.34,5.34,0,0,1,51.75,99H6.34A5.34,5.34,0,0,1,1,93.66V80.28"/><path class="cls-3" d="M29,93.63a4,4,0,1,1,4-4,4,4,0,0,1-4,4Zm0,0"/><path d="M29,94.62a5,5,0,1,1,5-5A5,5,0,0,1,29,94.62Zm0-8a3,3,0,1,0,3,3A3,3,0,0,0,29,86.65Z"/><rect class="cls-4" x="8.42" y="27.28" width="15.96" height="15.96"/><rect class="cls-5" x="32.35" y="27.28" width="15.96" height="15.96"/><rect class="cls-6" x="8.42" y="51.21" width="15.96" height="15.96"/><polyline class="cls-7" points="48.31 67.17 32.35 67.17 32.35 51.21 48.31 51.21 48.31 59.19"/><path d="M24.38,44.24h-16a1,1,0,0,1-1-1v-16a1,1,0,0,1,1-1h16a1,1,0,0,1,1,1v16A1,1,0,0,1,24.38,44.24Zm-15-2h14v-14h-14Z"/><path d="M48.31,44.24h-16a1,1,0,0,1-1-1v-16a1,1,0,0,1,1-1h16a1,1,0,0,1,1,1v16A1,1,0,0,1,48.31,44.24Zm-15-2h14v-14h-14Z"/><path d="M24.38,68.17h-16a1,1,0,0,1-1-1v-16a1,1,0,0,1,1-1h16a1,1,0,0,1,1,1v16A1,1,0,0,1,24.38,68.17Zm-15-2h14v-14h-14Z"/><path d="M48.31,68.17h-16a1,1,0,0,1-1-1v-16a1,1,0,0,1,1-1h16a1,1,0,0,1,1,1v8a1,1,0,0,1-2,0v-7h-14v14h15a1,1,0,1,1,0,2Z"/><path d="M51.75,100H6.34A6.34,6.34,0,0,1,0,93.66V6.34A6.34,6.34,0,0,1,6.34,0H51.75a6.34,6.34,0,0,1,6.34,6.34V93.66A6.34,6.34,0,0,1,51.75,100ZM6.34,2A4.35,4.35,0,0,0,2,6.34V93.66A4.35,4.35,0,0,0,6.34,98H51.75a4.35,4.35,0,0,0,4.34-4.34V6.34A4.35,4.35,0,0,0,51.75,2Z"/><path d="M56.76,14.74H1.31a1,1,0,1,1,0-2H56.76a1,1,0,0,1,0,2Z"/><path d="M56.28,80.88h-48a1,1,0,0,1,0-2h48a1,1,0,0,1,0,2Z"/></svg>