<svg id="Layer_1" data-name="Layer 1" xmlns="http://www.w3.org/2000/svg" viewBox="0 0 99.88 99.88"><defs><style>.cls-1{fill:#19f9f3;}.cls-2{fill:#fff;}</style></defs><title>cms_olution_integration</title><path class="cls-1" d="M91.47,37.27,98.88,34l-3.36-7.69-7.42,3.25a42.83,42.83,0,0,0-18-17.3l3.21-8.2L65.48,1l-3.21,8.2a42.82,42.82,0,0,0-24.49.33L34,1,26.34,4.36,30,12.82A42.84,42.84,0,0,0,12.8,30L4.08,26.58,1,34.4l8.5,3.33a42.81,42.81,0,0,0-.38,24.56L1,65.85l3.36,7.69,7.84-3.43A42.87,42.87,0,0,0,29.56,88.19l-3,7.61,7.82,3.06,2.86-7.3a42.82,42.82,0,0,0,25.53.34l3.06,7,7.69-3.36-3-6.78a42.85,42.85,0,0,0,18.15-18.2L95.8,73.3l3.06-7.82-7-2.74A42.83,42.83,0,0,0,91.47,37.27Z" transform="translate(0 0)"/><path class="cls-2" d="M18.68,61a8.58,8.58,0,0,0,5.86,2A9.32,9.32,0,0,0,30.6,61a6.2,6.2,0,0,0,2.34-5.07,2.07,2.07,0,0,0-2.32-2.25q-2.15,0-2.25,1.44c-.17,2.25-1.2,3.77-3.59,3.77S21,57.54,21,54.85V45q0-4,3.69-4a3.3,3.3,0,0,1,3.57,2.69c.25,1.59.61,2.23,2.37,2.23a2,2,0,0,0,2.29-2.25A5.86,5.86,0,0,0,30.6,38.8a9.51,9.51,0,0,0-6-1.83,8.65,8.65,0,0,0-5.88,2q-2.25,2-2.25,6.1v9.82Q16.44,59,18.68,61Z" transform="translate(0 0)"/><path class="cls-2" d="M40.23,62.3a3.41,3.41,0,0,0,1.61.4c.81,0,2.29-.34,2.29-1.44V45.84l4,7.6a1.76,1.76,0,0,0,3.06,0l4.12-7.32V61.25c0,1.1,1.43,1.44,2.29,1.44s2.29-.36,2.29-1.44v-22A2.19,2.19,0,0,0,57.64,37c-1.79,0-2.76.95-3.59,2.43l-4.33,7.88L45.4,39.4C44.55,37.89,43.65,37,41.84,37a2.16,2.16,0,0,0-2.29,2.29v22A1.2,1.2,0,0,0,40.23,62.3Z" transform="translate(0 0)"/><path class="cls-2" d="M69.33,61.67A11.34,11.34,0,0,0,75.06,63a9,9,0,0,0,6.07-2,6.91,6.91,0,0,0,2.3-5.57,7.55,7.55,0,0,0-2.94-6.19c-2.31-1.56-5.45-2.14-7.51-4a2.42,2.42,0,0,1,.19-3.77,5.11,5.11,0,0,1,2.94-.72c1.75,0,3.24,1.34,4.85,1.34,1.17,0,1.83-1.45,1.83-2.46,0-1.33-1.48-2.07-2.59-2.35a14.76,14.76,0,0,0-7.16-.17A6.82,6.82,0,0,0,67.57,44a6.67,6.67,0,0,0,2.23,5.12c2,1.61,4.56,2.39,6.83,3.62A3.89,3.89,0,0,1,78.86,56c0,2.16-2.06,3.06-3.94,3.06-2.16,0-3.35-1.17-4.94-2.38a1.59,1.59,0,0,0-2.43.39,2.74,2.74,0,0,0-.62,1.64Q66.93,60.3,69.33,61.67Z" transform="translate(0 0)"/><path d="M24.53,63.6a9.29,9.29,0,0,1-6.32-2.12h0c-1.64-1.43-2.47-3.66-2.47-6.63V45c0-3,.84-5.2,2.49-6.63a9.36,9.36,0,0,1,6.33-2.12,10.23,10.23,0,0,1,6.46,2,6.55,6.55,0,0,1,2.61,5.4,2.73,2.73,0,0,1-3,2.95c-2.2,0-2.78-1-3.06-2.82s-2.29-2.1-2.88-2.1c-2.07,0-3,1-3,3.35v9.82c0,2.32.95,3.35,3.07,3.35,1.14,0,2.69-.32,2.89-3.12.06-.78.52-2.09,2.95-2.09a2.77,2.77,0,0,1,3,2.95A6.89,6.89,0,0,1,31,61.54,10,10,0,0,1,24.53,63.6Zm0-25.93a8,8,0,0,0-5.42,1.78c-1.33,1.16-2,3-2,5.58v9.82c0,2.55.67,4.42,2,5.58h0a8,8,0,0,0,5.4,1.78,8.69,8.69,0,0,0,5.63-1.74,5.49,5.49,0,0,0,2.08-4.53c0-1.06-.52-1.56-1.63-1.56-1.5,0-1.54.56-1.56.8-.21,2.84-1.73,4.41-4.28,4.41-2.88,0-4.46-1.68-4.46-4.74V45c0-3.06,1.56-4.74,4.39-4.74A4,4,0,0,1,29,43.57c.22,1.38.37,1.65,1.69,1.65,1.12,0,1.59-.47,1.59-1.56a5.15,5.15,0,0,0-2.07-4.31A8.88,8.88,0,0,0,24.57,37.67Z" transform="translate(0 0)"/><path d="M41.84,63.39a4.16,4.16,0,0,1-2-.49h0a1.88,1.88,0,0,1-1-1.65v-22a2.85,2.85,0,0,1,3-3c2.29,0,3.35,1.34,4.16,2.78l.09.16,3.63,6.61,3.72-6.77a4.56,4.56,0,0,1,4.2-2.79,2.89,2.89,0,0,1,3,3v22c0,1.57-1.78,2.14-3,2.14-1.44,0-3-.67-3-2.14V48.78l-2.81,5A2.42,2.42,0,0,1,49.7,55h0a2.41,2.41,0,0,1-2.13-1.26l-2.74-5.14V61.25C44.83,62.65,43.33,63.39,41.84,63.39Zm0-25.72a1.46,1.46,0,0,0-1.59,1.59v22c0,.08,0,.26.33.45h0a2.73,2.73,0,0,0,1.26.3c.54,0,1.59-.23,1.59-.75V43l1.31,2.46,4,7.6a1,1,0,0,0,.91.52h0a1,1,0,0,0,.92-.52l5.43-9.65V61.25c0,.53,1,.75,1.59.75s1.59-.26,1.59-.75v-22a1.49,1.49,0,0,0-1.59-1.59c-1.33,0-2.14.56-3,2.07l-4.94,9L45.46,41c-.38-.69-.57-1-.66-1.23h0C43.93,38.19,43.18,37.67,41.84,37.67Z" transform="translate(0 0)"/><path d="M75.06,63.74A12.08,12.08,0,0,1,69,62.27c-1.82-1-2.74-2.25-2.74-3.59A3.43,3.43,0,0,1,67,56.62a2.48,2.48,0,0,1,1.62-1,2.38,2.38,0,0,1,1.78.52l.6.46c1.27,1,2.28,1.77,3.92,1.77a4.27,4.27,0,0,0,2.29-.61,2,2,0,0,0,1-1.76,3.31,3.31,0,0,0-1.87-2.64c-.77-.42-1.6-.8-2.4-1.16a21.49,21.49,0,0,1-4.53-2.53A7.35,7.35,0,0,1,66.87,44a7.54,7.54,0,0,1,6-7.44,15.52,15.52,0,0,1,7.5.17c1.51.38,3.11,1.38,3.11,3a3.84,3.84,0,0,1-.59,2A2.3,2.3,0,0,1,81,42.87h0a6.73,6.73,0,0,1-2.59-.7,6,6,0,0,0-2.26-.63,4.48,4.48,0,0,0-2.54.6,1.65,1.65,0,0,0-.7,1.26,1.74,1.74,0,0,0,.57,1.41,14.13,14.13,0,0,0,4,2.2,20.21,20.21,0,0,1,3.45,1.73,8.26,8.26,0,0,1,3.24,6.77,7.6,7.6,0,0,1-2.55,6.1A9.76,9.76,0,0,1,75.06,63.74Zm-6.15-6.79h-.1a1.17,1.17,0,0,0-.7.5,2.08,2.08,0,0,0-.48,1.22c0,.81.69,1.61,2,2.39h0a10.71,10.71,0,0,0,5.39,1.28,8.41,8.41,0,0,0,5.62-1.79,6.19,6.19,0,0,0,2.06-5,6.92,6.92,0,0,0-2.63-5.62,18.89,18.89,0,0,0-3.22-1.61,15.37,15.37,0,0,1-4.37-2.44,3.12,3.12,0,0,1-1-2.54A3,3,0,0,1,72.78,41a5.79,5.79,0,0,1,3.34-.85,7.13,7.13,0,0,1,2.8.74,5.64,5.64,0,0,0,2.05.59h0a1,1,0,0,0,.77-.53,2.46,2.46,0,0,0,.37-1.23C82.1,38.87,81,38.29,80,38a14.14,14.14,0,0,0-6.81-.17,6.13,6.13,0,0,0-5,6.09,6,6,0,0,0,2,4.57,20.14,20.14,0,0,0,4.24,2.35c.82.37,1.67.76,2.49,1.2A4.53,4.53,0,0,1,79.56,56,3.36,3.36,0,0,1,78,58.89a5.6,5.6,0,0,1-3.06.84c-2.12,0-3.41-1-4.78-2.07l-.58-.45A1.1,1.1,0,0,0,68.91,56.95Z" transform="translate(0 0)"/><path d="M93.43,47.72a1,1,0,0,1-1-.9,42.11,42.11,0,0,0-1.91-9.24,1,1,0,0,1,.55-1.22l6.5-2.84L95,27.65l-6.51,2.85a1,1,0,0,1-1.27-.43,41.77,41.77,0,0,0-17.59-16.9,1,1,0,0,1-.48-1.25L72,4.64,66,2.31,63.19,9.59a1,1,0,0,1-1.2.59A41.84,41.84,0,0,0,51.51,8.6a1,1,0,0,1,0-2A43.82,43.82,0,0,1,61.67,8L64.55.66A1,1,0,0,1,65.84.09l7.82,3.06a1,1,0,0,1,.56,1.29l-2.89,7.37a43.73,43.73,0,0,1,17.18,16.5l6.6-2.89a1,1,0,0,1,1.31.51l3.36,7.69a1,1,0,0,1-.51,1.31l-6.59,2.88a44.12,44.12,0,0,1,1.73,8.81,1,1,0,0,1-.9,1.08Z" transform="translate(0 0)"/><path d="M65.85,99.88a1,1,0,0,1-.91-.6l-2.71-6.19a43.69,43.69,0,0,1-24.38-.31l-2.52,6.44a1,1,0,0,1-1.29.56l-7.82-3.06a1,1,0,0,1-.56-1.29l2.66-6.81A43.74,43.74,0,0,1,11.75,71.39l-7,3.06a1,1,0,0,1-1.31-.51L.08,66.25A1,1,0,0,1,.6,64.94L8,61.72a43.77,43.77,0,0,1,.34-23.4l-7.64-3A1,1,0,0,1,.09,34l3.06-7.82a1,1,0,0,1,1.29-.56l7.92,3.1a43.79,43.79,0,0,1,16.4-16.36L25.42,4.76a1,1,0,0,1,.51-1.31L33.63.08A1,1,0,0,1,34.94.6l3.39,7.75A44.17,44.17,0,0,1,46.46,6.8a1,1,0,0,1,.19,2,42.16,42.16,0,0,0-8.58,1.73A1,1,0,0,1,36.86,10L33.52,2.3,27.65,4.87l3.3,7.55a1,1,0,0,1-.44,1.27A41.81,41.81,0,0,0,13.68,30.47a1,1,0,0,1-1.24.45l-7.8-3.05-2.34,6,7.57,3A1,1,0,0,1,10.47,38a41.8,41.8,0,0,0-.37,24,1,1,0,0,1-.56,1.18L2.3,66.36l2.57,5.87,6.93-3a1,1,0,0,1,1.29.46A41.78,41.78,0,0,0,30,87.32a1,1,0,0,1,.44,1.23l-2.61,6.68,6,2.34,2.5-6.38a1,1,0,0,1,1.23-.58,41.74,41.74,0,0,0,24.94.33,1,1,0,0,1,1.19.55l2.66,6.08L72.23,95l-2.57-5.87a1,1,0,0,1,.45-1.28A41.73,41.73,0,0,0,87.84,70.07a1,1,0,0,1,1.25-.47L95.23,72l2.34-6L91.5,63.66a1,1,0,0,1-.59-1.21,42,42,0,0,0,1.63-9.37,1,1,0,0,1,2,.12,44,44,0,0,1-1.46,8.93l6.16,2.41a1,1,0,0,1,.56,1.29l-3.06,7.82a1,1,0,0,1-1.29.56l-6.25-2.45a43.69,43.69,0,0,1-17.33,17.4l2.6,5.94a1,1,0,0,1-.51,1.31l-7.69,3.36A1,1,0,0,1,65.85,99.88Z" transform="translate(0 0)"/></svg>