<svg id="Layer_1" data-name="Layer 1" xmlns="http://www.w3.org/2000/svg" viewBox="0 0 99.98 100"><defs><style>.cls-1{fill:#365558;}.cls-2{fill:#4acfd9;}.cls-3{fill:#9baaab;}.cls-4{fill:#687f82;}.cls-5{fill:#0295aa;}.cls-6{fill:#e6eaea;}.cls-7{fill:#cdd4d5;}.cls-8{fill:#fff;}.cls-9{fill:#f0353d;}.cls-10{fill:#ff8c29;}</style></defs><title>analyze</title><path class="cls-1" d="M84.23,85.8a1.54,1.54,0,0,1-1.1-.45l-14-14a1.55,1.55,0,0,1,2.19-2.19l14,14a1.55,1.55,0,0,1-1.1,2.64Z"/><path d="M84.23,86.84a2.57,2.57,0,0,1-1.83-.76l-14-14A2.59,2.59,0,0,1,72,68.39l14,14a2.59,2.59,0,0,1-1.83,4.42Zm-14-17.12a.51.51,0,0,0-.36.87l14,14a.51.51,0,1,0,.72-.72l-14-14A.51.51,0,0,0,70.21,69.72Z"/><path class="cls-2" d="M72.78,13.35A42,42,0,0,0,13.33,72.8,42,42,0,0,0,72.78,13.35Z"/><path class="cls-3" d="M98.48,89.3,86.8,77.62a1.55,1.55,0,0,0-2.19,0l-7,7a1.55,1.55,0,0,0,0,2.19L89.28,98.5a1.55,1.55,0,0,0,2.19,0l7-7A1.55,1.55,0,0,0,98.48,89.3Z"/><path class="cls-4" d="M81,81.22,77.6,84.63a1.55,1.55,0,0,0,0,2.19L89.28,98.5a1.55,1.55,0,0,0,2.19,0l3.41-3.41Z"/><path class="cls-5" d="M13.24,13.45A42,42,0,0,0,72.68,72.9Z"/><path class="cls-6" d="M61.35,67a30.14,30.14,0,1,0-42.26-5.66A30.18,30.18,0,0,0,61.35,67Z"/><path class="cls-7" d="M21.64,21.86A30.15,30.15,0,0,0,64.27,64.49Z"/><path class="cls-8" d="M77.34,44.62a1.55,1.55,0,0,1-1.55-1.55,32.58,32.58,0,0,0-2.51-12.62,1.55,1.55,0,1,1,2.86-1.19,35.66,35.66,0,0,1,2.75,13.82A1.55,1.55,0,0,1,77.34,44.62Z"/><path class="cls-8" d="M71,24.8a1.55,1.55,0,0,1-1.26-.65,33.27,33.27,0,0,0-3.57-4.22,32.52,32.52,0,0,0-23.15-9.59,1.55,1.55,0,0,1,0-3.1A35.6,35.6,0,0,1,68.4,17.73a36.41,36.41,0,0,1,3.9,4.61A1.55,1.55,0,0,1,71,24.8Z"/><path class="cls-3" d="M31.29,30.79H23.85a1.55,1.55,0,0,0-1.55,1.55V53a1.55,1.55,0,0,0,1.55,1.55h7.44A1.55,1.55,0,0,0,32.84,53V32.33A1.55,1.55,0,0,0,31.29,30.79Z"/><path class="cls-9" d="M46.16,33.26H38.73a1.55,1.55,0,0,0-1.55,1.55V53a1.55,1.55,0,0,0,1.55,1.55h7.44A1.55,1.55,0,0,0,47.71,53V34.81A1.55,1.55,0,0,0,46.16,33.26Z"/><path class="cls-10" d="M61,25.83H53.6A1.55,1.55,0,0,0,52,27.38V53a1.55,1.55,0,0,0,1.55,1.55H61A1.55,1.55,0,0,0,62.58,53V27.38A1.55,1.55,0,0,0,61,25.83Z"/><path class="cls-1" d="M64.34,54.54H20.55a1.55,1.55,0,0,1,0-3.1H64.34a1.55,1.55,0,0,1,0,3.1Z"/><path d="M43.06,86.15A43.08,43.08,0,0,1,12.6,12.62,43.08,43.08,0,0,1,86.13,43.08a43.83,43.83,0,0,1-.46,6.36,1,1,0,0,1-2.06-.3A41.73,41.73,0,0,0,84,43.08a40.76,40.76,0,1,0-1.7,11.75,1,1,0,1,1,2,.59A43.13,43.13,0,0,1,43.06,86.15Z"/><path d="M90.38,100a2.57,2.57,0,0,1-1.83-.76L76.86,87.56a2.59,2.59,0,0,1,0-3.66l7-7a2.59,2.59,0,0,1,3.66,0L99.22,88.57a2.59,2.59,0,0,1,0,3.66l-7,7A2.57,2.57,0,0,1,90.38,100ZM85.7,78.21a.51.51,0,0,0-.36.15l-7,7a.51.51,0,0,0,0,.72L90,97.77a.51.51,0,0,0,.72,0l7-7a.51.51,0,0,0,0-.72L86.06,78.36A.51.51,0,0,0,85.7,78.21Z"/><path d="M43.23,74.27a1,1,0,0,1,0-2.08A28.84,28.84,0,0,0,54.84,69.7a29.14,29.14,0,1,0-17.09,2,1,1,0,1,1-.38,2A31.18,31.18,0,1,1,55.68,71.6a30.91,30.91,0,0,1-12.44,2.67Z"/></svg>