<svg id="Layer_1" data-name="Layer 1" xmlns="http://www.w3.org/2000/svg" viewBox="0 0 100.01 100"><defs><style>.cls-1{fill:#568cc9;}.cls-2{fill:#010101;}.cls-3{fill:#fff;}.cls-4{fill:#c1daf2;}</style></defs><title>icon</title><path class="cls-1" d="M49.92,99.46A49.46,49.46,0,1,1,99.47,50,49.55,49.55,0,0,1,49.92,99.46Z"/><path class="cls-2" d="M50,100h-.11a49.54,49.54,0,0,1-19.46-4A50.39,50.39,0,0,1,3.87,69.29,49.33,49.33,0,0,1,0,49.88,50.13,50.13,0,0,1,50,0h0A50.1,50.1,0,0,1,91.12,21.61a.54.54,0,1,1-.89.62A48.89,48.89,0,0,0,1.08,49.88a49,49,0,0,0,48.84,49H50A49,49,0,0,0,98.93,50a.54.54,0,0,1,.54-.54h0A.54.54,0,0,1,100,50,49.89,49.89,0,0,1,85.28,85.38,50,50,0,0,1,69.36,96.1,49.45,49.45,0,0,1,50,100Z"/><path class="cls-2" d="M98.53,40.93a.54.54,0,0,1-.53-.43c-.26-1.29-.57-2.58-.93-3.85s-.8-2.59-1.27-3.84-.94-2.35-1.47-3.48a.54.54,0,1,1,1-.46c.55,1.16,1.05,2.36,1.51,3.56s.92,2.61,1.3,3.93.69,2.61.95,3.93a.54.54,0,0,1-.42.63Z"/><g id="_Group_" data-name="&lt;Group&gt;"><path class="cls-3" d="M26.71,59.76A26.85,26.85,0,0,0,38.18,67a38.73,38.73,0,0,0,17.65,1c1.07-.18,1.37-.59,1.37-1.63.05-7.63.15-15.26.25-22.89a2.79,2.79,0,0,0-.59-1.86c-2.27-2.93-4.54-5.85-6.74-8.83A1.93,1.93,0,0,0,48,31.92c-7.55,1-15.11,2-22.66,3-1,.14-1.18-.17-1.08-1.06a10.87,10.87,0,0,1,5.1-7.94c4-2.7,8.53-3.67,13.18-4.12A61.26,61.26,0,0,1,63.74,23,18.68,18.68,0,0,1,72,27.09c2,1.8,3.16,3.82,2.69,6.8-1.77,11.24-3.46,22.49-4.9,33.77a8.83,8.83,0,0,1-5.54,7.58c-9.57,4.09-19.23,4.39-28.84,0a16.87,16.87,0,0,1-2.58-1.57c-3.18-2.21-5.4-5-5.41-9.12A33.82,33.82,0,0,0,26.71,59.76Z"/></g><path class="cls-2" d="M49.53,79a34.45,34.45,0,0,1-14.38-3.2,17.31,17.31,0,0,1-2.67-1.62c-3.84-2.67-5.63-5.71-5.64-9.56a17.75,17.75,0,0,0-.41-3.21c-.09-.5-.19-1-.27-1.52l-.24-1.62,1.16,1.16a26.32,26.32,0,0,0,11.25,7.06,38.37,38.37,0,0,0,17.4.94c.78-.13.92-.3.92-1.1,0-2.58,0-5.28.07-8.28a.54.54,0,0,1,1.08,0c0,3-.05,5.7-.07,8.27a1.88,1.88,0,0,1-1.82,2.15,39.44,39.44,0,0,1-17.89-1A26.45,26.45,0,0,1,27.52,61.3a18.13,18.13,0,0,1,.4,3.27c0,3.52,1.61,6.19,5.18,8.68a16.5,16.5,0,0,0,2.5,1.53c9.11,4.14,18.66,4.13,28.4,0a8.31,8.31,0,0,0,5.22-7.16c1.25-9.75,2.76-20.17,4.9-33.79.39-2.46-.37-4.35-2.52-6.31a18,18,0,0,0-8-3.93,60.6,60.6,0,0,0-21-1.21c-3.81.37-8.72,1.17-12.93,4A10.29,10.29,0,0,0,24.77,34a1.56,1.56,0,0,0,0,.47,1.45,1.45,0,0,0,.48,0c3.69-.5,7.44-1,11.06-1.48,3.8-.5,7.74-1,11.6-1.55a2.46,2.46,0,0,1,2.65,1c2.17,2.93,4.44,5.86,6.63,8.69l.1.13a3.34,3.34,0,0,1,.71,2.2q-.05,3.91-.1,7.82,0,1.46,0,2.92a.54.54,0,0,1-1.08,0q0-1.46,0-2.92,0-3.91.1-7.82a2.25,2.25,0,0,0-.48-1.52l-.1-.13C54.13,38.9,51.86,36,49.68,33c-.42-.57-.77-.69-1.64-.57-3.87.53-7.8,1-11.61,1.55-3.63.48-7.37,1-11.06,1.48A1.62,1.62,0,0,1,24,35.2a1.59,1.59,0,0,1-.3-1.38A11.46,11.46,0,0,1,29,25.5c4.42-3,9.5-3.83,13.43-4.21a61.66,61.66,0,0,1,21.41,1.23,19,19,0,0,1,8.45,4.18c2.42,2.21,3.31,4.45,2.86,7.28-2.14,13.6-3.65,24-4.9,33.76a9.32,9.32,0,0,1-5.87,8A37.74,37.74,0,0,1,49.53,79Z"/><path class="cls-4" d="M48.58,65.5A30.4,30.4,0,0,1,38.4,63.75a21.36,21.36,0,0,1-7.69-4.29,5.29,5.29,0,0,1-1.95-3.68C28.53,52.4,28.27,49,28,45.64q-.18-2.34-.36-4.69l.38.26c.82.57,1.6,1.11,2.44,1.58a30.68,30.68,0,0,0,11.76,3.36,50.89,50.89,0,0,0,5.7.33,40.58,40.58,0,0,0,5.67-.39l.36,0a.45.45,0,0,1,.19,0,1.22,1.22,0,0,1,.07.56c0,6.54.07,13,.13,17.84,0,.57-.14.63-.89.67l-.42,0A33.28,33.28,0,0,1,48.58,65.5Z"/><path class="cls-2" d="M28.28,42c.64.44,1.26.85,1.93,1.23a31.19,31.19,0,0,0,12,3.42,51.42,51.42,0,0,0,5.76.34,41.12,41.12,0,0,0,5.74-.39h0v0c0,6.55.07,13,.13,17.85,0,0,0,.06,0,.09l-.38,0-.47,0a32.73,32.73,0,0,1-4.39.3,29.86,29.86,0,0,1-10-1.71,20.86,20.86,0,0,1-7.5-4.18,4.73,4.73,0,0,1-1.78-3.32c-.23-3.39-.49-6.83-.75-10.16-.09-1.17-.18-2.37-.27-3.56M27.18,40a5.25,5.25,0,0,0-.08.78c.37,5,.78,10,1.12,15.08a5.84,5.84,0,0,0,2.12,4,22.2,22.2,0,0,0,7.87,4.4A30.81,30.81,0,0,0,48.58,66a33.66,33.66,0,0,0,4.54-.31c.7-.09,1.8.12,1.78-1.24-.07-5.95-.13-11.89-.13-17.84,0-.82-.18-1.12-.8-1.12a3.14,3.14,0,0,0-.43,0,39.81,39.81,0,0,1-5.59.38,50.75,50.75,0,0,1-5.64-.33,29.8,29.8,0,0,1-11.55-3.29c-1.2-.67-2.31-1.51-3.56-2.35Z"/><path class="cls-4" d="M48.13,43a40.11,40.11,0,0,1-13.47-2.3A16,16,0,0,1,28.57,37l3.55-.44L47,34.72l.29,0a1,1,0,0,1,.92.51c1.34,1.85,2.73,3.71,4.07,5.51l1.23,1.64a2.38,2.38,0,0,1,.18.28,2.68,2.68,0,0,1-.4.07A45.19,45.19,0,0,1,48.13,43Z"/><path class="cls-2" d="M47.26,35.24c.18,0,.29,0,.48.28,1.34,1.86,2.73,3.72,4.08,5.52l.89,1.19a44.44,44.44,0,0,1-4.57.24,39.57,39.57,0,0,1-13.29-2.27,16,16,0,0,1-5-2.8l2.38-.3L47,35.26l.23,0m0-1.08-.36,0L27.44,36.62a16.26,16.26,0,0,0,7,4.61,40.45,40.45,0,0,0,13.65,2.33,45.52,45.52,0,0,0,5.19-.3c1-.12,1.18-.41.59-1.21-1.77-2.38-3.56-4.75-5.3-7.15a1.55,1.55,0,0,0-1.36-.73Z"/></svg>