<svg id="Layer_1" data-name="Layer 1" xmlns="http://www.w3.org/2000/svg" viewBox="0 0 99.37 100.13"><defs><style>.cls-1{fill:#e0e0e2;}.cls-2{fill:#c6c5ca;}.cls-3{fill:#546f7a;}.cls-4{fill:#475d63;}.cls-5{fill:#ff6137;}.cls-6{fill:#e04f32;}.cls-7{fill:#ffc89f;}.cls-8{fill:#f7b081;}.cls-9{fill:#ffd039;}.cls-10{fill:#ffa304;}.cls-11{fill:#919191;}.cls-12{fill:#3c5156;}.cls-13{fill:#ffca10;}.cls-14{fill:#fff78f;}</style></defs><title>architecture</title><path class="cls-1" d="M1.1,20.72s.14,51.92,0,57.5A9.88,9.88,0,0,0,11,87.83H60.51L93.39,54.95V20.72Z"/><polygon class="cls-2" points="27.3 57 32.91 57 37.83 43.06 60.17 20.72 54.56 20.72 32.23 43.06 27.3 57"/><polygon class="cls-2" points="88.38 20.72 88.38 59.95 93.39 54.95 93.39 20.72 88.38 20.72"/><path d="M60.51,88.91H11A11,11,0,0,1,0,78.25s0,0,0-.06C.15,72.7,0,21.24,0,20.72A1.09,1.09,0,0,1,1.1,19.63H93.39a1.09,1.09,0,0,1,1.09,1.09v6.42a1.09,1.09,0,0,1-2.18,0V21.81H2.19c0,7.51.13,51.19,0,56.41A8.74,8.74,0,0,0,11,86.74H60.06L92.3,54.5V32.59a1.09,1.09,0,0,1,2.18,0V54.95a1.09,1.09,0,0,1-.32.77L61.28,88.6A1.09,1.09,0,0,1,60.51,88.91Z"/><path class="cls-3" d="M89,5.57,84.34.9A3.08,3.08,0,0,0,80,.9l-4,4,9,9,4-4A3.08,3.08,0,0,0,89,5.57Z"/><path class="cls-4" d="M89,5.57l-3-3a3.08,3.08,0,0,1,0,4.35l-4,4,3,3,4-4A3.08,3.08,0,0,0,89,5.57Z"/><rect class="cls-5" x="74.57" y="5.51" width="6.9" height="12.76" transform="translate(14.44 58.65) rotate(-45)"/><rect class="cls-6" x="77.58" y="12.78" width="6.9" height="4.25" transform="translate(13.2 61.66) rotate(-45)"/><polygon class="cls-7" points="32.91 57 46.84 52.09 37.83 43.07 32.91 57"/><polygon class="cls-8" points="43.84 49.09 34.55 52.37 32.91 57 46.84 52.09 43.84 49.09"/><rect class="cls-9" x="35.46" y="24.57" width="47" height="12.76" transform="translate(-4.62 50.76) rotate(-45)"/><rect class="cls-10" x="38.47" y="31.84" width="47" height="4.25" transform="translate(-5.87 53.77) rotate(-45)"/><path class="cls-11" d="M11.4,68.17V4.35A10.32,10.32,0,0,0,1.09,14.67V78.49A10.32,10.32,0,0,1,11.4,68.17Z"/><polygon class="cls-12" points="32.91 57 39.41 54.71 35.21 50.5 32.91 57"/><rect x="76.07" y="7.02" width="3.9" height="9.76" transform="translate(14.44 58.65) rotate(-45)"/><path d="M81.05,2a1.58,1.58,0,0,1,2.23,0L88,6.63a1.58,1.58,0,0,1,0,2.23l-3,3-6.9-6.9Z"/><polygon points="39.81 52.98 36.94 50.11 38.46 45.81 44.11 51.46 39.81 52.98"/><path d="M1.09,79.58A1.09,1.09,0,0,1,0,78.49V20.75a1.09,1.09,0,0,1,2.18,0v51a11.41,11.41,0,0,1,8.14-4.66V5.51a9.24,9.24,0,0,0-8.14,9.16V15A1.09,1.09,0,1,1,0,15v-.3A11.42,11.42,0,0,1,11.4,3.27a1.09,1.09,0,0,1,1.09,1.09V68.17a1.09,1.09,0,0,1-1.09,1.09,9.24,9.24,0,0,0-9.23,9.23A1.09,1.09,0,0,1,1.09,79.58Z"/><path class="cls-13" d="M47.12,99H98.28V47.88ZM87.41,88.39H71L87.41,72Z"/><polygon class="cls-10" points="93.27 52.89 93.27 99.04 98.28 99.04 98.28 47.88 93.27 52.89"/><path d="M99.37,100.13H44.49L81.13,63.49A1.09,1.09,0,0,1,82.67,65L49.75,97.95H97.19V50.51l-9.35,9.35a1.09,1.09,0,0,1-1.54-1.54L99.37,45.25ZM88.5,89.48H68.36L88.5,69.34ZM73.62,87.3h12.7V74.6Z"/><path class="cls-1" d="M5,57.88A.87.87,0,0,1,4.16,57V36.93a.87.87,0,0,1,1.74,0V57A.87.87,0,0,1,5,57.88Z"/><path class="cls-1" d="M5,66.78a.87.87,0,0,1-.87-.87V60.24a.87.87,0,0,1,1.74,0v5.66A.87.87,0,0,1,5,66.78Z"/><path class="cls-14" d="M55.35,95.71a.54.54,0,0,1-.38-.94L72.81,77.5a.54.54,0,0,1,.76.78L55.73,95.56A.54.54,0,0,1,55.35,95.71Z"/><path class="cls-14" d="M75,76.8a.54.54,0,0,1-.37-.95l3.06-2.79a.54.54,0,1,1,.73.8l-3.06,2.79A.54.54,0,0,1,75,76.8Z"/></svg>