<svg id="Layer_1" data-name="Layer 1" xmlns="http://www.w3.org/2000/svg" viewBox="0 0 84.5 100.31"><defs><style>.cls-1{fill:#3562aa;}.cls-2{fill:#4583ce;}.cls-3{fill:#7becff;}</style></defs><title>bootstep</title><path class="cls-1" d="M1.16,99.14V1.58c.35-.21.54-.43.74-.43,17.77.13,35.55.22,53.32.5A28.21,28.21,0,0,1,63,3.22c10.53,3.3,15.8,11.62,15.23,23.29-.39,8-3.89,13.92-10.76,17.93-.68.39-1.29.89-2,1.41,16.44,7,22.57,24,14,38.61C74,93.85,65,97.94,54.79,98.48c-15.07.79-30.19.5-45.29.65C6.85,99.16,4.19,99.14,1.16,99.14ZM22.49,81.86c9.69,0,19.2.51,28.62-.17,6.92-.5,10.38-5.3,10.47-12.09.1-7.34-3.26-12-10-13.52a23.81,23.81,0,0,0-5.15-.68c-8-.07-15.92,0-24,0Zm0-41.2c8.43,0,16.44.19,24.44-.06a10.58,10.58,0,0,0,10.64-9.95c.6-6.16-2.29-11.37-8-12-8.91-1-17.93-.91-27.07-1.29Z"/><path class="cls-2" d="M15,98.11c-6.4.79-3.93.5-10.34.65-1.13,0-2.25,0-3.54,0V1.21C1.31,1,15,1.48,15.09,1.48"/><path d="M6.56,100.31H0V31.95a1.16,1.16,0,0,1,2.32,0V98H4c1.9,0,3.69,0,5.47,0,4.44,0,9-.05,13.33-.06,10.47,0,21.31,0,31.92-.59,10.89-.57,18.88-5.1,23.76-13.45A24.85,24.85,0,0,0,81,63.36c-2.38-7.21-8.05-13-16-16.44l-1.91-.82,1.7-1.19.67-.48a16.29,16.29,0,0,1,1.44-1c6.48-3.78,9.82-9.34,10.19-17,.55-11.35-4.43-19-14.42-22.13A27.26,27.26,0,0,0,55.2,2.82c-14.37-.23-29-.33-43.12-.43L2.32,2.32V23.25a1.16,1.16,0,0,1-2.32,0V.93L.56.59.8.43A1.83,1.83,0,0,1,1.89,0h0L12.09.07c14.14.1,28.76.2,43.14.43a29.28,29.28,0,0,1,8.14,1.62C74.32,5.55,80,14.24,79.42,26.57,79,34.95,75.2,41.3,68.08,45.45l-.31.19c7.58,3.75,13,9.72,15.42,17A27.14,27.14,0,0,1,80.49,85C75.28,94,66.41,99,54.86,99.64c-10.67.56-21.53.58-32,.6-4.36,0-8.88,0-13.31.06ZM39.72,83.2c-2.86,0-5.71,0-8.53-.09S25.4,83,22.49,83H21.33V54.21h7.53c5.78,0,11.75,0,17.61,0a24.67,24.67,0,0,1,5.4.71c7.22,1.68,11,6.76,10.87,14.67S58.32,82.33,51.2,82.85h0C47.4,83.12,43.55,83.2,39.72,83.2ZM23.65,80.7c2.55,0,5.1.05,7.58.09,6.82.11,13.27.21,19.8-.26h0c8.05-.58,9.34-7.11,9.39-10.95.09-6.79-3-11-9.08-12.38a22.39,22.39,0,0,0-4.9-.65c-5.85-.05-11.81,0-17.58,0H23.65ZM37.32,41.89c-2.39,0-4.82,0-7.3,0s-5,0-7.57,0H21.29V16.16l1.21.05c2.72.11,5.48.19,8.14.26,6.25.17,12.71.34,19,1,6,.66,9.73,6.11,9,13.26a11.79,11.79,0,0,1-11.75,11C43.72,41.86,40.54,41.89,37.32,41.89ZM23.61,39.5l6.43,0c5.79,0,11.27.08,16.81-.1a9.44,9.44,0,0,0,9.52-8.9c.48-4.91-1.5-10.13-7-10.73-6.2-.68-12.61-.85-18.81-1-2.28-.06-4.63-.12-7-.21Z"/><path class="cls-3" d="M6.14,94.44A1.16,1.16,0,0,1,5,93.28V64.76a1.16,1.16,0,0,1,2.32,0V93.28A1.16,1.16,0,0,1,6.14,94.44Z"/><path class="cls-3" d="M6.14,61.51A1.16,1.16,0,0,1,5,60.35V55.95a1.16,1.16,0,1,1,2.32,0v4.41A1.16,1.16,0,0,1,6.14,61.51Z"/></svg>