<svg id="Layer_1" data-name="Layer 1" xmlns="http://www.w3.org/2000/svg" viewBox="0 0 136.36 99.83"><defs><style>.cls-1{fill:#694b4b;}.cls-2{fill:#5a4146;}.cls-3{fill:#e6af78;}.cls-4{fill:#d5dced;}.cls-5{fill:#f0c087;}.cls-6{fill:#c7cfe2;}.cls-7{fill:#ff507d;}.cls-8{fill:#d23c69;}.cls-9{fill:#d29b6e;}</style></defs><title>Brilliant</title><path class="cls-1" d="M35.46,49.1c-.6-8.41-6.84-15.27-15.27-15.27S5.52,40.69,4.92,49.1c-.36,5,0,13.09-2.18,17.45,0,0,2.18,4.36,10.23,6.55H27.46c8-2.18,10.18-6.54,10.18-6.54C35.46,62.19,35.82,54.12,35.46,49.1Z"/><path class="cls-2" d="M18,49.1c-8.41-4.2-6.68-12.44-.69-15-6.95,1.36-11.87,7.56-12.4,15-.36,5,0,13.09-2.18,17.45,0,0,2.18,4.36,10.23,6.55h6.89Z"/><path d="M12.82,74.22l-.14,0C4.24,71.89,1.84,67.25,1.74,67.05l-.25-.5.25-.5C3.31,62.93,3.49,57.43,3.63,53c0-1.43.09-2.79.18-4,0-.25,0-.51.07-.79l0-.17V48c0-.17,0-.35.07-.52l0-.23v-.08c0-.16.05-.31.08-.46l.07-.32.1-.44.08-.33.11-.41.1-.33.12-.4,0-.08.08-.25.11-.31L5,43.66l.09-.24.06-.14,0-.07c.12-.29.25-.59.38-.88l0-.07.08-.16.21-.41,0-.08L6,41.45,6.21,41l.11-.19.27-.44.1-.16L7,39.76l.07-.1a15.85,15.85,0,0,1,24.49-2.13,18.3,18.3,0,0,1,5,11.49h0c.08,1.2.13,2.55.18,4,.15,4.42.33,9.93,1.89,13.05l.25.5-.25.5c-.1.2-2.5,4.83-10.88,7.12l-.14,0ZM4,66.47c.76,1.06,3.26,3.9,9.11,5.52H27.31c5.82-1.62,8.31-4.45,9.07-5.52-1.53-3.56-1.7-8.77-1.85-13.39,0-1.41-.09-2.74-.17-3.9-.58-8.12-6.67-14.24-14.16-14.24a13.66,13.66,0,0,0-11.3,6L8.83,41l-.27.4-.09.14L8.24,42l-.09.15-.22.4-.07.13,0,.09-.18.35-.06.12,0,.09c-.12.26-.23.52-.34.77l0,.1,0,.09-.07.19L7,44.6l-.09.26-.07.21,0,.09-.11.35-.08.28-.1.38-.07.29-.09.38-.06.28c0,.14-.05.27-.07.41v.08l0,.19c0,.15,0,.3-.06.46v.11l0,.12c0,.25,0,.47-.06.7-.08,1.15-.13,2.49-.17,3.9C5.7,57.7,5.53,62.91,4,66.47Z"/><path class="cls-3" d="M36.2,78.35l-7.06-3.53a4.36,4.36,0,0,1-2.41-3.9V64.37H13.64v6.54a4.36,4.36,0,0,1-2.41,3.9L4.17,78.35A6.54,6.54,0,0,0,.56,84.2V99.28H39.82V84.2A6.54,6.54,0,0,0,36.2,78.35Z"/><path d="M40.38,99.83H0V84.2a7.06,7.06,0,0,1,3.92-6.35L11,74.32a3.79,3.79,0,0,0,2.1-3.41v-7.1h14.2v7.1a3.79,3.79,0,0,0,2.1,3.41l7.06,3.53a7.06,7.06,0,0,1,3.92,6.35ZM1.11,98.72H39.27V84.2A6,6,0,0,0,36,78.85L28.9,75.32a4.89,4.89,0,0,1-2.72-4.4v-6h-12v6a4.89,4.89,0,0,1-2.72,4.4L4.42,78.85A6,6,0,0,0,1.11,84.2Z"/><path class="cls-4" d="M39.82,84.2a6.54,6.54,0,0,0-3.62-5.85l-7.06-3.53A4.32,4.32,0,0,1,28.07,74l-2.5,2.79a7.09,7.09,0,0,1-10.75,0L12.31,74a4.34,4.34,0,0,1-1.08.78L4.17,78.35A6.54,6.54,0,0,0,.56,84.2V99.28H39.82V84.2Z"/><path class="cls-5" d="M20.19,68.74h0A13.09,13.09,0,0,1,8.64,61.81a6.38,6.38,0,0,1,2.08-8.14,16.91,16.91,0,0,0,1.52-1.2,12.59,12.59,0,0,0,3-3.94,2.15,2.15,0,0,1,2.45-1.19,37.58,37.58,0,0,1,14.83,7.6,2.08,2.08,0,0,1,.74,1.73A13.09,13.09,0,0,1,20.19,68.74Z"/><path class="cls-3" d="M32.5,55.12a37.58,37.58,0,0,0-14.82-7.6,2.16,2.16,0,0,0-2.46,1.2,12.49,12.49,0,0,1-2,2.91h0a11.68,11.68,0,0,1-1,1,15.22,15.22,0,0,1-1.46,1.16,6.49,6.49,0,0,0-1.65,9,13.12,13.12,0,0,0,9.08,5.92,9.49,9.49,0,0,1-4.56-8.54V58.51c.5-.37,1-.73,1.5-1.18a17.37,17.37,0,0,0,3.12-3.68,32.94,32.94,0,0,1,11.37,6.19c.41.36,1,.87,2.19,2a13.13,13.13,0,0,0,1.42-5A2.08,2.08,0,0,0,32.5,55.12Z"/><path d="M20.26,69.29a13.63,13.63,0,0,1-12-7.22,6.77,6.77,0,0,1,0-6.25l0,0c.09-.17.16-.31.25-.44l.16-.26.15-.22L9,54.55l.1-.11.06-.07.27-.3.23-.22.11-.1.14-.13c.16-.14.34-.27.51-.4a16.41,16.41,0,0,0,1.47-1.16l.27-.26.07-.07.48-.5v0l.12-.12a12.24,12.24,0,0,0,1.74-2.46l.16-.33a2.71,2.71,0,0,1,3.08-1.49h0a38.19,38.19,0,0,1,15,7.69l.05,0,0,0A2.7,2.7,0,0,1,33.81,56v.07s0,.1,0,.15v.05s0,.07,0,.11a2.52,2.52,0,0,1,0,.32v0c0,.12,0,.26,0,.39a13.62,13.62,0,0,1-.43,2.24,9.89,9.89,0,0,1-1,2.58l0,0A13.6,13.6,0,0,1,20.26,69.29ZM13.81,51.7h0l-.11.12c-.23.26-.44.48-.66.7L13,52.6l-.3.29a17.52,17.52,0,0,1-1.57,1.24c-.15.1-.29.22-.43.33l-.09.08-.08.07,0,0-.19.18-.23.25-.07.08-.07.08-.21.28-.13.18-.14.22-.2.36,0,0a5.66,5.66,0,0,0,0,5.22,12.54,12.54,0,0,0,22.2-.16l.32-.61h0a11,11,0,0,0,.59-1.71,12.56,12.56,0,0,0,.4-2.07c0-.13,0-.25,0-.36v0a1.43,1.43,0,0,0,0-.17v-.12s0,0,0-.06v0a1.58,1.58,0,0,0-.52-.87l-.05,0a37,37,0,0,0-14.53-7.43h0a1.6,1.6,0,0,0-1.79.9l-.18.36A13.38,13.38,0,0,1,13.81,51.7Zm20,5h0Z"/><path class="cls-6" d="M1.89,80.27A6.53,6.53,0,0,0,.56,84.2V99.28H9.28v-11a4.36,4.36,0,0,0-1.64-3.41Z"/><path class="cls-6" d="M38.49,80.27a6.53,6.53,0,0,1,1.33,3.93V99.28H31.1v-11a4.36,4.36,0,0,1,1.64-3.41Z"/><path d="M9.84,99.83H0V84.2a7,7,0,0,1,1.44-4.27l.34-.46,6.21,5a4.89,4.89,0,0,1,1.85,3.84ZM1.11,98.72H8.73V88.29a3.79,3.79,0,0,0-1.43-3L2,81.08a5.9,5.9,0,0,0-.89,3.12Z"/><path d="M0,99.83V84.15c0-.16,0-.33,0-.5v-.14c0-.14,0-.29.05-.43V83c0-.18.07-.35.11-.52a7.09,7.09,0,0,1,3.71-4.63L11,74.32a3.76,3.76,0,0,0,.94-.68l.41-.4,2.89,3.22a6.53,6.53,0,0,0,9.93,0L28,73.24l.41.4a3.75,3.75,0,0,0,.94.68l7.06,3.53a7.09,7.09,0,0,1,3.71,4.62c0,.17.08.34.11.51l0,.1c0,.14,0,.28.05.43v.14c0,.17,0,.33,0,.5V99.83Zm1.11-1.11H39.27V84.2a.36.36,0,0,1,0,0h0c0-.14,0-.29,0-.43v-.12c0-.12,0-.24,0-.36v-.07c0-.16-.06-.3-.09-.44A6,6,0,0,0,36,78.85L28.9,75.32a4.54,4.54,0,0,1-.78-.5L26,77.2a7.64,7.64,0,0,1-11.58,0l-2.14-2.38a4.55,4.55,0,0,1-.78.5L4.42,78.85a6,6,0,0,0-3.13,3.9c0,.14-.07.29-.09.43l0,.09c0,.12,0,.24,0,.36v.12c0,.14,0,.29,0,.43V98.72Z"/><rect class="cls-3" x="107.45" y="66.56" width="13.09" height="13.09"/><path class="cls-4" d="M131.06,74.85l-10.52-3L114,79.64l-6.54-7.8-10.52,3a6.54,6.54,0,0,0-4.75,6.29V99.28h43.63V81.15A6.54,6.54,0,0,0,131.06,74.85Z"/><polygon points="114.23 80.51 107.26 72.2 108.11 71.49 114.23 78.78 120.35 71.49 121.2 72.2 114.23 80.51"/><path class="cls-6" d="M127.08,87.65A6.54,6.54,0,0,1,129,83l5.62-5.62a6.52,6.52,0,0,1,1.19,3.74V99.28h-8.73Z"/><path d="M136.36,99.83h-9.84V87.65a7.05,7.05,0,0,1,2.08-5l6.08-6.08.38.54a7.06,7.06,0,0,1,1.29,4.06Zm-8.73-1.11h7.61V81.15a5.91,5.91,0,0,0-.74-2.86l-5.12,5.12a6,6,0,0,0-1.75,4.23Z"/><path d="M136.36,99.83H91.62V81.15a7.13,7.13,0,0,1,5.15-6.83l10.12-2.89V66h14.2v5.43l10.12,2.89a7.13,7.13,0,0,1,5.15,6.83V88a.56.56,0,1,1-1.11,0V81.15a6,6,0,0,0-4.34-5.76L120,72.27V67.11H108v5.16L97.08,75.39a6,6,0,0,0-4.34,5.76V98.72h42.52V92.65a.56.56,0,1,1,1.11,0Z"/><path class="cls-2" d="M98.72,42.56v1.53a17.45,17.45,0,0,0,.9,5.52L103.08,60h6.54V36h-4.36A6.54,6.54,0,0,0,98.72,42.56Z"/><path class="cls-1" d="M128.76,46.5,124.9,60,107.45,44.74a4.36,4.36,0,0,1-4.36-4.36h0a6.54,6.54,0,0,1,6.54-6.54h19.63v9.07A13.08,13.08,0,0,1,128.76,46.5Z"/><path d="M103.08,60.9a.89.89,0,0,1-.84-.61l-3.47-10.4a18.3,18.3,0,0,1-.94-5.8V42.56a7.47,7.47,0,0,1,6.48-7.37,7.44,7.44,0,0,1,5.32-2.24h19.63a.89.89,0,0,1,.89.89v9.07a14,14,0,0,1-.54,3.84.89.89,0,1,1-1.71-.49,12.19,12.19,0,0,0,.47-3.35V34.72H109.63a5.66,5.66,0,0,0-4.23,1.91.89.89,0,0,1-.59.3,5.68,5.68,0,0,0-5.19,5.63v1.53a16.53,16.53,0,0,0,.85,5.24l3.47,10.4a.89.89,0,0,1-.84,1.17Z"/><path class="cls-7" d="M99.52,75.37,81.27,68.74,68.18,73.1,55.09,68.74,36.84,75.37a8.73,8.73,0,0,0-5.74,8.2v15.7h74.17V83.57A8.73,8.73,0,0,0,99.52,75.37Z"/><path class="cls-8" d="M102.92,77.63a8.72,8.72,0,0,1,2.35,5.95v15.7H92.18V92a8.73,8.73,0,0,1,2.56-6.17Z"/><path class="cls-8" d="M33.44,77.63a8.72,8.72,0,0,0-2.35,5.95v15.7H44.18V92a8.73,8.73,0,0,0-2.56-6.17Z"/><path d="M105.82,99.83H91.62V92a9.22,9.22,0,0,1,2.72-6.56l8.59-8.59.39.42a9.25,9.25,0,0,1,2.5,6.32ZM92.73,98.72h12V83.57a8.13,8.13,0,0,0-1.82-5.13l-7.76,7.76A8.12,8.12,0,0,0,92.73,92Z"/><path d="M44.74,99.83H30.54V83.57A9.25,9.25,0,0,1,33,77.25l.39-.42L42,85.42A9.22,9.22,0,0,1,44.74,92ZM31.65,98.72h12V92a8.12,8.12,0,0,0-2.39-5.78l-7.76-7.76a8.13,8.13,0,0,0-1.82,5.13Z"/><path d="M30.54,99.83V83.52c0-.18,0-.37,0-.59v-.14c0-.21,0-.41.07-.6l0-.11v0q0-.24.09-.48V81.5l0-.11c0-.16.09-.33.14-.52l.08-.25.12-.34c.05-.14.11-.28.17-.42l.09-.19a9.3,9.3,0,0,1,.56-1l0-.08a9.33,9.33,0,0,1,4.63-3.71l18.43-6.7,13.1,4.37,13.1-4.37,18.43,6.7a9.33,9.33,0,0,1,4.63,3.7l0,0,0,.06a9.32,9.32,0,0,1,.54,1l.09.19c.06.14.12.28.17.43l.12.34.08.25c.06.19.1.35.14.51l0,.11v.05c0,.16.07.32.09.48v0l0,.11c0,.19.05.4.07.6v.12c0,.26,0,.47,0,.66V99.83Zm1.11-1.11h73.06V83.57c0-.17,0-.36,0-.57v-.12c0-.18,0-.36-.06-.53l0-.13c0-.14-.05-.28-.08-.42v-.07l0-.07c0-.15-.08-.3-.13-.45l-.07-.22-.11-.3-.15-.37-.08-.17a8.14,8.14,0,0,0-.51-.93h0a8.21,8.21,0,0,0-4.1-3.3L81.26,69.33,68.18,73.69,68,73.63,55.1,69.33,37,75.9a8.21,8.21,0,0,0-4.1,3.31l0,0a8.2,8.2,0,0,0-.49.9l-.08.17-.15.37-.11.3L32,81.2c0,.15-.09.3-.13.45l0,.08v.07q0,.21-.08.42l0,.13c0,.17,0,.35-.06.53V83c0,.22,0,.4,0,.57Z"/><path class="cls-5" d="M114,68.74h0A13.09,13.09,0,0,1,100.9,55.65h0A10.53,10.53,0,0,1,104,48.2l2.15-2.15a4.31,4.31,0,0,1,3.17-1.28c7,.22,13.15,1.71,16.52,5a4.31,4.31,0,0,1,1.26,3.09v2.78A13.09,13.09,0,0,1,114,68.74Z"/><path class="cls-3" d="M107.45,55.65a4.35,4.35,0,0,1,4.62-4.36c4.4.28,10.94,1,14.95,2.95-.13-.92-.53-3.8-1.2-4.46-3.37-3.3-9.55-4.79-16.52-5h0a4.31,4.31,0,0,0-3.17,1.28L104,48.2a10.53,10.53,0,0,0-3.08,7.45h0a13.09,13.09,0,0,0,9.46,12.57A13,13,0,0,1,107.45,60V55.65Z"/><path d="M114,68.77a13.6,13.6,0,0,1-11.46-6.25v0l-.28-.45v0a13.68,13.68,0,0,1-.67-1.29l0-.06-.06-.13-.13-.32-.1-.26-.11-.29-.1-.31v0l-.07-.22c0-.14-.08-.28-.12-.42l0-.06,0-.11c-.05-.2-.1-.4-.14-.6l0-.12v-.06c0-.15-.06-.29-.08-.44l0-.21c0-.15,0-.29-.05-.43l0-.22c0-.15,0-.31,0-.46v-.18c0-.24,0-.45,0-.66a11,11,0,0,1,3.25-7.84l2.15-2.15A5,5,0,0,1,107.38,44l.18-.06.12,0,.17-.06.16,0,.12,0,.2,0,.14,0h.11l.24,0h.5c1.11,0,2.2.1,3.24.2,6.21.59,10.93,2.3,13.65,5a4.88,4.88,0,0,1,1.42,3.49v2.78A13.64,13.64,0,0,1,114,68.77Zm-4.72-24h-.37l-.16,0h-.21l-.12,0-.16,0-.09,0-.09,0-.15.05-.11,0a3.86,3.86,0,0,0-1.27.85l-2.15,2.15a9.91,9.91,0,0,0-2.92,7.06c0,.2,0,.4,0,.6v.17c0,.14,0,.29,0,.43l0,.2c0,.14,0,.27.05.4l0,.2c0,.14,0,.27.07.41v.07l0,.1c0,.19.08.37.13.55l0,.16.11.38.06.2v0l.1.28.1.27.09.24.12.29.05.11,0,.07a12.61,12.61,0,0,0,.61,1.18v0l.25.4v0a12.53,12.53,0,0,0,23.07-6.78V52.35a3.77,3.77,0,0,0-1.09-2.69h0c-2.54-2.48-7-4.09-13-4.66-1-.1-2.08-.16-3.17-.2Z"/><path class="cls-2" d="M92.18,23.75V5.47a4.36,4.36,0,0,0-4.36-4.36H61.64A17.45,17.45,0,0,0,44.18,18.56v5.19a21.81,21.81,0,0,0,1.12,6.9L46,32.83a6.55,6.55,0,0,1,.34,2.07V36H90V34.9a6.55,6.55,0,0,1,.34-2.07l.73-2.18A21.81,21.81,0,0,0,92.18,23.75Z"/><path class="cls-1" d="M55.09,10A8.86,8.86,0,0,0,64,18.84h1.23L65.77,36H90V34.9a6.55,6.55,0,0,1,.34-2.07l.73-2.18a21.81,21.81,0,0,0,1.12-6.9V5.47a4.36,4.36,0,0,0-4.36-4.36H64A8.86,8.86,0,0,0,55.09,10Z"/><rect class="cls-3" x="55.09" y="53.47" width="26.18" height="19.63"/><path class="cls-9" d="M55.09,64.7a28.24,28.24,0,0,0,26.18,0V54.83H55.09V64.7Z"/><polygon points="55.65 67.92 54.54 67.92 54.54 47.73 81.82 47.73 81.83 48.28 81.82 66.56 80.71 66.56 80.72 48.84 55.65 48.84 55.65 67.92"/><path class="cls-8" d="M68.18,73.1l-7,7a2.18,2.18,0,0,1-3.28-.22l-7.21-9.51,1.89-4a2.18,2.18,0,0,1,3.12-.92Z"/><path class="cls-8" d="M68.18,73.1l7,7a2.18,2.18,0,0,0,3.28-.22l7.21-9.51-1.89-4a2.18,2.18,0,0,0-3.12-.92Z"/><path d="M59.68,81.25h-.19a2.74,2.74,0,0,1-2-1.08L50.08,70.4l2-4.28A2.74,2.74,0,0,1,56,65l13,8-7.45,7.45A2.74,2.74,0,0,1,59.68,81.25Zm-8.31-11,7,9.24a1.63,1.63,0,0,0,2.44.17l6.46-6.46L55.44,65.9a1.63,1.63,0,0,0-2.32.69Z"/><path d="M76.68,81.25a2.74,2.74,0,0,1-1.94-.8L67.29,73l13-8a2.74,2.74,0,0,1,3.91,1.16l2,4.28-7.42,9.77a2.74,2.74,0,0,1-2,1.08Zm-7.61-8,6.46,6.46A1.63,1.63,0,0,0,78,79.5l7-9.24-1.74-3.67a1.63,1.63,0,0,0-2.32-.69Z"/><path class="cls-5" d="M68.18,60h0A21.81,21.81,0,0,1,46.37,38.2V36L50,33.6a6.54,6.54,0,0,0,2.91-5.45v-7.4s17.45-6.54,30.54,4.36v3a6.55,6.55,0,0,0,2.91,5.45L90,36V38.2A21.82,21.82,0,0,1,68.18,60Z"/><path class="cls-3" d="M63.29,26c4.74-.59,13-.94,20.16,2.16v-3C70.36,14.2,52.91,20.74,52.91,20.74v7.4A6.54,6.54,0,0,1,50,33.59L46.37,36V38.2A21.81,21.81,0,0,0,65.54,59.84h0a21.72,21.72,0,0,1-6.09-15.1V30.32A4.37,4.37,0,0,1,63.29,26Z"/><path d="M68.18,60.57A22.4,22.4,0,0,1,48.62,49.05l0,0c-.15-.26-.28-.52-.38-.72l0-.08-.07-.13c-.1-.21-.2-.43-.3-.64l0-.07-.11-.25-.25-.6-.15-.39-.21-.56-.15-.45-.17-.54-.14-.49c0-.17-.09-.35-.14-.52s-.08-.36-.12-.53v0c0-.16-.07-.32-.1-.48s-.07-.37-.1-.55l0-.13c0-.12,0-.25-.06-.37s-.05-.39-.08-.59l0-.18c0-.1,0-.21,0-.31s0-.46-.05-.69v-.17c0-.08,0-.16,0-.24,0-.37,0-.74,0-1.09v-2.5l3.88-2.59a6,6,0,0,0,2.67-5V20.36l.36-.14a37.53,37.53,0,0,1,10.53-1.94c5.57-.25,13.66.65,20.56,6.4l.06.05,0,.07c.09.14.09.14.09,3.35a6,6,0,0,0,2.67,5l3.88,2.58V38.2A22.4,22.4,0,0,1,68.18,60.57ZM46.92,38.18v0c0,.34,0,.69,0,1.05,0,.07,0,.14,0,.2v.18c0,.22,0,.44.05.66s0,.19,0,.28l0,.19c0,.19,0,.37.07.56s0,.23.06.35l0,.13c0,.18.06.35.09.52s.06.3.1.45v0c0,.17.08.34.12.51l.13.5.13.47.16.51.14.42.19.54.15.37.24.57.1.23,0,.07c.09.21.19.41.29.61l.06.11,0,.09c.12.23.24.46.36.69v0A21.26,21.26,0,0,0,89.44,38.2V36.31l-3.38-2.26a7.09,7.09,0,0,1-3.16-5.91V25.37c-6.57-5.36-14.25-6.22-19.56-6a38.21,38.21,0,0,0-9.87,1.75v7a7.09,7.09,0,0,1-3.16,5.91l-3.38,2.26Z"/><path d="M90,37.13A1.11,1.11,0,0,1,88.88,36V34.9a7.64,7.64,0,0,1,.39-2.42L90,30.3c.11-.34.22-.71.35-1.16a1.11,1.11,0,0,1,2.15.58c-.13.49-.25.9-.38,1.29l-.73,2.18a5.43,5.43,0,0,0-.28,1.72V36A1.11,1.11,0,0,1,90,37.13Z"/><path d="M46.37,36a1.11,1.11,0,0,1-1.11-1.11A5.43,5.43,0,0,0,45,33.18L44.25,31a22.88,22.88,0,0,1-1.18-7.25V18.56A18.58,18.58,0,0,1,61.64,0H87.81a5.48,5.48,0,0,1,5.47,5.47v17.6a1.11,1.11,0,0,1-2.22,0V5.47a3.26,3.26,0,0,0-3.25-3.25H61.64A16.36,16.36,0,0,0,45.3,18.56v5.19a20.67,20.67,0,0,0,1.06,6.55l.73,2.18a7.65,7.65,0,0,1,.39,2.42A1.11,1.11,0,0,1,46.37,36Z"/></svg>