<svg id="Layer_1" data-name="Layer 1" xmlns="http://www.w3.org/2000/svg" viewBox="0 0 99.91 99.96"><defs><style>.cls-1{fill:#00e2d1;}.cls-2{fill:#56efe0;}.cls-3{fill:#fff;}.cls-4{fill:#d8d8d8;}.cls-5{fill:none;}</style></defs><title>css</title><path class="cls-1" d="M95,1.6H4.81A3.18,3.18,0,0,0,1.6,4.81V95a3.18,3.18,0,0,0,3.21,3.21H95A3.18,3.18,0,0,0,98.24,95V4.81A3.18,3.18,0,0,0,95,1.6Z"/><path class="cls-2" d="M98.24,4.81V95A3.18,3.18,0,0,1,95,98.24H49.92V1.6H95A3.18,3.18,0,0,1,98.24,4.81Z"/><path d="M95,99.85H4.81A4.76,4.76,0,0,1,0,95V4.81A4.76,4.76,0,0,1,4.81,0H95a4.76,4.76,0,0,1,4.81,4.81V74.1a1.6,1.6,0,0,1-3.21,0V4.81A1.57,1.57,0,0,0,95,3.21H4.81a1.57,1.57,0,0,0-1.6,1.6V95a1.57,1.57,0,0,0,1.6,1.6H95a1.57,1.57,0,0,0,1.6-1.6V86.82a1.6,1.6,0,0,1,3.21,0V95A4.76,4.76,0,0,1,95,99.85Z"/><path class="cls-3" d="M25.65,20.57,23.72,31.9l45.86-1.26-1.24,7.29-45.9,1.26L20.55,50.53l45.86-1.26L64.18,62.21,45.9,68.83,29.71,63.16l.95-5.61-11.28.31L17.06,71.44l26.78,9.41,30.24-11L82.79,19Zm0,0"/><polygon class="cls-4" points="63.46 19.53 82.79 19 74.08 69.88 48.84 79.04 53.44 66.1 64.18 62.21 66.41 49.27 55.82 49.56 58.8 38.2 68.34 37.93 69.58 30.64 59.67 30.91 63.46 19.53"/><g id="_Slice_" data-name="&lt;Slice&gt;"><rect class="cls-5" x="0.07" y="0.54" width="99.85" height="99.42"/></g></svg>