<svg id="Layer_1" data-name="Layer 1" xmlns="http://www.w3.org/2000/svg" viewBox="0 0 120.96 100.04"><defs><style>.cls-1{fill:#fcb788;}.cls-2{fill:#ffede1;}.cls-3{fill:#c9916b;}</style></defs><title>culture_of_respect</title><path class="cls-1" d="M12.1,61.37l-.91-.91a34.83,34.83,0,0,1,0-49.25h0a34.83,34.83,0,0,1,49.25,0l0,0,0,0L75.18,31.87l27.26,27.26a6.69,6.69,0,0,1,0,9.47h0a6.69,6.69,0,0,1-9.47,0L82.91,58.53,93,68.6a6.69,6.69,0,0,1,0,9.47h0a6.69,6.69,0,0,1-9.47,0L73.44,68,83.51,78.06a6.69,6.69,0,0,1,0,9.47h0a6.69,6.69,0,0,1-9.47,0L64,77.46l-.09.09L74,87.61a6.69,6.69,0,0,1,0,9.47h0a6.69,6.69,0,0,1-9.47,0l-5.71-5.71Z" transform="translate(0)"/><path class="cls-2" d="M70.53,95.26l-5.71-5.71-46.67-30-.91-.91A34.84,34.84,0,0,1,30.72,1,34.83,34.83,0,0,0,11.19,60.08l.91.91L58.77,91l5.71,5.71a6.69,6.69,0,0,0,9.14.31A6.66,6.66,0,0,1,70.53,95.26Z" transform="translate(0)"/><path d="M69.22,100a7.67,7.67,0,0,1-5.44-2.25l-5.64-5.64-46.67-30-1-1A35.83,35.83,0,1,1,61.15,10.49l.15.15,0,.07L76,31.22l27.2,27.2a7.7,7.7,0,0,1-7.49,12.86,7.74,7.74,0,0,1,.27,2,7.7,7.7,0,0,1-7.7,7.7,7.74,7.74,0,0,1-2-.27,7.7,7.7,0,0,1-9.59,9.43A7.69,7.69,0,0,1,69.22,100ZM12.73,60.58l46.67,30,5.79,5.79a5.69,5.69,0,1,0,8-8L62.47,77.55,64,76,74.75,86.82a5.69,5.69,0,1,0,8-8L72.73,68.71l1.42-1.42L84.21,77.35a5.69,5.69,0,0,0,8-8L82.2,59.24l1.42-1.42L93.68,67.89a5.69,5.69,0,1,0,8-8L74.42,32.52,59.73,11.91A33.83,33.83,0,0,0,11.9,59.75Z" transform="translate(0)"/><path class="cls-1" d="M84,25.7l-2,2a14.27,14.27,0,0,1-10.09,4.18H62.42l-7.29,7.29a8,8,0,0,1-11.27,0h0a8,8,0,0,1,0-11.27L60.5,11.23a34.83,34.83,0,0,1,49.25,0h0a34.83,34.83,0,0,1,0,49.25l-4.69,4.69-1.15-3.8-28.5-28.5" transform="translate(0)"/><path class="cls-2" d="M109.52,10.26A34.72,34.72,0,0,0,84.21.07,34.83,34.83,0,0,1,103,59l-.34.34,1,1,1.15,3.8,4.69-4.69A34.83,34.83,0,0,0,109.52,10.26Z" transform="translate(0)"/><path class="cls-3" d="M47.82,82.26l-4.17,4.17a6.69,6.69,0,0,0,0,9.47h0a6.69,6.69,0,0,0,9.47,0l4.17-4.17a6.69,6.69,0,0,0,0-9.47h0A6.69,6.69,0,0,0,47.82,82.26Z" transform="translate(0)"/><path class="cls-3" d="M38.35,72.8,34.19,77a6.69,6.69,0,0,0,0,9.47h0a6.69,6.69,0,0,0,9.47,0l4.17-4.17a6.69,6.69,0,0,0,0-9.47h0A6.69,6.69,0,0,0,38.35,72.8Z" transform="translate(0)"/><path class="cls-3" d="M28.89,63.33,24.72,67.5a6.69,6.69,0,0,0,0,9.47h0a6.69,6.69,0,0,0,9.47,0l4.17-4.17a6.69,6.69,0,0,0,0-9.47h0A6.69,6.69,0,0,0,28.89,63.33Z" transform="translate(0)"/><path class="cls-3" d="M19.42,53.86,15.25,58a6.69,6.69,0,0,0,0,9.47h0a6.69,6.69,0,0,0,9.47,0l4.17-4.17a6.69,6.69,0,0,0,0-9.47h0A6.69,6.69,0,0,0,19.42,53.86Z" transform="translate(0)"/><path d="M48.39,98.86a7.69,7.69,0,0,1-5.44-13.14l4.17-4.17A7.7,7.7,0,1,1,58,92.44l-4.17,4.17A7.67,7.67,0,0,1,48.39,98.86Zm4.17-17.55a5.65,5.65,0,0,0-4,1.67l-4.17,4.17a5.69,5.69,0,1,0,8,8L56.58,91a5.69,5.69,0,0,0-4-9.72Z" transform="translate(0)"/><path d="M38.92,89.39a7.69,7.69,0,0,1-5.44-13.14l4.17-4.17a7.65,7.65,0,0,1,5.44-2.25h0A7.7,7.7,0,0,1,48.53,83l-4.17,4.17A7.67,7.67,0,0,1,38.92,89.39Zm4.17-17.55a5.65,5.65,0,0,0-4,1.67L34.9,77.67a5.69,5.69,0,1,0,8,8l4.17-4.17a5.69,5.69,0,0,0-4-9.72Z" transform="translate(0)"/><path d="M29.45,79.93A7.7,7.7,0,0,1,24,66.79l4.17-4.17A7.7,7.7,0,1,1,39.06,73.5L34.9,77.67A7.65,7.65,0,0,1,29.45,79.93Zm4.17-17.56a5.66,5.66,0,0,0-4,1.67L25.43,68.2a5.69,5.69,0,1,0,8,8l4.17-4.17a5.69,5.69,0,0,0-4-9.72Z" transform="translate(0)"/><path d="M20,70.46a7.69,7.69,0,0,1-5.44-13.14l4.17-4.17A7.7,7.7,0,1,1,29.6,64L25.43,68.2A7.67,7.67,0,0,1,20,70.46ZM24.15,52.9a5.65,5.65,0,0,0-4,1.67L16,58.74a5.69,5.69,0,1,0,8,8l4.17-4.17a5.69,5.69,0,0,0-4-9.72Z" transform="translate(0)"/><path d="M105.07,66.17a1,1,0,0,1-1-.71L103,61.9,74.71,33.57a1,1,0,0,1-.27-.92,15.21,15.21,0,0,1-2.49.21H62.84l-7,7A9,9,0,1,1,43.15,27.17L59.8,10.52a35.83,35.83,0,0,1,49.74-.89,1,1,0,0,1-1.37,1.47,33.69,33.69,0,0,0-47,.85L44.56,28.59a7,7,0,1,0,9.86,9.86l7.29-7.29a1,1,0,0,1,.71-.29h9.53a13.32,13.32,0,0,0,6.19-1.54A1,1,0,0,1,79.25,31l-2.35,2,27.73,27.73a1,1,0,0,1,.25.42l.66,2.2,3.5-3.5a34,34,0,0,0,3.22-44.11,1,1,0,0,1,1.61-1.2,35.84,35.84,0,0,1-3.41,46.73l-4.69,4.69A1,1,0,0,1,105.07,66.17Z" transform="translate(0)"/></svg>