<svg id="Capa_1" data-name="Capa 1" xmlns="http://www.w3.org/2000/svg" viewBox="0 0 100 100"><defs><style>.cls-1{fill:#ffe07d;}.cls-2{fill:#ffd064;}.cls-3{fill:#ffc269;}.cls-4{fill:#ffa95f;}.cls-5{fill:#6e4848;}.cls-6{fill:#ecbd83;}.cls-7{fill:#e2a975;}.cls-8{fill:#8a6055;}.cls-9{fill:#f6d190;}.cls-10{fill:#f9eac7;}</style></defs><title>Customers_Who_always_Return</title><path d="M50,96A46,46,0,0,1,17.5,17.5a46,46,0,1,1,65,65A45.66,45.66,0,0,1,50,96ZM50,6A44,44,0,1,0,94,50,44,44,0,0,0,50,6Z"/><path class="cls-1" d="M54.74,5.73A4.74,4.74,0,1,1,50,1a4.74,4.74,0,0,1,4.74,4.74Zm0,0"/><path class="cls-2" d="M52.37,8.1a4.73,4.73,0,0,1-4.32-6.69,4.74,4.74,0,1,0,6.26,6.26,4.71,4.71,0,0,1-1.95.43Zm0,0"/><path class="cls-1" d="M54.74,94.27A4.74,4.74,0,1,1,50,89.53a4.74,4.74,0,0,1,4.74,4.74Zm0,0"/><path class="cls-2" d="M52.37,96.64A4.73,4.73,0,0,1,48.05,90a4.74,4.74,0,1,0,6.26,6.26,4.7,4.7,0,0,1-1.95.43Zm0,0"/><path class="cls-1" d="M10.47,50a4.74,4.74,0,1,1-4.74-4.74A4.74,4.74,0,0,1,10.47,50Zm0,0"/><path class="cls-2" d="M8.1,52.37a4.73,4.73,0,0,1-4.32-6.69A4.74,4.74,0,1,0,10,51.95a4.71,4.71,0,0,1-1.94.43Zm0,0"/><path class="cls-1" d="M99,50a4.74,4.74,0,1,1-4.74-4.74A4.74,4.74,0,0,1,99,50Zm0,0"/><path class="cls-2" d="M96.64,52.37a4.73,4.73,0,0,1-4.32-6.69,4.74,4.74,0,1,0,6.26,6.26,4.72,4.72,0,0,1-1.95.43Zm0,0"/><path class="cls-3" d="M86,18.7A4.74,4.74,0,1,1,81.3,14,4.74,4.74,0,0,1,86,18.7Zm0,0"/><path class="cls-4" d="M83.68,21.07a4.73,4.73,0,0,1-4.32-6.69,4.74,4.74,0,1,0,6.26,6.26,4.71,4.71,0,0,1-1.95.43Zm0,0"/><path class="cls-3" d="M23.44,81.3a4.74,4.74,0,1,1-4.74-4.74,4.74,4.74,0,0,1,4.74,4.74Zm0,0"/><path class="cls-4" d="M21.07,83.68A4.73,4.73,0,0,1,16.75,77,4.74,4.74,0,1,0,23,83.25a4.7,4.7,0,0,1-1.95.43Zm0,0"/><path class="cls-3" d="M23.44,18.7A4.74,4.74,0,1,1,18.7,14a4.74,4.74,0,0,1,4.74,4.74Zm0,0"/><path class="cls-4" d="M21.07,21.07a4.73,4.73,0,0,1-4.32-6.69A4.74,4.74,0,1,0,23,20.64a4.72,4.72,0,0,1-1.95.43Zm0,0"/><path class="cls-3" d="M86,81.3a4.74,4.74,0,1,1-4.74-4.74A4.74,4.74,0,0,1,86,81.3Zm0,0"/><path class="cls-4" d="M83.68,83.68A4.73,4.73,0,0,1,79.36,77a4.74,4.74,0,1,0,6.26,6.26,4.7,4.7,0,0,1-1.95.43Zm0,0"/><path class="cls-5" d="M58,29.45a7.91,7.91,0,1,1-7.91-7.91A7.91,7.91,0,0,1,58,29.45Zm0,0"/><path d="M49.89,38.34a8.89,8.89,0,1,1,8.89-8.89A8.9,8.9,0,0,1,49.89,38.34Zm0-15.81a6.92,6.92,0,1,0,6.92,6.92A6.93,6.93,0,0,0,49.89,22.53Z"/><path class="cls-5" d="M65.92,43.68A15.81,15.81,0,1,1,50.11,27.86,15.81,15.81,0,0,1,65.92,43.68Zm0,0"/><path class="cls-6" d="M67.9,72.44,58.27,68a3.16,3.16,0,0,1-1.84-2.87V59.49H43.78v5.64A3.16,3.16,0,0,1,41.94,68l-9.64,4.45a4.74,4.74,0,0,0-2.76,4.31v1.71H70.66V76.75a4.74,4.74,0,0,0-2.76-4.31Zm0,0"/><path class="cls-7" d="M43.78,65.14a15.23,15.23,0,0,0,5.28,1.33c.35,0,.7,0,1,0a15.7,15.7,0,0,0,6.32-1.33V59.49H43.78v5.65Zm0,0"/><path class="cls-8" d="M64.34,41.3c.46,0,.92,0,1.37-.07a15.75,15.75,0,0,0-20.8-12.48A21.33,21.33,0,0,0,64.34,41.3Zm0,0"/><path d="M50.29,60.34a16.8,16.8,0,1,1,16.8-16.8A16.82,16.82,0,0,1,50.29,60.34Zm0-31.62A14.82,14.82,0,1,0,65.11,43.54,14.84,14.84,0,0,0,50.29,28.71Z"/><path class="cls-9" d="M60.3,44.77C57,44,50.89,42.14,46.46,38.36a1.57,1.57,0,0,0-2.14,0l-5.93,5.93a3.16,3.16,0,0,0-.93,2.24v3A12.94,12.94,0,0,0,49.26,62.62,12.65,12.65,0,0,0,62.76,50V47.85a3.16,3.16,0,0,0-2.45-3.08Zm0,0"/><path class="cls-6" d="M46.62,42.42a37.44,37.44,0,0,0,16.14,5.76v-.33a3.17,3.17,0,0,0-2.46-3.08C57,44,50.89,42.14,46.46,38.36a1.57,1.57,0,0,0-2.14,0l-5.93,5.93a3.16,3.16,0,0,0-.93,2.24v2.78A13.27,13.27,0,0,0,46.28,62a12.12,12.12,0,0,0,6.17.38A12.65,12.65,0,0,1,42.2,50V46.3a3.16,3.16,0,0,1,.93-2.24l1.47-1.47a1.59,1.59,0,0,1,2-.17Zm0,0"/><path class="cls-10" d="M70.66,78.46V76.75a4.74,4.74,0,0,0-2.76-4.31L63,70.2a19,19,0,0,1-25.88,0l-4.86,2.24a4.74,4.74,0,0,0-2.76,4.31v1.71Zm0,0"/><path d="M42.3,46.84v1.58a1.48,1.48,0,0,0,3,0V46.84a1.48,1.48,0,0,0-3,0Zm0,0"/><path d="M56.43,49.9a1.48,1.48,0,0,0,1.48-1.48V46.84a1.48,1.48,0,0,0-3,0v1.58a1.48,1.48,0,0,0,1.48,1.48Zm0,0"/><path d="M46.13,56a7.27,7.27,0,0,0,7.95,0,1.48,1.48,0,1,0-1.63-2.47,4.32,4.32,0,0,1-4.7,0A1.48,1.48,0,1,0,46.13,56Zm0,0"/><path d="M50,11.46a5.73,5.73,0,1,1,5.73-5.73A5.74,5.74,0,0,1,50,11.46ZM50,2a3.76,3.76,0,1,0,3.76,3.76A3.76,3.76,0,0,0,50,2Z"/><path d="M50,100a5.73,5.73,0,1,1,5.73-5.73A5.74,5.74,0,0,1,50,100Zm0-9.49a3.76,3.76,0,1,0,3.76,3.76A3.76,3.76,0,0,0,50,90.51Z"/><path d="M5.73,55.73A5.73,5.73,0,1,1,11.46,50,5.74,5.74,0,0,1,5.73,55.73Zm0-9.49A3.76,3.76,0,1,0,9.49,50,3.76,3.76,0,0,0,5.73,46.24Z"/><path d="M94.27,55.73A5.73,5.73,0,1,1,100,50,5.74,5.74,0,0,1,94.27,55.73Zm0-9.49A3.76,3.76,0,1,0,98,50,3.76,3.76,0,0,0,94.27,46.24Z"/><path d="M81.3,24.43A5.73,5.73,0,1,1,87,18.7,5.74,5.74,0,0,1,81.3,24.43Zm0-9.49a3.76,3.76,0,1,0,3.76,3.76A3.76,3.76,0,0,0,81.3,14.94Z"/><path d="M18.7,87a5.73,5.73,0,1,1,5.73-5.73A5.74,5.74,0,0,1,18.7,87Zm0-9.49a3.76,3.76,0,1,0,3.76,3.76A3.76,3.76,0,0,0,18.7,77.55Z"/><path d="M18.7,24.43a5.73,5.73,0,1,1,5.73-5.73A5.74,5.74,0,0,1,18.7,24.43Zm0-9.49a3.76,3.76,0,1,0,3.76,3.76A3.76,3.76,0,0,0,18.7,14.94Z"/><path d="M81.3,87A5.73,5.73,0,1,1,87,81.3,5.74,5.74,0,0,1,81.3,87Zm0-9.49a3.76,3.76,0,1,0,3.76,3.76A3.76,3.76,0,0,0,81.3,77.55Z"/><path d="M64.69,71.9a1,1,0,0,1-.41-.09l-1.63-.75a1,1,0,0,1-.25-.08l-4.75-2.19A4.16,4.16,0,0,1,55.23,65V60.85a1,1,0,0,1,.49-.85,11.71,11.71,0,0,0,5.83-10.1V47.74a2.17,2.17,0,0,0-1.69-2.12c-3.1-.72-8.93-2.46-13.47-6a1,1,0,0,1,.38-1.91h.08a1,1,0,0,1,.58.21c4.26,3.38,9.9,5.05,12.88,5.75a4.14,4.14,0,0,1,3.22,4v2.15A13.69,13.69,0,0,1,57.2,61.4V65a2.18,2.18,0,0,0,1.26,2L63,69.08a1,1,0,0,1,.25.08l1.86.86a1,1,0,0,1-.41,1.88Z"/><path d="M70.45,79.34H29.34a1,1,0,0,1-1-1V76.61a5.75,5.75,0,0,1,3.33-5.2l4.86-2.24a1,1,0,0,1,.25-.08L41.32,67a2.18,2.18,0,0,0,1.26-2V61.34a14.27,14.27,0,0,1-6.32-11.88v-3a4.12,4.12,0,0,1,1.21-2.93l5.61-5.61a1,1,0,1,1,1.37,1.41l-5.59,5.59a2.16,2.16,0,0,0-.64,1.54v3a12.27,12.27,0,0,0,5.85,10.49,1,1,0,0,1,.48.84V65a4.16,4.16,0,0,1-2.41,3.77L37.39,71a1,1,0,0,1-.25.08l-4.63,2.14a3.77,3.77,0,0,0-2.18,3.41v.76H69.46v-.76a3.77,3.77,0,0,0-2.18-3.41l0,0a1,1,0,0,1,.83-1.79l0,0a5.74,5.74,0,0,1,3.33,5.2v1.75A1,1,0,0,1,70.45,79.34Z"/></svg>