<svg id="Capa_1" data-name="Capa 1" xmlns="http://www.w3.org/2000/svg" viewBox="0 0 99.5 99.5"><defs><style>.cls-1{fill:#8bc34a;}.cls-2{fill:#ffd683;}.cls-3{fill:#558b30;}.cls-4{fill:#fcc35e;}</style></defs><title>bug (2)</title><path class="cls-1" d="M65.11,45.27A4.48,4.48,0,0,0,68,40l-.82-3.27a1.49,1.49,0,1,0-2.88.72l.82,3.27a1.49,1.49,0,0,1-1,1.77l-4.35,1.45V41.5a10.37,10.37,0,0,0-3.51-7.77l3.07-3.07a1.49,1.49,0,0,0-2.1-2.1l-3.51,3.51a10.28,10.28,0,0,0-8.72,0l-3.51-3.51a1.49,1.49,0,0,0-2.1,2.1l3.07,3.07A10.37,10.37,0,0,0,39,41.5v2.4l-4.35-1.45a1.49,1.49,0,0,1-1-1.77l.82-3.27a1.49,1.49,0,0,0-2.88-.72L30.79,40a4.48,4.48,0,0,0,2.92,5.31L39,47v3.39H33.05a1.49,1.49,0,1,0,0,3H39v3c0,.14,0,.27,0,.41l-5.31,1.77a4.48,4.48,0,0,0-2.92,5.31l.82,3.27a1.49,1.49,0,0,0,1.44,1.13,1.45,1.45,0,0,0,.36,0,1.49,1.49,0,0,0,1.08-1.8l-.82-3.27a1.49,1.49,0,0,1,1-1.77l4.92-1.64a10.39,10.39,0,0,0,19.68,0l4.92,1.64a1.49,1.49,0,0,1,1,1.77l-.82,3.27a1.49,1.49,0,0,0,1.08,1.8,1.45,1.45,0,0,0,.36,0,1.49,1.49,0,0,0,1.44-1.13L68,63.86a4.48,4.48,0,0,0-2.92-5.31l-5.31-1.77c0-.14,0-.27,0-.41v-3h5.95a1.49,1.49,0,1,0,0-3H59.82V47Z"/><path class="cls-2" d="M49.45,4.15a45.4,45.4,0,1,0,32.1,13.3A45.4,45.4,0,0,0,49.45,4.15Zm0,84.08A38.68,38.68,0,1,1,88.12,49.55,38.68,38.68,0,0,1,49.45,88.23Z"/><path class="cls-3" d="M59.54,41.15V58a10.07,10.07,0,0,1-8.41,9.94,9.42,9.42,0,0,1-3.36,0,6.78,6.78,0,0,1-.84-.18A10.07,10.07,0,0,1,39.36,58V41.15L41,39.47H57.86Z"/><path class="cls-3" d="M59.54,41.15H39.36a9.2,9.2,0,0,1,.15-1.68,10,10,0,0,1,7.42-8.07,9.61,9.61,0,0,1,2.52-.34A10.1,10.1,0,0,1,59.54,41.15Z"/><path class="cls-1" d="M54.49,41.15V58a10.07,10.07,0,0,1-7.57,9.75A10.07,10.07,0,0,1,39.36,58V41.15a9.2,9.2,0,0,1,.15-1.68h13.3Z"/><path class="cls-1" d="M54.49,41.15H39.36a9.2,9.2,0,0,1,.15-1.68,10,10,0,0,1,7.42-8.07,10,10,0,0,1,7.42,8.07A9.2,9.2,0,0,1,54.49,41.15Z"/><path class="cls-4" d="M94.85,49.55A45.4,45.4,0,0,1,49.45,95c-.84,0-1.68,0-2.52-.08a45.39,45.39,0,0,0,0-90.64c.84-.07,1.68-.08,2.52-.08A45.4,45.4,0,0,1,94.85,49.55Z"/><path d="M90.12,29.24a1,1,0,0,1-.87-.51,44.54,44.54,0,0,0-2.33-3.81,1,1,0,1,1,1.63-1.11,46.59,46.59,0,0,1,2.43,4,1,1,0,0,1-.86,1.46Z"/><path d="M50.24,96.34a46.39,46.39,0,0,1-32.8-79.19,46.39,46.39,0,0,1,65.6,0c.62.62,1.25,1.29,1.88,2a1,1,0,1,1-1.47,1.31c-.6-.68-1.21-1.33-1.8-1.92a44.44,44.44,0,1,0,10,15.27,1,1,0,0,1,1.84-.72A46.39,46.39,0,0,1,50.24,96.34Z"/><path d="M50.24,89.61A39.28,39.28,0,0,1,26,81.32a1,1,0,1,1,1.21-1.56,37.33,37.33,0,0,0,23.06,7.88A37.7,37.7,0,1,0,23.35,76.35a1,1,0,0,1-1.41,1.38,39.62,39.62,0,1,1,28.3,11.87Z"/><rect class="cls-2" x="0.68" y="46.19" width="20.18" height="6.73" rx="1.84" ry="1.84"/><rect class="cls-2" x="46.09" y="0.79" width="6.73" height="20.18" rx="1.84" ry="1.84"/><rect class="cls-2" x="46.09" y="78.14" width="6.73" height="20.18" rx="1.84" ry="1.84"/><rect class="cls-4" x="78.03" y="46.19" width="20.18" height="6.73" rx="1.84" ry="1.84"/><path d="M19.32,54.1H2.83A2.83,2.83,0,0,1,0,51.27v-3A2.83,2.83,0,0,1,2.83,45.4h16.5a2.83,2.83,0,0,1,2.83,2.83v3A2.83,2.83,0,0,1,19.32,54.1ZM2.83,47.37a.86.86,0,0,0-.86.86v3a.86.86,0,0,0,.86.86h16.5a.86.86,0,0,0,.86-.86v-3a.86.86,0,0,0-.86-.86Z"/><path d="M51.27,22.15h-3a2.83,2.83,0,0,1-2.83-2.83V2.83A2.83,2.83,0,0,1,48.23,0h3A2.83,2.83,0,0,1,54.1,2.83v16.5A2.83,2.83,0,0,1,51.27,22.15ZM48.23,2a.86.86,0,0,0-.86.86v16.5a.86.86,0,0,0,.86.86h3a.86.86,0,0,0,.86-.86V2.83A.86.86,0,0,0,51.27,2Z"/><path d="M51.27,99.5h-3a2.83,2.83,0,0,1-2.83-2.83V80.18a2.83,2.83,0,0,1,2.83-2.83h3a2.83,2.83,0,0,1,2.83,2.83v16.5A2.83,2.83,0,0,1,51.27,99.5Zm-3-20.18a.86.86,0,0,0-.86.86v16.5a.86.86,0,0,0,.86.86h3a.86.86,0,0,0,.86-.86V80.18a.86.86,0,0,0-.86-.86Z"/><path d="M96.67,54.1H80.18a2.83,2.83,0,0,1-2.83-2.83v-3a2.83,2.83,0,0,1,2.83-2.83h16.5a2.83,2.83,0,0,1,2.83,2.83v3A2.83,2.83,0,0,1,96.67,54.1Zm-16.5-6.73a.86.86,0,0,0-.86.86v3a.86.86,0,0,0,.86.86h16.5a.86.86,0,0,0,.86-.86v-3a.86.86,0,0,0-.86-.86Z"/><path d="M33.26,69.44h0a2.47,2.47,0,0,1-2.4-1.88L30,64.3a5.43,5.43,0,0,1,3.56-6.49l4.62-1.54V54.57h-5a2.47,2.47,0,1,1,0-4.94h5V47.94L33.59,46.4A5.43,5.43,0,0,1,30,39.91l.82-3.28a2.47,2.47,0,0,1,4.8,1.19l-.82,3.28a.5.5,0,0,0,.33.6l3.06,1v-1a11.37,11.37,0,0,1,3.09-7.78l-2.36-2.37A2.47,2.47,0,0,1,42.42,28l3,3a11.22,11.22,0,0,1,8.27,0l3-3a2.47,2.47,0,0,1,3.51,3.48l-2.38,2.38A11.36,11.36,0,0,1,61,41.69v1l3.06-1a.5.5,0,0,0,.33-.6l-.82-3.27a2.47,2.47,0,1,1,4.8-1.19l.82,3.26a5.43,5.43,0,0,1-3.56,6.49L61,47.94v1.69h5a2.47,2.47,0,1,1,0,4.94H61v1.7l4.62,1.54a5.43,5.43,0,0,1,3.56,6.48l-.82,3.28A2.47,2.47,0,0,1,66,69.44a2.44,2.44,0,0,1-.61-.08,2.47,2.47,0,0,1-1.79-3l.82-3.27a.5.5,0,0,0-.33-.6l-4-1.34a11.38,11.38,0,0,1-17,4.67,1,1,0,0,1,1.15-1.6,9.41,9.41,0,0,0,14.39-4.62l.32-.93,5.85,1.94a2.48,2.48,0,0,1,1.62,2.94l-.82,3.27a.5.5,0,0,0,.36.61l.12,0a.5.5,0,0,0,.48-.38l.82-3.27A3.47,3.47,0,0,0,65,59.68l-6-2V57c0-.09,0-.19,0-.28s0-.09,0-.13v-4H66a.5.5,0,0,0,0-1H59V46.52l6-2a3.47,3.47,0,0,0,2.27-4.14l-.82-3.27a.5.5,0,1,0-1,.24l.82,3.28a2.48,2.48,0,0,1-1.62,2.95L59,45.46V41.7a9.39,9.39,0,0,0-3.17-7L55.07,34l3.81-3.81a.5.5,0,0,0-.72-.7l-4,4-.63-.29a9.27,9.27,0,0,0-7.89,0l-.63.29-4-4a.5.5,0,0,0-.7.72l3.8,3.8-.79.69a9.39,9.39,0,0,0-3.17,7v3.76l-5.65-1.88a2.48,2.48,0,0,1-1.62-2.94l.82-3.27a.5.5,0,0,0-1-.24l-.82,3.26a3.47,3.47,0,0,0,2.28,4.14l6,2V51.6H33.25a.5.5,0,1,0,0,1h6.93v4c0,.06,0,.13,0,.19s0,.12,0,.18l0,.74-6,2a3.47,3.47,0,0,0-2.27,4.14l.82,3.27a.5.5,0,0,0,.49.38h.12a.5.5,0,0,0,.37-.61l-.82-3.27a2.48,2.48,0,0,1,1.62-2.95l5.85-1.94.32.93a9.39,9.39,0,0,0,1.42,2.66,1,1,0,1,1-1.57,1.19,11.36,11.36,0,0,1-1.36-2.31l-4,1.34a.5.5,0,0,0-.33.6l.82,3.27a2.47,2.47,0,0,1-1.8,3A2.42,2.42,0,0,1,33.26,69.44Z"/></svg>