<svg id="Layer_1" data-name="Layer 1" xmlns="http://www.w3.org/2000/svg" viewBox="0 0 62.03 100"><defs><style>.cls-1{fill:#d9f9f6;}.cls-1,.cls-2,.cls-3,.cls-4{fill-rule:evenodd;}.cls-2{fill:#ffdda0;}.cls-3{fill:#ff8f8e;}.cls-4{fill:#67e4dc;}.cls-5{fill:#61d6f2;}</style></defs><title>discovery</title><path class="cls-1" d="M6.88,1.09H55.16a5.8,5.8,0,0,1,5.78,5.78V93.12a5.8,5.8,0,0,1-5.78,5.78H6.88a5.8,5.8,0,0,1-5.78-5.78V6.88A5.8,5.8,0,0,1,6.88,1.09Zm0,0"/><path d="M60.94,22.3a1.09,1.09,0,0,1-1.09-1.09V17.5a1.09,1.09,0,0,1,2.19,0v3.71A1.09,1.09,0,0,1,60.94,22.3Z"/><path class="cls-2" d="M60.94,78.16H1.09v15a5.8,5.8,0,0,0,5.78,5.78H55.16a5.8,5.8,0,0,0,5.78-5.78Zm0,0"/><path class="cls-3" d="M18.28,85.19H43.75a3.34,3.34,0,1,1,0,6.69H18.28a3.34,3.34,0,0,1,0-6.69Zm0,0"/><path d="M43.75,93H18.28a4.44,4.44,0,0,1,0-8.88H43.75a4.44,4.44,0,1,1,0,8.88ZM18.28,86.28a2.25,2.25,0,0,0,0,4.5H43.75a2.25,2.25,0,1,0,0-4.5Z"/><path d="M55.16,100H6.88A6.88,6.88,0,0,1,0,93.12V6.88A6.88,6.88,0,0,1,6.88,0H55.16A6.88,6.88,0,0,1,62,6.88v5.41a1.09,1.09,0,1,1-2.19,0V6.88a4.69,4.69,0,0,0-4.69-4.69H6.88A4.69,4.69,0,0,0,2.19,6.88V93.12a4.69,4.69,0,0,0,4.69,4.69H55.16a4.69,4.69,0,0,0,4.69-4.69V31.31a1.09,1.09,0,1,1,2.19,0V93.12A6.88,6.88,0,0,1,55.16,100Z"/><path d="M60.76,78.57H14.22a1.09,1.09,0,0,1,0-2.19H60.76a1.09,1.09,0,0,1,0,2.19Z"/><path d="M10.21,78.57H1.83a1.09,1.09,0,1,1,0-2.19h8.38a1.09,1.09,0,0,1,0,2.19Z"/><path class="cls-4" d="M29.92,26.12A10.11,10.11,0,1,1,19.81,36.23,10.11,10.11,0,0,1,29.92,26.12Z"/><line x1="37.07" y1="43.38" x2="49.36" y2="54.87"/><path d="M49.36,56a1.09,1.09,0,0,1-.75-.29L36.32,44.18a1.09,1.09,0,1,1,1.49-1.6L50.11,54.08A1.09,1.09,0,0,1,49.36,56Z"/><path d="M29.93,47.44a11.2,11.2,0,1,1,5.33-21.05,1.09,1.09,0,0,1-1,1.92,9,9,0,1,0,4.35,5.36,9.07,9.07,0,0,0-.75-1.79,1.09,1.09,0,1,1,1.92-1.05A11.27,11.27,0,0,1,40.66,33,11.21,11.21,0,0,1,29.93,47.44Z"/><path class="cls-5" d="M6.24,40.15a1.09,1.09,0,0,1-1.09-1.09V11.93a1.09,1.09,0,1,1,2.19,0V39.05A1.09,1.09,0,0,1,6.24,40.15Z"/><path class="cls-5" d="M6.24,48.13A1.09,1.09,0,0,1,5.14,47V43a1.09,1.09,0,0,1,2.19,0v4A1.09,1.09,0,0,1,6.24,48.13Z"/></svg>