<svg id="Layer_1" data-name="Layer 1" xmlns="http://www.w3.org/2000/svg" viewBox="0 0 99.679 100"><defs><style>.cls-1{fill:#0084a3;}.cls-2{fill:#ceb121;}.cls-3{fill:#fff;}</style></defs><title>discuss_your_project_requirement</title><path d="M31.359,83.268H5.94a1.071,1.071,0,0,1,0-2.141H31.359a1.071,1.071,0,1,1,0,2.141Z"/><path d="M75.418,95.131a1.066,1.066,0,0,1-.455-.1L51.735,84.089a1.071,1.071,0,0,1,.912-1.937L75.875,93.091a1.071,1.071,0,0,1-.457,2.039Z"/><path d="M52.192,76.253a1.071,1.071,0,0,1-.417-2.057l19.839-8.375a1.071,1.071,0,1,1,.833,1.973L52.607,76.169A1.069,1.069,0,0,1,52.192,76.253Z"/><path d="M75.915,52.682a1.071,1.071,0,0,1-1.038-.814L67.768,23.144a1.071,1.071,0,0,1,2.078-.514l7.108,28.724a1.071,1.071,0,0,1-1.04,1.328Z"/><path d="M94.059,27.346a1.067,1.067,0,0,1-.428-.09L71.6,17.641a1.071,1.071,0,1,1,.857-1.962l22.03,9.616a1.071,1.071,0,0,1-.429,2.052Z"/><path d="M46.326,17.73a1.067,1.067,0,0,1-.386-.073L18.263,6.939a1.071,1.071,0,1,1,.773-2L46.713,15.661a1.071,1.071,0,0,1-.387,2.069Z"/><path d="M51.17,52.765a1.07,1.07,0,0,1-.331-.053l-22.03-7.168L2.9,37.42a1.07,1.07,0,1,1,.641-2.043L29.46,43.5,51.5,50.676a1.071,1.071,0,0,1-.331,2.089Z"/><path d="M26.276,35.819a1.071,1.071,0,0,1-.356-2.08L54.728,23.571a1.071,1.071,0,1,1,.713,2.019L26.632,35.758A1.068,1.068,0,0,1,26.276,35.819Z"/><path class="cls-1" d="M34.749,39.832A16.946,16.946,0,1,0,9.33,54.492V50.025a3.488,3.488,0,0,1,3.557-3.415h9.832a3.488,3.488,0,0,1,3.557,3.415v4.464A16.911,16.911,0,0,0,34.749,39.832Z"/><circle class="cls-2" cx="94.06" cy="26.276" r="5.084"/><path d="M94.06,31.895a5.619,5.619,0,1,1,5.619-5.619A5.625,5.625,0,0,1,94.06,31.895Zm0-10.168a4.548,4.548,0,1,0,4.549,4.549A4.554,4.554,0,0,0,94.06,21.727Z"/><circle class="cls-2" cx="5.94" cy="82.197" r="5.084"/><path d="M5.94,87.816A5.619,5.619,0,1,1,11.559,82.2,5.625,5.625,0,0,1,5.94,87.816Zm0-10.168A4.549,4.549,0,1,0,10.489,82.2,4.554,4.554,0,0,0,5.94,77.649Z"/><circle class="cls-2" cx="75.419" cy="94.06" r="5.084"/><path d="M75.419,99.679a5.619,5.619,0,1,1,5.619-5.619A5.625,5.625,0,0,1,75.419,99.679Zm0-10.168a4.549,4.549,0,1,0,4.548,4.549A4.554,4.554,0,0,0,75.419,89.511Z"/><circle class="cls-2" cx="50" cy="51.695" r="5.084"/><path d="M50,57.314a5.619,5.619,0,1,1,5.619-5.619A5.625,5.625,0,0,1,50,57.314Zm0-10.168a4.549,4.549,0,1,0,4.549,4.549A4.554,4.554,0,0,0,50,47.146Z"/><circle class="cls-3" cx="17.803" cy="34.534" r="5.084"/><path d="M17.8,40.689a6.154,6.154,0,1,1,6.154-6.154A6.161,6.161,0,0,1,17.8,40.689Zm0-10.168a4.013,4.013,0,1,0,4.013,4.013A4.018,4.018,0,0,0,17.8,30.521Z"/><path class="cls-3" d="M22.719,46.4H12.886A3.488,3.488,0,0,0,9.33,49.811v4.467a16.845,16.845,0,0,0,16.946,0V49.811A3.488,3.488,0,0,0,22.719,46.4Z"/><path d="M17.8,57.635a18,18,0,0,1-9.01-2.43,1.071,1.071,0,0,1-.534-.926V49.811a4.563,4.563,0,0,1,4.628-4.485h9.832a4.563,4.563,0,0,1,4.628,4.485v4.467a1.071,1.071,0,0,1-.534.926A18,18,0,0,1,17.8,57.635Zm-7.4-3.987a15.767,15.767,0,0,0,14.8,0V49.811a2.421,2.421,0,0,0-2.486-2.344H12.887A2.421,2.421,0,0,0,10.4,49.811Z"/><path class="cls-1" d="M75.419,17.8A16.946,16.946,0,1,0,50,32.463V28a3.488,3.488,0,0,1,3.557-3.415h9.832A3.488,3.488,0,0,1,66.946,28v4.464A16.911,16.911,0,0,0,75.419,17.8Z"/><circle class="cls-3" cx="58.473" cy="12.505" r="5.084"/><path d="M58.473,18.659A6.154,6.154,0,1,1,64.627,12.5,6.161,6.161,0,0,1,58.473,18.659Zm0-10.168A4.013,4.013,0,1,0,62.486,12.5,4.018,4.018,0,0,0,58.473,8.491Z"/><path class="cls-3" d="M63.389,24.367H53.557A3.488,3.488,0,0,0,50,27.781v4.467a16.845,16.845,0,0,0,16.946,0V27.781A3.488,3.488,0,0,0,63.389,24.367Z"/><path d="M58.473,35.6a18,18,0,0,1-9.01-2.43,1.071,1.071,0,0,1-.534-.926V27.781A4.563,4.563,0,0,1,53.557,23.3h9.832a4.563,4.563,0,0,1,4.628,4.485v4.467a1.071,1.071,0,0,1-.534.926A18,18,0,0,1,58.473,35.6Zm-7.4-3.987a15.765,15.765,0,0,0,14.8,0V27.781a2.421,2.421,0,0,0-2.486-2.344H53.557a2.421,2.421,0,0,0-2.486,2.344Z"/><path class="cls-1" d="M97.449,61.862A16.946,16.946,0,1,0,72.03,76.522V72.055a3.488,3.488,0,0,1,3.557-3.415h9.832a3.488,3.488,0,0,1,3.557,3.415v4.464A16.911,16.911,0,0,0,97.449,61.862Z"/><circle class="cls-3" cx="80.503" cy="56.564" r="5.084"/><path d="M80.5,62.719a6.154,6.154,0,1,1,6.154-6.154A6.161,6.161,0,0,1,80.5,62.719Zm0-10.168a4.013,4.013,0,1,0,4.013,4.013A4.018,4.018,0,0,0,80.5,52.551Z"/><path class="cls-3" d="M85.419,68.426H75.587a3.488,3.488,0,0,0-3.557,3.415v4.467a16.845,16.845,0,0,0,16.946,0V71.841A3.488,3.488,0,0,0,85.419,68.426Z"/><path d="M80.5,79.665a18,18,0,0,1-9.01-2.43,1.071,1.071,0,0,1-.534-.926V71.841a4.563,4.563,0,0,1,4.628-4.485h9.832a4.563,4.563,0,0,1,4.628,4.485v4.467a1.071,1.071,0,0,1-.534.926A18,18,0,0,1,80.5,79.665Zm-7.4-3.987a15.765,15.765,0,0,0,14.8,0V71.841A2.421,2.421,0,0,0,85.419,69.5H75.587A2.421,2.421,0,0,0,73.1,71.841Z"/><path class="cls-1" d="M56.778,82.2a16.946,16.946,0,1,0-25.419,14.66V92.39a3.488,3.488,0,0,1,3.557-3.415h9.832a3.488,3.488,0,0,1,3.557,3.415v4.464A16.911,16.911,0,0,0,56.778,82.2Z"/><path d="M10.186,55.978,8.9,55.233a17.806,17.806,0,1,1,17.8,0l-1.285.743V50.025a2.635,2.635,0,0,0-2.7-2.558H12.887a2.635,2.635,0,0,0-2.7,2.558ZM17.8,23.743A16.077,16.077,0,0,0,8.473,52.922v-2.9a4.349,4.349,0,0,1,4.413-4.271h9.832a4.349,4.349,0,0,1,4.413,4.271V52.92A16.076,16.076,0,0,0,17.8,23.743Z"/><path d="M50.857,33.949,49.571,33.2a17.805,17.805,0,1,1,17.8,0l-1.285.743V28a2.635,2.635,0,0,0-2.7-2.558H53.557A2.635,2.635,0,0,0,50.857,28ZM58.473,1.713a16.077,16.077,0,0,0-9.329,29.179V28a4.349,4.349,0,0,1,4.413-4.271h9.832A4.349,4.349,0,0,1,67.8,28V30.89A16.076,16.076,0,0,0,58.473,1.713Z"/><path d="M72.886,78.008,71.6,77.263a17.806,17.806,0,1,1,17.8,0L88.119,78V72.055a2.635,2.635,0,0,0-2.7-2.558H75.587a2.635,2.635,0,0,0-2.7,2.558ZM80.5,45.773a16.077,16.077,0,0,0-9.329,29.179v-2.9a4.349,4.349,0,0,1,4.413-4.271h9.832a4.349,4.349,0,0,1,4.413,4.271V74.95A16.076,16.076,0,0,0,80.5,45.773Z"/><circle class="cls-3" cx="39.832" cy="76.9" r="5.084"/><path d="M39.832,83.054A6.154,6.154,0,1,1,45.987,76.9,6.161,6.161,0,0,1,39.832,83.054Zm0-10.168A4.013,4.013,0,1,0,43.846,76.9,4.018,4.018,0,0,0,39.832,72.886Z"/><path class="cls-3" d="M44.748,88.762H34.916a3.488,3.488,0,0,0-3.557,3.415v4.467a16.845,16.845,0,0,0,16.946,0V92.176A3.488,3.488,0,0,0,44.748,88.762Z"/><path d="M39.832,100a18,18,0,0,1-9.01-2.43,1.071,1.071,0,0,1-.534-.926V92.176a4.563,4.563,0,0,1,4.628-4.485h9.832a4.563,4.563,0,0,1,4.628,4.485v4.467a1.071,1.071,0,0,1-.534.926A18,18,0,0,1,39.832,100Zm-7.4-3.987a15.765,15.765,0,0,0,14.8,0V92.176a2.421,2.421,0,0,0-2.486-2.344H34.916a2.421,2.421,0,0,0-2.486,2.344Z"/><circle class="cls-2" cx="17.803" cy="5.94" r="5.084"/><path d="M17.8,11.559A5.619,5.619,0,1,1,23.422,5.94,5.625,5.625,0,0,1,17.8,11.559Zm0-10.168A4.549,4.549,0,1,0,22.351,5.94,4.554,4.554,0,0,0,17.8,1.392Z"/><path d="M32.216,98.344,30.93,97.6a17.805,17.805,0,1,1,17.8,0l-1.285.743V92.39a2.635,2.635,0,0,0-2.7-2.558H34.916a2.635,2.635,0,0,0-2.7,2.558Zm7.617-32.236A16.077,16.077,0,0,0,30.5,95.287v-2.9a4.349,4.349,0,0,1,4.413-4.271h9.832a4.349,4.349,0,0,1,4.413,4.271v2.895a16.076,16.076,0,0,0-9.329-29.178Z"/></svg>