<svg id="Layer_1" data-name="Layer 1" xmlns="http://www.w3.org/2000/svg" viewBox="0 0 74.28 100.03"><defs><style>.cls-1{fill:#ff80bd;}.cls-2{fill:#ff5ca6;}.cls-3{fill:#fad7a5;}.cls-4{fill:#f0c891;}.cls-5{fill:#53515e;}.cls-6{fill:#474756;}.cls-7{fill:#deaf73;}.cls-8{fill:#cd905a;}.cls-9{fill:#ffe1b3;}.cls-10{fill:#b28362;}.cls-11{fill:#d59f63;}</style></defs><title>engage_in_24_7_communication</title><path class="cls-1" d="M61.84,74.15l-2.62-.61H17.46l-2.62.61A14.76,14.76,0,0,0,3.45,88.52V98a1,1,0,0,0,1,1H72.27a1,1,0,0,0,1-1v-9.5A14.76,14.76,0,0,0,61.84,74.15Z"/><path class="cls-2" d="M8,81.32H5.32a14.57,14.57,0,0,0-1.88,7.17V98a1,1,0,0,0,1,1H16.56V89.91A8.59,8.59,0,0,0,8,81.32Z"/><path class="cls-2" d="M68.7,81.32h2.65a14.57,14.57,0,0,1,1.88,7.17V98a1,1,0,0,1-1,1H60.11V89.91A8.59,8.59,0,0,1,68.7,81.32Z"/><path d="M17.09,99.5H4.4A1.48,1.48,0,0,1,2.92,98V88.49a15.16,15.16,0,0,1,1.95-7.42L5,80.8H8a9.12,9.12,0,0,1,9.11,9.11ZM5.64,81.85A14.11,14.11,0,0,0,4,88.49V98a.43.43,0,0,0,.43.43H16V89.91A8.07,8.07,0,0,0,8,81.85Z"/><path d="M72.27,99.5H59.59V89.91A9.12,9.12,0,0,1,68.7,80.8h3l.15.27a15.16,15.16,0,0,1,1.95,7.42V98A1.48,1.48,0,0,1,72.27,99.5ZM60.64,98.45H72.27A.43.43,0,0,0,72.7,98V88.49A14.1,14.1,0,0,0,71,81.85H68.7a8.07,8.07,0,0,0-8.06,8.06Z"/><path d="M72.27,100H4.4a2,2,0,0,1-2-2v-9.5A15.75,15.75,0,0,1,14.6,73.13l2.74-.64h42l2.74.64A15.75,15.75,0,0,1,74.28,88.52V98A2,2,0,0,1,72.27,100ZM4.5,97.93H72.18v-9.4A13.65,13.65,0,0,0,61.6,75.18l-2.5-.59H17.58l-2.5.59A13.65,13.65,0,0,0,4.5,88.52Z"/><path class="cls-3" d="M38.34,86.34a23.42,23.42,0,0,0,20.88-12.8l-5.52-1.29a8.08,8.08,0,0,1-6.24-7.87V55.14H29.23v9.23A8.08,8.08,0,0,1,23,72.25l-5.52,1.29A23.42,23.42,0,0,0,38.34,86.34Z"/><path class="cls-4" d="M47.45,64.38V55.14H29.23v9.23a8.08,8.08,0,0,1,0,.83A19.64,19.64,0,0,0,38,67.27h0a19.64,19.64,0,0,0,9.5-2.44C47.46,64.68,47.45,64.53,47.45,64.38Z"/><path d="M38.34,87.4A24.38,24.38,0,0,1,16.52,74l-.61-1.2,6.83-1.6a7,7,0,0,0,5.43-6.85V54.09H48.5V64.38a7,7,0,0,0,5.43,6.85l6.83,1.6L60.15,74A24.38,24.38,0,0,1,38.34,87.4ZM19,74.25a22.37,22.37,0,0,0,38.58,0l-4.17-1a9.1,9.1,0,0,1-7.06-8.9V56.2H30.28v8.18a9.1,9.1,0,0,1-7.06,8.9Z"/><path class="cls-5" d="M61.87,46.35H57.69V28.46h4.18a3.6,3.6,0,0,1,3.6,3.6V42.76A3.6,3.6,0,0,1,61.87,46.35Z"/><rect class="cls-6" x="56.99" y="28.46" width="4.03" height="17.89"/><path d="M61.87,47.41H56.64v-20h5.23a4.65,4.65,0,0,1,4.65,4.65V42.76A4.65,4.65,0,0,1,61.87,47.41Zm-3.13-2.1h3.13a2.55,2.55,0,0,0,2.55-2.55V32.06a2.55,2.55,0,0,0-2.55-2.55H58.74Z"/><circle class="cls-7" cx="18.73" cy="19.23" r="17.68"/><path d="M18.73,38A18.73,18.73,0,1,1,37.46,19.23,18.75,18.75,0,0,1,18.73,38Zm0-35.36A16.63,16.63,0,1,0,35.36,19.23,16.65,16.65,0,0,0,18.73,2.6Z"/><rect class="cls-8" x="13.91" y="25.44" width="4.32" height="7.63"/><path class="cls-9" d="M38,62.82h0A19.73,19.73,0,0,1,18.23,43.09V27A19.73,19.73,0,0,1,38,7.23h0A19.73,19.73,0,0,1,57.69,27V43.09A19.73,19.73,0,0,1,38,62.82Z"/><path class="cls-3" d="M41.24,7.51a19.71,19.71,0,0,1,8.63,16.31V39.95A19.73,19.73,0,0,1,30.14,59.68h0a19.84,19.84,0,0,1-3.28-.28A19.64,19.64,0,0,0,38,62.82h0A19.73,19.73,0,0,0,57.69,43.09V27A19.73,19.73,0,0,0,41.24,7.51Z"/><path class="cls-5" d="M14.05,28.46h4.18V46.35H14.05a3.6,3.6,0,0,1-3.6-3.6V32.06A3.6,3.6,0,0,1,14.05,28.46Z"/><rect class="cls-6" x="15.15" y="28.46" width="3.77" height="17.89"/><path d="M19.28,47.41H14.05A4.65,4.65,0,0,1,9.4,42.76V32.06a4.65,4.65,0,0,1,4.65-4.65h5.23ZM14.05,29.52a2.55,2.55,0,0,0-2.55,2.55V42.76a2.55,2.55,0,0,0,2.55,2.55h3.13V29.52Z"/><path class="cls-10" d="M37.79,51.68a9.86,9.86,0,0,1-7-2.91,1.43,1.43,0,1,1,2-2,7.05,7.05,0,0,0,10,0,1.43,1.43,0,0,1,2,2A9.86,9.86,0,0,1,37.79,51.68Z"/><path d="M38,63.35A20.28,20.28,0,0,1,17.71,43.09V27a20.26,20.26,0,0,1,40.51,0V43.09A20.26,20.26,0,0,1,38,63.35ZM38,7.76A19.23,19.23,0,0,0,18.76,27V43.09a19.2,19.2,0,1,0,38.41,0V27A19.23,19.23,0,0,0,38,7.76Z"/><path class="cls-8" d="M17.44,13.63a23.2,23.2,0,0,0-3.39,14.84,23.8,23.8,0,0,0,5.57-2.14,26.59,26.59,0,0,0,5.68-4.22h0Z"/><path class="cls-11" d="M63.1,24.79c-1.68-6.22-4.47-12.15-9-16.54-1.47-1.42-7-6.77-15.18-7.19A24.8,24.8,0,0,0,23,6.89,24.3,24.3,0,0,0,20,10a29.06,29.06,0,0,0-2.51,3.61C24.3,23.44,34.6,29.68,46.11,29.68c2.83,0,8.76-.86,11.59-2.72Z"/><path class="cls-8" d="M54.09,8.25c-1.47-1.42-7-6.77-15.18-7.19a21.4,21.4,0,0,0-5,.53A25.4,25.4,0,0,1,45.38,8.25c4.54,4.39,7.33,10.32,9,16.54L49,27a20.86,20.86,0,0,1-7.55,2.37,31.53,31.53,0,0,0,4.68.35c2.83,0,8.76-.86,11.59-2.72l5.41-2.17C61.42,18.57,58.63,12.64,54.09,8.25Z"/><path d="M46.11,30.74h0l-.94,0h-.21l-.82,0-.4,0-.65-.06-.59-.06h0a34.51,34.51,0,0,1-17.07-7,27.51,27.51,0,0,1-5.25,3.76,24.89,24.89,0,0,1-5.82,2.23,1.05,1.05,0,0,1-1.3-.91,24.25,24.25,0,0,1,3.54-15.5,30.21,30.21,0,0,1,2.6-3.73,25.45,25.45,0,0,1,3.18-3.26A26,26,0,0,1,38.95,0h0L40.06.1a22.27,22.27,0,0,1,7.36,2.12,28.1,28.1,0,0,1,7.4,5.28A34.11,34.11,0,0,1,63,21h0c.4,1.13.76,2.32,1.09,3.53a1.05,1.05,0,0,1-.62,1.25L58.18,27.9C55.14,29.83,49.2,30.74,46.11,30.74Zm-3.39-2.3.54.06.61.05.38,0,.76,0h.2l.88,0h0c2.9,0,8.5-.91,11-2.55l.19-.1,4.54-1.82c-.25-.85-.51-1.69-.79-2.49h0A32,32,0,0,0,53.36,9a26.08,26.08,0,0,0-6.85-4.89,20.18,20.18,0,0,0-6.67-1.92l-1-.08A23.7,23.7,0,0,0,23.69,7.69a23.34,23.34,0,0,0-2.92,3,28.14,28.14,0,0,0-2.42,3.48v0A22.14,22.14,0,0,0,15,27.11a22.66,22.66,0,0,0,4.13-1.71,25.53,25.53,0,0,0,5.35-4l.06-.07a1,1,0,0,1,1.42-.1A32.56,32.56,0,0,0,42.7,28.44Z"/><circle cx="30.14" cy="35.81" r="2.19"/><circle cx="45.01" cy="35.81" r="2.19"/><rect x="43.45" y="51.93" width="8.03" height="4.4" rx="2.2" ry="2.2"/><path d="M57.27,54.66H46.13V53.6H57.27a2.59,2.59,0,0,0,1.84-.76l.24-.24a3.84,3.84,0,0,0,1.13-2.73V46.35h1.05v3.51a4.88,4.88,0,0,1-1.44,3.48l-.24.24A3.63,3.63,0,0,1,57.27,54.66Z"/></svg>