<svg id="Layer_1" data-name="Layer 1" xmlns="http://www.w3.org/2000/svg" viewBox="0 0 52.27 100"><defs><style>.cls-1{fill:none;}.cls-2{fill:#ffe079;}.cls-3{fill:#85fff6;}.cls-4{fill:#51565f;}.cls-5{fill:#0e75af;}.cls-6{fill:#00b7b2;}.cls-7{fill:#00b2ad;}</style></defs><title>first_release</title><rect class="cls-1" x="11.33" y="41.49" width="29.61" height="17.02"/><path class="cls-2" d="M7.38.57h37.5A7.33,7.33,0,0,1,51.7,7.38V14.2H.57V7.38A7.33,7.33,0,0,1,7.38.57ZM51.7,82.39V92.62a7.33,7.33,0,0,1-6.82,6.82H7.38A7.33,7.33,0,0,1,.57,92.62V82.39Z"/><path class="cls-3" d="M26.14,89.21a1.7,1.7,0,1,0,1.7,1.7,1.83,1.83,0,0,0-1.7-1.7Z"/><polygon class="cls-3" points="51.7 82.39 0.57 82.39 0.57 14.2 51.7 14.2 51.7 82.39"/><path d="M45.37,100H6.91A6.91,6.91,0,0,1,0,93.09v-79H45.45a.57.57,0,0,1,0,1.13H1.13V93.09a5.78,5.78,0,0,0,5.77,5.77H45.37a5.78,5.78,0,0,0,5.77-5.77V89.21a.57.57,0,1,1,1.13,0v3.89A6.91,6.91,0,0,1,45.37,100Z"/><path d="M26.14,93.47a2.56,2.56,0,1,0-2.56-2.56A2.62,2.62,0,0,0,26.14,93.47Z"/><path class="cls-4" d="M26.14,90.06a.85.85,0,1,1-.85.85A.81.81,0,0,1,26.14,90.06Z"/><path d="M22.73,8.24h6.82a.81.81,0,0,0,.85-.85.81.81,0,0,0-.85-.85H22.73a.81.81,0,0,0-.85.85A.81.81,0,0,0,22.73,8.24Z"/><path d="M52.27,82.73H9.09a.57.57,0,1,1,0-1.13h42V6.91a5.78,5.78,0,0,0-5.77-5.77H6.91A5.78,5.78,0,0,0,1.13,6.91V9.85A.57.57,0,0,1,0,9.85V6.91A6.91,6.91,0,0,1,6.91,0H45.37a6.91,6.91,0,0,1,6.91,6.91Z"/><path class="cls-5" d="M26.14,50"/><polygon class="cls-6" points="32.6 61.99 32.6 47.14 37.01 47.14 28.5 32.38 19.98 47.14 24.39 47.14 24.39 61.99 32.6 61.99"/><path class="cls-7" d="M34.87,65.64a.57.57,0,0,1-.57-.57V52.48a.57.57,0,0,1,1.13,0V65.07A.57.57,0,0,1,34.87,65.64Z"/><path class="cls-7" d="M31.47,68.18a.57.57,0,0,1-.57-.57V63.13a.57.57,0,1,1,1.13,0v4.49A.57.57,0,0,1,31.47,68.18Z"/><path class="cls-7" d="M22.87,64.63a.57.57,0,0,1-.57-.57v-9.7a.57.57,0,0,1,1.13,0v9.7A.57.57,0,0,1,22.87,64.63Z"/><path class="cls-7" d="M25.92,68.18a.57.57,0,0,1-.57-.57V65a.57.57,0,0,1,1.13,0v2.6A.57.57,0,0,1,25.92,68.18Z"/></svg>