<svg id="Layer_1" data-name="Layer 1" xmlns="http://www.w3.org/2000/svg" viewBox="0 0 64.38 100"><defs><style>.cls-1{fill:#ff93be;}.cls-2{fill:#ffc7de;}.cls-3{fill:#ffd62c;}.cls-4{fill:#f9de6b;}</style></defs><title>heavily_save_on_time_and_cost</title><path d="M60.62,68.82a4.7,4.7,0,0,1-3.12-1.13,5.48,5.48,0,0,1-1.69-3.41A8.5,8.5,0,0,0,55,67a1.06,1.06,0,0,1-2.12-.22c0-.17.45-4.06,3.09-5.75a4.81,4.81,0,0,1,.95-.47c1-1.3,2.7-2.66,5.79-3.73a1.06,1.06,0,1,1,.69,2,13.43,13.43,0,0,0-3.3,1.6,8.48,8.48,0,0,1,.85.25,5.18,5.18,0,0,1,3.21,3.08,3.46,3.46,0,0,1,.21.88,3.6,3.6,0,0,1-1.87,3.79A4.22,4.22,0,0,1,60.62,68.82Zm-2.36-6.44a3.24,3.24,0,0,0-.28.79,3.2,3.2,0,0,0,1,2.95,2.63,2.63,0,0,0,2.61.39c.2-.1.81-.4.69-1.69a1.43,1.43,0,0,0-.09-.34,3.06,3.06,0,0,0-1.9-1.81A4.54,4.54,0,0,0,58.26,62.38Z"/><path class="cls-1" d="M32.63,52.91c13.35.39,24,10,24,21.62,0,6.72-3.54,12.72-9.07,16.68v7.73H36.5v-3.2a28.55,28.55,0,0,1-4.71.39h-.29v2.81H20.42v-5.2A22.91,22.91,0,0,1,8.27,81.56l-7.09-.91L2.65,68.38l5.59-.84a21.36,21.36,0,0,1,5.67-8l-2.72-11.7,11.24,6.69A28.17,28.17,0,0,1,32.63,52.91Z"/><path d="M48.64,100H35.43V97c-1,.12-1.91.19-2.88.21V100H19.35V94.42A23.8,23.8,0,0,1,7.53,82.53L0,81.57,1.69,67.44l5.8-.87a22.59,22.59,0,0,1,5.25-7.45L9.59,45.6l13,7.72a29.18,29.18,0,0,1,10.11-1.47,27.58,27.58,0,0,1,17.7,6.87,21.18,21.18,0,0,1,7.35,15.81A20.09,20.09,0,0,1,57,79.64,1.06,1.06,0,0,1,55,79.1a18,18,0,0,0,.59-4.57c0-11-10.3-20.19-23-20.55a27,27,0,0,0-9.81,1.51l-.47.17L12.8,50l2.3,9.88-.47.42a20.42,20.42,0,0,0-5.39,7.65L9,68.5l-5.4.81L2.36,79.73,9,80.58l.23.58a21.7,21.7,0,0,0,11.59,11.6l.63.28v4.82h8.95V95l1.08,0h.27a27.58,27.58,0,0,0,4.53-.38l1.24-.21v3.39h8.95V90.66l.44-.32a21.81,21.81,0,0,0,5.22-5.24,1.06,1.06,0,0,1,1.74,1.22,23.83,23.83,0,0,1-5.28,5.43Z"/><path d="M18.74,71.79a1.06,1.06,0,0,1-1-.64c-.39-.88-1-2-1.86-2.06-1-.13-2.31,1.21-2.59,1.58a1.06,1.06,0,1,1-1.69-1.3c.21-.28,2.14-2.68,4.53-2.39,1.47.18,2.66,1.3,3.55,3.32a1.06,1.06,0,0,1-1,1.49Z"/><path class="cls-2" d="M42.11,60.68a1.06,1.06,0,0,1-.63-.2c-6-4.39-14.47-1.64-14.56-1.61a1.06,1.06,0,0,1-.67-2c.39-.13,9.59-3.11,16.48,1.91a1.06,1.06,0,0,1-.63,1.92Z"/><path class="cls-2" d="M48,65.18a1.06,1.06,0,0,1-.83-.4A18.38,18.38,0,0,0,43.82,62,1.06,1.06,0,1,1,45,60.22a20.78,20.78,0,0,1,3.86,3.22A1.06,1.06,0,0,1,48,65.18Z"/><circle class="cls-3" cx="34.17" cy="33.04" r="6.82"/><path d="M34.17,40.6a7.57,7.57,0,1,1,7.11-10.15.74.74,0,1,1-1.4.51,6.08,6.08,0,1,0-.23,4.7.74.74,0,0,1,1.34.64A7.61,7.61,0,0,1,34.17,40.6Z"/><path d="M36.64,34.86H33.43V30.62a.53.53,0,0,1,1.06,0V33.8h2.14a.53.53,0,1,1,0,1.06Z"/><circle class="cls-4" cx="33.47" cy="50.58" r="5.37" transform="translate(-18.21 82.34) rotate(-88.08)"/><path d="M33.31,56.48h-.2a5.92,5.92,0,0,1-5.42-4.07.53.53,0,0,1,1-.33A4.84,4.84,0,1,0,29,48.34a.53.53,0,1,1-.94-.49,5.9,5.9,0,1,1,5.24,8.63Z"/><path d="M26.63,22.41a1.06,1.06,0,0,1-1.06-1.06V8.63a1.06,1.06,0,0,1,2.13,0V21.35A1.06,1.06,0,0,1,26.63,22.41Z"/><path d="M41.7,22.41a1.06,1.06,0,0,1-1.06-1.06V8.63a1.06,1.06,0,1,1,2.13,0V21.35A1.06,1.06,0,0,1,41.7,22.41Z"/><path d="M34,21.56a1.06,1.06,0,0,1-1.06-1.06V1.06a1.06,1.06,0,1,1,2.13,0V20.49A1.06,1.06,0,0,1,34,21.56Z"/><path d="M34.21,50.2a.17.17,0,0,0,.17-.17v-.19a.73.73,0,0,0-.73-.73h0v-.38a.17.17,0,1,0-.35,0v.39a.82.82,0,0,0,.08,1.64h.19a.48.48,0,1,1,0,1h-.28a.38.38,0,0,1-.38-.38.17.17,0,1,0-.35,0,.73.73,0,0,0,.73.73h0v.38a.17.17,0,1,0,.35,0v-.39a.82.82,0,0,0-.08-1.64h-.19a.48.48,0,1,1,0-1h.28a.38.38,0,0,1,.38.38V50A.17.17,0,0,0,34.21,50.2Z"/></svg>