<svg id="Layer_1" data-name="Layer 1" xmlns="http://www.w3.org/2000/svg" viewBox="0 0 71.69 100"><defs><style>.cls-1{fill:#49d0e5;}.cls-2{fill:#b0f8ff;}.cls-3{fill:#1bc4de;}.cls-4{fill:#fde180;}.cls-5{fill:#e29d42;}.cls-6{fill:#fcda60;}</style></defs><title>hire_certified_developer</title><polygon class="cls-1" points="56.01 98.95 60.32 88.63 70.64 92.94 49.61 41.74 34.98 47.74 56.01 98.95"/><polygon class="cls-1" points="15.68 98.95 11.37 88.63 1.05 92.94 22.08 41.74 36.71 47.74 15.68 98.95"/><polygon class="cls-1" points="55.68 56.51 51.03 62.33 43.04 62.33 41.31 63.16 56.01 98.95 60.32 88.63 70.64 92.94 55.68 56.51"/><polygon class="cls-1" points="20.66 62.33 16.02 56.51 1.05 92.94 11.37 88.63 15.68 98.95 30.38 63.16 28.65 62.33 20.66 62.33"/><path class="cls-2" d="M53.15,83.07a.53.53,0,0,1-.49-.33L47,68.3a.53.53,0,1,1,1-.39l5.7,14.43a.53.53,0,0,1-.49.72Z"/><path class="cls-2" d="M55.39,88.3A.53.53,0,0,1,54.9,88l-1.29-3.25a.53.53,0,1,1,1-.39l1.29,3.25a.53.53,0,0,1-.49.72Z"/><polygon class="cls-3" points="51.03 62.33 55.68 56.51 49.61 41.74 35.84 47.39 36.71 47.74 35.84 49.86 41.31 63.16 43.04 62.33 51.03 62.33"/><polygon class="cls-3" points="34.98 47.74 35.84 47.39 22.08 41.74 16.02 56.51 20.66 62.33 28.65 62.33 30.38 63.16 35.84 49.86 34.98 47.74"/><path d="M56,100h0a1.05,1.05,0,0,1-1-.65L35.85,52.62,16.65,99.35a1.05,1.05,0,0,1-1,.65h0a1.05,1.05,0,0,1-1-.65L10.81,90,1.46,93.91A1.05,1.05,0,0,1,.08,92.54l21-51.2a1.05,1.05,0,0,1,1.37-.57l13.36,5.49,13.36-5.49a1.05,1.05,0,0,1,1.37.57l12.77,31.1a1.05,1.05,0,1,1-1.94.8L49,43.11,36.24,48.36a1.05,1.05,0,0,1-.8,0L22.65,43.11,3,91l8-3.33a1,1,0,0,1,1.37.56l3.33,8,19.2-46.75a1.05,1.05,0,0,1,1.94,0L56,96.21l3.33-8a1,1,0,0,1,1.37-.56l8,3.33L63.42,78.13a1.05,1.05,0,1,1,1.94-.8l6.25,15.21a1.05,1.05,0,0,1-1.38,1.37L60.88,90,57,99.35A1.05,1.05,0,0,1,56,100Z"/><polygon class="cls-1" points="35.84 49.86 36.71 47.74 35.84 47.39 34.98 47.74 35.84 49.86"/><polygon class="cls-1" points="35.84 1.05 41.96 4 48.75 4 52.98 9.3 59.1 12.25 60.61 18.86 64.84 24.17 63.33 30.79 64.84 37.41 60.61 42.71 59.1 49.33 52.98 52.28 48.75 57.58 41.96 57.58 35.84 60.53 29.73 57.58 22.94 57.58 18.71 52.28 12.59 49.33 11.08 42.71 6.85 37.41 8.36 30.79 6.85 24.17 11.08 18.86 12.59 12.25 18.71 9.3 22.94 4 29.73 4 35.84 1.05"/><path d="M35.85,50.91h0a1.05,1.05,0,0,1-1-.65L34,48.14a1.05,1.05,0,0,1,.57-1.37l.87-.36a1.05,1.05,0,0,1,.8,0l.87.36a1.05,1.05,0,0,1,.57,1.37l-.87,2.11A1.05,1.05,0,0,1,35.85,50.91Z"/><path d="M35.85,61.58a1,1,0,0,1-.46-.1l-5.9-2.84H22.94a1.05,1.05,0,0,1-.82-.4L18,53.12l-5.9-2.84a1.05,1.05,0,0,1-.57-.71l-1.46-6.38L6,38.06a1.05,1.05,0,0,1-.2-.89l1.46-6.38L5.83,24.41a1.05,1.05,0,0,1,.2-.89l4.08-5.12L11.57,12a1,1,0,0,1,.57-.71L18,8.46l4.08-5.12a1.05,1.05,0,0,1,.82-.4h6.55L35.39.1a1.05,1.05,0,0,1,.91,0l5.9,2.84h6.55a1.05,1.05,0,0,1,.82.4l4.08,5.12,5.9,2.84a1.05,1.05,0,0,1,.57.71l1.46,6.38,4.08,5.12a1.05,1.05,0,0,1,.2.89l-1.46,6.38,1.46,6.38a1.05,1.05,0,0,1-.2.89l-4.08,5.12-1.46,6.38a1.05,1.05,0,0,1-.57.71l-5.9,2.84-4.08,5.12a1.05,1.05,0,0,1-.82.4H42.2l-5.9,2.84A1.05,1.05,0,0,1,35.85,61.58Zm-12.4-5h6.28a1,1,0,0,1,.46.1l5.66,2.73,5.66-2.73a1,1,0,0,1,.46-.1h6.28l3.92-4.91a1.05,1.05,0,0,1,.37-.29l5.66-2.73,1.4-6.12a1.05,1.05,0,0,1,.2-.42l3.92-4.91L62.3,31a1.05,1.05,0,0,1,0-.47l1.4-6.12-3.92-4.91a1.05,1.05,0,0,1-.2-.42L58.19,13l-5.66-2.73a1.05,1.05,0,0,1-.37-.29L48.24,5H42a1.05,1.05,0,0,1-.46-.1L35.85,2.22,30.19,4.94a1.05,1.05,0,0,1-.46.1H23.45L19.53,10a1.05,1.05,0,0,1-.37.29L13.51,13l-1.4,6.12a1.05,1.05,0,0,1-.2.42L8,24.43l1.4,6.12a1,1,0,0,1,0,.47L8,37.15l3.92,4.91a1,1,0,0,1,.2.42l1.4,6.12,5.66,2.73a1,1,0,0,1,.37.29Z"/><circle class="cls-4" cx="35.84" cy="30.79" r="20.56"/><circle class="cls-5" cx="36.26" cy="30.79" r="12.96"/><path d="M36.26,44.27A13.48,13.48,0,1,1,49.75,30.79,13.5,13.5,0,0,1,36.26,44.27Zm0-25.92A12.43,12.43,0,1,0,48.7,30.79,12.45,12.45,0,0,0,36.26,18.36Z"/><path class="cls-6" d="M40.59,48.5A20.56,20.56,0,0,1,27.74,11.89a20.56,20.56,0,1,0,21,34.94A20.49,20.49,0,0,1,40.59,48.5Z"/><path d="M35.84,52.4A21.61,21.61,0,1,1,57.46,30.79a21.88,21.88,0,0,1-.21,3,1.05,1.05,0,0,1-2.08-.29,19.78,19.78,0,0,0,.19-2.75,19.5,19.5,0,1,0-1.69,7.95,1.05,1.05,0,1,1,1.92.86A21.65,21.65,0,0,1,35.84,52.4Z"/></svg>