<svg id="Layer_1" data-name="Layer 1" xmlns="http://www.w3.org/2000/svg" viewBox="0 0 196.24 100"><defs><style>.cls-1{fill:#4faed3;}.cls-2{fill:#7dd0ea;}</style></defs><title>hire_php_developer</title><path class="cls-1" d="M98.12,1.88C44.15,1.88,1.88,23,1.88,50S44.15,98.12,98.12,98.12,194.36,77,194.36,50,152.09,1.88,98.12,1.88Z"/><path class="cls-2" d="M10.53,54.89c0-27,42.27-48.12,96.24-48.12,26.7,0,50.54,5.18,67.81,13.67-17.45-11.36-45-18.56-76.46-18.56C44.15,1.88,1.88,23,1.88,50c0,13.63,10.79,25.77,28.43,34.45C17.86,76.34,10.53,66.12,10.53,54.89Z"/><path d="M152.65,21.55H135.84a4,4,0,0,0-3.89,3l-8,32,0,.17-4,16a4,4,0,1,0,7.78,1.94l3.25-13H145A23,23,0,0,0,167.4,44.18l.7-2.82a15.93,15.93,0,0,0-15.45-19.8Zm7.67,17.86-.7,2.82A15,15,0,0,1,145,53.63H133l6-24.06h13.68a7.91,7.91,0,0,1,7.67,9.84Z"/><path d="M60.5,21.55H43.69a4,4,0,0,0-3.89,3l-8,32,0,.17-4,16a4,4,0,1,0,7.78,1.94l3.25-13H52.87A23,23,0,0,0,75.26,44.18l.7-2.82A15.93,15.93,0,0,0,60.5,21.55Zm7.67,17.86-.7,2.82a15,15,0,0,1-14.6,11.4H40.81l6-24.06H60.5a7.91,7.91,0,0,1,7.67,9.84Z"/><path d="M117.36,26.45a13.23,13.23,0,0,0-10.3-4.9H94.34l1.33-7.3a4,4,0,0,0-7.89-1.43l-8,44.11A4,4,0,0,0,83,61.59a3.77,3.77,0,0,0,.72.07,4,4,0,0,0,3.94-3.29l5.23-28.79h14.17a5.26,5.26,0,0,1,5.15,6.33l-4.35,20.93A4,4,0,0,0,111,61.57a4.17,4.17,0,0,0,.82.08,4,4,0,0,0,3.92-3.2l4.35-20.93A13.25,13.25,0,0,0,117.36,26.45Z"/><path d="M98.12,100c-26.39,0-51-5-69.2-14.14C10.27,76.53,0,63.8,0,50S10.27,23.47,28.92,14.14C47.16,5,71.73,0,98.12,0s51,5,69.2,14.14C186,23.47,196.24,36.2,196.24,50c0,7.52-3,14.68-8.91,21.29-5.59,6.26-13.54,11.73-23.61,16.27a1.88,1.88,0,1,1-1.55-3.43C181.43,75.46,192.48,63,192.48,50c0-12.3-9.53-23.84-26.84-32.5C147.91,8.64,123.93,3.76,98.12,3.76S48.33,8.64,30.6,17.5C13.29,26.16,3.76,37.7,3.76,50S13.29,73.84,30.6,82.5c17.72,8.86,41.7,13.74,67.52,13.74,19.08,0,37.35-2.69,52.85-7.78A1.88,1.88,0,1,1,152.14,92C136.27,97.25,117.59,100,98.12,100Z"/></svg>