<svg id="Layer_1" data-name="Layer 1" xmlns="http://www.w3.org/2000/svg" viewBox="0 0 127.5 100"><defs><style>.cls-1{fill:#8dd600;}.cls-2{fill:none;stroke:#000;stroke-linecap:round;stroke-linejoin:bevel;stroke-width:10px;}.cls-3{fill:#caff48;}</style></defs><title>IDE</title><path class="cls-1" d="M39.75,74.82a3.86,3.86,0,0,0,4.08,4.08h4.08V93.18a6.11,6.11,0,1,0,12.22,0V78.91h8.17V93.18a6.11,6.11,0,1,0,12.22,0V78.91h4.08a3.86,3.86,0,0,0,4.08-4.08V34H39.75ZM29.56,34a6.27,6.27,0,0,0-6.11,6.11V68.71a6.11,6.11,0,0,0,12.22,0V40.16A6.27,6.27,0,0,0,29.56,34Zm69.33,0a6.27,6.27,0,0,0-6.11,6.11V68.71a6.11,6.11,0,0,0,12.22,0V40.16A6.27,6.27,0,0,0,98.89,34ZM78.5,10.39l5.3-5.3a2,2,0,0,0,0-2.84,2,2,0,0,0-2.85,0L74.82,8.36c-2.84-2-6.51-2.85-10.59-2.85A24.2,24.2,0,0,0,53.22,8L47.5,1.83a4.57,4.57,0,0,0-3.27,0,4.61,4.61,0,0,0,0,3.26l5.32,5.3A24.94,24.94,0,0,0,39.75,30H88.7A23.6,23.6,0,0,0,78.5,10.39ZM56.06,21.82H52V17.74h4.06Zm20.39,0H72.39V17.74h4.06Zm0,0" transform="translate(0 0)"/><path d="M29.56,75.53a7.42,7.42,0,0,1-7.23-7.23V39.75a7.42,7.42,0,0,1,7.23-7.23,7.42,7.42,0,0,1,7.23,7.23V68.3A7.42,7.42,0,0,1,29.56,75.53Zm0-40.78a5.13,5.13,0,0,0-5,5V68.3a5,5,0,0,0,10,0V39.75A5.13,5.13,0,0,0,29.56,34.75Z" transform="translate(0 0)"/><path d="M98.89,75.53a7.42,7.42,0,0,1-7.23-7.23V39.75a7.23,7.23,0,1,1,14.45,0V68.3A7.42,7.42,0,0,1,98.89,75.53Zm0-40.78a5.13,5.13,0,0,0-5,5V68.3a5,5,0,0,0,10,0V39.75A5.13,5.13,0,0,0,98.89,34.75Z" transform="translate(0 0)"/><path d="M88.7,30.67H39.75l-1.11-1.11A25.93,25.93,0,0,1,47.89,9.9L43.45,5.47l-.22-.3a5.65,5.65,0,0,1,0-4.24l.51-.51A5.6,5.6,0,0,1,48,.42l.32.24,5.16,5.53A25.72,25.72,0,0,1,64.23,4,19.74,19.74,0,0,1,74.68,6.52L80.16,1a3.07,3.07,0,0,1,4.43,0,3.12,3.12,0,0,1,.94,2.21,3.12,3.12,0,0,1-.94,2.21L80.22,9.83a24.93,24.93,0,0,1,9.59,19.72ZM40.9,28.44H87.56A22.5,22.5,0,0,0,77.88,10.9l-.17-1.72L83,3.89a.89.89,0,0,0,.29-.63A.89.89,0,0,0,83,2.63a.85.85,0,0,0-1.27,0L75.61,8.74l-1.44.12c-2.45-1.75-5.8-2.64-9.94-2.64A23.23,23.23,0,0,0,53.72,8.55L52.4,8.31l-5.55-6a4.09,4.09,0,0,0-1.73-.06A4.12,4.12,0,0,0,45.18,4l5.16,5.14-.1,1.67A23.92,23.92,0,0,0,40.9,28.44Z" transform="translate(0 0)"/><rect x="52" y="17.77" width="4.06" height="4.08"/><rect x="72.39" y="17.77" width="4.06" height="4.08"/><path class="cls-2" d="M76.45,21.41" transform="translate(0 0)"/><path d="M74.42,100a7.42,7.42,0,0,1-7.23-7.23V79.61H61.26V92.77a7.23,7.23,0,1,1-14.45,0V79.61h-3a5,5,0,0,1-5.2-5.2V33.63a1.11,1.11,0,0,1,1.11-1.11H88.7a1.11,1.11,0,0,1,1.11,1.11v25a1.11,1.11,0,0,1-2.23,0V34.75H40.87V74.41a2.75,2.75,0,0,0,3,3h4.08A1.11,1.11,0,0,1,49,78.5V92.77a5,5,0,1,0,10,0V78.5a1.11,1.11,0,0,1,1.11-1.11h8.17a1.11,1.11,0,0,1,1.11,1.11V92.77a5,5,0,1,0,10,0V78.5a1.11,1.11,0,0,1,1.11-1.11h4.08a2.75,2.75,0,0,0,3-3V68.1a1.11,1.11,0,1,1,2.23,0v6.31a5,5,0,0,1-5.2,5.2h-3V92.77A7.42,7.42,0,0,1,74.42,100Z" transform="translate(0 0)"/><path d="M88.7,65.42a1.11,1.11,0,0,1-1.11-1.11V61.74a1.11,1.11,0,0,1,2.23,0v2.56A1.11,1.11,0,0,1,88.7,65.42Z" transform="translate(0 0)"/><path class="cls-3" d="M84.33,54.05a1,1,0,0,1-.85-1.11v-15a.88.88,0,1,1,1.71,0v15A1,1,0,0,1,84.33,54.05Z" transform="translate(0 0)"/><path class="cls-3" d="M84.33,61.67a1,1,0,0,1-.85-1.11V57.32a.88.88,0,1,1,1.71,0v3.23A1,1,0,0,1,84.33,61.67Z" transform="translate(0 0)"/><path d="M7.83,49.07A4.62,4.62,0,0,1,5,51.53,4.62,4.62,0,0,1,7.83,54a12.11,12.11,0,0,1,.89,5.18V82.4q0,3.9,2.47,5.77T18.75,90v1.86H18.3q-5.86,0-8.65-2.32T6.86,82.4V59.15q0-6.67-5.08-6.67H0V50.62H1.77q5.13,0,5.08-6.72V20.66q0-4.81,2.79-7.15t8.65-2.34h.45V13q-5.13,0-7.58,1.86T8.72,20.66V43.9A12.1,12.1,0,0,1,7.83,49.07Z" transform="translate(0 0)"/><path d="M118.78,43.9V20.66q0-3.9-2.45-5.77T108.75,13V11.17h.45q5.86,0,8.65,2.34t2.79,7.15V43.9q0,6.72,5.08,6.72h1.77v1.86h-1.77q-5.08,0-5.08,6.67V82.4q0,4.86-2.79,7.17t-8.65,2.32h-.45V90q5.08,0,7.56-1.86t2.47-5.77V59.15a12.11,12.11,0,0,1,.89-5.18,4.62,4.62,0,0,1,2.84-2.45,4.62,4.62,0,0,1-2.84-2.45A12.1,12.1,0,0,1,118.78,43.9Z" transform="translate(0 0)"/></svg>