<svg id="Capa_1" data-name="Capa 1" xmlns="http://www.w3.org/2000/svg" viewBox="0 0 99.26 100"><defs><style>.cls-1{fill:#fff4d7;}.cls-2{fill:#ffb954;}.cls-3{fill:#feda9b;}.cls-4{fill:#74dbad;}.cls-5{fill:#fff;}</style></defs><title>Industry_Experience</title><path class="cls-1" d="M49.63,98.87H98.2V39.59L82,31v8.63L65.82,31v8.63L49.63,31Zm0,0"/><path d="M98.2,99.93H49.63a1.06,1.06,0,0,1-1.06-1.06V31A1.06,1.06,0,0,1,50.13,30l14.63,7.8V31A1.06,1.06,0,0,1,66.32,30l14.63,7.8V31A1.06,1.06,0,0,1,82.51,30L98.7,38.65a1.06,1.06,0,0,1,.56.94V86.34a1.06,1.06,0,0,1-2.12,0V40.22l-14.07-7.5v6.87a1.06,1.06,0,0,1-1.56.94l-14.63-7.8v6.87a1.06,1.06,0,0,1-1.56.94l-14.63-7.8V97.81H97.14V92.07a1.06,1.06,0,0,1,2.12,0v6.8A1.06,1.06,0,0,1,98.2,99.93Z"/><rect class="cls-2" x="1.06" y="30.95" width="14.22" height="67.92"/><rect class="cls-3" x="1.06" y="30.95" width="14.22" height="7.96"/><rect class="cls-3" x="1.06" y="90.97" width="14.22" height="7.96"/><path d="M16.34,100H0V29.89H16.34ZM2.12,97.88H14.22V32H2.12Z"/><rect class="cls-4" x="15.28" y="54.65" width="63.18" height="44.23"/><rect class="cls-5" x="23.17" y="72.02" width="9.48" height="9.48"/><rect class="cls-5" x="42.13" y="72.02" width="9.48" height="9.48"/><rect class="cls-5" x="61.08" y="72.02" width="9.48" height="9.48"/><path d="M32.65,82.35H23.17a.85.85,0,0,1-.85-.85V72a.85.85,0,0,1,.85-.85h9.48a.85.85,0,0,1,.85.85V81.5A.85.85,0,0,1,32.65,82.35ZM24,80.65H31.8V72.87H24Z"/><path d="M51.6,82.35H42.13a.85.85,0,0,1-.85-.85V72a.85.85,0,0,1,.85-.85H51.6a.85.85,0,0,1,.85.85V81.5A.85.85,0,0,1,51.6,82.35ZM43,80.65h7.78V72.87H43Z"/><path d="M70.56,82.35H61.08a.85.85,0,0,1-.85-.85V72a.85.85,0,0,1,.85-.85h9.48a.85.85,0,0,1,.85.85V81.5A.85.85,0,0,1,70.56,82.35Zm-8.63-1.7h7.78V72.87H61.93Z"/><path d="M5.41,31.34a1.06,1.06,0,0,1-1.06-1.06V21A11.84,11.84,0,0,1,16.18,9.16h5A8.45,8.45,0,0,1,26.9,7.1l.64,0A15,15,0,0,1,54.06,9.09a10.85,10.85,0,0,1,10.59,7.77h8.17a3,3,0,0,1,3,3,1.06,1.06,0,1,1-2.12,0,.91.91,0,0,0-.91-.91H63l-.17-.85a8.72,8.72,0,0,0-8.51-6.93c-.27,0-.55,0-.82,0l-.81.08-.28-.77A12.85,12.85,0,0,0,29,8.8l-.37.67-.75-.14a6.55,6.55,0,0,0-1-.1A6.35,6.35,0,0,0,22.34,11l-.31.29H16.18A9.72,9.72,0,0,0,6.48,21v9.29A1.06,1.06,0,0,1,5.41,31.34Z"/><path d="M96.23,96.9"/><path d="M10.1,39.55h-9a.64.64,0,0,1,0-1.27h9a.64.64,0,0,1,0,1.27Z"/><path d="M15.64,39.55H11.93a.64.64,0,0,1,0-1.27h3.71a.64.64,0,0,1,0,1.27Z"/><path d="M37.73,63.93H15.64a.64.64,0,0,1,0-1.27H37.73a.64.64,0,1,1,0,1.27Z"/><path d="M43.12,63.93h-3a.64.64,0,1,1,0-1.27h3a.64.64,0,1,1,0,1.27Z"/><path d="M9.5,31.42a1.06,1.06,0,0,1-1.05-.92c-.06-.47-.54-4.65,1.62-6.74a4.29,4.29,0,0,1,3.88-1,1.06,1.06,0,1,1-.35,2.09,2.26,2.26,0,0,0-2.06.46c-1.19,1.15-1.11,4-1,4.93a1.06,1.06,0,0,1-.91,1.19Z"/><path d="M78.46,99.93H15.28a1.06,1.06,0,0,1-1.06-1.06V54.65a1.06,1.06,0,0,1,1.06-1.06h21.4a1.06,1.06,0,0,1,0,2.12H16.34v42.1H77.4V55.71h-35a1.06,1.06,0,0,1,0-2.12H78.46a1.06,1.06,0,0,1,1.06,1.06V98.87A1.06,1.06,0,0,1,78.46,99.93Z"/></svg>