<svg id="Layer_1" data-name="Layer 1" xmlns="http://www.w3.org/2000/svg" viewBox="0 0 101.6 99.75"><defs><style>.cls-1{fill:#008989;}.cls-2{fill:#004947;}</style></defs><title>mysql</title><path class="cls-1" d="M28.7,53.16c4.06,10.08,1.19,5.51,8.47,16.51-.43-.25,1.47,2,1.11,1.72,2.05,3.45-2.14.27-4.22-.48a47.15,47.15,0,0,1-4.53-7.72,3,3,0,0,0-.83-1.11c-.2,1.12-.41,2.24-.6,3.36a34.57,34.57,0,0,1-.68,3.81c-.95,3.22-4.28,4.19-6.87,2a16.52,16.52,0,0,1-5.06-8.52,31.48,31.48,0,0,1,0-17.25c.53-1.9,1.1-3.79,1.56-5.71a1.66,1.66,0,0,0-.35-1.33c-3-3-4.44-6.88-5.86-10.75C10,25.57,9.5,23.33,8.63,21.22a25.91,25.91,0,0,0-2.56-4.55c-1.17-1.73-2.61-3.28-3.76-5A14.8,14.8,0,0,1,.21,7.37C-.91,3,2.54-.62,7,.09a25.32,25.32,0,0,1,12.1,5.57,4.88,4.88,0,0,0,3.11,1.19,28.06,28.06,0,0,1,14.79,4.4A72.53,72.53,0,0,1,52.73,23.92,60.59,60.59,0,0,1,64.17,41.41c2.49,6.09,5.52,12,8.31,17.92a4.58,4.58,0,0,0,2.79,2.5C82.1,64.24,87.91,68.33,93.33,73a44.6,44.6,0,0,1,4.33,4.67c.86,1,.76,1.34-.48,1.61-2.52.55-5.08,1-7.6,1.48-2,.42-4,.93-6.36,1.49a19.13,19.13,0,0,0,2.12,2.22c1.28,1,2.65,1.79,4,2.62a32.55,32.55,0,0,1,8.88,7.79c1.07,1.36,2.66,2.33,3.14,4.14,0,.14.09.28.22.74a8.23,8.23,0,0,1-1.17-.69,42.41,42.41,0,0,0-10.72-6.87c-4.3-1.95-8.26-4.44-10.94-8.51-.48-.73-.77-1.57-1.21-2.32s-.11-1.41.66-1.7a31.8,31.8,0,0,1,9.6-2.41c1.77-.08,3.53-.2,5.68-.33a15.19,15.19,0,0,0-1.57-1.48c-3.14-2.15-6.21-4.44-9.5-6.34a26,26,0,0,0-7.06-2.86c-4.08-.94-6.52-3.35-8.12-7.08-2.6-6-5.36-12-8.09-18A57.3,57.3,0,0,0,49.81,27a59.19,59.19,0,0,0-16-12.78,23.78,23.78,0,0,0-11.7-3.41A8.94,8.94,0,0,1,16,8.61,25.57,25.57,0,0,0,6.83,4.07a4.37,4.37,0,0,0-1.24-.14C3.9,3.92,3,5,3.54,6.63A14.62,14.62,0,0,0,5.34,10c1.43,2.07,3,4,4.46,6.07,2.23,3.26,3,7.14,4.33,10.77a57.91,57.91,0,0,0,2.81,6.35A11.9,11.9,0,0,0,19.13,36a4.49,4.49,0,0,1,1.19,4.81,66.13,66.13,0,0,0-2.33,8A26.56,26.56,0,0,0,20.39,66a6.05,6.05,0,0,0,1.49,1.83c.9.74,1.3.54,1.47-.61.29-2,.52-3.92.8-5.88C24.59,58.16,26.26,55.63,28.7,53.16Z" transform="translate(0 0)"/><path class="cls-2" d="M20.45,17.6a3.52,3.52,0,0,1,5.05,1.76,3.22,3.22,0,0,1-1.15,4.33Z" transform="translate(0 0)"/><path class="cls-2" d="M40.65,80.38l1.83,2.75a1.65,1.65,0,0,0,2.75-1.83L43.4,78.55a1.65,1.65,0,1,0-2.75,1.83Z" transform="translate(0 0)"/></svg>