<svg id="Layer_1" data-name="Layer 1" xmlns="http://www.w3.org/2000/svg" viewBox="0 0 101.65 100"><defs><style>.cls-1{fill:#ffe757;}.cls-2{fill:#ff884d;}.cls-3{fill:#00e8c6;}.cls-4{fill:#ffd79c;}.cls-5{fill:#d2fffd;}</style></defs><title>quality_assurance_2</title><path class="cls-1" d="M31.21,45.73c-4.58,3.05-6.11,9.11-4.37,14.33l2.95,13.06,8.43-12.65L35.79,43.85A12.6,12.6,0,0,0,31.21,45.73Z"/><path class="cls-1" d="M70.52,45.73A12.58,12.58,0,0,0,66,43.85L63.51,60.48l8.43,12.65,2.95-13.06C76.63,54.84,75.1,48.79,70.52,45.73Z"/><path d="M71.95,74.2a1.08,1.08,0,0,1-.9-.48L62.62,61.07a1.08,1.08,0,0,1-.17-.76l2.45-16.63a1.08,1.08,0,0,1,1.28-.9,13.6,13.6,0,0,1,5,2h0c4.79,3.2,6.77,9.58,4.81,15.52L73,73.36a1.08,1.08,0,0,1-.86.82Zm-7.3-14,6.8,10.21,2.39-10.6,0-.1c1.68-5,.06-10.42-3.94-13.09a11.47,11.47,0,0,0-3.07-1.45Z"/><path d="M29.79,74.2l-.2,0a1.08,1.08,0,0,1-.86-.82l-2.94-13c-2-5.94,0-12.32,4.81-15.52h0a13.62,13.62,0,0,1,5-2,1.08,1.08,0,0,1,1.27.9l2.43,16.63a1.08,1.08,0,0,1-.17.75L30.69,73.72A1.08,1.08,0,0,1,29.79,74.2Zm2-27.57c-4,2.67-5.62,8.05-3.94,13.09l0,.1,2.39,10.6,6.81-10.21-2.2-15a11.49,11.49,0,0,0-3.09,1.45Z"/><path d="M55,59.71a2.11,2.11,0,1,0,2.11,2.11A2.11,2.11,0,0,0,55,59.71Z"/><path class="cls-2" d="M43.7,68.84l-2.11-4.22h5a2.11,2.11,0,1,0,0-4.22H40L36.62,37.27A44.83,44.83,0,0,1,37,23.34,38.8,38.8,0,0,1,39,17a19,19,0,0,0,23.57.09,46.31,46.31,0,0,1,2.35,21.15L61.44,61.87l-3.48,7H43.7Z"/><path d="M58.74,69.92H43.15L40,63.54h6.77a1,1,0,0,0,0-2.06H39.18L35.67,37.4a46,46,0,0,1,.39-14.3,40,40,0,0,1,2-6.47l.55-1.33,1.12.9A17.88,17.88,0,0,0,62,16.29l1.16-.91.51,1.39a47.47,47.47,0,0,1,2.41,21.66v0L62.6,62.2ZM44.48,67.76H57.41l3.11-6.21L64,38.14a45.6,45.6,0,0,0-1.83-19.28,20,20,0,0,1-22.53-.11,37.42,37.42,0,0,0-1.43,4.82,43.67,43.67,0,0,0-.35,13.55l3.24,22.2h5.68a3.19,3.19,0,0,1,0,6.37H43.45Z"/><path class="cls-2" d="M50.85,1.42a44.89,44.89,0,0,1,9.92,12.39,14.74,14.74,0,0,1-19.91,0A45.3,45.3,0,0,1,50.85,1.42Z"/><path d="M50.83,18.75a15.81,15.81,0,0,1-10.69-4.16L39.51,14l.4-.74A46.19,46.19,0,0,1,50.14.61l.7-.61.71.61A45.79,45.79,0,0,1,61.72,13.31l.39.74-.62.56A15.81,15.81,0,0,1,50.83,18.75Zm-8.59-5.2a13.66,13.66,0,0,0,17.17,0,44,44,0,0,0-8.55-10.7A44.11,44.11,0,0,0,42.24,13.55Z"/><path class="cls-3" d="M91.51,98.92H10.14c-4.83,0-9.06-3.94-9.06-8.43s4.24-8.43,9.06-8.43a9.43,9.43,0,0,1,8.46,5.39A10.54,10.54,0,0,0,16,89.36a2.11,2.11,0,1,0,3,3,6.3,6.3,0,0,1,2.77-1.62h0a6.31,6.31,0,0,1,6.16,1.62,2.11,2.11,0,0,0,3-3c-.23-.23-.48-.45-.73-.66a8.43,8.43,0,0,1,10.14-1.29V92.6a2.11,2.11,0,0,0,4.22,0V72.36H57.15V92.6a2.11,2.11,0,1,0,4.22,0V87.4A8.44,8.44,0,0,1,71.5,88.7c-.25.21-.5.43-.73.66a2.11,2.11,0,0,0,3,3,6.32,6.32,0,0,1,8.94,0,2.11,2.11,0,1,0,3-3,10.54,10.54,0,0,0-2.63-1.92,9.43,9.43,0,0,1,8.46-5.39c4.83,0,9.06,3.94,9.06,8.43S96.34,98.92,91.51,98.92Z"/><path d="M91.51,100H10.14C4.74,100,0,95.56,0,90.49S4.74,81,10.14,81a10.48,10.48,0,0,1,9.45,6l.4.93-.9.46a9.44,9.44,0,0,0-2.36,1.72,1,1,0,0,0,.73,1.76h0a1,1,0,0,0,.73-.3,7.38,7.38,0,0,1,3.17-1.88l.08,0a7.39,7.39,0,0,1,7.21,1.9,1,1,0,0,0,.73.3,1,1,0,0,0,.73-.3,1,1,0,0,0,0-1.45c-.2-.2-.42-.4-.65-.6l-.91-.76.84-.84a9.51,9.51,0,0,1,11.44-1.46l.53.31V92.6a1,1,0,0,0,2.06,0V71.28H58.23V92.6a1,1,0,0,0,2.06,0V86.78l.54-.31a9.52,9.52,0,0,1,11.44,1.47l.84.84-.91.76c-.23.19-.45.39-.65.6A1,1,0,1,0,73,91.58a7.39,7.39,0,0,1,10.47,0,1,1,0,0,0,.73.3h0a1,1,0,0,0,.73-1.75,9.45,9.45,0,0,0-2.36-1.72l-.9-.46.4-.93a10.48,10.48,0,0,1,9.45-6c5.4,0,10.14,4.44,10.14,9.51S96.91,100,91.51,100ZM10.14,83.14c-4.25,0-8,3.44-8,7.35s3.73,7.35,8,7.35H91.51c4.25,0,8-3.44,8-7.35s-3.73-7.35-8-7.35a8.51,8.51,0,0,0-7,3.89,11.54,11.54,0,0,1,2,1.58A3.19,3.19,0,0,1,84.19,94h0a3.17,3.17,0,0,1-2.25-.94,5.23,5.23,0,0,0-7.41,0,3.16,3.16,0,0,1-2.26.94h0a3.19,3.19,0,0,1-2.38-5.3,7.39,7.39,0,0,0-7.44-.69V92.6a3.19,3.19,0,0,1-6.37,0V73.44H45.58V92.6a3.19,3.19,0,0,1-6.37,0V88.05a7.19,7.19,0,0,0-3.14-.7,7.3,7.3,0,0,0-4.3,1.38A3.19,3.19,0,0,1,29.39,94h0a3.17,3.17,0,0,1-2.25-.94,5.19,5.19,0,0,0-1.43-1,5.25,5.25,0,0,0-3.61-.34l-.07,0a5.22,5.22,0,0,0-2.29,1.34,3.17,3.17,0,0,1-2.25.94h0a3.19,3.19,0,0,1-2.26-5.44,11.53,11.53,0,0,1,2-1.58A8.51,8.51,0,0,0,10.14,83.14Z"/><path d="M58.74,69.92H43.15L40,63.54h6.77a1,1,0,0,0,0-2.06H39.18L35.67,37.4c-.09-.74-.17-1.54-.23-2.37a1.08,1.08,0,1,1,2.15-.16c.06.8.13,1.55.22,2.25l3.24,22.2h5.68a3.19,3.19,0,0,1,0,6.37H43.45l1,2.06H57.41l3.11-6.21L64,38.14a45.6,45.6,0,0,0-1.83-19.28,20,20,0,0,1-22.53-.11,37.42,37.42,0,0,0-1.43,4.82,35.16,35.16,0,0,0-.7,6.93,1.08,1.08,0,0,1-1.08,1.06h0a1.08,1.08,0,0,1-1.06-1.09,37.31,37.31,0,0,1,.75-7.37,40,40,0,0,1,2-6.47l.55-1.33,1.12.9A17.88,17.88,0,0,0,62,16.29l1.16-.91.51,1.39a47.47,47.47,0,0,1,2.41,21.66v0L62.6,62.2Z"/><polygon class="cls-1" points="42.39 69.07 59.26 69.07 63.47 60.64 38.18 60.64 42.39 69.07"/><path d="M59.3,70H42.43a1.08,1.08,0,0,1-1-.6L37.25,61a1.08,1.08,0,0,1,1-1.56H63.51a1.08,1.08,0,0,1,1,1.56l-4.22,8.43A1.08,1.08,0,0,1,59.3,70ZM43.1,67.83H58.63l3.14-6.27H40Z"/><path class="cls-4" d="M50.83,28.79a8.43,8.43,0,1,1-8.43,8.43A8.43,8.43,0,0,1,50.83,28.79Z"/><path d="M50.83,46.73a9.51,9.51,0,1,1,9.51-9.51A9.52,9.52,0,0,1,50.83,46.73Zm0-16.86a7.35,7.35,0,1,0,7.35,7.35A7.36,7.36,0,0,0,50.83,29.86Z"/><path d="M50.83,35.11a2.11,2.11,0,1,0,2.11,2.11A2.11,2.11,0,0,0,50.83,35.11Z"/><path class="cls-5" d="M48.31,91.45a.54.54,0,0,1-.54-.54V76.17a.54.54,0,0,1,1.08,0V90.91A.54.54,0,0,1,48.31,91.45Z"/><path class="cls-5" d="M48.31,96a.54.54,0,0,1-.54-.54V92.83a.54.54,0,0,1,1.08,0v2.61A.54.54,0,0,1,48.31,96Z"/><path class="cls-5" d="M4.56,91.45h0A.54.54,0,0,1,4,90.89c.17-6.44,7.26-6.51,7.33-6.51h0a.54.54,0,0,1,0,1.08h0c-.26,0-6.11.08-6.25,5.46A.54.54,0,0,1,4.56,91.45Z"/><path class="cls-4" d="M58.44,57.71h-.09a.54.54,0,0,1-.45-.62l1.84-11.53a.54.54,0,0,1,1.07.17L59,57.26A.54.54,0,0,1,58.44,57.71Z"/></svg>