<svg id="Layer_1" data-name="Layer 1" xmlns="http://www.w3.org/2000/svg" viewBox="0 0 100.057 100.057"><defs><style>.cls-1{fill:#66a7f6;}.cls-2{fill:#ffc170;}.cls-3{fill:#c2dcfb;}.cls-4{fill:#85b9f8;}</style></defs><title>post_your_project_requirement</title><path class="cls-1" d="M80.741,7.793V14.55H94.256V7.793a6.758,6.758,0,0,0-13.515,0Zm0,0"/><path d="M95.292,15.586H79.705V7.793a7.793,7.793,0,0,1,15.587,0ZM81.777,13.515H93.221V7.793a5.722,5.722,0,0,0-11.444,0Z"/><path class="cls-2" d="M21.309,1.036h64.2V92.263a6.757,6.757,0,0,1-6.757,6.757h-64.2V7.793a6.757,6.757,0,0,1,6.757-6.758Zm0,0"/><path class="cls-3" d="M68.288,52.042l8.361-3.583-4.778-4.778Zm0,0"/><path d="M75.8,14.306H24.217a1.036,1.036,0,1,1,0-2.072H75.8a1.036,1.036,0,1,1,0,2.072Z"/><path d="M75.8,20.728H24.217a1.036,1.036,0,1,1,0-2.072H75.8a1.036,1.036,0,1,1,0,2.072Z"/><path d="M75.8,27.15H24.217a1.036,1.036,0,0,1,0-2.072H75.8a1.036,1.036,0,0,1,0,2.072Z"/><path d="M75.8,33.572H24.217a1.036,1.036,0,1,1,0-2.072H75.8a1.036,1.036,0,0,1,0,2.072Z"/><path d="M65.856,39.994H24.217a1.036,1.036,0,0,1,0-2.072h41.64a1.036,1.036,0,0,1,0,2.072Z"/><path d="M78.749,100.057H13.516V80.115a1.036,1.036,0,1,1,2.072,0v17.87H78.749a5.728,5.728,0,0,0,5.721-5.722V2.072H21.309a5.728,5.728,0,0,0-5.722,5.722v66.8a1.036,1.036,0,1,1-2.072,0V7.793A7.8,7.8,0,0,1,21.309,0H86.542V92.263A7.8,7.8,0,0,1,78.749,100.057Z"/><path class="cls-1" d="M7.794,99.021H78.749a6.757,6.757,0,0,1-6.758-6.757V85.506H1.036v6.757a6.758,6.758,0,0,0,6.758,6.757Zm0,0"/><path d="M78.749,100.057H7.794A7.8,7.8,0,0,1,0,92.263V84.47H73.027v7.793a5.728,5.728,0,0,0,5.722,5.722ZM2.072,86.542v5.722a5.729,5.729,0,0,0,5.722,5.722H73.463a7.774,7.774,0,0,1-2.507-5.722V86.542Z"/><path class="cls-3" d="M99.021,56.786H92.264v0H85.506v0H78.749v0H71.991v0H65.233v0H58.476v0H51.718v0H44.961v0H38.2v0H31.445V70.3H99.021Zm0,0"/><path d="M100.057,71.337H30.409V55.75h69.648ZM32.481,69.265h65.5V57.821H93.3v2.343H91.228V57.821H86.542v2.343H84.47V57.821H79.784v2.343H77.713V57.821H73.027v2.343H70.955V57.821H66.269v2.343H64.2V57.821H59.511v2.343H57.44V57.821H52.754v2.343H50.682V57.821H46v2.343H43.925V57.821H39.238v2.343H37.167V57.821H32.481Z"/><path class="cls-4" d="M71.871,43.681,90.983,24.568l4.778,4.778L76.649,48.459Zm0,0"/><path class="cls-3" d="M98.152,22.178a3.379,3.379,0,0,0-4.778,0l-2.389,2.389,4.778,4.777,2.389-2.389a3.38,3.38,0,0,0,0-4.778Zm0,0"/><path d="M68.142,53.349a.829.829,0,0,1-.762-1.155l3.574-8.338a.824.824,0,0,1,.185-.282L90.251,24.46a.829.829,0,0,1,1.172,0L96.2,29.238a.829.829,0,0,1,0,1.172L77.089,49.523a.828.828,0,0,1-.26.176l-8.361,3.583A.826.826,0,0,1,68.142,53.349Zm4.282-8.718-2.7,6.311,6.311-2.7L94.444,29.824l-3.607-3.606Z"/><path d="M95.617,30.652a.826.826,0,0,1-.586-.243l-4.778-4.777a.829.829,0,0,1,0-1.172l2.389-2.389a4.213,4.213,0,0,1,5.949,0h0a4.213,4.213,0,0,1,0,5.949L96.2,30.409A.826.826,0,0,1,95.617,30.652ZM92.01,25.046l3.606,3.606,1.8-1.8a2.55,2.55,0,1,0-3.606-3.606Z"/><path d="M76.784,49.549a.516.516,0,0,1-.359-.145l-5.059-4.872a.518.518,0,0,1,.719-.746l5.059,4.872a.518.518,0,0,1-.359.891Z"/></svg>