<svg id="Layer_1" data-name="Layer 1" xmlns="http://www.w3.org/2000/svg" viewBox="0 0 76.97 100.13"><defs><style>.cls-1{fill:#28f9f9;}.cls-2{fill:#00ced3;}.cls-3{fill:#999;}.cls-4{fill:#bab8b9;}.cls-5{fill:#757575;}.cls-6{fill:#4f4f4f;}</style></defs><title>protection_of_confidantory</title><path class="cls-1" d="M38.48,99l-5.05-2.42A57,57,0,0,1,1,45.15V14.29A60.12,60.12,0,0,0,36.38,2.8l2.11-1.53"/><path class="cls-2" d="M38.48,1.26,40.59,2.8a60.12,60.12,0,0,0,35.36,11.5V45.15A57,57,0,0,1,43.54,96.58L38.48,99"/><path class="cls-3" d="M48.69,51.76V44.1a10.21,10.21,0,0,0-20.42,0v7.66h5.1V44.1a5.1,5.1,0,1,1,10.21,0v7.66"/><path class="cls-4" d="M46.14,51.76V44.1a7.66,7.66,0,1,0-15.31,0v7.66h2.55V44.1a5.1,5.1,0,1,1,10.21,0v7.66"/><polyline class="cls-5" points="38.48 69.62 25.73 69.62 25.73 51.76 38.48 51.76"/><polyline class="cls-6" points="38.48 51.76 51.24 51.76 51.24 69.62 38.48 69.62"/><path d="M52.26,70.64H24.7V50.74H52.26Zm-25.52-2H50.22V52.78H26.75Z"/><path class="cls-5" d="M38.48,63.24a2.55,2.55,0,0,1,0-5.1"/><path d="M38.48,64.52a3.83,3.83,0,1,1,3.83-3.83,3.83,3.83,0,0,1-3.83,3.83Zm0-5.1a1.28,1.28,0,1,0,1.28,1.28,1.28,1.28,0,0,0-1.28-1.28Zm0,0"/><rect x="36.25" y="17.14" width="4.48" height="4.48" rx="2.24" ry="2.24"/><rect x="45.2" y="17.14" width="4.48" height="4.48" rx="2.24" ry="2.24"/><rect x="54.16" y="17.14" width="4.48" height="4.48" rx="2.24" ry="2.24"/><rect x="27.29" y="17.14" width="4.48" height="4.48" rx="2.24" ry="2.24"/><rect x="18.33" y="17.14" width="4.48" height="4.48" rx="2.24" ry="2.24"/><path d="M34.4,52.78H27.26V44.1a11.23,11.23,0,1,1,22.46,0v7.66h-2V44.1a9.19,9.19,0,0,0-18.37,0v6.64h3.06V44.1a6.12,6.12,0,1,1,12.25,0v7.66h-2V44.1a4.08,4.08,0,0,0-8.17,0Z"/><path d="M30.67,61.47H26.52a1,1,0,0,1,0-2h4.15a1,1,0,0,1,0,2Z"/><path d="M51.08,61.47H46.86a1,1,0,0,1,0-2h4.23a1,1,0,1,1,0,2Z"/><path d="M38.48,100.13,33,97.5A58,58,0,0,1,0,45.15V13.27H1A58.73,58.73,0,0,0,35.78,2l2.71-2,2.71,2a58.73,58.73,0,0,0,34.75,11.3h1V28.44a1,1,0,0,1-2,0V15.3A60.74,60.74,0,0,1,40,3.62l-1.51-1.1L37,3.62A60.74,60.74,0,0,1,2,15.3V45.15A56.27,56.27,0,0,0,33.87,95.66l4.61,2.2,4.61-2.2A56.27,56.27,0,0,0,74.93,45.15v-3a1,1,0,1,1,2,0v3A58,58,0,0,1,44,97.5Z"/><path d="M75.95,38.73a1,1,0,0,1-1-1V32.92a1,1,0,0,1,2,0v4.78A1,1,0,0,1,75.95,38.73Z"/><path class="cls-1" d="M66.68,66.52A.82.82,0,0,1,66,65.3c4.33-7.67,4.68-20.06,4.68-20.18a.82.82,0,0,1,1.63,0c0,.52-.36,12.92-4.89,20.95A.82.82,0,0,1,66.68,66.52Z"/></svg>