<svg id="Layer_1" data-name="Layer 1" xmlns="http://www.w3.org/2000/svg" viewBox="0 0 61.87 100"><defs><style>.cls-1{fill:#ffab7d;}.cls-2{fill:#ffbf9f;}.cls-3{fill:#5396a8;}.cls-4{fill:#7dcfe2;}.cls-5{fill:#70dbe0;}.cls-6{fill:#e5a251;}.cls-7{fill:#fcc5ac;}</style></defs><title>quality_assurance</title><rect class="cls-1" x="1.1" y="13.43" width="59.66" height="69.17"/><rect class="cls-2" x="53.48" y="13.43" width="7.29" height="69.17"/><path class="cls-3" d="M5.28,98.9H56.59a4.18,4.18,0,0,0,4.18-4.18V82.6H1.1V94.72A4.18,4.18,0,0,0,5.28,98.9Zm0,0"/><path class="cls-4" d="M47.24,98.9h9.36a4.18,4.18,0,0,0,4.18-4.18V82.6H47.25m0,16.3"/><path class="cls-5" d="M56.59,1.1H5.28A4.18,4.18,0,0,0,1.1,5.28v8.15H60.77V5.28A4.18,4.18,0,0,0,56.59,1.1Zm0,0"/><path d="M34.92,92.73H29.76a2,2,0,0,1,0-4h5.17a2,2,0,0,1,0,4Zm0,0"/><path d="M44.5,14.53H1.1a1.1,1.1,0,0,1,0-2.21H44.5a1.1,1.1,0,0,1,0,2.21Z"/><path d="M60.77,14.42H49.36a1.1,1.1,0,1,1,0-2.21H60.77a1.1,1.1,0,1,1,0,2.21Z"/><rect x="1.1" y="81.49" width="59.66" height="2.21"/><circle class="cls-6" cx="32.61" cy="47.05" r="18.34"/><path d="M32.61,66.5A19.45,19.45,0,1,1,52.05,47.05,19.47,19.47,0,0,1,32.61,66.5Zm0-36.69A17.24,17.24,0,1,0,49.85,47.05,17.26,17.26,0,0,0,32.61,29.81Z"/><path d="M27.3,55.69,18.91,44.47a1.1,1.1,0,1,1,1.77-1.32l7,9.4,17-13.43a1.1,1.1,0,1,1,1.37,1.73Z"/><path d="M56.69,100H5.18A5.19,5.19,0,0,1,0,94.82V5.18A5.19,5.19,0,0,1,5.18,0h51.5a5.19,5.19,0,0,1,5.18,5.18V69.55a1.1,1.1,0,0,1-2.21,0V5.18a3,3,0,0,0-3-3H5.18a3,3,0,0,0-3,3V94.82a3,3,0,0,0,3,3h51.5a3,3,0,0,0,3-3V75.58a1.1,1.1,0,0,1,2.21,0V94.82A5.19,5.19,0,0,1,56.69,100Z"/><path class="cls-7" d="M5.86,44.3a1.1,1.1,0,0,1-1.1-1.1V19.49a1.1,1.1,0,1,1,2.21,0V43.2A1.1,1.1,0,0,1,5.86,44.3Z"/><path class="cls-7" d="M5.86,54.46a1.1,1.1,0,0,1-1.1-1.1V48.42a1.1,1.1,0,0,1,2.21,0v4.93A1.1,1.1,0,0,1,5.86,54.46Z"/></svg>