<svg id="Capa_1" data-name="Capa 1" xmlns="http://www.w3.org/2000/svg" viewBox="0 0 100.37 100.22"><defs><style>.cls-1{fill:#d38946;}.cls-2{fill:#fff;}.cls-3{fill:#fdbf5e;}.cls-4{fill:none;stroke:#000;stroke-linecap:round;stroke-linejoin:round;stroke-width:10px;}</style></defs><title>strategy_making</title><path class="cls-1" d="M98.22,10.3A1.35,1.35,0,0,1,97,9.56a4.83,4.83,0,0,0-.58-.88A1.35,1.35,0,0,1,98.52,7a7.55,7.55,0,0,1,.9,1.37,1.35,1.35,0,0,1-1.2,2Z" transform="translate(0 0)"/><path class="cls-1" d="M2.78,52.51A1.35,1.35,0,0,1,1.5,50.73a19.49,19.49,0,0,1,1.12-2.61A1.35,1.35,0,1,1,5,49.35a16.78,16.78,0,0,0-1,2.25A1.35,1.35,0,0,1,2.78,52.51Zm3.9-6.89A1.35,1.35,0,0,1,5.6,43.46c.53-.7,1.11-1.41,1.71-2.12a1.35,1.35,0,1,1,2.05,1.76c-.58.67-1.12,1.35-1.62,2A1.35,1.35,0,0,1,6.67,45.63ZM12,39.7A1.35,1.35,0,0,1,11,37.39c.63-.61,1.28-1.24,2-1.85a1.35,1.35,0,0,1,1.82,2c-.65.6-1.29,1.2-1.89,1.79A1.35,1.35,0,0,1,12,39.7Zm5.94-5.28a1.35,1.35,0,0,1-.85-2.4c.68-.55,1.39-1.11,2.1-1.67a1.35,1.35,0,0,1,1.65,2.14c-.7.54-1.39,1.09-2,1.63A1.35,1.35,0,0,1,17.91,34.42Zm6.34-4.8a1.35,1.35,0,0,1-.78-2.45c.72-.51,1.46-1,2.2-1.52a1.35,1.35,0,0,1,1.51,2.24c-.73.49-1.46,1-2.16,1.49A1.34,1.34,0,0,1,24.25,29.62Zm6.63-4.39a1.35,1.35,0,0,1-.72-2.5l2.28-1.39a1.35,1.35,0,1,1,1.39,2.32L31.59,25A1.34,1.34,0,0,1,30.87,25.23Zm6.86-4a1.35,1.35,0,0,1-.65-2.53l2.35-1.27a1.35,1.35,0,0,1,1.27,2.39L38.38,21A1.35,1.35,0,0,1,37.73,21.21Zm7.05-3.67a1.35,1.35,0,0,1-.6-2.56l2.41-1.16a1.35,1.35,0,0,1,1.15,2.45L45.38,17.4A1.35,1.35,0,0,1,44.78,17.54ZM52,14.22a1.35,1.35,0,0,1-.53-2.59l2.47-1a1.35,1.35,0,1,1,1,2.5l-2.42,1A1.35,1.35,0,0,1,52,14.22Zm7.39-2.93a1.35,1.35,0,0,1-.46-2.62l2.52-.89a1.35,1.35,0,0,1,.87,2.56l-2.47.87A1.35,1.35,0,0,1,59.39,11.29ZM66.94,8.8a1.35,1.35,0,0,1-.38-2.65c.86-.25,1.73-.5,2.58-.72A1.35,1.35,0,1,1,69.84,8c-.83.22-1.68.46-2.52.71A1.35,1.35,0,0,1,66.94,8.8Zm7.71-1.94a1.35,1.35,0,0,1-.27-2.67c.9-.18,1.79-.35,2.65-.5a1.35,1.35,0,0,1,.45,2.66c-.83.14-1.69.3-2.56.48ZM93,6.44a1.35,1.35,0,0,1-.4-.06,16.84,16.84,0,0,0-2.39-.54,1.35,1.35,0,1,1,.41-2.67,19.51,19.51,0,0,1,2.78.63A1.35,1.35,0,0,1,93,6.44ZM82.51,5.7A1.35,1.35,0,0,1,82.4,3c.93-.08,1.85-.12,2.72-.14a1.35,1.35,0,0,1,.06,2.7c-.82,0-1.68.06-2.57.14Z" transform="translate(0 0)"/><path class="cls-1" d="M2.85,59a1.35,1.35,0,0,1-1.2-.74,7.54,7.54,0,0,1-.58-1.54A1.35,1.35,0,0,1,3.68,56a4.84,4.84,0,0,0,.37,1,1.35,1.35,0,0,1-1.2,2Z" transform="translate(0 0)"/><path class="cls-1" d="M2.15,10.3a1.35,1.35,0,0,1-1.2-2A7.56,7.56,0,0,1,1.85,7,1.35,1.35,0,0,1,3.94,8.68a4.84,4.84,0,0,0-.58.88A1.35,1.35,0,0,1,2.15,10.3Z" transform="translate(0 0)"/><path class="cls-1" d="M97.6,52.51a1.35,1.35,0,0,1-1.28-.92,16.78,16.78,0,0,0-1-2.25,1.35,1.35,0,1,1,2.4-1.23,19.49,19.49,0,0,1,1.12,2.61,1.35,1.35,0,0,1-1.28,1.78Zm-3.9-6.89a1.35,1.35,0,0,1-1.08-.53c-.5-.65-1-1.33-1.62-2a1.35,1.35,0,1,1,2.05-1.76c.61.71,1.19,1.43,1.71,2.12a1.35,1.35,0,0,1-1.07,2.17ZM88.41,39.7a1.35,1.35,0,0,1-.95-.39c-.6-.59-1.24-1.19-1.89-1.79a1.35,1.35,0,1,1,1.82-2c.67.62,1.33,1.24,2,1.85a1.35,1.35,0,0,1-.95,2.32Zm-5.94-5.28a1.35,1.35,0,0,1-.85-.3c-.66-.54-1.35-1.09-2-1.63a1.35,1.35,0,0,1,1.65-2.14c.72.55,1.42,1.12,2.1,1.67a1.35,1.35,0,0,1-.85,2.4Zm-6.34-4.8a1.34,1.34,0,0,1-.78-.25c-.7-.5-1.43-1-2.16-1.49a1.35,1.35,0,1,1,1.51-2.24c.74.5,1.49,1,2.2,1.52a1.35,1.35,0,0,1-.78,2.45ZM69.5,25.23a1.34,1.34,0,0,1-.71-.2l-2.24-1.37a1.35,1.35,0,0,1,1.39-2.32l2.28,1.39a1.35,1.35,0,0,1-.72,2.5Zm-6.86-4A1.35,1.35,0,0,1,62,21l-2.31-1.25a1.35,1.35,0,1,1,1.27-2.39l2.35,1.27a1.35,1.35,0,0,1-.65,2.53Zm-7.05-3.67A1.34,1.34,0,0,1,55,17.4l-2.37-1.14a1.35,1.35,0,0,1,1.15-2.45L56.19,15a1.35,1.35,0,0,1-.6,2.56Zm-7.22-3.32a1.35,1.35,0,0,1-.53-.11l-2.42-1a1.35,1.35,0,0,1,1-2.5l2.47,1a1.35,1.35,0,0,1-.53,2.59ZM41,11.29a1.35,1.35,0,0,1-.46-.08L38,10.33a1.35,1.35,0,0,1,.87-2.56l2.52.89A1.35,1.35,0,0,1,41,11.29ZM33.43,8.8a1.35,1.35,0,0,1-.38-.06c-.84-.25-1.69-.48-2.52-.71a1.35,1.35,0,0,1,.7-2.61c.85.23,1.72.47,2.58.72a1.35,1.35,0,0,1-.38,2.65ZM25.73,6.86l-.27,0c-.87-.18-1.73-.34-2.56-.48a1.35,1.35,0,0,1,.45-2.66c.86.15,1.75.31,2.65.5a1.35,1.35,0,0,1-.27,2.67ZM7.35,6.44A1.35,1.35,0,0,1,7,3.8a19.51,19.51,0,0,1,2.78-.63,1.35,1.35,0,1,1,.41,2.67,16.84,16.84,0,0,0-2.39.54A1.35,1.35,0,0,1,7.35,6.44ZM17.87,5.7h-.11c-.88-.07-1.75-.12-2.57-.14a1.35,1.35,0,0,1,0-2.7h0c.87,0,1.79.07,2.72.14a1.35,1.35,0,0,1-.11,2.7Z" transform="translate(0 0)"/><path class="cls-1" d="M97.53,59a1.35,1.35,0,0,1-1.2-2,4.84,4.84,0,0,0,.37-1,1.35,1.35,0,0,1,2.62.68,7.54,7.54,0,0,1-.58,1.54A1.35,1.35,0,0,1,97.53,59Z" transform="translate(0 0)"/><path class="cls-2" d="M86.07,33A31.91,31.91,0,0,0,52.33,1.13,32.34,32.34,0,0,0,21.94,30.06,31.92,31.92,0,0,0,35.56,59.61a9.26,9.26,0,0,1,4,7.76V89H68.26V67.16a9.26,9.26,0,0,1,4-7.76A31.61,31.61,0,0,0,86.07,33Z" transform="translate(0 0)"/><path d="M69.86,90.58H38.45V67.64A7.88,7.88,0,0,0,35.07,61l0,0a33.14,33.14,0,0,1-14.19-30.8A33.64,33.64,0,0,1,52.51.06,33.26,33.26,0,0,1,87.68,33.26,33.07,33.07,0,0,1,73.25,60.79a7.88,7.88,0,0,0-3.39,6.64Zm-28.71-2.7h26V67.43a10.57,10.57,0,0,1,4.58-8.88A30.68,30.68,0,0,0,75.4,11,30.28,30.28,0,0,0,52.66,2.75a30.93,30.93,0,0,0-29.12,27.7,30.47,30.47,0,0,0,13,28.31,10.58,10.58,0,0,1,4.57,8.87Z" transform="translate(0 0)"/><path class="cls-3" d="M54,9.1H52.75A24.62,24.62,0,0,0,29.9,30.69,24.07,24.07,0,0,0,40.17,52.9a17.87,17.87,0,0,1,7.55,14.46v4.82H60.29v-5A17,17,0,0,1,67.63,52.9,24.37,24.37,0,0,0,78.11,33.2,24.11,24.11,0,0,0,54,9.1Z" transform="translate(0 0)"/><path class="cls-2" d="M46.46,89.23v2.1a7.55,7.55,0,0,0,15.09,0v-2.1Z" transform="translate(0 0)"/><path d="M53.64,100.22a8.91,8.91,0,0,1-8.9-8.9V87.87H62.54v3.45A8.91,8.91,0,0,1,53.64,100.22Zm-6.19-9.64v.75a6.19,6.19,0,1,0,12.39,0v-.75Z" transform="translate(0 0)"/><path class="cls-2" d="M67.63,32.78h0a5.27,5.27,0,0,1-4,8.8H58.82V36.77a5.27,5.27,0,0,1,8.8-4Z" transform="translate(0 0)"/><path d="M63.81,42.94H59a1.35,1.35,0,0,1-1.35-1.35V36.77a6.64,6.64,0,0,1,4.05-6.18,6.41,6.41,0,0,1,7,1.21l0,0h0l0,0a6.41,6.41,0,0,1,1.21,7A6.64,6.64,0,0,1,63.81,42.94Zm-3.47-2.7h3.47a4,4,0,0,0,3.7-2.42A3.69,3.69,0,0,0,67,33.95a1.36,1.36,0,0,1-.46-.45,3.69,3.69,0,0,0-3.79-.44,4,4,0,0,0-2.42,3.7Z" transform="translate(0 0)"/><path class="cls-2" d="M40.77,32.78h0a5.27,5.27,0,0,0,4,8.8h4.82V36.77a5.27,5.27,0,0,0-8.8-4Z" transform="translate(0 0)"/><path d="M49.74,42.94H44.92a6.64,6.64,0,0,1-6.18-4.05,6.41,6.41,0,0,1,1.21-7L40,31.8a6.41,6.41,0,0,1,7-1.21,6.64,6.64,0,0,1,4.05,6.18v4.82A1.35,1.35,0,0,1,49.74,42.94Zm-7.85-9.2a3.7,3.7,0,0,0-.68,4.07,4,4,0,0,0,3.7,2.42h3.47V36.77A4,4,0,0,0,46,33.06,3.69,3.69,0,0,0,41.9,33.74Z" transform="translate(0 0)"/><path class="cls-4" d="M49.35,41.59" transform="translate(0 0)"/><path d="M49.74,78.32A1.35,1.35,0,0,1,48.39,77V41.59a1.35,1.35,0,0,1,2.7,0V77A1.35,1.35,0,0,1,49.74,78.32Z" transform="translate(0 0)"/><path d="M58.82,78.32A1.35,1.35,0,0,1,57.47,77V41.59a1.35,1.35,0,0,1,2.7,0V77A1.35,1.35,0,0,1,58.82,78.32Z" transform="translate(0 0)"/><path d="M72.92,84.89H34.69a1.35,1.35,0,1,1,0-2.7H72.92a1.35,1.35,0,1,1,0,2.7Z" transform="translate(0 0)"/><path d="M72.92,78.68H34.69a1.35,1.35,0,1,1,0-2.7H72.92a1.35,1.35,0,1,1,0,2.7Z" transform="translate(0 0)"/><path class="cls-1" d="M85.17,64.14a51.76,51.76,0,0,1-7.67-.63C66.82,61.89,53.85,57.39,41,50.82S16.87,36.4,9.3,28.69C1.38,20.64-1.62,13.56.83,8.75L3.24,10c-1.86,3.64,1.05,9.77,8,16.82C18.6,34.3,29.6,42,42.22,48.42S67.5,59.26,77.9,60.84c9.78,1.48,16.45.24,18.31-3.4l2.41,1.23C96.77,62.27,92.1,64.14,85.17,64.14Z" transform="translate(0 0)"/><path class="cls-1" d="M15.2,64.14c-6.93,0-11.6-1.87-13.44-5.47l2.41-1.23c1.86,3.64,8.53,4.88,18.31,3.4,10.4-1.57,23.07-6,35.69-12.42s23.62-14.11,31-21.62c6.93-7.05,9.84-13.18,8-16.82l2.41-1.23C102,13.56,99,20.64,91.08,28.69c-7.57,7.7-18.83,15.56-31.69,22.13S33.56,61.89,22.88,63.51A51.76,51.76,0,0,1,15.2,64.14Z" transform="translate(0 0)"/></svg>