<svg id="Layer_1" data-name="Layer 1" xmlns="http://www.w3.org/2000/svg" viewBox="0 0 99.6 100"><defs><style>.cls-1{fill:#fff;}.cls-2{fill:#4dbaf6;}.cls-3{fill:#ffb954;}.cls-4{fill:#d8d8e4;}</style></defs><title>privacy_policy</title><path class="cls-1" d="M55,13.75H69.22a7.92,7.92,0,0,1,7.92,7.92V90.61a7.92,7.92,0,0,1-7.92,7.92H9a7.92,7.92,0,0,1-7.92-7.92V19.69c0-4.38,3.55-5.94,7.92-5.94Zm0,0"/><path class="cls-2" d="M98.54,36.63V95.79a2.75,2.75,0,0,1-2.75,2.75H88.61a2.75,2.75,0,0,1-2.75-2.75V36.63Zm0,0"/><path class="cls-3" d="M85.86,89.34v6.45a2.75,2.75,0,0,0,2.75,2.75h7.18a2.75,2.75,0,0,0,2.75-2.75V89.34Zm0,0"/><path class="cls-4" d="M92.2,22.46l6.34,14.17H85.86Zm0,0"/><path class="cls-2" d="M22.4,42.27a6.34,6.34,0,1,1,6.34-6.34,6.34,6.34,0,0,1-6.34,6.34Zm0,0"/><path class="cls-2" d="M22.4,66a6.34,6.34,0,1,1,6.34-6.34A6.34,6.34,0,0,1,22.4,66Zm0,0"/><path class="cls-2" d="M22.4,89.82a6.34,6.34,0,1,1,6.34-6.34,6.34,6.34,0,0,1-6.34,6.34Zm0,0"/><path d="M22.4,43.34a7.41,7.41,0,1,1,7.41-7.41A7.41,7.41,0,0,1,22.4,43.34Zm0-12.68a5.27,5.27,0,1,0,5.27,5.27A5.28,5.28,0,0,0,22.4,30.66Z"/><path d="M22.4,67.11a7.41,7.41,0,1,1,7.41-7.41A7.41,7.41,0,0,1,22.4,67.11Zm0-12.68a5.27,5.27,0,1,0,5.27,5.27A5.28,5.28,0,0,0,22.4,54.43Z"/><path d="M22.4,90.89a7.41,7.41,0,1,1,7.41-7.41A7.41,7.41,0,0,1,22.4,90.89Zm0-12.68a5.27,5.27,0,1,0,5.27,5.27A5.28,5.28,0,0,0,22.4,78.21Z"/><path d="M62.15,40.29H39.43a2,2,0,1,0,0,4H62.15a2,2,0,1,0,0-4Zm0,0"/><path d="M62.15,30.78H39.43a2,2,0,0,0,0,4H62.15a2,2,0,1,0,0-4Zm0,0"/><path d="M62.15,64.06H39.43a2,2,0,1,0,0,4H62.15a2,2,0,1,0,0-4Zm0,0"/><path d="M62.15,54.56H39.43a2,2,0,1,0,0,4H62.15a2,2,0,1,0,0-4Zm0,0"/><path d="M62.15,87.84H39.43a2,2,0,0,0,0,4H62.15a2,2,0,1,0,0-4Zm0,0"/><path d="M62.15,78.33H39.43a2,2,0,0,0,0,4H62.15a2,2,0,1,0,0-4Zm0,0"/><path d="M69.22,100H9a9,9,0,0,1-9-9V36.63a1.07,1.07,0,1,1,2.13,0V91A6.86,6.86,0,0,0,9,97.87H69.22A6.86,6.86,0,0,0,76.07,91V22.07a6.86,6.86,0,0,0-6.86-6.86H9c-4.55,0-6.86,1.64-6.86,4.88v9.46a1.07,1.07,0,1,1-2.13,0V20.09c0-4.46,3.28-7,9-7H69.22a9,9,0,0,1,9,9V91A9,9,0,0,1,69.22,100Z"/><path class="cls-3" d="M47.71,7.5a8.72,8.72,0,0,0-8.41-6.43h-.38A8.72,8.72,0,0,0,30.5,7.5H25.43a3.76,3.76,0,0,0-3.76,3.76V18.5H56.54V11.26A3.76,3.76,0,0,0,52.78,7.5Zm0,0"/><path d="M57.6,19.57h-37V11.26a4.83,4.83,0,0,1,4.83-4.83h4.29A9.8,9.8,0,0,1,38.91,0h.38a9.8,9.8,0,0,1,9.19,6.43h4.29a4.83,4.83,0,0,1,4.83,4.83ZM22.74,17.43H55.47V11.26a2.69,2.69,0,0,0-2.69-2.69H46.89l-.21-.79a7.66,7.66,0,0,0-7.38-5.64h-.38a7.66,7.66,0,0,0-7.38,5.64l-.21.79H25.43a2.7,2.7,0,0,0-2.69,2.69Z"/><path d="M95.79,99.6H88.61A3.79,3.79,0,0,1,86,98.54l-.06-.06,0,0a3.8,3.8,0,0,1-1.07-2.65V36.63a1.07,1.07,0,0,1,.09-.44L91.22,22a1.07,1.07,0,0,1,1.95,0l6.34,14.17a1.07,1.07,0,0,1,.09.44v46.5a1.07,1.07,0,0,1-2.13,0V36.86L92.2,25.08,86.92,36.86V95.79A1.67,1.67,0,0,0,87.41,97h0l0,0a1.67,1.67,0,0,0,1.17.48H96l.14,0h0l.07,0h0l.07,0,.13,0h0l.08,0,.06,0,.12-.07,0,0a1.68,1.68,0,0,0,.73-1.38V88.58a1.07,1.07,0,0,1,2.13,0v7.21A3.82,3.82,0,0,1,98,98.92l0,0-.15.1,0,0-.14.09-.09,0-.24.11,0,0-.31.11-.11,0h0l-.24.06h-.07l-.31,0Zm.73-.07h0ZM85.87,98.44l0,0Zm10.26-1h0Z"/><path d="M94.25,37.13H85.86a.75.75,0,0,1,0-1.49h8.39a.75.75,0,0,1,0,1.49Z"/><path d="M95.16,90.09H86.76a.75.75,0,1,1,0-1.49h8.39a.75.75,0,0,1,0,1.49Z"/></svg>