<svg id="Layer_1" data-name="Layer 1" xmlns="http://www.w3.org/2000/svg" viewBox="0 0 136.1 99.83"><defs><style>.cls-1{fill:#f44335;}.cls-2{fill:#bfa885;}.cls-3{fill:#ffe0b2;}.cls-4{fill:#ff6d66;}.cls-5{fill:#f9bd75;}.cls-6{fill:#fff097;}.cls-7{fill:#c1b36f;}.cls-8{fill:#f97e78;}</style></defs><title>transparent_Agreement</title><polygon class="cls-1" points="0.81 1.84 32.01 25.79 8.5 61.75 0.81 57.26 0.81 1.84"/><path class="cls-2" d="M106.06,73.15a5.8,5.8,0,0,1-7.94,1.66l-.07,0-.37-.25A5.77,5.77,0,0,1,91.12,84l-3.81-2.63a6,6,0,0,1,1.34,7.94,5.77,5.77,0,0,1-8,1.62L76.9,88.28a7.93,7.93,0,0,1,.62.58,5.78,5.78,0,0,1-7.18,9l-9.61-6.42h0L25.64,68.9l-1.25-1L19,63.59l18-27H65.47L80.76,49.67l.88.76,19.14,12.33,3.69,2.38a6.15,6.15,0,0,1,1.92,2.1v0A5.81,5.81,0,0,1,106.06,73.15Z"/><path class="cls-3" d="M101.44,70a5.8,5.8,0,0,1-7.94,1.66l-.07,0-.37-.25a5.77,5.77,0,0,1-6.56,9.49L82.7,78.21A6,6,0,0,1,84,86.15a5.77,5.77,0,0,1-8,1.62l-3.74-2.66a8,8,0,0,1,.62.58,5.78,5.78,0,0,1-7.18,9l-9.61-6.42h0L24.39,67.91,19,63.59l18-27H64.55L77,47.27l3.74,2.4L99.85,62a5,5,0,0,1,.92.79,6.16,6.16,0,0,1,1,1.32v0A5.81,5.81,0,0,1,101.44,70Z"/><path d="M73.28,99.83a6.78,6.78,0,0,1-3.76-1.14L60,92.35l-.12-.07L24.83,69.74l-.08-.06-1.25-1-5.4-4.32A1,1,0,0,1,17.89,63l18-27a1,1,0,0,1,.83-.44H65.2a1,1,0,0,1,.65.24L81.13,48.91l.83.72L104.74,64.3h0A7.18,7.18,0,0,1,107,66.76a1,1,0,0,1,.07.17,6.8,6.8,0,0,1-.44,6.78h0a6.83,6.83,0,0,1-6.27,3,6.73,6.73,0,0,1-.65,6.26,6.76,6.76,0,0,1-9.39,1.89l-.09-.06a7,7,0,0,1-1,5.08,6.76,6.76,0,0,1-9.27,2,6.81,6.81,0,0,1-6.67,8Zm-12.42-9.3.15.08L70.62,97a4.79,4.79,0,0,0,5.94-7.46l0,0A7.06,7.06,0,0,0,76,89a1,1,0,0,1,1.21-1.58l3.73,2.65a4.77,4.77,0,0,0,6.62-1.35,5,5,0,0,0-1.13-6.61,1,1,0,0,1,1.18-1.6l3.81,2.63A4.77,4.77,0,0,0,98,81.84a4.74,4.74,0,0,0-1.2-6.51A1,1,0,0,1,98,73.7l.36.25.09.06A4.83,4.83,0,0,0,105,72.6h0a4.81,4.81,0,0,0,.27-4.88l0-.1A5.18,5.18,0,0,0,103.65,66L80.82,51.27l-.11-.09-.88-.76-15-12.85H37.26L20.05,63.39l5.9,4.71Zm44.93-17.38h0Z"/><path d="M68.66,96.67a6.78,6.78,0,0,1-3.76-1.14l-9.49-6.34-.12-.07L23.58,68.75l-.08-.06-5.4-4.32A1,1,0,0,1,17.89,63l18-27a1,1,0,0,1,.83-.44H64.27a1,1,0,0,1,.65.24L77.34,46.47,81,48.83l19.1,12.31a6.07,6.07,0,0,1,1.1.93,7.15,7.15,0,0,1,1.14,1.52,1,1,0,0,1,.08.17,6.8,6.8,0,0,1-.44,6.78h0a6.83,6.83,0,0,1-6.27,3,6.72,6.72,0,0,1-.65,6.25,6.76,6.76,0,0,1-9.39,1.89l-.09-.06a7,7,0,0,1-1,5.08,6.76,6.76,0,0,1-9.27,2,6.81,6.81,0,0,1-6.67,8Zm-12.42-9.3.15.08L66,93.87a4.79,4.79,0,0,0,5.94-7.46l0,0a7,7,0,0,0-.55-.51,1,1,0,0,1,1.21-1.58l3.73,2.65a4.77,4.77,0,0,0,6.62-1.35A5,5,0,0,0,81.81,79,1,1,0,0,1,83,77.39L86.8,80a4.77,4.77,0,0,0,6.62-1.35,4.74,4.74,0,0,0-1.2-6.51,1,1,0,0,1,1.14-1.63l.36.25.09.06a4.8,4.8,0,0,0,6.81-6.28l0-.1a5.16,5.16,0,0,0-.77-1l0,0a4,4,0,0,0-.74-.63L79.95,50.51l-3.74-2.4L76.1,48,63.91,37.57H37.26L20.05,63.39,24.7,67.1ZM101.17,70h0Z"/><path class="cls-4" d="M38.87,33.76,37,36.58l-18,27-.81,1.2a2.31,2.31,0,0,1-3.07.74L8.5,61.75,32,25.79l6.35,4.85A2.33,2.33,0,0,1,38.87,33.76Z"/><path class="cls-5" d="M32.2,83a5.77,5.77,0,0,1,.68-8.14l7.19-5.56a5.77,5.77,0,1,1,7.46,8.81L40.34,83.7A5.77,5.77,0,0,1,32.2,83Z"/><path class="cls-5" d="M24,76.21a4.57,4.57,0,0,1,.53-6.44l5.69-4.4a4.57,4.57,0,1,1,5.9,7l-5.69,4.4A4.57,4.57,0,0,1,24,76.21Z"/><path class="cls-5" d="M49.07,94.53A4.61,4.61,0,0,1,49.66,88l5.78-4.48a4.57,4.57,0,1,1,5.9,7L55.57,95A4.61,4.61,0,0,1,49.07,94.53Z"/><path class="cls-5" d="M40.08,90a4.57,4.57,0,0,1,.53-6.44l8.6-6.71a4.57,4.57,0,0,1,5.9,7l-8.6,6.71A4.57,4.57,0,0,1,40.08,90Z"/><path class="cls-5" d="M106.39,67.26v0L114,59.67,98,36.31l-9.44,2.57-9.38-4c-8.33-1.6-11.89.24-13.24,1.4a3.26,3.26,0,0,0-.72.82A25.85,25.85,0,0,1,60.83,40a4.36,4.36,0,0,0,1.37,8.15A20.64,20.64,0,0,0,74.53,46l7,4.44Z"/><path class="cls-6" d="M127.05,61.75l-6.6,3.79a2.31,2.31,0,0,1-3.07-.74L114,59.67,98,35.75l-1.32-2a2.33,2.33,0,0,1,.51-3.12l6.35-4.85Z"/><polygon class="cls-6" points="127.81 61.88 103.55 25.79 134.74 1.84 134.74 57.26 127.81 61.88"/><polygon class="cls-7" points="134.74 1.84 134.74 57.26 127.81 61.88 127.47 61.34 127.81 59.57 127.81 8.77 134.74 1.84"/><path d="M37.54,86.3l-.57,0a6.72,6.72,0,0,1-4.61-2.37h0a6.77,6.77,0,0,1,.79-9.54l0,0,7.18-5.55A6.77,6.77,0,0,1,49.1,79.14l0,0-7.18,5.55A6.72,6.72,0,0,1,37.54,86.3ZM34.43,75.9a4.78,4.78,0,0,0-.54,6.72h0a4.78,4.78,0,0,0,6.73.56l0,0,7.18-5.55a4.78,4.78,0,0,0-6.19-7.28l0,0Z"/><path d="M28.43,79.05a5.55,5.55,0,0,1-4.25-2h0a5.56,5.56,0,0,1,.65-7.84l0,0,5.68-4.39a5.56,5.56,0,0,1,7.17,8.51l0,0L32,77.75A5.54,5.54,0,0,1,28.43,79.05ZM25.7,75.8a3.58,3.58,0,0,0,5,.42l0,0,5.67-4.39a3.57,3.57,0,0,0-4.63-5.44l0,0L26.1,70.78a3.57,3.57,0,0,0-.4,5Z"/><path d="M53.49,97.36a5.59,5.59,0,0,1-4.25-1.94h0A5.61,5.61,0,0,1,50,87.51l0,0L55.75,83a5.56,5.56,0,1,1,7.17,8.51l0,0L57.12,96A5.58,5.58,0,0,1,53.49,97.36Zm-2.74-3.24a3.62,3.62,0,0,0,5.09.37l0,0L61.65,90A3.57,3.57,0,1,0,57,84.55l0,0-5.77,4.46A3.62,3.62,0,0,0,50.76,94.12Z"/><path d="M44.5,92.81a5.55,5.55,0,0,1-4.25-2h0A5.56,5.56,0,0,1,40.9,83l0,0,8.58-6.7a5.56,5.56,0,0,1,7.17,8.51l0,0-8.58,6.7A5.54,5.54,0,0,1,44.5,92.81Zm-2.73-3.25a3.58,3.58,0,0,0,5,.42l0,0,8.58-6.7a3.57,3.57,0,0,0-4.63-5.44l0,0-8.58,6.7a3.57,3.57,0,0,0-.4,5Z"/><path d="M107.31,68.5a1,1,0,0,1-.56-.17L81.89,51.5,75.4,47.37a21.51,21.51,0,0,1-12.4,2h0a5.36,5.36,0,0,1-1.69-10,25,25,0,0,0,4.11-2.7,4.24,4.24,0,0,1,.83-.91c1.55-1.32,5.43-3.27,14.06-1.61l.2.06,9.06,3.86,9.11-2.48a1,1,0,0,1,1.08.4l16,23.36a1,1,0,0,1-.12,1.27l-7.46,7.46a1,1,0,0,1-.82.43ZM75.45,45.23a1,1,0,0,1,.53.16l7,4.44,0,0,24.19,16.36,6.42-6.42L98.51,37.7l-8.76,2.39a1,1,0,0,1-.65,0l-9.28-4c-8.05-1.52-11.28.33-12.3,1.2l0,0a2.26,2.26,0,0,0-.5.57,1,1,0,0,1-.22.25,26.92,26.92,0,0,1-4.56,3,3.37,3.37,0,0,0,1.06,6.28A19.54,19.54,0,0,0,75,45.35,1,1,0,0,1,75.45,45.23Z"/><path d="M119.68,67a3.31,3.31,0,0,1-2.77-1.49l-3.41-5.12-16-23.92-1.32-2A3.31,3.31,0,0,1,96.94,30l7.21-5.51,24.67,37.73-7.52,4.31A3.29,3.29,0,0,1,119.68,67Zm-16-39.59-5.5,4.2a1.33,1.33,0,0,0-.28,1.78l1.31,2,16,23.92,3.42,5.13a1.32,1.32,0,0,0,1.75.43L126,61.59Z"/><path d="M127.9,63.43,102.56,25.75,136.1,0V58ZM105.25,26.19l23.19,34.48,5.66-3.77V4Z"/><path d="M16.42,67a3.29,3.29,0,0,1-1.63-.43L7.27,62.26,31.94,24.53l7.2,5.5a3.31,3.31,0,0,1,.74,4.45h0L38,37.31l-18,27-.81,1.2A3.3,3.3,0,0,1,16.42,67Zm-6.33-5.42,5.69,3.26a1.32,1.32,0,0,0,1.74-.42l.81-1.21,18-27,1.87-2.81a1.33,1.33,0,0,0-.29-1.79l-5.49-4.19Z"/><path d="M9,63.26,0,58V0L17.83,13.69a1,1,0,1,1-1.21,1.58L2,4V56.87l6.38,3.72L30.85,26.2,21.5,19a1,1,0,1,1,1.21-1.58l10.82,8.31Z"/><path class="cls-8" d="M16.23,20.41a.79.79,0,0,1-.48-.16L5.33,12.45a.8.8,0,1,1,1-1.27L16.71,19a.8.8,0,0,1-.48,1.43Z"/><path class="cls-8" d="M24.55,26.91a.79.79,0,0,1-.47-.15l-6-4.42A.8.8,0,1,1,19,21l6,4.42a.8.8,0,0,1-.47,1.44Z"/></svg>