<svg id="Layer_1" data-name="Layer 1" xmlns="http://www.w3.org/2000/svg" viewBox="0 0 86.97 99.83"><defs><style>.cls-1{fill:#27d3fc;}.cls-2{fill:#ffdaaa;}.cls-3{fill:#9cf6ff;}.cls-4{fill:#ffe477;}.cls-5{fill:#7ceafc;}.cls-6{fill:#fff;}.cls-7{fill:#ffbb85;}.cls-8{fill:#ffb655;}</style></defs><title>value_of_respect</title><path class="cls-1" d="M73.25,76.34V53.71a6.56,6.56,0,0,0-1.82-4.55l-2.37-2.46a6.11,6.11,0,0,0-4.39-1.89H22a6.11,6.11,0,0,0-4.39,1.89l-2.37,2.46a6.56,6.56,0,0,0-1.82,4.55V76.34a6.33,6.33,0,0,0,6.21,6.44H67A6.33,6.33,0,0,0,73.25,76.34Zm0,6.44"/><path class="cls-2" d="M60.05,17.54v14h0L49.53,42.1H37L26.53,31.58h0V17.78a16.76,16.76,0,1,1,33.52-.24Zm0,0"/><polygon class="cls-3" points="46.41 51.4 46.92 51.4 46.92 44.23 39.76 44.23 39.76 51.4 40.27 51.4 37.4 75.68 41.46 80.87 45.22 80.87 49.28 75.68 46.41 51.4"/><rect class="cls-4" x="0.85" y="81.08" width="84.98" height="17.9"/><path class="cls-5" d="M25.81,45.29h-5a3.19,3.19,0,0,0-2.25.93l-4.14,4.14a3.19,3.19,0,0,0-.93,2.25c0,4.53,0,19.51,0,26.13a3.18,3.18,0,0,0,3.18,3.18h0a3.18,3.18,0,0,0,3.18-3.18V52.62a3.19,3.19,0,0,1,.93-2.25l5.08-5.08Zm0,0"/><rect class="cls-6" x="39.76" y="44.23" width="4.24" height="7.17"/><polygon class="cls-6" points="41.65 75.68 44.52 51.4 40.27 51.4 37.4 75.68 41.46 80.87 45.22 80.87 45.46 80.56 41.65 75.68"/><path d="M45.2,82H41.68a1,1,0,0,1-.82-.4l-3.93-5a1,1,0,0,1-.21-.76l2.78-23.49a1,1,0,0,1-.44-.85V44.78a1,1,0,0,1,1-1h6.68a1,1,0,0,1,1,1v6.68a1,1,0,0,1-.44.85l2.78,23.49a1,1,0,0,1-.21.76l-3.93,5A1,1,0,0,1,45.2,82ZM42,80.38h3l3.62-4.62-2.8-23.69a1,1,0,0,1,.48-1V45.33H40.65v5.74a1,1,0,0,1,.48,1l-2.8,23.69ZM48.58,76h0Z"/><path class="cls-7" d="M32.9,18A16.77,16.77,0,0,1,46.47,1.51,16.78,16.78,0,0,0,26.53,18V32L37.05,42.53h6.37L32.9,32Zm0,0"/><rect class="cls-8" x="0.85" y="80.87" width="6.37" height="17.9"/><path d="M17,86.82l-3.27.88V84.53H10.58v3.17l-3.27-.88-.82,3.07,3.11.83L7.74,93.44l2.63,1.79,1.8-2.64L14,95.23l2.63-1.79-1.85-2.72,3.11-.83Zm0,0"/><path d="M32.61,86.82l-3.27.88V84.53H26.16v3.17l-3.27-.88-.83,3.07,3.11.83-1.85,2.72L26,95.23l1.8-2.64,1.8,2.64,2.63-1.79-1.85-2.72,3.11-.83Zm0,0"/><path d="M44.93,84.53H41.75v3.17l-3.27-.88-.82,3.07,3.11.83-1.85,2.72,2.63,1.79,1.8-2.64,1.8,2.64,2.63-1.79-1.85-2.72L49,89.89l-.83-3.07-3.27.88Zm0,0"/><path d="M54.5,93.44l2.63,1.79,1.8-2.64,1.8,2.64,2.63-1.79-1.85-2.72,3.11-.83-.82-3.07-3.27.88V84.53H57.34v3.17l-3.27-.88-.83,3.07,3.11.83Zm0,0"/><path d="M70.09,93.44l2.63,1.79,1.8-2.64,1.8,2.64,2.63-1.79-1.85-2.72,3.11-.83-.83-3.07-3.27.88V84.53H72.92v3.17l-3.27-.88-.82,3.07,3.11.83Zm0,0"/><path class="cls-6" d="M56.34,29.26a.79.79,0,0,1-.79-.79V19.66a12.14,12.14,0,0,0-2.46-7.36.79.79,0,0,1,1.27-1,13.72,13.72,0,0,1,2.78,8.32v8.81A.79.79,0,0,1,56.34,29.26ZM52.09,10.83a.79.79,0,0,1-.54-.21A12.31,12.31,0,0,0,48.76,8.7a.79.79,0,0,1,.71-1.42,13.89,13.89,0,0,1,3.15,2.17.79.79,0,0,1-.54,1.38ZM46.87,7.91a.8.8,0,0,1-.22,0,12.21,12.21,0,0,0-3.36-.47.79.79,0,1,1,0-1.59,13.8,13.8,0,0,1,3.8.53.79.79,0,0,1-.22,1.56Z"/><path d="M87,99.83H0V79.95H87Zm-85-2H85V81.93H2Z"/><path d="M49.53,43.31H37.05a1,1,0,0,1-.7-.29L25.83,32.49a1,1,0,0,1-.29-.7V24.12a1,1,0,0,1,2,0v7.26l9.94,9.95H49.12l7.1-7.1,2.85-2.85V17.75a15.77,15.77,0,1,0-31.54,0v2a1,1,0,1,1-2,0v-2a17.75,17.75,0,1,1,35.5,0v14a1,1,0,0,1-.29.7l-3.14,3.14L50.23,43A1,1,0,0,1,49.53,43.31Z"/><path d="M73.25,81.86H13.44a1,1,0,0,1-1-1V50.34a1.22,1.22,0,0,1,.36-.87,21.15,21.15,0,0,1,15-6.23H58.73a21.38,21.38,0,0,1,15.21,6.3,1,1,0,0,1,.29.7v8.15a1,1,0,1,1-2,0V50.66a19.4,19.4,0,0,0-13.52-5.44H27.85a19.17,19.17,0,0,0-13.43,5.43V79.88H72.25V62.74a1,1,0,0,1,2,0V80.87A1,1,0,0,1,73.25,81.86Z"/></svg>